<?xml version="1.0" standalone="no"?>
<!DOCTYPE svg PUBLIC "-//W3C//DTD SVG 1.1//EN" "http://www.w3.org/Graphics/SVG/1.1/DTD/svg11.dtd" >
<svg xmlns="http://www.w3.org/2000/svg" xmlns:xlink="http://www.w3.org/1999/xlink" version="1.1">
<metadata>
Created by FontForge 20170731 at Thu Oct 21 07:50:26 2021
 By Aleksey,,,
Copyright (c) 1995 ParaGraph Intl., (c) 1998 ParaType Inc., ParaType Ltd. All rights reserved.
</metadata>
<defs>
<font id="SVN-FuturaCondensed-MediumItalic" horiz-adv-x="500" >
  <font-face 
    font-family="SVN-Futura Cond Medium"
    font-weight="500"
    font-style="italic"
    font-stretch="condensed"
    units-per-em="1000"
    panose-1="0 0 0 0 0 0 0 0 0 0"
    ascent="800"
    descent="-200"
    x-height="447"
    cap-height="667"
    bbox="-183 -250 758 943"
    underline-thickness="50"
    underline-position="-150"
    slope="-7"
    unicode-range="U+000D-FB02"
  />
<missing-glyph horiz-adv-x="233" 
 />
    <glyph glyph-name="fi" unicode="fi" horiz-adv-x="367" 
d="M28 0l47 381h-41l8 66h41l19 154q3 28 9.5 53t19 44t33.5 30.5t54 11.5q15 0 27.5 -3t26.5 -9l-11 -87q-8 5 -16 8t-17 3q-18 0 -27.5 -9t-13.5 -22.5t-5 -28.5t-3 -28l-15 -117h69l-8 -66h-69l-47 -381h-81zM313 525q-20 0 -34 14.5t-14 34.5q0 25 19 44t44 19
q22 0 35 -14.5t13 -35.5q0 -25 -19 -43.5t-44 -18.5zM212 0l55 447h81l-55 -447h-81z" />
    <glyph glyph-name="fl" unicode="fl" horiz-adv-x="367" 
d="M28 0l47 381h-41l8 66h41l19 154q3 28 9.5 53t19 44t33.5 30.5t54 11.5q15 0 27.5 -3t26.5 -9l-11 -87q-8 5 -16 8t-17 3q-18 0 -27.5 -9t-13.5 -22.5t-5 -28.5t-3 -28l-15 -117h69l-8 -66h-69l-47 -381h-81zM301 729h81l-89 -729h-81z" />
    <glyph glyph-name=".notdef" horiz-adv-x="233" 
 />
    <glyph glyph-name="uni0000" horiz-adv-x="0" 
 />
    <glyph glyph-name="uni0000" horiz-adv-x="0" 
 />
    <glyph glyph-name="uni000D" unicode="&#xd;" horiz-adv-x="250" 
 />
    <glyph glyph-name="space" unicode=" " horiz-adv-x="233" 
 />
    <glyph glyph-name="exclam" unicode="!" horiz-adv-x="243" 
d="M72 180l60 487h86l-60 -487h-86zM92 -7q-20 0 -33 13.5t-13 33.5q0 24 18 42t42 18q20 0 33 -13.5t13 -33.5q0 -24 -18 -42t-42 -18z" />
    <glyph glyph-name="quotedbl" unicode="&#x22;" horiz-adv-x="339" 
d="M332 667l-14 -268h-59l-15 268h88zM184 667l-14 -268h-59l-15 268h88z" />
    <glyph glyph-name="numbersign" unicode="#" horiz-adv-x="600" 
d="M46 276h111l35 127h-110l20 73h110l53 191h81l-53 -191h128l53 191h82l-53 -191h108l-20 -73h-108l-35 -127h109l-20 -72h-109l-56 -204h-82l56 204h-128l-57 -204h-81l57 204h-111zM238 276h129l34 127h-128z" />
    <glyph glyph-name="dollar" unicode="$" horiz-adv-x="380" 
d="M103 132q7 -31 21.5 -45t46.5 -14q24 0 40.5 12t26 30t13.5 39.5t4 41.5q0 41 -20 63t-54 41q-27 16 -47.5 32t-35 35.5t-21.5 44t-7 58.5q0 36 9 71.5t27.5 64.5t46 47.5t63.5 21.5l9 76h60l-9 -76q42 -5 69 -27t35 -73l-72 -33q-6 62 -68 62q-23 0 -39.5 -10t-27 -26.5
t-15 -36.5t-4.5 -40q0 -36 22 -60t51.5 -45t58.5 -42.5t43 -51.5q8 -16 10.5 -33t2.5 -34q0 -43 -12.5 -91.5t-39.5 -83.5q-23 -29 -47.5 -40t-50.5 -17l-10 -84h-60l10 84q-45 6 -69.5 29t-35.5 75z" />
    <glyph glyph-name="percent" unicode="%" horiz-adv-x="470" 
d="M114 329q-44 0 -60.5 29.5t-16.5 75.5q0 37 4.5 78.5t17 77t36 58.5t61.5 23q23 0 38 -8.5t24 -24t12.5 -36.5t3.5 -45q-1 -33 -5.5 -73t-17.5 -74.5t-36 -57.5t-61 -23zM36 0l371 667h54l-371 -667h-54zM95 432q0 -21 5.5 -35.5t21.5 -14.5q18 0 28 21t15.5 50t8 59
t3.5 47q0 23 -4.5 41t-22.5 18q-13 0 -22 -11.5t-15 -29.5t-9.5 -40t-5.5 -43t-2.5 -37.5t-0.5 -24.5zM340 -5q-44 0 -60.5 29.5t-16.5 75.5q0 37 4.5 78.5t17 77t36 58.5t61.5 23q23 0 38 -8.5t24 -24t12.5 -36.5t3.5 -45q-1 -33 -5.5 -73t-17.5 -74.5t-36 -57.5t-61 -23z
M376 284q-12 0 -21 -11.5t-15.5 -29.5t-10 -40t-5.5 -43t-2.5 -37.5t-0.5 -24.5q0 -21 5.5 -35.5t21.5 -14.5q18 0 28 21t15.5 50t8 59t3.5 47q0 23 -4.5 41t-22.5 18z" />
    <glyph glyph-name="ampersand" unicode="&#x26;" horiz-adv-x="442" 
d="M165 -4q-32 0 -57.5 12t-43 33t-26.5 48.5t-9 57.5q0 33 10.5 63t28 57t40 50.5t47.5 42.5q-17 32 -27 67t-10 72q0 33 9 65t27.5 56.5t46 39.5t64.5 15q51 0 79.5 -31.5t28.5 -81.5q0 -33 -10.5 -63.5t-28 -58t-40.5 -51t-49 -42.5l71 -169q36 37 64 78l40 -57
q-18 -25 -37 -46t-38 -40l51 -113h-89l-25 52q-22 -26 -52.5 -41t-64.5 -15zM261 607q-18 0 -30 -9.5t-19.5 -23.5t-11 -30.5t-3.5 -30.5q0 -11 3.5 -37t18.5 -68q31 26 56 65.5t25 81.5q0 20 -8 36t-31 16zM182 292q-31 -26 -50 -61.5t-19 -77.5q0 -30 16 -56t50 -26
q12 0 31.5 7t42.5 35z" />
    <glyph glyph-name="quotesingle" unicode="'" horiz-adv-x="191" 
d="M170 399h-59l-15 268h88z" />
    <glyph glyph-name="parenleft" unicode="(" horiz-adv-x="263" 
d="M46 109q0 163 41.5 322.5t112.5 308.5l84 -21q-65 -143 -105 -294t-40 -305q0 -74 10.5 -146.5t24.5 -144.5l-89 -23q-17 75 -28 150.5t-11 152.5z" />
    <glyph glyph-name="parenright" unicode=")" horiz-adv-x="263" 
d="M-10 -173q33 75 59.5 147.5t45.5 147t29.5 151t10.5 158.5q0 70 -10.5 142t-24.5 144l89 23q17 -75 28 -150t11 -149q0 -75 -10.5 -155.5t-30.5 -162.5t-48.5 -162t-64.5 -155z" />
    <glyph glyph-name="asterisk" unicode="*" horiz-adv-x="389" 
d="M281 580l59 -87l-55 -34l-47 89l-71 -90l-46 38l80 83l-103 25l24 59l96 -38l10 109l62 -6l-20 -104l101 41l20 -60z" />
    <glyph glyph-name="plus" unicode="+" 
d="M46 297v74h177v169h80v-169h177v-74h-177v-169h-80v169h-177z" />
    <glyph glyph-name="comma" unicode="," horiz-adv-x="175" 
d="M10 -143l-43 13l79 223l68 -21z" />
    <glyph glyph-name="hyphen" unicode="-" horiz-adv-x="255" 
d="M204 217h-155l9 78h155z" />
    <glyph glyph-name="period" unicode="." horiz-adv-x="184" 
d="M17 40q0 23 17.5 41.5t41.5 18.5q20 0 33.5 -13.5t13.5 -33.5q0 -24 -18 -42t-42 -18q-20 0 -33 13.5t-13 33.5z" />
    <glyph glyph-name="slash" unicode="/" horiz-adv-x="390" 
d="M-23 -183h-70l503 912h68z" />
    <glyph glyph-name="zero" unicode="0" horiz-adv-x="380" 
d="M43 167q0 81 10 161.5t28 158.5q8 32 20 65.5t31 60.5t46.5 44.5t66.5 17.5q38 0 61 -16.5t36 -42.5t17.5 -57.5t4.5 -61.5q0 -80 -8.5 -160t-28.5 -158q-8 -31 -20 -64.5t-31 -60.5t-46.5 -44.5t-66.5 -17.5q-37 0 -60.5 16t-36.5 41.5t-18 56.5t-5 61zM129 158
q0 -11 1 -26t5 -29t12.5 -23.5t23.5 -9.5q17 0 29 13.5t20 32.5t12.5 39.5t7.5 33.5q16 80 26 159.5t10 160.5q0 11 -1 26t-5 28.5t-12.5 22.5t-23.5 9q-17 0 -29 -14t-20 -33t-12.5 -39.5t-7.5 -33.5q-16 -78 -26 -157t-10 -160z" />
    <glyph glyph-name="one" unicode="1" horiz-adv-x="380" 
d="M210 0h-85l73 590h-65l9 77h150z" />
    <glyph glyph-name="two" unicode="2" horiz-adv-x="380" 
d="M15 0q29 50 58.5 98.5t58.5 98.5q33 56 66.5 112t59.5 116q11 26 19.5 53.5t8.5 55.5q0 25 -10 44t-39 19q-16 0 -27 -8t-17.5 -20.5t-10.5 -27t-6 -27.5q-3 -16 -5.5 -32t-4.5 -32h-87q4 42 11.5 82.5t25.5 72t49.5 51t83.5 19.5q66 0 96 -31.5t30 -97.5
q0 -43 -14.5 -90t-36.5 -93.5t-48.5 -90t-49.5 -78.5q-20 -29 -39.5 -58t-36.5 -59h163l-9 -77h-289z" />
    <glyph glyph-name="three" unicode="3" horiz-adv-x="380" 
d="M35 119q0 12 1 24t3 24h83q-1 -9 -2.5 -17.5t-1.5 -17.5q0 -23 10.5 -42t37.5 -19q26 0 41.5 19t23.5 45.5t10.5 55t2.5 47.5q0 34 -16 53t-51 19q-6 0 -11.5 -0.5t-11.5 -1.5l9 78h14q20 0 37.5 3.5t32.5 18.5q10 10 16.5 25.5t10 33t5 35t1.5 30.5q0 11 -1.5 22.5
t-6 21t-12.5 15.5t-22 6q-19 0 -31 -11.5t-19 -28.5t-10 -36t-4 -33h-84l2 16q5 36 13.5 67t26 54t44.5 36.5t68 13.5q120 0 120 -120q0 -32 -4 -63t-13 -61q-5 -18 -11.5 -31t-15.5 -23.5t-21.5 -18t-29.5 -14.5q37 -13 51 -36.5t14 -61.5q0 -36 -6.5 -79.5t-20.5 -77.5
q-20 -51 -61.5 -74t-94.5 -23q-65 0 -90.5 33t-25.5 94z" />
    <glyph glyph-name="four" unicode="4" horiz-adv-x="380" 
d="M39 245l231 422h82l-52 -430h42l-9 -68h-42l-21 -169h-82l21 169h-180zM103 237h113l37 284z" />
    <glyph glyph-name="five" unicode="5" horiz-adv-x="380" 
d="M123 -8q-30 0 -52.5 7t-48.5 21l32 79q18 -11 35 -17.5t38 -6.5q31 0 52.5 18t35 44.5t20 57t6.5 55.5q0 48 -21.5 74.5t-72.5 26.5q-26 0 -55 -8l78 324h209l-10 -78h-141l-42 -167q151 0 151 -149q0 -48 -12.5 -98t-39 -90.5t-66.5 -66.5t-96 -26z" />
    <glyph glyph-name="six" unicode="6" horiz-adv-x="380" 
d="M43 132q0 80 15 149t41.5 132.5t61.5 125.5t75 128h94q-18 -33 -37.5 -65t-39.5 -64q-23 -38 -44.5 -77.5t-41.5 -80.5q17 14 34.5 22t40.5 8q26 0 43.5 -10.5t28 -28t15.5 -39t5 -43.5q0 -30 -2 -63.5t-7.5 -66.5t-17 -63t-30.5 -53.5t-47 -37t-67 -13.5q-34 0 -57 10.5
t-37 29t-20 44t-6 56.5zM158 298q-7 -14 -12.5 -34t-9 -41.5t-5 -42.5t-1.5 -37q0 -10 1 -23t5.5 -24t13 -18.5t22.5 -7.5q25 0 39.5 23t22.5 54.5t10.5 63t2.5 49.5q0 13 -1 25t-5.5 21.5t-13.5 15.5t-25 6q-17 0 -26.5 -8t-17.5 -22z" />
    <glyph glyph-name="seven" unicode="7" horiz-adv-x="380" 
d="M119 0h-95l256 591h-183l9 76h294z" />
    <glyph glyph-name="eight" unicode="8" horiz-adv-x="380" 
d="M41 129q0 22 2 49.5t7.5 55t14.5 52.5t24 42q11 14 24 21t30 13q-37 16 -46.5 42.5t-9.5 63.5q0 30 5 61t16 59q20 50 55.5 68.5t87.5 18.5q63 0 88 -31.5t25 -91.5q0 -28 -3.5 -57t-14 -55t-28 -46.5t-46.5 -31.5q37 -14 49 -39.5t12 -63.5q0 -43 -6.5 -90t-25 -86.5
t-52.5 -65t-88 -25.5q-66 0 -93 38t-27 99zM236 597q-19 0 -31.5 -14.5t-19 -34.5t-9 -42t-2.5 -36q0 -10 1 -22t5 -22.5t11.5 -17.5t20.5 -7q19 0 31.5 15.5t19.5 37t9.5 44t2.5 36.5q0 10 -1.5 21t-5.5 20.5t-11.5 15.5t-20.5 6zM128 140q0 -11 1.5 -23t6 -22.5t13 -17
t22.5 -6.5q25 0 39.5 20.5t22 49t9.5 57.5t2 47q0 12 -1.5 24t-6 22t-13.5 16t-24 6q-23 0 -37 -21t-21.5 -49t-10 -57t-2.5 -46z" />
    <glyph glyph-name="nine" unicode="9" horiz-adv-x="380" 
d="M72 404q0 24 3.5 55.5t12 64t22 62.5t33.5 50q26 26 53.5 32.5t49.5 6.5q33 0 56 -10.5t36.5 -29t19.5 -44.5t6 -57q0 -90 -21.5 -180t-66.5 -168l-109 -186h-94l83 135q22 35 41 68.5t41 76.5q-15 -15 -33 -21t-32 -6q-29 0 -48.5 14.5t-31 37t-16.5 49t-5 50.5z
M235 593q-25 0 -40.5 -23t-23 -54t-10 -62.5t-2.5 -48.5q0 -11 1.5 -24t6 -23.5t13 -17.5t22.5 -7q25 0 40 21.5t23 51t10.5 59.5t2.5 47q0 11 -1 25t-5 26.5t-13 21t-24 8.5z" />
    <glyph glyph-name="colon" unicode=":" horiz-adv-x="184" 
d="M60 393q0 24 18 42t42 18q20 0 33 -13.5t13 -33.5q0 -24 -18 -41.5t-42 -17.5q-20 0 -33 13t-13 33zM63 -7q-20 0 -33 13.5t-13 33.5q0 23 17.5 41.5t41.5 18.5q20 0 33.5 -13.5t13.5 -33.5q0 -24 -18 -42t-42 -18z" />
    <glyph glyph-name="semicolon" unicode=";" horiz-adv-x="175" 
d="M99 347q-20 0 -33 13t-13 33q0 24 18 42t42 18q20 0 33 -13.5t13 -33.5q0 -24 -18 -41.5t-42 -17.5zM-33 -130l79 223l68 -21l-104 -215z" />
    <glyph glyph-name="less" unicode="&#x3c;" 
d="M33 296v69l434 205v-79l-348 -161l347 -160l1 -79z" />
    <glyph glyph-name="equal" unicode="=" 
d="M47 384v70h434v-70h-434zM47 229v70h434v-70h-434z" />
    <glyph glyph-name="greater" unicode="&#x3e;" 
d="M59 491v79l433 -205v-69l-433 -205v80l347 160z" />
    <glyph glyph-name="question" unicode="?" horiz-adv-x="324" 
d="M73 502q4 37 10.5 68.5t21.5 55t41.5 36.5t70.5 13q59 0 81 -33t22 -87q0 -24 -2 -54t-7.5 -61t-14 -59t-21.5 -47q-15 -22 -31 -29t-42 -8l-14 -117h-77l22 176h5l9 -1q28 0 44.5 8t26.5 36q5 14 8.5 32t6 37t4 38t1.5 35q0 9 -1 20t-5 20t-11.5 15t-19.5 6
q-16 0 -25 -11.5t-14 -27t-7 -32.5t-4 -29h-78zM80 40q0 23 17.5 41.5t41.5 18.5q20 0 33.5 -13.5t13.5 -33.5q0 -24 -18 -42t-42 -18q-20 0 -33 13.5t-13 33.5z" />
    <glyph glyph-name="at" unicode="@" horiz-adv-x="733" 
d="M361 -13q-69 0 -127.5 20t-101 58.5t-66 94.5t-23.5 128q0 80 32 150.5t86 123t125 83.5t150 31q58 0 109 -17.5t89.5 -50.5t60.5 -81t22 -109q0 -82 -40 -154q-12 -21 -28 -42t-35.5 -38t-42.5 -27.5t-49 -10.5q-29 0 -47.5 17.5t-17.5 47.5q-24 -32 -58.5 -51
t-74.5 -19q-30 0 -52.5 11t-38 29.5t-23.5 43t-8 52.5q0 40 15.5 80.5t42.5 72.5t64 52.5t79 20.5q38 0 64 -17t36 -55l19 60h57l-65 -207q-3 -11 -8 -26.5t-5 -26.5q0 -15 7 -26t24 -11q20 0 36 11.5t29 24.5q17 17 29.5 38.5t21 45.5t13 49t4.5 48q0 51 -18.5 91t-50 67
t-74 41t-91.5 14q-67 0 -127.5 -26.5t-106 -72.5t-72 -106t-26.5 -128q0 -60 19.5 -106.5t55 -79t84 -49t106.5 -16.5q55 0 108.5 10.5t104.5 33.5l9 -52q-54 -23 -110.5 -34t-114.5 -11zM404 444q-30 0 -55 -14.5t-43 -37.5t-28.5 -51.5t-10.5 -55.5q0 -38 18.5 -62
t58.5 -24q30 0 54.5 16.5t41.5 41.5t26 54.5t9 56.5q0 32 -18.5 54t-52.5 22z" />
    <glyph glyph-name="A" unicode="A" horiz-adv-x="355" 
d="M-27 0l225 667h69l59 -667h-88l-8 130h-131l-40 -130h-86zM225 199q-4 66 -7 132t-3 132v37t1 37q-2 -6 -3 -11.5t-3 -11.5l-11 -47q-17 -68 -37 -134.5t-42 -133.5h105z" />
    <glyph glyph-name="B" unicode="B" horiz-adv-x="358" 
d="M104 667h120q64 0 93 -33.5t29 -95.5q0 -19 -1.5 -40.5t-6 -42.5t-12.5 -40.5t-20 -34.5q-14 -17 -29 -25.5t-35 -15.5q23 -10 37.5 -20.5t23 -24.5t12 -32t3.5 -42q0 -20 -3 -42.5t-9.5 -45t-16 -43t-22.5 -36.5q-25 -31 -58 -42t-71 -11h-115zM158 373q19 0 35.5 4.5
t30.5 18.5q10 10 16.5 25t10.5 32.5t6 34.5t2 30q0 32 -15 54t-50 22h-15l-27 -221h6zM115 77q24 0 44.5 4t37.5 24q9 11 14.5 25.5t9 30t5 31.5t1.5 29q0 46 -19.5 63.5t-64.5 17.5z" />
    <glyph glyph-name="C" unicode="C" horiz-adv-x="332" 
d="M42 216q0 35 3.5 75t10.5 80.5t16.5 79t22.5 71.5q12 32 30.5 60t42.5 48.5t54 32.5t66 12q22 0 37.5 -3.5t34.5 -15.5l-9 -81q-13 8 -26.5 12.5t-28.5 4.5q-35 0 -60 -20t-43 -51.5t-29 -71t-17 -79t-8 -75t-2 -59.5q0 -26 3.5 -53.5t14 -50.5t30.5 -38t53 -15
q28 0 53 13l-10 -82q-19 -11 -35 -15t-38 -4q-50 0 -82 19.5t-51 51t-26 72t-7 82.5z" />
    <glyph glyph-name="D" unicode="D" horiz-adv-x="405" 
d="M104 667h109q24 0 48 -2.5t46 -13.5q26 -13 42 -35.5t25 -49t12 -55t3 -54.5q0 -36 -3.5 -81.5t-11 -92.5t-19 -91t-27.5 -76q-19 -39 -43.5 -62t-53.5 -35t-63.5 -15.5t-73.5 -3.5h-71zM124 78q37 0 64 10.5t49 42.5q16 23 27.5 66t18.5 91.5t10 94.5t3 75q0 32 -4 56.5
t-16 41.5t-34 26t-58 9l-63 -513h3z" />
    <glyph glyph-name="E" unicode="E" horiz-adv-x="316" 
d="M330 591h-146l-26 -212h130l-10 -76h-130l-27 -227h146l-9 -76h-235l81 667h235z" />
    <glyph glyph-name="F" unicode="F" horiz-adv-x="305" 
d="M331 591h-147l-26 -211h133l-9 -76h-133l-38 -304h-88l81 667h237z" />
    <glyph glyph-name="G" unicode="G" horiz-adv-x="406" 
d="M181 -9q-46 0 -74 17t-43 45t-19.5 64t-4.5 73q0 65 7.5 128.5t20.5 126.5q9 42 21 83.5t33.5 74t55 52.5t85.5 20q69 0 99 -36t40 -100l-87 -35q-1 16 -3.5 32.5t-9 29.5t-18.5 21.5t-33 8.5q-33 0 -48.5 -21.5t-24.5 -48.5q-11 -32 -20 -78t-15 -94.5t-9.5 -95.5
t-3.5 -82q0 -17 1 -35t6.5 -32.5t18 -24t35.5 -9.5q22 0 37 10t24.5 25.5t15 34t8.5 36.5q5 23 8.5 46.5t5.5 47.5h-76l9 76h161q-4 -32 -8 -71.5t-11.5 -79.5t-20.5 -77.5t-34.5 -67t-52.5 -47t-76 -17.5z" />
    <glyph glyph-name="H" unicode="H" horiz-adv-x="408" 
d="M104 667h89l-32 -261h129l32 261h89l-82 -667h-88l40 330h-129l-41 -330h-88z" />
    <glyph glyph-name="I" unicode="I" horiz-adv-x="190" 
d="M111 0h-88l81 667h89z" />
    <glyph glyph-name="J" unicode="J" horiz-adv-x="255" 
d="M44 -9q-19 0 -37.5 4t-35.5 14l11 90q13 -8 26.5 -15.5t29.5 -7.5q24 0 37.5 10.5t20.5 26.5t9.5 35.5t4.5 37.5l59 481h89l-63 -512q-3 -22 -7 -44t-13 -42q-18 -40 -53.5 -59t-77.5 -19z" />
    <glyph glyph-name="K" unicode="K" horiz-adv-x="366" 
d="M104 667h89l-38 -306l158 306h92l-174 -325l95 -342h-92l-84 327l-39 -327h-88z" />
    <glyph glyph-name="L" unicode="L" horiz-adv-x="288" 
d="M256 0h-233l81 667h89l-72 -591h144z" />
    <glyph glyph-name="M" unicode="M" horiz-adv-x="497" 
d="M136 667h75q11 -121 22.5 -241t11.5 -241q5 27 13.5 56.5t17.5 55.5l10 37l9 30l8 23l2 6l2 6l84 268h77l-22 -667h-85q4 69 7 138.5t10 138.5q1 6 1 11.5t1 10.5l4 45q4 24 7 54t3 53v8q-4 -22 -11 -42.5t-13 -41.5l-18 -61q-23 -79 -48 -157t-50 -157h-60
q-10 115 -19.5 229.5t-9.5 229.5l-82 -459h-83z" />
    <glyph glyph-name="N" unicode="N" horiz-adv-x="407" 
d="M23 0l81 667h83l55 -267q12 -60 22 -119.5t16 -120.5v110q0 38 3 74.5t8 73.5l31 249h88l-81 -667h-83l-62 300q-8 35 -13.5 69t-9.5 69l-4 50q-1 6 -1.5 12.5t-1.5 12.5v-16q0 -21 -1 -42.5t-3 -42.5q-8 -104 -18.5 -206.5t-21.5 -205.5h-87z" />
    <glyph glyph-name="O" unicode="O" horiz-adv-x="416" 
d="M41 171q0 77 7.5 153.5t24.5 151.5q9 38 22.5 74t35 64t53.5 44.5t77 16.5q43 0 70.5 -15.5t43.5 -41t22 -59t6 -70.5q0 -81 -9.5 -163t-31.5 -160q-10 -35 -24 -67t-35 -56t-50.5 -38t-70.5 -14q-42 0 -69.5 14.5t-43 39t-22 57.5t-6.5 69zM130 175q0 -15 1.5 -33
t7.5 -33t17.5 -25t32.5 -10q20 0 33 7.5t22.5 20t15.5 28t10 31.5q9 32 16.5 75.5t13 90t8.5 91t3 77.5q0 17 -1 34.5t-6.5 31.5t-17.5 23.5t-34 9.5q-30 0 -47.5 -20t-26.5 -46q-10 -29 -19 -75.5t-15.5 -97t-10 -99t-3.5 -81.5z" />
    <glyph glyph-name="P" unicode="P" horiz-adv-x="345" 
d="M23 0l81 667h117q76 0 108.5 -32.5t32.5 -108.5q0 -25 -4 -54t-13.5 -56t-24.5 -51t-37 -39q-30 -21 -65.5 -25.5t-70.5 -4.5l-36 -296h-88zM165 373q31 0 51 11t31.5 29t16 42t4.5 51q0 39 -14.5 62t-57.5 23h-12l-27 -218h8z" />
    <glyph glyph-name="Q" unicode="Q" horiz-adv-x="416" 
d="M182 -9q-43 0 -70 15.5t-43 42t-22 60.5t-6 70q0 75 7 150t24 148q9 38 22.5 73.5t35 63.5t53 44.5t76.5 16.5q44 0 71.5 -15t43.5 -40.5t22 -59.5t6 -71q0 -41 -3.5 -98.5t-12.5 -117.5t-24.5 -114.5t-39.5 -90.5l46 -78l-61 -41l-36 66q-23 -13 -42.5 -18.5t-46.5 -5.5
zM178 528q-11 -30 -19.5 -76.5t-14.5 -96.5t-9.5 -97.5t-3.5 -80.5q0 -16 1.5 -34t7.5 -33t18 -25t33 -10q20 0 36 12l-46 82l58 43l30 -53q9 32 16.5 75.5t13.5 89.5t9 90t3 78q0 17 -1 35t-7 33t-18 24.5t-35 9.5q-29 0 -46 -20.5t-26 -45.5z" />
    <glyph glyph-name="R" unicode="R" horiz-adv-x="367" 
d="M23 0l81 667h117q72 0 102.5 -33.5t30.5 -104.5q0 -28 -6 -61t-20.5 -63t-38 -52t-58.5 -29l90 -324h-90l-82 311l-38 -311h-88zM157 371q17 0 34.5 2.5t31.5 13.5q13 9 21 24.5t13 33t7 35t2 32.5q0 20 -2.5 35t-10 25.5t-21 15.5t-35.5 5h-13z" />
    <glyph glyph-name="S" unicode="S" horiz-adv-x="325" 
d="M37 112q18 -15 37.5 -25t43.5 -10q23 0 39.5 9.5t28 25t17 35t5.5 39.5q0 29 -10.5 51.5t-27 42.5t-35 40t-35 42.5t-27 49.5t-10.5 63q0 38 11 74t32.5 64t53.5 45t74 17q26 0 45.5 -4t42.5 -18l-12 -88q-14 14 -31 22t-37 8q-21 0 -38 -9t-29 -23.5t-18 -33t-6 -38.5
q0 -26 10.5 -47t26.5 -41.5t35 -41t35 -44.5t26.5 -53t10.5 -66q0 -38 -11.5 -75t-34 -66.5t-55.5 -47.5t-75 -18q-26 0 -49.5 7.5t-43.5 24.5z" />
    <glyph glyph-name="T" unicode="T" horiz-adv-x="284" 
d="M52 667h290l-10 -79h-102l-72 -588h-87l73 588h-102z" />
    <glyph glyph-name="U" unicode="U" horiz-adv-x="403" 
d="M171 -9q-63 0 -97 29.5t-34 95.5q0 20 2.5 40t4.5 40l57 471h87l-58 -471q-2 -16 -3.5 -31t-1.5 -31q0 -58 59 -58q24 0 37.5 10t20.5 25.5t10 34.5t5 37l60 484h86l-59 -484q-5 -43 -15 -78.5t-29.5 -60.5t-51 -39t-80.5 -14z" />
    <glyph glyph-name="V" unicode="V" horiz-adv-x="322" 
d="M139 667q5 -126 10 -251t5 -251q11 54 26.5 105.5t29.5 103.5q20 74 41.5 146.5t43.5 146.5h83l-211 -667h-70l-45 667h87z" />
    <glyph glyph-name="W" unicode="W" horiz-adv-x="516" 
d="M55 667h86l6 -310v-11l2 -24q0 -39 -1 -78.5t-3 -78.5l18 81l16 66t18 66l83 289h68l9 -280q1 -33 2 -65.5t1 -65.5q0 -22 -0.5 -43t-1.5 -43q11 48 21.5 95.5t23.5 95.5l81 306h85l-198 -667h-69q-4 102 -8.5 202.5t-4.5 202.5q0 23 0.5 45t1.5 45q-9 -39 -17 -78.5
t-19 -78.5q-23 -85 -48 -169t-49 -169h-71z" />
    <glyph glyph-name="X" unicode="X" horiz-adv-x="327" 
d="M-30 0l166 339l-76 328h86q14 -60 29 -119.5t19 -121.5q7 21 14.5 42.5t17.5 41.5l9 19l59 138h89l-162 -328l80 -339h-89q-14 62 -28.5 123.5t-17.5 125.5q-7 -27 -17.5 -52t-21.5 -51q-15 -37 -31 -73t-32 -73h-94z" />
    <glyph glyph-name="Y" unicode="Y" horiz-adv-x="336" 
d="M146 667l32 -179q2 -12 4.5 -29t4.5 -35t3.5 -35.5t2.5 -30.5q17 62 42 132l65 177h92l-161 -380l-35 -287h-89l35 287l-90 380h94z" />
    <glyph glyph-name="Z" unicode="Z" horiz-adv-x="329" 
d="M108 79h187l-10 -79h-302l272 591h-176l9 76h290z" />
    <glyph glyph-name="bracketleft" unicode="[" horiz-adv-x="307" 
d="M327 653h-119l-94 -760h119l-9 -76h-209l113 912h208z" />
    <glyph glyph-name="backslash" unicode="\" horiz-adv-x="531" 
d="M133 729l391 -912h-70l-389 912h68z" />
    <glyph glyph-name="bracketright" unicode="]" horiz-adv-x="307" 
d="M191 -183h-209l10 76h119l94 760h-120l10 76h209z" />
    <glyph glyph-name="asciicircum" unicode="^" 
d="M214 667h105l175 -308h-87l-141 244l-141 -244h-86z" />
    <glyph glyph-name="underscore" unicode="_" 
d="M-28 -134v70h500v-70h-500z" />
    <glyph glyph-name="grave" unicode="`" 
d="M296 513l-99 107l60 44l82 -125z" />
    <glyph glyph-name="a" unicode="a" horiz-adv-x="343" 
d="M23 123q0 23 1.5 56t6.5 70t14.5 73.5t25 65.5t38 47.5t54.5 18.5q30 0 46.5 -16t27.5 -42l6 51h81l-55 -447h-81l7 57q-16 -28 -35 -46t-54 -18q-27 0 -43 12.5t-25 31.5t-12 42t-3 44zM106 139q0 -10 1 -23t5 -23.5t12.5 -18t22.5 -7.5t23.5 8t16 19.5t10.5 24.5t7 24
q20 83 20 166q0 10 -1 22t-5 22.5t-11.5 18t-20.5 7.5q-16 0 -26.5 -8.5t-17.5 -21.5t-11 -28t-7 -27q-8 -38 -13 -77t-5 -78z" />
    <glyph glyph-name="b" unicode="b" horiz-adv-x="343" 
d="M108 729h81l-41 -333q16 25 35 41.5t51 16.5q27 0 43.5 -12t26.5 -30.5t13.5 -41t3.5 -43.5q0 -22 -2 -55.5t-7 -70.5t-15 -74t-25.5 -67t-38 -48.5t-53.5 -18.5q-34 0 -49 17.5t-25 46.5l-7 -57h-81zM118 136q0 -10 1.5 -22t5.5 -22.5t11.5 -17.5t20.5 -7q15 0 25.5 9
t17.5 21.5t11 27.5t7 27q8 38 13 77.5t5 78.5q0 11 -1 23t-5 23t-12.5 18t-22.5 7q-17 0 -29.5 -15t-21 -38t-14 -51.5t-8 -55.5t-3.5 -49.5t-1 -33.5z" />
    <glyph glyph-name="c" unicode="c" horiz-adv-x="249" 
d="M23 140q0 49 8 102t24 99q17 48 48.5 80.5t86.5 32.5q19 0 32 -3.5t30 -12.5l-11 -84q-11 21 -38 21q-30 0 -47.5 -25t-26.5 -59t-12 -69.5t-3 -56.5q0 -14 1 -30.5t6 -30.5t15.5 -23.5t29.5 -9.5q12 0 22.5 4.5t20.5 12.5l-10 -77q-18 -10 -32.5 -14t-35.5 -4
q-32 0 -53 13t-33 33.5t-17 47t-5 53.5z" />
    <glyph glyph-name="d" unicode="d" horiz-adv-x="342" 
d="M23 123q0 23 1.5 56t6.5 70t14 73.5t25 66t39 47.5t55 18t47 -15.5t26 -42.5l40 333h82l-90 -729h-81l7 57q-16 -28 -35 -46t-54 -18q-27 0 -43 12.5t-25 31.5t-12 42t-3 44zM106 139q0 -10 1 -23t5 -23.5t12.5 -18t22.5 -7.5t23.5 8t16 19.5t10.5 24.5t7 24
q20 83 20 166q0 10 -1 22t-5 22.5t-11.5 18t-20.5 7.5q-16 0 -26.5 -8.5t-17.5 -21.5t-11 -28t-7 -27q-8 -38 -13 -77t-5 -78z" />
    <glyph glyph-name="e" unicode="e" horiz-adv-x="321" 
d="M23 141q0 27 2.5 60.5t9.5 68t18.5 68t30.5 59t45 41.5t61 16q33 0 54 -14t33.5 -36.5t17 -50t4.5 -54.5q0 -23 -2 -46t-5 -46h-185q-2 -15 -3 -29.5t-1 -29.5q0 -12 0.5 -26.5t4.5 -27t13 -21.5t25 -9t27 9t17.5 22t10.5 28t5 28h76q-4 -30 -14.5 -58.5t-27.5 -50.5
t-42.5 -35.5t-61.5 -13.5q-34 0 -55.5 12.5t-34.5 33t-18 47t-5 55.5zM180 384q-18 0 -29.5 -13.5t-19 -32t-11 -38.5t-6.5 -33h103q1 8 1 16.5v16.5v15q0 10 -1 22t-4.5 22.5t-11 17.5t-21.5 7z" />
    <glyph glyph-name="f" unicode="f" horiz-adv-x="213" 
d="M28 0l47 381h-41l8 66h41l19 154q3 28 9.5 53t19 44t33.5 30.5t54 11.5q15 0 27.5 -3t26.5 -9l-11 -87q-8 5 -16 8t-17 3q-18 0 -27.5 -9t-13.5 -22.5t-5 -28.5t-3 -28l-15 -117h69l-8 -66h-69l-47 -381h-81z" />
    <glyph glyph-name="g" unicode="g" horiz-adv-x="344" 
d="M112 -188q-54 0 -83.5 27t-29.5 82q0 15 3 32h79q-1 -5 -1.5 -10.5t-0.5 -10.5q0 -22 11.5 -36.5t34.5 -14.5q19 0 30 8t17 21t9 28t4 30l10 87q-14 -27 -34.5 -44.5t-52.5 -17.5q-26 0 -43 12t-26.5 30.5t-13 41.5t-3.5 44q0 113 30 221q6 21 15 41t22.5 35.5t32 25.5
t42.5 10q32 0 47 -17t26 -44l6 54h82l-57 -461q-3 -26 -7.5 -52t-15.5 -50q-18 -39 -54.5 -55.5t-78.5 -16.5zM107 139q0 -11 1 -23.5t5.5 -23.5t13 -18t22.5 -7q18 0 28 10.5t16 25.5q7 17 12.5 43t9.5 54t6 55t2 46q0 10 -1.5 23.5t-5.5 25.5t-12 20.5t-22 8.5
q-16 0 -28 -14.5t-20.5 -37.5t-13.5 -51t-8 -54.5t-4 -49t-1 -33.5z" />
    <glyph glyph-name="h" unicode="h" horiz-adv-x="353" 
d="M18 0l90 729h81l-41 -334q19 27 40.5 43t56.5 16q38 0 57.5 -21t19.5 -58q0 -14 -1 -28.5t-3 -28.5l-39 -318h-82l37 299l2 18t1 18q0 20 -9.5 33.5t-30.5 13.5q-19 0 -30 -9t-17.5 -23t-9.5 -30t-5 -31l-36 -289h-81z" />
    <glyph glyph-name="i" unicode="i" horiz-adv-x="173" 
d="M124 503q-18 0 -31.5 13.5t-13.5 31.5q0 20 13.5 33.5t31.5 13.5q19 0 32.5 -14t13.5 -33q0 -17 -13.5 -31t-32.5 -14zM18 0l55 447h81l-55 -447h-81z" />
    <glyph glyph-name="j" unicode="j" horiz-adv-x="174" 
d="M126 503q-18 0 -31.5 13.5t-13.5 31.5q0 20 13.5 33.5t31.5 13.5q19 0 32.5 -14t13.5 -33q0 -17 -13.5 -31t-32.5 -14zM-5 -188l79 635h81l-78 -635h-82z" />
    <glyph glyph-name="k" unicode="k" horiz-adv-x="341" 
d="M108 729h81l-58 -473l124 191h94l-142 -207l102 -240h-92l-90 222l-28 -222h-81z" />
    <glyph glyph-name="l" unicode="l" horiz-adv-x="172" 
d="M99 0h-81l89 729h81z" />
    <glyph glyph-name="m" unicode="m" horiz-adv-x="532" 
d="M73 447h81l-7 -55q18 26 40.5 44t56.5 18q33 0 50.5 -15t24.5 -47q19 29 41.5 45.5t58.5 16.5q37 0 60.5 -19.5t23.5 -57.5v-10.5t-1 -10.5l-44 -356h-81l36 294q3 21 3 42q0 20 -8 31.5t-29 11.5q-19 0 -30.5 -7.5t-17.5 -20t-8.5 -27.5t-4.5 -30l-36 -294h-84l36 294
q3 23 3 44q0 41 -40 41q-19 0 -30 -8t-17.5 -20t-9 -27t-4.5 -30l-37 -294h-81z" />
    <glyph glyph-name="n" unicode="n" horiz-adv-x="353" 
d="M18 0l55 447h81l-6 -52q19 27 40.5 43t56.5 16q38 0 57.5 -21t19.5 -58q0 -14 -1 -28.5t-3 -28.5l-39 -318h-82l37 299l2 18t1 18q0 20 -9.5 33.5t-30.5 13.5q-19 0 -30 -9t-17.5 -23t-9.5 -30t-5 -31l-36 -289h-81z" />
    <glyph glyph-name="o" unicode="o" horiz-adv-x="336" 
d="M24 144q0 42 6 95.5t24.5 101.5t52.5 80.5t89 32.5q33 0 55.5 -12.5t35.5 -33t18.5 -47t5.5 -55.5q0 -42 -6 -96t-24.5 -102.5t-52.5 -81.5t-90 -33q-34 0 -56.5 12.5t-35 33.5t-17.5 48.5t-5 56.5zM110 135q0 -10 1.5 -21.5t5.5 -21t12 -16t21 -6.5q14 0 22.5 6.5
t16.5 17.5q11 16 18 45t12 61.5t7 63.5t2 50q0 11 -1.5 22t-5.5 21t-12 16t-22 6t-22.5 -6t-15.5 -17q-10 -16 -17.5 -45t-12 -61.5t-7 -63.5t-2.5 -51z" />
    <glyph glyph-name="p" unicode="p" horiz-adv-x="344" 
d="M-5 -188l79 635h81l-7 -58q16 27 35 46t54 19q27 0 43.5 -12.5t25 -32t11.5 -42.5t3 -44q0 -23 -1.5 -56t-6.5 -70t-14.5 -73.5t-25 -65.5t-38.5 -47t-55 -18q-31 0 -46.5 15t-25.5 42l-30 -238h-82zM139 304q-20 -83 -20 -166q0 -10 1 -22t5 -23t12 -18.5t21 -7.5
q15 0 25.5 9t17.5 21.5t11 27.5t7 27q8 38 13 77t5 78q0 11 -1 23.5t-5 23t-12.5 18t-22.5 7.5t-23.5 -7.5t-16 -19t-10.5 -24.5t-7 -24z" />
    <glyph glyph-name="q" unicode="q" horiz-adv-x="343" 
d="M22 119q0 22 2 55.5t7 70.5t14.5 74.5t25 67.5t38 48.5t53.5 18.5q34 0 49 -18t25 -47l7 58h81l-79 -635h-82l31 238q-16 -26 -35 -41.5t-51 -15.5q-26 0 -43 11.5t-26.5 30t-13 41t-3.5 43.5zM124 294q-8 -38 -13 -77t-5 -78q0 -10 1 -23t5 -23.5t12.5 -18t22.5 -7.5
t23.5 8t16 19.5t10.5 24.5t7 24q20 83 20 166q0 10 -1 22t-5 22.5t-11.5 18t-20.5 7.5q-16 0 -27 -8.5t-17.5 -21.5t-10.5 -28t-7 -27z" />
    <glyph glyph-name="r" unicode="r" horiz-adv-x="233" 
d="M73 447h81l-7 -56q22 30 43.5 46.5t60.5 19.5l-11 -86q-5 1 -14 1q-25 0 -42 -7.5t-27 -20.5t-15.5 -31.5t-8.5 -41.5l-34 -271h-81z" />
    <glyph glyph-name="s" unicode="s" horiz-adv-x="256" 
d="M23 94q14 -12 29 -19.5t35 -7.5q29 0 46 18t17 47q0 25 -18 43t-39 37t-39 43t-18 60q0 30 10 55.5t28 45t43 30.5t55 11q38 0 70 -19l-10 -77q-13 10 -27.5 16t-31.5 6q-23 0 -41 -16.5t-18 -39.5q0 -24 17.5 -41t38.5 -35.5t38.5 -42.5t17.5 -63q0 -31 -10.5 -59
t-29.5 -48.5t-45.5 -32.5t-58.5 -12q-22 0 -36.5 4.5t-32.5 16.5z" />
    <glyph glyph-name="t" unicode="t" horiz-adv-x="193" 
d="M75 383h-45l8 64h45l15 127h81l-15 -127h44l-8 -64h-44l-47 -383h-81z" />
    <glyph glyph-name="u" unicode="u" horiz-adv-x="354" 
d="M33 102q0 13 1 25t3 25l36 295h81l-33 -268q-2 -16 -3.5 -31t-1.5 -31q0 -25 10.5 -35.5t35.5 -10.5q16 0 25.5 7t15 17.5t8.5 23.5t5 26q2 8 3 17t2 17l32 268h82l-33 -268q-5 -40 -12 -74.5t-23 -59.5t-45 -39t-78 -14q-111 0 -111 110z" />
    <glyph glyph-name="v" unicode="v" horiz-adv-x="295" 
d="M30 447h87q8 -70 14 -139t6 -140v-29t-1 -30q23 86 49.5 169.5t54.5 168.5h79l-170 -447h-55z" />
    <glyph glyph-name="w" unicode="w" horiz-adv-x="442" 
d="M33 447h87q4 -70 7 -139t3 -139v-21.5t-2 -21.5q20 81 44 161t49 160h59q2 -42 3.5 -82.5t4.5 -82.5l3 -43q1 -11 1.5 -22t0.5 -22q0 -17 -0.5 -34.5t-1.5 -34.5q17 82 42 161.5t49 159.5h80l-158 -447h-56q-5 62 -10.5 123t-5.5 123q0 42 3 82q-5 -32 -13.5 -62
t-16.5 -61q-14 -52 -30.5 -103t-32.5 -102h-56z" />
    <glyph glyph-name="x" unicode="x" horiz-adv-x="327" 
d="M-25 0l139 236l-84 211h96q12 -38 24.5 -75.5t18.5 -77.5q15 41 35 78t40 75h86l-125 -211l91 -236h-97q-6 18 -14.5 42t-16 48.5t-13.5 48.5t-6 42q-14 -49 -39.5 -92.5t-49.5 -88.5h-85z" />
    <glyph glyph-name="y" unicode="y" horiz-adv-x="322" 
d="M2 -188l96 224l-67 411h92l26 -312l114 312h83l-259 -635h-85z" />
    <glyph glyph-name="z" unicode="z" horiz-adv-x="294" 
d="M115 75h139l-9 -75h-260l198 374h-140l9 73h255z" />
    <glyph glyph-name="braceleft" unicode="{" horiz-adv-x="503" 
d="M148 308q35 9 48.5 31t18.5 56l25 196q10 75 48 106.5t113 31.5h16t16 -1l-9 -69q-26 0 -44.5 -2.5t-31 -11.5t-20 -25.5t-10.5 -44.5l-23 -185q-5 -43 -21 -70t-55 -47q27 -17 38 -36t11 -51q0 -8 -0.5 -15.5t-1.5 -16.5l-22 -182q-1 -9 -1.5 -18t-0.5 -18
q0 -19 8.5 -29t21.5 -14.5t28.5 -5.5t29.5 -1l-9 -69h-34q-57 0 -91.5 22t-34.5 85v20t2 20l22 187q1 7 1.5 13.5t0.5 13.5q0 26 -10.5 42t-36.5 23z" />
    <glyph glyph-name="bar" unicode="|" 
d="M213 -250v1000h80v-1000h-80z" />
    <glyph glyph-name="braceright" unicode="}" horiz-adv-x="503" 
d="M95 -114q26 0 44.5 3t31.5 12.5t20.5 26t10.5 43.5l23 184q5 41 20 71t55 47q-25 11 -36.5 34t-11.5 49q0 10 1 21t3 25l20 160q1 8 2.5 17.5t1.5 20.5q0 35 -19.5 47.5t-51.5 12.5q-13 0 -17 -1l8 69q8 1 17 1.5t17 0.5q56 0 91.5 -23.5t35.5 -84.5q0 -20 -3 -40
l-24 -187q-1 -8 -1.5 -15t-0.5 -14q0 -25 10.5 -41.5t36.5 -21.5l-8 -65q-35 -7 -49 -31t-18 -56l-24 -196q-8 -70 -44.5 -104.5t-108.5 -34.5q-9 0 -19 0.5t-21 1.5z" />
    <glyph glyph-name="asciitilde" unicode="~" horiz-adv-x="667" 
d="M145 610q11 23 23.5 44t28.5 37.5t37.5 26.5t49.5 10t54.5 -10t52 -22t50.5 -22t49 -10q35 0 54 19.5t35 46.5l48 -28q-11 -23 -25 -44t-31.5 -36.5t-40 -25t-50.5 -9.5q-26 0 -51.5 10t-51 21.5t-50 21.5t-49.5 10q-32 0 -52 -22.5t-34 -48.5z" />
    <glyph glyph-name="uni00A0" unicode="&#xa0;" horiz-adv-x="233" 
 />
    <glyph glyph-name="exclamdown" unicode="&#xa1;" horiz-adv-x="243" 
d="M140 347q-20 0 -33 13.5t-13 33.5q0 24 18 42t42 18q20 0 33 -13.5t13 -33.5q0 -24 -18 -42t-42 -18zM28 -220l60 487h86l-60 -487h-86z" />
    <glyph glyph-name="cent" unicode="&#xa2;" horiz-adv-x="380" 
d="M106 247q0 38 4.5 85.5t17.5 92.5t38 82t65 54l11 92h60l-11 -94q7 -1 16 -3t18 -6l-9 -79q-12 12 -31 12q-31 0 -49 -25t-27 -59.5t-11.5 -70t-2.5 -56.5q0 -13 1 -29.5t6.5 -30.5t15.5 -24t28 -10q9 0 18 3t17 6l-9 -73q-10 -5 -18.5 -8t-19.5 -4l-9 -79h-60l9 78
q-8 6 -22.5 15t-26.5 33q-14 26 -16.5 49t-2.5 49z" />
    <glyph glyph-name="sterling" unicode="&#xa3;" horiz-adv-x="380" 
d="M6 32q5 15 13 29t19 25t25.5 18t30.5 7q5 0 15 -2q17 23 22 45.5t5 42.5q0 12 -3 36t-17 59h-82l8 61h58q-5 14 -13 44.5t-8 70.5q0 42 12 79.5t35.5 66t57.5 45t79 16.5q54 0 88.5 -30.5t34.5 -85.5v-8t-1 -8l-73 -33q2 8 2 15v14q0 29 -13.5 46.5t-44.5 17.5
q-25 0 -43 -9.5t-29.5 -26t-17 -37t-5.5 -43.5q0 -20 5 -51t19 -83h90l-8 -61h-69q6 -19 8.5 -37.5t2.5 -38.5q0 -34 -10 -65t-27 -60l26 -16q7 -4 15.5 -6.5t16.5 -2.5q14 0 22 10.5t12 19.5l69 -23q-14 -31 -39.5 -56.5t-62.5 -25.5q-17 0 -32.5 5t-28.5 11l-28 14
q-8 4 -19.5 8.5t-20.5 4.5q-13 0 -21 -9q-4 -5 -7 -11.5t-5 -8.5z" />
    <glyph glyph-name="currency" unicode="&#xa4;" horiz-adv-x="667" 
d="M65 599l45 45l96 -96q34 24 68 37t76 13t75.5 -12.5t66.5 -36.5l96 95l45 -45l-95 -95q23 -33 36 -67t13 -75q0 -42 -13 -75t-36 -66l96 -96l-44 -45l-96 96q-32 -24 -67.5 -37t-75.5 -13q-41 0 -76 13t-68 36l-95 -95l-45 45l96 95q-24 31 -37.5 67t-13.5 75q0 41 13 75
t37 66zM186 362q0 -34 13 -64t35 -52.5t52 -35.5t64 -13t63.5 13t52 35.5t35.5 52.5t13 64t-13 64t-35 52.5t-52 35.5t-64 13t-64 -13t-52 -35.5t-35 -52.5t-13 -64z" />
    <glyph glyph-name="yen" unicode="&#xa5;" horiz-adv-x="380" 
d="M23 256l7 61h123l-13 52h-103l7 62h81l-56 236h94q8 -45 15.5 -88.5t15.5 -88.5q6 -33 10.5 -66t6.5 -66q22 79 50 155.5t56 153.5h92l-100 -236h78l-8 -62h-96l-22 -52h112l-7 -61h-121l-32 -256h-88l31 256h-133z" />
    <glyph glyph-name="brokenbar" unicode="&#xa6;" 
d="M212 345v405h81v-405h-81zM212 -250v405h81v-405h-81z" />
    <glyph glyph-name="section" unicode="&#xa7;" horiz-adv-x="373" 
d="M52 -147q-16 18 -25 47.5t-4 73.5h72q-2 -15 0 -38.5t13 -37.5q6 -8 15.5 -13.5t22.5 -5.5q19 0 32.5 9.5t21.5 24t12 32t4 33.5q0 20 -6.5 35t-18 27t-26 22t-29.5 19q-25 15 -43 30t-29.5 33t-17 41t-5.5 54q0 32 6.5 64.5t20 61.5t36 52.5t53.5 37.5q-35 32 -46.5 62
t-11.5 56q0 34 9.5 64.5t28.5 54t46.5 37t63.5 13.5q32 0 54.5 -10.5t37 -29.5t21 -44.5t6.5 -54.5v-10h-72q1 13 -1.5 29.5t-9.5 29.5q-13 25 -42 25q-18 0 -31 -9t-21 -23t-12 -31t-4 -32q0 -20 7.5 -36t19.5 -29t26.5 -24t29.5 -21q23 -15 40 -30t28 -33t16 -40.5
t5 -52.5t-5 -63.5t-18 -64t-34 -54.5t-53 -35q19 -14 29.5 -30t16 -31.5t7 -29.5t1.5 -23q0 -34 -9.5 -65t-28 -54.5t-46 -37.5t-63.5 -14q-33 0 -54.5 11.5t-35.5 27.5zM115 239q0 -16 2 -33.5t8.5 -31t18.5 -22.5t33 -9q31 0 49.5 18.5t28 45.5t12.5 57t3 53q0 16 -2 32.5
t-8.5 30t-18.5 22t-32 8.5q-28 0 -46.5 -18.5t-29 -45.5t-14.5 -56.5t-4 -50.5z" />
    <glyph glyph-name="dieresis" unicode="&#xa8;" horiz-adv-x="490" 
d="M352 513q-19 0 -31.5 12.5t-12.5 31.5q0 23 17 39.5t40 16.5q19 0 31 -12.5t12 -31.5q0 -23 -16.5 -39.5t-39.5 -16.5zM206 513q-19 0 -31 12.5t-12 31.5q0 23 16.5 39.5t39.5 16.5q19 0 31 -12.5t12 -31.5q0 -23 -16.5 -39.5t-39.5 -16.5z" />
    <glyph glyph-name="copyright" unicode="&#xa9;" horiz-adv-x="757" 
d="M46 333q0 72 27 135t74 110t110 74t135 27q71 0 134 -27.5t110 -74.5t74 -110t27 -134q0 -72 -27 -135t-74 -110t-109.5 -74t-134.5 -27t-135 27t-110 74t-74 110t-27 135zM100 334q0 -60 22.5 -114.5t62 -95t93 -64.5t114.5 -24t114 24t92.5 64.5t62 94.5t22.5 114
q0 61 -22.5 115t-61.5 94.5t-92 64t-115 23.5q-61 0 -114.5 -23.5t-93 -64t-62 -94t-22.5 -114.5zM412 128q-42 0 -68 18.5t-40.5 47.5t-19.5 64t-5 69q0 33 4.5 70.5t18 68.5t39.5 51.5t69 20.5q16 0 27.5 -2.5t25.5 -10.5v-62q-8 5 -20 9.5t-22 4.5q-25 0 -39 -16
t-21 -39.5t-8 -48.5t-1 -43t1.5 -42t9 -45.5t22 -36t39.5 -14.5q11 0 20.5 3.5t18.5 8.5v-62q-11 -8 -24 -11t-27 -3z" />
    <glyph glyph-name="ordfeminine" unicode="&#xaa;" horiz-adv-x="262" 
d="M125 368q-19 0 -30.5 10t-17.5 25t-8 32.5t-2 32.5q0 23 3.5 58t13.5 67t29 55t50 23q6 0 17 -3.5t21 -17.5l2 17h61l-36 -295h-61l2 17q-4 -5 -15.5 -13t-28.5 -8zM132 518q-2 -20 -3 -32t-1 -21q0 -5 0.5 -12.5t2.5 -14t6 -11.5t12 -5t15 7q8 8 12.5 25.5t9.5 49.5
l3 21q2 14 3 26.5t1 26.5q0 5 -0.5 11.5t-2.5 12.5t-6 10.5t-11 4.5q-9 0 -18 -9q-5 -5 -9 -15.5t-6.5 -22.5t-4 -23.5t-2.5 -18.5zM50 337h173l-5 -40h-173z" />
    <glyph glyph-name="guillemotleft" unicode="&#xab;" horiz-adv-x="321" 
d="M189 234l69 -177l-41 -21l-80 198l137 196l36 -25zM82 234l72 -177l-43 -21l-77 198l134 196l36 -25z" />
    <glyph glyph-name="logicalnot" unicode="&#xac;" 
d="M375 0v195h-353v72h433v-267h-80z" />
    <glyph glyph-name="uni00AD" unicode="&#xad;" horiz-adv-x="255" 
d="M204 217h-155l9 78h155z" />
    <glyph glyph-name="registered" unicode="&#xae;" horiz-adv-x="757" 
d="M46 333q0 72 27 135t74 110t110 74t135 27q71 0 134 -27.5t110 -74.5t74 -110t27 -134q0 -72 -27 -135t-74 -110t-109.5 -74t-134.5 -27t-135 27t-110 74t-74 110t-27 135zM100 334q0 -60 22.5 -114.5t62 -95t93 -64.5t114.5 -24t114 24t92.5 64.5t62 94.5t22.5 114
q0 61 -22.5 115t-61.5 94.5t-92 64t-115 23.5q-61 0 -114.5 -23.5t-93 -64t-62 -94t-22.5 -114.5zM389 535q62 0 89 -24t27 -87q0 -19 -4 -36.5t-12.5 -32t-23 -23.5t-35.5 -11l92 -189h-73l-82 176v-176h-70v403h92zM367 486v-118h18q32 0 42 15.5t10 44.5q0 32 -11 45
t-44 13h-15z" />
    <glyph glyph-name="macron" unicode="&#xaf;" 
d="M401 524h-221l7 62h222z" />
    <glyph glyph-name="degree" unicode="&#xb0;" 
d="M144 528q0 30 11.5 55.5t31 44t45.5 29.5t55 11t55 -11t45.5 -29.5t31 -44t11.5 -55.5q0 -29 -11.5 -54.5t-31 -44.5t-45.5 -30t-55 -11t-55 11t-45.5 30t-31 44.5t-11.5 54.5zM287 618q-19 0 -35.5 -7t-29 -19t-20 -28.5t-7.5 -35.5t7.5 -35.5t20 -28.5t29 -19t35.5 -7
t35.5 7t29 19t20 28.5t7.5 35.5t-7.5 35.5t-20 28.5t-29 19t-35.5 7z" />
    <glyph glyph-name="plusminus" unicode="&#xb1;" 
d="M212 421v169h80v-169h176v-74h-176v-169h-80v169h-177v74h177zM35 64v75h433v-75h-433z" />
    <glyph glyph-name="twosuperior" unicode="&#xb2;" horiz-adv-x="249" 
d="M31 267l75 121q11 17 27 42t31 52.5t26 54t11 47.5q0 14 -6 24.5t-22 10.5q-14 0 -22 -10t-12 -24t-5 -28.5t-1 -24.5h-62q2 28 7 53.5t16.5 44.5t32 30.5t53.5 11.5q42 0 63 -19t21 -62q0 -33 -15 -69.5t-36 -72.5t-44.5 -69.5t-41.5 -60.5h101l-7 -52h-190z" />
    <glyph glyph-name="threesuperior" unicode="&#xb3;" horiz-adv-x="249" 
d="M124 262q-42 0 -60.5 18.5t-18.5 60.5q0 16 3 31h59q-3 -13 -3 -26t6.5 -22t20.5 -9q16 0 25 11t13.5 26.5t5.5 32t1 27.5q0 17 -10.5 27.5t-27.5 10.5q-5 0 -9.5 -0.5t-9.5 -1.5l6 53h11q18 0 30.5 4t20.5 21q5 11 7.5 27.5t2.5 28.5t-3.5 24.5t-19.5 12.5q-12 0 -19 -7
t-10.5 -16.5t-5 -20.5t-2.5 -20h-59q3 26 8.5 47t16.5 37t29 24.5t47 8.5q38 0 58 -19t20 -57q0 -17 -2 -35.5t-7.5 -35t-16 -30.5t-27.5 -22q20 -8 27.5 -22.5t7.5 -34.5q0 -29 -5 -57t-18 -49.5t-35.5 -34.5t-56.5 -13z" />
    <glyph glyph-name="acute" unicode="&#xb4;" 
d="M334 664l66 -39l-115 -112l-46 29z" />
    <glyph glyph-name="uni00B5" unicode="&#xb5;" horiz-adv-x="504" 
d="M-5 -188l78 635h82l-25 -204q-4 -31 -5 -45.5t-1 -23.5q0 -52 28.5 -86.5t82.5 -34.5q38 0 63 13.5t41 36.5t24 53t12 63l28 228h82l-55 -447h-80l8 67q-23 -40 -55 -59.5t-78 -19.5q-43 0 -72.5 24t-43.5 63l-32 -263h-82z" />
    <glyph glyph-name="uni00B5" unicode="&#x3bc;" horiz-adv-x="504" 
d="M-5 -188l78 635h82l-25 -204q-4 -31 -5 -45.5t-1 -23.5q0 -52 28.5 -86.5t82.5 -34.5q38 0 63 13.5t41 36.5t24 53t12 63l28 228h82l-55 -447h-80l8 67q-23 -40 -55 -59.5t-78 -19.5q-43 0 -72.5 24t-43.5 63l-32 -263h-82z" />
    <glyph glyph-name="paragraph" unicode="&#xb6;" horiz-adv-x="591" 
d="M215 315q-35 0 -65 10t-51.5 29t-34 47.5t-12.5 64.5q0 42 18 81.5t50 67.5q36 32 83 42t94 10h278l-8 -63h-62l-87 -704h-69l87 704h-102l-87 -704h-69l52 415h-15z" />
    <glyph glyph-name="periodcentered" unicode="&#xb7;" horiz-adv-x="206" 
d="M47 326q0 29 21.5 50.5t50.5 21.5q24 0 40 -16.5t16 -40.5q0 -29 -21.5 -50t-50.5 -21q-24 0 -40 16t-16 40z" />
    <glyph glyph-name="cedilla" unicode="&#xb8;" 
d="M172 -191l-35 20l70 126l54 -29z" />
    <glyph glyph-name="onesuperior" unicode="&#xb9;" horiz-adv-x="249" 
d="M173 267h-60l43 348h-41l6 52h102z" />
    <glyph glyph-name="ordmasculine" unicode="&#xba;" horiz-adv-x="267" 
d="M154 368q-25 0 -40.5 10.5t-24.5 27.5t-12.5 38t-3.5 42q0 27 5.5 59.5t19 60t35.5 46.5t56 19q23 0 38 -10t24 -26t12.5 -36t3.5 -39q0 -26 -5 -59.5t-17.5 -63t-34.5 -49.5t-56 -20zM181 612q-14 0 -23 -17.5t-14 -41t-6.5 -46t-1.5 -32.5q0 -5 0.5 -13.5t2.5 -16
t6.5 -13t12.5 -5.5q14 0 22.5 17t13.5 39.5t7 44.5t2 32q0 26 -4 35.5t-6 11.5q-5 5 -12 5zM51 297l5 40h182l-5 -40h-182z" />
    <glyph glyph-name="guillemotright" unicode="&#xbb;" horiz-adv-x="321" 
d="M163 36l-38 21l115 177l-79 171l42 25l86 -196zM57 36l-36 21l113 177l-79 171l42 25l88 -196z" />
    <glyph glyph-name="onequarter" unicode="&#xbc;" horiz-adv-x="621" 
d="M93 0l408 667h54l-408 -667h-54zM113 267l43 348h-41l7 52h101l-49 -400h-61zM386 147l146 253h57l-32 -255h26l-5 -47h-27l-11 -98h-58l12 98h-114zM437 145h62l19 155z" />
    <glyph glyph-name="onehalf" unicode="&#xbd;" horiz-adv-x="621" 
d="M93 0l408 667h54l-408 -667h-54zM113 267l43 348h-41l7 52h101l-49 -400h-61zM371 0q14 22 27 43.5t27 43.5q12 19 32 48.5t38.5 61.5t32 63.5t13.5 55.5q0 14 -6 24.5t-22 10.5q-14 0 -21.5 -10t-11.5 -23.5t-5 -28t-2 -24.5h-62q3 29 8 54t16.5 44t32 30t53.5 11
q42 0 62.5 -19t20.5 -61q0 -33 -15 -69.5t-36 -72.5t-44.5 -69.5t-41.5 -60.5h101l-7 -52h-190z" />
    <glyph glyph-name="threequarters" unicode="&#xbe;" horiz-adv-x="621" 
d="M124 262q-42 0 -60.5 18.5t-18.5 60.5q0 16 3 31h59q-3 -13 -3 -26t6.5 -22t20.5 -9q16 0 25 11t13.5 26.5t5.5 32t1 27.5q0 17 -10.5 27.5t-27.5 10.5q-5 0 -9.5 -0.5t-9.5 -1.5l6 53h11q18 0 30.5 4t20.5 21q5 11 7.5 27.5t2.5 28.5t-3.5 24.5t-19.5 12.5q-12 0 -19 -7
t-10.5 -16.5t-5 -20.5t-2.5 -20h-59q3 26 8.5 47t16.5 37t29 24.5t47 8.5q38 0 58 -19t20 -57q0 -17 -2 -35.5t-7.5 -35t-16 -30.5t-27.5 -22q20 -8 27.5 -22.5t7.5 -34.5q0 -29 -5 -57t-18 -49.5t-35.5 -34.5t-56.5 -13zM500 667h54l-407 -667h-54zM386 147l146 253h57
l-32 -255h26l-5 -47h-27l-11 -98h-58l12 98h-114zM499 145l19 155l-81 -155h62z" />
    <glyph glyph-name="questiondown" unicode="&#xbf;" horiz-adv-x="324" 
d="M142 394q0 24 18 42t42 18q20 0 33 -13.5t13 -33.5q0 -24 -18 -42t-42 -18q-20 0 -33 13.5t-13 33.5zM111 -226q-60 0 -82 32.5t-22 87.5q0 21 2.5 52t7.5 62.5t14 60t21 45.5q15 21 31 28t42 9l14 116h78l-22 -176q-5 1 -9.5 1h-9.5q-26 0 -42 -9t-25 -35
q-4 -12 -8 -30.5t-6 -38.5t-3.5 -39t-1.5 -32q0 -10 1 -20.5t5 -19.5t11 -15t20 -6q17 0 26 11.5t13.5 27t6.5 32.5t3 29h79q-4 -37 -10.5 -68.5t-21.5 -55t-41.5 -36.5t-70.5 -13z" />
    <glyph glyph-name="Agrave" unicode="&#xc0;" horiz-adv-x="355" 
d="M203 826l77 -92l-36 -33l-87 80zM198 667h69l59 -667h-88l-8 130h-131l-40 -130h-86zM225 199q-4 66 -7 132t-3 132v37t1 37q-2 -6 -3 -11.5t-3 -11.5l-11 -47q-17 -68 -37 -134.5t-42 -133.5h105z" />
    <glyph glyph-name="Aacute" unicode="&#xc1;" horiz-adv-x="355" 
d="M203 734l99 92l38 -45l-107 -80zM198 667h69l59 -667h-88l-8 130h-131l-40 -130h-86zM120 199h105q-4 66 -7 132t-3 132v37t1 37q-2 -6 -3 -11.5t-3 -11.5l-11 -47q-17 -68 -37 -134.5t-42 -133.5z" />
    <glyph glyph-name="Acircumflex" unicode="&#xc2;" horiz-adv-x="355" 
d="M150 733l100 91l78 -91l-43 -32l-44 47l-54 -47zM198 667h69l59 -667h-88l-8 130h-131l-40 -130h-86zM225 199q-4 66 -7 132t-3 132v37t1 37q-2 -6 -3 -11.5t-3 -11.5l-11 -47q-17 -68 -37 -134.5t-42 -133.5h105z" />
    <glyph glyph-name="Atilde" unicode="&#xc3;" horiz-adv-x="355" 
d="M150 734q3 8 9 18.5t14.5 19.5t18.5 15.5t21 6.5q16 0 25 -4.5t15 -10t11.5 -10t14.5 -4.5q7 0 14 9t12 19l32 -22q-2 -10 -8 -20.5t-14.5 -19.5t-19 -14.5t-22.5 -5.5q-13 0 -21.5 4.5t-15 10t-11.5 10t-11 4.5q-13 0 -32 -28zM198 667h69l59 -667h-88l-8 130h-131
l-40 -130h-86zM120 199h105q-4 66 -7 132t-3 132v37t1 37q-2 -6 -3 -11.5t-3 -11.5l-11 -47q-17 -68 -37 -134.5t-42 -133.5z" />
    <glyph glyph-name="Adieresis" unicode="&#xc4;" horiz-adv-x="355" 
d="M263 765q0 23 17 39.5t40 16.5q19 0 31 -12.5t12 -31.5q0 -23 -16.5 -39.5t-39.5 -16.5q-19 0 -31.5 12.5t-12.5 31.5zM161 721q-19 0 -31 12.5t-12 31.5q0 23 16.5 39.5t39.5 16.5q19 0 31 -12.5t12 -31.5q0 -23 -16.5 -39.5t-39.5 -16.5zM-27 0l225 667h69l59 -667h-88
l-8 130h-131l-40 -130h-86zM225 199q-4 66 -7 132t-3 132v37t1 37q-2 -6 -3 -11.5t-3 -11.5l-11 -47q-17 -68 -37 -134.5t-42 -133.5h105z" />
    <glyph glyph-name="Aring" unicode="&#xc5;" horiz-adv-x="355" 
d="M257 714q-36 0 -60.5 24.5t-24.5 60.5t24.5 60.5t60.5 24.5t60.5 -24.5t24.5 -60.5t-24.5 -60.5t-60.5 -24.5zM257 839q-17 0 -28.5 -11.5t-11.5 -28.5t11.5 -28.5t28.5 -11.5t28.5 11.5t11.5 28.5t-11.5 28.5t-28.5 11.5zM-27 0l225 667h69l59 -667h-88l-8 130h-131
l-40 -130h-86zM120 199h105q-4 66 -7 132t-3 132v37t1 37q-2 -6 -3 -11.5t-3 -11.5l-11 -47q-17 -68 -37 -134.5t-42 -133.5z" />
    <glyph glyph-name="AE" unicode="&#xc6;" horiz-adv-x="503" 
d="M-27 0l221 667h218l8 -76h-143l19 -212h129l8 -76h-129l22 -227h140l8 -76h-228l-10 131h-136l-41 -131h-86zM232 199l-13 151q-4 48 -4 95v95q-5 -37 -14.5 -72.5t-19.5 -70.5q-14 -50 -29 -99t-31 -99h111z" />
    <glyph glyph-name="Ccedilla" unicode="&#xc7;" horiz-adv-x="332" 
d="M208 -9q-50 0 -82 19.5t-51 51t-26 72t-7 82.5q0 35 3.5 75t10.5 80.5t16.5 79t22.5 71.5q12 32 30.5 60t42.5 48.5t54 32.5t66 12q22 0 37.5 -3.5t34.5 -15.5l-9 -81q-13 8 -26.5 12.5t-28.5 4.5q-35 0 -60 -20t-43 -51.5t-29 -71t-17 -79t-8 -75t-2 -59.5
q0 -26 3.5 -53.5t14 -50.5t30.5 -38t53 -15q28 0 53 13l-10 -82q-19 -11 -35 -15t-38 -4zM106 -167l65 125l73 -33l-86 -118z" />
    <glyph glyph-name="Egrave" unicode="&#xc8;" horiz-adv-x="316" 
d="M238 701l-87 80l46 45l77 -92zM330 591h-146l-26 -212h130l-10 -76h-130l-27 -227h146l-9 -76h-235l81 667h235z" />
    <glyph glyph-name="Eacute" unicode="&#xc9;" horiz-adv-x="316" 
d="M186 734l99 92l38 -45l-107 -80zM330 591h-146l-26 -212h130l-10 -76h-130l-27 -227h146l-9 -76h-235l81 667h235z" />
    <glyph glyph-name="Ecircumflex" unicode="&#xca;" horiz-adv-x="316" 
d="M176 701l-37 32l100 91l78 -91l-43 -32l-44 47zM330 591h-146l-26 -212h130l-10 -76h-130l-27 -227h146l-9 -76h-235l81 667h235z" />
    <glyph glyph-name="Edieresis" unicode="&#xcb;" horiz-adv-x="316" 
d="M292 721q-19 0 -31.5 12.5t-12.5 31.5q0 23 17 39.5t40 16.5q19 0 31 -12.5t12 -31.5q0 -23 -16.5 -39.5t-39.5 -16.5zM146 721q-19 0 -31 12.5t-12 31.5q0 23 16.5 39.5t39.5 16.5q19 0 31 -12.5t12 -31.5q0 -23 -16.5 -39.5t-39.5 -16.5zM23 0l81 667h235l-9 -76h-146
l-26 -212h130l-10 -76h-130l-27 -227h146l-9 -76h-235z" />
    <glyph glyph-name="Igrave" unicode="&#xcc;" horiz-adv-x="190" 
d="M163 701l-87 80l46 45l77 -92zM111 0h-88l81 667h89z" />
    <glyph glyph-name="Iacute" unicode="&#xcd;" horiz-adv-x="190" 
d="M106 734l99 92l38 -45l-107 -80zM111 0h-88l81 667h89z" />
    <glyph glyph-name="Icircumflex" unicode="&#xce;" horiz-adv-x="190" 
d="M218 727l-59 74l-72 -74l-41 34l124 124l93 -124zM111 0h-88l81 667h89z" />
    <glyph glyph-name="Idieresis" unicode="&#xcf;" horiz-adv-x="190" 
d="M178 765q0 23 17 39.5t40 16.5q19 0 31 -12.5t12 -31.5q0 -23 -16.5 -39.5t-39.5 -16.5q-19 0 -31.5 12.5t-12.5 31.5zM76 721q-19 0 -31 12.5t-12 31.5q0 23 16.5 39.5t39.5 16.5q19 0 31 -12.5t12 -31.5q0 -23 -16.5 -39.5t-39.5 -16.5zM104 667h89l-82 -667h-88z" />
    <glyph glyph-name="Eth" unicode="&#xd0;" horiz-adv-x="405" 
d="M21 393h50l34 274h108q38 0 70.5 -7t58.5 -36q31 -34 39 -78.5t8 -88.5q0 -30 -2 -64t-6 -68.5t-10.5 -68t-14.5 -62.5q-16 -58 -37.5 -96t-52 -59.5t-72.5 -30t-100 -8.5h-71l39 320h-50zM121 78q36 0 66 10.5t50 42.5q16 24 27 67t18 91t10.5 93.5t3.5 75.5
q0 28 -4 52.5t-15 42.5t-31 28t-52 10h-10l-24 -198h85l-9 -73h-85z" />
    <glyph glyph-name="Ntilde" unicode="&#xd1;" horiz-adv-x="407" 
d="M150 731q3 16 8 31.5t14 28t22.5 20.5t32.5 8q13 0 24 -4.5t21 -10.5t19 -10.5t19 -4.5q13 0 14.5 9t6.5 17h48q-2 -16 -6.5 -32t-13.5 -28.5t-22.5 -20t-32.5 -7.5q-11 0 -21 4.5t-19 9.5t-18.5 9.5t-20.5 4.5t-16 -7t-5 -17h-54zM23 0l81 667h83l55 -267
q12 -60 22 -119.5t16 -120.5v110q0 38 3 74.5t8 73.5l31 249h88l-81 -667h-83l-62 300q-8 35 -13.5 69t-9.5 69l-4 50q-1 6 -1.5 12.5t-1.5 12.5v-16q0 -21 -1 -42.5t-3 -42.5q-8 -104 -18.5 -206.5t-21.5 -205.5h-87z" />
    <glyph glyph-name="Ograve" unicode="&#xd2;" horiz-adv-x="416" 
d="M232 826l77 -92l-36 -33l-87 80zM182 -9q-42 0 -69.5 14.5t-43 39t-22 57.5t-6.5 69q0 77 7.5 153.5t24.5 151.5q9 38 22.5 74t35 64t53.5 44.5t77 16.5q43 0 70.5 -15.5t43.5 -41t22 -59t6 -70.5q0 -81 -9.5 -163t-31.5 -160q-10 -35 -24 -67t-35 -56t-50.5 -38
t-70.5 -14zM178 528q-10 -29 -19 -75.5t-15.5 -97t-10 -99t-3.5 -81.5q0 -15 1.5 -33t7.5 -33t17.5 -25t32.5 -10q20 0 33 7.5t22.5 20t15.5 28t10 31.5q9 32 16.5 75.5t13 90t8.5 91t3 77.5q0 17 -1 34.5t-6.5 31.5t-17.5 23.5t-34 9.5q-30 0 -47.5 -20t-26.5 -46z" />
    <glyph glyph-name="Oacute" unicode="&#xd3;" horiz-adv-x="416" 
d="M226 734l99 92l38 -45l-107 -80zM182 -9q-42 0 -69.5 14.5t-43 39t-22 57.5t-6.5 69q0 77 7.5 153.5t24.5 151.5q9 38 22.5 74t35 64t53.5 44.5t77 16.5q43 0 70.5 -15.5t43.5 -41t22 -59t6 -70.5q0 -81 -9.5 -163t-31.5 -160q-10 -35 -24 -67t-35 -56t-50.5 -38
t-70.5 -14zM130 175q0 -15 1.5 -33t7.5 -33t17.5 -25t32.5 -10q20 0 33 7.5t22.5 20t15.5 28t10 31.5q9 32 16.5 75.5t13 90t8.5 91t3 77.5q0 17 -1 34.5t-6.5 31.5t-17.5 23.5t-34 9.5q-30 0 -47.5 -20t-26.5 -46q-10 -29 -19 -75.5t-15.5 -97t-10 -99t-3.5 -81.5z" />
    <glyph glyph-name="Ocircumflex" unicode="&#xd4;" horiz-adv-x="416" 
d="M282 824l78 -91l-43 -32l-44 47l-54 -47l-37 32zM182 -9q-42 0 -69.5 14.5t-43 39t-22 57.5t-6.5 69q0 77 7.5 153.5t24.5 151.5q9 38 22.5 74t35 64t53.5 44.5t77 16.5q43 0 70.5 -15.5t43.5 -41t22 -59t6 -70.5q0 -81 -9.5 -163t-31.5 -160q-10 -35 -24 -67t-35 -56
t-50.5 -38t-70.5 -14zM130 175q0 -15 1.5 -33t7.5 -33t17.5 -25t32.5 -10q20 0 33 7.5t22.5 20t15.5 28t10 31.5q9 32 16.5 75.5t13 90t8.5 91t3 77.5q0 17 -1 34.5t-6.5 31.5t-17.5 23.5t-34 9.5q-30 0 -47.5 -20t-26.5 -46q-10 -29 -19 -75.5t-15.5 -97t-10 -99
t-3.5 -81.5z" />
    <glyph glyph-name="Otilde" unicode="&#xd5;" horiz-adv-x="416" 
d="M180 734q3 8 9 18.5t14.5 19.5t18.5 15.5t21 6.5q16 0 25 -4.5t15 -10t11.5 -10t14.5 -4.5q7 0 14 9t12 19l32 -22q-2 -10 -8 -20.5t-14.5 -19.5t-19 -14.5t-22.5 -5.5q-13 0 -21.5 4.5t-15 10t-11.5 10t-11 4.5q-13 0 -32 -28zM182 -9q-42 0 -69.5 14.5t-43 39t-22 57.5
t-6.5 69q0 77 7.5 153.5t24.5 151.5q9 38 22.5 74t35 64t53.5 44.5t77 16.5q43 0 70.5 -15.5t43.5 -41t22 -59t6 -70.5q0 -81 -9.5 -163t-31.5 -160q-10 -35 -24 -67t-35 -56t-50.5 -38t-70.5 -14zM178 528q-10 -29 -19 -75.5t-15.5 -97t-10 -99t-3.5 -81.5q0 -15 1.5 -33
t7.5 -33t17.5 -25t32.5 -10q20 0 33 7.5t22.5 20t15.5 28t10 31.5q9 32 16.5 75.5t13 90t8.5 91t3 77.5q0 17 -1 34.5t-6.5 31.5t-17.5 23.5t-34 9.5q-30 0 -47.5 -20t-26.5 -46z" />
    <glyph glyph-name="Odieresis" unicode="&#xd6;" horiz-adv-x="416" 
d="M326 721q-19 0 -31.5 12.5t-12.5 31.5q0 23 17 39.5t40 16.5q19 0 31 -12.5t12 -31.5q0 -23 -16.5 -39.5t-39.5 -16.5zM137 765q0 23 16.5 39.5t39.5 16.5q19 0 31 -12.5t12 -31.5q0 -23 -16.5 -39.5t-39.5 -16.5q-19 0 -31 12.5t-12 31.5zM41 171q0 77 7.5 153.5
t24.5 151.5q9 38 22.5 74t35 64t53.5 44.5t77 16.5q43 0 70.5 -15.5t43.5 -41t22 -59t6 -70.5q0 -81 -9.5 -163t-31.5 -160q-10 -35 -24 -67t-35 -56t-50.5 -38t-70.5 -14q-42 0 -69.5 14.5t-43 39t-22 57.5t-6.5 69zM178 528q-10 -29 -19 -75.5t-15.5 -97t-10 -99
t-3.5 -81.5q0 -15 1.5 -33t7.5 -33t17.5 -25t32.5 -10q20 0 33 7.5t22.5 20t15.5 28t10 31.5q9 32 16.5 75.5t13 90t8.5 91t3 77.5q0 17 -1 34.5t-6.5 31.5t-17.5 23.5t-34 9.5q-30 0 -47.5 -20t-26.5 -46z" />
    <glyph glyph-name="multiply" unicode="&#xd7;" 
d="M137 514l126 -126l127 126l54 -53l-127 -127l127 -127l-54 -53l-127 126l-126 -126l-54 53l127 127l-127 127z" />
    <glyph glyph-name="Oslash" unicode="&#xd8;" horiz-adv-x="452" 
d="M9 3l57 93q-5 29 -6.5 55t-1.5 54q0 67 6.5 119.5t16.5 107.5q8 42 20 85t34 78.5t56 57.5t85 22q27 0 46.5 -5.5t32 -13.5t20 -16.5t11.5 -14.5l42 64l40 -28l-56 -92q5 -28 6.5 -51.5t1.5 -52.5q0 -34 -1.5 -63.5t-5 -57.5t-8 -55t-10.5 -56q-9 -44 -21.5 -87
t-34.5 -77.5t-56.5 -56t-87.5 -21.5q-45 0 -69 16t-36 33l-41 -68zM327 524q0 30 -12.5 50t-45.5 20q-28 0 -48 -21q-12 -13 -22 -38t-18 -56.5t-13.5 -67t-9.5 -69t-6 -62t-3 -47.5zM149 137q2 -25 16 -44t41 -19t48 19q12 11 21.5 35.5t17 55.5t13.5 66.5t9.5 68.5t6 61
t3.5 45z" />
    <glyph glyph-name="Ugrave" unicode="&#xd9;" horiz-adv-x="403" 
d="M226 826l77 -92l-36 -33l-87 80zM171 -9q-63 0 -97 29.5t-34 95.5q0 20 2.5 40t4.5 40l57 471h87l-58 -471q-2 -16 -3.5 -31t-1.5 -31q0 -58 59 -58q24 0 37.5 10t20.5 25.5t10 34.5t5 37l60 484h86l-59 -484q-5 -43 -15 -78.5t-29.5 -60.5t-51 -39t-80.5 -14z" />
    <glyph glyph-name="Uacute" unicode="&#xda;" horiz-adv-x="403" 
d="M322 826l38 -45l-107 -80l-30 33zM171 -9q-63 0 -97 29.5t-34 95.5q0 20 2.5 40t4.5 40l57 471h87l-58 -471q-2 -16 -3.5 -31t-1.5 -31q0 -58 59 -58q24 0 37.5 10t20.5 25.5t10 34.5t5 37l60 484h86l-59 -484q-5 -43 -15 -78.5t-29.5 -60.5t-51 -39t-80.5 -14z" />
    <glyph glyph-name="Ucircumflex" unicode="&#xdb;" horiz-adv-x="403" 
d="M275 885l93 -124l-45 -34l-59 74l-72 -74l-41 34zM171 -9q-63 0 -97 29.5t-34 95.5q0 20 2.5 40t4.5 40l57 471h87l-58 -471q-2 -16 -3.5 -31t-1.5 -31q0 -58 59 -58q24 0 37.5 10t20.5 25.5t10 34.5t5 37l60 484h86l-59 -484q-5 -43 -15 -78.5t-29.5 -60.5t-51 -39
t-80.5 -14z" />
    <glyph glyph-name="Udieresis" unicode="&#xdc;" horiz-adv-x="403" 
d="M332 721q-19 0 -31.5 12.5t-12.5 31.5q0 23 17 39.5t40 16.5q19 0 31 -12.5t12 -31.5q0 -23 -16.5 -39.5t-39.5 -16.5zM186 721q-19 0 -31 12.5t-12 31.5q0 23 16.5 39.5t39.5 16.5q19 0 31 -12.5t12 -31.5q0 -23 -16.5 -39.5t-39.5 -16.5zM40 116q0 20 2.5 40t4.5 40
l57 471h87l-58 -471q-2 -16 -3.5 -31t-1.5 -31q0 -58 59 -58q24 0 37.5 10t20.5 25.5t10 34.5t5 37l60 484h86l-59 -484q-5 -43 -15 -78.5t-29.5 -60.5t-51 -39t-80.5 -14q-63 0 -97 29.5t-34 95.5z" />
    <glyph glyph-name="Yacute" unicode="&#xdd;" horiz-adv-x="336" 
d="M288 826l38 -45l-107 -80l-30 33zM146 667l32 -179q2 -12 4.5 -29t4.5 -35t3.5 -35.5t2.5 -30.5q17 62 42 132l65 177h92l-161 -380l-35 -287h-89l35 287l-90 380h94z" />
    <glyph glyph-name="Thorn" unicode="&#xde;" horiz-adv-x="345" 
d="M105 667h89l-13 -100h28q76 0 108.5 -32.5t32.5 -108.5q0 -32 -5.5 -65.5t-19 -63.5t-36 -54t-55.5 -36q-23 -8 -48 -9.5t-50 -1.5l-24 -196h-89zM145 273h8q15 0 29 2t27 10q14 9 23 23.5t14.5 31t7.5 34t2 32.5q0 38 -14 61.5t-56 23.5h-14z" />
    <glyph glyph-name="germandbls" unicode="&#xdf;" horiz-adv-x="361" 
d="M27 447h50l17 135q5 38 14.5 67.5t27.5 49.5t45.5 30.5t69.5 10.5q57 0 84.5 -42t27.5 -111q0 -22 -3.5 -50t-12.5 -53.5t-25 -45.5t-41 -28q36 -11 48 -34t12 -58q0 -27 -2 -56t-5.5 -56.5t-8.5 -51.5t-12 -42q-15 -59 -46.5 -86t-93.5 -27h-15.5t-15.5 1l10 76
q29 0 44 8t27 36q6 15 11 38.5t8.5 48.5t5 48.5t1.5 39.5q0 38 -14.5 57.5t-55.5 19.5l9 75q3 -1 10 -1q26 0 41 12t23 30t10.5 40t2.5 42q0 38 -6.5 63.5t-32.5 25.5q-20 0 -31.5 -9t-18.5 -23.5t-9.5 -31t-4.5 -31.5l-69 -564h-81l46 372h-50z" />
    <glyph glyph-name="agrave" unicode="&#xe0;" horiz-adv-x="343" 
d="M160 606l77 -92l-36 -33l-87 80zM23 123q0 23 1.5 56t6.5 70t14.5 73.5t25 65.5t38 47.5t54.5 18.5q30 0 46.5 -16t27.5 -42l6 51h81l-55 -447h-81l7 57q-16 -28 -35 -46t-54 -18q-27 0 -43 12.5t-25 31.5t-12 42t-3 44zM106 139q0 -10 1 -23t5 -23.5t12.5 -18t22.5 -7.5
t23.5 8t16 19.5t10.5 24.5t7 24q20 83 20 166q0 10 -1 22t-5 22.5t-11.5 18t-20.5 7.5q-16 0 -26.5 -8.5t-17.5 -21.5t-11 -28t-7 -27q-8 -38 -13 -77t-5 -78z" />
    <glyph glyph-name="aacute" unicode="&#xe1;" horiz-adv-x="343" 
d="M262 606l38 -45l-107 -80l-30 33zM23 123q0 23 1.5 56t6.5 70t14.5 73.5t25 65.5t38 47.5t54.5 18.5q30 0 46.5 -16t27.5 -42l6 51h81l-55 -447h-81l7 57q-16 -28 -35 -46t-54 -18q-27 0 -43 12.5t-25 31.5t-12 42t-3 44zM106 139q0 -10 1 -23t5 -23.5t12.5 -18
t22.5 -7.5t23.5 8t16 19.5t10.5 24.5t7 24q20 83 20 166q0 10 -1 22t-5 22.5t-11.5 18t-20.5 7.5q-16 0 -26.5 -8.5t-17.5 -21.5t-11 -28t-7 -27q-8 -38 -13 -77t-5 -78z" />
    <glyph glyph-name="acircumflex" unicode="&#xe2;" horiz-adv-x="343" 
d="M217 604l78 -91l-43 -32l-44 47l-54 -47l-37 32zM106 -7q-27 0 -43 12.5t-25 31.5t-12 42t-3 44q0 23 1.5 56t6.5 70t14.5 73.5t25 65.5t38 47.5t54.5 18.5q30 0 46.5 -16t27.5 -42l6 51h81l-55 -447h-81l7 57q-16 -28 -35 -46t-54 -18zM124 294q-8 -38 -13 -77t-5 -78
q0 -10 1 -23t5 -23.5t12.5 -18t22.5 -7.5t23.5 8t16 19.5t10.5 24.5t7 24q20 83 20 166q0 10 -1 22t-5 22.5t-11.5 18t-20.5 7.5q-16 0 -26.5 -8.5t-17.5 -21.5t-11 -28t-7 -27z" />
    <glyph glyph-name="atilde" unicode="&#xe3;" horiz-adv-x="343" 
d="M115 514q3 8 9 18.5t14.5 19.5t18.5 15.5t21 6.5q16 0 25 -4.5t15 -10t11.5 -10t14.5 -4.5q7 0 14 9t12 19l32 -22q-2 -10 -8 -20.5t-14.5 -19.5t-19 -14.5t-22.5 -5.5q-13 0 -21.5 4.5t-15 10t-11.5 10t-11 4.5q-13 0 -32 -28zM23 123q0 23 1.5 56t6.5 70t14.5 73.5
t25 65.5t38 47.5t54.5 18.5q30 0 46.5 -16t27.5 -42l6 51h81l-55 -447h-81l7 57q-16 -28 -35 -46t-54 -18q-27 0 -43 12.5t-25 31.5t-12 42t-3 44zM124 294q-8 -38 -13 -77t-5 -78q0 -10 1 -23t5 -23.5t12.5 -18t22.5 -7.5t23.5 8t16 19.5t10.5 24.5t7 24q20 83 20 166
q0 10 -1 22t-5 22.5t-11.5 18t-20.5 7.5q-16 0 -26.5 -8.5t-17.5 -21.5t-11 -28t-7 -27z" />
    <glyph glyph-name="adieresis" unicode="&#xe4;" horiz-adv-x="343" 
d="M267 513q-19 0 -31.5 12.5t-12.5 31.5q0 23 17 39.5t40 16.5q19 0 31 -12.5t12 -31.5q0 -23 -16.5 -39.5t-39.5 -16.5zM121 513q-19 0 -31 12.5t-12 31.5q0 23 16.5 39.5t39.5 16.5q19 0 31 -12.5t12 -31.5q0 -23 -16.5 -39.5t-39.5 -16.5zM23 123q0 23 1.5 56t6.5 70
t14.5 73.5t25 65.5t38 47.5t54.5 18.5q30 0 46.5 -16t27.5 -42l6 51h81l-55 -447h-81l7 57q-16 -28 -35 -46t-54 -18q-27 0 -43 12.5t-25 31.5t-12 42t-3 44zM106 139q0 -10 1 -23t5 -23.5t12.5 -18t22.5 -7.5t23.5 8t16 19.5t10.5 24.5t7 24q20 83 20 166q0 10 -1 22
t-5 22.5t-11.5 18t-20.5 7.5q-16 0 -26.5 -8.5t-17.5 -21.5t-11 -28t-7 -27q-8 -38 -13 -77t-5 -78z" />
    <glyph glyph-name="aring" unicode="&#xe5;" horiz-adv-x="343" 
d="M118 600q0 36 24.5 60.5t60.5 24.5t60.5 -24.5t24.5 -60.5t-24.5 -60.5t-60.5 -24.5t-60.5 24.5t-24.5 60.5zM203 640q-17 0 -28.5 -11.5t-11.5 -28.5t11.5 -28.5t28.5 -11.5t28.5 11.5t11.5 28.5t-11.5 28.5t-28.5 11.5zM23 123q0 23 1.5 56t6.5 70t14.5 73.5t25 65.5
t38 47.5t54.5 18.5q30 0 46.5 -16t27.5 -42l6 51h81l-55 -447h-81l7 57q-16 -28 -35 -46t-54 -18q-27 0 -43 12.5t-25 31.5t-12 42t-3 44zM124 294q-8 -38 -13 -77t-5 -78q0 -10 1 -23t5 -23.5t12.5 -18t22.5 -7.5t23.5 8t16 19.5t10.5 24.5t7 24q20 83 20 166q0 10 -1 22
t-5 22.5t-11.5 18t-20.5 7.5q-16 0 -26.5 -8.5t-17.5 -21.5t-11 -28t-7 -27z" />
    <glyph glyph-name="ae" unicode="&#xe6;" horiz-adv-x="498" 
d="M109 -7q-51 0 -72 30t-21 77q0 30 6.5 63t21.5 61t40 46t61 18q20 0 37 -6t29 -23q1 14 2.5 29t1.5 29q0 32 -16 44.5t-46 12.5q-25 0 -45.5 -7t-41.5 -19l10 84q25 11 45 16.5t47 5.5q33 0 58.5 -12t38.5 -45q20 29 43.5 43t58.5 14q33 0 53.5 -13.5t32 -35.5t16 -48.5
t4.5 -53.5q0 -24 -2 -48.5t-6 -48.5h-182q-2 -19 -3 -37t-1 -37q0 -11 1 -23.5t5.5 -23t13 -17.5t23.5 -7q17 0 28 9.5t17.5 23.5t9.5 30t4 29h77q-5 -32 -14.5 -61t-26.5 -51t-42.5 -35t-62.5 -13q-38 0 -62 16t-34 54q-19 -35 -42 -52.5t-65 -17.5zM356 386
q-19 0 -30.5 -13.5t-18.5 -32.5t-10 -39.5t-4 -34.5h97q5 28 5 52q0 10 -1 21.5t-5 22t-12 17.5t-21 7zM161 223q-19 0 -31 -10.5t-19 -25.5t-9.5 -33t-2.5 -33q0 -11 1 -22t5 -20t12.5 -14.5t22.5 -5.5q20 0 32 11t19.5 27.5t10 35t2.5 33.5q0 23 -8.5 40t-34.5 17z" />
    <glyph glyph-name="ccedilla" unicode="&#xe7;" horiz-adv-x="249" 
d="M23 140q0 49 8 102t24 99q17 48 48.5 80.5t86.5 32.5q19 0 32 -3.5t30 -12.5l-11 -84q-11 21 -38 21q-30 0 -47.5 -25t-26.5 -59t-12 -69.5t-3 -56.5q0 -14 1 -30.5t6 -30.5t15.5 -23.5t29.5 -9.5q12 0 22.5 4.5t20.5 12.5l-10 -77q-18 -10 -32.5 -14t-35.5 -4
q-32 0 -53 13t-33 33.5t-17 47t-5 53.5zM116 -45l54 -29l-89 -117l-35 20z" />
    <glyph glyph-name="egrave" unicode="&#xe8;" horiz-adv-x="321" 
d="M114 561l46 45l77 -92l-36 -33zM136 -7q-34 0 -55.5 12.5t-34.5 33t-18 47t-5 55.5q0 27 2.5 60.5t9.5 68t18.5 68t30.5 59t45 41.5t61 16q33 0 54 -14t33.5 -36.5t17 -50t4.5 -54.5q0 -23 -2 -46t-5 -46h-185q-2 -15 -3 -29.5t-1 -29.5q0 -12 0.5 -26.5t4.5 -27
t13 -21.5t25 -9t27 9t17.5 22t10.5 28t5 28h76q-4 -30 -14.5 -58.5t-27.5 -50.5t-42.5 -35.5t-61.5 -13.5zM217 267q1 8 1 16.5v16.5v15q0 10 -1 22t-4.5 22.5t-11 17.5t-21.5 7q-18 0 -29.5 -13.5t-19 -32t-11 -38.5t-6.5 -33h103z" />
    <glyph glyph-name="eacute" unicode="&#xe9;" horiz-adv-x="321" 
d="M154 514l99 92l38 -45l-107 -80zM136 -7q-34 0 -55.5 12.5t-34.5 33t-18 47t-5 55.5q0 27 2.5 60.5t9.5 68t18.5 68t30.5 59t45 41.5t61 16q33 0 54 -14t33.5 -36.5t17 -50t4.5 -54.5q0 -23 -2 -46t-5 -46h-185q-2 -15 -3 -29.5t-1 -29.5q0 -12 0.5 -26.5t4.5 -27
t13 -21.5t25 -9t27 9t17.5 22t10.5 28t5 28h76q-4 -30 -14.5 -58.5t-27.5 -50.5t-42.5 -35.5t-61.5 -13.5zM217 267q1 8 1 16.5v16.5v15q0 10 -1 22t-4.5 22.5t-11 17.5t-21.5 7q-18 0 -29.5 -13.5t-19 -32t-11 -38.5t-6.5 -33h103z" />
    <glyph glyph-name="ecircumflex" unicode="&#xea;" horiz-adv-x="321" 
d="M109 513l100 91l78 -91l-43 -32l-44 47l-54 -47zM23 141q0 27 2.5 60.5t9.5 68t18.5 68t30.5 59t45 41.5t61 16q33 0 54 -14t33.5 -36.5t17 -50t4.5 -54.5q0 -23 -2 -46t-5 -46h-185q-2 -15 -3 -29.5t-1 -29.5q0 -12 0.5 -26.5t4.5 -27t13 -21.5t25 -9t27 9t17.5 22
t10.5 28t5 28h76q-4 -30 -14.5 -58.5t-27.5 -50.5t-42.5 -35.5t-61.5 -13.5q-34 0 -55.5 12.5t-34.5 33t-18 47t-5 55.5zM217 267q1 8 1 16.5v16.5v15q0 10 -1 22t-4.5 22.5t-11 17.5t-21.5 7q-18 0 -29.5 -13.5t-19 -32t-11 -38.5t-6.5 -33h103z" />
    <glyph glyph-name="edieresis" unicode="&#xeb;" horiz-adv-x="321" 
d="M262 513q-19 0 -31.5 12.5t-12.5 31.5q0 23 17 39.5t40 16.5q19 0 31 -12.5t12 -31.5q0 -23 -16.5 -39.5t-39.5 -16.5zM116 513q-19 0 -31 12.5t-12 31.5q0 23 16.5 39.5t39.5 16.5q19 0 31 -12.5t12 -31.5q0 -23 -16.5 -39.5t-39.5 -16.5zM136 -7q-34 0 -55.5 12.5
t-34.5 33t-18 47t-5 55.5q0 27 2.5 60.5t9.5 68t18.5 68t30.5 59t45 41.5t61 16q33 0 54 -14t33.5 -36.5t17 -50t4.5 -54.5q0 -23 -2 -46t-5 -46h-185q-2 -15 -3 -29.5t-1 -29.5q0 -12 0.5 -26.5t4.5 -27t13 -21.5t25 -9t27 9t17.5 22t10.5 28t5 28h76q-4 -30 -14.5 -58.5
t-27.5 -50.5t-42.5 -35.5t-61.5 -13.5zM180 384q-18 0 -29.5 -13.5t-19 -32t-11 -38.5t-6.5 -33h103q1 8 1 16.5v16.5v15q0 10 -1 22t-4.5 22.5t-11 17.5t-21.5 7z" />
    <glyph glyph-name="igrave" unicode="&#xec;" horiz-adv-x="173" 
d="M132 481l-87 80l46 45l77 -92zM99 0h-81l55 447h81z" />
    <glyph glyph-name="iacute" unicode="&#xed;" horiz-adv-x="173" 
d="M75 514l99 92l38 -45l-107 -80zM99 0h-81l55 447h81z" />
    <glyph glyph-name="icircumflex" unicode="&#xee;" horiz-adv-x="173" 
d="M183 513l-59 74l-72 -74l-41 34l124 124l93 -124zM99 0h-81l55 447h81z" />
    <glyph glyph-name="idieresis" unicode="&#xef;" horiz-adv-x="173" 
d="M146 557q0 23 17 39.5t40 16.5q19 0 31 -12.5t12 -31.5q0 -23 -16.5 -39.5t-39.5 -16.5q-19 0 -31.5 12.5t-12.5 31.5zM1 557q0 23 16.5 39.5t39.5 16.5q19 0 31 -12.5t12 -31.5q0 -23 -16.5 -39.5t-39.5 -16.5q-19 0 -31 12.5t-12 31.5zM18 0l55 447h81l-55 -447h-81z
" />
    <glyph glyph-name="eth" unicode="&#xf0;" horiz-adv-x="336" 
d="M24 143q0 38 6 91t23.5 101.5t49 82.5t83.5 34q15 0 25 -3.5t21 -14.5q-5 40 -13 78t-31 73l-74 -51l-40 49l77 53q-13 16 -27 29t-31 25l47 50q39 -26 72 -62l72 48l39 -47l-75 -52q19 -28 31.5 -61.5t20.5 -68.5t11.5 -70.5t3.5 -69.5q0 -29 -2.5 -67.5t-8 -78t-15 -76
t-24.5 -62.5q-22 -38 -51.5 -59t-74.5 -21q-34 0 -56 12.5t-35 33.5t-18.5 48t-5.5 56zM111 133q0 -10 1.5 -21.5t5.5 -21t12 -16t21 -6.5q23 0 34.5 17t17.5 36q5 17 9.5 42t8 52.5t5.5 53.5t2 44q0 10 -1 21.5t-5 21t-12 16t-21 6.5q-23 0 -34 -16.5t-18 -36.5
q-6 -17 -11 -42.5t-8 -52.5t-5 -53t-2 -44z" />
    <glyph glyph-name="ntilde" unicode="&#xf1;" horiz-adv-x="353" 
d="M98 517q3 16 8 31.5t14 28t22.5 20.5t32.5 8q13 0 24 -4.5t21 -10.5t19 -10.5t19 -4.5q13 0 14.5 9t6.5 17h48q-2 -16 -6.5 -32t-13.5 -28.5t-22.5 -20t-32.5 -7.5q-11 0 -21 4.5t-19 9.5t-18.5 9.5t-20.5 4.5t-16 -7t-5 -17h-54zM73 447h81l-6 -52q19 27 40.5 43
t56.5 16q38 0 57.5 -21t19.5 -58q0 -14 -1 -28.5t-3 -28.5l-39 -318h-82l37 299l2 18t1 18q0 20 -9.5 33.5t-30.5 13.5q-19 0 -30 -9t-17.5 -23t-9.5 -30t-5 -31l-36 -289h-81z" />
    <glyph glyph-name="ograve" unicode="&#xf2;" horiz-adv-x="336" 
d="M121 561l46 45l77 -92l-36 -33zM138 -7q-34 0 -56.5 12.5t-35 33.5t-17.5 48.5t-5 56.5q0 42 6 95.5t24.5 101.5t52.5 80.5t89 32.5q33 0 55.5 -12.5t35.5 -33t18.5 -47t5.5 -55.5q0 -42 -6 -96t-24.5 -102.5t-52.5 -81.5t-90 -33zM149 356q-10 -16 -17.5 -45t-12 -61.5
t-7 -63.5t-2.5 -51q0 -10 1.5 -21.5t5.5 -21t12 -16t21 -6.5q14 0 22.5 6.5t16.5 17.5q11 16 18 45t12 61.5t7 63.5t2 50q0 11 -1.5 22t-5.5 21t-12 16t-22 6t-22.5 -6t-15.5 -17z" />
    <glyph glyph-name="oacute" unicode="&#xf3;" horiz-adv-x="336" 
d="M161 514l99 92l38 -45l-107 -80zM138 -7q-34 0 -56.5 12.5t-35 33.5t-17.5 48.5t-5 56.5q0 42 6 95.5t24.5 101.5t52.5 80.5t89 32.5q33 0 55.5 -12.5t35.5 -33t18.5 -47t5.5 -55.5q0 -42 -6 -96t-24.5 -102.5t-52.5 -81.5t-90 -33zM110 135q0 -10 1.5 -21.5t5.5 -21
t12 -16t21 -6.5q14 0 22.5 6.5t16.5 17.5q11 16 18 45t12 61.5t7 63.5t2 50q0 11 -1.5 22t-5.5 21t-12 16t-22 6t-22.5 -6t-15.5 -17q-10 -16 -17.5 -45t-12 -61.5t-7 -63.5t-2.5 -51z" />
    <glyph glyph-name="ocircumflex" unicode="&#xf4;" horiz-adv-x="336" 
d="M218 604l78 -91l-43 -32l-44 47l-54 -47l-37 32zM24 144q0 42 6 95.5t24.5 101.5t52.5 80.5t89 32.5q33 0 55.5 -12.5t35.5 -33t18.5 -47t5.5 -55.5q0 -42 -6 -96t-24.5 -102.5t-52.5 -81.5t-90 -33q-34 0 -56.5 12.5t-35 33.5t-17.5 48.5t-5 56.5zM110 135
q0 -10 1.5 -21.5t5.5 -21t12 -16t21 -6.5q14 0 22.5 6.5t16.5 17.5q11 16 18 45t12 61.5t7 63.5t2 50q0 11 -1.5 22t-5.5 21t-12 16t-22 6t-22.5 -6t-15.5 -17q-10 -16 -17.5 -45t-12 -61.5t-7 -63.5t-2.5 -51z" />
    <glyph glyph-name="otilde" unicode="&#xf5;" horiz-adv-x="336" 
d="M118 514q3 8 9 18.5t14.5 19.5t18.5 15.5t21 6.5q16 0 25 -4.5t15 -10t11.5 -10t14.5 -4.5q7 0 14 9t12 19l32 -22q-2 -10 -8 -20.5t-14.5 -19.5t-19 -14.5t-22.5 -5.5q-13 0 -21.5 4.5t-15 10t-11.5 10t-11 4.5q-13 0 -32 -28zM24 144q0 42 6 95.5t24.5 101.5t52.5 80.5
t89 32.5q33 0 55.5 -12.5t35.5 -33t18.5 -47t5.5 -55.5q0 -42 -6 -96t-24.5 -102.5t-52.5 -81.5t-90 -33q-34 0 -56.5 12.5t-35 33.5t-17.5 48.5t-5 56.5zM110 135q0 -10 1.5 -21.5t5.5 -21t12 -16t21 -6.5q14 0 22.5 6.5t16.5 17.5q11 16 18 45t12 61.5t7 63.5t2 50
q0 11 -1.5 22t-5.5 21t-12 16t-22 6t-22.5 -6t-15.5 -17q-10 -16 -17.5 -45t-12 -61.5t-7 -63.5t-2.5 -51z" />
    <glyph glyph-name="odieresis" unicode="&#xf6;" horiz-adv-x="336" 
d="M275 513q-19 0 -31.5 12.5t-12.5 31.5q0 23 17 39.5t40 16.5q19 0 31 -12.5t12 -31.5q0 -23 -16.5 -39.5t-39.5 -16.5zM129 513q-19 0 -31 12.5t-12 31.5q0 23 16.5 39.5t39.5 16.5q19 0 31 -12.5t12 -31.5q0 -23 -16.5 -39.5t-39.5 -16.5zM24 144q0 42 6 95.5
t24.5 101.5t52.5 80.5t89 32.5q33 0 55.5 -12.5t35.5 -33t18.5 -47t5.5 -55.5q0 -42 -6 -96t-24.5 -102.5t-52.5 -81.5t-90 -33q-34 0 -56.5 12.5t-35 33.5t-17.5 48.5t-5 56.5zM110 135q0 -10 1.5 -21.5t5.5 -21t12 -16t21 -6.5q14 0 22.5 6.5t16.5 17.5q11 16 18 45
t12 61.5t7 63.5t2 50q0 11 -1.5 22t-5.5 21t-12 16t-22 6t-22.5 -6t-15.5 -17q-10 -16 -17.5 -45t-12 -61.5t-7 -63.5t-2.5 -51z" />
    <glyph glyph-name="divide" unicode="&#xf7;" 
d="M263 462q-21 0 -37 15.5t-16 36.5q0 22 15.5 37.5t37.5 15.5t37 -16t15 -37t-15.5 -36.5t-36.5 -15.5zM480 371v-74h-434v74h434zM210 153q0 22 15.5 37.5t37.5 15.5t37 -16t15 -37t-15.5 -36.5t-36.5 -15.5t-37 15.5t-16 36.5z" />
    <glyph glyph-name="oslash" unicode="&#xf8;" horiz-adv-x="359" 
d="M43 69q-10 33 -10 70q0 43 5.5 97.5t23 103t51.5 81.5t91 33q28 0 48 -8t39 -29l32 45l33 -21l-46 -64q5 -17 7 -34.5t2 -35.5q0 -28 -2 -62.5t-8.5 -69.5t-18 -67.5t-30.5 -58t-46.5 -41t-65.5 -15.5q-28 0 -48 8t-39 29l-27 -38l-31 22zM155 354q-10 -16 -16 -39
t-9.5 -48t-5 -49.5t-3.5 -43.5l112 167q-4 17 -11.5 27.5t-26.5 10.5q-15 0 -23.5 -6.5t-16.5 -18.5zM121 105q2 -17 10.5 -29t27.5 -12t30.5 12.5t18.5 30t10.5 37t5.5 33.5q3 24 5.5 48t4.5 48z" />
    <glyph glyph-name="ugrave" unicode="&#xf9;" horiz-adv-x="354" 
d="M128 561l46 45l77 -92l-36 -33zM144 -8q-111 0 -111 110q0 13 1 25t3 25l36 295h81l-33 -268q-2 -16 -3.5 -31t-1.5 -31q0 -25 10.5 -35.5t35.5 -10.5q16 0 25.5 7t15 17.5t8.5 23.5t5 26q2 8 3 17t2 17l32 268h82l-33 -268q-5 -40 -12 -74.5t-23 -59.5t-45 -39t-78 -14z
" />
    <glyph glyph-name="uacute" unicode="&#xfa;" horiz-adv-x="354" 
d="M170 514l99 92l38 -45l-107 -80zM33 102q0 13 1 25t3 25l36 295h81l-33 -268q-2 -16 -3.5 -31t-1.5 -31q0 -25 10.5 -35.5t35.5 -10.5q16 0 25.5 7t15 17.5t8.5 23.5t5 26q2 8 3 17t2 17l32 268h82l-33 -268q-5 -40 -12 -74.5t-23 -59.5t-45 -39t-78 -14q-111 0 -111 110
z" />
    <glyph glyph-name="ucircumflex" unicode="&#xfb;" horiz-adv-x="354" 
d="M232 671l93 -124l-45 -34l-59 74l-72 -74l-41 34zM144 -8q-111 0 -111 110q0 13 1 25t3 25l36 295h81l-33 -268q-2 -16 -3.5 -31t-1.5 -31q0 -25 10.5 -35.5t35.5 -10.5q16 0 25.5 7t15 17.5t8.5 23.5t5 26q2 8 3 17t2 17l32 268h82l-33 -268q-5 -40 -12 -74.5t-23 -59.5
t-45 -39t-78 -14z" />
    <glyph glyph-name="udieresis" unicode="&#xfc;" horiz-adv-x="354" 
d="M278 513q-19 0 -31.5 12.5t-12.5 31.5q0 23 17 39.5t40 16.5q19 0 31 -12.5t12 -31.5q0 -23 -16.5 -39.5t-39.5 -16.5zM89 557q0 23 16.5 39.5t39.5 16.5q19 0 31 -12.5t12 -31.5q0 -23 -16.5 -39.5t-39.5 -16.5q-19 0 -31 12.5t-12 31.5zM144 -8q-111 0 -111 110
q0 13 1 25t3 25l36 295h81l-33 -268q-2 -16 -3.5 -31t-1.5 -31q0 -25 10.5 -35.5t35.5 -10.5q16 0 25.5 7t15 17.5t8.5 23.5t5 26q2 8 3 17t2 17l32 268h82l-33 -268q-5 -40 -12 -74.5t-23 -59.5t-45 -39t-78 -14z" />
    <glyph glyph-name="yacute" unicode="&#xfd;" horiz-adv-x="322" 
d="M256 606l38 -45l-107 -80l-30 33zM98 36l-67 411h92l26 -312l114 312h83l-259 -635h-85z" />
    <glyph glyph-name="thorn" unicode="&#xfe;" horiz-adv-x="344" 
d="M108 729h81l-41 -340q17 29 36 47t54 18q26 0 42 -12t25 -30.5t12 -41t3 -42.5q0 -22 -1.5 -55.5t-6.5 -71t-14.5 -74.5t-25 -67t-38.5 -48.5t-55 -18.5t-47 14t-26 43l-30 -238h-81zM119 138q0 -10 1 -22t5 -22.5t12 -18t21 -7.5q14 0 23 6.5t16 17t11 22.5t7 22
q5 18 9 41t7 46.5t4.5 46.5t1.5 42q0 10 -1.5 22t-6 22t-12.5 16.5t-21 6.5q-17 0 -29.5 -15t-21 -38t-14 -51t-8 -55t-3.5 -49t-1 -33z" />
    <glyph glyph-name="ydieresis" unicode="&#xff;" horiz-adv-x="322" 
d="M218 557q0 23 17 39.5t40 16.5q19 0 31 -12.5t12 -31.5q0 -23 -16.5 -39.5t-39.5 -16.5q-19 0 -31.5 12.5t-12.5 31.5zM116 513q-19 0 -31 12.5t-12 31.5q0 23 16.5 39.5t39.5 16.5q19 0 31 -12.5t12 -31.5q0 -23 -16.5 -39.5t-39.5 -16.5zM2 -188l96 224l-67 411h92
l26 -312l114 312h83l-259 -635h-85z" />
    <glyph glyph-name="Amacron" unicode="&#x100;" horiz-adv-x="355" 
d="M130 732l7 62h222l-8 -62h-221zM198 667h69l59 -667h-88l-8 130h-131l-40 -130h-86zM225 199q-4 66 -7 132t-3 132v37t1 37q-2 -6 -3 -11.5t-3 -11.5l-11 -47q-17 -68 -37 -134.5t-42 -133.5h105z" />
    <glyph glyph-name="amacron" unicode="&#x101;" horiz-adv-x="343" 
d="M102 524l7 62h222l-8 -62h-221zM23 123q0 23 1.5 56t6.5 70t14.5 73.5t25 65.5t38 47.5t54.5 18.5q30 0 46.5 -16t27.5 -42l6 51h81l-55 -447h-81l7 57q-16 -28 -35 -46t-54 -18q-27 0 -43 12.5t-25 31.5t-12 42t-3 44zM106 139q0 -10 1 -23t5 -23.5t12.5 -18t22.5 -7.5
t23.5 8t16 19.5t10.5 24.5t7 24q20 83 20 166q0 10 -1 22t-5 22.5t-11.5 18t-20.5 7.5q-16 0 -26.5 -8.5t-17.5 -21.5t-11 -28t-7 -27q-8 -38 -13 -77t-5 -78z" />
    <glyph glyph-name="Abreve" unicode="&#x102;" horiz-adv-x="355" 
d="M241 701q-23 0 -37 8t-20.5 21t-7.5 29.5t1 34.5h49q-3 -26 3 -36.5t19 -10.5q11 0 21 10.5t15 36.5h49q-2 -17 -8 -33.5t-16.5 -30t-27 -21.5t-40.5 -8zM198 667h69l59 -667h-88l-8 130h-131l-40 -130h-86zM225 199q-4 66 -7 132t-3 132v37t1 37q-2 -6 -3 -11.5
t-3 -11.5l-11 -47q-17 -68 -37 -134.5t-42 -133.5h105z" />
    <glyph glyph-name="abreve" unicode="&#x103;" horiz-adv-x="343" 
d="M210 481q-23 0 -37 8t-20.5 21t-7.5 29.5t1 34.5h49q-3 -26 3 -36.5t19 -10.5q11 0 21 10.5t15 36.5h49q-2 -17 -8 -33.5t-16.5 -30t-27 -21.5t-40.5 -8zM106 -7q-27 0 -43 12.5t-25 31.5t-12 42t-3 44q0 23 1.5 56t6.5 70t14.5 73.5t25 65.5t38 47.5t54.5 18.5
q30 0 46.5 -16t27.5 -42l6 51h81l-55 -447h-81l7 57q-16 -28 -35 -46t-54 -18zM124 294q-8 -38 -13 -77t-5 -78q0 -10 1 -23t5 -23.5t12.5 -18t22.5 -7.5t23.5 8t16 19.5t10.5 24.5t7 24q20 83 20 166q0 10 -1 22t-5 22.5t-11.5 18t-20.5 7.5q-16 0 -26.5 -8.5t-17.5 -21.5
t-11 -28t-7 -27z" />
    <glyph glyph-name="Aogonek" unicode="&#x104;" horiz-adv-x="355" 
d="M-27 0l225 667h69l59 -667h-39q-6 -7 -12.5 -16.5t-12.5 -19.5t-10 -20.5t-4 -19.5q0 -16 9 -21.5t23 -5.5t24.5 2.5t17.5 5.5l-7 -51q-14 -6 -25.5 -7.5t-20.5 -1.5q-14 0 -27.5 3t-24 10t-17 18t-6.5 27q0 28 14 52t30 45l-8 130h-131l-40 -130h-86zM216 537
q-21 -86 -45 -169.5t-51 -168.5h105q-4 68 -7 135t-3 135v32t1 36z" />
    <glyph glyph-name="aogonek" unicode="&#x105;" horiz-adv-x="343" 
d="M23 123q0 22 1.5 55t6.5 70t14 73.5t24.5 66t38.5 48t55 18.5q29 0 47 -16t27 -42l6 51h81l-55 -447h-32q-6 -7 -12.5 -16.5t-12.5 -19.5t-10 -20.5t-4 -19.5q0 -16 9 -21.5t23 -5.5t24.5 2.5t17.5 5.5l-7 -51q-14 -6 -25.5 -7.5t-20.5 -1.5q-14 0 -27.5 3t-24 10t-17 18
t-6.5 27q0 28 14 52t30 45l7 57q-14 -27 -35.5 -45.5t-53.5 -18.5q-27 0 -43 12.5t-25 31.5t-12 42t-3 44zM106 143q0 -11 1 -24.5t4.5 -25t12 -19t23.5 -7.5q17 0 29.5 14.5t21 37t13.5 50t8 53.5t4 48.5t1 33.5q0 10 -0.5 23t-4.5 24.5t-11.5 19.5t-21.5 8q-19 0 -31 -12
q-13 -13 -22.5 -42.5t-15.5 -63t-8.5 -66t-2.5 -52.5z" />
    <glyph glyph-name="Cacute" unicode="&#x106;" horiz-adv-x="332" 
d="M239 762l95 122l66 -39l-115 -112zM208 -9q-50 0 -82 19.5t-51 51t-26 72t-7 82.5q0 35 3.5 75t10.5 80.5t16.5 79t22.5 71.5q12 32 30.5 60t42.5 48.5t54 32.5t66 12q22 0 37.5 -3.5t34.5 -15.5l-9 -81q-13 8 -26.5 12.5t-28.5 4.5q-35 0 -60 -20t-43 -51.5t-29 -71
t-17 -79t-8 -75t-2 -59.5q0 -26 3.5 -53.5t14 -50.5t30.5 -38t53 -15q28 0 53 13l-10 -82q-19 -11 -35 -15t-38 -4z" />
    <glyph glyph-name="cacute" unicode="&#x107;" horiz-adv-x="249" 
d="M244 664l66 -39l-115 -112l-46 29zM23 140q0 49 8 102t24 99q17 48 48.5 80.5t86.5 32.5q19 0 32 -3.5t30 -12.5l-11 -84q-11 21 -38 21q-30 0 -47.5 -25t-26.5 -59t-12 -69.5t-3 -56.5q0 -14 1 -30.5t6 -30.5t15.5 -23.5t29.5 -9.5q12 0 22.5 4.5t20.5 12.5l-10 -77
q-18 -10 -32.5 -14t-35.5 -4q-32 0 -53 13t-33 33.5t-17 47t-5 53.5z" />
    <glyph glyph-name="Ccircumflex" unicode="&#x108;" horiz-adv-x="332" 
d="M305 885l93 -124l-45 -34l-59 74l-72 -74l-41 34zM208 -9q-50 0 -82 19.5t-51 51t-26 72t-7 82.5q0 35 3.5 75t10.5 80.5t16.5 79t22.5 71.5q12 32 30.5 60t42.5 48.5t54 32.5t66 12q22 0 37.5 -3.5t34.5 -15.5l-9 -81q-13 8 -26.5 12.5t-28.5 4.5q-35 0 -60 -20
t-43 -51.5t-29 -71t-17 -79t-8 -75t-2 -59.5q0 -26 3.5 -53.5t14 -50.5t30.5 -38t53 -15q28 0 53 13l-10 -82q-19 -11 -35 -15t-38 -4z" />
    <glyph glyph-name="ccircumflex" unicode="&#x109;" horiz-adv-x="249" 
d="M91 547l124 124l93 -124l-45 -34l-59 74l-72 -74zM23 140q0 49 8 102t24 99q17 48 48.5 80.5t86.5 32.5q19 0 32 -3.5t30 -12.5l-11 -84q-11 21 -38 21q-30 0 -47.5 -25t-26.5 -59t-12 -69.5t-3 -56.5q0 -14 1 -30.5t6 -30.5t15.5 -23.5t29.5 -9.5q12 0 22.5 4.5
t20.5 12.5l-10 -77q-18 -10 -32.5 -14t-35.5 -4q-32 0 -53 13t-33 33.5t-17 47t-5 53.5z" />
    <glyph glyph-name="Cdotaccent" unicode="&#x10a;" horiz-adv-x="332" 
d="M246 767q0 23 18 41t41 18q20 0 33 -13t13 -33q0 -23 -18 -41t-41 -18q-20 0 -33 13t-13 33zM208 -9q-50 0 -82 19.5t-51 51t-26 72t-7 82.5q0 35 3.5 75t10.5 80.5t16.5 79t22.5 71.5q12 32 30.5 60t42.5 48.5t54 32.5t66 12q22 0 37.5 -3.5t34.5 -15.5l-9 -81
q-13 8 -26.5 12.5t-28.5 4.5q-35 0 -60 -20t-43 -51.5t-29 -71t-17 -79t-8 -75t-2 -59.5q0 -26 3.5 -53.5t14 -50.5t30.5 -38t53 -15q28 0 53 13l-10 -82q-19 -11 -35 -15t-38 -4z" />
    <glyph glyph-name="cdotaccent" unicode="&#x10b;" horiz-adv-x="249" 
d="M148 559q0 23 18 41t41 18q20 0 33 -13t13 -33q0 -23 -18 -41t-41 -18q-20 0 -33 13t-13 33zM131 -7q-32 0 -53 13t-33 33.5t-17 47t-5 53.5q0 49 8 102t24 99q17 48 48.5 80.5t86.5 32.5q19 0 32 -3.5t30 -12.5l-11 -84q-11 21 -38 21q-30 0 -47.5 -25t-26.5 -59
t-12 -69.5t-3 -56.5q0 -14 1 -30.5t6 -30.5t15.5 -23.5t29.5 -9.5q12 0 22.5 4.5t20.5 12.5l-10 -77q-18 -10 -32.5 -14t-35.5 -4z" />
    <glyph glyph-name="Ccaron" unicode="&#x10c;" horiz-adv-x="332" 
d="M251 885l54 -74l77 74l37 -34l-123 -124l-94 124zM208 -9q-50 0 -82 19.5t-51 51t-26 72t-7 82.5q0 35 3.5 75t10.5 80.5t16.5 79t22.5 71.5q12 32 30.5 60t42.5 48.5t54 32.5t66 12q22 0 37.5 -3.5t34.5 -15.5l-9 -81q-13 8 -26.5 12.5t-28.5 4.5q-35 0 -60 -20
t-43 -51.5t-29 -71t-17 -79t-8 -75t-2 -59.5q0 -26 3.5 -53.5t14 -50.5t30.5 -38t53 -15q28 0 53 13l-10 -82q-19 -11 -35 -15t-38 -4z" />
    <glyph glyph-name="ccaron" unicode="&#x10d;" horiz-adv-x="249" 
d="M151 671l54 -74l77 74l37 -34l-123 -124l-94 124zM23 140q0 49 8 102t24 99q17 48 48.5 80.5t86.5 32.5q19 0 32 -3.5t30 -12.5l-11 -84q-11 21 -38 21q-30 0 -47.5 -25t-26.5 -59t-12 -69.5t-3 -56.5q0 -14 1 -30.5t6 -30.5t15.5 -23.5t29.5 -9.5q12 0 22.5 4.5
t20.5 12.5l-10 -77q-18 -10 -32.5 -14t-35.5 -4q-32 0 -53 13t-33 33.5t-17 47t-5 53.5z" />
    <glyph glyph-name="Dcaron" unicode="&#x10e;" horiz-adv-x="405" 
d="M138 851l49 34l54 -74l77 74l37 -34l-123 -124zM23 0l81 667h109q24 0 48 -2.5t46 -13.5q26 -13 42 -35.5t25 -49t12 -55t3 -54.5q0 -36 -3.5 -81.5t-11 -92.5t-19 -91t-27.5 -76q-19 -39 -43.5 -62t-53.5 -35t-63.5 -15.5t-73.5 -3.5h-71zM121 78h3q37 0 64 10.5
t49 42.5q16 23 27.5 66t18.5 91.5t10 94.5t3 75q0 32 -4 56.5t-16 41.5t-34 26t-58 9z" />
    <glyph glyph-name="dcaron" unicode="&#x10f;" horiz-adv-x="496" 
d="M23 123q0 23 1.5 56t6.5 70t14 73.5t25 66t39 47.5t55 18t47 -15.5t26 -42.5l40 333h82l-90 -729h-81l7 57q-16 -28 -35 -46t-54 -18q-27 0 -43 12.5t-25 31.5t-12 42t-3 44zM438 688l68 -21l-92 -189l-43 17zM106 139q0 -10 1 -23t5 -23.5t12.5 -18t22.5 -7.5t23.5 8
t16 19.5t10.5 24.5t7 24q20 83 20 166q0 10 -1 22t-5 22.5t-11.5 18t-20.5 7.5q-16 0 -26.5 -8.5t-17.5 -21.5t-11 -28t-7 -27q-8 -38 -13 -77t-5 -78z" />
    <glyph glyph-name="Dcroat" unicode="&#x110;" horiz-adv-x="405" 
d="M59 293h-28l8 63h27l39 311h108q38 0 70.5 -7t58.5 -36q31 -34 39 -78.5t8 -88.5q0 -30 -2 -64t-6 -68.5t-10.5 -68t-14.5 -62.5q-16 -58 -37.5 -96t-52 -59.5t-72.5 -30t-100 -8.5h-71zM121 78q36 0 66 10.5t50 42.5q16 24 27 67t18 91t10.5 93.5t3.5 75.5q0 28 -4 52.5
t-15 42.5t-31 28t-52 10h-10l-29 -235h59l-8 -63h-59z" />
    <glyph glyph-name="dcroat" unicode="&#x111;" horiz-adv-x="342" 
d="M108 -7q-27 0 -44 13t-26 32.5t-12 43.5t-3 46t2 52.5t7.5 64t15 66.5t24.5 59.5t36.5 43t50.5 16.5q30 0 47.5 -15.5t27.5 -42.5l19 149h-82l8 64h82l17 144h82l-19 -144h44l-8 -64h-44l-64 -521h-81l7 57q-12 -27 -34 -45.5t-53 -18.5zM106 141q0 -11 1 -24t5 -24
t12 -18.5t23 -7.5q17 0 28 11.5t18 27.5t11 33.5t6 29.5q4 20 8 53.5t4 59.5q0 9 -1 21.5t-5 23.5t-11.5 19t-20.5 8q-7 0 -15 -2t-16 -10q-12 -12 -20.5 -38.5t-14.5 -57t-9 -59.5t-3 -46z" />
    <glyph glyph-name="Emacron" unicode="&#x112;" horiz-adv-x="316" 
d="M341 732h-221l7 62h222zM330 591h-146l-26 -212h130l-10 -76h-130l-27 -227h146l-9 -76h-235l81 667h235z" />
    <glyph glyph-name="emacron" unicode="&#x113;" horiz-adv-x="321" 
d="M92 586h222l-8 -62h-221zM136 -7q-34 0 -55.5 12.5t-34.5 33t-18 47t-5 55.5q0 27 2.5 60.5t9.5 68t18.5 68t30.5 59t45 41.5t61 16q33 0 54 -14t33.5 -36.5t17 -50t4.5 -54.5q0 -23 -2 -46t-5 -46h-185q-2 -15 -3 -29.5t-1 -29.5q0 -12 0.5 -26.5t4.5 -27t13 -21.5
t25 -9t27 9t17.5 22t10.5 28t5 28h76q-4 -30 -14.5 -58.5t-27.5 -50.5t-42.5 -35.5t-61.5 -13.5zM217 267q1 8 1 16.5v16.5v15q0 10 -1 22t-4.5 22.5t-11 17.5t-21.5 7q-18 0 -29.5 -13.5t-19 -32t-11 -38.5t-6.5 -33h103z" />
    <glyph glyph-name="Edotaccent" unicode="&#x116;" horiz-adv-x="316" 
d="M178 767q0 23 18 41t41 18q20 0 33 -13t13 -33q0 -23 -18 -41t-41 -18q-20 0 -33 13t-13 33zM23 0l81 667h235l-9 -76h-146l-26 -212h130l-10 -76h-130l-27 -227h146l-9 -76h-235z" />
    <glyph glyph-name="edotaccent" unicode="&#x117;" horiz-adv-x="321" 
d="M149 559q0 23 18 41t41 18q20 0 33 -13t13 -33q0 -23 -18 -41t-41 -18q-20 0 -33 13t-13 33zM23 141q0 27 2.5 60.5t9.5 68t18.5 68t30.5 59t45 41.5t61 16q33 0 54 -14t33.5 -36.5t17 -50t4.5 -54.5q0 -23 -2 -46t-5 -46h-185q-2 -15 -3 -29.5t-1 -29.5q0 -12 0.5 -26.5
t4.5 -27t13 -21.5t25 -9t27 9t17.5 22t10.5 28t5 28h76q-4 -30 -14.5 -58.5t-27.5 -50.5t-42.5 -35.5t-61.5 -13.5q-34 0 -55.5 12.5t-34.5 33t-18 47t-5 55.5zM217 267q1 8 1 16.5v16.5v15q0 10 -1 22t-4.5 22.5t-11 17.5t-21.5 7q-18 0 -29.5 -13.5t-19 -32t-11 -38.5
t-6.5 -33h103z" />
    <glyph glyph-name="Eogonek" unicode="&#x118;" horiz-adv-x="316" 
d="M23 0l81 667h235l-9 -76h-146l-26 -212h130l-10 -76h-130l-27 -227h146l-9 -76h-36q-6 -7 -12.5 -16.5t-12.5 -19.5t-10 -20.5t-4 -19.5q0 -16 9 -21.5t23 -5.5t24.5 2.5t17.5 5.5l-7 -51q-14 -6 -25.5 -7.5t-20.5 -1.5q-14 0 -27.5 3t-24 10t-17 18t-6.5 27q0 28 14 52
t30 45h-150z" />
    <glyph glyph-name="eogonek" unicode="&#x119;" horiz-adv-x="321" 
d="M23 143q0 27 2.5 60.5t9.5 68t19 67.5t30.5 58.5t44.5 41t61 15.5q21 0 40 -7t34 -24q17 -19 24.5 -45.5t9.5 -54t0.5 -52.5t-3.5 -41l-3 -23h-185q-1 -4 -2.5 -21t-1.5 -37q0 -12 0.5 -27t5 -27.5t13.5 -21.5t25 -9t26.5 9t17.5 22t10.5 28.5t4.5 27.5h76
q-5 -41 -16.5 -67.5t-28.5 -51.5q-18 -26 -29 -39t-20 -29q-5 -8 -9.5 -18.5t-4.5 -21.5q0 -16 9 -21.5t23 -5.5t24.5 2.5t17.5 5.5l-7 -51q-14 -6 -25.5 -7.5t-20.5 -1.5q-14 0 -27.5 3t-24 10t-17 18t-6.5 27q0 25 12.5 49.5t29.5 42.5q-8 -2 -14.5 -2h-13.5
q-33 0 -54.5 12.5t-34 33.5t-17.5 48t-5 56zM217 267q4 54 -1 76t-11 30q-2 3 -8 7t-15 4q-13 0 -22 -6t-15.5 -15t-11 -20t-7.5 -21q-4 -12 -7 -28t-5 -27h103z" />
    <glyph glyph-name="Ecaron" unicode="&#x11a;" horiz-adv-x="316" 
d="M226 727l-94 124l49 34l54 -74l77 74l37 -34zM330 591h-146l-26 -212h130l-10 -76h-130l-27 -227h146l-9 -76h-235l81 667h235z" />
    <glyph glyph-name="ecaron" unicode="&#x11b;" horiz-adv-x="321" 
d="M103 637l49 34l54 -74l77 74l37 -34l-123 -124zM23 141q0 27 2.5 60.5t9.5 68t18.5 68t30.5 59t45 41.5t61 16q33 0 54 -14t33.5 -36.5t17 -50t4.5 -54.5q0 -23 -2 -46t-5 -46h-185q-2 -15 -3 -29.5t-1 -29.5q0 -12 0.5 -26.5t4.5 -27t13 -21.5t25 -9t27 9t17.5 22
t10.5 28t5 28h76q-4 -30 -14.5 -58.5t-27.5 -50.5t-42.5 -35.5t-61.5 -13.5q-34 0 -55.5 12.5t-34.5 33t-18 47t-5 55.5zM217 267q1 8 1 16.5v16.5v15q0 10 -1 22t-4.5 22.5t-11 17.5t-21.5 7q-18 0 -29.5 -13.5t-19 -32t-11 -38.5t-6.5 -33h103z" />
    <glyph glyph-name="Gcircumflex" unicode="&#x11c;" horiz-adv-x="406" 
d="M285 885l93 -124l-45 -34l-59 74l-72 -74l-41 34zM181 -9q-46 0 -74 17t-43 45t-19.5 64t-4.5 73q0 65 7.5 128.5t20.5 126.5q9 42 21 83.5t33.5 74t55 52.5t85.5 20q69 0 99 -36t40 -100l-87 -35q-1 16 -3.5 32.5t-9 29.5t-18.5 21.5t-33 8.5q-33 0 -48.5 -21.5
t-24.5 -48.5q-11 -32 -20 -78t-15 -94.5t-9.5 -95.5t-3.5 -82q0 -17 1 -35t6.5 -32.5t18 -24t35.5 -9.5q22 0 37 10t24.5 25.5t15 34t8.5 36.5q5 23 8.5 46.5t5.5 47.5h-76l9 76h161q-4 -32 -8 -71.5t-11.5 -79.5t-20.5 -77.5t-34.5 -67t-52.5 -47t-76 -17.5z" />
    <glyph glyph-name="gcircumflex" unicode="&#x11d;" horiz-adv-x="344" 
d="M97 547l124 124l93 -124l-45 -34l-59 74l-72 -74zM112 -188q-54 0 -83.5 27t-29.5 82q0 15 3 32h79q-1 -5 -1.5 -10.5t-0.5 -10.5q0 -22 11.5 -36.5t34.5 -14.5q19 0 30 8t17 21t9 28t4 30l10 87q-14 -27 -34.5 -44.5t-52.5 -17.5q-26 0 -43 12t-26.5 30.5t-13 41.5
t-3.5 44q0 113 30 221q6 21 15 41t22.5 35.5t32 25.5t42.5 10q32 0 47 -17t26 -44l6 54h82l-57 -461q-3 -26 -7.5 -52t-15.5 -50q-18 -39 -54.5 -55.5t-78.5 -16.5zM182 379q-16 0 -28 -14.5t-20.5 -37.5t-13.5 -51t-8 -54.5t-4 -49t-1 -33.5t1 -23.5t5.5 -23.5t13 -18
t22.5 -7q18 0 28 10.5t16 25.5q7 17 12.5 43t9.5 54t6 55t2 46q0 10 -1.5 23.5t-5.5 25.5t-12 20.5t-22 8.5z" />
    <glyph glyph-name="Gbreve" unicode="&#x11e;" horiz-adv-x="406" 
d="M209 811q6 -21 24.5 -28t38.5 -7q22 0 41.5 7.5t30.5 27.5h54q-11 -48 -49 -70.5t-84 -22.5q-22 0 -42 5.5t-35 16.5t-24 29t-9 42h54zM40 190q0 65 7.5 128.5t20.5 126.5q9 42 21 83.5t33.5 74t55 52.5t85.5 20q69 0 99 -36t40 -100l-87 -35q-1 16 -3.5 32.5t-9 29.5
t-18.5 21.5t-33 8.5q-33 0 -48.5 -21.5t-24.5 -48.5q-11 -32 -20 -78t-15 -94.5t-9.5 -95.5t-3.5 -82q0 -17 1 -35t6.5 -32.5t18 -24t35.5 -9.5q22 0 37 10t24.5 25.5t15 34t8.5 36.5q5 23 8.5 46.5t5.5 47.5h-76l9 76h161q-4 -32 -8 -71.5t-11.5 -79.5t-20.5 -77.5
t-34.5 -67t-52.5 -47t-76 -17.5q-46 0 -74 17t-43 45t-19.5 64t-4.5 73z" />
    <glyph glyph-name="gbreve" unicode="&#x11f;" horiz-adv-x="344" 
d="M201 513q-22 0 -42 5.5t-35 16.5t-24 29t-9 42h54q6 -21 24.5 -28t38.5 -7q22 0 41.5 7.5t30.5 27.5h54q-11 -48 -49 -70.5t-84 -22.5zM-1 -79q0 15 3 32h79q-1 -5 -1.5 -10.5t-0.5 -10.5q0 -22 11.5 -36.5t34.5 -14.5q19 0 30 8t17 21t9 28t4 30l10 87
q-14 -27 -34.5 -44.5t-52.5 -17.5q-26 0 -43 12t-26.5 30.5t-13 41.5t-3.5 44q0 113 30 221q6 21 15 41t22.5 35.5t32 25.5t42.5 10q32 0 47 -17t26 -44l6 54h82l-57 -461q-3 -26 -7.5 -52t-15.5 -50q-18 -39 -54.5 -55.5t-78.5 -16.5q-54 0 -83.5 27t-29.5 82zM107 139
q0 -11 1 -23.5t5.5 -23.5t13 -18t22.5 -7q18 0 28 10.5t16 25.5q7 17 12.5 43t9.5 54t6 55t2 46q0 10 -1.5 23.5t-5.5 25.5t-12 20.5t-22 8.5q-16 0 -28 -14.5t-20.5 -37.5t-13.5 -51t-8 -54.5t-4 -49t-1 -33.5z" />
    <glyph glyph-name="Gdotaccent" unicode="&#x120;" horiz-adv-x="406" 
d="M222 767q0 23 18 41t41 18q20 0 33 -13t13 -33q0 -23 -18 -41t-41 -18q-20 0 -33 13t-13 33zM181 -9q-46 0 -74 17t-43 45t-19.5 64t-4.5 73q0 65 7.5 128.5t20.5 126.5q9 42 21 83.5t33.5 74t55 52.5t85.5 20q69 0 99 -36t40 -100l-87 -35q-1 16 -3.5 32.5t-9 29.5
t-18.5 21.5t-33 8.5q-33 0 -48.5 -21.5t-24.5 -48.5q-11 -32 -20 -78t-15 -94.5t-9.5 -95.5t-3.5 -82q0 -17 1 -35t6.5 -32.5t18 -24t35.5 -9.5q22 0 37 10t24.5 25.5t15 34t8.5 36.5q5 23 8.5 46.5t5.5 47.5h-76l9 76h161q-4 -32 -8 -71.5t-11.5 -79.5t-20.5 -77.5
t-34.5 -67t-52.5 -47t-76 -17.5z" />
    <glyph glyph-name="gdotaccent" unicode="&#x121;" horiz-adv-x="344" 
d="M176 513q-20 0 -33 13t-13 33q0 23 18 41t41 18q20 0 33 -13t13 -33q0 -23 -18 -41t-41 -18zM-1 -79q0 15 3 32h79q-1 -5 -1.5 -10.5t-0.5 -10.5q0 -22 11.5 -36.5t34.5 -14.5q19 0 30 8t17 21t9 28t4 30l10 87q-14 -27 -34.5 -44.5t-52.5 -17.5q-26 0 -43 12t-26.5 30.5
t-13 41.5t-3.5 44q0 113 30 221q6 21 15 41t22.5 35.5t32 25.5t42.5 10q32 0 47 -17t26 -44l6 54h82l-57 -461q-3 -26 -7.5 -52t-15.5 -50q-18 -39 -54.5 -55.5t-78.5 -16.5q-54 0 -83.5 27t-29.5 82zM107 139q0 -11 1 -23.5t5.5 -23.5t13 -18t22.5 -7q18 0 28 10.5t16 25.5
q7 17 12.5 43t9.5 54t6 55t2 46q0 10 -1.5 23.5t-5.5 25.5t-12 20.5t-22 8.5q-16 0 -28 -14.5t-20.5 -37.5t-13.5 -51t-8 -54.5t-4 -49t-1 -33.5z" />
    <glyph glyph-name="uni0122" unicode="&#x122;" horiz-adv-x="406" 
d="M181 -9q-46 0 -74 17t-43 45t-19.5 64t-4.5 73q0 65 7.5 128.5t20.5 126.5q9 42 21 83.5t33.5 74t55 52.5t85.5 20q69 0 99 -36t40 -100l-87 -35q-1 16 -3.5 32.5t-9 29.5t-18.5 21.5t-33 8.5q-33 0 -48.5 -21.5t-24.5 -48.5q-11 -32 -20 -78t-15 -94.5t-9.5 -95.5
t-3.5 -82q0 -17 1 -35t6.5 -32.5t18 -24t35.5 -9.5q22 0 37 10t24.5 25.5t15 34t8.5 36.5q5 23 8.5 46.5t5.5 47.5h-76l9 76h161q-4 -32 -8 -71.5t-11.5 -79.5t-20.5 -77.5t-34.5 -67t-52.5 -47t-76 -17.5zM152 -48l68 -21l-73 -154l-43 13z" />
    <glyph glyph-name="uni0123" unicode="&#x123;" horiz-adv-x="344" 
d="M221 673l43 -13l-54 -173l-68 21zM-1 -79q0 15 3 32h79q-1 -5 -1.5 -10.5t-0.5 -10.5q0 -22 11.5 -36.5t34.5 -14.5q19 0 30 8t17 21t9 28t4 30l10 87q-14 -27 -34.5 -44.5t-52.5 -17.5q-26 0 -43 12t-26.5 30.5t-13 41.5t-3.5 44q0 113 30 221q6 21 15 41t22.5 35.5
t32 25.5t42.5 10q32 0 47 -17t26 -44l6 54h82l-57 -461q-3 -26 -7.5 -52t-15.5 -50q-18 -39 -54.5 -55.5t-78.5 -16.5q-54 0 -83.5 27t-29.5 82zM182 379q-16 0 -28 -14.5t-20.5 -37.5t-13.5 -51t-8 -54.5t-4 -49t-1 -33.5t1 -23.5t5.5 -23.5t13 -18t22.5 -7q18 0 28 10.5
t16 25.5q7 17 12.5 43t9.5 54t6 55t2 46q0 10 -1.5 23.5t-5.5 25.5t-12 20.5t-22 8.5z" />
    <glyph glyph-name="Hcircumflex" unicode="&#x124;" horiz-adv-x="408" 
d="M285 885l93 -124l-45 -34l-59 74l-72 -74l-41 34zM104 667h89l-32 -261h129l32 261h89l-82 -667h-88l40 330h-129l-41 -330h-88z" />
    <glyph glyph-name="hcircumflex" unicode="&#x125;" horiz-adv-x="353" 
d="M46 797l124 124l93 -124l-45 -34l-59 74l-72 -74zM108 729h81l-41 -334q19 27 40.5 43t56.5 16q38 0 57.5 -21t19.5 -58q0 -14 -1 -28.5t-3 -28.5l-39 -318h-82l37 299l2 18t1 18q0 20 -9.5 33.5t-30.5 13.5q-19 0 -30 -9t-17.5 -23t-9.5 -30t-5 -31l-36 -289h-81z" />
    <glyph glyph-name="Hbar" unicode="&#x126;" horiz-adv-x="408" 
d="M88 550h-48l8 64h48l7 53h90l-7 -53h128l7 53h90l-6 -53h48l-8 -64h-48l-68 -550h-90l41 330h-128l-41 -330h-90zM289 406l18 144h-128l-18 -144h128z" />
    <glyph glyph-name="hbar" unicode="&#x127;" horiz-adv-x="359" 
d="M24 0l62 521h-50l8 64h50l19 144h81l-17 -144h106l-8 -64h-106l-18 -151q19 27 40.5 43t56.5 16q38 0 57.5 -21t19.5 -58q0 -14 -1 -28.5t-3 -28.5l-36 -293h-82l34 275l2 18t1 18q0 20 -9.5 33.5t-30.5 13.5q-19 0 -30 -9t-17.5 -23t-9.5 -30t-5 -31l-33 -265h-81z" />
    <glyph glyph-name="Itilde" unicode="&#x128;" horiz-adv-x="190" 
d="M63 734q3 8 9 18.5t14.5 19.5t18.5 15.5t21 6.5q16 0 25 -4.5t15 -10t11.5 -10t14.5 -4.5q7 0 14 9t12 19l32 -22q-2 -10 -8 -20.5t-14.5 -19.5t-19 -14.5t-22.5 -5.5q-13 0 -21.5 4.5t-15 10t-11.5 10t-11 4.5q-13 0 -32 -28zM104 667h89l-82 -667h-88z" />
    <glyph glyph-name="itilde" unicode="&#x129;" horiz-adv-x="173" 
d="M28 514q3 8 9 18.5t14.5 19.5t18.5 15.5t21 6.5q16 0 25 -4.5t15 -10t11.5 -10t14.5 -4.5q7 0 14 9t12 19l32 -22q-2 -10 -8 -20.5t-14.5 -19.5t-19 -14.5t-22.5 -5.5q-13 0 -21.5 4.5t-15 10t-11.5 10t-11 4.5q-13 0 -32 -28zM18 0l55 447h81l-55 -447h-81z" />
    <glyph glyph-name="Imacron" unicode="&#x12a;" horiz-adv-x="190" 
d="M266 732h-221l7 62h222zM111 0h-88l81 667h89z" />
    <glyph glyph-name="imacron" unicode="&#x12b;" horiz-adv-x="173" 
d="M231 524h-221l7 62h222zM99 0h-81l55 447h81z" />
    <glyph glyph-name="Iogonek" unicode="&#x12e;" horiz-adv-x="190" 
d="M81 -155q-27 0 -49 14t-22 44q0 28 16.5 53t35.5 44h-39l81 667h89l-82 -667q-7 -6 -15.5 -15t-15.5 -19.5t-11.5 -21t-4.5 -20.5q0 -27 28 -27q9 0 21 2t21 6l-7 -51q-14 -6 -25.5 -7.5t-20.5 -1.5z" />
    <glyph glyph-name="iogonek" unicode="&#x12f;" horiz-adv-x="173" 
d="M71 574q0 25 19 44t44 19q22 0 35 -14.5t13 -35.5q0 -25 -19 -43.5t-44 -18.5q-20 0 -34 14.5t-14 34.5zM6 -97q0 28 14 52t30 45h-32l55 447h81l-55 -447q-6 -7 -12.5 -16.5t-12.5 -19.5t-10 -20.5t-4 -19.5q0 -16 9 -21.5t23 -5.5t24.5 2.5t17.5 5.5l-7 -51
q-14 -6 -25.5 -7.5t-20.5 -1.5q-29 0 -52 13t-23 45z" />
    <glyph glyph-name="Idotaccent" unicode="&#x130;" horiz-adv-x="190" 
d="M154 721q-20 0 -33 13t-13 33q0 23 18 41t41 18q20 0 33 -13t13 -33q0 -23 -18 -41t-41 -18zM23 0l81 667h89l-82 -667h-88z" />
    <glyph glyph-name="dotlessi" unicode="&#x131;" horiz-adv-x="173" 
d="M99 0h-81l55 447h81z" />
    <glyph glyph-name="Jcircumflex" unicode="&#x134;" horiz-adv-x="255" 
d="M235 885l93 -124l-45 -34l-59 74l-72 -74l-41 34zM-18 99q13 -8 26.5 -15.5t29.5 -7.5q24 0 37.5 10.5t20.5 26.5t9.5 35.5t4.5 37.5l59 481h89l-63 -512q-3 -22 -7 -44t-13 -42q-18 -40 -53.5 -59t-77.5 -19q-19 0 -37.5 4t-35.5 14z" />
    <glyph glyph-name="jcircumflex" unicode="&#x135;" horiz-adv-x="174" 
d="M183 513l-59 74l-72 -74l-41 34l124 124l93 -124zM77 -188h-82l79 635h81z" />
    <glyph glyph-name="uni0136" unicode="&#x136;" horiz-adv-x="366" 
d="M23 0l81 667h89l-38 -306l158 306h92l-174 -325l95 -342h-92l-84 327l-39 -327h-88zM147 -48l68 -21l-73 -154l-43 13z" />
    <glyph glyph-name="uni0137" unicode="&#x137;" horiz-adv-x="341" 
d="M18 0l90 729h81l-58 -473l124 191h94l-142 -207l102 -240h-92l-90 222l-28 -222h-81zM73 -221l54 173l68 -21l-79 -165z" />
    <glyph glyph-name="Lacute" unicode="&#x139;" horiz-adv-x="288" 
d="M214 884l66 -39l-115 -112l-46 29zM256 0h-233l81 667h89l-72 -591h144z" />
    <glyph glyph-name="lacute" unicode="&#x13a;" horiz-adv-x="172" 
d="M204 914l66 -39l-115 -112l-46 29zM99 0h-81l89 729h81z" />
    <glyph glyph-name="uni013B" unicode="&#x13b;" horiz-adv-x="288" 
d="M256 0h-233l81 667h89l-72 -591h144zM107 -223l-43 13l48 162l68 -21z" />
    <glyph glyph-name="uni013C" unicode="&#x13c;" horiz-adv-x="172" 
d="M99 0h-81l89 729h81zM21 -234l-43 13l54 173l68 -21z" />
    <glyph glyph-name="Lcaron" unicode="&#x13d;" horiz-adv-x="366" 
d="M282 478l-43 13l69 197l68 -21zM256 0h-233l81 667h89l-72 -591h144z" />
    <glyph glyph-name="lcaron" unicode="&#x13e;" horiz-adv-x="326" 
d="M99 0h-81l89 729h81zM244 478l-43 17l67 193l68 -21z" />
    <glyph glyph-name="Ldot" unicode="&#x13f;" horiz-adv-x="288" 
d="M23 0l81 667h89l-72 -591h144l-9 -76h-233zM201 328q0 23 18 41t41 18q20 0 33 -13t13 -33q0 -23 -18 -41t-41 -18q-20 0 -33 13t-13 33z" />
    <glyph glyph-name="ldot" unicode="&#x140;" horiz-adv-x="276" 
d="M18 0l89 729h81l-89 -729h-81zM237 313q-20 0 -33 13t-13 33q0 23 18 41t41 18q20 0 33 -13t13 -33q0 -23 -18 -41t-41 -18z" />
    <glyph glyph-name="Lslash" unicode="&#x141;" horiz-adv-x="288" 
d="M256 0h-233l31 257l-55 -41l11 89l55 42l39 320h89l-34 -277l105 75l-11 -90l-105 -74l-27 -225h144z" />
    <glyph glyph-name="lslash" unicode="&#x142;" horiz-adv-x="187" 
d="M204 394l-55 -45l-43 -349h-81l37 307l-55 -43l11 86l55 43l41 336h81l-36 -294l56 45z" />
    <glyph glyph-name="Nacute" unicode="&#x143;" horiz-adv-x="407" 
d="M309 884l66 -39l-115 -112l-46 29zM104 667h83l55 -267q12 -60 22 -119.5t16 -120.5v110q0 38 3 74.5t8 73.5l31 249h88l-81 -667h-83l-62 300q-8 35 -13.5 69t-9.5 69l-4 50q-1 6 -1.5 12.5t-1.5 12.5v-16q0 -21 -1 -42.5t-3 -42.5q-8 -104 -18.5 -206.5t-21.5 -205.5
h-87z" />
    <glyph glyph-name="nacute" unicode="&#x144;" horiz-adv-x="353" 
d="M249 664l66 -39l-115 -112l-46 29zM73 447h81l-6 -52q19 27 40.5 43t56.5 16q38 0 57.5 -21t19.5 -58q0 -14 -1 -28.5t-3 -28.5l-39 -318h-82l37 299l2 18t1 18q0 20 -9.5 33.5t-30.5 13.5q-19 0 -30 -9t-17.5 -23t-9.5 -30t-5 -31l-36 -289h-81z" />
    <glyph glyph-name="uni0145" unicode="&#x145;" horiz-adv-x="407" 
d="M104 667h83l55 -267q12 -60 22 -119.5t16 -120.5v110q0 38 3 74.5t8 73.5l31 249h88l-81 -667h-83l-62 300q-8 35 -13.5 69t-9.5 69l-4 50q-1 6 -1.5 12.5t-1.5 12.5v-16q0 -21 -1 -42.5t-3 -42.5q-8 -104 -18.5 -206.5t-21.5 -205.5h-87zM99 -210l48 162l68 -21
l-73 -154z" />
    <glyph glyph-name="uni0146" unicode="&#x146;" horiz-adv-x="353" 
d="M73 447h81l-6 -52q19 27 40.5 43t56.5 16q38 0 57.5 -21t19.5 -58q0 -14 -1 -28.5t-3 -28.5l-39 -318h-82l37 299l2 18t1 18q0 20 -9.5 33.5t-30.5 13.5q-19 0 -30 -9t-17.5 -23t-9.5 -30t-5 -31l-36 -289h-81zM119 -48l68 -21l-79 -165l-43 13z" />
    <glyph glyph-name="Ncaron" unicode="&#x147;" horiz-adv-x="407" 
d="M215 885l54 -74l77 74l37 -34l-123 -124l-94 124zM104 667h83l55 -267q12 -60 22 -119.5t16 -120.5v110q0 38 3 74.5t8 73.5l31 249h88l-81 -667h-83l-62 300q-8 35 -13.5 69t-9.5 69l-4 50q-1 6 -1.5 12.5t-1.5 12.5v-16q0 -21 -1 -42.5t-3 -42.5q-8 -104 -18.5 -206.5
t-21.5 -205.5h-87z" />
    <glyph glyph-name="ncaron" unicode="&#x148;" horiz-adv-x="353" 
d="M176 671l54 -74l77 74l37 -34l-123 -124l-94 124zM73 447h81l-6 -52q19 27 40.5 43t56.5 16q38 0 57.5 -21t19.5 -58q0 -14 -1 -28.5t-3 -28.5l-39 -318h-82l37 299l2 18t1 18q0 20 -9.5 33.5t-30.5 13.5q-19 0 -30 -9t-17.5 -23t-9.5 -30t-5 -31l-36 -289h-81z" />
    <glyph glyph-name="Omacron" unicode="&#x14c;" horiz-adv-x="416" 
d="M167 794h222l-8 -62h-221zM182 -9q-42 0 -69.5 14.5t-43 39t-22 57.5t-6.5 69q0 77 7.5 153.5t24.5 151.5q9 38 22.5 74t35 64t53.5 44.5t77 16.5q43 0 70.5 -15.5t43.5 -41t22 -59t6 -70.5q0 -81 -9.5 -163t-31.5 -160q-10 -35 -24 -67t-35 -56t-50.5 -38t-70.5 -14z
M178 528q-10 -29 -19 -75.5t-15.5 -97t-10 -99t-3.5 -81.5q0 -15 1.5 -33t7.5 -33t17.5 -25t32.5 -10q20 0 33 7.5t22.5 20t15.5 28t10 31.5q9 32 16.5 75.5t13 90t8.5 91t3 77.5q0 17 -1 34.5t-6.5 31.5t-17.5 23.5t-34 9.5q-30 0 -47.5 -20t-26.5 -46z" />
    <glyph glyph-name="omacron" unicode="&#x14d;" horiz-adv-x="336" 
d="M98 524l7 62h222l-8 -62h-221zM138 -7q-34 0 -56.5 12.5t-35 33.5t-17.5 48.5t-5 56.5q0 42 6 95.5t24.5 101.5t52.5 80.5t89 32.5q33 0 55.5 -12.5t35.5 -33t18.5 -47t5.5 -55.5q0 -42 -6 -96t-24.5 -102.5t-52.5 -81.5t-90 -33zM149 356q-10 -16 -17.5 -45t-12.5 -61.5
t-7 -63.5t-2 -51q0 -10 1.5 -21.5t5.5 -21t12 -16t21 -6.5q14 0 22.5 6.5t16.5 17.5q11 16 18 45t12 61.5t7 63.5t2 50q0 11 -1.5 22t-5.5 21t-12 16t-22 6t-22.5 -6t-15.5 -17z" />
    <glyph glyph-name="Obreve" unicode="&#x14e;" horiz-adv-x="416" 
d="M203 811q6 -21 24.5 -28t38.5 -7q22 0 41.5 7.5t30.5 27.5h54q-11 -48 -49 -70.5t-84 -22.5q-22 0 -42 5.5t-35 16.5t-24 29t-9 42h54zM41 171q0 77 7.5 153.5t24.5 151.5q9 38 22.5 74t35 64t53.5 44.5t77 16.5q43 0 70.5 -15.5t43.5 -41t22 -59t6 -70.5
q0 -81 -9.5 -163t-31.5 -160q-10 -35 -24 -67t-35 -56t-50.5 -38t-70.5 -14q-42 0 -69.5 14.5t-43 39t-22 57.5t-6.5 69zM130 175q0 -15 1.5 -33t7.5 -33t17.5 -25t32.5 -10q20 0 33 7.5t22.5 20t15.5 28t10 31.5q9 32 16.5 75.5t13 90t8.5 91t3 77.5q0 17 -1 34.5
t-6.5 31.5t-17.5 23.5t-34 9.5q-30 0 -47.5 -20t-26.5 -46q-10 -29 -19 -75.5t-15.5 -97t-10 -99t-3.5 -81.5z" />
    <glyph glyph-name="obreve" unicode="&#x14f;" horiz-adv-x="336" 
d="M147 606q6 -21 24.5 -28t38.5 -7q22 0 41.5 7.5t30.5 27.5h54q-11 -48 -49 -70.5t-84 -22.5q-22 0 -42 5.5t-35 16.5t-24 29t-9 42h54zM24 144q0 42 6 95.5t24.5 101.5t52.5 80.5t89 32.5q33 0 55.5 -12.5t35.5 -33t18.5 -47t5.5 -55.5q0 -42 -6 -96t-24.5 -102.5
t-52.5 -81.5t-90 -33q-34 0 -56.5 12.5t-35 33.5t-17.5 48.5t-5 56.5zM149 356q-10 -16 -17.5 -45t-12.5 -61.5t-7 -63.5t-2 -51q0 -10 1.5 -21.5t5.5 -21t12 -16t21 -6.5q14 0 22.5 6.5t16.5 17.5q11 16 18 45t12 61.5t7 63.5t2 50q0 11 -1.5 22t-5.5 21t-12 16t-22 6
t-22.5 -6t-15.5 -17z" />
    <glyph glyph-name="Ohungarumlaut" unicode="&#x150;" horiz-adv-x="416" 
d="M247 885l51 -33l-91 -126l-37 21zM359 885l51 -33l-92 -126l-36 21zM41 171q0 77 7.5 153.5t24.5 151.5q9 38 22.5 74t35 64t53.5 44.5t77 16.5q43 0 70.5 -15.5t43.5 -41t22 -59t6 -70.5q0 -81 -9.5 -163t-31.5 -160q-10 -35 -24 -67t-35 -56t-50.5 -38t-70.5 -14
q-42 0 -69.5 14.5t-43 39t-22 57.5t-6.5 69zM178 528q-10 -29 -19 -75.5t-15.5 -97t-10 -99t-3.5 -81.5q0 -15 1.5 -33t7.5 -33t17.5 -25t32.5 -10q20 0 33 7.5t22.5 20t15.5 28t10 31.5q9 32 16.5 75.5t13 90t8.5 91t3 77.5q0 17 -1 34.5t-6.5 31.5t-17.5 23.5t-34 9.5
q-30 0 -47.5 -20t-26.5 -46z" />
    <glyph glyph-name="ohungarumlaut" unicode="&#x151;" horiz-adv-x="336" 
d="M185 671l51 -33l-91 -126l-37 21zM297 671l51 -33l-92 -126l-36 21zM138 -7q-34 0 -56.5 12.5t-35 33.5t-17.5 48.5t-5 56.5q0 42 6 95.5t24.5 101.5t52.5 80.5t89 32.5q33 0 55.5 -12.5t35.5 -33t18.5 -47t5.5 -55.5q0 -42 -6 -96t-24.5 -102.5t-52.5 -81.5t-90 -33z
M149 356q-10 -16 -17.5 -45t-12 -61.5t-7 -63.5t-2.5 -51q0 -10 1.5 -21.5t5.5 -21t12 -16t21 -6.5q14 0 22.5 6.5t16.5 17.5q11 16 18 45t12 61.5t7 63.5t2 50q0 11 -1.5 22t-5.5 21t-12 16t-22 6t-22.5 -6t-15.5 -17z" />
    <glyph glyph-name="OE" unicode="&#x152;" horiz-adv-x="555" 
d="M39 186q0 72 9 143t25 141q8 34 20 70.5t31.5 66.5t48.5 49t71 19q33 0 55.5 -14t33.5 -46l6 52h228l-9 -76h-145l-26 -212h133l-9 -76h-133l-28 -227h149l-9 -76h-228l6 52q-20 -30 -45 -45.5t-61 -15.5q-41 0 -65.5 18.5t-37 47t-16.5 63t-4 66.5zM130 188q0 -16 1 -36
t7 -37.5t18 -29.5t34 -12q17 0 29.5 7t21.5 18t15.5 25t10.5 28q14 45 19.5 91t11.5 92q5 39 9.5 78.5t4.5 79.5q0 16 -1 34t-6.5 33.5t-17.5 26t-33 10.5q-17 0 -29.5 -8t-22 -20t-16 -27t-11.5 -29q-11 -34 -19.5 -75.5t-14 -85t-8.5 -85.5t-3 -78z" />
    <glyph glyph-name="oe" unicode="&#x153;" horiz-adv-x="516" 
d="M25 148q0 41 6 94t24 100t51.5 79.5t88.5 32.5q32 0 54.5 -14.5t32.5 -45.5q34 60 102 60q32 0 52.5 -13t32.5 -34t17 -47.5t5 -53.5q0 -25 -2 -49.5t-5 -49.5h-186q-1 -15 -2 -29.5t-1 -29.5q0 -11 1 -25.5t5 -27.5t12.5 -22t24.5 -9t27 9t18 22t11 28t6 28h75
q-5 -30 -15.5 -58.5t-28.5 -50.5t-43.5 -35.5t-60.5 -13.5t-55 14.5t-34 46.5q-18 -32 -41.5 -46.5t-61.5 -14.5q-35 0 -56.5 13.5t-33.5 35t-16 49.5t-4 57zM371 385q-21 0 -33 -13.5t-18.5 -32.5t-8.5 -39.5t-4 -35.5h100q2 12 3 24.5t1 24.5q0 11 -1 23.5t-5 23t-12 18
t-22 7.5zM108 146q0 -10 1 -24t4.5 -26t11.5 -20.5t23 -8.5q17 0 29.5 14t21 36t14 48.5t8.5 52.5t4 48t1 34q0 11 -1 24.5t-4.5 25.5t-11.5 20.5t-23 8.5q-18 0 -30.5 -14t-21 -36t-14 -49t-8 -53t-3.5 -48t-1 -33z" />
    <glyph glyph-name="Racute" unicode="&#x154;" horiz-adv-x="367" 
d="M284 884l66 -39l-115 -112l-46 29zM104 667h117q72 0 102.5 -33.5t30.5 -104.5q0 -28 -6 -61t-20.5 -63t-38 -52t-58.5 -29l90 -324h-90l-82 311l-38 -311h-88zM157 371q17 0 34.5 2.5t31.5 13.5q13 9 21 24.5t13 33t7 35t2 32.5q0 20 -2.5 35t-10 25.5t-21 15.5t-35.5 5
h-13z" />
    <glyph glyph-name="racute" unicode="&#x155;" horiz-adv-x="233" 
d="M224 664l66 -39l-115 -112l-46 29zM18 0l55 447h81l-7 -56q22 30 43.5 46.5t60.5 19.5l-11 -86q-5 1 -14 1q-25 0 -42 -7.5t-27 -20.5t-15.5 -31.5t-8.5 -41.5l-34 -271h-81z" />
    <glyph glyph-name="uni0156" unicode="&#x156;" horiz-adv-x="367" 
d="M104 667h117q72 0 102.5 -33.5t30.5 -104.5q0 -28 -6 -61t-20.5 -63t-38 -52t-58.5 -29l90 -324h-90l-82 311l-38 -311h-88zM157 371q17 0 34.5 2.5t31.5 13.5q13 9 21 24.5t13 33t7 35t2 32.5q0 20 -2.5 35t-10 25.5t-21 15.5t-35.5 5h-13zM99 -210l48 162l68 -21
l-73 -154z" />
    <glyph glyph-name="uni0157" unicode="&#x157;" horiz-adv-x="233" 
d="M18 0l55 447h81l-7 -56q22 30 43.5 46.5t60.5 19.5l-11 -86q-5 1 -14 1q-25 0 -42 -7.5t-27 -20.5t-15.5 -31.5t-8.5 -41.5l-34 -271h-81zM23 -221l54 173l68 -21l-79 -165z" />
    <glyph glyph-name="Rcaron" unicode="&#x158;" horiz-adv-x="367" 
d="M142 851l49 34l54 -74l77 74l37 -34l-123 -124zM104 667h117q72 0 102.5 -33.5t30.5 -104.5q0 -28 -6 -61t-20.5 -63t-38 -52t-58.5 -29l90 -324h-90l-82 311l-38 -311h-88zM157 371q17 0 34.5 2.5t31.5 13.5q13 9 21 24.5t13 33t7 35t2 32.5q0 20 -2.5 35t-10 25.5
t-21 15.5t-35.5 5h-13z" />
    <glyph glyph-name="rcaron" unicode="&#x159;" horiz-adv-x="233" 
d="M87 637l49 34l54 -74l77 74l37 -34l-123 -124zM73 447h81l-7 -56q22 30 43.5 46.5t60.5 19.5l-11 -86q-5 1 -14 1q-25 0 -42 -7.5t-27 -20.5t-15.5 -31.5t-8.5 -41.5l-34 -271h-81z" />
    <glyph glyph-name="Sacute" unicode="&#x15a;" horiz-adv-x="325" 
d="M284 884l66 -39l-115 -112l-46 29zM119 -9q-26 0 -49.5 7.5t-43.5 24.5l11 89q18 -15 37.5 -25t43.5 -10q23 0 39.5 9.5t28 25t17 35t5.5 39.5q0 29 -10.5 51.5t-27 42.5t-35 40t-35 42.5t-27 49.5t-10.5 63q0 38 11 74t32.5 64t53.5 45t74 17q26 0 45.5 -4t42.5 -18
l-12 -88q-14 14 -31 22t-37 8q-21 0 -38 -9t-29 -23.5t-18 -33t-6 -38.5q0 -26 10.5 -47t26.5 -41.5t35 -41t35 -44.5t26.5 -53t10.5 -66q0 -38 -11.5 -75t-34 -66.5t-55.5 -47.5t-75 -18z" />
    <glyph glyph-name="sacute" unicode="&#x15b;" horiz-adv-x="256" 
d="M134 542l95 122l66 -39l-115 -112zM82 -7q-22 0 -36.5 4.5t-32.5 16.5l10 80q14 -12 29 -19.5t35 -7.5q29 0 46 18t17 47q0 25 -18 43t-39 37t-39 43t-18 60q0 30 10 55.5t28 45t43 30.5t55 11q38 0 70 -19l-10 -77q-13 10 -27.5 16t-31.5 6q-23 0 -41 -16.5t-18 -39.5
q0 -24 17.5 -41t38.5 -35.5t38.5 -42.5t17.5 -63q0 -31 -10.5 -59t-29.5 -48.5t-45.5 -32.5t-58.5 -12z" />
    <glyph glyph-name="Scircumflex" unicode="&#x15c;" horiz-adv-x="325" 
d="M255 885l93 -124l-45 -34l-59 74l-72 -74l-41 34zM119 -9q-26 0 -49.5 7.5t-43.5 24.5l11 89q18 -15 37.5 -25t43.5 -10q23 0 39.5 9.5t28 25t17 35t5.5 39.5q0 29 -10.5 51.5t-27 42.5t-35 40t-35 42.5t-27 49.5t-10.5 63q0 38 11 74t32.5 64t53.5 45t74 17
q26 0 45.5 -4t42.5 -18l-12 -88q-14 14 -31 22t-37 8q-21 0 -38 -9t-29 -23.5t-18 -33t-6 -38.5q0 -26 10.5 -47t26.5 -41.5t35 -41t35 -44.5t26.5 -53t10.5 -66q0 -38 -11.5 -75t-34 -66.5t-55.5 -47.5t-75 -18z" />
    <glyph glyph-name="scircumflex" unicode="&#x15d;" horiz-adv-x="256" 
d="M71 547l124 124l93 -124l-45 -34l-59 74l-72 -74zM82 -7q-22 0 -36.5 4.5t-32.5 16.5l10 80q14 -12 29 -19.5t35 -7.5q29 0 46 18t17 47q0 25 -18 43t-39 37t-39 43t-18 60q0 30 10 55.5t28 45t43 30.5t55 11q38 0 70 -19l-10 -77q-13 10 -27.5 16t-31.5 6
q-23 0 -41 -16.5t-18 -39.5q0 -24 17.5 -41t38.5 -35.5t38.5 -42.5t17.5 -63q0 -31 -10.5 -59t-29.5 -48.5t-45.5 -32.5t-58.5 -12z" />
    <glyph glyph-name="Scedilla" unicode="&#x15e;" horiz-adv-x="325" 
d="M37 112q18 -15 37.5 -25t43.5 -10q23 0 39.5 9.5t28 25t17 35t5.5 39.5q0 29 -10.5 51.5t-27 42.5t-35 40t-35 42.5t-27 49.5t-10.5 63q0 38 11 74t32.5 64t53.5 45t74 17q26 0 45.5 -4t42.5 -18l-12 -88q-14 14 -31 22t-37 8q-21 0 -38 -9t-29 -23.5t-18 -33t-6 -38.5
q0 -26 10.5 -47t26.5 -41.5t35 -41t35 -44.5t26.5 -53t10.5 -66q0 -38 -11.5 -75t-34 -66.5t-55.5 -47.5t-75 -18q-26 0 -49.5 7.5t-43.5 24.5zM108 -42l73 -33l-86 -118l-52 26z" />
    <glyph glyph-name="scedilla" unicode="&#x15f;" horiz-adv-x="256" 
d="M23 94q14 -12 29 -19.5t35 -7.5q29 0 46 18t17 47q0 25 -18 43t-39 37t-39 43t-18 60q0 30 10 55.5t28 45t43 30.5t55 11q38 0 70 -19l-10 -77q-13 10 -27.5 16t-31.5 6q-23 0 -41 -16.5t-18 -39.5q0 -24 17.5 -41t38.5 -35.5t38.5 -42.5t17.5 -63q0 -31 -10.5 -59
t-29.5 -48.5t-45.5 -32.5t-58.5 -12q-22 0 -36.5 4.5t-32.5 16.5zM15 -171l70 126l54 -29l-89 -117z" />
    <glyph glyph-name="Scaron" unicode="&#x160;" horiz-adv-x="325" 
d="M142 851l49 34l54 -74l77 74l37 -34l-123 -124zM119 -9q-26 0 -49.5 7.5t-43.5 24.5l11 89q18 -15 37.5 -25t43.5 -10q23 0 39.5 9.5t28 25t17 35t5.5 39.5q0 29 -10.5 51.5t-27 42.5t-35 40t-35 42.5t-27 49.5t-10.5 63q0 38 11 74t32.5 64t53.5 45t74 17q26 0 45.5 -4
t42.5 -18l-12 -88q-14 14 -31 22t-37 8q-21 0 -38 -9t-29 -23.5t-18 -33t-6 -38.5q0 -26 10.5 -47t26.5 -41.5t35 -41t35 -44.5t26.5 -53t10.5 -66q0 -38 -11.5 -75t-34 -66.5t-55.5 -47.5t-75 -18z" />
    <glyph glyph-name="scaron" unicode="&#x161;" horiz-adv-x="256" 
d="M131 671l54 -74l77 74l37 -34l-123 -124l-94 124zM23 94q14 -12 29 -19.5t35 -7.5q29 0 46 18t17 47q0 25 -18 43t-39 37t-39 43t-18 60q0 30 10 55.5t28 45t43 30.5t55 11q38 0 70 -19l-10 -77q-13 10 -27.5 16t-31.5 6q-23 0 -41 -16.5t-18 -39.5q0 -24 17.5 -41
t38.5 -35.5t38.5 -42.5t17.5 -63q0 -31 -10.5 -59t-29.5 -48.5t-45.5 -32.5t-58.5 -12q-22 0 -36.5 4.5t-32.5 16.5z" />
    <glyph glyph-name="uni0162" unicode="&#x162;" horiz-adv-x="284" 
d="M52 667h290l-10 -79h-102l-72 -588h-87l73 588h-102zM22 -167l65 125l73 -33l-86 -118z" />
    <glyph glyph-name="uni0163" unicode="&#x163;" horiz-adv-x="193" 
d="M28 0l47 383h-45l8 64h45l15 127h81l-15 -127h44l-8 -64h-44l-47 -383h-81zM-9 -171l70 126l54 -29l-89 -117z" />
    <glyph glyph-name="Tcaron" unicode="&#x164;" horiz-adv-x="284" 
d="M161 885l54 -74l77 74l37 -34l-123 -124l-94 124zM52 667h290l-10 -79h-102l-72 -588h-87l73 588h-102z" />
    <glyph glyph-name="tcaron" unicode="&#x165;" horiz-adv-x="296" 
d="M278 688l68 -21l-92 -189l-43 17zM28 0l47 383h-45l8 64h45l15 127h81l-15 -127h44l-8 -64h-44l-47 -383h-81z" />
    <glyph glyph-name="Utilde" unicode="&#x168;" horiz-adv-x="403" 
d="M165 734q3 8 9 18.5t14.5 19.5t18.5 15.5t21 6.5q16 0 25 -4.5t15 -10t11.5 -10t14.5 -4.5q7 0 14 9t12 19l32 -22q-2 -10 -8 -20.5t-14.5 -19.5t-19 -14.5t-22.5 -5.5q-13 0 -21.5 4.5t-15 10t-11.5 10t-11 4.5q-13 0 -32 -28zM171 -9q-63 0 -97 29.5t-34 95.5
q0 20 2.5 40t4.5 40l57 471h87l-58 -471q-2 -16 -3.5 -31t-1.5 -31q0 -58 59 -58q24 0 37.5 10t20.5 25.5t10 34.5t5 37l60 484h86l-59 -484q-5 -43 -15 -78.5t-29.5 -60.5t-51 -39t-80.5 -14z" />
    <glyph glyph-name="utilde" unicode="&#x169;" horiz-adv-x="354" 
d="M118 514q3 8 9 18.5t14.5 19.5t18.5 15.5t21 6.5q16 0 25 -4.5t15 -10t11.5 -10t14.5 -4.5q7 0 14 9t12 19l32 -22q-2 -10 -8 -20.5t-14.5 -19.5t-19 -14.5t-22.5 -5.5q-13 0 -21.5 4.5t-15 10t-11.5 10t-11 4.5q-13 0 -32 -28zM33 102q0 13 1 25t3 25l36 295h81
l-33 -268q-2 -16 -3.5 -31t-1.5 -31q0 -25 10.5 -35.5t35.5 -10.5q16 0 25.5 7t15 17.5t8.5 23.5t5 26q2 8 3 17t2 17l32 268h82l-33 -268q-5 -40 -12 -74.5t-23 -59.5t-45 -39t-78 -14q-111 0 -111 110z" />
    <glyph glyph-name="Umacron" unicode="&#x16a;" horiz-adv-x="403" 
d="M157 794h222l-8 -62h-221zM171 -9q-63 0 -97 29.5t-34 95.5q0 20 2.5 40t4.5 40l57 471h87l-58 -471q-2 -16 -3.5 -31t-1.5 -31q0 -58 59 -58q24 0 37.5 10t20.5 25.5t10 34.5t5 37l60 484h86l-59 -484q-5 -43 -15 -78.5t-29.5 -60.5t-51 -39t-80.5 -14z" />
    <glyph glyph-name="umacron" unicode="&#x16b;" horiz-adv-x="354" 
d="M107 586h222l-8 -62h-221zM33 102q0 13 1 25t3 25l36 295h81l-33 -268q-2 -16 -3.5 -31t-1.5 -31q0 -25 10.5 -35.5t35.5 -10.5q16 0 25.5 7t15 17.5t8.5 23.5t5 26q2 8 3 17t2 17l32 268h82l-33 -268q-5 -40 -12 -74.5t-23 -59.5t-45 -39t-78 -14q-111 0 -111 110z" />
    <glyph glyph-name="Ubreve" unicode="&#x16c;" horiz-adv-x="403" 
d="M255 718q-22 0 -42 5.5t-35 16.5t-24 29t-9 42h54q6 -21 24.5 -28t38.5 -7q22 0 41.5 7.5t30.5 27.5h54q-11 -48 -49 -70.5t-84 -22.5zM40 116q0 20 2.5 40t4.5 40l57 471h87l-58 -471q-2 -16 -3.5 -31t-1.5 -31q0 -58 59 -58q24 0 37.5 10t20.5 25.5t10 34.5t5 37
l60 484h86l-59 -484q-5 -43 -15 -78.5t-29.5 -60.5t-51 -39t-80.5 -14q-63 0 -97 29.5t-34 95.5z" />
    <glyph glyph-name="ubreve" unicode="&#x16d;" horiz-adv-x="354" 
d="M205 513q-22 0 -42 5.5t-35 16.5t-24 29t-9 42h54q6 -21 24.5 -28t38.5 -7q22 0 41.5 7.5t30.5 27.5h54q-11 -48 -49 -70.5t-84 -22.5zM144 -8q-111 0 -111 110q0 13 1 25t3 25l36 295h81l-33 -268q-2 -16 -3.5 -31t-1.5 -31q0 -25 10.5 -35.5t35.5 -10.5q16 0 25.5 7
t15 17.5t8.5 23.5t5 26q2 8 3 17t2 17l32 268h82l-33 -268q-5 -40 -12 -74.5t-23 -59.5t-45 -39t-78 -14z" />
    <glyph glyph-name="Uring" unicode="&#x16e;" horiz-adv-x="403" 
d="M192 799q0 36 24.5 60.5t60.5 24.5t60.5 -24.5t24.5 -60.5t-24.5 -60.5t-60.5 -24.5t-60.5 24.5t-24.5 60.5zM237 799q0 -17 11.5 -28.5t28.5 -11.5t28.5 11.5t11.5 28.5t-11.5 28.5t-28.5 11.5t-28.5 -11.5t-11.5 -28.5zM171 -9q-63 0 -97 29.5t-34 95.5q0 20 2.5 40
t4.5 40l57 471h87l-58 -471q-2 -16 -3.5 -31t-1.5 -31q0 -58 59 -58q24 0 37.5 10t20.5 25.5t10 34.5t5 37l60 484h86l-59 -484q-5 -43 -15 -78.5t-29.5 -60.5t-51 -39t-80.5 -14z" />
    <glyph glyph-name="uring" unicode="&#x16f;" horiz-adv-x="354" 
d="M213 515q-36 0 -60.5 24.5t-24.5 60.5t24.5 60.5t60.5 24.5t60.5 -24.5t24.5 -60.5t-24.5 -60.5t-60.5 -24.5zM213 640q-17 0 -28.5 -11.5t-11.5 -28.5t11.5 -28.5t28.5 -11.5t28.5 11.5t11.5 28.5t-11.5 28.5t-28.5 11.5zM144 -8q-111 0 -111 110q0 13 1 25t3 25l36 295
h81l-33 -268q-2 -16 -3.5 -31t-1.5 -31q0 -25 10.5 -35.5t35.5 -10.5q16 0 25.5 7t15 17.5t8.5 23.5t5 26q2 8 3 17t2 17l32 268h82l-33 -268q-5 -40 -12 -74.5t-23 -59.5t-45 -39t-78 -14z" />
    <glyph glyph-name="Uhungarumlaut" unicode="&#x170;" horiz-adv-x="403" 
d="M155 747l77 138l51 -33l-91 -126zM344 885l51 -33l-92 -126l-36 21zM40 116q0 20 2.5 40t4.5 40l57 471h87l-58 -471q-2 -16 -3.5 -31t-1.5 -31q0 -58 59 -58q24 0 37.5 10t20.5 25.5t10 34.5t5 37l60 484h86l-59 -484q-5 -43 -15 -78.5t-29.5 -60.5t-51 -39t-80.5 -14
q-63 0 -97 29.5t-34 95.5z" />
    <glyph glyph-name="uhungarumlaut" unicode="&#x171;" horiz-adv-x="354" 
d="M187 671l51 -33l-91 -126l-37 21zM299 671l51 -33l-92 -126l-36 21zM144 -8q-111 0 -111 110q0 13 1 25t3 25l36 295h81l-33 -268q-2 -16 -3.5 -31t-1.5 -31q0 -25 10.5 -35.5t35.5 -10.5q16 0 25.5 7t15 17.5t8.5 23.5t5 26q2 8 3 17t2 17l32 268h82l-33 -268
q-5 -40 -12 -74.5t-23 -59.5t-45 -39t-78 -14z" />
    <glyph glyph-name="Uogonek" unicode="&#x172;" horiz-adv-x="403" 
d="M177 -9q-64 0 -100.5 28.5t-36.5 96.5q0 8 1 22.5t4 40.5l59 488h87l-58 -471q-3 -26 -4 -39t-1 -21q0 -31 13.5 -45.5t45.5 -14.5q23 0 36 8.5t20.5 22.5t10.5 32t5 36l61 492h86l-59 -484l-6 -44t-9.5 -42t-17.5 -39t-28 -35q-14 -13 -33 -26.5t-33 -27.5
q-8 -8 -15 -19t-7 -25q0 -17 11 -22.5t26 -5.5q18 0 37 8l-7 -51q-22 -9 -48 -9q-30 0 -51.5 14.5t-21.5 47.5q0 23 12 44.5t26 39.5h-5z" />
    <glyph glyph-name="uogonek" unicode="&#x173;" horiz-adv-x="354" 
d="M144 -8q-52 0 -81.5 26t-29.5 80q0 14 1 26.5t3 24.5l36 298h81l-33 -268q-2 -17 -3.5 -31t-1.5 -28q0 -24 9 -36.5t35 -12.5q9 0 18.5 2.5t17.5 11.5q10 11 15 31.5t10 62.5l32 268h82l-36 -290q-3 -21 -6.5 -41t-9.5 -38t-16 -35t-26 -33q-15 -15 -26 -24.5t-19 -20.5
q-3 -4 -9.5 -15.5t-6.5 -25.5q0 -16 9 -21.5t23 -5.5t24.5 2.5t17.5 5.5l-7 -51q-14 -6 -25.5 -7.5t-20.5 -1.5q-14 0 -27.5 3t-24 10t-17 18t-6.5 27q0 25 11.5 49t27.5 41q-5 -1 -10.5 -1h-10.5z" />
    <glyph glyph-name="Ydieresis" unicode="&#x178;" horiz-adv-x="336" 
d="M253 765q0 23 17 39.5t40 16.5q19 0 31 -12.5t12 -31.5q0 -23 -16.5 -39.5t-39.5 -16.5q-19 0 -31.5 12.5t-12.5 31.5zM151 721q-19 0 -31 12.5t-12 31.5q0 23 16.5 39.5t39.5 16.5q19 0 31 -12.5t12 -31.5q0 -23 -16.5 -39.5t-39.5 -16.5zM52 667h94l32 -179
q2 -12 4.5 -29t4.5 -35t3.5 -35.5t2.5 -30.5q17 62 42 132l65 177h92l-161 -380l-35 -287h-89l35 287z" />
    <glyph glyph-name="Zacute" unicode="&#x179;" horiz-adv-x="329" 
d="M279 884l66 -39l-115 -112l-46 29zM108 79h187l-10 -79h-302l272 591h-176l9 76h290z" />
    <glyph glyph-name="zacute" unicode="&#x17a;" horiz-adv-x="294" 
d="M228 664l66 -39l-115 -112l-46 29zM115 75h139l-9 -75h-260l198 374h-140l9 73h255z" />
    <glyph glyph-name="Zdotaccent" unicode="&#x17b;" horiz-adv-x="329" 
d="M229 721q-20 0 -33 13t-13 33q0 23 18 41t41 18q20 0 33 -13t13 -33q0 -23 -18 -41t-41 -18zM-17 0l272 591h-176l9 76h290l-270 -588h187l-10 -79h-302z" />
    <glyph glyph-name="zdotaccent" unicode="&#x17c;" horiz-adv-x="294" 
d="M173 513q-20 0 -33 13t-13 33q0 23 18 41t41 18q20 0 33 -13t13 -33q0 -23 -18 -41t-41 -18zM-15 0l198 374h-140l9 73h255l-192 -372h139l-9 -75h-260z" />
    <glyph glyph-name="Zcaron" unicode="&#x17d;" horiz-adv-x="329" 
d="M231 727l-94 124l49 34l54 -74l77 74l37 -34zM108 79h187l-10 -79h-302l272 591h-176l9 76h290z" />
    <glyph glyph-name="zcaron" unicode="&#x17e;" horiz-adv-x="294" 
d="M180 513l-94 124l49 34l54 -74l77 74l37 -34zM115 75h139l-9 -75h-260l198 374h-140l9 73h255z" />
    <glyph glyph-name="uni018F" unicode="&#x18f;" horiz-adv-x="418" 
d="M41 169q0 15 1 33t2.5 37t3.5 36.5t4 30.5l6 45h245q4 33 7 74.5t3 73.5q0 18 -2 35t-8.5 31t-19.5 22.5t-35 8.5q-20 0 -34.5 -8t-25 -21t-17 -29.5t-10.5 -33.5l-80 35q20 63 61.5 99.5t110.5 36.5q47 0 76.5 -13.5t46 -38t23 -59.5t6.5 -77q0 -54 -5 -116t-17 -125
q-8 -43 -20.5 -88.5t-34.5 -82.5t-56.5 -60.5t-88.5 -23.5q-40 0 -67.5 14.5t-44 39t-23.5 56.5t-7 68zM127 172q0 -17 2 -34t8.5 -31t19 -23t33.5 -9q15 0 27 5.5t20 13.5q12 12 21.5 35.5t16.5 50t11 52.5t7 43h-157q-3 -22 -6 -50t-3 -53z" />
    <glyph glyph-name="florin" unicode="&#x192;" horiz-adv-x="380" 
d="M-8 -46q9 -3 18 -5t19 -2q18 0 29.5 10t18 24t9.5 31t6 30q1 3 1.5 7t3 15t6.5 32.5t11.5 59t18.5 93.5t26 137h-60l12 61h60l24 121q6 32 13.5 62.5t21 55t37.5 39.5t63 15q17 0 28 -2.5t26 -9.5l-17 -84q-8 5 -16 8t-19 3q-16 0 -25.5 -9.5t-14.5 -23t-8 -28.5t-5 -26
l-24 -121h69l-12 -61h-69l-59 -310q-6 -34 -14.5 -71t-24.5 -67.5t-42.5 -50.5t-69.5 -20q-17 0 -28.5 2.5t-27.5 8.5z" />
    <glyph glyph-name="Ohorn" unicode="&#x1a0;" horiz-adv-x="416" 
d="M41 171q0 77 7.5 153.5t24.5 151.5q9 38 22.5 74t35 64t53.5 44.5t77 16.5q32 0 47 -4t29 -4q11 0 18.5 5.5t12 13.5t7 18.5t3.5 19.5h64q-5 -31 -21.5 -59.5t-48.5 -41.5q18 -26 24.5 -61t6.5 -73q0 -81 -9.5 -163t-31.5 -160q-10 -35 -24 -67t-35 -56t-50.5 -38
t-70.5 -14q-42 0 -69.5 14.5t-43 39t-22 57.5t-6.5 69zM130 175q0 -15 1.5 -33t7.5 -33t17.5 -25t32.5 -10q20 0 33 7.5t22.5 20t15.5 28t10 31.5q9 32 16.5 75.5t13 90t8.5 91t3 77.5q0 17 -1 34.5t-6.5 31.5t-17.5 23.5t-34 9.5q-30 0 -47.5 -20t-26.5 -46
q-10 -29 -19 -75.5t-15.5 -97t-10 -99t-3.5 -81.5z" />
    <glyph glyph-name="ohorn" unicode="&#x1a1;" horiz-adv-x="336" 
d="M24 144q0 42 6 95.5t24.5 101.5t52.5 80.5t89 32.5q27 0 37.5 -3.5t21.5 -3.5t18.5 5.5t12 13.5t7 18.5t3.5 19.5h64q-5 -31 -21.5 -59.5t-48.5 -41.5q11 -20 16 -45t5 -52q0 -42 -6 -96t-24.5 -102.5t-52.5 -81.5t-90 -33q-34 0 -56.5 12.5t-35 33.5t-17.5 48.5t-5 56.5
zM110 135q0 -10 1.5 -21.5t5.5 -21t12 -16t21 -6.5q14 0 22.5 6.5t16.5 17.5q11 16 18 45t12 61.5t7 63.5t2 50q0 11 -1.5 22t-5.5 21t-12 16t-22 6t-22.5 -6t-15.5 -17q-10 -16 -17.5 -45t-12 -61.5t-7 -63.5t-2.5 -51z" />
    <glyph glyph-name="Uhorn" unicode="&#x1af;" horiz-adv-x="403" 
d="M40 116q0 20 2.5 40t4.5 40l57 471h87l-58 -471q-2 -16 -3.5 -31t-1.5 -31q0 -58 59 -58q24 0 37.5 10t20.5 25.5t10 34.5t5 37l60 484h48q11 0 18.5 5.5t12 13.5t7 18.5t3.5 19.5h64q-5 -32 -22 -61t-51 -41l-53 -439q-5 -43 -15 -78.5t-29.5 -60.5t-51 -39t-80.5 -14
q-63 0 -97 29.5t-34 95.5z" />
    <glyph glyph-name="uhorn" unicode="&#x1b0;" horiz-adv-x="354" 
d="M144 -8q-111 0 -111 110q0 13 1 25t3 25l36 295h81l-33 -268q-2 -16 -3.5 -31t-1.5 -31q0 -25 10.5 -35.5t35.5 -10.5q16 0 25.5 7t15 17.5t8.5 23.5t5 26q2 8 3 17t2 17l32 268h44q11 0 18.5 5.5t12 13.5t7 18.5t3.5 19.5h64q-5 -32 -22 -61t-51 -41l-27 -223
q-5 -40 -12 -74.5t-23 -59.5t-45 -39t-78 -14z" />
    <glyph glyph-name="uni01CF" unicode="&#x1cf;" horiz-adv-x="190" 
d="M151 727l-94 124l49 34l54 -74l77 74l37 -34zM111 0h-88l81 667h89z" />
    <glyph glyph-name="uni01D0" unicode="&#x1d0;" horiz-adv-x="173" 
d="M116 513l-94 124l49 34l54 -74l77 74l37 -34zM99 0h-81l55 447h81z" />
    <glyph glyph-name="uni01DD" unicode="&#x1dd;" horiz-adv-x="331" 
d="M24 143q0 21 1 40t3 37l3 28h188q1 9 2.5 26t1.5 34q0 12 -1.5 25t-6 24.5t-13.5 18.5t-25 7t-26.5 -9t-17.5 -22.5t-11.5 -28.5t-7.5 -27l-75 16q9 29 20 55t27.5 45.5t40.5 30.5t58 11q36 0 59 -12t37 -33t19.5 -48.5t5.5 -58.5q0 -28 -2.5 -62t-9.5 -68.5t-19 -66.5
t-31.5 -57t-47 -40t-64.5 -15q-32 0 -53 13t-33 34.5t-17 48.5t-5 54zM105 134q0 -10 1 -22.5t5 -23t12 -18t21 -7.5q19 0 31.5 14.5t20 34.5t11.5 41t5 35h-104q-1 -12 -2 -27.5t-1 -26.5z" />
    <glyph glyph-name="Gcaron" unicode="&#x1e6;" horiz-adv-x="406" 
d="M177 851l49 34l54 -74l77 74l37 -34l-123 -124zM181 -9q-46 0 -74 17t-43 45t-19.5 64t-4.5 73q0 65 7.5 128.5t20.5 126.5q9 42 21 83.5t33.5 74t55 52.5t85.5 20q69 0 99 -36t40 -100l-87 -35q-1 16 -3.5 32.5t-9 29.5t-18.5 21.5t-33 8.5q-33 0 -48.5 -21.5
t-24.5 -48.5q-11 -32 -20 -78t-15 -94.5t-9.5 -95.5t-3.5 -82q0 -17 1 -35t6.5 -32.5t18 -24t35.5 -9.5q22 0 37 10t24.5 25.5t15 34t8.5 36.5q5 23 8.5 46.5t5.5 47.5h-76l9 76h161q-4 -32 -8 -71.5t-11.5 -79.5t-20.5 -77.5t-34.5 -67t-52.5 -47t-76 -17.5z" />
    <glyph glyph-name="gcaron" unicode="&#x1e7;" horiz-adv-x="344" 
d="M96 637l49 34l54 -74l77 74l37 -34l-123 -124zM112 -188q-54 0 -83.5 27t-29.5 82q0 15 3 32h79q-1 -5 -1.5 -10.5t-0.5 -10.5q0 -22 11.5 -36.5t34.5 -14.5q19 0 30 8t17 21t9 28t4 30l10 87q-14 -27 -34.5 -44.5t-52.5 -17.5q-26 0 -43 12t-26.5 30.5t-13 41.5t-3.5 44
q0 113 30 221q6 21 15 41t22.5 35.5t32 25.5t42.5 10q32 0 47 -17t26 -44l6 54h82l-57 -461q-3 -26 -7.5 -52t-15.5 -50q-18 -39 -54.5 -55.5t-78.5 -16.5zM182 379q-16 0 -28 -14.5t-20.5 -37.5t-13.5 -51t-8 -54.5t-4 -49t-1 -33.5t1 -23.5t5.5 -23.5t13 -18t22.5 -7
q18 0 28 10.5t16 25.5q7 17 12.5 43t9.5 54t6 55t2 46q0 10 -1.5 23.5t-5.5 25.5t-12 20.5t-22 8.5z" />
    <glyph glyph-name="AEacute" unicode="&#x1fc;" horiz-adv-x="503" 
d="M335 884l66 -39l-115 -112l-46 29zM-27 0l221 667h218l8 -76h-143l19 -212h129l8 -76h-129l22 -227h140l8 -76h-228l-10 131h-136l-41 -131h-86zM232 199l-13 151q-4 48 -4 95v95q-5 -37 -14.5 -72.5t-19.5 -70.5q-14 -50 -29 -99t-31 -99h111z" />
    <glyph glyph-name="aeacute" unicode="&#x1fd;" horiz-adv-x="498" 
d="M333 664l66 -39l-115 -112l-46 29zM16 100q0 30 6.5 63t21.5 61t40 46t61 18q20 0 37 -6t29 -23q1 14 2.5 29t1.5 29q0 32 -16 44.5t-46 12.5q-25 0 -45.5 -7t-41.5 -19l10 84q25 11 45 16.5t47 5.5q33 0 58.5 -12t38.5 -45q20 29 43.5 43t58.5 14q33 0 53.5 -13.5
t32 -35.5t16 -48.5t4.5 -53.5q0 -24 -2 -48.5t-6 -48.5h-182q-2 -19 -3 -37t-1 -37q0 -11 1 -23.5t5.5 -23t13 -17.5t23.5 -7q17 0 28 9.5t17.5 23.5t9.5 30t4 29h77q-5 -32 -14.5 -61t-26.5 -51t-42.5 -35t-62.5 -13q-38 0 -62 16t-34 54q-19 -35 -42 -52.5t-65 -17.5
q-51 0 -72 30t-21 77zM390 266q5 28 5 52q0 10 -1 21.5t-5 22t-12 17.5t-21 7q-19 0 -30.5 -13.5t-18.5 -32.5t-10 -39.5t-4 -34.5h97zM99 121q0 -11 1 -22t5 -20t12.5 -14.5t22.5 -5.5q20 0 32 11t19.5 27.5t10 35t2.5 33.5q0 23 -8.5 40t-34.5 17q-19 0 -31 -10.5
t-19 -25.5t-9.5 -33t-2.5 -33z" />
    <glyph glyph-name="uni0218" unicode="&#x218;" horiz-adv-x="325" 
d="M37 112q18 -15 37.5 -25t43.5 -10q23 0 39.5 9.5t28 25t17 35t5.5 39.5q0 29 -10.5 51.5t-27 42.5t-35 40t-35 42.5t-27 49.5t-10.5 63q0 38 11 74t32.5 64t53.5 45t74 17q26 0 45.5 -4t42.5 -18l-12 -88q-14 14 -31 22t-37 8q-21 0 -38 -9t-29 -23.5t-18 -33t-6 -38.5
q0 -26 10.5 -47t26.5 -41.5t35 -41t35 -44.5t26.5 -53t10.5 -66q0 -38 -11.5 -75t-34 -66.5t-55.5 -47.5t-75 -18q-26 0 -49.5 7.5t-43.5 24.5zM107 -48l68 -21l-73 -154l-43 13z" />
    <glyph glyph-name="uni0219" unicode="&#x219;" horiz-adv-x="256" 
d="M23 94q14 -12 29 -19.5t35 -7.5q29 0 46 18t17 47q0 25 -18 43t-39 37t-39 43t-18 60q0 30 10 55.5t28 45t43 30.5t55 11q38 0 70 -19l-10 -77q-13 10 -27.5 16t-31.5 6q-23 0 -41 -16.5t-18 -39.5q0 -24 17.5 -41t38.5 -35.5t38.5 -42.5t17.5 -63q0 -31 -10.5 -59
t-29.5 -48.5t-45.5 -32.5t-58.5 -12q-22 0 -36.5 4.5t-32.5 16.5zM18 -221l54 173l68 -21l-79 -165z" />
    <glyph glyph-name="uni021A" unicode="&#x21a;" horiz-adv-x="284" 
d="M52 667h290l-10 -79h-102l-72 -588h-87l73 588h-102zM29 -210l48 162l68 -21l-73 -154z" />
    <glyph glyph-name="uni021B" unicode="&#x21b;" horiz-adv-x="193" 
d="M75 383h-45l8 64h45l15 127h81l-15 -127h44l-8 -64h-44l-47 -383h-81zM-7 -221l54 173l68 -21l-79 -165z" />
    <glyph glyph-name="uni0228" unicode="&#x228;" horiz-adv-x="316" 
d="M330 591h-146l-26 -212h130l-10 -76h-130l-27 -227h146l-9 -76h-235l81 667h235zM121 -193l-52 26l65 125l73 -33z" />
    <glyph glyph-name="uni0229" unicode="&#x229;" horiz-adv-x="321" 
d="M136 -7q-34 0 -55.5 12.5t-34.5 33t-18 47t-5 55.5q0 27 2.5 60.5t9.5 68t18.5 68t30.5 59t45 41.5t61 16q33 0 54 -14t33.5 -36.5t17 -50t4.5 -54.5q0 -23 -2 -46t-5 -46h-185q-2 -15 -3 -29.5t-1 -29.5q0 -12 0.5 -26.5t4.5 -27t13 -21.5t25 -9t27 9t17.5 22t10.5 28
t5 28h76q-4 -30 -14.5 -58.5t-27.5 -50.5t-42.5 -35.5t-61.5 -13.5zM217 267q1 8 1 16.5v16.5v15q0 10 -1 22t-4.5 22.5t-11 17.5t-21.5 7q-18 0 -29.5 -13.5t-19 -32t-11 -38.5t-6.5 -33h103zM125 -45l54 -29l-89 -117l-35 20z" />
    <glyph glyph-name="uni0237" unicode="&#x237;" horiz-adv-x="174" 
d="M77 -188h-82l79 635h81z" />
    <glyph glyph-name="uni0259" unicode="&#x259;" horiz-adv-x="331" 
d="M24 143q0 21 1 40t3 37l3 28h188q1 9 2.5 26t1.5 34q0 12 -1.5 25t-6 24.5t-13.5 18.5t-25 7t-26.5 -9t-17.5 -22.5t-11.5 -28.5t-7.5 -27l-75 16q9 29 20 55t27.5 45.5t40.5 30.5t58 11q36 0 59 -12t37 -33t19.5 -48.5t5.5 -58.5q0 -28 -2.5 -62t-9.5 -68.5t-19 -66.5
t-31.5 -57t-47 -40t-64.5 -15q-32 0 -53 13t-33 34.5t-17 48.5t-5 54zM105 134q0 -10 1 -22.5t5 -23t12 -18t21 -7.5q19 0 31.5 14.5t20 34.5t11.5 41t5 35h-104q-1 -12 -2 -27.5t-1 -26.5z" />
    <glyph glyph-name="uni02BC" unicode="&#x2bc;" horiz-adv-x="195" 
d="M124 478l-43 17l67 193l68 -21z" />
    <glyph glyph-name="circumflex" unicode="&#x2c6;" 
d="M353 513l-59 74l-72 -74l-41 34l124 124l93 -124z" />
    <glyph glyph-name="caron" unicode="&#x2c7;" 
d="M286 513l-94 124l49 34l54 -74l77 74l37 -34z" />
    <glyph glyph-name="uni02C9" unicode="&#x2c9;" 
d="M401 524h-221l7 62h222z" />
    <glyph glyph-name="breve" unicode="&#x2d8;" 
d="M229 606q6 -21 24.5 -28t38.5 -7q22 0 41.5 7.5t30.5 27.5h54q-11 -48 -49 -70.5t-84 -22.5q-22 0 -42 5.5t-35 16.5t-24 29t-9 42h54z" />
    <glyph glyph-name="dotaccent" unicode="&#x2d9;" 
d="M238 559q0 23 18 41t41 18q20 0 33 -13t13 -33q0 -23 -18 -41t-41 -18q-20 0 -33 13t-13 33z" />
    <glyph glyph-name="ring" unicode="&#x2da;" 
d="M293 515q-36 0 -60.5 24.5t-24.5 60.5t24.5 60.5t60.5 24.5t60.5 -24.5t24.5 -60.5t-24.5 -60.5t-60.5 -24.5zM293 640q-17 0 -28.5 -11.5t-11.5 -28.5t11.5 -28.5t28.5 -11.5t28.5 11.5t11.5 28.5t-11.5 28.5t-28.5 11.5z" />
    <glyph glyph-name="ogonek" unicode="&#x2db;" 
d="M311 -155q-14 0 -27.5 3t-24 10t-17 18t-6.5 27q0 28 14 52t30 45h49q-6 -7 -12.5 -16.5t-12.5 -19.5t-10 -20.5t-4 -19.5q0 -16 9 -21.5t23 -5.5t24.5 2.5t17.5 5.5l-7 -51q-14 -6 -25.5 -7.5t-20.5 -1.5z" />
    <glyph glyph-name="tilde" unicode="&#x2dc;" 
d="M176 517q3 16 8 31.5t14 28t22.5 20.5t32.5 8q13 0 24 -4.5t21 -10.5t19 -10.5t19 -4.5q13 0 14.5 9t6.5 17h48q-2 -16 -6.5 -32t-13.5 -28.5t-22.5 -20t-32.5 -7.5q-11 0 -21 4.5t-19 9.5t-18.5 9.5t-20.5 4.5t-16 -7t-5 -17h-54z" />
    <glyph glyph-name="hungarumlaut" unicode="&#x2dd;" 
d="M338 512l-36 21l77 138l51 -33zM227 512l-37 21l77 138l51 -33z" />
    <glyph glyph-name="acutecomb" unicode="&#x301;" horiz-adv-x="2" 
d="M-88 664l66 -39l-115 -112l-46 29z" />
    <glyph glyph-name="uni0394" unicode="&#x394;" horiz-adv-x="667" 
d="M-2 0l263 667h86l266 -667h-615zM304 569l-191 -496h383z" />
    <glyph glyph-name="uni0394" unicode="&#x2206;" horiz-adv-x="667" 
d="M-2 0l263 667h86l266 -667h-615zM304 569l-191 -496h383z" />
    <glyph glyph-name="uni03A9" unicode="&#x3a9;" horiz-adv-x="667" 
d="M196 72q-85 51 -129.5 121.5t-44.5 170.5q0 65 22.5 123t63 101.5t96.5 69t123 25.5t123 -25.5t96.5 -69t63 -101.5t22.5 -123q0 -100 -44 -170.5t-129 -121.5h173v-72h-262v65q85 48 132 118.5t47 170.5q0 47 -15.5 93t-44 82.5t-69.5 59t-92 22.5q-52 0 -93.5 -22
t-70.5 -58t-44 -82t-15 -95q0 -100 47 -170.5t132 -118.5v-65h-262v72h174z" />
    <glyph glyph-name="uni03A9" unicode="&#x2126;" horiz-adv-x="667" 
d="M196 72q-85 51 -129.5 121.5t-44.5 170.5q0 65 22.5 123t63 101.5t96.5 69t123 25.5t123 -25.5t96.5 -69t63 -101.5t22.5 -123q0 -100 -44 -170.5t-129 -121.5h173v-72h-262v65q85 48 132 118.5t47 170.5q0 47 -15.5 93t-44 82.5t-69.5 59t-92 22.5q-52 0 -93.5 -22
t-70.5 -58t-44 -82t-15 -95q0 -100 47 -170.5t132 -118.5v-65h-262v72h174z" />
    <glyph glyph-name="pi" unicode="&#x3c0;" horiz-adv-x="593" 
d="M30 374v73h536v-73h-74v-374h-82v374h-223v-374h-82v374h-75z" />
    <glyph glyph-name="uni0401" unicode="&#x401;" horiz-adv-x="316" 
d="M294 710q-19 0 -31.5 12.5t-12.5 31.5q0 23 17 39.5t40 16.5q19 0 31 -12.5t12 -31.5q0 -23 -16.5 -39.5t-39.5 -16.5zM113 754q0 23 16.5 39.5t39.5 16.5q19 0 31 -12.5t12 -31.5q0 -23 -16.5 -39.5t-39.5 -16.5q-19 0 -31 12.5t-12 31.5zM23 0l81 667h235l-9 -76h-146
l-26 -212h130l-10 -76h-130l-27 -227h146l-9 -76h-235z" />
    <glyph glyph-name="uni0402" unicode="&#x402;" horiz-adv-x="430" 
d="M46 588l10 79h297l-10 -79h-121l-24 -201q14 8 31.5 13.5t40.5 5.5q39 0 64.5 -15t41.5 -40t22.5 -57t6.5 -65q0 -39 -6 -81.5t-23 -77t-47 -57t-78 -22.5q-32 0 -49 6.5t-24 11.5l28 84q11 -12 21.5 -15.5t18.5 -3.5q22 0 34.5 17.5t19 41.5t8.5 49.5t2 40.5
q0 18 -2.5 35.5t-10 31.5t-21 23t-34.5 9q-20 0 -33.5 -6.5t-21.5 -13.5l-37 -302h-87l71 588h-88z" />
    <glyph glyph-name="uni0403" unicode="&#x403;" horiz-adv-x="305" 
d="M284 884l66 -39l-115 -112l-46 29zM331 591h-147l-73 -591h-88l81 667h237z" />
    <glyph glyph-name="uni0404" unicode="&#x404;" horiz-adv-x="343" 
d="M41 227q0 22 4 77t21 133q10 45 26.5 88t43 76.5t64 54t89.5 20.5q18 0 38.5 -4.5t43.5 -20.5l-10 -87q-18 18 -35 23.5t-31 5.5q-38 0 -63.5 -21t-42 -52.5t-25.5 -67.5t-14 -66h154l-9 -76h-155q-2 -13 -3 -30t-1 -36q0 -27 3 -56t13 -53t30 -40t54 -16q13 0 30 4
t38 21l-11 -88q-24 -16 -45.5 -21t-41.5 -5q-51 0 -83.5 21t-50.5 54.5t-24.5 76t-6.5 85.5z" />
    <glyph glyph-name="uni0405" unicode="&#x405;" horiz-adv-x="325" 
d="M37 112q18 -15 37.5 -25t43.5 -10q23 0 39.5 9.5t28 25t17 35t5.5 39.5q0 29 -10.5 51.5t-27 42.5t-35 40t-35 42.5t-27 49.5t-10.5 63q0 38 11 74t32.5 64t53.5 45t74 17q26 0 45.5 -4t42.5 -18l-12 -88q-14 14 -31 22t-37 8q-21 0 -38 -9t-29 -23.5t-18 -33t-6 -38.5
q0 -26 10.5 -47t26.5 -41.5t35 -41t35 -44.5t26.5 -53t10.5 -66q0 -38 -11.5 -75t-34 -66.5t-55.5 -47.5t-75 -18q-26 0 -49.5 7.5t-43.5 24.5z" />
    <glyph glyph-name="uni0406" unicode="&#x406;" horiz-adv-x="190" 
d="M111 0h-88l81 667h89z" />
    <glyph glyph-name="uni0407" unicode="&#x407;" horiz-adv-x="190" 
d="M202 721q-12 0 -20.5 12.5t-8.5 31.5q0 23 11.5 39.5t26.5 16.5q13 0 21 -12.5t8 -31.5q0 -23 -11 -39.5t-27 -16.5zM79 765q0 23 11 39.5t27 16.5q12 0 20.5 -12.5t8.5 -31.5q0 -23 -11.5 -39.5t-26.5 -16.5q-13 0 -21 12.5t-8 31.5zM23 0l81 667h89l-82 -667h-88z" />
    <glyph glyph-name="uni0408" unicode="&#x408;" horiz-adv-x="255" 
d="M44 -9q-19 0 -37.5 4t-35.5 14l11 90q13 -8 26.5 -15.5t29.5 -7.5q24 0 37.5 10.5t20.5 26.5t9.5 35.5t4.5 37.5l59 481h89l-63 -512q-3 -22 -7 -44t-13 -42q-18 -40 -53.5 -59t-77.5 -19z" />
    <glyph glyph-name="uni0409" unicode="&#x409;" horiz-adv-x="602" 
d="M-19 97q8 -10 17 -12.5t17 -2.5q20 0 35 14q9 8 16 22t13 35t11 51t10 70l48 393h291l-35 -285h6q82 0 124.5 -38t42.5 -121q0 -46 -9 -86.5t-30 -71t-55.5 -48t-85.5 -17.5h-128l73 592l-2 -1h-116l-40 -327q-12 -97 -29 -154.5t-46 -84.5q-20 -19 -42 -25.5t-44 -6.5
q-17 0 -29.5 3t-23.5 8zM370 76q35 0 57 11.5t34.5 31.5t17 47.5t4.5 58.5q0 45 -21 63t-65 18h-2l-29 -230h4z" />
    <glyph glyph-name="uni040A" unicode="&#x40a;" horiz-adv-x="574" 
d="M104 667h89l-35 -285h130l35 285h88l-35 -285h6q82 0 124.5 -38t42.5 -121q0 -46 -9 -86.5t-30 -71t-55.5 -48t-85.5 -17.5h-128l37 306h-129l-38 -306h-88zM338 76h4q35 0 57 11.5t34.5 31.5t17 47.5t4.5 58.5q0 45 -21 63t-65 18h-2z" />
    <glyph glyph-name="uni040B" unicode="&#x40b;" horiz-adv-x="438" 
d="M46 588l10 79h297l-10 -79h-121l-23 -194q17 6 33.5 9t36.5 3q63 0 98.5 -30t35.5 -96q0 -22 -2.5 -40t-4.5 -37l-25 -203h-89l26 212q2 11 3 22.5t1 22.5q0 67 -66 67q-30 0 -57 -12l-39 -312h-87l71 588h-88z" />
    <glyph glyph-name="uni040C" unicode="&#x40c;" horiz-adv-x="366" 
d="M209 762l95 122l66 -39l-115 -112zM23 0l81 667h89l-38 -306l158 306h92l-174 -325l95 -342h-92l-84 327l-39 -327h-88z" />
    <glyph glyph-name="uni040E" unicode="&#x40e;" horiz-adv-x="355" 
d="M182 827q12 -51 63 -51q52 0 61 51l82 -26q-17 -50 -54 -72.5t-88 -22.5t-90 21.5t-53 73.5zM144 667l34 -168q4 -18 7.5 -34.5t6.5 -34t6.5 -38.5t6.5 -49q13 47 23.5 81t23.5 72l58 171h90l-238 -667h-88l79 224l-103 443h94z" />
    <glyph glyph-name="uni040F" unicode="&#x40f;" horiz-adv-x="408" 
d="M105 667h89l-73 -591h128l73 591h89l-82 -667h-110l-16 -130h-86l16 130h-110z" />
    <glyph glyph-name="uni0410" unicode="&#x410;" horiz-adv-x="355" 
d="M-27 0l225 667h69l59 -667h-88l-8 130h-131l-40 -130h-86zM225 199q-4 66 -7 132t-3 132v37t1 37q-2 -6 -3 -11.5t-3 -11.5l-11 -47q-17 -68 -37 -134.5t-42 -133.5h105z" />
    <glyph glyph-name="uni0411" unicode="&#x411;" horiz-adv-x="354" 
d="M105 667h243l-9 -76h-155l-26 -210h5q80 0 120.5 -37.5t40.5 -118.5q0 -46 -9.5 -86.5t-30.5 -71.5t-55.5 -49t-85.5 -18h-120zM123 76q35 0 56 11.5t33 31t16 46.5t4 57q0 42 -19 62.5t-62 20.5h-3l-28 -229h3z" />
    <glyph glyph-name="uni0412" unicode="&#x412;" horiz-adv-x="358" 
d="M104 667h120q64 0 93 -33.5t29 -95.5q0 -19 -1.5 -40.5t-6 -42.5t-12.5 -40.5t-20 -34.5q-14 -17 -29 -25.5t-35 -15.5q23 -10 37.5 -20.5t23 -24.5t12 -32t3.5 -42q0 -20 -3 -42.5t-9.5 -45t-16 -43t-22.5 -36.5q-25 -31 -58 -42t-71 -11h-115zM158 373q19 0 35.5 4.5
t30.5 18.5q10 10 16.5 25t10.5 32.5t6 34.5t2 30q0 32 -15 54t-50 22h-15l-27 -221h6zM115 77q24 0 44.5 4t37.5 24q9 11 14.5 25.5t9 30t5 31.5t1.5 29q0 46 -19.5 63.5t-64.5 17.5z" />
    <glyph glyph-name="uni0413" unicode="&#x413;" horiz-adv-x="305" 
d="M331 591h-147l-73 -591h-88l81 667h237z" />
    <glyph glyph-name="uni0414" unicode="&#x414;" horiz-adv-x="455" 
d="M-14 76q23 11 39 24t25 25q26 35 37 81.5t18 105.5l44 355h286l-73 -591h53l-26 -206h-82l17 130h-265l-17 -130h-82zM274 76l64 515h-114l-31 -249q-4 -33 -7 -59t-7 -47.5t-8.5 -40t-12.5 -37.5q-11 -26 -24.5 -45.5t-30.5 -36.5h171z" />
    <glyph glyph-name="uni0415" unicode="&#x415;" horiz-adv-x="316" 
d="M330 591h-146l-26 -212h130l-10 -76h-130l-27 -227h146l-9 -76h-235l81 667h235z" />
    <glyph glyph-name="uni0416" unicode="&#x416;" horiz-adv-x="518" 
d="M148 347l-85 320h87l78 -308l38 308h88l-38 -308l154 308h87l-164 -323l88 -344h-93l-76 329l-40 -329h-88l40 329l-156 -329h-93z" />
    <glyph glyph-name="uni0417" unicode="&#x417;" horiz-adv-x="343" 
d="M28 120q25 -29 50 -36t37 -7q30 0 51 11.5t34 30t19 43.5t6 52q0 95 -97 95h-25l9 76h18q55 0 84 27.5t29 83.5q0 40 -20.5 68t-63.5 28q-27 0 -47 -11.5t-33 -25.5l11 91q15 11 37.5 20t54.5 9q38 0 66.5 -12.5t47.5 -34.5t28 -53t9 -67q0 -58 -22 -98t-78 -59
q24 -4 40.5 -16.5t26.5 -30.5t14.5 -39.5t4.5 -43.5q0 -46 -12 -87.5t-36.5 -73t-61.5 -50.5t-86 -19q-23 0 -51 7t-56 31z" />
    <glyph glyph-name="uni0418" unicode="&#x418;" horiz-adv-x="410" 
d="M105 667h88l-34 -271q-3 -26 -12.5 -81t-32.5 -142q16 39 26.5 65t19 46t16.5 38t19 42l138 303h80l-82 -667h-88l36 295q4 28 13 79t30 126q-21 -55 -31 -82t-15.5 -41t-10 -23.5t-14.5 -30.5l-148 -323h-80z" />
    <glyph glyph-name="uni0419" unicode="&#x419;" horiz-adv-x="410" 
d="M206 827q12 -51 63 -51q52 0 61 51l82 -26q-17 -50 -54 -72.5t-88 -22.5t-90 21.5t-53 73.5zM23 0l82 667h88l-34 -271q-3 -26 -12.5 -81t-32.5 -142q16 39 26.5 65t19 46t16.5 38t19 42l138 303h80l-82 -667h-88l36 295q4 28 13 79t30 126q-21 -55 -31 -82t-15.5 -41
t-10 -23.5t-14.5 -30.5l-148 -323h-80z" />
    <glyph glyph-name="uni041A" unicode="&#x41a;" horiz-adv-x="366" 
d="M104 667h89l-38 -306l158 306h92l-174 -325l95 -342h-92l-84 327l-39 -327h-88z" />
    <glyph glyph-name="uni041B" unicode="&#x41b;" horiz-adv-x="436" 
d="M-19 97q8 -10 17 -12.5t17 -2.5q20 0 35 14q9 8 16 22t13 35t11 51t10 70l48 393h291l-82 -667h-90l73 591h-116l-40 -327q-12 -97 -29 -154.5t-46 -84.5q-20 -19 -42 -25.5t-44 -6.5q-17 0 -29.5 3t-23.5 8z" />
    <glyph glyph-name="uni041C" unicode="&#x41c;" horiz-adv-x="497" 
d="M136 667h75q11 -121 22.5 -241t11.5 -241q5 27 13.5 56.5t17.5 55.5l10 37l9 30l8 23l2 6l2 6l84 268h77l-22 -667h-85q4 69 7 138.5t10 138.5q1 6 1 11.5t1 10.5l4 45q4 24 7 54t3 53v8q-4 -22 -11 -42.5t-13 -41.5l-18 -61q-23 -79 -48 -157t-50 -157h-60
q-10 115 -19.5 229.5t-9.5 229.5l-82 -459h-83z" />
    <glyph glyph-name="uni041D" unicode="&#x41d;" horiz-adv-x="408" 
d="M104 667h89l-32 -261h129l32 261h89l-82 -667h-88l40 330h-129l-41 -330h-88z" />
    <glyph glyph-name="uni041E" unicode="&#x41e;" horiz-adv-x="416" 
d="M41 171q0 77 7.5 153.5t24.5 151.5q9 38 22.5 74t35 64t53.5 44.5t77 16.5q43 0 70.5 -15.5t43.5 -41t22 -59t6 -70.5q0 -81 -9.5 -163t-31.5 -160q-10 -35 -24 -67t-35 -56t-50.5 -38t-70.5 -14q-42 0 -69.5 14.5t-43 39t-22 57.5t-6.5 69zM130 175q0 -15 1.5 -33
t7.5 -33t17.5 -25t32.5 -10q20 0 33 7.5t22.5 20t15.5 28t10 31.5q9 32 16.5 75.5t13 90t8.5 91t3 77.5q0 17 -1 34.5t-6.5 31.5t-17.5 23.5t-34 9.5q-30 0 -47.5 -20t-26.5 -46q-10 -29 -19 -75.5t-15.5 -97t-10 -99t-3.5 -81.5z" />
    <glyph glyph-name="uni041F" unicode="&#x41f;" horiz-adv-x="402" 
d="M104 667h301l-82 -667h-88l72 591h-123l-73 -591h-88z" />
    <glyph glyph-name="uni0420" unicode="&#x420;" horiz-adv-x="345" 
d="M23 0l81 667h117q76 0 108.5 -32.5t32.5 -108.5q0 -25 -4 -54t-13.5 -56t-24.5 -51t-37 -39q-30 -21 -65.5 -25.5t-70.5 -4.5l-36 -296h-88zM165 373q31 0 51 11t31.5 29t16 42t4.5 51q0 39 -14.5 62t-57.5 23h-12l-27 -218h8z" />
    <glyph glyph-name="uni0421" unicode="&#x421;" horiz-adv-x="332" 
d="M42 216q0 35 3.5 75t10.5 80.5t16.5 79t22.5 71.5q12 32 30.5 60t42.5 48.5t54 32.5t66 12q22 0 37.5 -3.5t34.5 -15.5l-9 -81q-13 8 -26.5 12.5t-28.5 4.5q-35 0 -60 -20t-43 -51.5t-29 -71t-17 -79t-8 -75t-2 -59.5q0 -26 3.5 -53.5t14 -50.5t30.5 -38t53 -15
q28 0 53 13l-10 -82q-19 -11 -35 -15t-38 -4q-50 0 -82 19.5t-51 51t-26 72t-7 82.5z" />
    <glyph glyph-name="uni0422" unicode="&#x422;" horiz-adv-x="284" 
d="M52 667h290l-10 -79h-102l-72 -588h-87l73 588h-102z" />
    <glyph glyph-name="uni0423" unicode="&#x423;" horiz-adv-x="355" 
d="M144 667l34 -168q4 -18 7.5 -34.5t6.5 -34t6.5 -38.5t6.5 -49q13 47 23.5 81t23.5 72l58 171h90l-238 -667h-88l79 224l-103 443h94z" />
    <glyph glyph-name="uni0424" unicode="&#x424;" horiz-adv-x="508" 
d="M191 86q-42 7 -71.5 26t-48 47t-27.5 63.5t-9 75.5q0 53 11.5 107.5t37.5 100t68 75.5t103 33l9 80h90l-9 -80q42 -6 71.5 -25.5t48.5 -49t27.5 -66t8.5 -75.5q0 -56 -10 -110.5t-35.5 -98.5t-67.5 -72t-107 -31l-11 -86h-90zM284 162q41 5 66 31t38.5 62.5t18 76.5
t4.5 73q0 22 -3.5 43.5t-13 40t-25 32t-39.5 17.5zM252 538q-40 -7 -65 -33t-38.5 -61t-18.5 -74.5t-5 -73.5q0 -22 4 -43.5t13 -39.5t24.5 -31.5t39.5 -19.5z" />
    <glyph glyph-name="uni0425" unicode="&#x425;" horiz-adv-x="327" 
d="M-30 0l166 339l-76 328h86q14 -60 29 -119.5t19 -121.5q7 21 14.5 42.5t17.5 41.5l9 19l59 138h89l-162 -328l80 -339h-89q-14 62 -28.5 123.5t-17.5 125.5q-7 -27 -17.5 -52t-21.5 -51q-15 -37 -31 -73t-32 -73h-94z" />
    <glyph glyph-name="uni0426" unicode="&#x426;" horiz-adv-x="415" 
d="M105 667h90l-73 -591h124l73 591h90l-73 -591h59l-25 -206h-86l16 130h-277z" />
    <glyph glyph-name="uni0427" unicode="&#x427;" horiz-adv-x="387" 
d="M60 428q0 15 2 38.5t4 35.5l20 165h88l-21 -171q-3 -24 -3.5 -34t-0.5 -12q0 -33 19.5 -45t49.5 -12q15 0 27.5 2.5t23.5 7.5l33 264h88l-82 -667h-88l39 320q-16 -5 -33.5 -7t-31.5 -2q-57 0 -95.5 28t-38.5 89z" />
    <glyph glyph-name="uni0428" unicode="&#x428;" horiz-adv-x="604" 
d="M105 667h88l-73 -591h119l73 591h88l-73 -591h119l73 591h88l-82 -667h-502z" />
    <glyph glyph-name="uni0429" unicode="&#x429;" horiz-adv-x="615" 
d="M105 667h88l-73 -591h120l73 591h88l-73 -591h120l73 591h88l-73 -591h67l-25 -206h-86l16 130h-485z" />
    <glyph glyph-name="uni042A" unicode="&#x42a;" horiz-adv-x="403" 
d="M55 591l9 76h176l-35 -285h6q82 0 124.5 -38t42.5 -121q0 -46 -9 -86.5t-30 -71t-55.5 -48t-85.5 -17.5h-128l72 591h-87zM171 76q35 0 57 11.5t34.5 31.5t17 47.5t4.5 58.5q0 45 -21 63t-65 18h-2l-29 -230h4z" />
    <glyph glyph-name="uni042B" unicode="&#x42b;" horiz-adv-x="514" 
d="M23 0l82 667h88l-35 -285h6q82 0 124.5 -38t42.5 -121q0 -46 -9 -86.5t-30 -71t-55.5 -48t-85.5 -17.5h-128zM429 667h88l-82 -667h-87zM120 76h4q35 0 57 11.5t34.5 31.5t17 47.5t4.5 58.5q0 45 -21 63t-65 18h-2z" />
    <glyph glyph-name="uni042C" unicode="&#x42c;" horiz-adv-x="356" 
d="M23 0l82 667h88l-35 -285h6q82 0 124.5 -38t42.5 -121q0 -46 -9 -86.5t-30 -71t-55.5 -48t-85.5 -17.5h-128zM120 76h4q35 0 57 11.5t34.5 31.5t17 47.5t4.5 58.5q0 45 -21 63t-65 18h-2z" />
    <glyph glyph-name="uni042D" unicode="&#x42d;" horiz-adv-x="374" 
d="M31 120q16 -19 35.5 -30t44.5 -11q40 0 66 24.5t41.5 60.5t22.5 76t10 70h-153l9 76h152q3 29 3 55q0 25 -3.5 51.5t-14 48.5t-29 36.5t-49.5 14.5q-23 0 -42 -9.5t-34 -26.5l12 95q21 14 42.5 19.5t41.5 5.5q52 0 85.5 -20.5t53 -54t27 -76t7.5 -86.5q0 -54 -6 -109.5
t-16 -98.5q-10 -45 -25.5 -88t-41 -77t-62.5 -54.5t-90 -20.5q-25 0 -49.5 7t-48.5 28z" />
    <glyph glyph-name="uni042E" unicode="&#x42e;" horiz-adv-x="586" 
d="M23 0l81 667h89l-34 -266h71q7 44 18.5 92.5t33.5 89t58 66.5t91 26q44 0 71.5 -15t43 -40.5t21.5 -60t6 -72.5q0 -54 -5 -116t-17 -125q-9 -45 -21 -90.5t-34.5 -82t-57.5 -59.5t-90 -23q-42 0 -68.5 15.5t-41 42t-20 60t-5.5 69.5q0 19 1 41.5t2.5 43.5t2.5 38t2 24
h-70l-40 -325h-88zM374 573q-13 -14 -24 -44t-19 -67.5t-14 -80t-9.5 -82t-5.5 -72.5t-2 -52q0 -16 1.5 -33.5t7.5 -32.5t17.5 -25t32.5 -10q27 0 48 19q14 13 24.5 43t19 69t14 83.5t9.5 86.5t5.5 76.5t1.5 53.5q0 17 -1.5 32.5t-7.5 28.5t-18 20.5t-32 7.5q-28 0 -48 -21z
" />
    <glyph glyph-name="uni042F" unicode="&#x42f;" horiz-adv-x="374" 
d="M10 0l148 308q-51 16 -71 54.5t-20 88.5q0 60 19.5 109.5t50.5 74.5q29 23 60.5 27.5t65.5 4.5h114l-82 -667h-88l38 304l-136 -304h-99zM261 593q-30 0 -49.5 -11t-31.5 -30t-16.5 -43t-4.5 -51q0 -89 88 -89h5l28 224h-19z" />
    <glyph glyph-name="uni0430" unicode="&#x430;" horiz-adv-x="343" 
d="M23 123q0 23 1.5 56t6.5 70t14.5 73.5t25 65.5t38 47.5t54.5 18.5q30 0 46.5 -16t27.5 -42l6 51h81l-55 -447h-81l7 57q-16 -28 -35 -46t-54 -18q-27 0 -43 12.5t-25 31.5t-12 42t-3 44zM106 139q0 -10 1 -23t5 -23.5t12.5 -18t22.5 -7.5t23.5 8t16 19.5t10.5 24.5t7 24
q20 83 20 166q0 10 -1 22t-5 22.5t-11.5 18t-20.5 7.5q-16 0 -26.5 -8.5t-17.5 -21.5t-11 -28t-7 -27q-8 -38 -13 -77t-5 -78z" />
    <glyph glyph-name="uni0431" unicode="&#x431;" horiz-adv-x="348" 
d="M148 -7q-38 0 -61 15.5t-36 40.5t-17 56t-4 62q0 29 3 65t7.5 73t10.5 71t12 60q8 35 19 64.5t28 53.5t41 43t58 34q31 14 48.5 21.5t28.5 18.5q12 13 13 29h75q-4 -52 -29.5 -80.5t-70.5 -48.5l-40 -18q-23 -11 -42.5 -24.5t-35.5 -40.5q-11 -18 -20 -46t-13 -54
q12 30 36 48t57 18q32 0 52 -14t31 -36.5t14.5 -50t3.5 -53.5q0 -41 -6 -94t-24 -100.5t-51.5 -80t-87.5 -32.5zM165 368q-14 -12 -23.5 -42.5t-15 -66.5t-8 -70t-2.5 -52q0 -10 1.5 -22t5.5 -22t12 -16.5t21 -6.5q18 0 30.5 14.5t21 37.5t14 51t8 55t3.5 49.5t1 34.5
q0 11 -1 22.5t-5.5 21.5t-12 16.5t-21.5 6.5q-17 0 -29 -11z" />
    <glyph glyph-name="uni0432" unicode="&#x432;" horiz-adv-x="318" 
d="M73 447h104q55 0 88 -23.5t33 -82.5q0 -47 -18.5 -71.5t-60.5 -38.5q35 -8 51 -32.5t16 -58.5q0 -68 -37.5 -104t-104.5 -36h-126zM148 260q35 0 52.5 16.5t17.5 52.5q0 32 -16.5 42t-45.5 10h-9l-15 -121h16zM108 66h13q40 0 58.5 18t18.5 59q0 35 -17.5 47t-49.5 12h-6
z" />
    <glyph glyph-name="uni0433" unicode="&#x433;" horiz-adv-x="260" 
d="M146 373l-46 -373h-82l55 447h202l-9 -74h-120z" />
    <glyph glyph-name="uni0434" unicode="&#x434;" horiz-adv-x="352" 
d="M-40 -104l23 178q23 7 37.5 20.5t23.5 31t13 38.5t7 42l29 241h240l-46 -373h39l-22 -178h-74l13 104h-195l-14 -104h-74zM125 132q-5 -17 -13.5 -30.5t-22.5 -27.5h116l37 299h-82l-20 -158q-3 -22 -5.5 -42.5t-9.5 -40.5z" />
    <glyph glyph-name="uni0435" unicode="&#x435;" horiz-adv-x="321" 
d="M23 141q0 27 2.5 60.5t9.5 68t18.5 68t30.5 59t45 41.5t61 16q33 0 54 -14t33.5 -36.5t17 -50t4.5 -54.5q0 -23 -2 -46t-5 -46h-185q-2 -15 -3 -29.5t-1 -29.5q0 -12 0.5 -26.5t4.5 -27t13 -21.5t25 -9t27 9t17.5 22t10.5 28t5 28h76q-4 -30 -14.5 -58.5t-27.5 -50.5
t-42.5 -35.5t-61.5 -13.5q-34 0 -55.5 12.5t-34.5 33t-18 47t-5 55.5zM180 384q-18 0 -29.5 -13.5t-19 -32t-11 -38.5t-6.5 -33h103q1 8 1 16.5v16.5v15q0 10 -1 22t-4.5 22.5t-11 17.5t-21.5 7z" />
    <glyph glyph-name="uni0436" unicode="&#x436;" horiz-adv-x="468" 
d="M116 234l-79 212h86l68 -204l25 205h80l-25 -205l112 205h93l-134 -222l76 -225h-86l-66 204l-25 -204h-80l25 204l-114 -204h-92z" />
    <glyph glyph-name="uni0437" unicode="&#x437;" horiz-adv-x="288" 
d="M21 109q22 -26 43 -33t38 -7q31 0 51 17t20 49q0 35 -22 46.5t-51 11.5h-19l9 70h15q16 0 30 3t25 10t17.5 19t6.5 30q0 28 -19.5 40.5t-44.5 12.5q-20 0 -39.5 -9t-33.5 -25l11 86q14 10 33.5 17t48.5 7q55 0 91.5 -28t36.5 -86q0 -39 -18.5 -69t-58.5 -40
q34 -8 51 -34.5t17 -60.5t-11.5 -60.5t-32 -45t-48.5 -28t-60 -9.5q-22 0 -46.5 5.5t-50.5 26.5z" />
    <glyph glyph-name="uni0438" unicode="&#x438;" horiz-adv-x="368" 
d="M73 447h82l-27 -219q-2 -18 -6 -40.5t-7 -40.5q8 20 17 40t21 42l116 218h80l-55 -447h-82l27 218q2 16 5.5 38.5t7.5 40.5q-9 -27 -18 -46t-19 -36l-117 -215h-80z" />
    <glyph glyph-name="uni0439" unicode="&#x439;" horiz-adv-x="368" 
d="M160 617q11 -46 56 -46q23 0 36.5 13t20.5 33l71 -24q-15 -48 -47.5 -68t-80.5 -20q-47 0 -81.5 20t-46.5 68zM18 0l55 447h82l-27 -219q-2 -18 -6 -40.5t-7 -40.5q8 20 17 40t21 42l116 218h80l-55 -447h-82l27 218q2 16 5.5 38.5t7.5 40.5q-9 -27 -18 -46t-19 -36
l-117 -215h-80z" />
    <glyph glyph-name="uni043A" unicode="&#x43a;" horiz-adv-x="346" 
d="M73 447h82l-25 -203l130 203h94l-148 -222l95 -225h-92l-83 205l-26 -205h-82z" />
    <glyph glyph-name="uni043B" unicode="&#x43b;" horiz-adv-x="361" 
d="M-20 82q9 -8 23 -8q7 0 14.5 2t15.5 10q3 3 7 9.5t8 18.5t8 31.5t7 47.5l31 254h248l-55 -447h-82l46 373h-90l-23 -185q-4 -30 -10.5 -64.5t-20 -63t-37.5 -47.5t-62 -19q-11 0 -20 2t-18 7z" />
    <glyph glyph-name="uni043C" unicode="&#x43c;" horiz-adv-x="434" 
d="M-4 0l102 446h78l17 -182q1 -12 2 -19.5t2.5 -20.5t3.5 -35.5t5 -63.5q13 46 24 78t21 59l65 184h78l-8 -446h-78l8 161q1 15 2.5 35.5t3.5 41.5t4 41.5t3 35.5q-6 -26 -12 -47t-12 -39.5t-12.5 -35.5t-13.5 -36l-59 -157h-56l-21 157q-5 37 -8 75t-4 83
q-7 -48 -12.5 -82t-13.5 -72l-31 -161h-78z" />
    <glyph glyph-name="uni043D" unicode="&#x43d;" horiz-adv-x="354" 
d="M73 447h82l-21 -171h98l21 171h82l-55 -447h-82l25 202h-98l-25 -202h-82z" />
    <glyph glyph-name="uni043E" unicode="&#x43e;" horiz-adv-x="336" 
d="M24 144q0 42 6 95.5t24.5 101.5t52.5 80.5t89 32.5q33 0 55.5 -12.5t35.5 -33t18.5 -47t5.5 -55.5q0 -42 -6 -96t-24.5 -102.5t-52.5 -81.5t-90 -33q-34 0 -56.5 12.5t-35 33.5t-17.5 48.5t-5 56.5zM110 135q0 -10 1.5 -21.5t5.5 -21t12 -16t21 -6.5q14 0 22.5 6.5
t16.5 17.5q11 16 18 45t12 61.5t7 63.5t2 50q0 11 -1.5 22t-5.5 21t-12 16t-22 6t-22.5 -6t-15.5 -17q-10 -16 -17.5 -45t-12 -61.5t-7 -63.5t-2.5 -51z" />
    <glyph glyph-name="uni043F" unicode="&#x43f;" horiz-adv-x="350" 
d="M73 447h258l-55 -447h-82l46 373h-94l-46 -373h-82z" />
    <glyph glyph-name="uni0440" unicode="&#x440;" horiz-adv-x="344" 
d="M-5 -188l79 635h81l-7 -58q16 27 35 46t54 19q27 0 43.5 -12.5t25 -32t11.5 -42.5t3 -44q0 -23 -1.5 -56t-6.5 -70t-14.5 -73.5t-25 -65.5t-38.5 -47t-55 -18q-31 0 -46.5 15t-25.5 42l-30 -238h-82zM139 304q-20 -83 -20 -166q0 -10 1 -22t5 -23t12 -18.5t21 -7.5
q15 0 25.5 9t17.5 21.5t11 27.5t7 27q8 38 13 77t5 78q0 11 -1 23.5t-5 23t-12.5 18t-22.5 7.5t-23.5 -7.5t-16 -19t-10.5 -24.5t-7 -24z" />
    <glyph glyph-name="uni0441" unicode="&#x441;" horiz-adv-x="249" 
d="M23 140q0 49 8 102t24 99q17 48 48.5 80.5t86.5 32.5q19 0 32 -3.5t30 -12.5l-11 -84q-11 21 -38 21q-30 0 -47.5 -25t-26.5 -59t-12 -69.5t-3 -56.5q0 -14 1 -30.5t6 -30.5t15.5 -23.5t29.5 -9.5q12 0 22.5 4.5t20.5 12.5l-10 -77q-18 -10 -32.5 -14t-35.5 -4
q-32 0 -53 13t-33 33.5t-17 47t-5 53.5z" />
    <glyph glyph-name="uni0442" unicode="&#x442;" horiz-adv-x="268" 
d="M37 447h246l-9 -74h-82l-46 -373h-82l46 373h-82z" />
    <glyph glyph-name="uni0443" unicode="&#x443;" horiz-adv-x="322" 
d="M2 -188l96 224l-67 411h92l26 -312l114 312h83l-259 -635h-85z" />
    <glyph glyph-name="uni0444" unicode="&#x444;" horiz-adv-x="460" 
d="M161 -4q-36 5 -62 21.5t-42.5 41.5t-24.5 56t-8 65q0 46 10 94t32.5 87t59 64t90.5 26l28 216h82l-28 -216q37 -6 63 -22t42.5 -40.5t24 -56t7.5 -66.5q0 -46 -9.5 -94t-32 -87t-59 -64t-91.5 -25l-24 -184h-82zM246 70q36 1 57.5 21.5t33 50.5t15 63.5t3.5 61.5
q0 19 -3.5 37.5t-11.5 33.5t-22 25.5t-35 13.5zM213 377q-32 -2 -53 -23t-33.5 -50t-17.5 -61.5t-5 -58.5q0 -19 3 -38t11 -34.5t22 -27t36 -14.5z" />
    <glyph glyph-name="uni0445" unicode="&#x445;" horiz-adv-x="327" 
d="M-25 0l139 236l-84 211h96q12 -38 24.5 -75.5t18.5 -77.5q15 41 35 78t40 75h86l-125 -211l91 -236h-97q-6 18 -14.5 42t-16 48.5t-13.5 48.5t-6 42q-14 -49 -39.5 -92.5t-49.5 -88.5h-85z" />
    <glyph glyph-name="uni0446" unicode="&#x446;" horiz-adv-x="354" 
d="M73 447h82l-46 -373h96l46 373h82l-46 -373h48l-23 -178h-76l14 104h-232z" />
    <glyph glyph-name="uni0447" unicode="&#x447;" horiz-adv-x="338" 
d="M40 278q0 10 1 25t3 24l15 120h80l-14 -111q-2 -17 -2.5 -24t-0.5 -9q0 -25 13 -35t36 -10q14 0 24.5 2.5t19.5 7.5l22 179h82l-55 -447h-82l24 195q-28 -11 -59 -11q-46 0 -76.5 23t-30.5 71z" />
    <glyph glyph-name="uni0448" unicode="&#x448;" horiz-adv-x="526" 
d="M73 447h82l-46 -373h94l46 373h82l-46 -373h94l46 373h82l-55 -447h-434z" />
    <glyph glyph-name="uni0449" unicode="&#x449;" horiz-adv-x="528" 
d="M73 447h82l-46 -373h94l46 373h82l-46 -373h94l46 373h82l-46 -373h48l-22 -178h-76l13 104h-406z" />
    <glyph glyph-name="uni044A" unicode="&#x44a;" horiz-adv-x="342" 
d="M28 373l9 74h150l-21 -171h10q32 0 58.5 -6.5t46 -21.5t30.5 -38.5t11 -57.5q0 -31 -10.5 -63t-30.5 -52q-13 -13 -29.5 -20.5t-32.5 -11.5t-30 -4.5t-24 -0.5h-115l46 373h-68zM153 70q40 0 61.5 15.5t21.5 59.5q0 36 -20 48.5t-52 12.5h-7l-16 -136h12z" />
    <glyph glyph-name="uni044B" unicode="&#x44b;" horiz-adv-x="458" 
d="M18 0l55 447h82l-21 -171h8q31 0 58 -6.5t46.5 -21t30.5 -38t11 -57.5q0 -78 -41 -115.5t-116 -37.5h-113zM357 447h82l-55 -447h-82zM121 70q40 0 61.5 15.5t21.5 59.5q0 36 -20 48.5t-52 12.5h-7l-16 -136h12z" />
    <glyph glyph-name="uni044C" unicode="&#x44c;" horiz-adv-x="310" 
d="M18 0l55 447h82l-21 -171h10q32 0 58.5 -6.5t46 -21.5t30.5 -38.5t11 -57.5q0 -31 -10.5 -63t-30.5 -52q-13 -13 -29.5 -20.5t-32.5 -11.5t-30 -4.5t-24 -0.5h-115zM109 70h12q39 0 61 15.5t22 58.5q0 37 -19.5 49.5t-52.5 12.5h-7z" />
    <glyph glyph-name="uni044D" unicode="&#x44d;" horiz-adv-x="287" 
d="M21 107q10 -16 23.5 -26t33.5 -10q23 0 38.5 12t25 30t14.5 39t7 40h-98l9 74h96q0 17 -1.5 36.5t-8 35.5t-19 26.5t-35.5 10.5q-18 0 -32.5 -9t-25.5 -23l10 88q20 15 38.5 19t32.5 4q38 0 63.5 -15.5t41 -41t22 -57t6.5 -64.5q0 -40 -7 -89.5t-26 -92.5t-52 -72
t-85 -29q-18 0 -40 5.5t-42 24.5z" />
    <glyph glyph-name="uni044E" unicode="&#x44e;" horiz-adv-x="485" 
d="M18 0l55 447h82l-22 -177h53q6 33 17 65.5t29.5 59t45.5 43t66 16.5q35 0 57 -12.5t35.5 -34t18.5 -49t5 -57.5q0 -43 -6 -96.5t-25 -100.5t-53.5 -79t-90.5 -32q-35 0 -56.5 15t-33.5 38.5t-16 53t-4 58.5v18t1 19h-52l-24 -195h-82zM259 137q0 -10 1.5 -22t5.5 -22
t12 -16.5t21 -6.5q18 0 30.5 14.5t21 37.5t14 51t8 55t3.5 49.5t1 34.5q0 11 -1 23t-5.5 21.5t-12.5 16t-22 6.5q-16 0 -28 -11q-14 -12 -23.5 -43t-15 -66.5t-8 -69.5t-2.5 -52z" />
    <glyph glyph-name="uni044F" unicode="&#x44f;" horiz-adv-x="331" 
d="M6 0l104 184q-35 9 -51.5 37t-16.5 63q0 32 11.5 67t34.5 58q27 26 58 32t57 6h109l-55 -447h-82l22 183l-96 -183h-95zM203 375q-38 0 -57 -21.5t-19 -59.5q0 -32 16 -45t46 -13h15l17 139h-18z" />
    <glyph glyph-name="uni0451" unicode="&#x451;" horiz-adv-x="321" 
d="M265 513q-19 0 -31.5 12.5t-12.5 31.5q0 23 17 39.5t40 16.5q19 0 31 -12.5t12 -31.5q0 -23 -16.5 -39.5t-39.5 -16.5zM82 557q0 23 16.5 39.5t39.5 16.5q19 0 31 -12.5t12 -31.5q0 -23 -16.5 -39.5t-39.5 -16.5q-19 0 -31 12.5t-12 31.5zM23 141q0 27 2.5 60.5t9.5 68
t18.5 68t30.5 59t45 41.5t61 16q33 0 54 -14t33.5 -36.5t17 -50t4.5 -54.5q0 -23 -2 -46t-5 -46h-185q-2 -15 -3 -29.5t-1 -29.5q0 -12 0.5 -26.5t4.5 -27t13 -21.5t25 -9t27 9t17.5 22t10.5 28t5 28h76q-4 -30 -14.5 -58.5t-27.5 -50.5t-42.5 -35.5t-61.5 -13.5
q-34 0 -55.5 12.5t-34.5 33t-18 47t-5 55.5zM180 384q-18 0 -29.5 -13.5t-19 -32t-11 -38.5t-6.5 -33h103q1 8 1 16.5v16.5v15q0 10 -1 22t-4.5 22.5t-11 17.5t-21.5 7z" />
    <glyph glyph-name="uni0452" unicode="&#x452;" horiz-adv-x="359" 
d="M24 0l65 521h-50l8 64h50l17 144h81l-18 -144h106l-8 -64h-106l-18 -150q16 26 39.5 42.5t55.5 16.5q42 0 61 -23t19 -63q0 -11 -1 -20.5t-2 -17.5l-42 -332q-4 -31 -11 -60.5t-21.5 -52t-38 -36t-60.5 -13.5q-27 0 -51 10l10 77q13 -10 32 -10q18 0 28.5 7.5t16.5 19
t8.5 26t4.5 29.5l38 304q1 7 2 17.5t1 15.5q0 21 -9 35.5t-32 14.5q-18 0 -29.5 -9t-17.5 -23t-9 -30.5t-5 -30.5l-33 -265h-81z" />
    <glyph glyph-name="uni0453" unicode="&#x453;" horiz-adv-x="260" 
d="M234 664l66 -39l-115 -112l-46 29zM146 373l-46 -373h-82l55 447h202l-9 -74h-120z" />
    <glyph glyph-name="uni0454" unicode="&#x454;" horiz-adv-x="276" 
d="M23 168q0 33 4.5 69.5t12.5 65.5q8 32 21 60t32 48t45.5 31.5t62.5 11.5q17 0 36.5 -4.5t41.5 -19.5l-10 -87q-13 22 -30 27t-28 5q-21 0 -36 -10.5t-25.5 -26.5t-16.5 -35t-8 -37h108l-9 -74h-109q-2 -27 0.5 -56t17.5 -47q10 -11 20 -14.5t21 -3.5q9 0 28 4t39 27
l-11 -87q-23 -14 -44 -18t-39 -4q-38 0 -62.5 15t-38 40t-18.5 56t-5 64z" />
    <glyph glyph-name="uni0455" unicode="&#x455;" horiz-adv-x="256" 
d="M23 94q14 -12 29 -19.5t35 -7.5q29 0 46 18t17 47q0 25 -18 43t-39 37t-39 43t-18 60q0 30 10 55.5t28 45t43 30.5t55 11q38 0 70 -19l-10 -77q-13 10 -27.5 16t-31.5 6q-23 0 -41 -16.5t-18 -39.5q0 -24 17.5 -41t38.5 -35.5t38.5 -42.5t17.5 -63q0 -31 -10.5 -59
t-29.5 -48.5t-45.5 -32.5t-58.5 -12q-22 0 -36.5 4.5t-32.5 16.5z" />
    <glyph glyph-name="uni0456" unicode="&#x456;" horiz-adv-x="173" 
d="M119 525q-20 0 -34 14.5t-14 34.5q0 25 19 44t44 19q22 0 35 -14.5t13 -35.5q0 -25 -19 -43.5t-44 -18.5zM18 0l55 447h81l-55 -447h-81z" />
    <glyph glyph-name="uni0457" unicode="&#x457;" horiz-adv-x="173" 
d="M138 581q0 23 11.5 39.5t25.5 16.5q12 0 19.5 -12.5t7.5 -31.5q0 -23 -10.5 -39.5t-25.5 -16.5q-11 0 -19.5 12.5t-8.5 31.5zM80 537q-12 0 -19.5 12.5t-7.5 31.5q0 23 10.5 39.5t25.5 16.5q11 0 19 -12.5t8 -31.5q0 -23 -11 -39.5t-25 -16.5zM73 447h81l-55 -447h-81z
" />
    <glyph glyph-name="uni0458" unicode="&#x458;" horiz-adv-x="174" 
d="M120 525q-20 0 -34 14.5t-14 34.5q0 25 19 44t44 19q22 0 35 -14.5t13 -35.5q0 -25 -19 -43.5t-44 -18.5zM-5 -188l79 635h81l-78 -635h-82z" />
    <glyph glyph-name="uni0459" unicode="&#x459;" horiz-adv-x="493" 
d="M8 -6q-11 0 -20 2t-18 7l10 79q9 -8 23 -8q7 0 14.5 2t15.5 10q3 3 7 9.5t8 18.5t8 31.5t7 47.5l31 254h244l-21 -171h10q32 0 58.5 -6.5t46 -21.5t30.5 -38.5t11 -57.5q0 -31 -10.5 -63t-30.5 -52q-13 -13 -29.5 -20.5t-32.5 -11.5t-30 -4.5t-24 -0.5h-113l46 373h-88
l-23 -185q-4 -30 -10.5 -64.5t-20 -63t-37.5 -47.5t-62 -19zM304 70q39 0 61 15.5t22 58.5q0 37 -19.5 49.5t-52.5 12.5h-7l-16 -136h12z" />
    <glyph glyph-name="uni045A" unicode="&#x45a;" horiz-adv-x="490" 
d="M73 447h82l-21 -171h98l21 171h82l-21 -171h10q32 0 58.5 -6.5t46 -21.5t30.5 -38.5t11 -57.5q0 -31 -10.5 -63t-30.5 -52q-13 -13 -29.5 -20.5t-32.5 -11.5t-30 -4.5t-24 -0.5h-115l25 206h-98l-25 -206h-82zM301 70q39 0 61 15.5t22 58.5q0 37 -19.5 49.5t-52.5 12.5
h-7l-16 -136h12z" />
    <glyph glyph-name="uni045B" unicode="&#x45b;" horiz-adv-x="359" 
d="M24 0l62 521h-50l8 64h50l19 144h81l-17 -144h106l-8 -64h-106l-18 -151q19 27 40.5 43t56.5 16q38 0 57.5 -21t19.5 -58q0 -14 -1 -28.5t-3 -28.5l-36 -293h-82l34 275l2 18t1 18q0 20 -9.5 33.5t-30.5 13.5q-19 0 -30 -9t-17.5 -23t-9.5 -30t-5 -31l-33 -265h-81z" />
    <glyph glyph-name="uni045C" unicode="&#x45c;" horiz-adv-x="346" 
d="M179 542l95 122l66 -39l-115 -112zM18 0l55 447h82l-25 -203l130 203h94l-148 -222l95 -225h-92l-83 205l-26 -205h-82z" />
    <glyph glyph-name="uni045E" unicode="&#x45e;" horiz-adv-x="322" 
d="M156 617q11 -46 56 -46q23 0 36.5 13t20.5 33l71 -24q-15 -48 -47.5 -68t-80.5 -20q-47 0 -81.5 20t-46.5 68zM2 -188l96 224l-67 411h92l26 -312l114 312h83l-259 -635h-85z" />
    <glyph glyph-name="uni045F" unicode="&#x45f;" horiz-adv-x="354" 
d="M73 447h82l-46 -373h98l46 373h82l-55 -447h-93l-13 -104h-76l13 104h-93z" />
    <glyph glyph-name="uni0462" unicode="&#x462;" horiz-adv-x="383" 
d="M52 599h72l12 95h88l-12 -95h111l-10 -75h-111l-17 -142h6q82 0 124.5 -38t42.5 -121q0 -46 -9 -86.5t-30 -71t-55.5 -48t-85.5 -17.5h-128l64 524h-72zM147 76h4q35 0 57 11.5t34.5 31.5t17 47.5t4.5 58.5q0 47 -22 64t-66 17z" />
    <glyph glyph-name="uni0463" unicode="&#x463;" horiz-adv-x="330" 
d="M37 447h56l27 220h81l-27 -220h88l-9 -68h-88l-12 -103h11q32 0 58.5 -6.5t46 -21.5t30.5 -38.5t11 -57.5q0 -31 -10.5 -63t-30.5 -52q-13 -13 -29.5 -20.5t-32.5 -11.5t-30 -4.5t-24 -0.5h-115l46 379h-56zM141 70q39 0 61 15.5t22 58.5q0 37 -19.5 49.5t-52.5 12.5h-7
l-16 -136h12z" />
    <glyph glyph-name="uni0472" unicode="&#x472;" horiz-adv-x="416" 
d="M178 -9q-42 0 -68.5 16t-42 42t-21 59.5t-5.5 69.5q0 12 0.5 35.5t3 56.5t7 74.5t12.5 87.5q8 43 20 86t34 78t56.5 57t86.5 22q43 0 70.5 -15t43.5 -40.5t22 -60t6 -72.5q0 -54 -5 -116t-17 -125q-9 -45 -21 -90.5t-34.5 -82t-57.5 -59.5t-90 -23zM252 594
q-30 0 -49 -23t-30 -54.5t-16 -65t-8 -55.5h157q1 9 2 22t1.5 28t1 30.5t0.5 28.5q0 17 -1.5 32.5t-7.5 28.5t-18 20.5t-32 7.5zM140 320q-1 -13 -3 -32t-3.5 -39t-2.5 -39.5t-1 -34.5q0 -16 1.5 -33.5t7.5 -32.5t17.5 -25t32.5 -10q27 0 48 19q15 14 25.5 43t18 62.5t12 67
t6.5 54.5h-159z" />
    <glyph glyph-name="uni0473" unicode="&#x473;" horiz-adv-x="336" 
d="M136 -7q-34 0 -55.5 13t-34 34t-17.5 48.5t-5 56.5q0 28 2.5 61.5t9 68t19 66.5t31.5 57.5t46 40.5t64 15q35 0 57 -13t35 -34t18 -48.5t5 -57.5q0 -43 -6 -96.5t-25 -100.5t-53.5 -79t-90.5 -32zM187 379q-17 0 -28.5 -12t-19 -29.5t-11.5 -36t-6 -31.5h104q0 5 1 19
t1 25t-1.5 22.5t-5.5 21t-12 15.5t-22 6zM110 137q0 -11 1 -23t5.5 -21.5t12.5 -16t22 -6.5q19 0 31.5 15.5t20 36.5t11.5 42.5t5 33.5h-106q-2 -14 -2.5 -30t-0.5 -31z" />
    <glyph glyph-name="uni0474" unicode="&#x474;" horiz-adv-x="322" 
d="M139 667q5 -126 10 -251t5 -251q11 54 26.5 105.5t29.5 103.5q20 74 41.5 146.5t43.5 146.5h83l-211 -667h-70l-45 667h87z" />
    <glyph glyph-name="uni0475" unicode="&#x475;" horiz-adv-x="295" 
d="M30 447h87q8 -70 14 -139t6 -140v-29t-1 -30q23 86 49.5 169.5t54.5 168.5h79l-170 -447h-55z" />
    <glyph glyph-name="uni0490" unicode="&#x490;" horiz-adv-x="350" 
d="M289 668l15 125h86l-24 -202h-182l-73 -591h-88l82 667z" />
    <glyph glyph-name="uni0491" unicode="&#x491;" horiz-adv-x="285" 
d="M73 447h149l12 100h76l-21 -174h-143l-46 -373h-82z" />
    <glyph glyph-name="uni0492" unicode="&#x492;" horiz-adv-x="312" 
d="M25 380h50l35 287h238l-9 -76h-150l-26 -211h126l-10 -76h-126l-37 -304h-88l37 304h-50z" />
    <glyph glyph-name="uni0493" unicode="&#x493;" horiz-adv-x="264" 
d="M9 252h44l24 195h202l-9 -73h-120l-15 -122h93l-9 -73h-93l-22 -179h-82l22 179h-44z" />
    <glyph glyph-name="uni0494" unicode="&#x494;" horiz-adv-x="391" 
d="M23 0l82 667h246l-9 -76h-158l-25 -204q14 8 31.5 13.5t40.5 5.5q39 0 64.5 -15t41.5 -40t22.5 -57t6.5 -65q0 -39 -6 -81.5t-23 -77t-47 -57t-78 -22.5q-32 0 -49 6.5t-24 11.5l28 84q11 -12 21.5 -15.5t18.5 -3.5q22 0 34.5 17.5t19 41.5t8.5 49.5t2 40.5
q0 18 -2.5 35.5t-10 31.5t-21 23t-34.5 9q-20 0 -33.5 -6.5t-21.5 -13.5l-37 -302h-88z" />
    <glyph glyph-name="uni0495" unicode="&#x495;" horiz-adv-x="307" 
d="M73 447h202l-9 -74h-120l-13 -105q38 0 65.5 -12t45 -33.5t25.5 -51.5t8 -66q0 -50 -10.5 -102t-35 -94t-65 -69t-100.5 -28l11 86q36 0 58 22.5t34 55t16 68t4 62.5q0 37 -12.5 61t-53.5 24l-23 -191h-82z" />
    <glyph glyph-name="uni0496" unicode="&#x496;" horiz-adv-x="527" 
d="M-25 0l173 347l-85 320h87l78 -308l38 308h88l-38 -308l154 308h87l-164 -323l69 -268h59l-25 -206h-86l16 130h-38l-76 329l-40 -329h-88l40 329l-156 -329h-93z" />
    <glyph glyph-name="uni0497" unicode="&#x497;" horiz-adv-x="468" 
d="M-20 0l136 234l-79 212h86l68 -204l25 205h80l-25 -205l112 205h93l-134 -222l51 -151h48l-22 -178h-76l13 104h-24l-66 204l-25 -204h-80l25 204l-114 -204h-92z" />
    <glyph glyph-name="uni0498" unicode="&#x498;" horiz-adv-x="343" 
d="M28 120q25 -29 50 -36t37 -7q30 0 51 11.5t34 30t19 43.5t6 52q0 95 -97 95h-25l9 76h18q55 0 84 27.5t29 83.5q0 40 -20.5 68t-63.5 28q-27 0 -47 -11.5t-33 -25.5l11 91q15 11 37.5 20t54.5 9q38 0 66.5 -12.5t47.5 -34.5t28 -53t9 -67q0 -58 -22 -98t-78 -59
q24 -4 40.5 -16.5t26.5 -30.5t14.5 -39.5t4.5 -43.5q0 -32 -7.5 -67.5t-24 -67t-41.5 -55.5t-60 -33l-15 -128h-86l15 123q-27 2 -48 12.5t-36 23.5z" />
    <glyph glyph-name="uni0499" unicode="&#x499;" horiz-adv-x="288" 
d="M21 109q22 -26 43 -33t38 -7q31 0 51 17t20 49q0 35 -22 46.5t-51 11.5h-19l9 70h15q16 0 30 3t25 10t17.5 19t6.5 30q0 28 -19.5 40.5t-44.5 12.5q-20 0 -39.5 -9t-33.5 -25l11 86q14 10 33.5 17t48.5 7q55 0 91.5 -28t36.5 -86q0 -39 -18.5 -69t-58.5 -40q34 -8 51 -35
t17 -61q0 -52 -27.5 -92t-81.5 -47l-12 -100h-76l12 98q-37 7 -64 31z" />
    <glyph glyph-name="uni049A" unicode="&#x49a;" horiz-adv-x="375" 
d="M104 667h89l-38 -306l158 306h92l-174 -325l74 -266h59l-26 -206h-86l17 130h-35l-84 327l-39 -327h-88z" />
    <glyph glyph-name="uni049B" unicode="&#x49b;" horiz-adv-x="346" 
d="M73 447h82l-25 -203l130 203h94l-148 -222l64 -151h48l-22 -178h-76l13 104h-24l-83 205l-26 -205h-82z" />
    <glyph glyph-name="uni049C" unicode="&#x49c;" horiz-adv-x="464" 
d="M105 667h88l-33 -267h40l18 143h63l-23 -192l153 316h92l-161 -308l87 -359h-98l-74 343l-23 -180h-63l20 161h-40l-40 -324h-88z" />
    <glyph glyph-name="uni049D" unicode="&#x49d;" horiz-adv-x="405" 
d="M18 0l55 447h82l-21 -173h30l14 113h60l-16 -132l100 192h91l-119 -210l68 -237h-90l-55 214l-16 -131h-60l14 121h-30l-25 -204h-82z" />
    <glyph glyph-name="uni04A0" unicode="&#x4a0;" horiz-adv-x="424" 
d="M58 667h193l-38 -306l158 306h92l-174 -325l95 -342h-92l-84 327l-39 -327h-88l72 588h-105z" />
    <glyph glyph-name="uni04A1" unicode="&#x4a1;" horiz-adv-x="402" 
d="M20 374l9 73h182l-25 -203l130 203h94l-148 -222l95 -225h-92l-83 205l-26 -205h-82l46 374h-100z" />
    <glyph glyph-name="uni04A2" unicode="&#x4a2;" horiz-adv-x="417" 
d="M104 667h89l-32 -261h129l32 261h89l-73 -591h59l-26 -206h-86l17 130h-61l40 330h-129l-41 -330h-88z" />
    <glyph glyph-name="uni04A3" unicode="&#x4a3;" horiz-adv-x="356" 
d="M73 447h82l-21 -171h98l21 171h82l-46 -373h48l-22 -178h-76l13 104h-54l25 202h-98l-25 -202h-82z" />
    <glyph glyph-name="uni04A4" unicode="&#x4a4;" horiz-adv-x="506" 
d="M104 667h89l-32 -261h128l32 261h221l-10 -76h-131l-73 -591h-88l40 330h-128l-41 -330h-88z" />
    <glyph glyph-name="uni04A5" unicode="&#x4a5;" horiz-adv-x="410" 
d="M73 447h82l-21 -171h98l21 171h172l-9 -74h-90l-46 -373h-82l25 202h-98l-25 -202h-82z" />
    <glyph glyph-name="uni04AA" unicode="&#x4aa;" horiz-adv-x="332" 
d="M156 -2q-37 10 -59.5 34.5t-34.5 56.5t-16 67.5t-4 67.5q0 53 6 98t16 92q9 45 25 91.5t42 84t64 61.5t93 24q25 0 41.5 -5t30.5 -14l-9 -81q-20 11 -32 14t-23 3q-35 0 -60 -19.5t-43 -51t-29 -71t-17 -79t-8 -75.5t-2 -60q0 -27 3.5 -54.5t14.5 -50.5t30.5 -37.5
t52.5 -14.5q22 0 33.5 4t19.5 9l-10 -82q-9 -6 -19 -10t-22 -6l-16 -124h-86z" />
    <glyph glyph-name="uni04AB" unicode="&#x4ab;" horiz-adv-x="249" 
d="M23 144q0 30 4 68t12.5 76t22.5 72t35 55q21 22 44 30.5t49 8.5q16 0 30 -3t32 -13l-11 -84q-2 5 -10 13t-27 8q-31 0 -49 -25t-27 -59.5t-11.5 -69.5t-2.5 -56q0 -14 1 -30.5t6.5 -30.5t16 -23.5t29.5 -9.5q7 0 17.5 3t24.5 14l-10 -77q-15 -10 -29 -13l-13 -102h-76
l13 103q-22 8 -36 23.5t-22 35.5t-10.5 42.5t-2.5 43.5z" />
    <glyph glyph-name="uni04AE" unicode="&#x4ae;" horiz-adv-x="336" 
d="M146 667l32 -179q2 -12 4.5 -29t4.5 -35t3.5 -35.5t2.5 -30.5q17 62 42 132l65 177h92l-161 -380l-35 -287h-89l35 287l-90 380h94z" />
    <glyph glyph-name="uni04AF" unicode="&#x4af;" horiz-adv-x="312" 
d="M114 447l32 -298l110 298h86l-164 -390l-30 -245h-82l30 245l-70 390h88z" />
    <glyph glyph-name="uni04B0" unicode="&#x4b0;" horiz-adv-x="334" 
d="M45 260h92l3 27l-90 380h94l32 -179q2 -12 4.5 -29t4.5 -35t3.5 -35.5t2.5 -30.5q17 62 42 132l65 177h92l-161 -380l-3 -27h92l-9 -70h-92l-23 -190h-89l24 190h-92z" />
    <glyph glyph-name="uni04B1" unicode="&#x4b1;" horiz-adv-x="315" 
d="M8 64h92l2 19l-73 364h88l35 -278l107 278h86l-161 -364l-2 -19h92l-8 -64h-92l-23 -188h-82l23 188h-92z" />
    <glyph glyph-name="uni04B2" unicode="&#x4b2;" horiz-adv-x="343" 
d="M-30 0l166 339l-76 328h86q14 -60 29 -119.5t19 -121.5q7 21 16 42t16 42q2 5 4.5 9.5t4.5 9.5l59 138h89l-162 -328l58 -263h59l-26 -206h-86l17 130h-33q-12 62 -26.5 123.5t-17.5 125.5q-8 -27 -18 -52t-21 -51q-17 -37 -32 -73t-31 -73h-94z" />
    <glyph glyph-name="uni04B3" unicode="&#x4b3;" horiz-adv-x="327" 
d="M-25 0l139 236l-84 211h96q12 -38 24.5 -75.5t18.5 -77.5q15 41 35 78t40 75h86l-125 -211l58 -162h48l-21 -178h-76l12 104h-27q-6 18 -14.5 42t-16 48.5t-13.5 48.5t-6 42q-14 -49 -39.5 -92.5t-49.5 -88.5h-85z" />
    <glyph glyph-name="uni04B6" unicode="&#x4b6;" horiz-adv-x="396" 
d="M60 428q0 15 2 38.5t4 35.5l20 165h88l-21 -171q-3 -24 -3.5 -34t-0.5 -12q0 -33 19.5 -45t49.5 -12q15 0 27.5 2.5t23.5 7.5l33 264h88l-72 -591h59l-25 -206h-86l16 130h-62l39 320q-16 -5 -33.5 -7t-31.5 -2q-57 0 -95.5 28t-38.5 89z" />
    <glyph glyph-name="uni04B7" unicode="&#x4b7;" horiz-adv-x="340" 
d="M40 278q0 10 1 25t3 24l15 120h80l-14 -111q-2 -17 -2.5 -24t-0.5 -9q0 -25 13 -35t36 -10q14 0 24.5 2.5t19.5 7.5l22 179h82l-46 -373h48l-22 -178h-76l13 104h-54l24 195q-28 -11 -59 -11q-46 0 -76.5 23t-30.5 71z" />
    <glyph glyph-name="uni04B8" unicode="&#x4b8;" horiz-adv-x="414" 
d="M60 432q0 12 2 34.5t4 35.5l20 165h88l-21 -171q-3 -22 -3.5 -31t-0.5 -13q0 -24 9 -39t34 -17l19 147h63l-19 -150q11 0 21 2t20 5l33 267h88l-82 -667h-88l39 319q-9 -2 -19.5 -4t-21.5 -2l-17 -142h-63l17 141q-54 2 -88 32.5t-34 87.5z" />
    <glyph glyph-name="uni04B9" unicode="&#x4b9;" horiz-adv-x="368" 
d="M145 185q-45 0 -75 23t-30 71q0 9 1.5 24t2.5 24l15 120h78l-14 -111q-3 -18 -3 -35t7.5 -30t26.5 -13l16 133h60l-16 -132q15 0 31 8l22 180h82l-55 -447h-82l24 195q-16 -5 -31 -8l-12 -96h-60z" />
    <glyph glyph-name="uni04BA" unicode="&#x4ba;" horiz-adv-x="400" 
d="M23 0l82 667h89l-33 -273q17 6 33.5 9t36.5 3q61 0 97.5 -29.5t36.5 -94.5q0 -6 -1 -22.5t-6 -56.5l-25 -203h-89l26 212q2 11 3 21.5t1 22.5q0 34 -15.5 51t-50.5 17q-30 0 -57 -12l-39 -312h-89z" />
    <glyph glyph-name="uni04BB" unicode="&#x4bb;" horiz-adv-x="353" 
d="M18 0l90 729h81l-41 -334q19 27 40.5 43t56.5 16q38 0 57.5 -21t19.5 -58q0 -14 -1 -28.5t-3 -28.5l-39 -318h-82l37 299l2 18t1 18q0 20 -9.5 33.5t-30.5 13.5q-19 0 -30 -9t-17.5 -23t-9.5 -30t-5 -31l-36 -289h-81z" />
    <glyph glyph-name="uni04C0" unicode="&#x4c0;" horiz-adv-x="172" 
d="M99 0h-81l81 667h81z" />
    <glyph glyph-name="uni04C1" unicode="&#x4c1;" horiz-adv-x="518" 
d="M255 827q12 -51 63 -51q52 0 61 51l82 -26q-17 -50 -54 -72.5t-88 -22.5t-90 21.5t-53 73.5zM148 347l-85 320h87l78 -308l38 308h88l-38 -308l154 308h87l-164 -323l88 -344h-93l-76 329l-40 -329h-88l40 329l-156 -329h-93z" />
    <glyph glyph-name="uni04C2" unicode="&#x4c2;" horiz-adv-x="468" 
d="M265 505q-47 0 -81.5 20t-46.5 68l72 24q11 -46 56 -46q23 0 36.5 13t20.5 33l71 -24q-15 -48 -47.5 -68t-80.5 -20zM-20 0l136 234l-79 212h86l68 -204l25 205h80l-25 -205l112 205h93l-134 -222l76 -225h-86l-66 204l-25 -204h-80l25 204l-114 -204h-92z" />
    <glyph glyph-name="uni04C3" unicode="&#x4c3;" horiz-adv-x="385" 
d="M23 0l81 667h89l-40 -323l163 323h89l-150 -287q26 -6 45 -20t31 -33.5t18 -43t6 -48.5q0 -19 -2 -42t-4 -37l-12 -103q-4 -36 -12 -74t-24.5 -69t-44.5 -50.5t-72 -19.5q-22 0 -39 5t-33 13l28 84q8 -8 19 -13.5t20 -5.5q8 0 15.5 2.5t16.5 11.5q4 4 8.5 12t9.5 23
t10 39.5t9 60.5l9 74q4 31 5 49t1 27q0 17 -3 33t-11 28t-20.5 19.5t-32.5 7.5q-8 0 -21 -2.5t-30 -12.5l-34 -295h-88z" />
    <glyph glyph-name="uni04C4" unicode="&#x4c4;" horiz-adv-x="342" 
d="M155 447l-27 -217l132 217h97l-141 -209q39 -19 51.5 -55t12.5 -76q0 -50 -11 -101.5t-35.5 -93.5t-65 -70t-99.5 -30l11 86q34 0 56 22.5t34.5 55t17 68t4.5 60.5q0 17 -3 33t-11 28t-21 19t-33 7l-24 -191h-82l55 447h82z" />
    <glyph glyph-name="uni04C7" unicode="&#x4c7;" horiz-adv-x="408" 
d="M23 0l81 667h89l-32 -261h129l32 261h89l-86 -691q-3 -22 -7 -44t-13 -42q-18 -40 -53.5 -59t-77.5 -19q-19 0 -37.5 4t-35.5 14l11 90q13 -8 26.5 -15.5t29.5 -7.5q22 0 35 9t20.5 23.5t10.5 32t5 34.5v3l1 5v3l41 323h-129l-41 -330h-88z" />
    <glyph glyph-name="uni04C8" unicode="&#x4c8;" horiz-adv-x="340" 
d="M73 447h82l-21 -171h98l21 171h82l-58 -473q-4 -31 -11 -60.5t-21 -52t-38 -36t-61 -13.5q-27 0 -51 10l10 77q6 -5 13.5 -7.5t18.5 -2.5q10 0 18 2.5t13 6.5q15 11 20 37.5t9 58.5l26 208h-98l-25 -202h-82z" />
    <glyph glyph-name="uni04D0" unicode="&#x4d0;" horiz-adv-x="355" 
d="M172 827q12 -51 63 -51q52 0 61 51l82 -26q-17 -50 -54 -72.5t-88 -22.5t-90 21.5t-53 73.5zM198 667h69l59 -667h-88l-8 130h-131l-40 -130h-86zM120 199h105q-4 66 -7 132t-3 132v37t1 37q-2 -6 -3 -11.5t-3 -11.5l-11 -47q-17 -68 -37 -134.5t-42 -133.5z" />
    <glyph glyph-name="uni04D1" unicode="&#x4d1;" horiz-adv-x="343" 
d="M201 505q-47 0 -81.5 20t-46.5 68l72 24q11 -46 56 -46q23 0 36.5 13t20.5 33l71 -24q-15 -48 -47.5 -68t-80.5 -20zM106 -7q-27 0 -43 12.5t-25 31.5t-12 42t-3 44q0 23 1.5 56t6.5 70t14.5 73.5t25 65.5t38 47.5t54.5 18.5q30 0 46.5 -16t27.5 -42l6 51h81l-55 -447
h-81l7 57q-16 -28 -35 -46t-54 -18zM106 139q0 -10 1 -23t5 -23.5t12.5 -18t22.5 -7.5t23.5 8t16 19.5t10.5 24.5t7 24q20 83 20 166q0 10 -1 22t-5 22.5t-11.5 18t-20.5 7.5q-16 0 -26.5 -8.5t-17.5 -21.5t-11 -28t-7 -27q-8 -38 -13 -77t-5 -78z" />
    <glyph glyph-name="uni04D2" unicode="&#x4d2;" horiz-adv-x="355" 
d="M258 765q0 23 17 39.5t40 16.5q19 0 31 -12.5t12 -31.5q0 -23 -16.5 -39.5t-39.5 -16.5q-19 0 -31.5 12.5t-12.5 31.5zM156 721q-19 0 -31 12.5t-12 31.5q0 23 16.5 39.5t39.5 16.5q19 0 31 -12.5t12 -31.5q0 -23 -16.5 -39.5t-39.5 -16.5zM-27 0l225 667h69l59 -667h-88
l-8 130h-131l-40 -130h-86zM225 199q-4 66 -7 132t-3 132v37t1 37q-2 -6 -3 -11.5t-3 -11.5l-11 -47q-17 -68 -37 -134.5t-42 -133.5h105z" />
    <glyph glyph-name="uni04D3" unicode="&#x4d3;" horiz-adv-x="343" 
d="M279 513q-19 0 -31.5 12.5t-12.5 31.5q0 23 17 39.5t40 16.5q19 0 31 -12.5t12 -31.5q0 -23 -16.5 -39.5t-39.5 -16.5zM90 557q0 23 16.5 39.5t39.5 16.5q19 0 31 -12.5t12 -31.5q0 -23 -16.5 -39.5t-39.5 -16.5q-19 0 -31 12.5t-12 31.5zM106 -7q-27 0 -43 12.5
t-25 31.5t-12 42t-3 44q0 23 1.5 56t6.5 70t14.5 73.5t25 65.5t38 47.5t54.5 18.5q30 0 46.5 -16t27.5 -42l6 51h81l-55 -447h-81l7 57q-16 -28 -35 -46t-54 -18zM106 139q0 -10 1 -23t5 -23.5t12.5 -18t22.5 -7.5t23.5 8t16 19.5t10.5 24.5t7 24q20 83 20 166q0 10 -1 22
t-5 22.5t-11.5 18t-20.5 7.5q-16 0 -26.5 -8.5t-17.5 -21.5t-11 -28t-7 -27q-8 -38 -13 -77t-5 -78z" />
    <glyph glyph-name="uni04D4" unicode="&#x4d4;" horiz-adv-x="503" 
d="M-27 0l221 667h218l8 -76h-143l19 -212h129l8 -76h-129l22 -227h140l8 -76h-228l-10 131h-136l-41 -131h-86zM232 199l-13 151q-4 48 -4 95v95q-5 -37 -14.5 -72.5t-19.5 -70.5q-14 -50 -29 -99t-31 -99h111z" />
    <glyph glyph-name="uni04D5" unicode="&#x4d5;" horiz-adv-x="498" 
d="M109 -7q-51 0 -72 30t-21 77q0 30 6.5 63t21.5 61t40 46t61 18q20 0 37 -6t29 -23q1 14 2.5 29t1.5 29q0 32 -16 44.5t-46 12.5q-25 0 -45.5 -7t-41.5 -19l10 84q25 11 45 16.5t47 5.5q33 0 58.5 -12t38.5 -45q20 29 43.5 43t58.5 14q33 0 53.5 -13.5t32 -35.5t16 -48.5
t4.5 -53.5q0 -24 -2 -48.5t-6 -48.5h-182q-2 -19 -3 -37t-1 -37q0 -11 1 -23.5t5.5 -23t13 -17.5t23.5 -7q17 0 28 9.5t17.5 23.5t9.5 30t4 29h77q-5 -32 -14.5 -61t-26.5 -51t-42.5 -35t-62.5 -13q-38 0 -62 16t-34 54q-19 -35 -42 -52.5t-65 -17.5zM356 386
q-19 0 -30.5 -13.5t-18.5 -32.5t-10 -39.5t-4 -34.5h97q5 28 5 52q0 10 -1 21.5t-5 22t-12 17.5t-21 7zM161 223q-19 0 -31 -10.5t-19 -25.5t-9.5 -33t-2.5 -33q0 -11 1 -22t5 -20t12.5 -14.5t22.5 -5.5q20 0 32 11t19.5 27.5t10 35t2.5 33.5q0 23 -8.5 40t-34.5 17z" />
    <glyph glyph-name="uni04D6" unicode="&#x4d6;" horiz-adv-x="316" 
d="M167 827q12 -51 63 -51q52 0 61 51l82 -26q-17 -50 -54 -72.5t-88 -22.5t-90 21.5t-53 73.5zM104 667h235l-9 -76h-146l-26 -212h130l-10 -76h-130l-27 -227h146l-9 -76h-235z" />
    <glyph glyph-name="uni04D7" unicode="&#x4d7;" horiz-adv-x="321" 
d="M196 505q-47 0 -81.5 20t-46.5 68l72 24q11 -46 56 -46q23 0 36.5 13t20.5 33l71 -24q-15 -48 -47.5 -68t-80.5 -20zM23 141q0 27 2.5 60.5t9.5 68t18.5 68t30.5 59t45 41.5t61 16q33 0 54 -14t33.5 -36.5t17 -50t4.5 -54.5q0 -23 -2 -46t-5 -46h-185q-2 -15 -3 -29.5
t-1 -29.5q0 -12 0.5 -26.5t4.5 -27t13 -21.5t25 -9t27 9t17.5 22t10.5 28t5 28h76q-4 -30 -14.5 -58.5t-27.5 -50.5t-42.5 -35.5t-61.5 -13.5q-34 0 -55.5 12.5t-34.5 33t-18 47t-5 55.5zM180 384q-18 0 -29.5 -13.5t-19 -32t-11 -38.5t-6.5 -33h103q1 8 1 16.5v16.5v15
q0 10 -1 22t-4.5 22.5t-11 17.5t-21.5 7z" />
    <glyph glyph-name="uni04D8" unicode="&#x4d8;" horiz-adv-x="418" 
d="M41 169q0 15 1 33t2.5 37t3.5 36.5t4 30.5l6 45h245q4 33 7 74.5t3 73.5q0 18 -2 35t-8.5 31t-19.5 22.5t-35 8.5q-20 0 -34.5 -8t-25 -21t-17 -29.5t-10.5 -33.5l-80 35q20 63 61.5 99.5t110.5 36.5q47 0 76.5 -13.5t46 -38t23 -59.5t6.5 -77q0 -54 -5 -116t-17 -125
q-8 -43 -20.5 -88.5t-34.5 -82.5t-56.5 -60.5t-88.5 -23.5q-40 0 -67.5 14.5t-44 39t-23.5 56.5t-7 68zM127 172q0 -17 2 -34t8.5 -31t19 -23t33.5 -9q15 0 27 5.5t20 13.5q12 12 21.5 35.5t16.5 50t11 52.5t7 43h-157q-3 -22 -6 -50t-3 -53z" />
    <glyph glyph-name="uni04D9" unicode="&#x4d9;" horiz-adv-x="331" 
d="M24 143q0 21 1 40t3 37l3 28h188q1 9 2.5 26t1.5 34q0 12 -1.5 25t-6 24.5t-13.5 18.5t-25 7t-26.5 -9t-17.5 -22.5t-11.5 -28.5t-7.5 -27l-75 16q9 29 20 55t27.5 45.5t40.5 30.5t58 11q36 0 59 -12t37 -33t19.5 -48.5t5.5 -58.5q0 -28 -2.5 -62t-9.5 -68.5t-19 -66.5
t-31.5 -57t-47 -40t-64.5 -15q-32 0 -53 13t-33 34.5t-17 48.5t-5 54zM105 134q0 -10 1 -22.5t5 -23t12 -18t21 -7.5q19 0 31.5 14.5t20 34.5t11.5 41t5 35h-104q-1 -12 -2 -27.5t-1 -26.5z" />
    <glyph glyph-name="uni04DA" unicode="&#x4da;" horiz-adv-x="418" 
d="M327 721q-19 0 -31.5 12.5t-12.5 31.5q0 23 17 39.5t40 16.5q19 0 31 -12.5t12 -31.5q0 -23 -16.5 -39.5t-39.5 -16.5zM138 765q0 23 16.5 39.5t39.5 16.5q19 0 31 -12.5t12 -31.5q0 -23 -16.5 -39.5t-39.5 -16.5q-19 0 -31 12.5t-12 31.5zM41 169q0 15 1 33t2.5 37
t3.5 36.5t4 30.5l6 45h245q4 33 7 74.5t3 73.5q0 18 -2 35t-8.5 31t-19.5 22.5t-35 8.5q-20 0 -34.5 -8t-25 -21t-17 -29.5t-10.5 -33.5l-80 35q20 63 61.5 99.5t110.5 36.5q47 0 76.5 -13.5t46 -38t23 -59.5t6.5 -77q0 -54 -5 -116t-17 -125q-8 -43 -20.5 -88.5
t-34.5 -82.5t-56.5 -60.5t-88.5 -23.5q-40 0 -67.5 14.5t-44 39t-23.5 56.5t-7 68zM136 275q-3 -22 -6 -50t-3 -53q0 -17 2 -34t8.5 -31t19 -23t33.5 -9q15 0 27 5.5t20 13.5q12 12 21.5 35.5t16.5 50t11 52.5t7 43h-157z" />
    <glyph glyph-name="uni04DB" unicode="&#x4db;" horiz-adv-x="331" 
d="M213 557q0 23 17 39.5t40 16.5q19 0 31 -12.5t12 -31.5q0 -23 -16.5 -39.5t-39.5 -16.5q-19 0 -31.5 12.5t-12.5 31.5zM68 557q0 23 16.5 39.5t39.5 16.5q19 0 31 -12.5t12 -31.5q0 -23 -16.5 -39.5t-39.5 -16.5q-19 0 -31 12.5t-12 31.5zM24 143q0 21 1 40t3 37l3 28
h188q1 9 2.5 26t1.5 34q0 12 -1.5 25t-6 24.5t-13.5 18.5t-25 7t-26.5 -9t-17.5 -22.5t-11.5 -28.5t-7.5 -27l-75 16q9 29 20 55t27.5 45.5t40.5 30.5t58 11q36 0 59 -12t37 -33t19.5 -48.5t5.5 -58.5q0 -28 -2.5 -62t-9.5 -68.5t-19 -66.5t-31.5 -57t-47 -40t-64.5 -15
q-32 0 -53 13t-33 34.5t-17 48.5t-5 54zM108 188q-1 -12 -2 -27.5t-1 -26.5q0 -10 1 -22.5t5 -23t12 -18t21 -7.5q19 0 31.5 14.5t20 34.5t11.5 41t5 35h-104z" />
    <glyph glyph-name="uni04DC" unicode="&#x4dc;" horiz-adv-x="518" 
d="M382 721q-19 0 -31.5 12.5t-12.5 31.5q0 23 17 39.5t40 16.5q19 0 31 -12.5t12 -31.5q0 -23 -16.5 -39.5t-39.5 -16.5zM193 765q0 23 16.5 39.5t39.5 16.5q19 0 31 -12.5t12 -31.5q0 -23 -16.5 -39.5t-39.5 -16.5q-19 0 -31 12.5t-12 31.5zM-25 0l173 347l-85 320h87
l78 -308l38 308h88l-38 -308l154 308h87l-164 -323l88 -344h-93l-76 329l-40 -329h-88l40 329l-156 -329h-93z" />
    <glyph glyph-name="uni04DD" unicode="&#x4dd;" horiz-adv-x="468" 
d="M332 513q-19 0 -31.5 12.5t-12.5 31.5q0 23 17 39.5t40 16.5q19 0 31 -12.5t12 -31.5q0 -23 -16.5 -39.5t-39.5 -16.5zM186 513q-19 0 -31 12.5t-12 31.5q0 23 16.5 39.5t39.5 16.5q19 0 31 -12.5t12 -31.5q0 -23 -16.5 -39.5t-39.5 -16.5zM-20 0l136 234l-79 212h86
l68 -204l25 205h80l-25 -205l112 205h93l-134 -222l76 -225h-86l-66 204l-25 -204h-80l25 204l-114 -204h-92z" />
    <glyph glyph-name="uni04DE" unicode="&#x4de;" horiz-adv-x="343" 
d="M272 721q-19 0 -31.5 12.5t-12.5 31.5q0 23 17 39.5t40 16.5q19 0 31 -12.5t12 -31.5q0 -23 -16.5 -39.5t-39.5 -16.5zM126 721q-19 0 -31 12.5t-12 31.5q0 23 16.5 39.5t39.5 16.5q19 0 31 -12.5t12 -31.5q0 -23 -16.5 -39.5t-39.5 -16.5zM123 -9q-23 0 -51 7t-56 31
l12 91q25 -29 50 -36t37 -7q30 0 51 11.5t34 30t19 43.5t6 52q0 95 -97 95h-25l9 76h18q55 0 84 27.5t29 83.5q0 40 -20.5 68t-63.5 28q-27 0 -47 -11.5t-33 -25.5l11 91q15 11 37.5 20t54.5 9q38 0 66.5 -12.5t47.5 -34.5t28 -53t9 -67q0 -58 -22 -98t-78 -59
q24 -4 40.5 -16.5t26.5 -30.5t14.5 -39.5t4.5 -43.5q0 -46 -12 -87.5t-36.5 -73t-61.5 -50.5t-86 -19z" />
    <glyph glyph-name="uni04DF" unicode="&#x4df;" horiz-adv-x="288" 
d="M188 557q0 23 17 39.5t40 16.5q19 0 31 -12.5t12 -31.5q0 -23 -16.5 -39.5t-39.5 -16.5q-19 0 -31.5 12.5t-12.5 31.5zM86 513q-19 0 -31 12.5t-12 31.5q0 23 16.5 39.5t39.5 16.5q19 0 31 -12.5t12 -31.5q0 -23 -16.5 -39.5t-39.5 -16.5zM21 109q22 -26 43 -33t38 -7
q31 0 51 17t20 49q0 35 -22 46.5t-51 11.5h-19l9 70h15q16 0 30 3t25 10t17.5 19t6.5 30q0 28 -19.5 40.5t-44.5 12.5q-20 0 -39.5 -9t-33.5 -25l11 86q14 10 33.5 17t48.5 7q55 0 91.5 -28t36.5 -86q0 -39 -18.5 -69t-58.5 -40q34 -8 51 -34.5t17 -60.5t-11.5 -60.5
t-32 -45t-48.5 -28t-60 -9.5q-22 0 -46.5 5.5t-50.5 26.5z" />
    <glyph glyph-name="uni04E2" unicode="&#x4e2;" horiz-adv-x="410" 
d="M167 794h222l-8 -62h-221zM105 667h88l-34 -271q-3 -26 -12.5 -81t-32.5 -142q16 39 26.5 65t19 46t16.5 38t19 42l138 303h80l-82 -667h-88l36 295q4 28 13 79t30 126q-21 -55 -31 -82t-15.5 -41t-10 -23.5t-14.5 -30.5l-148 -323h-80z" />
    <glyph glyph-name="uni04E3" unicode="&#x4e3;" horiz-adv-x="368" 
d="M105 524l7 62h222l-8 -62h-221zM73 447h82l-27 -219q-2 -18 -6 -40.5t-7 -40.5q8 20 17 40t21 42l116 218h80l-55 -447h-82l27 218q2 16 5.5 38.5t7.5 40.5q-9 -27 -18 -46t-19 -36l-117 -215h-80z" />
    <glyph glyph-name="uni04E4" unicode="&#x4e4;" horiz-adv-x="410" 
d="M332 721q-19 0 -31.5 12.5t-12.5 31.5q0 23 17 39.5t40 16.5q19 0 31 -12.5t12 -31.5q0 -23 -16.5 -39.5t-39.5 -16.5zM143 765q0 23 16.5 39.5t39.5 16.5q19 0 31 -12.5t12 -31.5q0 -23 -16.5 -39.5t-39.5 -16.5q-19 0 -31 12.5t-12 31.5zM23 0l82 667h88l-34 -271
q-3 -26 -12.5 -81t-32.5 -142q16 39 26.5 65t19 46t16.5 38t19 42l138 303h80l-82 -667h-88l36 295q4 28 13 79t30 126q-21 -55 -31 -82t-15.5 -41t-10 -23.5t-14.5 -30.5l-148 -323h-80z" />
    <glyph glyph-name="uni04E5" unicode="&#x4e5;" horiz-adv-x="368" 
d="M291 513q-19 0 -31.5 12.5t-12.5 31.5q0 23 17 39.5t40 16.5q19 0 31 -12.5t12 -31.5q0 -23 -16.5 -39.5t-39.5 -16.5zM102 557q0 23 16.5 39.5t39.5 16.5q19 0 31 -12.5t12 -31.5q0 -23 -16.5 -39.5t-39.5 -16.5q-19 0 -31 12.5t-12 31.5zM18 0l55 447h82l-27 -219
q-2 -18 -6 -40.5t-7 -40.5q8 20 17 40t21 42l116 218h80l-55 -447h-82l27 218q2 16 5.5 38.5t7.5 40.5q-9 -27 -18 -46t-19 -36l-117 -215h-80z" />
    <glyph glyph-name="uni04E6" unicode="&#x4e6;" horiz-adv-x="416" 
d="M337 721q-19 0 -31.5 12.5t-12.5 31.5q0 23 17 39.5t40 16.5q19 0 31 -12.5t12 -31.5q0 -23 -16.5 -39.5t-39.5 -16.5zM148 765q0 23 16.5 39.5t39.5 16.5q19 0 31 -12.5t12 -31.5q0 -23 -16.5 -39.5t-39.5 -16.5q-19 0 -31 12.5t-12 31.5zM41 171q0 77 7.5 153.5
t24.5 151.5q9 38 22.5 74t35 64t53.5 44.5t77 16.5q43 0 70.5 -15.5t43.5 -41t22 -59t6 -70.5q0 -81 -9.5 -163t-31.5 -160q-10 -35 -24 -67t-35 -56t-50.5 -38t-70.5 -14q-42 0 -69.5 14.5t-43 39t-22 57.5t-6.5 69zM178 528q-10 -29 -19 -75.5t-15.5 -97t-10 -99
t-3.5 -81.5q0 -15 1.5 -33t7.5 -33t17.5 -25t32.5 -10q20 0 33 7.5t22.5 20t15.5 28t10 31.5q9 32 16.5 75.5t13 90t8.5 91t3 77.5q0 17 -1 34.5t-6.5 31.5t-17.5 23.5t-34 9.5q-30 0 -47.5 -20t-26.5 -46z" />
    <glyph glyph-name="uni04E7" unicode="&#x4e7;" horiz-adv-x="336" 
d="M275 513q-19 0 -31.5 12.5t-12.5 31.5q0 23 17 39.5t40 16.5q19 0 31 -12.5t12 -31.5q0 -23 -16.5 -39.5t-39.5 -16.5zM129 513q-19 0 -31 12.5t-12 31.5q0 23 16.5 39.5t39.5 16.5q19 0 31 -12.5t12 -31.5q0 -23 -16.5 -39.5t-39.5 -16.5zM24 144q0 42 6 95.5
t24.5 101.5t52.5 80.5t89 32.5q33 0 55.5 -12.5t35.5 -33t18.5 -47t5.5 -55.5q0 -42 -6 -96t-24.5 -102.5t-52.5 -81.5t-90 -33q-34 0 -56.5 12.5t-35 33.5t-17.5 48.5t-5 56.5zM110 135q0 -10 1.5 -21.5t5.5 -21t12 -16t21 -6.5q14 0 22.5 6.5t16.5 17.5q11 16 18 45
t12 61.5t7 63.5t2 50q0 11 -1.5 22t-5.5 21t-12 16t-22 6t-22.5 -6t-15.5 -17q-10 -16 -17.5 -45t-12 -61.5t-7 -63.5t-2.5 -51z" />
    <glyph glyph-name="uni04E8" unicode="&#x4e8;" horiz-adv-x="416" 
d="M178 -9q-42 0 -68.5 16t-42 42t-21 59.5t-5.5 69.5q0 12 0.5 35.5t3 56.5t7 74.5t12.5 87.5q8 43 20 86t34 78t56.5 57t86.5 22q43 0 70.5 -15t43.5 -40.5t22 -60t6 -72.5q0 -54 -5 -116t-17 -125q-9 -45 -21 -90.5t-34.5 -82t-57.5 -59.5t-90 -23zM252 594
q-30 0 -49 -23t-30 -54.5t-16 -65t-8 -55.5h157q1 9 2 22t1.5 28t1 30.5t0.5 28.5q0 17 -1.5 32.5t-7.5 28.5t-18 20.5t-32 7.5zM140 320q-1 -13 -3 -32t-3.5 -39t-2.5 -39.5t-1 -34.5q0 -16 1.5 -33.5t7.5 -32.5t17.5 -25t32.5 -10q27 0 48 19q15 14 25.5 43t18 62.5t12 67
t6.5 54.5h-159z" />
    <glyph glyph-name="uni04E9" unicode="&#x4e9;" horiz-adv-x="336" 
d="M136 -7q-34 0 -55.5 13t-34 34t-17.5 48.5t-5 56.5q0 28 2.5 61.5t9 68t19 66.5t31.5 57.5t46 40.5t64 15q35 0 57 -13t35 -34t18 -48.5t5 -57.5q0 -43 -6 -96.5t-25 -100.5t-53.5 -79t-90.5 -32zM187 379q-17 0 -28.5 -12t-19 -29.5t-11.5 -36t-6 -31.5h104q0 5 1 19
t1 25t-1.5 22.5t-5.5 21t-12 15.5t-22 6zM110 137q0 -11 1 -23t5.5 -21.5t12.5 -16t22 -6.5q19 0 31.5 15.5t20 36.5t11.5 42.5t5 33.5h-106q-2 -14 -2.5 -30t-0.5 -31z" />
    <glyph glyph-name="uni04EA" unicode="&#x4ea;" horiz-adv-x="416" 
d="M288 765q0 23 17 39.5t40 16.5q19 0 31 -12.5t12 -31.5q0 -23 -16.5 -39.5t-39.5 -16.5q-19 0 -31.5 12.5t-12.5 31.5zM143 765q0 23 16.5 39.5t39.5 16.5q19 0 31 -12.5t12 -31.5q0 -23 -16.5 -39.5t-39.5 -16.5q-19 0 -31 12.5t-12 31.5zM178 -9q-42 0 -68.5 16t-42 42
t-21 59.5t-5.5 69.5q0 12 0.5 35.5t3 56.5t7 74.5t12.5 87.5q8 43 20 86t34 78t56.5 57t86.5 22q43 0 70.5 -15t43.5 -40.5t22 -60t6 -72.5q0 -54 -5 -116t-17 -125q-9 -45 -21 -90.5t-34.5 -82t-57.5 -59.5t-90 -23zM252 594q-30 0 -49 -23t-30 -54.5t-16 -65t-8 -55.5h157
q1 9 2 22t1.5 28t1 30.5t0.5 28.5q0 17 -1.5 32.5t-7.5 28.5t-18 20.5t-32 7.5zM140 320q-1 -13 -3 -32t-3.5 -39t-2.5 -39.5t-1 -34.5q0 -16 1.5 -33.5t7.5 -32.5t17.5 -25t32.5 -10q27 0 48 19q15 14 25.5 43t18 62.5t12 67t6.5 54.5h-159z" />
    <glyph glyph-name="uni04EB" unicode="&#x4eb;" horiz-adv-x="336" 
d="M275 513q-19 0 -31.5 12.5t-12.5 31.5q0 23 17 39.5t40 16.5q19 0 31 -12.5t12 -31.5q0 -23 -16.5 -39.5t-39.5 -16.5zM129 513q-19 0 -31 12.5t-12 31.5q0 23 16.5 39.5t39.5 16.5q19 0 31 -12.5t12 -31.5q0 -23 -16.5 -39.5t-39.5 -16.5zM24 145q0 28 2.5 61.5t9 68
t19 66.5t31.5 57.5t46 40.5t64 15q35 0 57 -13t35 -34t18 -48.5t5 -57.5q0 -43 -6 -96.5t-25 -100.5t-53.5 -79t-90.5 -32q-34 0 -55.5 13t-34 34t-17.5 48.5t-5 56.5zM226 270q0 5 1 19t1 25t-1.5 22.5t-5.5 21t-12 15.5t-22 6q-17 0 -28.5 -12t-19 -29.5t-11.5 -36
t-6 -31.5h104zM110 137q0 -11 1 -23t5.5 -21.5t12.5 -16t22 -6.5q19 0 31.5 15.5t20 36.5t11.5 42.5t5 33.5h-106q-2 -14 -2.5 -30t-0.5 -31z" />
    <glyph glyph-name="uni04EE" unicode="&#x4ee;" horiz-adv-x="355" 
d="M132 794h222l-8 -62h-221zM50 667h94l34 -168q4 -18 7.5 -34.5t6.5 -34t6.5 -38.5t6.5 -49q13 47 23.5 81t23.5 72l58 171h90l-238 -667h-88l79 224z" />
    <glyph glyph-name="uni04EF" unicode="&#x4ef;" horiz-adv-x="322" 
d="M85 524l7 62h222l-8 -62h-221zM2 -188l96 224l-67 411h92l26 -312l114 312h83l-259 -635h-85z" />
    <glyph glyph-name="uni04F0" unicode="&#x4f0;" horiz-adv-x="355" 
d="M268 765q0 23 17 39.5t40 16.5q19 0 31 -12.5t12 -31.5q0 -23 -16.5 -39.5t-39.5 -16.5q-19 0 -31.5 12.5t-12.5 31.5zM123 765q0 23 16.5 39.5t39.5 16.5q19 0 31 -12.5t12 -31.5q0 -23 -16.5 -39.5t-39.5 -16.5q-19 0 -31 12.5t-12 31.5zM50 667h94l34 -168
q4 -18 7.5 -34.5t6.5 -34t6.5 -38.5t6.5 -49q13 47 23.5 81t23.5 72l58 171h90l-238 -667h-88l79 224z" />
    <glyph glyph-name="uni04F1" unicode="&#x4f1;" horiz-adv-x="322" 
d="M268 513q-19 0 -31.5 12.5t-12.5 31.5q0 23 17 39.5t40 16.5q19 0 31 -12.5t12 -31.5q0 -23 -16.5 -39.5t-39.5 -16.5zM79 557q0 23 16.5 39.5t39.5 16.5q19 0 31 -12.5t12 -31.5q0 -23 -16.5 -39.5t-39.5 -16.5q-19 0 -31 12.5t-12 31.5zM2 -188l96 224l-67 411h92
l26 -312l114 312h83l-259 -635h-85z" />
    <glyph glyph-name="uni04F2" unicode="&#x4f2;" horiz-adv-x="355" 
d="M135 747l77 138l51 -33l-91 -126zM247 747l77 138l51 -33l-92 -126zM50 667h94l34 -168q4 -18 7.5 -34.5t6.5 -34t6.5 -38.5t6.5 -49q13 47 23.5 81t23.5 72l58 171h90l-238 -667h-88l79 224z" />
    <glyph glyph-name="uni04F3" unicode="&#x4f3;" horiz-adv-x="322" 
d="M178 671l51 -33l-91 -126l-37 21zM290 671l51 -33l-92 -126l-36 21zM2 -188l96 224l-67 411h92l26 -312l114 312h83l-259 -635h-85z" />
    <glyph glyph-name="uni04F4" unicode="&#x4f4;" horiz-adv-x="387" 
d="M317 721q-19 0 -31.5 12.5t-12.5 31.5q0 23 17 39.5t40 16.5q19 0 31 -12.5t12 -31.5q0 -23 -16.5 -39.5t-39.5 -16.5zM128 765q0 23 16.5 39.5t39.5 16.5q19 0 31 -12.5t12 -31.5q0 -23 -16.5 -39.5t-39.5 -16.5q-19 0 -31 12.5t-12 31.5zM194 311q-57 0 -95.5 28
t-38.5 89q0 15 2 38.5t4 35.5l20 165h88l-21 -171q-3 -24 -3.5 -34t-0.5 -12q0 -33 19.5 -45t49.5 -12q15 0 27.5 2.5t23.5 7.5l33 264h88l-82 -667h-88l39 320q-16 -5 -33.5 -7t-31.5 -2z" />
    <glyph glyph-name="uni04F5" unicode="&#x4f5;" horiz-adv-x="338" 
d="M272 513q-19 0 -31.5 12.5t-12.5 31.5q0 23 17 39.5t40 16.5q19 0 31 -12.5t12 -31.5q0 -23 -16.5 -39.5t-39.5 -16.5zM83 557q0 23 16.5 39.5t39.5 16.5q19 0 31 -12.5t12 -31.5q0 -23 -16.5 -39.5t-39.5 -16.5q-19 0 -31 12.5t-12 31.5zM147 184q-46 0 -76.5 22.5
t-30.5 71.5q0 10 1 25t3 24l15 120h80l-14 -111q-2 -17 -2.5 -24t-0.5 -9q0 -25 13 -35t36 -10q14 0 24.5 2.5t19.5 7.5l22 179h82l-55 -447h-82l24 195q-28 -11 -59 -11z" />
    <glyph glyph-name="uni04F8" unicode="&#x4f8;" horiz-adv-x="514" 
d="M387 721q-19 0 -31.5 12.5t-12.5 31.5q0 23 17 39.5t40 16.5q19 0 31 -12.5t12 -31.5q0 -23 -16.5 -39.5t-39.5 -16.5zM198 765q0 23 16.5 39.5t39.5 16.5q19 0 31 -12.5t12 -31.5q0 -23 -16.5 -39.5t-39.5 -16.5q-19 0 -31 12.5t-12 31.5zM105 667h88l-35 -285h6
q82 0 124.5 -38t42.5 -121q0 -46 -9 -86.5t-30 -71t-55.5 -48t-85.5 -17.5h-128zM348 0l81 667h88l-82 -667h-87zM124 76q35 0 57 11.5t34.5 31.5t17 47.5t4.5 58.5q0 45 -21 63t-65 18h-2l-29 -230h4z" />
    <glyph glyph-name="uni04F9" unicode="&#x4f9;" horiz-adv-x="458" 
d="M332 513q-19 0 -31.5 12.5t-12.5 31.5q0 23 17 39.5t40 16.5q19 0 31 -12.5t12 -31.5q0 -23 -16.5 -39.5t-39.5 -16.5zM143 557q0 23 16.5 39.5t39.5 16.5q19 0 31 -12.5t12 -31.5q0 -23 -16.5 -39.5t-39.5 -16.5q-19 0 -31 12.5t-12 31.5zM73 447h82l-21 -171h8
q31 0 58 -6.5t46.5 -21t30.5 -38t11 -57.5q0 -78 -41 -115.5t-116 -37.5h-113zM302 0l55 447h82l-55 -447h-82zM109 70h12q40 0 61.5 15.5t21.5 59.5q0 36 -20 48.5t-52 12.5h-7z" />
    <glyph glyph-name="Germandbls" unicode="&#x1e9e;" horiz-adv-x="386" 
d="M85 505q4 35 15 66t30 54t47.5 36.5t67.5 13.5q57 0 93 -29t36 -89q0 -14 -1.5 -30t-3.5 -30l-87 -110q17 -5 31.5 -15t23.5 -27q7 -13 9.5 -29t2.5 -33t-1 -33.5t-3 -30.5q-3 -23 -7 -48.5t-11.5 -50.5t-18.5 -47.5t-26 -38.5q-23 -24 -52.5 -29t-68.5 -5h-3l10 78
q16 0 28 3.5t22 12.5t16 25t9.5 34t5.5 36.5t3 32.5q3 29 3.5 54t-8.5 42q-6 11 -19 17.5t-28 7.5l7 54l73 100q6 26 6 47q0 23 -12 39t-37 16q-19 0 -31.5 -9.5t-19.5 -23.5t-10.5 -31.5t-5.5 -32.5l-62 -502h-85z" />
    <glyph glyph-name="uni1EA0" unicode="&#x1ea0;" horiz-adv-x="355" 
d="M-27 0l225 667h69l59 -667h-88l-8 130h-131l-40 -130h-86zM225 199q-4 66 -7 132t-3 132v37t1 37q-2 -6 -3 -11.5t-3 -11.5l-11 -47q-17 -68 -37 -134.5t-42 -133.5h105zM133 -141q-18 0 -31.5 13.5t-13.5 31.5q0 20 13.5 33.5t31.5 13.5q19 0 32.5 -14t13.5 -33
q0 -17 -13.5 -31t-32.5 -14z" />
    <glyph glyph-name="uni1EA1" unicode="&#x1ea1;" horiz-adv-x="343" 
d="M23 123q0 23 1.5 56t6.5 70t14.5 73.5t25 65.5t38 47.5t54.5 18.5q30 0 46.5 -16t27.5 -42l6 51h81l-55 -447h-81l7 57q-16 -28 -35 -46t-54 -18q-27 0 -43 12.5t-25 31.5t-12 42t-3 44zM106 139q0 -10 1 -23t5 -23.5t12.5 -18t22.5 -7.5t23.5 8t16 19.5t10.5 24.5t7 24
q20 83 20 166q0 10 -1 22t-5 22.5t-11.5 18t-20.5 7.5q-16 0 -26.5 -8.5t-17.5 -21.5t-11 -28t-7 -27q-8 -38 -13 -77t-5 -78zM125 -141q-18 0 -31.5 13.5t-13.5 31.5q0 20 13.5 33.5t31.5 13.5q19 0 32.5 -14t13.5 -33q0 -17 -13.5 -31t-32.5 -14z" />
    <glyph glyph-name="uni1EA2" unicode="&#x1ea2;" horiz-adv-x="355" 
d="M191 794q4 13 19 29t45 16q32 0 44.5 -18.5t8.5 -48.5q-2 -18 -9 -29.5t-14.5 -18.5t-15 -10t-11.5 -4l-1 -8h-39l6 47q12 0 23 2.5t13 19.5q2 13 -3 17.5t-7 4.5q-17 0 -22 -16zM198 667h69l59 -667h-88l-8 130h-131l-40 -130h-86zM120 199h105q-4 66 -7 132t-3 132v37
t1 37q-2 -6 -3 -11.5t-3 -11.5l-11 -47q-17 -68 -37 -134.5t-42 -133.5z" />
    <glyph glyph-name="uni1EA3" unicode="&#x1ea3;" horiz-adv-x="343" 
d="M151 574q4 13 19 29t45 16q32 0 44.5 -18.5t8.5 -48.5q-2 -18 -9 -29.5t-14.5 -18.5t-15 -10t-11.5 -4l-1 -8h-39l6 47q12 0 23 2.5t13 19.5q2 13 -3 17.5t-7 4.5q-17 0 -22 -16zM23 123q0 23 1.5 56t6.5 70t14.5 73.5t25 65.5t38 47.5t54.5 18.5q30 0 46.5 -16t27.5 -42
l6 51h81l-55 -447h-81l7 57q-16 -28 -35 -46t-54 -18q-27 0 -43 12.5t-25 31.5t-12 42t-3 44zM106 139q0 -10 1 -23t5 -23.5t12.5 -18t22.5 -7.5t23.5 8t16 19.5t10.5 24.5t7 24q20 83 20 166q0 10 -1 22t-5 22.5t-11.5 18t-20.5 7.5q-16 0 -26.5 -8.5t-17.5 -21.5t-11 -28
t-7 -27q-8 -38 -13 -77t-5 -78z" />
    <glyph glyph-name="uni1EA4" unicode="&#x1ea4;" horiz-adv-x="355" 
d="M383 909l38 -45l-107 -80l-30 33zM150 733l100 91l78 -91l-43 -32l-44 47l-54 -47zM-27 0l225 667h69l59 -667h-88l-8 130h-131l-40 -130h-86zM225 199q-4 66 -7 132t-3 132v37t1 37q-2 -6 -3 -11.5t-3 -11.5l-11 -47q-17 -68 -37 -134.5t-42 -133.5h105z" />
    <glyph glyph-name="uni1EA5" unicode="&#x1ea5;" horiz-adv-x="343" 
d="M251 597l99 92l38 -45l-107 -80zM117 513l100 91l78 -91l-43 -32l-44 47l-54 -47zM106 -7q-27 0 -43 12.5t-25 31.5t-12 42t-3 44q0 23 1.5 56t6.5 70t14.5 73.5t25 65.5t38 47.5t54.5 18.5q30 0 46.5 -16t27.5 -42l6 51h81l-55 -447h-81l7 57q-16 -28 -35 -46t-54 -18z
M124 294q-8 -38 -13 -77t-5 -78q0 -10 1 -23t5 -23.5t12.5 -18t22.5 -7.5t23.5 8t16 19.5t10.5 24.5t7 24q20 83 20 166q0 10 -1 22t-5 22.5t-11.5 18t-20.5 7.5q-16 0 -26.5 -8.5t-17.5 -21.5t-11 -28t-7 -27z" />
    <glyph glyph-name="uni1EA6" unicode="&#x1ea6;" horiz-adv-x="355" 
d="M280 909l77 -92l-36 -33l-87 80zM150 733l100 91l78 -91l-43 -32l-44 47l-54 -47zM-27 0l225 667h69l59 -667h-88l-8 130h-131l-40 -130h-86zM225 199q-4 66 -7 132t-3 132v37t1 37q-2 -6 -3 -11.5t-3 -11.5l-11 -47q-17 -68 -37 -134.5t-42 -133.5h105z" />
    <glyph glyph-name="uni1EA7" unicode="&#x1ea7;" horiz-adv-x="343" 
d="M201 644l46 45l77 -92l-36 -33zM217 604l78 -91l-43 -32l-44 47l-54 -47l-37 32zM23 123q0 23 1.5 56t6.5 70t14.5 73.5t25 65.5t38 47.5t54.5 18.5q30 0 46.5 -16t27.5 -42l6 51h81l-55 -447h-81l7 57q-16 -28 -35 -46t-54 -18q-27 0 -43 12.5t-25 31.5t-12 42t-3 44z
M124 294q-8 -38 -13 -77t-5 -78q0 -10 1 -23t5 -23.5t12.5 -18t22.5 -7.5t23.5 8t16 19.5t10.5 24.5t7 24q20 83 20 166q0 10 -1 22t-5 22.5t-11.5 18t-20.5 7.5q-16 0 -26.5 -8.5t-17.5 -21.5t-11 -28t-7 -27z" />
    <glyph glyph-name="uni1EA8" unicode="&#x1ea8;" horiz-adv-x="355" 
d="M277 876q4 13 19 29t45 16q32 0 44.5 -18.5t8.5 -48.5q-2 -18 -9 -29.5t-14.5 -18.5t-15 -10t-11.5 -4l-1 -8h-39l6 47q12 0 23 2.5t13 19.5q2 13 -3 17.5t-7 4.5q-17 0 -22 -16zM150 733l100 91l78 -91l-43 -32l-44 47l-54 -47zM-27 0l225 667h69l59 -667h-88l-8 130
h-131l-40 -130h-86zM225 199q-4 66 -7 132t-3 132v37t1 37q-2 -6 -3 -11.5t-3 -11.5l-11 -47q-17 -68 -37 -134.5t-42 -133.5h105z" />
    <glyph glyph-name="uni1EA9" unicode="&#x1ea9;" horiz-adv-x="343" 
d="M244 656q4 13 19 29t45 16q32 0 44.5 -18.5t8.5 -48.5q-2 -18 -9 -29.5t-14.5 -18.5t-15 -10t-11.5 -4l-1 -8h-39l6 47q12 0 23 2.5t13 19.5q2 13 -3 17.5t-7 4.5q-17 0 -22 -16zM217 604l78 -91l-43 -32l-44 47l-54 -47l-37 32zM106 -7q-27 0 -43 12.5t-25 31.5t-12 42
t-3 44q0 23 1.5 56t6.5 70t14.5 73.5t25 65.5t38 47.5t54.5 18.5q30 0 46.5 -16t27.5 -42l6 51h81l-55 -447h-81l7 57q-16 -28 -35 -46t-54 -18zM124 294q-8 -38 -13 -77t-5 -78q0 -10 1 -23t5 -23.5t12.5 -18t22.5 -7.5t23.5 8t16 19.5t10.5 24.5t7 24q20 83 20 166
q0 10 -1 22t-5 22.5t-11.5 18t-20.5 7.5q-16 0 -26.5 -8.5t-17.5 -21.5t-11 -28t-7 -27z" />
    <glyph glyph-name="uni1EAA" unicode="&#x1eaa;" horiz-adv-x="355" 
d="M158 855q3 8 9 18.5t14.5 19.5t18.5 15.5t21 6.5q16 0 25 -4.5t15 -10t11.5 -10t14.5 -4.5q7 0 14 9t12 19l32 -22q-2 -10 -8 -20.5t-14.5 -19.5t-19 -14.5t-22.5 -5.5q-13 0 -21.5 4.5t-15 10t-11.5 10t-11 4.5q-13 0 -32 -28zM150 733l100 91l78 -91l-43 -32l-44 47
l-54 -47zM198 667h69l59 -667h-88l-8 130h-131l-40 -130h-86zM225 199q-4 66 -7 132t-3 132v37t1 37q-2 -6 -3 -11.5t-3 -11.5l-11 -47q-17 -68 -37 -134.5t-42 -133.5h105z" />
    <glyph glyph-name="uni1EAB" unicode="&#x1eab;" horiz-adv-x="343" 
d="M125 635q3 8 9 18.5t14.5 19.5t18.5 15.5t21 6.5q16 0 25 -4.5t15 -10t11.5 -10t14.5 -4.5q7 0 14 9t12 19l32 -22q-2 -10 -8 -20.5t-14.5 -19.5t-19 -14.5t-22.5 -5.5q-13 0 -21.5 4.5t-15 10t-11.5 10t-11 4.5q-13 0 -32 -28zM217 604l78 -91l-43 -32l-44 47l-54 -47
l-37 32zM23 123q0 23 1.5 56t6.5 70t14.5 73.5t25 65.5t38 47.5t54.5 18.5q30 0 46.5 -16t27.5 -42l6 51h81l-55 -447h-81l7 57q-16 -28 -35 -46t-54 -18q-27 0 -43 12.5t-25 31.5t-12 42t-3 44zM124 294q-8 -38 -13 -77t-5 -78q0 -10 1 -23t5 -23.5t12.5 -18t22.5 -7.5
t23.5 8t16 19.5t10.5 24.5t7 24q20 83 20 166q0 10 -1 22t-5 22.5t-11.5 18t-20.5 7.5q-16 0 -26.5 -8.5t-17.5 -21.5t-11 -28t-7 -27z" />
    <glyph glyph-name="uni1EAC" unicode="&#x1eac;" horiz-adv-x="355" 
d="M150 733l100 91l78 -91l-43 -32l-44 47l-54 -47zM198 667h69l59 -667h-88l-8 130h-131l-40 -130h-86zM225 199q-4 66 -7 132t-3 132v37t1 37q-2 -6 -3 -11.5t-3 -11.5l-11 -47q-17 -68 -37 -134.5t-42 -133.5h105zM133 -141q-18 0 -31.5 13.5t-13.5 31.5q0 20 13.5 33.5
t31.5 13.5q19 0 32.5 -14t13.5 -33q0 -17 -13.5 -31t-32.5 -14z" />
    <glyph glyph-name="uni1EAD" unicode="&#x1ead;" horiz-adv-x="343" 
d="M117 513l100 91l78 -91l-43 -32l-44 47l-54 -47zM23 123q0 23 1.5 56t6.5 70t14.5 73.5t25 65.5t38 47.5t54.5 18.5q30 0 46.5 -16t27.5 -42l6 51h81l-55 -447h-81l7 57q-16 -28 -35 -46t-54 -18q-27 0 -43 12.5t-25 31.5t-12 42t-3 44zM124 294q-8 -38 -13 -77t-5 -78
q0 -10 1 -23t5 -23.5t12.5 -18t22.5 -7.5t23.5 8t16 19.5t10.5 24.5t7 24q20 83 20 166q0 10 -1 22t-5 22.5t-11.5 18t-20.5 7.5q-16 0 -26.5 -8.5t-17.5 -21.5t-11 -28t-7 -27zM80 -96q0 20 13.5 33.5t31.5 13.5q19 0 32.5 -14t13.5 -33q0 -17 -13.5 -31t-32.5 -14
q-18 0 -31.5 13.5t-13.5 31.5z" />
    <glyph glyph-name="uni1EAE" unicode="&#x1eae;" horiz-adv-x="355" 
d="M223 838l99 92l38 -45l-107 -80zM241 701q-23 0 -37 8t-20.5 21t-7.5 29.5t1 34.5h49q-3 -26 3 -36.5t19 -10.5q11 0 21 10.5t15 36.5h49q-2 -17 -8 -33.5t-16.5 -30t-27 -21.5t-40.5 -8zM198 667h69l59 -667h-88l-8 130h-131l-40 -130h-86zM120 199h105q-4 66 -7 132
t-3 132v37t1 37q-2 -6 -3 -11.5t-3 -11.5l-11 -47q-17 -68 -37 -134.5t-42 -133.5z" />
    <glyph glyph-name="uni1EAF" unicode="&#x1eaf;" horiz-adv-x="343" 
d="M192 618l99 92l38 -45l-107 -80zM210 481q-23 0 -37 8t-20.5 21t-7.5 29.5t1 34.5h49q-3 -26 3 -36.5t19 -10.5q11 0 21 10.5t15 36.5h49q-2 -17 -8 -33.5t-16.5 -30t-27 -21.5t-40.5 -8zM106 -7q-27 0 -43 12.5t-25 31.5t-12 42t-3 44q0 23 1.5 56t6.5 70t14.5 73.5
t25 65.5t38 47.5t54.5 18.5q30 0 46.5 -16t27.5 -42l6 51h81l-55 -447h-81l7 57q-16 -28 -35 -46t-54 -18zM106 139q0 -10 1 -23t5 -23.5t12.5 -18t22.5 -7.5t23.5 8t16 19.5t10.5 24.5t7 24q20 83 20 166q0 10 -1 22t-5 22.5t-11.5 18t-20.5 7.5q-16 0 -26.5 -8.5
t-17.5 -21.5t-11 -28t-7 -27q-8 -38 -13 -77t-5 -78z" />
    <glyph glyph-name="uni1EB0" unicode="&#x1eb0;" horiz-adv-x="355" 
d="M222 930l77 -92l-36 -33l-87 80zM241 701q-23 0 -37 8t-20.5 21t-7.5 29.5t1 34.5h49q-3 -26 3 -36.5t19 -10.5q11 0 21 10.5t15 36.5h49q-2 -17 -8 -33.5t-16.5 -30t-27 -21.5t-40.5 -8zM198 667h69l59 -667h-88l-8 130h-131l-40 -130h-86zM225 199q-4 66 -7 132t-3 132
v37t1 37q-2 -6 -3 -11.5t-3 -11.5l-11 -47q-17 -68 -37 -134.5t-42 -133.5h105z" />
    <glyph glyph-name="uni1EB1" unicode="&#x1eb1;" horiz-adv-x="343" 
d="M191 710l77 -92l-36 -33l-87 80zM210 481q-23 0 -37 8t-20.5 21t-7.5 29.5t1 34.5h49q-3 -26 3 -36.5t19 -10.5q11 0 21 10.5t15 36.5h49q-2 -17 -8 -33.5t-16.5 -30t-27 -21.5t-40.5 -8zM23 123q0 23 1.5 56t6.5 70t14.5 73.5t25 65.5t38 47.5t54.5 18.5q30 0 46.5 -16
t27.5 -42l6 51h81l-55 -447h-81l7 57q-16 -28 -35 -46t-54 -18q-27 0 -43 12.5t-25 31.5t-12 42t-3 44zM124 294q-8 -38 -13 -77t-5 -78q0 -10 1 -23t5 -23.5t12.5 -18t22.5 -7.5t23.5 8t16 19.5t10.5 24.5t7 24q20 83 20 166q0 10 -1 22t-5 22.5t-11.5 18t-20.5 7.5
q-16 0 -26.5 -8.5t-17.5 -21.5t-11 -28t-7 -27z" />
    <glyph glyph-name="uni1EB2" unicode="&#x1eb2;" horiz-adv-x="355" 
d="M210 898q4 13 19 29t45 16q32 0 44.5 -18.5t8.5 -48.5q-2 -18 -9 -29.5t-14.5 -18.5t-15 -10t-11.5 -4l-1 -8h-39l6 47q12 0 23 2.5t13 19.5q2 13 -3 17.5t-7 4.5q-17 0 -22 -16zM241 701q-23 0 -37 8t-20.5 21t-7.5 29.5t1 34.5h49q-3 -26 3 -36.5t19 -10.5
q11 0 21 10.5t15 36.5h49q-2 -17 -8 -33.5t-16.5 -30t-27 -21.5t-40.5 -8zM198 667h69l59 -667h-88l-8 130h-131l-40 -130h-86zM225 199q-4 66 -7 132t-3 132v37t1 37q-2 -6 -3 -11.5t-3 -11.5l-11 -47q-17 -68 -37 -134.5t-42 -133.5h105z" />
    <glyph glyph-name="uni1EB3" unicode="&#x1eb3;" horiz-adv-x="343" 
d="M179 677q4 13 19 29t45 16q32 0 44.5 -18.5t8.5 -48.5q-2 -18 -9 -29.5t-14.5 -18.5t-15 -10t-11.5 -4l-1 -8h-39l6 47q12 0 23 2.5t13 19.5q2 13 -3 17.5t-7 4.5q-17 0 -22 -16zM210 481q-23 0 -37 8t-20.5 21t-7.5 29.5t1 34.5h49q-3 -26 3 -36.5t19 -10.5
q11 0 21 10.5t15 36.5h49q-2 -17 -8 -33.5t-16.5 -30t-27 -21.5t-40.5 -8zM106 -7q-27 0 -43 12.5t-25 31.5t-12 42t-3 44q0 23 1.5 56t6.5 70t14.5 73.5t25 65.5t38 47.5t54.5 18.5q30 0 46.5 -16t27.5 -42l6 51h81l-55 -447h-81l7 57q-16 -28 -35 -46t-54 -18zM124 294
q-8 -38 -13 -77t-5 -78q0 -10 1 -23t5 -23.5t12.5 -18t22.5 -7.5t23.5 8t16 19.5t10.5 24.5t7 24q20 83 20 166q0 10 -1 22t-5 22.5t-11.5 18t-20.5 7.5q-16 0 -26.5 -8.5t-17.5 -21.5t-11 -28t-7 -27z" />
    <glyph glyph-name="uni1EB4" unicode="&#x1eb4;" horiz-adv-x="355" 
d="M172 832q3 8 9 18.5t14.5 19.5t18.5 15.5t21 6.5q16 0 25 -4.5t15 -10t11.5 -10t14.5 -4.5q7 0 14 9t12 19l32 -22q-2 -10 -8 -20.5t-14.5 -19.5t-19 -14.5t-22.5 -5.5q-13 0 -21.5 4.5t-15 10t-11.5 10t-11 4.5q-13 0 -32 -28zM241 701q-23 0 -37 8t-20.5 21t-7.5 29.5
t1 34.5h49q-3 -26 3 -36.5t19 -10.5q11 0 21 10.5t15 36.5h49q-2 -17 -8 -33.5t-16.5 -30t-27 -21.5t-40.5 -8zM-27 0l225 667h69l59 -667h-88l-8 130h-131l-40 -130h-86zM120 199h105q-4 66 -7 132t-3 132v37t1 37q-2 -6 -3 -11.5t-3 -11.5l-11 -47q-17 -68 -37 -134.5
t-42 -133.5z" />
    <glyph glyph-name="uni1EB5" unicode="&#x1eb5;" horiz-adv-x="343" 
d="M141 612q3 8 9 18.5t14.5 19.5t18.5 15.5t21 6.5q16 0 25 -4.5t15 -10t11.5 -10t14.5 -4.5q7 0 14 9t12 19l32 -22q-2 -10 -8 -20.5t-14.5 -19.5t-19 -14.5t-22.5 -5.5q-13 0 -21.5 4.5t-15 10t-11.5 10t-11 4.5q-13 0 -32 -28zM210 481q-23 0 -37 8t-20.5 21t-7.5 29.5
t1 34.5h49q-3 -26 3 -36.5t19 -10.5q11 0 21 10.5t15 36.5h49q-2 -17 -8 -33.5t-16.5 -30t-27 -21.5t-40.5 -8zM23 123q0 23 1.5 56t6.5 70t14.5 73.5t25 65.5t38 47.5t54.5 18.5q30 0 46.5 -16t27.5 -42l6 51h81l-55 -447h-81l7 57q-16 -28 -35 -46t-54 -18q-27 0 -43 12.5
t-25 31.5t-12 42t-3 44zM106 139q0 -10 1 -23t5 -23.5t12.5 -18t22.5 -7.5t23.5 8t16 19.5t10.5 24.5t7 24q20 83 20 166q0 10 -1 22t-5 22.5t-11.5 18t-20.5 7.5q-16 0 -26.5 -8.5t-17.5 -21.5t-11 -28t-7 -27q-8 -38 -13 -77t-5 -78z" />
    <glyph glyph-name="uni1EB6" unicode="&#x1eb6;" horiz-adv-x="355" 
d="M241 701q-23 0 -37 8t-20.5 21t-7.5 29.5t1 34.5h49q-3 -26 3 -36.5t19 -10.5q11 0 21 10.5t15 36.5h49q-2 -17 -8 -33.5t-16.5 -30t-27 -21.5t-40.5 -8zM-27 0l225 667h69l59 -667h-88l-8 130h-131l-40 -130h-86zM225 199q-4 66 -7 132t-3 132v37t1 37q-2 -6 -3 -11.5
t-3 -11.5l-11 -47q-17 -68 -37 -134.5t-42 -133.5h105zM88 -96q0 20 13.5 33.5t31.5 13.5q19 0 32.5 -14t13.5 -33q0 -17 -13.5 -31t-32.5 -14q-18 0 -31.5 13.5t-13.5 31.5z" />
    <glyph glyph-name="uni1EB7" unicode="&#x1eb7;" horiz-adv-x="343" 
d="M210 481q-23 0 -37 8t-20.5 21t-7.5 29.5t1 34.5h49q-3 -26 3 -36.5t19 -10.5q11 0 21 10.5t15 36.5h49q-2 -17 -8 -33.5t-16.5 -30t-27 -21.5t-40.5 -8zM106 -7q-27 0 -43 12.5t-25 31.5t-12 42t-3 44q0 23 1.5 56t6.5 70t14.5 73.5t25 65.5t38 47.5t54.5 18.5
q30 0 46.5 -16t27.5 -42l6 51h81l-55 -447h-81l7 57q-16 -28 -35 -46t-54 -18zM106 139q0 -10 1 -23t5 -23.5t12.5 -18t22.5 -7.5t23.5 8t16 19.5t10.5 24.5t7 24q20 83 20 166q0 10 -1 22t-5 22.5t-11.5 18t-20.5 7.5q-16 0 -26.5 -8.5t-17.5 -21.5t-11 -28t-7 -27
q-8 -38 -13 -77t-5 -78zM125 -141q-18 0 -31.5 13.5t-13.5 31.5q0 20 13.5 33.5t31.5 13.5q19 0 32.5 -14t13.5 -33q0 -17 -13.5 -31t-32.5 -14z" />
    <glyph glyph-name="uni1EB8" unicode="&#x1eb8;" horiz-adv-x="316" 
d="M23 0l81 667h235l-9 -76h-146l-26 -212h130l-10 -76h-130l-27 -227h146l-9 -76h-235zM128 -141q-18 0 -31.5 13.5t-13.5 31.5q0 20 13.5 33.5t31.5 13.5q19 0 32.5 -14t13.5 -33q0 -17 -13.5 -31t-32.5 -14z" />
    <glyph glyph-name="uni1EB9" unicode="&#x1eb9;" horiz-adv-x="321" 
d="M23 141q0 27 2.5 60.5t9.5 68t18.5 68t30.5 59t45 41.5t61 16q33 0 54 -14t33.5 -36.5t17 -50t4.5 -54.5q0 -23 -2 -46t-5 -46h-185q-2 -15 -3 -29.5t-1 -29.5q0 -12 0.5 -26.5t4.5 -27t13 -21.5t25 -9t27 9t17.5 22t10.5 28t5 28h76q-4 -30 -14.5 -58.5t-27.5 -50.5
t-42.5 -35.5t-61.5 -13.5q-34 0 -55.5 12.5t-34.5 33t-18 47t-5 55.5zM180 384q-18 0 -29.5 -13.5t-19 -32t-11 -38.5t-6.5 -33h103q1 8 1 16.5v16.5v15q0 10 -1 22t-4.5 22.5t-11 17.5t-21.5 7zM74 -96q0 20 13.5 33.5t31.5 13.5q19 0 32.5 -14t13.5 -33q0 -17 -13.5 -31
t-32.5 -14q-18 0 -31.5 13.5t-13.5 31.5z" />
    <glyph glyph-name="uni1EBA" unicode="&#x1eba;" horiz-adv-x="316" 
d="M183 794q4 13 19 29t45 16q32 0 44.5 -18.5t8.5 -48.5q-2 -18 -9 -29.5t-14.5 -18.5t-15 -10t-11.5 -4l-1 -8h-39l6 47q12 0 23 2.5t13 19.5q2 13 -3 17.5t-7 4.5q-17 0 -22 -16zM104 667h235l-9 -76h-146l-26 -212h130l-10 -76h-130l-27 -227h146l-9 -76h-235z" />
    <glyph glyph-name="uni1EBB" unicode="&#x1ebb;" horiz-adv-x="321" 
d="M149 574q4 13 19 29t45 16q32 0 44.5 -18.5t8.5 -48.5q-2 -18 -9 -29.5t-14.5 -18.5t-15 -10t-11.5 -4l-1 -8h-39l6 47q12 0 23 2.5t13 19.5q2 13 -3 17.5t-7 4.5q-17 0 -22 -16zM136 -7q-34 0 -55.5 12.5t-34.5 33t-18 47t-5 55.5q0 27 2.5 60.5t9.5 68t18.5 68t30.5 59
t45 41.5t61 16q33 0 54 -14t33.5 -36.5t17 -50t4.5 -54.5q0 -23 -2 -46t-5 -46h-185q-2 -15 -3 -29.5t-1 -29.5q0 -12 0.5 -26.5t4.5 -27t13 -21.5t25 -9t27 9t17.5 22t10.5 28t5 28h76q-4 -30 -14.5 -58.5t-27.5 -50.5t-42.5 -35.5t-61.5 -13.5zM180 384q-18 0 -29.5 -13.5
t-19 -32t-11 -38.5t-6.5 -33h103q1 8 1 16.5v16.5v15q0 10 -1 22t-4.5 22.5t-11 17.5t-21.5 7z" />
    <glyph glyph-name="uni1EBC" unicode="&#x1ebc;" horiz-adv-x="316" 
d="M141 734q3 8 9 18.5t14.5 19.5t18.5 15.5t21 6.5q16 0 25 -4.5t15 -10t11.5 -10t14.5 -4.5q7 0 14 9t12 19l32 -22q-2 -10 -8 -20.5t-14.5 -19.5t-19 -14.5t-22.5 -5.5q-13 0 -21.5 4.5t-15 10t-11.5 10t-11 4.5q-13 0 -32 -28zM23 0l81 667h235l-9 -76h-146l-26 -212
h130l-10 -76h-130l-27 -227h146l-9 -76h-235z" />
    <glyph glyph-name="uni1EBD" unicode="&#x1ebd;" horiz-adv-x="321" 
d="M111 514q3 8 9 18.5t14.5 19.5t18.5 15.5t21 6.5q16 0 25 -4.5t15 -10t11.5 -10t14.5 -4.5q7 0 14 9t12 19l32 -22q-2 -10 -8 -20.5t-14.5 -19.5t-19 -14.5t-22.5 -5.5q-13 0 -21.5 4.5t-15 10t-11.5 10t-11 4.5q-13 0 -32 -28zM136 -7q-34 0 -55.5 12.5t-34.5 33t-18 47
t-5 55.5q0 27 2.5 60.5t9.5 68t18.5 68t30.5 59t45 41.5t61 16q33 0 54 -14t33.5 -36.5t17 -50t4.5 -54.5q0 -23 -2 -46t-5 -46h-185q-2 -15 -3 -29.5t-1 -29.5q0 -12 0.5 -26.5t4.5 -27t13 -21.5t25 -9t27 9t17.5 22t10.5 28t5 28h76q-4 -30 -14.5 -58.5t-27.5 -50.5
t-42.5 -35.5t-61.5 -13.5zM217 267q1 8 1 16.5v16.5v15q0 10 -1 22t-4.5 22.5t-11 17.5t-21.5 7q-18 0 -29.5 -13.5t-19 -32t-11 -38.5t-6.5 -33h103z" />
    <glyph glyph-name="uni1EBE" unicode="&#x1ebe;" horiz-adv-x="316" 
d="M273 817l99 92l38 -45l-107 -80zM176 701l-37 32l100 91l78 -91l-43 -32l-44 47zM330 591h-146l-26 -212h130l-10 -76h-130l-27 -227h146l-9 -76h-235l81 667h235z" />
    <glyph glyph-name="uni1EBF" unicode="&#x1ebf;" horiz-adv-x="321" 
d="M243 597l99 92l38 -45l-107 -80zM109 513l100 91l78 -91l-43 -32l-44 47l-54 -47zM136 -7q-34 0 -55.5 12.5t-34.5 33t-18 47t-5 55.5q0 27 2.5 60.5t9.5 68t18.5 68t30.5 59t45 41.5t61 16q33 0 54 -14t33.5 -36.5t17 -50t4.5 -54.5q0 -23 -2 -46t-5 -46h-185
q-2 -15 -3 -29.5t-1 -29.5q0 -12 0.5 -26.5t4.5 -27t13 -21.5t25 -9t27 9t17.5 22t10.5 28t5 28h76q-4 -30 -14.5 -58.5t-27.5 -50.5t-42.5 -35.5t-61.5 -13.5zM217 267q1 8 1 16.5v16.5v15q0 10 -1 22t-4.5 22.5t-11 17.5t-21.5 7q-18 0 -29.5 -13.5t-19 -32t-11 -38.5
t-6.5 -33h103z" />
    <glyph glyph-name="uni1EC0" unicode="&#x1ec0;" horiz-adv-x="316" 
d="M310 784l-87 80l46 45l77 -92zM176 701l-37 32l100 91l78 -91l-43 -32l-44 47zM330 591h-146l-26 -212h130l-10 -76h-130l-27 -227h146l-9 -76h-235l81 667h235z" />
    <glyph glyph-name="uni1EC1" unicode="&#x1ec1;" horiz-adv-x="321" 
d="M193 644l46 45l77 -92l-36 -33zM109 513l100 91l78 -91l-43 -32l-44 47l-54 -47zM136 -7q-34 0 -55.5 12.5t-34.5 33t-18 47t-5 55.5q0 27 2.5 60.5t9.5 68t18.5 68t30.5 59t45 41.5t61 16q33 0 54 -14t33.5 -36.5t17 -50t4.5 -54.5q0 -23 -2 -46t-5 -46h-185
q-2 -15 -3 -29.5t-1 -29.5q0 -12 0.5 -26.5t4.5 -27t13 -21.5t25 -9t27 9t17.5 22t10.5 28t5 28h76q-4 -30 -14.5 -58.5t-27.5 -50.5t-42.5 -35.5t-61.5 -13.5zM217 267q1 8 1 16.5v16.5v15q0 10 -1 22t-4.5 22.5t-11 17.5t-21.5 7q-18 0 -29.5 -13.5t-19 -32t-11 -38.5
t-6.5 -33h103z" />
    <glyph glyph-name="uni1EC2" unicode="&#x1ec2;" horiz-adv-x="316" 
d="M266 876q4 13 19 29t45 16q32 0 44.5 -18.5t8.5 -48.5q-2 -18 -9 -29.5t-14.5 -18.5t-15 -10t-11.5 -4l-1 -8h-39l6 47q12 0 23 2.5t13 19.5q2 13 -3 17.5t-7 4.5q-17 0 -22 -16zM239 824l78 -91l-43 -32l-44 47l-54 -47l-37 32zM23 0l81 667h235l-9 -76h-146l-26 -212
h130l-10 -76h-130l-27 -227h146l-9 -76h-235z" />
    <glyph glyph-name="uni1EC3" unicode="&#x1ec3;" horiz-adv-x="321" 
d="M236 656q4 13 19 29t45 16q32 0 44.5 -18.5t8.5 -48.5q-2 -18 -9 -29.5t-14.5 -18.5t-15 -10t-11.5 -4l-1 -8h-39l6 47q12 0 23 2.5t13 19.5q2 13 -3 17.5t-7 4.5q-17 0 -22 -16zM209 604l78 -91l-43 -32l-44 47l-54 -47l-37 32zM23 141q0 27 2.5 60.5t9.5 68t18.5 68
t30.5 59t45 41.5t61 16q33 0 54 -14t33.5 -36.5t17 -50t4.5 -54.5q0 -23 -2 -46t-5 -46h-185q-2 -15 -3 -29.5t-1 -29.5q0 -12 0.5 -26.5t4.5 -27t13 -21.5t25 -9t27 9t17.5 22t10.5 28t5 28h76q-4 -30 -14.5 -58.5t-27.5 -50.5t-42.5 -35.5t-61.5 -13.5q-34 0 -55.5 12.5
t-34.5 33t-18 47t-5 55.5zM180 384q-18 0 -29.5 -13.5t-19 -32t-11 -38.5t-6.5 -33h103q1 8 1 16.5v16.5v15q0 10 -1 22t-4.5 22.5t-11 17.5t-21.5 7z" />
    <glyph glyph-name="uni1EC4" unicode="&#x1ec4;" horiz-adv-x="316" 
d="M147 855q3 8 9 18.5t14.5 19.5t18.5 15.5t21 6.5q16 0 25 -4.5t15 -10t11.5 -10t14.5 -4.5q7 0 14 9t12 19l32 -22q-2 -10 -8 -20.5t-14.5 -19.5t-19 -14.5t-22.5 -5.5q-13 0 -21.5 4.5t-15 10t-11.5 10t-11 4.5q-13 0 -32 -28zM139 733l100 91l78 -91l-43 -32l-44 47
l-54 -47zM23 0l81 667h235l-9 -76h-146l-26 -212h130l-10 -76h-130l-27 -227h146l-9 -76h-235z" />
    <glyph glyph-name="uni1EC5" unicode="&#x1ec5;" horiz-adv-x="321" 
d="M117 635q3 8 9 18.5t14.5 19.5t18.5 15.5t21 6.5q16 0 25 -4.5t15 -10t11.5 -10t14.5 -4.5q7 0 14 9t12 19l32 -22q-2 -10 -8 -20.5t-14.5 -19.5t-19 -14.5t-22.5 -5.5q-13 0 -21.5 4.5t-15 10t-11.5 10t-11 4.5q-13 0 -32 -28zM109 513l100 91l78 -91l-43 -32l-44 47
l-54 -47zM136 -7q-34 0 -55.5 12.5t-34.5 33t-18 47t-5 55.5q0 27 2.5 60.5t9.5 68t18.5 68t30.5 59t45 41.5t61 16q33 0 54 -14t33.5 -36.5t17 -50t4.5 -54.5q0 -23 -2 -46t-5 -46h-185q-2 -15 -3 -29.5t-1 -29.5q0 -12 0.5 -26.5t4.5 -27t13 -21.5t25 -9t27 9t17.5 22
t10.5 28t5 28h76q-4 -30 -14.5 -58.5t-27.5 -50.5t-42.5 -35.5t-61.5 -13.5zM180 384q-18 0 -29.5 -13.5t-19 -32t-11 -38.5t-6.5 -33h103q1 8 1 16.5v16.5v15q0 10 -1 22t-4.5 22.5t-11 17.5t-21.5 7z" />
    <glyph glyph-name="uni1EC6" unicode="&#x1ec6;" horiz-adv-x="316" 
d="M139 733l100 91l78 -91l-43 -32l-44 47l-54 -47zM23 0l81 667h235l-9 -76h-146l-26 -212h130l-10 -76h-130l-27 -227h146l-9 -76h-235zM128 -141q-18 0 -31.5 13.5t-13.5 31.5q0 20 13.5 33.5t31.5 13.5q19 0 32.5 -14t13.5 -33q0 -17 -13.5 -31t-32.5 -14z" />
    <glyph glyph-name="uni1EC7" unicode="&#x1ec7;" horiz-adv-x="321" 
d="M109 513l100 91l78 -91l-43 -32l-44 47l-54 -47zM23 141q0 27 2.5 60.5t9.5 68t18.5 68t30.5 59t45 41.5t61 16q33 0 54 -14t33.5 -36.5t17 -50t4.5 -54.5q0 -23 -2 -46t-5 -46h-185q-2 -15 -3 -29.5t-1 -29.5q0 -12 0.5 -26.5t4.5 -27t13 -21.5t25 -9t27 9t17.5 22
t10.5 28t5 28h76q-4 -30 -14.5 -58.5t-27.5 -50.5t-42.5 -35.5t-61.5 -13.5q-34 0 -55.5 12.5t-34.5 33t-18 47t-5 55.5zM180 384q-18 0 -29.5 -13.5t-19 -32t-11 -38.5t-6.5 -33h103q1 8 1 16.5v16.5v15q0 10 -1 22t-4.5 22.5t-11 17.5t-21.5 7zM74 -96q0 20 13.5 33.5
t31.5 13.5q19 0 32.5 -14t13.5 -33q0 -17 -13.5 -31t-32.5 -14q-18 0 -31.5 13.5t-13.5 31.5z" />
    <glyph glyph-name="uni1EC8" unicode="&#x1ec8;" horiz-adv-x="190" 
d="M106 794q4 13 19 29t45 16q32 0 44.5 -18.5t8.5 -48.5q-2 -18 -9 -29.5t-14.5 -18.5t-15 -10t-11.5 -4l-1 -8h-39l6 47q12 0 23 2.5t13 19.5q2 13 -3 17.5t-7 4.5q-17 0 -22 -16zM23 0l81 667h89l-82 -667h-88z" />
    <glyph glyph-name="uni1EC9" unicode="&#x1ec9;" horiz-adv-x="173" 
d="M72 574q4 13 19 29t45 16q32 0 44.5 -18.5t8.5 -48.5q-2 -18 -9 -29.5t-14.5 -18.5t-15 -10t-11.5 -4l-1 -8h-39l6 47q12 0 23 2.5t13 19.5q2 13 -3 17.5t-7 4.5q-17 0 -22 -16zM73 447h81l-55 -447h-81z" />
    <glyph glyph-name="uni1ECA" unicode="&#x1eca;" horiz-adv-x="190" 
d="M23 0l81 667h89l-82 -667h-88zM57 -141q-18 0 -31.5 13.5t-13.5 31.5q0 20 13.5 33.5t31.5 13.5q19 0 32.5 -14t13.5 -33q0 -17 -13.5 -31t-32.5 -14z" />
    <glyph glyph-name="uni1ECB" unicode="&#x1ecb;" horiz-adv-x="173" 
d="M79 548q0 20 13.5 33.5t31.5 13.5q19 0 32.5 -14t13.5 -33q0 -17 -13.5 -31t-32.5 -14q-18 0 -31.5 13.5t-13.5 31.5zM73 447h81l-55 -447h-81zM5 -96q0 20 13.5 33.5t31.5 13.5q19 0 32.5 -14t13.5 -33q0 -17 -13.5 -31t-32.5 -14q-18 0 -31.5 13.5t-13.5 31.5z" />
    <glyph glyph-name="uni1ECC" unicode="&#x1ecc;" horiz-adv-x="416" 
d="M41 171q0 77 7.5 153.5t24.5 151.5q9 38 22.5 74t35 64t53.5 44.5t77 16.5q43 0 70.5 -15.5t43.5 -41t22 -59t6 -70.5q0 -81 -9.5 -163t-31.5 -160q-10 -35 -24 -67t-35 -56t-50.5 -38t-70.5 -14q-42 0 -69.5 14.5t-43 39t-22 57.5t-6.5 69zM130 175q0 -15 1.5 -33
t7.5 -33t17.5 -25t32.5 -10q20 0 33 7.5t22.5 20t15.5 28t10 31.5q9 32 16.5 75.5t13 90t8.5 91t3 77.5q0 17 -1 34.5t-6.5 31.5t-17.5 23.5t-34 9.5q-30 0 -47.5 -20t-26.5 -46q-10 -29 -19 -75.5t-15.5 -97t-10 -99t-3.5 -81.5zM112 -96q0 20 13.5 33.5t31.5 13.5
q19 0 32.5 -14t13.5 -33q0 -17 -13.5 -31t-32.5 -14q-18 0 -31.5 13.5t-13.5 31.5z" />
    <glyph glyph-name="uni1ECD" unicode="&#x1ecd;" horiz-adv-x="336" 
d="M24 144q0 42 6 95.5t24.5 101.5t52.5 80.5t89 32.5q33 0 55.5 -12.5t35.5 -33t18.5 -47t5.5 -55.5q0 -42 -6 -96t-24.5 -102.5t-52.5 -81.5t-90 -33q-34 0 -56.5 12.5t-35 33.5t-17.5 48.5t-5 56.5zM149 356q-10 -16 -17.5 -45t-12.5 -61.5t-7 -63.5t-2 -51
q0 -10 1.5 -21.5t5.5 -21t12 -16t21 -6.5q14 0 22.5 6.5t16.5 17.5q11 16 18 45t12 61.5t7 63.5t2 50q0 11 -1.5 22t-5.5 21t-12 16t-22 6t-22.5 -6t-15.5 -17zM123 -141q-18 0 -31.5 13.5t-13.5 31.5q0 20 13.5 33.5t31.5 13.5q19 0 32.5 -14t13.5 -33q0 -17 -13.5 -31
t-32.5 -14z" />
    <glyph glyph-name="uni1ECE" unicode="&#x1ece;" horiz-adv-x="416" 
d="M218 794q4 13 19 29t45 16q32 0 44.5 -18.5t8.5 -48.5q-2 -18 -9 -29.5t-14.5 -18.5t-15 -10t-11.5 -4l-1 -8h-39l6 47q12 0 23 2.5t13 19.5q2 13 -3 17.5t-7 4.5q-17 0 -22 -16zM41 171q0 77 7.5 153.5t24.5 151.5q9 38 22.5 74t35 64t53.5 44.5t77 16.5
q43 0 70.5 -15.5t43.5 -41t22 -59t6 -70.5q0 -81 -9.5 -163t-31.5 -160q-10 -35 -24 -67t-35 -56t-50.5 -38t-70.5 -14q-42 0 -69.5 14.5t-43 39t-22 57.5t-6.5 69zM130 175q0 -15 1.5 -33t7.5 -33t17.5 -25t32.5 -10q20 0 33 7.5t22.5 20t15.5 28t10 31.5q9 32 16.5 75.5
t13 90t8.5 91t3 77.5q0 17 -1 34.5t-6.5 31.5t-17.5 23.5t-34 9.5q-30 0 -47.5 -20t-26.5 -46q-10 -29 -19 -75.5t-15.5 -97t-10 -99t-3.5 -81.5z" />
    </font>
</defs>
</svg>
