<?xml version="1.0" standalone="no"?>
<!DOCTYPE svg PUBLIC "-//W3C//DTD SVG 1.1//EN" "http://www.w3.org/Graphics/SVG/1.1/DTD/svg11.dtd" >
<svg xmlns="http://www.w3.org/2000/svg" xmlns:xlink="http://www.w3.org/1999/xlink" version="1.1">
<metadata>
Created by FontForge 20170731 at Thu Oct 21 07:48:01 2021
 By Aleksey,,,
Copyright (c) 1995 ParaGraph Intl., (c) 1998 ParaType Inc., ParaType Ltd. All rights reserved.
</metadata>
<defs>
<font id="SVN-Futura-DemiItalic" horiz-adv-x="572" >
  <font-face 
    font-family="SVN-Futura Demi"
    font-weight="600"
    font-style="italic"
    font-stretch="normal"
    units-per-em="1000"
    panose-1="0 0 0 0 0 0 0 0 0 0"
    ascent="800"
    descent="-200"
    x-height="433"
    cap-height="667"
    bbox="-316 -270 1162 1047"
    underline-thickness="50"
    underline-position="-150"
    slope="-7"
    unicode-range="U+000D-FB02"
  />
<missing-glyph horiz-adv-x="233" 
 />
    <glyph glyph-name="uniF460" unicode="&#x410;`" horiz-adv-x="672" 
d="M375 667h98l197 -667h-137l-42 140h-269l-76 -140h-144zM276 246h190l-64 240zM352 778l157 142l81 -70l-189 -122z" />
    <glyph glyph-name="uniF461" unicode="&#x415;`" horiz-adv-x="496" 
d="M76 0l82 667h370l-14 -112h-240l-18 -149h230l-14 -112h-230l-22 -182h240l-14 -112h-370zM421 920l81 -70l-189 -122l-49 50z" />
    <glyph glyph-name="uniF462" unicode="&#x418;`" horiz-adv-x="736" 
d="M74 0l82 667h130l-54 -440l424 440h88l-82 -667h-130l54 443l-422 -443h-90zM386 778l157 142l81 -70l-189 -122z" />
    <glyph glyph-name="uniF463" unicode="&#x41e;`" horiz-adv-x="806" 
d="M85 299q0 86 31 156.5t84.5 121t126.5 78t157 27.5q69 0 127.5 -22t101 -62t66.5 -97t24 -127q0 -80 -28 -154t-79 -126q-20 -21 -47 -40.5t-61.5 -34.5t-76.5 -24.5t-93 -9.5q-49 0 -88 9t-69 22.5t-51.5 30t-36.5 31.5q-42 42 -65 100t-23 121zM220 309q0 -46 15 -84
t42 -65t64.5 -42t83.5 -15q54 0 98.5 21t77 57t50 83.5t17.5 99.5q0 46 -15 82.5t-42.5 62.5t-65 40t-82.5 14q-54 0 -98.5 -19.5t-77 -54t-50 -81t-17.5 -99.5zM576 920l81 -70l-189 -122l-49 50z" />
    <glyph glyph-name="uniF464" unicode="&#x423;`" horiz-adv-x="606" 
d="M224 667l132 -327l180 327h150l-391 -667h-142l122 200l-191 467h140zM319 778l157 142l81 -70l-189 -122z" />
    <glyph glyph-name="uniF465" unicode="&#x42b;`" horiz-adv-x="800" 
d="M158 667h130l-32 -261h90q44 0 83.5 -10.5t69 -33t46.5 -57t17 -82.5q0 -54 -18 -94t-44 -66q-22 -22 -47 -34.5t-50.5 -19t-51 -8t-48.5 -1.5h-227zM594 0l82 667h130l-82 -667h-130zM296 112q24 0 47.5 4t42 14.5t30.5 28.5t12 47q0 27 -10.5 44t-27 26.5t-38.5 13.5
t-44 4h-66l-22 -182h76zM416 778l157 142l81 -70l-189 -122z" />
    <glyph glyph-name="uniF466" unicode="&#x42d;`" horiz-adv-x="614" 
d="M231 -15q-37 0 -66.5 4t-52 10t-39 13t-26.5 12l19 152q19 -22 40.5 -36t43 -22.5t43.5 -11.5t42 -3q44 0 82.5 10.5t68.5 32.5t51 55t30 78h-299l14 112h297q-1 41 -15 73t-39 54.5t-58.5 34t-72.5 11.5q-54 0 -102.5 -20t-87.5 -55l19 152q57 26 103.5 33.5t79.5 7.5
q146 0 225.5 -79t79.5 -225q0 -57 -11 -104t-27.5 -84t-36.5 -65t-39 -47q-48 -50 -111.5 -71.5t-154.5 -21.5zM434 920l81 -70l-189 -122l-49 50z" />
    <glyph glyph-name="uniF467" unicode="&#x42e;`" horiz-adv-x="1019" 
d="M76 0l82 667h130l-32 -258h86q16 64 49.5 115t80.5 86t105 53.5t124 18.5q69 0 126.5 -21.5t99.5 -61t65.5 -95.5t23.5 -126q0 -83 -25 -154.5t-72 -124.5t-115 -83.5t-154 -30.5q-29 0 -60 3.5t-62.5 14t-62 28.5t-57.5 47q-34 36 -57.5 91.5t-21.5 127.5h-87l-36 -297
h-130zM455 309q0 -43 13.5 -80.5t38.5 -65.5t61 -44t80 -16q56 0 99.5 21t73 56.5t45 83t15.5 100.5q0 43 -12.5 79.5t-36.5 63t-59 41.5t-79 15q-54 0 -98 -20t-75.5 -54.5t-48.5 -81t-17 -98.5zM525 778l157 142l81 -70l-189 -122z" />
    <glyph glyph-name="uniF468" unicode="&#x42f;`" horiz-adv-x="568" 
d="M12 0l231 270q-61 15 -94 58.5t-33 106.5q0 48 17 92.5t52 76.5q23 21 48.5 33.5t51.5 19t50.5 8.5t45.5 2h193l-82 -667h-130l32 258h-16l-202 -258h-164zM284 531q-14 -14 -23 -36t-9 -45q0 -27 11 -44.5t28.5 -27.5t39.5 -14t45 -4h30l25 201h-40q-26 0 -55 -4
t-52 -26zM300 778l157 142l81 -70l-189 -122z" />
    <glyph glyph-name="uniF469" unicode="&#x401;`" horiz-adv-x="496" 
d="M158 667h370l-14 -112h-240l-18 -149h230l-14 -112h-230l-22 -182h240l-14 -112h-370zM143 815q0 29 20.5 48.5t49.5 19.5q23 0 37.5 -14.5t14.5 -37.5q0 -28 -19 -48.5t-48 -20.5q-23 0 -39 15t-16 38zM509 762q-23 0 -39 14.5t-16 37.5q0 29 19.5 49t48.5 20
q23 0 38.5 -14.5t15.5 -38.5q0 -28 -19.5 -48t-47.5 -20zM398 920l61 -54l-160 -125l-35 37z" />
    <glyph glyph-name="uniF46A" unicode="&#x430;`" 
d="M263 -14q-46 0 -83 15.5t-63 43t-40 66t-14 83.5q0 54 16 100.5t47 80t75 53t100 19.5q42 0 78.5 -17t58.5 -53l7 56h122l-53 -433h-122l7 56q-26 -34 -60 -52t-76 -18zM318 339q-28 0 -51.5 -10t-40.5 -27.5t-26.5 -41.5t-9.5 -52q0 -53 30 -83.5t83 -30.5q59 0 94 38.5
t35 96.5q0 50 -32.5 80t-81.5 30zM440 700l81 -56l-166 -134l-51 40z" />
    <glyph glyph-name="uniF46B" unicode="&#x435;`" horiz-adv-x="526" 
d="M63 186q0 57 17 105t49 82.5t78 54t104 19.5q101 0 152.5 -53.5t51.5 -153.5v-24t-2 -20h-324q-4 -30 3.5 -51.5t21.5 -35.5q17 -17 35.5 -22t35.5 -5q38 0 63.5 12.5t44.5 46.5l105 -25q-34 -70 -90.5 -100t-131.5 -30q-47 0 -86 13t-67 38.5t-44 63t-16 85.5zM281 550
l136 150l81 -56l-166 -134zM408 274q-2 41 -28.5 64t-66.5 23q-41 0 -70 -24.5t-40 -62.5h205z" />
    <glyph glyph-name="uniF46C" unicode="&#x438;`" horiz-adv-x="560" 
d="M58 0l53 433h122l-33 -267l233 267h122l-53 -433h-122l33 267l-233 -267h-122zM434 700l81 -56l-166 -134l-51 40z" />
    <glyph glyph-name="uniF46D" unicode="&#x43e;`" 
d="M287 -14q-48 0 -89 13.5t-71 39.5t-47 65t-17 89q0 54 21 101.5t54 79.5q13 13 31.5 26t43 23.5t55 17t68.5 6.5q48 0 89 -13.5t72 -39.5t48.5 -64.5t17.5 -88.5q0 -42 -16 -90t-61 -92q-42 -42 -91.5 -57.5t-107.5 -15.5zM324 339q-29 0 -54 -10.5t-43 -29.5t-28 -44
t-10 -54q0 -48 31.5 -77.5t78.5 -29.5q28 0 52.5 10.5t43 29t29.5 43t11 52.5q0 48 -31.5 79t-79.5 31zM440 700l81 -56l-166 -134l-51 40z" />
    <glyph glyph-name="uniF46E" unicode="&#x443;`" horiz-adv-x="538" 
d="M216 65l-161 368h138l104 -246l150 246h142l-430 -662h-138zM287 550l136 150l81 -56l-166 -134z" />
    <glyph glyph-name="uniF46F" unicode="&#x44b;`" horiz-adv-x="650" 
d="M58 0l54 433h121l-19 -154h78q31 0 58.5 -6.5t47.5 -21.5t32 -38.5t12 -57.5q0 -47 -16 -77t-44 -47.5t-64.5 -24t-77.5 -6.5h-182zM523 433h122l-53 -433h-122zM343 550l136 150l81 -56l-166 -134zM248 96q25 0 46 9.5t21 38.5q0 25 -18 32t-38 7h-57l-10 -87h56z" />
    <glyph glyph-name="uniF470" unicode="&#x44d;`" horiz-adv-x="436" 
d="M177 -15q-36 0 -70 5t-72 21l15 116q19 -18 46.5 -30t71.5 -12q46 0 79.5 21t42.5 69h-179l11 88h179q-6 45 -37.5 66.5t-74.5 21.5q-26 0 -55.5 -8t-58.5 -29l13 106q38 15 69 21t58 6q48 0 87 -14t66.5 -40.5t43 -64.5t15.5 -86q0 -38 -7 -69t-17.5 -55t-23.5 -42
t-26 -30q-22 -21 -44.5 -33t-45 -18.5t-44.5 -8t-42 -1.5zM328 700l81 -56l-166 -134l-51 40z" />
    <glyph glyph-name="uniF471" unicode="&#x44e;`" horiz-adv-x="753" 
d="M111 433h122l-20 -163h56q12 43 36 76.5t57 55.5t73 33.5t84 11.5q47 0 88 -14t71.5 -40.5t48 -65t17.5 -87.5q0 -42 -16 -90.5t-61 -92.5q-43 -42 -91 -56.5t-108 -14.5q-43 0 -79.5 11.5t-64.5 34.5t-45.5 56.5t-21.5 77.5h-57l-20 -166h-122zM505 339q-27 0 -50.5 -11
t-40.5 -30t-26.5 -43t-9.5 -51q0 -47 28 -78.5t76 -31.5q29 0 53.5 10.5t42.5 29.5t28 43.5t10 53.5q0 48 -31.5 78t-79.5 30zM394 550l136 150l81 -56l-166 -134z" />
    <glyph glyph-name="uniF472" unicode="&#x44f;`" horiz-adv-x="460" 
d="M20 0l148 162q-43 11 -66 39.5t-23 73.5q0 40 13 66.5t28 41.5q18 18 40 28.5t45 15t45.5 5.5t43.5 1h161l-53 -433h-122l19 152h-8l-125 -152h-146zM384 700l81 -56l-166 -134l-51 40zM268 337q-26 0 -45 -12t-19 -41q0 -26 19 -35t41 -9h45l12 97h-53z" />
    <glyph glyph-name="uniF473" unicode="&#x451;`" horiz-adv-x="526" 
d="M63 186q0 57 17 105t49 82.5t78 54t104 19.5q101 0 152.5 -53.5t51.5 -153.5v-24t-2 -20h-324q-4 -30 3.5 -51.5t21.5 -35.5q17 -17 35.5 -22t35.5 -5q38 0 63.5 12.5t44.5 46.5l105 -25q-34 -70 -90.5 -100t-131.5 -30q-47 0 -86 13t-67 38.5t-44 63t-16 85.5zM313 361
q-41 0 -70 -24.5t-40 -62.5h205q-2 41 -28.5 64t-66.5 23zM342 700l67 -51l-153 -134l-40 35zM150 536q-24 0 -39 15t-15 39q0 29 20.5 48.5t49.5 19.5q23 0 37.5 -15.5t14.5 -38.5q0 -29 -19.5 -48.5t-48.5 -19.5zM402 590q0 29 20 48.5t49 19.5q24 0 38.5 -15.5
t14.5 -38.5q0 -29 -20 -48.5t-49 -19.5q-25 0 -39 15t-14 39z" />
    <glyph glyph-name="fi" unicode="fi" horiz-adv-x="523" 
d="M54 329l13 104h46l14 108q13 98 62.5 149t152.5 51q62 0 98 -16.5t54 -33.5q33 -32 40 -71t2 -82l-3 -26h-122l3 19q5 27 1 48t-20 35q-11 9 -26.5 13t-28.5 4q-23 0 -39 -7.5t-26.5 -20t-16.5 -30t-9 -38.5l-14 -102h112l-13 -104h-112l-40 -329h-122l40 329h-46z
M401 433h122l-53 -433h-122z" />
    <glyph glyph-name="fl" unicode="fl" horiz-adv-x="524" 
d="M67 433h46l14 108q5 36 14.5 72t39.5 68q34 37 76.5 48.5t84.5 11.5t78 -10t62.5 -31.5t41.5 -54t15 -77.5q0 -20 -3 -42.5t-8 -62.5l-58 -463h-122l60 489q3 27 5 42t2 26q0 38 -21.5 56t-57.5 18q-26 0 -42.5 -9t-26 -24.5t-14 -35.5t-7.5 -42l-11 -87h112l-13 -104
h-112l-40 -329h-122l40 329h-46z" />
    <glyph glyph-name=".notdef" horiz-adv-x="233" 
 />
    <glyph glyph-name="uni0000" horiz-adv-x="0" 
 />
    <glyph glyph-name="nonmarkingreturn" horiz-adv-x="233" 
 />
    <glyph glyph-name="uni000D" unicode="&#xd;" horiz-adv-x="250" 
 />
    <glyph glyph-name="space" unicode=" " horiz-adv-x="233" 
 />
    <glyph glyph-name="exclam" unicode="!" horiz-adv-x="253" 
d="M90 203l57 464h124l-57 -464h-124zM56 54q0 37 26 63t63 26q31 0 50 -20t19 -50q0 -38 -24.5 -62t-62.5 -24q-29 0 -50 18t-21 49z" />
    <glyph glyph-name="quotedbl" unicode="&#x22;" horiz-adv-x="388" 
d="M298 667h130l-56 -268h-84zM114 399l10 268h130l-56 -268h-84z" />
    <glyph glyph-name="numbersign" unicode="#" horiz-adv-x="586" 
d="M16 186l30 104h102l28 101h-102l30 104h102l49 172h122l-49 -172h94l49 172h122l-49 -172h102l-30 -104h-102l-28 -101h102l-30 -104h-102l-53 -186h-122l53 186h-94l-53 -186h-122l53 186h-102zM270 290h94l28 101h-94z" />
    <glyph glyph-name="dollar" unicode="$" horiz-adv-x="568" 
d="M147 196q24 -38 57.5 -63t80.5 -25q22 0 42.5 5.5t36 17t24.5 29.5t9 42q0 32 -25 54q-7 6 -20.5 14t-43.5 22l-34 16q-26 12 -48 26.5t-37.5 32.5t-24.5 41.5t-9 54.5q0 40 12 74.5t34 61t53.5 43.5t71.5 23l12 100h82l-12 -100q42 -5 78.5 -24.5t65.5 -50.5l-76 -84
q-20 22 -46 38t-57 16q-17 0 -33.5 -4.5t-29.5 -14t-20.5 -23.5t-7.5 -33q0 -31 25 -47q11 -7 29.5 -16.5t29.5 -14.5l36 -16q30 -13 53.5 -28.5t40 -35.5t25.5 -46t9 -60q0 -45 -14.5 -84.5t-41.5 -68.5t-64.5 -47t-83.5 -19l-15 -112h-82l15 110q-57 8 -104.5 38.5
t-76.5 80.5z" />
    <glyph glyph-name="percent" unicode="%" horiz-adv-x="777" 
d="M256 359q-35 0 -64.5 9.5t-51.5 28t-34.5 46t-12.5 63.5q0 38 13.5 69.5t37.5 53.5t56 34t69 12q34 0 64 -10.5t52 -30t34.5 -47.5t12.5 -64q0 -31 -11 -61t-32 -53q-15 -17 -32 -27t-34.5 -15t-34.5 -6.5t-32 -1.5zM426 137q0 38 13.5 69.5t37.5 53.5t56 34t69 12
q34 0 64 -10.5t52 -30t34.5 -47.5t12.5 -64q0 -32 -11 -61.5t-32 -52.5q-31 -33 -66.5 -41.5t-66.5 -8.5q-35 0 -64.5 9.5t-51.5 28t-34.5 46t-12.5 63.5zM164 3l482 686l49 -30l-481 -687zM511 141q0 -35 21.5 -57t56.5 -22q42 0 67 26t25 68q0 38 -21.5 58t-58.5 20
q-42 0 -66 -26t-24 -67zM178 510q0 -35 21.5 -57t56.5 -22q42 0 67 26t25 68q0 38 -21.5 58t-58.5 20q-42 0 -66 -26t-24 -67z" />
    <glyph glyph-name="ampersand" unicode="&#x26;" horiz-adv-x="712" 
d="M264 -15q-41 0 -75.5 11.5t-60 33.5t-40 54.5t-14.5 75.5t12.5 75.5t35 57.5t53.5 43t67 33l17 7q-32 36 -41.5 68.5t-9.5 56.5q0 42 14.5 75.5t40 57t60.5 36t76 12.5q36 0 68 -10t55.5 -29.5t37.5 -48.5t14 -67q0 -29 -7 -52t-20.5 -41t-32.5 -33t-44 -28l-36 -19
l91 -122q17 13 36 31t49 50l67 -75q-31 -35 -52 -54t-37 -31l116 -153h-161l-56 75q-48 -46 -102 -68t-121 -22zM319 298q-20 -7 -40 -18.5t-36.5 -27.5t-26.5 -35.5t-10 -42.5q0 -38 26.5 -56.5t61.5 -18.5t69.5 17t60.5 41zM332 521q0 -19 6.5 -33t14.5 -25l24 -36l33 21
q23 14 39.5 35t16.5 50q0 27 -17 41t-43 14q-31 0 -52.5 -17.5t-21.5 -49.5z" />
    <glyph glyph-name="quotesingle" unicode="'" horiz-adv-x="214" 
d="M198 399h-84l10 268h130z" />
    <glyph glyph-name="parenleft" unicode="(" horiz-adv-x="339" 
d="M94 131q0 164 50.5 317t135.5 292l91 -53q-70 -128 -113 -264t-43 -283q0 -69 10 -135t33 -132l-103 -53q-31 75 -46 152.5t-15 158.5z" />
    <glyph glyph-name="parenright" unicode=")" horiz-adv-x="339" 
d="M46 -127q33 61 60.5 128.5t47 138t30.5 142t11 140.5t-10.5 135t-34.5 130l103 53q32 -78 47 -158.5t15 -164.5q0 -160 -47 -311t-132 -286l-90 53v0z" />
    <glyph glyph-name="asterisk" unicode="*" horiz-adv-x="573" 
d="M328 612l7 117h88l-23 -116l112 44l18 -82l-116 -28l63 -88l-76 -53l-50 97l-74 -97l-63 53l85 87l-110 27l39 84z" />
    <glyph glyph-name="plus" unicode="+" horiz-adv-x="500" 
d="M74 283v112h156v156h122v-156h156v-112h-156v-156h-122v156h-156z" />
    <glyph glyph-name="comma" unicode="," horiz-adv-x="328" 
d="M127 138l110 -13l-173 -265l-76 9z" />
    <glyph glyph-name="hyphen" unicode="-" horiz-adv-x="360" 
d="M85 286h260l-14 -112h-260z" />
    <glyph glyph-name="period" unicode="." horiz-adv-x="254" 
d="M56 54q0 37 26 63t63 26q31 0 50 -20t19 -50q0 -38 -24.5 -62t-62.5 -24q-29 0 -50 18t-21 49z" />
    <glyph glyph-name="slash" unicode="/" horiz-adv-x="653" 
d="M606 759l87 -40l-635 -929l-88 40z" />
    <glyph glyph-name="zero" unicode="0" horiz-adv-x="568" 
d="M57 269q0 44 8 92t24.5 94t41 87t58.5 72t76.5 49.5t94.5 18.5q59 0 101 -23.5t69 -62t40 -88.5t13 -103q0 -46 -6.5 -94t-21 -93.5t-37.5 -87.5t-56 -75q-41 -42 -81.5 -56t-93.5 -14q-47 0 -83 11.5t-69 44.5q-26 26 -41.5 56.5t-23.5 61t-10.5 59t-2.5 51.5zM355 570
q-32 0 -57 -15.5t-43.5 -41t-31 -57.5t-20 -65.5t-11 -65.5t-3.5 -56q0 -26 4 -56.5t16 -56t32.5 -42.5t53.5 -17q31 0 54.5 15.5t40.5 41t29 58t19 65.5t10 63.5t3 52.5q0 25 -2.5 56t-12.5 58t-29 45t-52 18z" />
    <glyph glyph-name="one" unicode="1" horiz-adv-x="568" 
d="M296 555h-96l14 112h226l-82 -667h-130z" />
    <glyph glyph-name="two" unicode="2" horiz-adv-x="568" 
d="M18 0l221 223q12 12 30.5 31t38 39.5t36.5 39t26 29.5q18 21 36 51t18 68q0 43 -26.5 66t-68.5 23q-49 0 -76.5 -32t-32.5 -79h-134q5 49 23 86.5t40 61.5q41 45 90 60t99 15q44 0 83.5 -12t69 -35.5t47 -59t17.5 -82.5q0 -40 -10.5 -73t-33.5 -65q-11 -16 -34.5 -43
t-73.5 -75l-130 -125h241l-14 -112h-482z" />
    <glyph glyph-name="three" unicode="3" horiz-adv-x="568" 
d="M176 192q3 -45 31 -70t73 -25q55 0 85.5 32.5t30.5 86.5q0 49 -30 70t-75 21h-11l11 94h18q47 0 75 25t28 73q0 38 -24 59.5t-61 21.5q-42 0 -65 -23.5t-28 -63.5h-122q15 88 72 138.5t148 50.5q42 0 79 -11t65.5 -32.5t45 -55t16.5 -78.5q0 -48 -25.5 -89t-70.5 -60
q42 -17 63 -54t21 -80q0 -53 -17 -95t-43 -71q-21 -23 -44.5 -37t-47.5 -21.5t-48.5 -10t-48.5 -2.5q-40 0 -84 10t-82 46q-27 26 -45 65.5t-20 85.5h130z" />
    <glyph glyph-name="four" unicode="4" horiz-adv-x="568" 
d="M44 184l390 483h117l-54 -437h78l-13 -104h-78l-15 -126h-122l15 126h-326zM375 230l31 258l-203 -258h172z" />
    <glyph glyph-name="five" unicode="5" horiz-adv-x="568" 
d="M91 182q30 -38 71 -61.5t91 -23.5q31 0 58 9t47 26.5t31.5 43t11.5 58.5q0 65 -39 95.5t-100 30.5q-30 0 -63.5 -8.5t-74.5 -34.5l122 350h308l-14 -112h-222l-37 -105q10 2 21.5 3t25.5 1q47 0 85 -15t64.5 -42t40.5 -65t14 -85q0 -62 -19.5 -110.5t-55 -82t-85.5 -51.5
t-111 -18q-66 0 -121.5 20.5t-104.5 64.5z" />
    <glyph glyph-name="six" unicode="6" horiz-adv-x="568" 
d="M113 50q-30 30 -44.5 65t-14.5 81q0 38 8.5 72t28.5 68q16 27 38 53t45 52l214 244l101 -57l-176 -196q6 1 13 1h15q45 0 86 -13t72 -38t49 -62.5t18 -85.5q0 -56 -22.5 -107t-57.5 -82q-23 -20 -49 -32t-51.5 -18t-49 -8t-41.5 -2q-48 0 -94 11.5t-88 53.5zM318 335
q-61 0 -97 -38t-36 -98q0 -53 33 -81.5t84 -28.5q59 0 95 37t36 95q0 52 -31.5 83t-83.5 31z" />
    <glyph glyph-name="seven" unicode="7" horiz-adv-x="568" 
d="M427 555h-310l14 112h514l-486 -687l-103 49z" />
    <glyph glyph-name="eight" unicode="8" horiz-adv-x="568" 
d="M119 46q-20 20 -34 49.5t-14 71.5q0 34 9.5 63.5t28 53.5t44.5 40.5t59 23.5q-38 22 -59 55t-21 78q0 49 17.5 87t47.5 63t70.5 38t87.5 13q40 0 76 -10.5t63.5 -32t43.5 -54t16 -75.5q0 -57 -30.5 -100.5t-85.5 -61.5q48 -14 73.5 -53.5t25.5 -88.5q0 -55 -18.5 -96.5
t-51 -69t-77 -41.5t-96.5 -14q-21 0 -44 2t-45.5 9t-44.5 18.5t-41 31.5zM202 180q0 -43 25.5 -68t68.5 -25q53 0 82.5 31t29.5 84q0 43 -28 68t-70 25q-25 0 -45 -9t-34 -25t-21.5 -36.5t-7.5 -44.5zM249 484q0 -38 23.5 -60t61.5 -22q48 0 75 27.5t27 75.5q0 40 -25 61.5
t-63 21.5q-45 0 -72 -29.5t-27 -74.5z" />
    <glyph glyph-name="nine" unicode="9" horiz-adv-x="568" 
d="M291 228q-44 0 -81.5 15.5t-66 43t-44.5 65t-16 81.5q0 58 21 104t57.5 78t85 49.5t104.5 17.5q49 0 93 -13.5t77 -40t52.5 -66t19.5 -91.5q0 -39 -11.5 -74t-30.5 -66.5t-42.5 -60.5t-48.5 -57l-206 -231l-100 56l170 193q-17 -3 -33 -3zM342 578q-29 0 -52 -11t-40 -30
t-26 -44t-9 -52q0 -53 33.5 -81t84.5 -28q29 0 53 10t41 28t26.5 42t9.5 53q0 54 -34.5 83.5t-86.5 29.5z" />
    <glyph glyph-name="colon" unicode=":" horiz-adv-x="253" 
d="M92 358q0 37 26 63t63 26q31 0 50 -20t19 -50q0 -38 -24.5 -62t-62.5 -24q-29 0 -50 18t-21 49zM127 -14q-29 0 -50 18t-21 49q0 37 26 63t63 26q31 0 50 -20t19 -50q0 -38 -24.5 -62t-62.5 -24z" />
    <glyph glyph-name="semicolon" unicode=";" horiz-adv-x="328" 
d="M-12 -131l139 269l110 -13l-173 -265zM198 291q-29 0 -50 18t-21 49q0 37 26 63t63 26q31 0 50 -20t19 -50q0 -38 -24.5 -62t-62.5 -24z" />
    <glyph glyph-name="less" unicode="&#x3c;" horiz-adv-x="500" 
d="M88 282v104l434 218v-120l-306 -150l306 -150v-120z" />
    <glyph glyph-name="equal" unicode="=" horiz-adv-x="500" 
d="M75 478h434v-106h-434v106zM509 306v-106h-434v106h434z" />
    <glyph glyph-name="greater" unicode="&#x3e;" horiz-adv-x="500" 
d="M61 64v120l306 150l-306 150v120l434 -218v-104z" />
    <glyph glyph-name="question" unicode="?" horiz-adv-x="491" 
d="M102 491q11 91 66 141t147 50q41 0 76.5 -10.5t62 -32.5t41.5 -54.5t15 -75.5q0 -42 -13.5 -78t-38.5 -63t-59.5 -42.5t-77.5 -17.5l-13 -105h-124l24 196q11 -2 19.5 -3t20.5 -1q26 0 50 6.5t42 20t29 34t11 49.5q0 32 -19.5 50.5t-51.5 18.5q-39 0 -56.5 -24t-20.5 -59
h-130zM150 52q0 37 26 63t63 26q31 0 50 -20t19 -50q0 -38 -24.5 -62t-62.5 -24q-29 0 -50 18t-21 49z" />
    <glyph glyph-name="at" unicode="@" horiz-adv-x="739" 
d="M394 -12q-69 0 -128 18.5t-102 55t-67 91t-24 127.5q0 82 29.5 154.5t82 126.5t124 85.5t154.5 31.5q61 0 114 -18.5t92 -54t61.5 -86t22.5 -113.5q0 -44 -11 -89t-34 -81.5t-59 -59.5t-87 -23q-27 0 -49 13.5t-26 42.5q-23 -31 -52.5 -47.5t-68.5 -16.5q-59 0 -95 37
t-36 96q0 39 14.5 79.5t40 72.5t61 52.5t78.5 20.5q24 0 51.5 -10.5t44.5 -42.5l13 42h84l-65 -203q-5 -16 -7 -25t-2 -16q0 -27 29 -27q27 0 46.5 20.5t32 49.5t18 60t5.5 52q0 46 -17.5 83t-47.5 63t-69.5 40t-82.5 14q-57 0 -113 -20.5t-103 -68.5q-19 -20 -36 -45
t-29.5 -54t-19.5 -60t-7 -62q0 -51 18 -94.5t46 -72.5q19 -20 41 -32.5t46 -19t49.5 -9t50.5 -2.5q57 0 102.5 10t80.5 23l9 -76q-58 -19 -108 -25.5t-95 -6.5zM329 293q0 -29 15 -46t44 -17q24 0 43 11.5t32.5 29.5t20.5 40t7 44q0 27 -15.5 43.5t-43.5 16.5
q-23 0 -41.5 -11.5t-32.5 -29t-21.5 -39t-7.5 -42.5z" />
    <glyph glyph-name="A" unicode="A" horiz-adv-x="672" 
d="M375 667h98l197 -667h-137l-42 140h-269l-76 -140h-144zM276 246h190l-64 240z" />
    <glyph glyph-name="B" unicode="B" horiz-adv-x="571" 
d="M158 667h165q42 0 79.5 -8t65 -26.5t44 -50t16.5 -78.5q0 -48 -23 -89.5t-70 -58.5q52 -17 83.5 -54t31.5 -94q0 -54 -17 -89t-37 -55q-31 -32 -77 -48t-123 -16h-220zM219 106h56q26 0 51.5 3t46 12.5t33 28.5t12.5 52q0 28 -11.5 45.5t-29.5 27t-41 12.5t-46 3h-48z
M282 390q29 0 53.5 5t43.5 25q11 11 18 27.5t7 35.5q0 44 -29 61t-68 17h-32l-21 -171h28z" />
    <glyph glyph-name="C" unicode="C" horiz-adv-x="607" 
d="M401 -15q-69 0 -127 21t-100 61t-65.5 96.5t-23.5 127.5q0 95 30.5 168.5t76.5 120.5q32 33 68 53t72 31t70 14.5t64 3.5q32 0 77 -6.5t99 -34.5l-18 -150q-21 24 -44.5 38.5t-46 22t-43 10t-36.5 2.5q-55 0 -98.5 -20t-73.5 -54.5t-46 -81t-16 -98.5q0 -45 14 -83
t40 -65.5t63 -43.5t83 -16q38 0 66 8.5t48 20t32.5 24t18.5 21.5l-19 -152q-20 -11 -60.5 -25t-104.5 -14z" />
    <glyph glyph-name="D" unicode="D" horiz-adv-x="673" 
d="M158 667h174q73 0 135 -18.5t107 -56t70.5 -94.5t25.5 -134q0 -59 -11 -103t-26.5 -76t-32 -52.5t-28.5 -31.5q-57 -55 -133.5 -78t-182.5 -23h-180zM220 112h44q66 0 119.5 15t91.5 57q32 35 46.5 82.5t14.5 94.5q0 50 -17 86.5t-47 60.5t-70.5 35.5t-87.5 11.5h-40z
" />
    <glyph glyph-name="E" unicode="E" horiz-adv-x="496" 
d="M76 0l82 667h370l-14 -112h-240l-18 -149h230l-14 -112h-230l-22 -182h240l-14 -112h-370z" />
    <glyph glyph-name="F" unicode="F" horiz-adv-x="466" 
d="M498 555h-224l-18 -149h210l-14 -112h-210l-36 -294h-130l82 667h354z" />
    <glyph glyph-name="G" unicode="G" horiz-adv-x="766" 
d="M85 301q0 84 29 154t80.5 120.5t122 78.5t153.5 28q88 0 160 -37t117 -114l-117 -67q-27 50 -73 75t-102 25q-54 0 -98 -20.5t-74.5 -55t-47 -81.5t-16.5 -99q0 -45 14.5 -82.5t40.5 -65t63.5 -42.5t82.5 -15q151 0 198 142h-172l14 112h306q-8 -80 -32.5 -148t-68 -118
t-107 -78t-148.5 -28q-71 0 -130.5 22.5t-103 63.5t-67.5 99.5t-24 130.5z" />
    <glyph glyph-name="H" unicode="H" horiz-adv-x="694" 
d="M158 667h130l-32 -258h282l32 258h130l-82 -667h-130l36 297h-282l-36 -297h-130z" />
    <glyph glyph-name="I" unicode="I" horiz-adv-x="282" 
d="M288 667l-82 -667h-130l82 667h130z" />
    <glyph glyph-name="J" unicode="J" horiz-adv-x="390" 
d="M136 -15q-48 0 -85 14t-71 48l90 95q14 -24 31.5 -30t30.5 -6t25 4t23 15q17 17 22.5 47.5t10.5 64.5l53 430h130l-55 -447q-4 -29 -8 -55.5t-11.5 -50.5t-19 -44.5t-30.5 -37.5q-33 -31 -69 -39t-67 -8z" />
    <glyph glyph-name="K" unicode="K" horiz-adv-x="617" 
d="M158 667h130l-34 -266l273 266h151l-319 -311l253 -356h-156l-192 289l-25 -24l-33 -265h-130z" />
    <glyph glyph-name="L" unicode="L" horiz-adv-x="426" 
d="M158 667h130l-68 -555h206l-14 -112h-336z" />
    <glyph glyph-name="M" unicode="M" horiz-adv-x="870" 
d="M249 667h94l124 -424l238 424h94l29 -667h-130l-10 411l-232 -411h-40l-122 411l-118 -411h-134z" />
    <glyph glyph-name="N" unicode="N" horiz-adv-x="778" 
d="M158 667h92l349 -445l55 445h130l-82 -667h-92l-349 447l-55 -447h-130z" />
    <glyph glyph-name="O" unicode="O" horiz-adv-x="806" 
d="M173 78q-42 42 -65 100t-23 121q0 86 31 156.5t84.5 121t126.5 78t157 27.5q69 0 127.5 -22t101 -62t66.5 -97t24 -127q0 -80 -28 -154t-79 -126q-20 -21 -47 -40.5t-61.5 -34.5t-76.5 -24.5t-93 -9.5q-49 0 -88 9t-69 22.5t-51.5 30t-36.5 31.5zM463 563
q-54 0 -98.5 -19.5t-77 -54t-50 -81t-17.5 -99.5q0 -46 15 -84t42 -65t64.5 -42t83.5 -15q54 0 98.5 21t77 57t50 83.5t17.5 99.5q0 46 -15 82.5t-42.5 62.5t-65 40t-82.5 14z" />
    <glyph glyph-name="P" unicode="P" horiz-adv-x="535" 
d="M158 667h180q50 0 92.5 -10t74 -33.5t49 -61t17.5 -91.5q0 -58 -18 -100.5t-50 -70t-77.5 -40.5t-100.5 -13h-89l-30 -247h-130zM250 359h55q27 0 51 5t42 17.5t28.5 33t10.5 51.5q0 26 -10 43.5t-26 27.5t-37.5 14t-43.5 4h-46z" />
    <glyph glyph-name="Q" unicode="Q" horiz-adv-x="806" 
d="M175 73q-15 15 -31 36t-29 48.5t-21.5 62.5t-8.5 78q0 78 28 152t81 127q33 33 69.5 54t72.5 32t70.5 15t65.5 4q73 0 134 -21.5t104.5 -62.5t68 -99.5t24.5 -133.5q0 -38 -7.5 -76t-22.5 -73t-37.5 -65.5t-52.5 -54.5l94 -109l-126 -13l-48 59q-29 -18 -75 -33t-118 -15
q-69 0 -128 20t-107 68zM462 564q-52 0 -96.5 -20t-76.5 -54t-50.5 -79.5t-18.5 -96.5q0 -45 15 -84t42 -67t65 -44t84 -16q30 0 54.5 6.5t44.5 17.5l-119 130l131 11l67 -79q38 39 51 84t13 83q0 46 -15 84t-42 65.5t-65 43t-84 15.5z" />
    <glyph glyph-name="R" unicode="R" horiz-adv-x="576" 
d="M158 667h193q45 0 84 -11t67.5 -33.5t45 -58t16.5 -83.5q0 -85 -48.5 -137t-129.5 -65l170 -279h-156l-145 268h-16l-33 -268h-130zM250 360h46q27 0 51 6.5t42.5 20t29 34.5t10.5 50q0 25 -9 42.5t-25 28t-36.5 15t-42.5 4.5h-41z" />
    <glyph glyph-name="S" unicode="S" horiz-adv-x="534" 
d="M143 192q22 -41 52.5 -65t78.5 -24t80 25.5t32 76.5q0 18 -6.5 32.5t-23.5 28.5t-32.5 19.5t-35.5 13.5l-38 16q-29 12 -51.5 26t-38 32.5t-24 43t-8.5 57.5q0 52 19 91.5t51.5 65t75.5 38.5t92 13q16 0 37.5 -2t45 -10t48.5 -23.5t49 -42.5l-79 -89q-14 20 -39.5 38.5
t-67.5 18.5q-18 0 -35.5 -5t-31 -14.5t-22 -24.5t-8.5 -35q0 -32 28 -51q10 -7 24 -13t39 -17l45 -19q54 -23 89 -62t35 -101q0 -55 -19.5 -103t-51.5 -79q-42 -40 -91 -51.5t-91 -11.5q-75 0 -128.5 32.5t-93.5 93.5z" />
    <glyph glyph-name="T" unicode="T" horiz-adv-x="442" 
d="M88 667h430l-14 -112h-150l-68 -555h-130l68 555h-150z" />
    <glyph glyph-name="U" unicode="U" horiz-adv-x="686" 
d="M105 206q0 10 1 26t2.5 32.5t3 31.5t2.5 23l42 348h130l-45 -369q-1 -8 -2 -18.5l-2 -21t-2 -20t-1 -14.5q0 -58 34 -89.5t91 -31.5q29 0 53 7.5t41 20.5q18 13 29 30.5t17 38t9.5 43.5t6.5 47l47 377h130l-48 -391q-4 -29 -8.5 -59t-12.5 -58.5t-22 -55t-36 -48.5
q-24 -24 -51 -38t-54.5 -21t-54 -9t-47.5 -2q-55 0 -101.5 12.5t-80 39t-52.5 68.5t-19 101z" />
    <glyph glyph-name="V" unicode="V" horiz-adv-x="644" 
d="M224 667l123 -448l233 448h144l-366 -667h-74l-200 667h140z" />
    <glyph glyph-name="W" unicode="W" horiz-adv-x="978" 
d="M84 667h136l93 -454l220 454h72l97 -454l216 454h140l-335 -667h-92l-94 423l-209 -423h-92z" />
    <glyph glyph-name="X" unicode="X" horiz-adv-x="634" 
d="M287 352l-160 315h150l91 -207l149 207h156l-244 -315l185 -352h-150l-116 244l-184 -244h-156z" />
    <glyph glyph-name="Y" unicode="Y" horiz-adv-x="590" 
d="M228 667l114 -232l172 232h160l-280 -362l-37 -305h-130l37 305l-184 362h148z" />
    <glyph glyph-name="Z" unicode="Z" horiz-adv-x="584" 
d="M252 112h308l-14 -112h-524l392 555h-273l14 112h489z" />
    <glyph glyph-name="bracketleft" unicode="[" horiz-adv-x="350" 
d="M284 625l-85 -701h94l-13 -104h-210l111 909h210l-13 -104h-94z" />
    <glyph glyph-name="backslash" unicode="\" horiz-adv-x="673" 
d="M568 -210l-402 929l87 40l402 -929z" />
    <glyph glyph-name="bracketright" unicode="]" horiz-adv-x="350" 
d="M137 -76l86 701h-94l13 104h210l-112 -909h-210l13 104h94z" />
    <glyph glyph-name="asciicircum" unicode="^" horiz-adv-x="500" 
d="M212 667h160l162 -331h-127l-115 241l-115 -241h-127z" />
    <glyph glyph-name="underscore" unicode="_" horiz-adv-x="500" 
d="M0 -54h500v-104h-500v104z" />
    <glyph glyph-name="grave" unicode="`" horiz-adv-x="500" 
d="M173 644l95 56l100 -150l-61 -40z" />
    <glyph glyph-name="a" unicode="a" 
d="M63 194q0 54 16 100.5t47 80t75 53t100 19.5q42 0 78.5 -17t58.5 -53l7 56h122l-53 -433h-122l7 56q-26 -34 -60 -52t-76 -18q-46 0 -83 15.5t-63 43t-40 66t-14 83.5zM318 339q-28 0 -51.5 -10t-40.5 -27.5t-26.5 -41.5t-9.5 -52q0 -53 30 -83.5t83 -30.5q59 0 94 38.5
t35 96.5q0 50 -32.5 80t-81.5 30z" />
    <glyph glyph-name="b" unicode="b" 
d="M58 0l90 729h122l-44 -352q25 36 63.5 53t81.5 17q45 0 80.5 -14.5t60.5 -41t38 -63t13 -81.5q0 -60 -19.5 -111.5t-55.5 -87.5q-37 -37 -78 -49.5t-87 -12.5q-43 0 -79.5 14t-56.5 56l-7 -56h-122zM326 339q-59 0 -95.5 -36.5t-36.5 -95.5q0 -52 30.5 -82.5t82.5 -30.5
q31 0 55 11t40.5 30t25 45t8.5 55q0 48 -31.5 76t-78.5 28z" />
    <glyph glyph-name="c" unicode="c" horiz-adv-x="420" 
d="M274 -14q-47 0 -86 14.5t-67 41.5t-43.5 65.5t-15.5 85.5q0 57 19 104t52.5 80t80.5 51.5t104 18.5q29 0 58 -5t62 -21l-15 -120q-14 13 -38.5 25.5t-64.5 12.5q-29 0 -53 -10t-41 -28t-26.5 -42.5t-9.5 -52.5q0 -49 31.5 -80.5t80.5 -31.5q20 0 47.5 7.5t52.5 30.5
l-14 -119q-30 -17 -61 -22t-53 -5z" />
    <glyph glyph-name="d" unicode="d" horiz-adv-x="570" 
d="M257 -14q-47 0 -83 16.5t-60.5 45.5t-37.5 67.5t-13 83.5q0 60 19.5 107t48.5 76t71.5 47t87.5 18q44 0 83 -17t65 -53l44 352h122l-90 -729h-122l7 56q0 -1 -4.5 -6.5t-11.5 -13t-17 -16t-21 -14.5q-18 -10 -41.5 -15t-46.5 -5zM190 210q0 -53 30 -84.5t83 -31.5
q28 0 52 10.5t41.5 29t27 43t9.5 52.5q0 51 -33.5 80.5t-83.5 29.5q-56 0 -91 -36.5t-35 -92.5z" />
    <glyph glyph-name="e" unicode="e" horiz-adv-x="526" 
d="M276 -14q-47 0 -86 13t-67 38.5t-44 63t-16 85.5q0 57 17 105t49 82.5t78 54t104 19.5q101 0 152.5 -53.5t51.5 -153.5v-24t-2 -20h-324q-4 -30 3.5 -51.5t21.5 -35.5q17 -17 35.5 -22t35.5 -5q38 0 63.5 12.5t44.5 46.5l105 -25q-34 -70 -90.5 -100t-131.5 -30zM313 361
q-41 0 -70 -24.5t-40 -62.5h205q-2 41 -28.5 64t-66.5 23z" />
    <glyph glyph-name="f" unicode="f" horiz-adv-x="290" 
d="M67 433h46l14 107q2 18 5.5 38t9.5 40.5t16 40t26 36.5q15 16 43 31t71 15q19 0 42.5 -3.5t43.5 -11.5l-14 -111q-8 5 -20.5 11.5t-29.5 6.5q-24 0 -41 -15q-12 -11 -20 -35.5t-14 -69.5l-10 -80h112l-13 -104h-112l-40 -329h-122l40 329h-46z" />
    <glyph glyph-name="g" unicode="g" horiz-adv-x="564" 
d="M169 -51q5 -38 30 -56.5t61 -18.5q61 0 88 33t35 90l8 61q-25 -35 -58 -53.5t-77 -18.5q-47 0 -84 15t-62.5 42.5t-39 66t-13.5 84.5q0 51 16.5 97t46.5 80.5t73 55t96 20.5q44 0 81 -16t60 -54l7 56h122l-51 -413q-2 -19 -5.5 -43t-10.5 -49.5t-19 -50t-31 -44.5
q-24 -25 -69 -44t-117 -19q-88 0 -146.5 44t-68.5 135h128zM312 339q-60 0 -94.5 -38t-34.5 -97q0 -48 30 -79t78 -31q62 0 98.5 37.5t36.5 99.5q0 51 -32.5 79.5t-81.5 28.5z" />
    <glyph glyph-name="h" unicode="h" horiz-adv-x="536" 
d="M58 0l90 729h122l-44 -352q23 37 59 53.5t78 16.5q67 0 108.5 -32.5t41.5 -102.5q0 -18 -2.5 -34.5t-5.5 -39.5l-29 -238h-122l25 201q0 3 1 12t2 19.5l2 21t1 16.5q0 35 -18.5 54t-53.5 19q-28 0 -47 -10t-31 -26.5t-18.5 -39t-9.5 -46.5l-27 -221h-122z" />
    <glyph glyph-name="i" unicode="i" horiz-adv-x="238" 
d="M58 0l53 433h122l-53 -433h-122zM189 510q-27 0 -47 19.5t-20 46.5t20 46.5t47 19.5q28 0 48 -19.5t20 -46.5t-20 -46.5t-48 -19.5z" />
    <glyph glyph-name="j" unicode="j" horiz-adv-x="238" 
d="M30 -229l81 662h122l-81 -662h-122zM187 510q-27 0 -47 19.5t-20 46.5t20 46.5t47 19.5q28 0 48 -19.5t20 -46.5t-20 -46.5t-48 -19.5z" />
    <glyph glyph-name="k" unicode="k" horiz-adv-x="503" 
d="M148 729h122l-55 -446l180 150h149l-231 -192l187 -241h-146l-127 178l-28 -22l-19 -156h-122z" />
    <glyph glyph-name="l" unicode="l" horiz-adv-x="236" 
d="M270 729l-90 -729h-122l90 729h122z" />
    <glyph glyph-name="m" unicode="m" horiz-adv-x="787" 
d="M111 433h122l-6 -49q25 29 58 46t72 17q41 0 76 -20t51 -59q20 39 57 59t80 20q69 0 107 -33t38 -104q0 -14 -0.5 -23t-1 -16.5t-1.5 -14.5t-2 -17l-29 -239h-122l25 206q5 35 5.5 48t0.5 15q0 32 -15 53t-50 21q-26 0 -43 -13t-27.5 -32.5t-16 -42.5t-8.5 -44l-25 -211
h-122l25 201q0 4 1 13t2 19l2 20t1 16q0 32 -14 53t-49 21q-27 0 -45 -13t-28.5 -33.5t-15.5 -44.5t-8 -46l-25 -206h-122z" />
    <glyph glyph-name="n" unicode="n" horiz-adv-x="536" 
d="M58 0l53 433h122l-7 -56q23 37 59 53.5t78 16.5q67 0 108.5 -32.5t41.5 -102.5q0 -18 -2.5 -34.5t-5.5 -39.5l-29 -238h-122l25 201q0 3 1 12t2 19.5l2 21t1 16.5q0 35 -19 54t-54 19q-27 0 -46 -10t-31 -27t-18.5 -39t-9.5 -46l-27 -221h-122z" />
    <glyph glyph-name="o" unicode="o" 
d="M63 193q0 54 21 101.5t54 79.5q13 13 31.5 26t43 23.5t55 17t68.5 6.5q48 0 89 -13.5t72 -39.5t48.5 -64.5t17.5 -88.5q0 -42 -16 -90t-61 -92q-42 -42 -91.5 -57.5t-107.5 -15.5q-48 0 -89 13.5t-71 39.5t-47 65t-17 89zM189 201q0 -48 31.5 -77.5t78.5 -29.5
q28 0 52.5 10.5t43 29t29.5 43t11 52.5q0 48 -31.5 79t-79.5 31q-29 0 -54 -10.5t-43 -29.5t-28 -44t-10 -54z" />
    <glyph glyph-name="p" unicode="p" 
d="M30 -229l81 662h122l-7 -56q27 32 64 51t80 19q94 0 143.5 -54.5t49.5 -146.5q0 -53 -15 -100t-44.5 -82.5t-72.5 -56.5t-99 -21q-46 0 -82.5 15.5t-62.5 54.5l-35 -285h-122zM194 206q0 -52 30.5 -82t82.5 -30q30 0 53.5 10.5t40.5 29.5t26 44t9 54q0 49 -31 78t-79 29
q-28 0 -52 -10.5t-42 -28.5t-28 -42t-10 -52z" />
    <glyph glyph-name="q" unicode="q" horiz-adv-x="573" 
d="M258 -14q-46 0 -82.5 15.5t-61.5 43t-38 65.5t-13 83q0 52 16.5 98t46.5 80.5t73 55t97 20.5q43 0 81.5 -15.5t61.5 -54.5l7 56h122l-81 -662h-122l35 282q-26 -36 -62 -51.5t-80 -15.5zM325 339q-30 0 -54.5 -10.5t-42.5 -29t-27.5 -43.5t-9.5 -55q0 -48 31 -77.5
t79 -29.5q29 0 53.5 10.5t42 29.5t27 44t9.5 54q0 48 -30 77.5t-78 29.5z" />
    <glyph glyph-name="r" unicode="r" horiz-adv-x="360" 
d="M58 0l53 433h122l-8 -62q43 76 130 76q17 0 30 -2.5t27 -7.5l-36 -109q-22 11 -47 11q-32 0 -54.5 -14t-37.5 -36t-23 -50t-11 -55l-23 -184h-122z" />
    <glyph glyph-name="s" unicode="s" horiz-adv-x="400" 
d="M110 132q15 -21 39.5 -35.5t50.5 -14.5q25 0 44.5 11t19.5 40q0 6 -2 13t-9 14t-18 11t-25 10l-30 12q-38 15 -62 39.5t-24 69.5q0 36 13.5 63t36 45.5t53 27.5t63.5 9q42 0 74 -10t65 -34l-63 -75q-31 31 -72 31q-20 0 -35 -9t-15 -31q0 -14 9 -22t35 -16l37 -12
q45 -14 71 -43t26 -78q0 -40 -15.5 -70.5t-41 -50.5t-59.5 -30.5t-71 -10.5q-54 0 -93 17t-75 55z" />
    <glyph glyph-name="t" unicode="t" horiz-adv-x="270" 
d="M63 433h48l18 148h122l-18 -148h84l-13 -104h-84l-40 -329h-122l40 329h-48z" />
    <glyph glyph-name="u" unicode="u" horiz-adv-x="537" 
d="M79 142q0 13 1.5 29t4.5 39l27 223h122l-26 -216q-3 -26 -4 -36.5t-1 -15.5q0 -37 21 -56t58 -19q28 0 46 9t29 24.5t16.5 36.5t8.5 45l28 228h122l-29 -239q-4 -30 -10 -56.5t-16.5 -49t-27 -41t-40.5 -32.5q-29 -17 -63.5 -23t-65.5 -6q-38 0 -74 8t-64.5 26t-45.5 48
t-17 74z" />
    <glyph glyph-name="v" unicode="v" horiz-adv-x="504" 
d="M187 433l84 -244l144 244h140l-274 -433h-58l-168 433h132z" />
    <glyph glyph-name="w" unicode="w" horiz-adv-x="792" 
d="M55 433h133l83 -250l146 250h57l85 -250l145 250h139l-272 -433h-60l-84 253l-146 -253h-60z" />
    <glyph glyph-name="x" unicode="x" horiz-adv-x="558" 
d="M231 236l-145 197h147l77 -112l104 112h159l-193 -197l176 -236h-149l-105 151l-139 -151h-161z" />
    <glyph glyph-name="y" unicode="y" horiz-adv-x="538" 
d="M216 65l-161 368h138l104 -246l150 246h142l-430 -662h-138z" />
    <glyph glyph-name="z" unicode="z" horiz-adv-x="484" 
d="M239 104h229l-13 -104h-443l286 329h-208l13 104h422z" />
    <glyph glyph-name="braceleft" unicode="{" horiz-adv-x="502" 
d="M160 326q11 2 22.5 7t17.5 11q8 8 15 27t9 33l24 189q5 40 18 66.5t34.5 42t52 21.5t69.5 6q17 0 35 -0.5t29 -1.5l-13 -104h-18q-24 0 -41 -1t-28 -7.5t-17.5 -20t-9.5 -38.5l-19 -157q-5 -45 -20.5 -73.5t-55.5 -51.5q26 -14 37 -38.5t11 -52.5q0 -12 -1.5 -23.5
t-2.5 -20.5l-17 -137q-2 -18 -3 -24t-1 -11q0 -22 17 -32q11 -6 26.5 -7.5t37.5 -1.5h18l-13 -104q-11 -1 -29.5 -1.5t-34.5 -0.5q-27 0 -52.5 3.5t-45.5 14.5t-32.5 30.5t-12.5 51.5q0 13 2 27.5t4 31.5l20 155q1 8 1.5 15t0.5 13q0 24 -10.5 40t-36.5 20z" />
    <glyph glyph-name="bar" unicode="|" horiz-adv-x="377" 
d="M158 750h122v-1000h-122v1000z" />
    <glyph glyph-name="braceright" unicode="}" horiz-adv-x="502" 
d="M141 -180q-17 0 -35.5 0.5t-29.5 1.5l13 104h33q20 0 34 1.5t23.5 8t14.5 18.5t8 33l18 153q5 45 19.5 78t56.5 56q-26 13 -36.5 38t-10.5 52q0 24 3.5 57t7.5 65.5t7.5 58.5t3.5 36q0 29 -18 35.5t-43 6.5h-38l13 104q11 1 28 1.5t31 0.5q29 0 55.5 -3.5t47 -15t33 -32
t12.5 -54.5q0 -16 -4 -48t-9 -68t-9 -68.5t-4 -50.5q0 -24 11 -42.5t37 -20.5l-13 -104q-37 -8 -48.5 -30t-16.5 -57l-21 -172q-5 -42 -17.5 -69.5t-33.5 -44t-51.5 -23t-71.5 -6.5z" />
    <glyph glyph-name="asciitilde" unicode="~" horiz-adv-x="500" 
d="M32 228q12 25 28 50t36 45t45 32.5t56 12.5q21 0 40 -4.5t44 -14.5l33 -13q27 -11 43 -15.5t29 -4.5q29 0 48 15t33 39l66 -40q-13 -25 -29.5 -48.5t-37 -42t-46 -29.5t-55.5 -11t-51.5 7t-37.5 14l-31 13q-23 10 -38 14t-28 4q-31 0 -50 -18.5t-32 -44.5z" />
    <glyph glyph-name="uni00A0" unicode="&#xa0;" horiz-adv-x="233" 
 />
    <glyph glyph-name="exclamdown" unicode="&#xa1;" horiz-adv-x="252" 
d="M44 -230l57 464h124l-57 -464h-124zM172 294q-29 0 -50 18t-21 49q0 37 26 63t63 26q31 0 50 -20t19 -50q0 -38 -24.5 -62t-62.5 -24z" />
    <glyph glyph-name="cent" unicode="&#xa2;" horiz-adv-x="568" 
d="M136 312q0 49 15 92t43 76.5t67.5 55.5t89.5 28l11 91h82l-11 -93q41 -2 79 -22l-15 -120q-14 13 -38.5 25.5t-64.5 12.5q-29 0 -53 -10t-41 -28t-26.5 -42.5t-9.5 -52.5q0 -49 31.5 -80.5t80.5 -31.5q20 0 47.5 7.5t52.5 30.5l-14 -119q-41 -23 -84 -24l-11 -95h-82
l12 97q-38 7 -68 25t-50.5 45t-31.5 60.5t-11 71.5z" />
    <glyph glyph-name="sterling" unicode="&#xa3;" horiz-adv-x="568" 
d="M34 8q16 47 48.5 84.5t84.5 45.5q6 11 12 27.5t6 42.5q0 17 -3 38h-112l11 88h65q-5 11 -14 43.5t-9 74.5q0 57 19.5 100t53.5 72t80.5 43.5t100.5 14.5q102 0 159.5 -54.5t57.5 -157.5v-15t-1 -15h-133q1 5 1 10v11q0 48 -23.5 77.5t-73.5 29.5q-54 0 -83 -35.5
t-29 -86.5q0 -27 7 -50.5t20 -61.5h148l-11 -88h-120q1 -6 1 -12v-12q0 -32 -6 -55t-12 -37q38 -14 71.5 -27.5t60.5 -13.5t43 15.5t27 38.5l86 -19q-8 -30 -21 -55t-32 -44t-44 -29.5t-58 -10.5q-38 0 -67 8.5t-43 13.5l-35 13q-17 7 -34.5 11.5t-37.5 4.5
q-22 0 -41.5 -10.5t-27.5 -34.5z" />
    <glyph glyph-name="currency" unicode="&#xa4;" horiz-adv-x="667" 
d="M136 682l103 -103q38 30 72.5 37.5t63.5 7.5q38 0 74.5 -8t71.5 -37l103 103l66 -66l-103 -103q29 -37 37 -73.5t8 -65.5t-8 -65.5t-37 -73.5l103 -103l-66 -66l-103 103q-38 -29 -74 -37t-67 -8t-67 8t-74 37l-103 -103l-66 66l103 103q-29 37 -37 73.5t-8 65.5t8 65.5
t37 73.5l-103 103zM380 516q-63 0 -101.5 -40t-38.5 -102q0 -30 10.5 -56t29 -45t44 -30t56.5 -11q63 0 101.5 40t38.5 102t-38.5 102t-101.5 40z" />
    <glyph glyph-name="yen" unicode="&#xa5;" horiz-adv-x="568" 
d="M90 301h178l-28 63h-142l11 90h88l-103 213h144l106 -234l164 234h144l-155 -213h88l-11 -90h-142l-44 -63h178l-11 -90h-178l-26 -211h-120l26 211h-178z" />
    <glyph glyph-name="brokenbar" unicode="&#xa6;" horiz-adv-x="377" 
d="M158 750h122v-360h-122v360zM280 110v-360h-122v360h122z" />
    <glyph glyph-name="section" unicode="&#xa7;" horiz-adv-x="567" 
d="M212 10q0 -33 16 -59.5t53 -26.5q30 0 51 19.5t21 50.5q0 13 -7 27.5t-22 25.5q-9 7 -23 14.5t-40 19.5l-34 16q-55 26 -87 65.5t-32 103.5q0 30 9.5 58t27 50.5t41.5 39t53 25.5q-32 20 -50.5 48.5t-18.5 66.5q0 45 15.5 74.5t34.5 48.5q32 32 67.5 42t72.5 10
q84 0 134.5 -44.5t50.5 -131.5v-4h-120v4q0 33 -16.5 54.5t-51.5 21.5q-28 0 -48.5 -16.5t-20.5 -45.5q0 -26 23 -44q13 -11 29.5 -18.5t33.5 -15.5l41 -19q55 -26 87.5 -65t32.5 -103q0 -66 -28.5 -114.5t-92.5 -71.5q30 -20 44 -49.5t14 -64.5q0 -44 -14.5 -78t-40.5 -57
t-61.5 -35t-78.5 -12q-88 0 -137.5 51t-49.5 139h122zM325 367q-45 0 -66.5 -27t-21.5 -69q0 -36 22 -57t57 -21q42 0 65.5 26.5t23.5 67.5q0 35 -22.5 57.5t-57.5 22.5z" />
    <glyph glyph-name="dieresis" unicode="&#xa8;" horiz-adv-x="500" 
d="M354 578q0 33 24.5 56.5t57.5 23.5q28 0 45 -18.5t17 -45.5q0 -17 -6.5 -31.5t-18 -25t-26 -17t-30.5 -6.5q-28 0 -45.5 18.5t-17.5 45.5zM209 514q-28 0 -45.5 18.5t-17.5 45.5q0 33 24.5 56.5t57.5 23.5q28 0 45 -18.5t17 -45.5q0 -17 -6.5 -31.5t-18 -25t-26 -17
t-30.5 -6.5z" />
    <glyph glyph-name="copyright" unicode="&#xa9;" horiz-adv-x="760" 
d="M421 -15q-74 0 -137 27t-110 74t-73.5 110.5t-26.5 137.5q0 73 26.5 136.5t73.5 110.5t110 74t137 27q73 0 136.5 -27t110.5 -74t73.5 -111t26.5 -137t-26.5 -136.5t-73.5 -110.5t-110.5 -74t-136.5 -27zM421 620q-59 0 -110 -23t-88 -62t-58 -91t-21 -110q0 -59 21 -111
t58 -91t87.5 -62t110.5 -23q59 0 110 23t88 62t58 91t21 111q0 58 -21 110t-58 91t-88 62t-110 23zM223 326q0 49 15.5 88.5t44 68t68.5 44t89 15.5q36 0 63.5 -7.5t48.5 -18.5v-109q-23 23 -47 38t-59 15q-57 0 -92 -36.5t-35 -93.5t35 -90.5t91 -33.5q35 0 59.5 13.5
t47.5 38.5v-109q-31 -16 -60.5 -20.5t-58.5 -4.5q-45 0 -83.5 14.5t-66.5 40.5t-44 63.5t-16 83.5z" />
    <glyph glyph-name="ordfeminine" unicode="&#xaa;" horiz-adv-x="343" 
d="M203 386q-54 0 -86 34.5t-32 88.5q0 31 11 60t31 50.5t47 34.5t60 13q25 0 46.5 -9.5t33.5 -32.5l4 34h74l-33 -264h-74l5 35q-15 -23 -37.5 -33.5t-49.5 -10.5zM239 600q-35 0 -56 -23.5t-21 -57.5q0 -29 19 -47.5t48 -18.5q34 0 57.5 22t23.5 57q0 32 -19.5 50
t-51.5 18zM77 347h277l-7 -56h-277z" />
    <glyph glyph-name="guillemotleft" unicode="&#xab;" horiz-adv-x="514" 
d="M275 55l-76 -50l-132 214l184 214l64 -52l-142 -164zM471 55l-76 -50l-132 214l184 214l64 -52l-142 -164z" />
    <glyph glyph-name="logicalnot" unicode="&#xac;" horiz-adv-x="500" 
d="M364 0v157h-312v112h434v-269h-122z" />
    <glyph glyph-name="uni00AD" unicode="&#xad;" horiz-adv-x="360" 
d="M85 286h260l-14 -112h-260z" />
    <glyph glyph-name="registered" unicode="&#xae;" horiz-adv-x="760" 
d="M74 334q0 74 26.5 137.5t73 110.5t110 73.5t137.5 26.5t137.5 -27t110 -74t73 -111t26.5 -138t-26.5 -137.5t-73 -110t-110 -73t-137.5 -26.5q-75 0 -138.5 26.5t-110 73.5t-72.5 111t-26 138zM144 335q0 -59 20.5 -111.5t57.5 -91.5t88 -62t111 -23q58 0 108.5 23t88 62
t59 90.5t21.5 108.5q0 58 -21 110.5t-58 92.5t-87.5 63t-110.5 23q-59 0 -109.5 -23t-87.5 -62t-58.5 -90.5t-21.5 -109.5zM422 527q57 0 92 -27.5t35 -87.5q0 -43 -24 -69.5t-66 -33.5l121 -156h-89l-111 143v-143h-76v374h118zM380 358h30q26 0 43 12.5t17 40.5
q0 29 -15.5 39.5t-41.5 10.5h-33v-103z" />
    <glyph glyph-name="macron" unicode="&#xaf;" horiz-adv-x="500" 
d="M146 619h364l-10 -80h-364z" />
    <glyph glyph-name="degree" unicode="&#xb0;" horiz-adv-x="503" 
d="M314 363q-32 0 -60 12t-49 33t-33 48.5t-12 59.5q0 31 12 58.5t33 48t49 32.5t60 12t60.5 -12t49.5 -32.5t33 -48t12 -58.5q0 -32 -12 -59.5t-33 -48.5t-49.5 -33t-60.5 -12zM238 516q0 -32 22 -54t54 -22t54.5 22t22.5 53q0 32 -22.5 54t-54.5 22t-54 -22t-22 -53z" />
    <glyph glyph-name="plusminus" unicode="&#xb1;" horiz-adv-x="500" 
d="M221 467v156h122v-156h156v-112h-156v-156h-122v156h-156v112h156zM499 164v-112h-434v112h434z" />
    <glyph glyph-name="twosuperior" unicode="&#xb2;" horiz-adv-x="380" 
d="M57 267l164 162q29 29 41 41.5t19 20.5q14 17 19.5 32.5t5.5 28.5q0 27 -16.5 39.5t-41.5 12.5q-28 0 -44.5 -17.5t-18.5 -44.5h-84q8 61 48 97.5t103 36.5q27 0 52 -7.5t44 -22.5t30.5 -37.5t11.5 -51.5q0 -24 -8 -45t-20.5 -40t-29 -36t-32.5 -32l-70 -65h136l-9 -72
h-300z" />
    <glyph glyph-name="threesuperior" unicode="&#xb3;" horiz-adv-x="380" 
d="M160 387q2 -29 19.5 -43t45.5 -14q29 0 47.5 17t18.5 46q0 32 -21 42t-47 10h-12l8 66h9q28 0 50 10t22 43q0 23 -15 34.5t-37 11.5q-24 0 -38 -14.5t-18 -37.5h-78q11 57 47.5 87.5t94.5 30.5q26 0 49 -6.5t40.5 -20t27.5 -34t10 -48.5q0 -31 -16 -56t-47 -33
q54 -25 54 -86q0 -34 -11.5 -59.5t-32 -42t-48.5 -24.5t-60 -8q-30 0 -56.5 8t-46.5 24.5t-31.5 40.5t-11.5 56h84z" />
    <glyph glyph-name="acute" unicode="&#xb4;" horiz-adv-x="500" 
d="M485 644l-166 -134l-51 40l136 150z" />
    <glyph glyph-name="uni00B5" unicode="&#xb5;" horiz-adv-x="560" 
d="M30 -230l81 663h122l-22 -186q0 -3 -1 -10t-2 -16t-1.5 -18.5t-0.5 -16.5q0 -44 21.5 -73t68.5 -29q34 0 54.5 13t32 34t17 48t8.5 54l25 200h122l-53 -433h-122l6 54q-17 -32 -42 -50t-62 -18q-38 0 -61.5 22.5t-32.5 57.5l-36 -296h-122z" />
    <glyph glyph-name="uni00B5" unicode="&#x3bc;" horiz-adv-x="560" 
d="M30 -230l81 663h122l-22 -186q0 -3 -1 -10t-2 -16t-1.5 -18.5t-0.5 -16.5q0 -44 21.5 -73t68.5 -29q34 0 54.5 13t32 34t17 48t8.5 54l25 200h122l-53 -433h-122l6 54q-17 -32 -42 -50t-62 -18q-38 0 -61.5 22.5t-32.5 57.5l-36 -296h-122z" />
    <glyph glyph-name="paragraph" unicode="&#xb6;" horiz-adv-x="656" 
d="M252 320q-73 0 -119.5 38.5t-46.5 114.5q0 48 13.5 80t33.5 54q36 38 85.5 49t114.5 11h333l-12 -94h-70l-81 -666h-104l81 666h-86l-81 -666h-104l50 413h-7v0z" />
    <glyph glyph-name="periodcentered" unicode="&#xb7;" horiz-adv-x="202" 
d="M43 325q0 21 8.5 40t22.5 33t33 22.5t40 8.5q36 0 59 -22t23 -58q0 -45 -28.5 -74.5t-73.5 -29.5q-36 0 -60 21t-24 59z" />
    <glyph glyph-name="cedilla" unicode="&#xb8;" horiz-adv-x="500" 
d="M348 -90l-142 -146l-64 36l118 154z" />
    <glyph glyph-name="onesuperior" unicode="&#xb9;" horiz-adv-x="380" 
d="M239 595h-80l9 72h164l-49 -400h-84z" />
    <glyph glyph-name="ordmasculine" unicode="&#xba;" horiz-adv-x="333" 
d="M221 386q-62 0 -101.5 34t-39.5 98q0 34 12 61.5t33.5 47t50 30t61.5 10.5q61 0 100.5 -36t39.5 -98q0 -35 -12 -62t-33 -46t-49.5 -29t-61.5 -10zM232 600q-36 0 -56 -22t-20 -57q0 -30 17.5 -49t48.5 -19q36 0 57.5 21t21.5 57q0 32 -18.5 50.5t-50.5 18.5zM72 347h274
l-6 -56h-274z" />
    <glyph glyph-name="guillemotright" unicode="&#xbb;" horiz-adv-x="514" 
d="M97 383l76 50l132 -214l-184 -214l-64 52l142 164zM293 383l76 50l132 -214l-184 -214l-64 52l142 164z" />
    <glyph glyph-name="onequarter" unicode="&#xbc;" horiz-adv-x="862" 
d="M519 111l234 289h80l-31 -256h47l-9 -68h-47l-9 -76h-80l9 76h-199zM708 689l49 -30l-481 -687l-50 31zM159 595l9 72h164l-49 -400h-84l40 328h-80zM627 144h95l17 145z" />
    <glyph glyph-name="onehalf" unicode="&#xbd;" horiz-adv-x="861" 
d="M504 0l164 162q29 29 41 41.5t19 20.5q14 17 19.5 32.5t5.5 28.5q0 27 -16.5 39.5t-41.5 12.5q-28 0 -44.5 -17.5t-18.5 -44.5h-84q8 61 48 97.5t103 36.5q27 0 52 -7.5t44 -22.5t30.5 -37.5t11.5 -51.5q0 -24 -8 -45t-20.5 -40t-29 -36t-32.5 -32l-70 -65h136l-9 -72
h-300zM186 3l482 686l49 -30l-481 -687zM159 595l9 72h164l-49 -400h-84l40 328h-80z" />
    <glyph glyph-name="threequarters" unicode="&#xbe;" horiz-adv-x="860" 
d="M512 76l5 35l234 289h80l-31 -256h47l-9 -68h-47l-9 -76h-80l9 76h-199zM160 387q2 -29 19.5 -43t45.5 -14q29 0 47.5 17t18.5 46q0 32 -21 42t-47 10h-12l8 66h9q28 0 50 10t22 43q0 23 -15 34.5t-37 11.5q-24 0 -38 -14.5t-18 -37.5h-78q11 57 47.5 87.5t94.5 30.5
q26 0 49 -6.5t40.5 -20t27.5 -34t10 -48.5q0 -31 -16 -56t-47 -33q54 -26 54 -85q0 -35 -11.5 -60t-32 -42t-48.5 -25t-60 -8q-30 0 -56.5 8t-46.5 24.5t-31.5 40.5t-11.5 56h84zM718 689l49 -30l-481 -687l-50 31zM625 144h95l17 145z" />
    <glyph glyph-name="questiondown" unicode="&#xbf;" horiz-adv-x="492" 
d="M43 -64q0 42 13.5 77.5t38.5 62t60 41.5t78 15l13 105h124l-24 -196q-19 4 -44 4q-24 0 -47 -6.5t-41 -19.5t-29 -33t-11 -47q0 -34 19.5 -53.5t53.5 -19.5q39 0 57 23.5t18 59.5h130q-2 -32 -15.5 -69t-38.5 -64q-17 -18 -36.5 -29.5t-40 -18t-41 -8.5t-38.5 -2
q-42 0 -78 11t-63 33.5t-42.5 55.5t-15.5 78zM246 361q0 37 26 63t63 26q31 0 50 -20t19 -50q0 -38 -24.5 -62t-62.5 -24q-29 0 -50 18t-21 49z" />
    <glyph glyph-name="Agrave" unicode="&#xc0;" horiz-adv-x="672" 
d="M375 667h98l197 -667h-137l-42 140h-269l-76 -140h-144zM276 246h190l-64 240zM311 845l76 63l115 -136l-51 -43z" />
    <glyph glyph-name="Aacute" unicode="&#xc1;" horiz-adv-x="672" 
d="M375 667h98l197 -667h-137l-42 140h-269l-76 -140h-144zM276 246h190l-64 240zM360 772l135 136l76 -63l-160 -116z" />
    <glyph glyph-name="Acircumflex" unicode="&#xc2;" horiz-adv-x="672" 
d="M375 667h98l197 -667h-137l-42 140h-269l-76 -140h-144zM279 778l168 126l139 -126l-57 -49l-91 75l-107 -75zM276 246h190l-64 240z" />
    <glyph glyph-name="Atilde" unicode="&#xc3;" horiz-adv-x="672" 
d="M2 0l373 667h98l197 -667h-137l-42 140h-269l-76 -140h-144zM273 793q14 28 39.5 50.5t63.5 22.5h2q22 0 37 -6.5t27 -14.5t24 -14.5t29 -6.5q11 0 28 10.5t25 35.5l45 -54q-20 -32 -44.5 -54t-63.5 -22h-2q-21 0 -36 6.5t-27.5 14t-24.5 14t-27 6.5q-9 0 -23.5 -7.5
t-25.5 -30.5zM276 246h190l-64 240z" />
    <glyph glyph-name="Adieresis" unicode="&#xc4;" horiz-adv-x="672" 
d="M2 0l373 667h98l197 -667h-137l-42 140h-269l-76 -140h-144zM276 246h190l-64 240zM535 739q-27 0 -46 16t-19 45q0 34 22.5 58.5t57.5 24.5q27 0 45.5 -17.5t18.5 -45.5q0 -33 -23 -57t-56 -24zM311 739q-27 0 -46 16t-19 45q0 34 22.5 58.5t57.5 24.5q27 0 45.5 -17.5
t18.5 -45.5q0 -33 -23 -57t-56 -24z" />
    <glyph glyph-name="Aring" unicode="&#xc5;" horiz-adv-x="672" 
d="M2 0l373 667h98l197 -667h-137l-42 140h-269l-76 -140h-144zM428 722q-38 0 -64.5 23.5t-26.5 62.5q0 23 9 43.5t24 35.5t35 24t43 9q40 0 64.5 -25.5t24.5 -64.5q0 -23 -8.5 -42.5t-23.5 -34t-35 -23t-42 -8.5zM276 246h190l-64 240zM397 815q0 -15 11 -24.5t25 -9.5
q20 0 32 14t12 33q0 15 -10.5 24t-24.5 9q-19 0 -32 -14t-13 -32z" />
    <glyph glyph-name="AE" unicode="&#xc6;" horiz-adv-x="920" 
d="M377 667h352l30 -112h-245l42 -149h241l32 -112h-242l51 -182h246l30 -112h-381l-42 140h-269l-76 -140h-140zM466 246l-62 240l-128 -240h190z" />
    <glyph glyph-name="Ccedilla" unicode="&#xc7;" horiz-adv-x="607" 
d="M85 291q0 95 30.5 168.5t76.5 120.5q32 33 68 53t72 31t70 14.5t64 3.5q32 0 77 -6.5t99 -34.5l-18 -150q-21 24 -44.5 38.5t-46 22t-43 10t-36.5 2.5q-55 0 -98.5 -20t-73.5 -54.5t-46 -81t-16 -98.5q0 -45 14 -83t40 -65.5t63 -43.5t83 -16q38 0 66 8.5t48 20t32.5 24
t18.5 21.5l-19 -152q-20 -11 -60.5 -25t-104.5 -14q-69 0 -127 21t-100 61t-65.5 96.5t-23.5 127.5zM374 -46l96 -44l-150 -154l-70 36z" />
    <glyph glyph-name="Egrave" unicode="&#xc8;" horiz-adv-x="496" 
d="M76 0l82 667h370l-14 -112h-240l-18 -149h230l-14 -112h-230l-22 -182h240l-14 -112h-370zM314 908l115 -136l-51 -43l-140 116z" />
    <glyph glyph-name="Eacute" unicode="&#xc9;" horiz-adv-x="496" 
d="M76 0l82 667h370l-14 -112h-240l-18 -149h230l-14 -112h-230l-22 -182h240l-14 -112h-370zM428 908l76 -63l-160 -116l-51 43z" />
    <glyph glyph-name="Ecircumflex" unicode="&#xca;" horiz-adv-x="496" 
d="M76 0l82 667h370l-14 -112h-240l-18 -149h230l-14 -112h-230l-22 -182h240l-14 -112h-370zM368 904l139 -126l-57 -49l-91 75l-107 -75l-52 49z" />
    <glyph glyph-name="Edieresis" unicode="&#xcb;" horiz-adv-x="496" 
d="M76 0l82 667h370l-14 -112h-240l-18 -149h230l-14 -112h-230l-22 -182h240l-14 -112h-370zM465 739q-27 0 -46 16t-19 45q0 34 22.5 58.5t57.5 24.5q27 0 45.5 -17.5t18.5 -45.5q0 -33 -23 -57t-56 -24zM176 800q0 34 22.5 58.5t57.5 24.5q27 0 45.5 -17.5t18.5 -45.5
q0 -33 -23 -57t-56 -24q-27 0 -46 16t-19 45z" />
    <glyph glyph-name="Igrave" unicode="&#xcc;" horiz-adv-x="282" 
d="M288 667l-82 -667h-130l82 667h130zM114 845l76 63l115 -136l-51 -43z" />
    <glyph glyph-name="Iacute" unicode="&#xcd;" horiz-adv-x="282" 
d="M288 667l-82 -667h-130l82 667h130zM211 729l-51 43l135 136l76 -63z" />
    <glyph glyph-name="Icircumflex" unicode="&#xce;" horiz-adv-x="282" 
d="M288 667l-82 -667h-130l82 667h130zM140 742l-47 54l161 124l131 -124l-61 -54l-82 80z" />
    <glyph glyph-name="Idieresis" unicode="&#xcf;" horiz-adv-x="282" 
d="M158 667h130l-82 -667h-130zM105 798q0 14 4.5 29t13.5 27.5t21.5 20.5t28.5 8q24 0 37 -20t13 -42q0 -14 -4.5 -28.5t-13.5 -26.5t-21.5 -19.5t-27.5 -7.5q-23 0 -37 19t-14 40zM306 739q-23 0 -37 19t-14 40q0 14 4.5 29t13.5 27.5t21.5 20.5t28.5 8q24 0 37 -20
t13 -42q0 -14 -4.5 -28.5t-13.5 -26.5t-21.5 -19.5t-27.5 -7.5z" />
    <glyph glyph-name="Eth" unicode="&#xd0;" horiz-adv-x="673" 
d="M41 416h86l31 251h174q73 0 135 -18.5t107 -56t70.5 -94.5t25.5 -134q0 -59 -11 -103t-26.5 -76t-32 -52.5t-28.5 -31.5q-57 -55 -133.5 -78t-182.5 -23h-180l39 316h-86zM264 112q66 0 119.5 15t91.5 57q32 35 46.5 82.5t14.5 94.5q0 50 -17 86.5t-47 60.5t-70.5 35.5
t-87.5 11.5h-40l-17 -139h122l-12 -100h-122l-25 -204h44z" />
    <glyph glyph-name="Ntilde" unicode="&#xd1;" horiz-adv-x="778" 
d="M158 667h92l349 -445l55 445h130l-82 -667h-92l-349 447l-55 -447h-130zM289 789q10 16 24 32t30.5 28.5t35 20.5t39.5 8q20 0 37 -6.5t31 -12.5l38 -16q14 -6 26.5 -10t23.5 -4q20 0 32 12t21 28l62 -48q-11 -15 -24 -31t-28 -29t-33 -21t-38 -8q-17 0 -36.5 5.5
t-37.5 13.5l-33 14q-15 6 -26.5 11t-23.5 5q-17 0 -32.5 -12.5t-23.5 -27.5z" />
    <glyph glyph-name="Ograve" unicode="&#xd2;" horiz-adv-x="806" 
d="M173 78q-42 42 -65 100t-23 121q0 86 31 156.5t84.5 121t126.5 78t157 27.5q69 0 127.5 -22t101 -62t66.5 -97t24 -127q0 -80 -28 -154t-79 -126q-20 -21 -47 -40.5t-61.5 -34.5t-76.5 -24.5t-93 -9.5q-49 0 -88 9t-69 22.5t-51.5 30t-36.5 31.5zM463 563
q-54 0 -98.5 -19.5t-77 -54t-50 -81t-17.5 -99.5q0 -46 15 -84t42 -65t64.5 -42t83.5 -15q54 0 98.5 21t77 57t50 83.5t17.5 99.5q0 46 -15 82.5t-42.5 62.5t-65 40t-82.5 14zM363 845l76 63l115 -136l-51 -43z" />
    <glyph glyph-name="Oacute" unicode="&#xd3;" horiz-adv-x="806" 
d="M85 299q0 86 31 156.5t84.5 121t126.5 78t157 27.5q69 0 127.5 -22t101 -62t66.5 -97t24 -127q0 -80 -28 -154t-79 -126q-20 -21 -47 -40.5t-61.5 -34.5t-76.5 -24.5t-93 -9.5q-49 0 -88 9t-69 22.5t-51.5 30t-36.5 31.5q-42 42 -65 100t-23 121zM220 309q0 -46 15 -84
t42 -65t64.5 -42t83.5 -15q54 0 98.5 21t77 57t50 83.5t17.5 99.5q0 46 -15 82.5t-42.5 62.5t-65 40t-82.5 14q-54 0 -98.5 -19.5t-77 -54t-50 -81t-17.5 -99.5zM419 772l135 136l76 -63l-160 -116z" />
    <glyph glyph-name="Ocircumflex" unicode="&#xd4;" horiz-adv-x="806" 
d="M173 78q-42 42 -65 100t-23 121q0 86 31 156.5t84.5 121t126.5 78t157 27.5q69 0 127.5 -22t101 -62t66.5 -97t24 -127q0 -80 -28 -154t-79 -126q-20 -21 -47 -40.5t-61.5 -34.5t-76.5 -24.5t-93 -9.5q-49 0 -88 9t-69 22.5t-51.5 30t-36.5 31.5zM463 563
q-54 0 -98.5 -19.5t-77 -54t-50 -81t-17.5 -99.5q0 -46 15 -84t42 -65t64.5 -42t83.5 -15q54 0 98.5 21t77 57t50 83.5t17.5 99.5q0 46 -15 82.5t-42.5 62.5t-65 40t-82.5 14zM512 904l139 -126l-57 -49l-91 75l-107 -75l-52 49z" />
    <glyph glyph-name="Otilde" unicode="&#xd5;" horiz-adv-x="806" 
d="M173 78q-42 42 -65 100t-23 121q0 86 31 156.5t84.5 121t126.5 78t157 27.5q69 0 127.5 -22t101 -62t66.5 -97t24 -127q0 -80 -28 -154t-79 -126q-20 -21 -47 -40.5t-61.5 -34.5t-76.5 -24.5t-93 -9.5q-49 0 -88 9t-69 22.5t-51.5 30t-36.5 31.5zM220 309q0 -46 15 -84
t42 -65t64.5 -42t83.5 -15q54 0 98.5 21t77 57t50 83.5t17.5 99.5q0 46 -15 82.5t-42.5 62.5t-65 40t-82.5 14q-54 0 -98.5 -19.5t-77 -54t-50 -81t-17.5 -99.5zM338 793q14 28 39.5 50.5t63.5 22.5h2q22 0 37 -6.5t27 -14.5t24 -14.5t29 -6.5q11 0 28 10.5t25 35.5l45 -54
q-20 -32 -44.5 -54t-63.5 -22h-2q-21 0 -36 6.5t-27.5 14t-24.5 14t-27 6.5q-9 0 -23.5 -7.5t-25.5 -30.5z" />
    <glyph glyph-name="Odieresis" unicode="&#xd6;" horiz-adv-x="806" 
d="M173 78q-42 42 -65 100t-23 121q0 86 31 156.5t84.5 121t126.5 78t157 27.5q69 0 127.5 -22t101 -62t66.5 -97t24 -127q0 -80 -28 -154t-79 -126q-20 -21 -47 -40.5t-61.5 -34.5t-76.5 -24.5t-93 -9.5q-49 0 -88 9t-69 22.5t-51.5 30t-36.5 31.5zM463 563
q-54 0 -98.5 -19.5t-77 -54t-50 -81t-17.5 -99.5q0 -46 15 -84t42 -65t64.5 -42t83.5 -15q54 0 98.5 21t77 57t50 83.5t17.5 99.5q0 46 -15 82.5t-42.5 62.5t-65 40t-82.5 14zM520 800q0 34 22.5 58.5t57.5 24.5q27 0 45.5 -17.5t18.5 -45.5q0 -33 -23 -57t-56 -24
q-27 0 -46 16t-19 45zM296 800q0 34 22.5 58.5t57.5 24.5q27 0 45.5 -17.5t18.5 -45.5q0 -33 -23 -57t-56 -24q-27 0 -46 16t-19 45z" />
    <glyph glyph-name="multiply" unicode="&#xd7;" horiz-adv-x="500" 
d="M208 339l-124 124l82 82l124 -124l124 124l82 -82l-124 -124l124 -124l-82 -82l-124 124l-124 -124l-82 82z" />
    <glyph glyph-name="Oslash" unicode="&#xd8;" horiz-adv-x="840" 
d="M45 31l105 94q-27 42 -39 85t-12 94q0 82 30.5 151.5t83 120t123.5 78.5t152 28q65 0 116.5 -16t99.5 -49l103 91l64 -73l-101 -90q21 -37 34 -79t13 -95q0 -78 -28 -151.5t-79 -125.5q-20 -21 -47 -40.5t-61.5 -35t-76.5 -24.5t-93 -9q-63 0 -114 15t-102 53l-107 -95z
M234 309q0 -28 4.5 -50t14.5 -43l350 311q-26 16 -56 26t-70 10q-54 0 -99 -19.5t-77 -54t-49.5 -81t-17.5 -99.5zM314 140q33 -20 65.5 -28.5t59.5 -8.5q54 0 98.5 21t77 57t50 83.5t17.5 99.5q0 22 -4 43t-14 44z" />
    <glyph glyph-name="Ugrave" unicode="&#xd9;" horiz-adv-x="686" 
d="M105 206q0 10 1 26t2.5 32.5t3 31.5t2.5 23l42 348h130l-45 -369q-1 -8 -2 -18.5l-2 -21t-2 -20t-1 -14.5q0 -58 34 -89.5t91 -31.5q29 0 53 7.5t41 20.5q18 13 29 30.5t17 38t9.5 43.5t6.5 47l47 377h130l-48 -391q-4 -29 -8.5 -59t-12.5 -58.5t-22 -55t-36 -48.5
q-24 -24 -51 -38t-54.5 -21t-54 -9t-47.5 -2q-55 0 -101.5 12.5t-80 39t-52.5 68.5t-19 101zM313 845l76 63l115 -136l-51 -43z" />
    <glyph glyph-name="Uacute" unicode="&#xda;" horiz-adv-x="686" 
d="M358 -15q-55 0 -101.5 12.5t-80 39t-52.5 68.5t-19 101q0 10 1 26t2.5 32.5t3 31.5t2.5 23l42 348h130l-45 -369q-1 -8 -2 -18.5l-2 -21t-2 -20t-1 -14.5q0 -58 34 -89.5t91 -31.5q29 0 53 7.5t41 20.5q18 13 29 30.5t17 38t9.5 43.5t6.5 47l47 377h130l-48 -391
q-4 -29 -8.5 -59t-12.5 -58.5t-22 -55t-36 -48.5q-24 -24 -51 -38t-54.5 -21t-54 -9t-47.5 -2zM502 908l76 -63l-160 -116l-51 43z" />
    <glyph glyph-name="Ucircumflex" unicode="&#xdb;" horiz-adv-x="686" 
d="M358 -15q-55 0 -101.5 12.5t-80 39t-52.5 68.5t-19 101q0 10 1 26t2.5 32.5t3 31.5t2.5 23l42 348h130l-45 -369q-1 -8 -2 -18.5l-2 -21t-2 -20t-1 -14.5q0 -58 34 -89.5t91 -31.5q29 0 53 7.5t41 20.5q18 13 29 30.5t17 38t9.5 43.5t6.5 47l47 377h130l-48 -391
q-4 -29 -8.5 -59t-12.5 -58.5t-22 -55t-36 -48.5q-24 -24 -51 -38t-54.5 -21t-54 -9t-47.5 -2zM454 930l164 -134l-66 -64l-109 88l-131 -88l-54 64z" />
    <glyph glyph-name="Udieresis" unicode="&#xdc;" horiz-adv-x="686" 
d="M358 -15q-55 0 -101.5 12.5t-80 39t-52.5 68.5t-19 101q0 10 1 26t2.5 32.5t3 31.5t2.5 23l42 348h130l-45 -369q-1 -8 -2 -18.5l-2 -21t-2 -20t-1 -14.5q0 -58 34 -89.5t91 -31.5q29 0 53 7.5t41 20.5q18 13 29 30.5t17 38t9.5 43.5t6.5 47l47 377h130l-48 -391
q-4 -29 -8.5 -59t-12.5 -58.5t-22 -55t-36 -48.5q-24 -24 -51 -38t-54.5 -21t-54 -9t-47.5 -2zM545 739q-27 0 -46 16t-19 45q0 34 22.5 58.5t57.5 24.5q27 0 45.5 -17.5t18.5 -45.5q0 -33 -23 -57t-56 -24zM321 739q-27 0 -46 16t-19 45q0 34 22.5 58.5t57.5 24.5
q27 0 45.5 -17.5t18.5 -45.5q0 -33 -23 -57t-56 -24z" />
    <glyph glyph-name="Yacute" unicode="&#xdd;" horiz-adv-x="590" 
d="M80 667h148l114 -232l172 232h160l-280 -362l-37 -305h-130l37 305zM309 772l135 136l76 -63l-160 -116z" />
    <glyph glyph-name="Thorn" unicode="&#xde;" horiz-adv-x="534" 
d="M76 0l82 667h130l-11 -90h60q105 0 163.5 -46.5t58.5 -154.5q0 -59 -18 -100.5t-51 -67.5t-78.5 -38.5t-100.5 -12.5h-86l-19 -157h-130zM239 269h55q27 0 51 5t42 17t28.5 32.5t10.5 51.5q0 27 -9.5 44t-25.5 27.5t-37.5 14.5t-44.5 4h-46z" />
    <glyph glyph-name="germandbls" unicode="&#xdf;" horiz-adv-x="570" 
d="M58 0l63 506q3 21 6.5 43.5t11 45t19.5 44.5t32 42q19 19 40 31t42 18.5t41.5 8.5t37.5 2q42 0 78.5 -11t63 -33t42 -55.5t15.5 -77.5q0 -51 -27 -91.5t-75 -59.5q57 -23 85 -67.5t28 -105.5q0 -57 -19 -100t-55 -78q-47 -45 -104 -60.5t-118 -15.5h-9l14 108
q33 0 62.5 10t51.5 29t35 47t13 63q0 58 -36.5 83.5t-90.5 25.5h-5l13 104q22 0 43 6t37 18.5t26 31t10 42.5q0 38 -23.5 58.5t-59.5 20.5q-29 0 -48 -10.5t-30.5 -28.5t-17.5 -41t-9 -48l-61 -505h-122z" />
    <glyph glyph-name="agrave" unicode="&#xe0;" 
d="M263 -14q-46 0 -83 15.5t-63 43t-40 66t-14 83.5q0 54 16 100.5t47 80t75 53t100 19.5q42 0 78.5 -17t58.5 -53l7 56h122l-53 -433h-122l7 56q-26 -34 -60 -52t-76 -18zM318 339q-28 0 -51.5 -10t-40.5 -27.5t-26.5 -41.5t-9.5 -52q0 -53 30 -83.5t83 -30.5q59 0 94 38.5
t35 96.5q0 50 -32.5 80t-81.5 30zM197 616l76 63l115 -136l-51 -43z" />
    <glyph glyph-name="aacute" unicode="&#xe1;" 
d="M63 194q0 54 16 100.5t47 80t75 53t100 19.5q42 0 78.5 -17t58.5 -53l7 56h122l-53 -433h-122l7 56q-26 -34 -60 -52t-76 -18q-46 0 -83 15.5t-63 43t-40 66t-14 83.5zM318 339q-28 0 -51.5 -10t-40.5 -27.5t-26.5 -41.5t-9.5 -52q0 -53 30 -83.5t83 -30.5q59 0 94 38.5
t35 96.5q0 50 -32.5 80t-81.5 30zM274 543l135 136l76 -63l-160 -116z" />
    <glyph glyph-name="acircumflex" unicode="&#xe2;" 
d="M263 -14q-46 0 -83 15.5t-63 43t-40 66t-14 83.5q0 54 16 100.5t47 80t75 53t100 19.5q42 0 78.5 -17t58.5 -53l7 56h122l-53 -433h-122l7 56q-26 -34 -60 -52t-76 -18zM318 339q-28 0 -51.5 -10t-40.5 -27.5t-26.5 -41.5t-9.5 -52q0 -53 30 -83.5t83 -30.5q59 0 94 38.5
t35 96.5q0 50 -32.5 80t-81.5 30zM182 549l168 126l139 -126l-57 -49l-91 75l-107 -75z" />
    <glyph glyph-name="atilde" unicode="&#xe3;" 
d="M263 -14q-46 0 -83 15.5t-63 43t-40 66t-14 83.5q0 54 16 100.5t47 80t75 53t100 19.5q42 0 78.5 -17t58.5 -53l7 56h122l-53 -433h-122l7 56q-26 -34 -60 -52t-76 -18zM190 208q0 -53 30 -83.5t83 -30.5q59 0 94 38.5t35 96.5q0 50 -32.5 80t-81.5 30q-28 0 -51.5 -10
t-40.5 -27.5t-26.5 -41.5t-9.5 -52zM188 564q14 28 39.5 50.5t63.5 22.5h2q22 0 37 -6.5t27 -14.5t24 -14.5t29 -6.5q11 0 28 10.5t25 35.5l45 -54q-20 -32 -44.5 -54t-63.5 -22h-2q-21 0 -36 6.5t-27.5 14t-24.5 14t-27 6.5q-9 0 -23.5 -7.5t-25.5 -30.5z" />
    <glyph glyph-name="adieresis" unicode="&#xe4;" 
d="M263 -14q-46 0 -83 15.5t-63 43t-40 66t-14 83.5q0 54 16 100.5t47 80t75 53t100 19.5q42 0 78.5 -17t58.5 -53l7 56h122l-53 -433h-122l7 56q-26 -34 -60 -52t-76 -18zM190 208q0 -53 30 -83.5t83 -30.5q59 0 94 38.5t35 96.5q0 50 -32.5 80t-81.5 30q-28 0 -51.5 -10
t-40.5 -27.5t-26.5 -41.5t-9.5 -52zM457 514q-28 0 -45.5 18.5t-17.5 45.5q0 33 24.5 56.5t57.5 23.5q28 0 45 -18.5t17 -45.5q0 -17 -6.5 -31.5t-18 -25t-26 -17t-30.5 -6.5zM249 514q-28 0 -45.5 18.5t-17.5 45.5q0 33 24.5 56.5t57.5 23.5q28 0 45 -18.5t17 -45.5
q0 -17 -6.5 -31.5t-18 -25t-26 -17t-30.5 -6.5z" />
    <glyph glyph-name="aring" unicode="&#xe5;" 
d="M263 -14q-46 0 -83 15.5t-63 43t-40 66t-14 83.5q0 54 16 100.5t47 80t75 53t100 19.5q42 0 78.5 -17t58.5 -53l7 56h122l-53 -433h-122l7 56q-26 -34 -60 -52t-76 -18zM318 339q-28 0 -51.5 -10t-40.5 -27.5t-26.5 -41.5t-9.5 -52q0 -53 30 -83.5t83 -30.5q59 0 94 38.5
t35 96.5q0 50 -32.5 80t-81.5 30zM329 506q-37 0 -63.5 22.5t-26.5 60.5q0 45 30.5 75t75.5 30q38 0 60.5 -25t22.5 -62q0 -44 -27.5 -72.5t-71.5 -28.5zM295 595q0 -15 9.5 -24.5t24.5 -9.5q18 0 31 12t13 31q0 15 -10 25t-25 10q-19 0 -31 -12.5t-12 -31.5z" />
    <glyph glyph-name="ae" unicode="&#xe6;" horiz-adv-x="810" 
d="M51 125q0 42 16 70t42.5 45t60.5 24t70 7q32 0 62.5 -6.5t61.5 -23.5v21q0 51 -29.5 70t-75.5 19q-30 0 -59 -6t-59 -17l12 97q33 11 66.5 16.5t64.5 5.5q22 0 44 -4t42.5 -12.5t37 -22.5t27.5 -34q31 39 73.5 56t91.5 17q57 0 92 -16.5t53 -34.5q38 -38 48 -90t4 -110
h-322q0 -54 28 -84t82 -30q29 0 55 14.5t36 42.5l110 -18q-27 -69 -81 -102t-127 -33q-53 0 -95.5 16t-77.5 55q-32 -43 -78.5 -57t-97.5 -14q-35 0 -67 7t-56.5 23.5t-39.5 43t-15 65.5zM262 185q-15 0 -31 -2.5t-29.5 -9t-22 -18t-8.5 -29.5q0 -15 8.5 -25.5t21 -17
t27.5 -9t27 -2.5q14 0 30.5 3t30.5 10t23 18.5t9 29.5q0 16 -9 26t-22 16t-28 8t-27 2zM596 361q-45 0 -71 -22.5t-38 -64.5h205q-4 42 -29 64.5t-67 22.5z" />
    <glyph glyph-name="ccedilla" unicode="&#xe7;" horiz-adv-x="420" 
d="M274 -14q-47 0 -86 14.5t-67 41.5t-43.5 65.5t-15.5 85.5q0 57 19 104t52.5 80t80.5 51.5t104 18.5q29 0 58 -5t62 -21l-15 -120q-14 13 -38.5 25.5t-64.5 12.5q-29 0 -53 -10t-41 -28t-26.5 -42.5t-9.5 -52.5q0 -49 31.5 -80.5t80.5 -31.5q20 0 47.5 7.5t52.5 30.5
l-14 -119q-30 -17 -61 -22t-53 -5zM122 -200l118 154l88 -44l-142 -146z" />
    <glyph glyph-name="egrave" unicode="&#xe8;" horiz-adv-x="526" 
d="M63 186q0 57 17 105t49 82.5t78 54t104 19.5q101 0 152.5 -53.5t51.5 -153.5v-24t-2 -20h-324q-4 -30 3.5 -51.5t21.5 -35.5q17 -17 35.5 -22t35.5 -5q38 0 63.5 12.5t44.5 46.5l105 -25q-34 -70 -90.5 -100t-131.5 -30q-47 0 -86 13t-67 38.5t-44 63t-16 85.5zM313 361
q-41 0 -70 -24.5t-40 -62.5h205q-2 41 -28.5 64t-66.5 23zM267 679l115 -136l-51 -43l-140 116z" />
    <glyph glyph-name="eacute" unicode="&#xe9;" horiz-adv-x="526" 
d="M63 186q0 57 17 105t49 82.5t78 54t104 19.5q101 0 152.5 -53.5t51.5 -153.5v-24t-2 -20h-324q-4 -30 3.5 -51.5t21.5 -35.5q17 -17 35.5 -22t35.5 -5q38 0 63.5 12.5t44.5 46.5l105 -25q-34 -70 -90.5 -100t-131.5 -30q-47 0 -86 13t-67 38.5t-44 63t-16 85.5zM387 679
l76 -63l-160 -116l-51 43zM313 361q-41 0 -70 -24.5t-40 -62.5h205q-2 41 -28.5 64t-66.5 23z" />
    <glyph glyph-name="ecircumflex" unicode="&#xea;" horiz-adv-x="526" 
d="M276 -14q-47 0 -86 13t-67 38.5t-44 63t-16 85.5q0 57 17 105t49 82.5t78 54t104 19.5q101 0 152.5 -53.5t51.5 -153.5v-24t-2 -20h-324q-4 -30 3.5 -51.5t21.5 -35.5q17 -17 35.5 -22t35.5 -5q38 0 63.5 12.5t44.5 46.5l105 -25q-34 -70 -90.5 -100t-131.5 -30zM339 675
l139 -126l-57 -49l-91 75l-107 -75l-52 49zM313 361q-41 0 -70 -24.5t-40 -62.5h205q-2 41 -28.5 64t-66.5 23z" />
    <glyph glyph-name="edieresis" unicode="&#xeb;" horiz-adv-x="526" 
d="M276 -14q-47 0 -86 13t-67 38.5t-44 63t-16 85.5q0 57 17 105t49 82.5t78 54t104 19.5q101 0 152.5 -53.5t51.5 -153.5v-24t-2 -20h-324q-4 -30 3.5 -51.5t21.5 -35.5q17 -17 35.5 -22t35.5 -5q38 0 63.5 12.5t44.5 46.5l105 -25q-34 -70 -90.5 -100t-131.5 -30zM209 514
q-28 0 -45.5 18.5t-17.5 45.5q0 33 24.5 56.5t57.5 23.5q28 0 45 -18.5t17 -45.5q0 -17 -6.5 -31.5t-18 -25t-26 -17t-30.5 -6.5zM417 514q-28 0 -45.5 18.5t-17.5 45.5q0 33 24.5 56.5t57.5 23.5q28 0 45 -18.5t17 -45.5q0 -17 -6.5 -31.5t-18 -25t-26 -17t-30.5 -6.5z
M408 274q-2 41 -28.5 64t-66.5 23q-41 0 -70 -24.5t-40 -62.5h205z" />
    <glyph glyph-name="igrave" unicode="&#xec;" horiz-adv-x="238" 
d="M233 433l-53 -433h-122l53 433h122zM64 616l76 63l115 -136l-51 -43z" />
    <glyph glyph-name="iacute" unicode="&#xed;" horiz-adv-x="238" 
d="M233 433l-53 -433h-122l53 433h122zM161 500l-51 43l135 136l76 -63z" />
    <glyph glyph-name="icircumflex" unicode="&#xee;" horiz-adv-x="238" 
d="M233 433l-53 -433h-122l53 433h122zM95 524l-50 56l160 128l128 -128l-62 -56l-78 78z" />
    <glyph glyph-name="idieresis" unicode="&#xef;" horiz-adv-x="238" 
d="M111 433h122l-53 -433h-122zM217 578q0 33 24.5 56.5t57.5 23.5q28 0 45 -18.5t17 -45.5q0 -17 -6.5 -31.5t-18 -25t-26 -17t-30.5 -6.5q-28 0 -45.5 18.5t-17.5 45.5zM9 578q0 33 24.5 56.5t57.5 23.5q28 0 45 -18.5t17 -45.5q0 -17 -6.5 -31.5t-18 -25t-26 -17
t-30.5 -6.5q-28 0 -45.5 18.5t-17.5 45.5z" />
    <glyph glyph-name="eth" unicode="&#xf0;" horiz-adv-x="548" 
d="M62 190q0 52 16.5 96.5t46.5 77t73 51t96 18.5q54 0 83.5 -17t43.5 -33q-2 15 -7 33t-14.5 37t-24.5 37t-36 33l-205 -73l-20 62l151 50q-29 12 -60.5 19t-65.5 7l45 94q45 -4 80.5 -11.5t62 -17t45.5 -19.5t32 -18l146 46l24 -68l-110 -32q42 -48 62.5 -113.5
t20.5 -128.5q0 -68 -14.5 -128.5t-47 -106t-84.5 -72.5t-126 -27q-46 0 -85 14t-67.5 40.5t-44.5 64t-16 85.5zM310 329q-30 0 -52.5 -11t-38 -29.5t-23 -43.5t-7.5 -53q0 -45 27.5 -71.5t71.5 -26.5q30 0 52 11.5t37 30.5t22.5 44t7.5 52q0 44 -27 70.5t-70 26.5z" />
    <glyph glyph-name="ntilde" unicode="&#xf1;" horiz-adv-x="536" 
d="M58 0l53 433h122l-7 -56q23 37 59 53.5t78 16.5q67 0 108.5 -32.5t41.5 -102.5q0 -18 -2.5 -34.5t-5.5 -39.5l-29 -238h-122l25 201q0 3 1 12t2 19.5l2 21t1 16.5q0 35 -19 54t-54 19q-27 0 -46 -10t-31 -27t-18.5 -39t-9.5 -46l-27 -221h-122zM152 571q21 35 51 58
t73 23q20 0 34.5 -4.5t28.5 -10.5l36 -15q36 -16 52 -16q31 0 50 41l54 -48q-20 -31 -46.5 -56t-66.5 -25q-21 0 -38.5 6t-31.5 12l-32 14q-12 5 -25.5 9.5t-23.5 4.5q-20 0 -36 -14t-24 -27z" />
    <glyph glyph-name="ograve" unicode="&#xf2;" 
d="M63 193q0 54 21 101.5t54 79.5q13 13 31.5 26t43 23.5t55 17t68.5 6.5q48 0 89 -13.5t72 -39.5t48.5 -64.5t17.5 -88.5q0 -42 -16 -90t-61 -92q-42 -42 -91.5 -57.5t-107.5 -15.5q-48 0 -89 13.5t-71 39.5t-47 65t-17 89zM324 339q-29 0 -54 -10.5t-43 -29.5t-28 -44
t-10 -54q0 -48 31.5 -77.5t78.5 -29.5q28 0 52.5 10.5t43 29t29.5 43t11 52.5q0 48 -31.5 79t-79.5 31zM291 679l115 -136l-51 -43l-140 116z" />
    <glyph glyph-name="oacute" unicode="&#xf3;" 
d="M63 193q0 54 21 101.5t54 79.5q13 13 31.5 26t43 23.5t55 17t68.5 6.5q48 0 89 -13.5t72 -39.5t48.5 -64.5t17.5 -88.5q0 -42 -16 -90t-61 -92q-42 -42 -91.5 -57.5t-107.5 -15.5q-48 0 -89 13.5t-71 39.5t-47 65t-17 89zM324 339q-29 0 -54 -10.5t-43 -29.5t-28 -44
t-10 -54q0 -48 31.5 -77.5t78.5 -29.5q28 0 52.5 10.5t43 29t29.5 43t11 52.5q0 48 -31.5 79t-79.5 31zM408 679l76 -63l-160 -116l-51 43z" />
    <glyph glyph-name="ocircumflex" unicode="&#xf4;" 
d="M287 -14q-48 0 -89 13.5t-71 39.5t-47 65t-17 89q0 54 21 101.5t54 79.5q13 13 31.5 26t43 23.5t55 17t68.5 6.5q48 0 89 -13.5t72 -39.5t48.5 -64.5t17.5 -88.5q0 -42 -16 -90t-61 -92q-42 -42 -91.5 -57.5t-107.5 -15.5zM324 339q-29 0 -54 -10.5t-43 -29.5t-28 -44
t-10 -54q0 -48 31.5 -77.5t78.5 -29.5q28 0 52.5 10.5t43 29t29.5 43t11 52.5q0 48 -31.5 79t-79.5 31zM201 549l168 126l139 -126l-57 -49l-91 75l-107 -75z" />
    <glyph glyph-name="otilde" unicode="&#xf5;" 
d="M63 193q0 54 21 101.5t54 79.5q13 13 31.5 26t43 23.5t55 17t68.5 6.5q48 0 89 -13.5t72 -39.5t48.5 -64.5t17.5 -88.5q0 -42 -16 -90t-61 -92q-42 -42 -91.5 -57.5t-107.5 -15.5q-48 0 -89 13.5t-71 39.5t-47 65t-17 89zM189 201q0 -48 31.5 -77.5t78.5 -29.5
q28 0 52.5 10.5t43 29t29.5 43t11 52.5q0 48 -31.5 79t-79.5 31q-29 0 -54 -10.5t-43 -29.5t-28 -44t-10 -54zM186 564q14 28 39.5 50.5t63.5 22.5h2q22 0 37 -6.5t27 -14.5t24 -14.5t29 -6.5q11 0 28 10.5t25 35.5l45 -54q-20 -32 -44.5 -54t-63.5 -22h-2q-21 0 -36 6.5
t-27.5 14t-24.5 14t-27 6.5q-9 0 -23.5 -7.5t-25.5 -30.5z" />
    <glyph glyph-name="odieresis" unicode="&#xf6;" 
d="M287 -14q-48 0 -89 13.5t-71 39.5t-47 65t-17 89q0 54 21 101.5t54 79.5q13 13 31.5 26t43 23.5t55 17t68.5 6.5q48 0 89 -13.5t72 -39.5t48.5 -64.5t17.5 -88.5q0 -42 -16 -90t-61 -92q-42 -42 -91.5 -57.5t-107.5 -15.5zM324 339q-29 0 -54 -10.5t-43 -29.5t-28 -44
t-10 -54q0 -48 31.5 -77.5t78.5 -29.5q28 0 52.5 10.5t43 29t29.5 43t11 52.5q0 48 -31.5 79t-79.5 31zM374 578q0 33 24.5 56.5t57.5 23.5q28 0 45 -18.5t17 -45.5q0 -17 -6.5 -31.5t-18 -25t-26 -17t-30.5 -6.5q-28 0 -45.5 18.5t-17.5 45.5zM229 514q-28 0 -45.5 18.5
t-17.5 45.5q0 33 24.5 56.5t57.5 23.5q28 0 45 -18.5t17 -45.5q0 -17 -6.5 -31.5t-18 -25t-26 -17t-30.5 -6.5z" />
    <glyph glyph-name="divide" unicode="&#xf7;" horiz-adv-x="500" 
d="M75 283v112h434v-112h-434zM292 440q-29 0 -50 21t-21 50t21 50t50 21t50 -21t21 -50t-21 -50t-50 -21zM292 96q-29 0 -50 21t-21 50t21 50t50 21t50 -21t21 -50t-21 -50t-50 -21z" />
    <glyph glyph-name="oslash" unicode="&#xf8;" horiz-adv-x="588" 
d="M34 8l73 65q-17 26 -26 54t-9 64q0 58 21 105.5t57 81t85 51.5t106 18q39 0 75 -8.5t72 -30.5l78 69l44 -51l-74 -66q36 -54 36 -121q0 -41 -16 -88.5t-61 -91.5q-38 -38 -84.5 -55.5t-106.5 -17.5q-43 0 -77.5 8.5t-68.5 28.5l-75 -67zM198 203q0 -24 9 -43l185 164
q-15 8 -29.5 11.5t-29.5 3.5q-29 0 -53.5 -10.5t-42.5 -28.5t-28.5 -43t-10.5 -54zM253 108q13 -6 27 -10t28 -4q28 0 53 10.5t43.5 29t29 43t10.5 52.5q0 23 -8 42z" />
    <glyph glyph-name="ugrave" unicode="&#xf9;" horiz-adv-x="537" 
d="M79 142q0 13 1.5 29t4.5 39l27 223h122l-26 -216q-3 -26 -4 -36.5t-1 -15.5q0 -37 21 -56t58 -19q28 0 46 9t29 24.5t16.5 36.5t8.5 45l28 228h122l-29 -239q-4 -30 -10 -56.5t-16.5 -49t-27 -41t-40.5 -32.5q-29 -17 -63.5 -23t-65.5 -6q-38 0 -74 8t-64.5 26t-45.5 48
t-17 74zM283 679l115 -136l-51 -43l-140 116z" />
    <glyph glyph-name="uacute" unicode="&#xfa;" horiz-adv-x="537" 
d="M280 -14q-38 0 -74 8t-64.5 26t-45.5 48t-17 74q0 13 1.5 29t4.5 39l27 223h122l-26 -216q-3 -26 -4 -36.5t-1 -15.5q0 -37 21 -56t58 -19q28 0 46 9t29 24.5t16.5 36.5t8.5 45l28 228h122l-29 -239q-4 -30 -10 -56.5t-16.5 -49t-27 -41t-40.5 -32.5q-29 -17 -63.5 -23
t-65.5 -6zM261 543l135 136l76 -63l-160 -116z" />
    <glyph glyph-name="ucircumflex" unicode="&#xfb;" horiz-adv-x="537" 
d="M280 -14q-38 0 -74 8t-64.5 26t-45.5 48t-17 74q0 13 1.5 29t4.5 39l27 223h122l-26 -216q-3 -26 -4 -36.5t-1 -15.5q0 -37 21 -56t58 -19q28 0 46 9t29 24.5t16.5 36.5t8.5 45l28 228h122l-29 -239q-4 -30 -10 -56.5t-16.5 -49t-27 -41t-40.5 -32.5q-29 -17 -63.5 -23
t-65.5 -6zM355 708l153 -138l-65 -60l-99 92l-121 -92l-55 60z" />
    <glyph glyph-name="udieresis" unicode="&#xfc;" horiz-adv-x="537" 
d="M280 -14q-38 0 -74 8t-64.5 26t-45.5 48t-17 74q0 13 1.5 29t4.5 39l27 223h122l-26 -216q-3 -26 -4 -36.5t-1 -15.5q0 -37 21 -56t58 -19q28 0 46 9t29 24.5t16.5 36.5t8.5 45l28 228h122l-29 -239q-4 -30 -10 -56.5t-16.5 -49t-27 -41t-40.5 -32.5q-29 -17 -63.5 -23
t-65.5 -6zM435 514q-28 0 -45.5 18.5t-17.5 45.5q0 33 24.5 56.5t57.5 23.5q28 0 45 -18.5t17 -45.5q0 -17 -6.5 -31.5t-18 -25t-26 -17t-30.5 -6.5zM164 578q0 33 24.5 56.5t57.5 23.5q28 0 45 -18.5t17 -45.5q0 -17 -6.5 -31.5t-18 -25t-26 -17t-30.5 -6.5
q-28 0 -45.5 18.5t-17.5 45.5z" />
    <glyph glyph-name="yacute" unicode="&#xfd;" horiz-adv-x="538" 
d="M216 65l-161 368h138l104 -246l150 246h142l-430 -662h-138zM261 543l135 136l76 -63l-160 -116z" />
    <glyph glyph-name="thorn" unicode="&#xfe;" 
d="M30 -229l117 958h122l-43 -352q27 32 64 51t80 19q94 0 143.5 -54.5t49.5 -146.5q0 -53 -15 -100t-44.5 -82.5t-72.5 -56.5t-99 -21q-46 0 -82.5 15.5t-62.5 54.5l-35 -285h-122zM194 206q0 -52 30.5 -82t82.5 -30q30 0 53.5 10.5t40.5 29.5t26 44t9 54q0 49 -31 78
t-79 29q-28 0 -52 -10.5t-42 -28.5t-28 -42t-10 -52z" />
    <glyph glyph-name="ydieresis" unicode="&#xff;" horiz-adv-x="538" 
d="M21 -229l195 294l-161 368h138l104 -246l150 246h142l-430 -662h-138zM374 578q0 33 24.5 56.5t57.5 23.5q28 0 45 -18.5t17 -45.5q0 -17 -6.5 -31.5t-18 -25t-26 -17t-30.5 -6.5q-28 0 -45.5 18.5t-17.5 45.5zM229 514q-28 0 -45.5 18.5t-17.5 45.5q0 33 24.5 56.5
t57.5 23.5q28 0 45 -18.5t17 -45.5q0 -17 -6.5 -31.5t-18 -25t-26 -17t-30.5 -6.5z" />
    <glyph glyph-name="Amacron" unicode="&#x100;" horiz-adv-x="672" 
d="M375 667h98l197 -667h-137l-42 140h-269l-76 -140h-144zM253 831h366l-11 -86h-366zM466 246l-64 240l-126 -240h190z" />
    <glyph glyph-name="amacron" unicode="&#x101;" 
d="M263 -14q-46 0 -83 15.5t-63 43t-40 66t-14 83.5q0 54 16 100.5t47 80t75 53t100 19.5q42 0 78.5 -17t58.5 -53l7 56h122l-53 -433h-122l7 56q-26 -34 -60 -52t-76 -18zM318 339q-28 0 -51.5 -10t-40.5 -27.5t-26.5 -41.5t-9.5 -52q0 -53 30 -83.5t83 -30.5q59 0 94 38.5
t35 96.5q0 50 -32.5 80t-81.5 30zM156 539l10 80h364l-10 -80h-364z" />
    <glyph glyph-name="Abreve" unicode="&#x102;" horiz-adv-x="672" 
d="M375 667h98l197 -667h-137l-42 140h-269l-76 -140h-144zM383 853q0 -29 17.5 -40.5t40.5 -11.5t43 11.5t26 40.5h86q-8 -34 -24.5 -57.5t-38.5 -38.5t-47.5 -21.5t-52.5 -6.5t-51 6.5t-43 21.5t-30 38.5t-12 57.5h86zM276 246h190l-64 240z" />
    <glyph glyph-name="abreve" unicode="&#x103;" 
d="M263 -14q-46 0 -83 15.5t-63 43t-40 66t-14 83.5q0 54 16 100.5t47 80t75 53t100 19.5q42 0 78.5 -17t58.5 -53l7 56h122l-53 -433h-122l7 56q-26 -34 -60 -52t-76 -18zM318 339q-28 0 -51.5 -10t-40.5 -27.5t-26.5 -41.5t-9.5 -52q0 -53 30 -83.5t83 -30.5q59 0 94 38.5
t35 96.5q0 50 -32.5 80t-81.5 30zM346 500q-27 0 -51 6.5t-43 21.5t-30 38.5t-12 57.5h86q0 -29 17.5 -40.5t40.5 -11.5t43 11.5t26 40.5h86q-8 -34 -24.5 -57.5t-38.5 -38.5t-47.5 -21.5t-52.5 -6.5z" />
    <glyph glyph-name="Aogonek" unicode="&#x104;" horiz-adv-x="672" 
d="M375 667h98l197 -667h-65q-9 -7 -21 -16.5t-22 -21t-17 -24.5t-7 -25q0 -17 12 -24.5t27 -7.5q11 0 22.5 3.5t22.5 8.5l-22 -69q-19 -11 -35.5 -14t-28.5 -3q-35 0 -60.5 19t-25.5 57t26 68.5t57 48.5l-42 140h-269l-76 -140h-144zM466 246l-64 240l-126 -240h190z" />
    <glyph glyph-name="aogonek" unicode="&#x105;" 
d="M263 -14q-46 0 -83 15.5t-63 43t-40 66t-14 83.5q0 54 16 100.5t47 80t75 53t100 19.5q42 0 78.5 -17t58.5 -53l7 56h122l-53 -433h-40q-19 -14 -36 -35.5t-17 -47.5q0 -18 11.5 -26t28.5 -8q11 0 20.5 2t28.5 10l-23 -67q-19 -10 -34 -13.5t-29 -3.5q-32 0 -58 17.5
t-26 53.5q0 38 23.5 68t52.5 50h-24l7 56q-24 -31 -58 -50.5t-78 -19.5zM318 339q-28 0 -51.5 -10t-40.5 -27.5t-26.5 -41.5t-9.5 -52q0 -53 30 -83.5t83 -30.5q59 0 94 38.5t35 96.5q0 50 -32.5 80t-81.5 30z" />
    <glyph glyph-name="Cacute" unicode="&#x106;" horiz-adv-x="607" 
d="M85 291q0 95 30.5 168.5t76.5 120.5q32 33 68 53t72 31t70 14.5t64 3.5q32 0 77 -6.5t99 -34.5l-18 -150q-21 24 -44.5 38.5t-46 22t-43 10t-36.5 2.5q-55 0 -98.5 -20t-73.5 -54.5t-46 -81t-16 -98.5q0 -45 14 -83t40 -65.5t63 -43.5t83 -16q38 0 66 8.5t48 20t32.5 24
t18.5 21.5l-19 -152q-20 -11 -60.5 -25t-104.5 -14q-69 0 -127 21t-100 61t-65.5 96.5t-23.5 127.5zM406 778l157 142l81 -70l-189 -122z" />
    <glyph glyph-name="cacute" unicode="&#x107;" horiz-adv-x="420" 
d="M62 193q0 57 19 104t52.5 80t80.5 51.5t104 18.5q29 0 58 -5t62 -21l-15 -120q-14 13 -38.5 25.5t-64.5 12.5q-29 0 -53 -10t-41 -28t-26.5 -42.5t-9.5 -52.5q0 -49 31.5 -80.5t80.5 -31.5q20 0 47.5 7.5t52.5 30.5l-14 -119q-30 -17 -61 -22t-53 -5q-47 0 -86 14.5
t-67 41.5t-43.5 65.5t-15.5 85.5zM414 700l81 -56l-166 -134l-51 40z" />
    <glyph glyph-name="Ccircumflex" unicode="&#x108;" horiz-adv-x="607" 
d="M401 -15q-69 0 -127 21t-100 61t-65.5 96.5t-23.5 127.5q0 95 30.5 168.5t76.5 120.5q32 33 68 53t72 31t70 14.5t64 3.5q32 0 77 -6.5t99 -34.5l-18 -150q-21 24 -44.5 38.5t-46 22t-43 10t-36.5 2.5q-55 0 -98.5 -20t-73.5 -54.5t-46 -81t-16 -98.5q0 -45 14 -83
t40 -65.5t63 -43.5t83 -16q38 0 66 8.5t48 20t32.5 24t18.5 21.5l-19 -152q-20 -11 -60.5 -25t-104.5 -14zM298 796l196 134l164 -134l-66 -64l-109 88l-131 -88z" />
    <glyph glyph-name="ccircumflex" unicode="&#x109;" horiz-adv-x="420" 
d="M274 -14q-47 0 -86 14.5t-67 41.5t-43.5 65.5t-15.5 85.5q0 57 19 104t52.5 80t80.5 51.5t104 18.5q29 0 58 -5t62 -21l-15 -120q-14 13 -38.5 25.5t-64.5 12.5q-29 0 -53 -10t-41 -28t-26.5 -42.5t-9.5 -52.5q0 -49 31.5 -80.5t80.5 -31.5q20 0 47.5 7.5t52.5 30.5
l-14 -119q-30 -17 -61 -22t-53 -5zM352 708l153 -138l-65 -60l-99 92l-121 -92l-55 60z" />
    <glyph glyph-name="Cdotaccent" unicode="&#x10a;" horiz-adv-x="607" 
d="M85 291q0 95 30.5 168.5t76.5 120.5q32 33 68 53t72 31t70 14.5t64 3.5q32 0 77 -6.5t99 -34.5l-18 -150q-21 24 -44.5 38.5t-46 22t-43 10t-36.5 2.5q-55 0 -98.5 -20t-73.5 -54.5t-46 -81t-16 -98.5q0 -45 14 -83t40 -65.5t63 -43.5t83 -16q38 0 66 8.5t48 20t32.5 24
t18.5 21.5l-19 -152q-20 -11 -60.5 -25t-104.5 -14q-69 0 -127 21t-100 61t-65.5 96.5t-23.5 127.5zM376 809q0 37 25.5 61.5t61.5 24.5q32 0 51.5 -18.5t19.5 -50.5q0 -18 -6.5 -33.5t-18 -27.5t-27 -19t-33.5 -7q-31 0 -52 19t-21 51z" />
    <glyph glyph-name="cdotaccent" unicode="&#x10b;" horiz-adv-x="420" 
d="M62 193q0 57 19 104t52.5 80t80.5 51.5t104 18.5q29 0 58 -5t62 -21l-15 -120q-14 13 -38.5 25.5t-64.5 12.5q-29 0 -53 -10t-41 -28t-26.5 -42.5t-9.5 -52.5q0 -49 31.5 -80.5t80.5 -31.5q20 0 47.5 7.5t52.5 30.5l-14 -119q-30 -17 -61 -22t-53 -5q-47 0 -86 14.5
t-67 41.5t-43.5 65.5t-15.5 85.5zM243 582q0 35 24 59.5t59 24.5q33 0 52 -20t19 -52q0 -35 -23.5 -57.5t-58.5 -22.5q-30 0 -51 18t-21 50z" />
    <glyph glyph-name="Ccaron" unicode="&#x10c;" horiz-adv-x="607" 
d="M401 -15q-69 0 -127 21t-100 61t-65.5 96.5t-23.5 127.5q0 95 30.5 168.5t76.5 120.5q32 33 68 53t72 31t70 14.5t64 3.5q32 0 77 -6.5t99 -34.5l-18 -150q-21 24 -44.5 38.5t-46 22t-43 10t-36.5 2.5q-55 0 -98.5 -20t-73.5 -54.5t-46 -81t-16 -98.5q0 -45 14 -83
t40 -65.5t63 -43.5t83 -16q38 0 66 8.5t48 20t32.5 24t18.5 21.5l-19 -152q-20 -11 -60.5 -25t-104.5 -14zM306 866l66 64l109 -88l131 88l54 -64l-196 -134z" />
    <glyph glyph-name="ccaron" unicode="&#x10d;" horiz-adv-x="420" 
d="M274 -14q-47 0 -86 14.5t-67 41.5t-43.5 65.5t-15.5 85.5q0 57 19 104t52.5 80t80.5 51.5t104 18.5q29 0 58 -5t62 -21l-15 -120q-14 13 -38.5 25.5t-64.5 12.5q-29 0 -53 -10t-41 -28t-26.5 -42.5t-9.5 -52.5q0 -49 31.5 -80.5t80.5 -31.5q20 0 47.5 7.5t52.5 30.5
l-14 -119q-30 -17 -61 -22t-53 -5zM180 648l65 60l99 -92l121 92l55 -60l-187 -138z" />
    <glyph glyph-name="Dcaron" unicode="&#x10e;" horiz-adv-x="673" 
d="M158 667h174q73 0 135 -18.5t107 -56t70.5 -94.5t25.5 -134q0 -59 -11 -103t-26.5 -76t-32 -52.5t-28.5 -31.5q-57 -55 -133.5 -78t-182.5 -23h-180zM264 112q66 0 119.5 15t91.5 57q32 35 46.5 82.5t14.5 94.5q0 50 -17 86.5t-47 60.5t-70.5 35.5t-87.5 11.5h-40
l-54 -443h44zM216 866l66 64l109 -88l131 88l54 -64l-196 -134z" />
    <glyph glyph-name="dcaron" unicode="&#x10f;" horiz-adv-x="730" 
d="M63 199q0 60 19.5 107t48.5 76t71.5 47t87.5 18q44 0 83 -17t65 -53l44 352h122l-90 -729h-122l7 56q0 -1 -4.5 -6.5t-11.5 -13t-17 -16t-21 -14.5q-18 -10 -41.5 -15t-46.5 -5q-47 0 -83 16.5t-60.5 45.5t-37.5 67.5t-13 83.5zM190 210q0 -53 30 -84.5t83 -31.5
q28 0 52 10.5t41.5 29t27 43t9.5 52.5q0 51 -33.5 80.5t-83.5 29.5q-56 0 -91 -36.5t-35 -92.5zM716 690l114 -20l-136 -208l-84 16z" />
    <glyph glyph-name="Dcroat" unicode="&#x110;" horiz-adv-x="673" 
d="M54 370h67l37 297h174q73 0 135 -18.5t107 -56t70.5 -94.5t25.5 -134q0 -59 -11 -103t-26.5 -76t-32 -52.5t-28.5 -31.5q-57 -55 -133.5 -78t-182.5 -23h-180l33 274h-67zM220 112h44q66 0 119.5 15t91.5 57q32 35 46.5 82.5t14.5 94.5q0 50 -17 86.5t-47 60.5
t-70.5 35.5t-87.5 11.5h-40l-23 -185h118l-12 -96h-118z" />
    <glyph glyph-name="dcroat" unicode="&#x111;" horiz-adv-x="570" 
d="M63 199q0 60 19.5 107t48.5 76t71.5 47t87.5 18q44 0 83 -17t65 -53l23 178h-142l10 85h142l12 89h120l-11 -89h65l-10 -85h-65l-68 -555h-122l7 56q0 -1 -4.5 -6.5t-11.5 -13t-17 -16t-21 -14.5q-18 -10 -41.5 -15t-46.5 -5q-47 0 -83 16.5t-60.5 45.5t-37.5 67.5
t-13 83.5zM190 210q0 -53 30 -84.5t83 -31.5q30 0 54 11t41 30t26 44.5t9 54.5q0 25 -9.5 44.5t-25.5 33t-37.5 20.5t-44.5 7q-56 0 -91 -36.5t-35 -92.5z" />
    <glyph glyph-name="Emacron" unicode="&#x112;" horiz-adv-x="496" 
d="M76 0l82 667h370l-14 -112h-240l-18 -149h230l-14 -112h-230l-22 -182h240l-14 -112h-370zM166 745l11 86h366l-11 -86h-366z" />
    <glyph glyph-name="emacron" unicode="&#x113;" horiz-adv-x="526" 
d="M276 -14q-47 0 -86 13t-67 38.5t-44 63t-16 85.5q0 57 17 105t49 82.5t78 54t104 19.5q101 0 152.5 -53.5t51.5 -153.5v-24t-2 -20h-324q-4 -30 3.5 -51.5t21.5 -35.5q17 -17 35.5 -22t35.5 -5q38 0 63.5 12.5t44.5 46.5l105 -25q-34 -70 -90.5 -100t-131.5 -30zM146 619
h364l-10 -80h-364zM408 274q-2 41 -28.5 64t-66.5 23q-41 0 -70 -24.5t-40 -62.5h205z" />
    <glyph glyph-name="Edotaccent" unicode="&#x116;" horiz-adv-x="496" 
d="M76 0l82 667h370l-14 -112h-240l-18 -149h230l-14 -112h-230l-22 -182h240l-14 -112h-370zM354 739q-31 0 -52 19t-21 51q0 37 25.5 61.5t61.5 24.5q32 0 51.5 -18.5t19.5 -50.5q0 -18 -6.5 -33.5t-18 -27.5t-27 -19t-33.5 -7z" />
    <glyph glyph-name="edotaccent" unicode="&#x117;" horiz-adv-x="526" 
d="M276 -14q-47 0 -86 13t-67 38.5t-44 63t-16 85.5q0 57 17 105t49 82.5t78 54t104 19.5q101 0 152.5 -53.5t51.5 -153.5v-24t-2 -20h-324q-4 -30 3.5 -51.5t21.5 -35.5q17 -17 35.5 -22t35.5 -5q38 0 63.5 12.5t44.5 46.5l105 -25q-34 -70 -90.5 -100t-131.5 -30zM245 582
q0 35 24 59.5t59 24.5q33 0 52 -20t19 -52q0 -35 -23.5 -57.5t-58.5 -22.5q-30 0 -51 18t-21 50zM313 361q-41 0 -70 -24.5t-40 -62.5h205q-2 41 -28.5 64t-66.5 23z" />
    <glyph glyph-name="Eogonek" unicode="&#x118;" horiz-adv-x="496" 
d="M76 0l82 667h370l-14 -112h-240l-18 -149h230l-14 -112h-230l-22 -182h240l-14 -112h-40q-9 -7 -21 -16.5t-22 -21t-17 -24.5t-7 -25q0 -17 12 -24.5t27 -7.5q11 0 22.5 3.5t22.5 8.5l-22 -69q-19 -11 -35.5 -14t-28.5 -3q-35 0 -60.5 19t-25.5 57t26 68.5t57 48.5h-258z
" />
    <glyph glyph-name="eogonek" unicode="&#x119;" horiz-adv-x="526" 
d="M265 -14q-45 0 -82.5 15t-64 41.5t-41 64t-14.5 82.5q0 57 17 104t49.5 81.5t78.5 53.5t103 19q101 0 152.5 -53.5t51.5 -153.5v-24t-2 -20h-324q-1 -5 -1 -8.5v-7.5q0 -45 26 -71.5t71 -26.5q38 0 63.5 12.5t44.5 46.5l105 -25q-8 -21 -20 -37t-29 -31q-16 -14 -31 -24
t-30 -21q-21 -15 -42 -35.5t-21 -48.5q0 -19 11.5 -27.5t28.5 -8.5q11 0 20.5 2t28.5 10l-23 -67q-19 -10 -34 -13.5t-29 -3.5q-32 0 -58 17.5t-26 53.5q0 33 18.5 60t43.5 47q-12 -3 -41 -3zM313 361q-41 0 -70 -24.5t-40 -62.5h205q-2 41 -28.5 64t-66.5 23z" />
    <glyph glyph-name="Ecaron" unicode="&#x11a;" horiz-adv-x="496" 
d="M76 0l82 667h370l-14 -112h-240l-18 -149h230l-14 -112h-230l-22 -182h240l-14 -112h-370zM186 866l66 64l109 -88l131 88l54 -64l-196 -134z" />
    <glyph glyph-name="ecaron" unicode="&#x11b;" horiz-adv-x="526" 
d="M276 -14q-47 0 -86 13t-67 38.5t-44 63t-16 85.5q0 57 17 105t49 82.5t78 54t104 19.5q101 0 152.5 -53.5t51.5 -153.5v-24t-2 -20h-324q-4 -30 3.5 -51.5t21.5 -35.5q17 -17 35.5 -22t35.5 -5q38 0 63.5 12.5t44.5 46.5l105 -25q-34 -70 -90.5 -100t-131.5 -30zM235 708
l99 -92l121 92l55 -60l-187 -138l-153 138zM313 361q-41 0 -70 -24.5t-40 -62.5h205q-2 41 -28.5 64t-66.5 23z" />
    <glyph glyph-name="Gcircumflex" unicode="&#x11c;" horiz-adv-x="766" 
d="M85 301q0 84 29 154t80.5 120.5t122 78.5t153.5 28q88 0 160 -37t117 -114l-117 -67q-27 50 -73 75t-102 25q-54 0 -98 -20.5t-74.5 -55t-47 -81.5t-16.5 -99q0 -45 14.5 -82.5t40.5 -65t63.5 -42.5t82.5 -15q151 0 198 142h-172l14 112h306q-8 -80 -32.5 -148t-68 -118
t-107 -78t-148.5 -28q-71 0 -130.5 22.5t-103 63.5t-67.5 99.5t-24 130.5zM308 796l196 134l164 -134l-66 -64l-109 88l-131 -88z" />
    <glyph glyph-name="gcircumflex" unicode="&#x11d;" horiz-adv-x="564" 
d="M256 -230q-88 0 -146.5 44t-68.5 135h128q5 -38 30 -56.5t61 -18.5q61 0 88 33t35 90l8 61q-25 -35 -58 -53.5t-77 -18.5q-47 0 -84 15t-62.5 42.5t-39 66t-13.5 84.5q0 51 16.5 97t46.5 80.5t73 55t96 20.5q44 0 81 -16t60 -54l7 56h122l-51 -413q-2 -19 -5.5 -43
t-10.5 -49.5t-19 -50t-31 -44.5q-24 -25 -69 -44t-117 -19zM312 339q-60 0 -94.5 -38t-34.5 -97q0 -48 30 -79t78 -31q62 0 98.5 37.5t36.5 99.5q0 51 -32.5 79.5t-81.5 28.5zM170 570l187 138l153 -138l-65 -60l-99 92l-121 -92z" />
    <glyph glyph-name="Gbreve" unicode="&#x11e;" horiz-adv-x="766" 
d="M85 301q0 84 29 154t80.5 120.5t122 78.5t153.5 28q88 0 160 -37t117 -114l-117 -67q-27 50 -73 75t-102 25q-54 0 -98 -20.5t-74.5 -55t-47 -81.5t-16.5 -99q0 -45 14.5 -82.5t40.5 -65t63.5 -42.5t82.5 -15q151 0 198 142h-172l14 112h306q-8 -80 -32.5 -148t-68 -118
t-107 -78t-148.5 -28q-71 0 -130.5 22.5t-103 63.5t-67.5 99.5t-24 130.5zM475 726q-35 0 -64.5 8.5t-52 26.5t-35 45t-12.5 64h88q2 -31 23.5 -45.5t50.5 -14.5q30 0 54 15t32 45h92q-27 -144 -176 -144z" />
    <glyph glyph-name="gbreve" unicode="&#x11f;" horiz-adv-x="564" 
d="M256 -230q-88 0 -146.5 44t-68.5 135h128q5 -38 30 -56.5t61 -18.5q61 0 88 33t35 90l8 61q-25 -35 -58 -53.5t-77 -18.5q-47 0 -84 15t-62.5 42.5t-39 66t-13.5 84.5q0 51 16.5 97t46.5 80.5t73 55t96 20.5q44 0 81 -16t60 -54l7 56h122l-51 -413q-2 -19 -5.5 -43
t-10.5 -49.5t-19 -50t-31 -44.5q-24 -25 -69 -44t-117 -19zM183 204q0 -48 30 -79t78 -31q62 0 98.5 37.5t36.5 99.5q0 51 -32.5 79.5t-81.5 28.5q-60 0 -94.5 -38t-34.5 -97zM256 650q4 -31 24.5 -47t50.5 -16q67 0 85 63h88q-6 -33 -21.5 -59.5t-38.5 -44.5t-52.5 -27.5
t-62.5 -9.5q-66 0 -108.5 36.5t-44.5 104.5h80z" />
    <glyph glyph-name="Gdotaccent" unicode="&#x120;" horiz-adv-x="766" 
d="M85 301q0 84 29 154t80.5 120.5t122 78.5t153.5 28q88 0 160 -37t117 -114l-117 -67q-27 50 -73 75t-102 25q-54 0 -98 -20.5t-74.5 -55t-47 -81.5t-16.5 -99q0 -45 14.5 -82.5t40.5 -65t63.5 -42.5t82.5 -15q151 0 198 142h-172l14 112h306q-8 -80 -32.5 -148t-68 -118
t-107 -78t-148.5 -28q-71 0 -130.5 22.5t-103 63.5t-67.5 99.5t-24 130.5zM404 809q0 37 25.5 61.5t61.5 24.5q32 0 51.5 -18.5t19.5 -50.5q0 -18 -6.5 -33.5t-18 -27.5t-27 -19t-33.5 -7q-31 0 -52 19t-21 51z" />
    <glyph glyph-name="gdotaccent" unicode="&#x121;" horiz-adv-x="564" 
d="M169 -51q5 -38 30 -56.5t61 -18.5q61 0 88 33t35 90l8 61q-25 -35 -58 -53.5t-77 -18.5q-47 0 -84 15t-62.5 42.5t-39 66t-13.5 84.5q0 51 16.5 97t46.5 80.5t73 55t96 20.5q44 0 81 -16t60 -54l7 56h122l-51 -413q-2 -19 -5.5 -43t-10.5 -49.5t-19 -50t-31 -44.5
q-24 -25 -69 -44t-117 -19q-88 0 -146.5 44t-68.5 135h128zM312 339q-60 0 -94.5 -38t-34.5 -97q0 -48 30 -79t78 -31q62 0 98.5 37.5t36.5 99.5q0 51 -32.5 79.5t-81.5 28.5zM315 514q-30 0 -51 18t-21 50q0 35 24 59.5t59 24.5q33 0 52 -20t19 -52q0 -35 -23.5 -57.5
t-58.5 -22.5z" />
    <glyph glyph-name="uni0122" unicode="&#x122;" horiz-adv-x="766" 
d="M410 -15q-71 0 -130.5 22.5t-103 63.5t-67.5 99.5t-24 130.5q0 84 29 154t80.5 120.5t122 78.5t153.5 28q88 0 160 -37t117 -114l-117 -67q-27 50 -73 75t-102 25q-54 0 -98 -20.5t-74.5 -55t-47 -81.5t-16.5 -99q0 -45 14.5 -82.5t40.5 -65t63.5 -42.5t82.5 -15
q151 0 198 142h-172l14 112h306q-8 -80 -32.5 -148t-68 -118t-107 -78t-148.5 -28zM260 -258l98 208l112 -16l-130 -204z" />
    <glyph glyph-name="uni0123" unicode="&#x123;" horiz-adv-x="564" 
d="M256 -230q-88 0 -146.5 44t-68.5 135h128q5 -38 30 -56.5t61 -18.5q61 0 88 33t35 90l8 61q-25 -35 -58 -53.5t-77 -18.5q-47 0 -84 15t-62.5 42.5t-39 66t-13.5 84.5q0 51 16.5 97t46.5 80.5t73 55t96 20.5q44 0 81 -16t60 -54l7 56h122l-51 -413q-2 -19 -5.5 -43
t-10.5 -49.5t-19 -50t-31 -44.5q-24 -25 -69 -44t-117 -19zM183 204q0 -48 30 -79t78 -31q62 0 98.5 37.5t36.5 99.5q0 51 -32.5 79.5t-81.5 28.5q-60 0 -94.5 -38t-34.5 -97zM235 498l130 204l80 -12l-98 -208z" />
    <glyph glyph-name="Hcircumflex" unicode="&#x124;" horiz-adv-x="694" 
d="M76 0l82 667h130l-32 -258h282l32 258h130l-82 -667h-130l36 297h-282l-36 -297h-130zM461 930l164 -134l-66 -64l-109 88l-131 -88l-54 64z" />
    <glyph glyph-name="hcircumflex" unicode="&#x125;" horiz-adv-x="536" 
d="M58 0l90 729h122l-44 -352q23 37 59 53.5t78 16.5q67 0 108.5 -32.5t41.5 -102.5q0 -18 -2.5 -34.5t-5.5 -39.5l-29 -238h-122l25 201q0 3 1 12t2 19.5l2 21t1 16.5q0 35 -18.5 54t-53.5 19q-28 0 -47 -10t-31 -26.5t-18.5 -39t-9.5 -46.5l-27 -221h-122zM232 958
l153 -138l-65 -60l-99 92l-121 -92l-55 60z" />
    <glyph glyph-name="Hbar" unicode="&#x126;" horiz-adv-x="694" 
d="M76 0l64 518h-60l11 96h60l7 53h130l-7 -53h282l7 53h130l-7 -53h60l-11 -96h-60l-64 -518h-130l36 297h-282l-36 -297h-130zM538 409l14 109h-282l-14 -109h282z" />
    <glyph glyph-name="hbar" unicode="&#x127;" horiz-adv-x="546" 
d="M38 559l9 78h100l12 92h122l-12 -92h200l-9 -78h-200l-23 -182q23 36 58.5 53t77.5 17q69 0 109.5 -33t40.5 -105q0 -23 -2.5 -40t-5.5 -40l-28 -229h-122l25 201q0 3 1 12t2 19.5l2 21t1 16.5q0 35 -19 54t-54 19q-27 0 -46 -10t-31 -27t-18.5 -39t-9.5 -46l-27 -221
h-122l69 559h-100z" />
    <glyph glyph-name="Itilde" unicode="&#x128;" horiz-adv-x="282" 
d="M158 667h130l-82 -667h-130zM75 793q14 28 39.5 50.5t63.5 22.5h2q22 0 37 -6.5t27 -14.5t24 -14.5t29 -6.5q11 0 28 10.5t25 35.5l45 -54q-20 -32 -44.5 -54t-63.5 -22h-2q-21 0 -36 6.5t-27.5 14t-24.5 14t-27 6.5q-9 0 -23.5 -7.5t-25.5 -30.5z" />
    <glyph glyph-name="itilde" unicode="&#x129;" horiz-adv-x="238" 
d="M111 433h122l-53 -433h-122zM24 564q14 28 39.5 50.5t63.5 22.5h2q22 0 37 -6.5t27 -14.5t24 -14.5t29 -6.5q11 0 28 10.5t25 35.5l45 -54q-20 -32 -44.5 -54t-63.5 -22h-2q-21 0 -36 6.5t-27.5 14t-24.5 14t-27 6.5q-9 0 -23.5 -7.5t-25.5 -30.5z" />
    <glyph glyph-name="Imacron" unicode="&#x12a;" horiz-adv-x="282" 
d="M288 667l-82 -667h-130l82 667h130zM106 831h280l-10 -86h-280z" />
    <glyph glyph-name="imacron" unicode="&#x12b;" horiz-adv-x="238" 
d="M233 433l-53 -433h-122l53 433h122zM75 619h244l-10 -80h-244z" />
    <glyph glyph-name="Iogonek" unicode="&#x12e;" horiz-adv-x="282" 
d="M137 -193q-35 0 -60.5 19t-25.5 57t26 68.5t57 48.5h-58l82 667h130l-82 -667q-9 -7 -21 -16.5t-22 -21t-17 -24.5t-7 -25q0 -17 12 -24.5t27 -7.5q11 0 22.5 3.5t22.5 8.5l-22 -69q-19 -11 -35.5 -14t-28.5 -3z" />
    <glyph glyph-name="iogonek" unicode="&#x12f;" horiz-adv-x="238" 
d="M46 -118q0 38 23.5 68t52.5 50h-64l53 433h122l-53 -433q-19 -14 -36 -35.5t-17 -47.5q0 -18 11.5 -26t28.5 -8q11 0 20.5 2t28.5 10l-23 -67q-19 -10 -34 -13.5t-29 -3.5q-33 0 -58.5 17.5t-25.5 53.5zM186 543q-28 0 -46.5 18t-18.5 46q0 16 6.5 31t18 26.5t26 18
t31.5 6.5q28 0 46.5 -18.5t18.5 -46.5q0 -17 -7 -31.5t-18 -25.5t-26 -17.5t-31 -6.5z" />
    <glyph glyph-name="Idotaccent" unicode="&#x130;" horiz-adv-x="282" 
d="M76 0l82 667h130l-82 -667h-130zM222 739q-31 0 -52 19t-21 51q0 37 25.5 61.5t61.5 24.5q32 0 51.5 -18.5t19.5 -50.5q0 -18 -6.5 -33.5t-18 -27.5t-27 -19t-33.5 -7z" />
    <glyph glyph-name="dotlessi" unicode="&#x131;" horiz-adv-x="238" 
d="M233 433l-53 -433h-122l53 433h122z" />
    <glyph glyph-name="Jcircumflex" unicode="&#x134;" horiz-adv-x="390" 
d="M70 142q14 -24 31.5 -30t30.5 -6t25 4t23 15q17 17 22.5 47.5t10.5 64.5l53 430h130l-55 -447q-4 -29 -8 -55.5t-11.5 -50.5t-19 -44.5t-30.5 -37.5q-33 -31 -69 -39t-67 -8q-48 0 -85 14t-71 48zM354 930l164 -134l-66 -64l-109 88l-131 -88l-54 64z" />
    <glyph glyph-name="jcircumflex" unicode="&#x135;" horiz-adv-x="238" 
d="M233 433l-81 -662h-122l81 662h122zM72 510l-53 60l187 138l153 -138l-67 -60l-99 92z" />
    <glyph glyph-name="uni0136" unicode="&#x136;" horiz-adv-x="617" 
d="M76 0l82 667h130l-34 -266l273 266h151l-319 -311l253 -356h-156l-192 289l-25 -24l-33 -265h-130zM170 -258l98 208l112 -16l-130 -204z" />
    <glyph glyph-name="uni0137" unicode="&#x137;" horiz-adv-x="503" 
d="M58 0l90 729h122l-55 -446l180 150h149l-231 -192l187 -241h-146l-127 178l-28 -22l-19 -156h-122zM218 -50l112 -16l-130 -204l-80 12z" />
    <glyph glyph-name="Lacute" unicode="&#x139;" horiz-adv-x="426" 
d="M158 667h130l-68 -555h206l-14 -112h-336zM343 920l81 -70l-189 -122l-49 50z" />
    <glyph glyph-name="lacute" unicode="&#x13a;" horiz-adv-x="236" 
d="M270 729l-90 -729h-122l90 729h122zM354 924l-166 -134l-51 40l136 150z" />
    <glyph glyph-name="uni013B" unicode="&#x13b;" horiz-adv-x="426" 
d="M158 667h130l-68 -555h206l-14 -112h-336zM110 -258l98 208l112 -16l-130 -204z" />
    <glyph glyph-name="uni013C" unicode="&#x13c;" horiz-adv-x="236" 
d="M270 729l-90 -729h-122l90 729h122zM78 -50l112 -16l-130 -204l-80 12z" />
    <glyph glyph-name="Lcaron" unicode="&#x13d;" horiz-adv-x="426" 
d="M158 667h130l-68 -555h206l-14 -112h-336zM310 468l106 212l114 -20l-136 -208z" />
    <glyph glyph-name="lcaron" unicode="&#x13e;" horiz-adv-x="419" 
d="M270 729l-90 -729h-122l90 729h122zM386 690l114 -20l-136 -208l-84 16z" />
    <glyph glyph-name="Ldot" unicode="&#x13f;" horiz-adv-x="426" 
d="M76 0l82 667h130l-68 -555h206l-14 -112h-336zM307 326q0 37 25.5 61.5t61.5 24.5q32 0 51.5 -18.5t19.5 -50.5q0 -18 -6.5 -33.5t-18 -27.5t-27 -19t-33.5 -7q-31 0 -52 19t-21 51z" />
    <glyph glyph-name="ldot" unicode="&#x140;" horiz-adv-x="407" 
d="M58 0l90 729h122l-90 -729h-122zM289 358q0 35 24 59.5t59 24.5q33 0 52 -20t19 -52q0 -35 -23.5 -57.5t-58.5 -22.5q-30 0 -51 18t-21 50z" />
    <glyph glyph-name="Lslash" unicode="&#x141;" horiz-adv-x="426" 
d="M30 323l92 55l36 289h130l-28 -226l110 65l-12 -100l-110 -65l-28 -229h206l-14 -112h-336l34 278l-93 -55z" />
    <glyph glyph-name="lslash" unicode="&#x142;" horiz-adv-x="238" 
d="M269 729l-25 -209l80 54l-11 -90l-80 -54l-53 -430h-122l45 364l-81 -54l11 90l81 54l33 275h122z" />
    <glyph glyph-name="Nacute" unicode="&#x143;" horiz-adv-x="778" 
d="M76 0l82 667h92l349 -445l55 445h130l-82 -667h-92l-349 447l-55 -447h-130zM405 778l157 142l81 -70l-189 -122z" />
    <glyph glyph-name="nacute" unicode="&#x144;" horiz-adv-x="536" 
d="M111 433h122l-7 -56q23 37 59 53.5t78 16.5q67 0 108.5 -32.5t41.5 -102.5q0 -18 -2.5 -34.5t-5.5 -39.5l-29 -238h-122l25 201q0 3 1 12t2 19.5l2 21t1 16.5q0 35 -19 54t-54 19q-27 0 -46 -10t-31 -27t-18.5 -39t-9.5 -46l-27 -221h-122zM265 550l136 150l81 -56
l-166 -134z" />
    <glyph glyph-name="uni0145" unicode="&#x145;" horiz-adv-x="778" 
d="M76 0l82 667h92l349 -445l55 445h130l-82 -667h-92l-349 447l-55 -447h-130zM393 -50l112 -16l-130 -204l-80 12z" />
    <glyph glyph-name="uni0146" unicode="&#x146;" horiz-adv-x="536" 
d="M111 433h122l-7 -56q23 37 59 53.5t78 16.5q67 0 108.5 -32.5t41.5 -102.5q0 -18 -2.5 -34.5t-5.5 -39.5l-29 -238h-122l25 201q0 3 1 12t2 19.5l2 21t1 16.5q0 35 -19 54t-54 19q-27 0 -46 -10t-31 -27t-18.5 -39t-9.5 -46l-27 -221h-122zM120 -258l98 208l112 -16
l-130 -204z" />
    <glyph glyph-name="Ncaron" unicode="&#x147;" horiz-adv-x="778" 
d="M76 0l82 667h92l349 -445l55 445h130l-82 -667h-92l-349 447l-55 -447h-130zM381 930l109 -88l131 88l54 -64l-196 -134l-164 134z" />
    <glyph glyph-name="ncaron" unicode="&#x148;" horiz-adv-x="536" 
d="M58 0l53 433h122l-7 -56q23 37 59 53.5t78 16.5q67 0 108.5 -32.5t41.5 -102.5q0 -18 -2.5 -34.5t-5.5 -39.5l-29 -238h-122l25 201q0 3 1 12t2 19.5l2 21t1 16.5q0 35 -19 54t-54 19q-27 0 -46 -10t-31 -27t-18.5 -39t-9.5 -46l-27 -221h-122zM265 708l99 -92l121 92
l55 -60l-187 -138l-153 138z" />
    <glyph glyph-name="Omacron" unicode="&#x14c;" horiz-adv-x="806" 
d="M173 78q-42 42 -65 100t-23 121q0 86 31 156.5t84.5 121t126.5 78t157 27.5q69 0 127.5 -22t101 -62t66.5 -97t24 -127q0 -80 -28 -154t-79 -126q-20 -21 -47 -40.5t-61.5 -34.5t-76.5 -24.5t-93 -9.5q-49 0 -88 9t-69 22.5t-51.5 30t-36.5 31.5zM463 563
q-54 0 -98.5 -19.5t-77 -54t-50 -81t-17.5 -99.5q0 -46 15 -84t42 -65t64.5 -42t83.5 -15q54 0 98.5 21t77 57t50 83.5t17.5 99.5q0 46 -15 82.5t-42.5 62.5t-65 40t-82.5 14zM292 745l11 86h366l-11 -86h-366z" />
    <glyph glyph-name="omacron" unicode="&#x14d;" 
d="M63 193q0 54 21 101.5t54 79.5q13 13 31.5 26t43 23.5t55 17t68.5 6.5q48 0 89 -13.5t72 -39.5t48.5 -64.5t17.5 -88.5q0 -42 -16 -90t-61 -92q-42 -42 -91.5 -57.5t-107.5 -15.5q-48 0 -89 13.5t-71 39.5t-47 65t-17 89zM324 339q-29 0 -54 -10.5t-43 -29.5t-28 -44
t-10 -54q0 -48 31.5 -77.5t78.5 -29.5q28 0 52.5 10.5t43 29t29.5 43t11 52.5q0 48 -31.5 79t-79.5 31zM156 539l10 80h364l-10 -80h-364z" />
    <glyph glyph-name="Obreve" unicode="&#x14e;" horiz-adv-x="806" 
d="M173 78q-42 42 -65 100t-23 121q0 86 31 156.5t84.5 121t126.5 78t157 27.5q69 0 127.5 -22t101 -62t66.5 -97t24 -127q0 -80 -28 -154t-79 -126q-20 -21 -47 -40.5t-61.5 -34.5t-76.5 -24.5t-93 -9.5q-49 0 -88 9t-69 22.5t-51.5 30t-36.5 31.5zM463 563
q-54 0 -98.5 -19.5t-77 -54t-50 -81t-17.5 -99.5q0 -46 15 -84t42 -65t64.5 -42t83.5 -15q54 0 98.5 21t77 57t50 83.5t17.5 99.5q0 46 -15 82.5t-42.5 62.5t-65 40t-82.5 14zM481 726q-35 0 -64.5 8.5t-52 26.5t-35 45t-12.5 64h88q2 -31 23.5 -45.5t50.5 -14.5q30 0 54 15
t32 45h92q-27 -144 -176 -144z" />
    <glyph glyph-name="obreve" unicode="&#x14f;" 
d="M287 -14q-48 0 -89 13.5t-71 39.5t-47 65t-17 89q0 54 21 101.5t54 79.5q13 13 31.5 26t43 23.5t55 17t68.5 6.5q48 0 89 -13.5t72 -39.5t48.5 -64.5t17.5 -88.5q0 -42 -16 -90t-61 -92q-42 -42 -91.5 -57.5t-107.5 -15.5zM324 339q-29 0 -54 -10.5t-43 -29.5t-28 -44
t-10 -54q0 -48 31.5 -77.5t78.5 -29.5q28 0 52.5 10.5t43 29t29.5 43t11 52.5q0 48 -31.5 79t-79.5 31zM266 650q4 -31 24.5 -47t50.5 -16q67 0 85 63h88q-6 -33 -21.5 -59.5t-38.5 -44.5t-52.5 -27.5t-62.5 -9.5q-66 0 -108.5 36.5t-44.5 104.5h80z" />
    <glyph glyph-name="Ohungarumlaut" unicode="&#x150;" horiz-adv-x="806" 
d="M173 78q-42 42 -65 100t-23 121q0 86 31 156.5t84.5 121t126.5 78t157 27.5q69 0 127.5 -22t101 -62t66.5 -97t24 -127q0 -80 -28 -154t-79 -126q-20 -21 -47 -40.5t-61.5 -34.5t-76.5 -24.5t-93 -9.5q-49 0 -88 9t-69 22.5t-51.5 30t-36.5 31.5zM463 563
q-54 0 -98.5 -19.5t-77 -54t-50 -81t-17.5 -99.5q0 -46 15 -84t42 -65t64.5 -42t83.5 -15q54 0 98.5 21t77 57t50 83.5t17.5 99.5q0 46 -15 82.5t-42.5 62.5t-65 40t-82.5 14zM312 768l129 153l83 -59l-161 -134zM512 768l129 152l83 -58l-161 -134z" />
    <glyph glyph-name="ohungarumlaut" unicode="&#x151;" 
d="M287 -14q-48 0 -89 13.5t-71 39.5t-47 65t-17 89q0 54 21 101.5t54 79.5q13 13 31.5 26t43 23.5t55 17t68.5 6.5q48 0 89 -13.5t72 -39.5t48.5 -64.5t17.5 -88.5q0 -42 -16 -90t-61 -92q-42 -42 -91.5 -57.5t-107.5 -15.5zM324 339q-29 0 -54 -10.5t-43 -29.5t-28 -44
t-10 -54q0 -48 31.5 -77.5t78.5 -29.5q28 0 52.5 10.5t43 29t29.5 43t11 52.5q0 48 -31.5 79t-79.5 31zM190 538l119 152l75 -58l-149 -134zM378 538l119 151l75 -57l-149 -134z" />
    <glyph glyph-name="OE" unicode="&#x152;" horiz-adv-x="1041" 
d="M85 295q0 92 31 165.5t82 123.5q55 54 119 76t142 22q34 0 68 -5.5t65.5 -17.5t58.5 -32t47 -50l11 90h364l-14 -112h-234l-18 -149h224l-14 -112h-224l-22 -182h234l-14 -112h-364l11 90q-48 -61 -107.5 -83t-135.5 -22q-61 0 -116 16t-104 64q-43 42 -66.5 98.5
t-23.5 131.5zM457 564q-57 0 -101.5 -20t-74.5 -54.5t-46 -81.5t-16 -102q0 -45 13.5 -82.5t39 -64t62 -41.5t82.5 -15q55 0 100 20t76 55t48 82t17 101q0 45 -14 82.5t-40.5 64t-63.5 41.5t-82 15z" />
    <glyph glyph-name="oe" unicode="&#x153;" horiz-adv-x="882" 
d="M63 197q0 57 18.5 103.5t52 79t80 50t103.5 17.5q54 0 100 -18.5t81 -60.5q32 45 78.5 62t98.5 17q55 0 89 -16.5t53 -34.5q38 -37 48 -89t4 -111h-322q0 -54 28 -84t82 -30q29 0 55 14.5t36 42.5l110 -18q-27 -69 -81 -102t-127 -33q-55 0 -102 18.5t-79 65.5
q-41 -48 -85.5 -66t-107.5 -18q-98 0 -155.5 56.5t-57.5 154.5zM316 339q-30 0 -53 -10.5t-39.5 -28.5t-25 -43t-8.5 -53q0 -46 28.5 -78t76.5 -32q30 0 54 10.5t41.5 28.5t26.5 43t9 54q0 48 -31 78.5t-79 30.5zM669 361q-45 0 -71 -22.5t-38 -64.5h205q-4 42 -29 64.5
t-67 22.5z" />
    <glyph glyph-name="Racute" unicode="&#x154;" horiz-adv-x="576" 
d="M158 667h193q45 0 84 -11t67.5 -33.5t45 -58t16.5 -83.5q0 -85 -48.5 -137t-129.5 -65l170 -279h-156l-145 268h-16l-33 -268h-130zM296 360q27 0 51 6.5t42.5 20t29 34.5t10.5 50q0 25 -9 42.5t-25 28t-36.5 15t-42.5 4.5h-41l-25 -201h46zM303 778l157 142l81 -70
l-189 -122z" />
    <glyph glyph-name="racute" unicode="&#x155;" horiz-adv-x="360" 
d="M111 433h122l-8 -62q43 76 130 76q17 0 30 -2.5t27 -7.5l-36 -109q-22 11 -47 11q-32 0 -54.5 -14t-37.5 -36t-23 -50t-11 -55l-23 -184h-122zM208 550l136 150l81 -56l-166 -134z" />
    <glyph glyph-name="uni0156" unicode="&#x156;" horiz-adv-x="576" 
d="M76 0l82 667h193q45 0 84 -11t67.5 -33.5t45 -58t16.5 -83.5q0 -85 -48.5 -137t-129.5 -65l170 -279h-156l-145 268h-16l-33 -268h-130zM250 360h46q27 0 51 6.5t42.5 20t29 34.5t10.5 50q0 25 -9 42.5t-25 28t-36.5 15t-42.5 4.5h-41zM293 -50l112 -16l-130 -204l-80 12
z" />
    <glyph glyph-name="uni0157" unicode="&#x157;" horiz-adv-x="360" 
d="M58 0l53 433h122l-8 -62q43 76 130 76q17 0 30 -2.5t27 -7.5l-36 -109q-22 11 -47 11q-32 0 -54.5 -14t-37.5 -36t-23 -50t-11 -55l-23 -184h-122zM60 -258l98 208l112 -16l-130 -204z" />
    <glyph glyph-name="Rcaron" unicode="&#x158;" horiz-adv-x="576" 
d="M76 0l82 667h193q45 0 84 -11t67.5 -33.5t45 -58t16.5 -83.5q0 -85 -48.5 -137t-129.5 -65l170 -279h-156l-145 268h-16l-33 -268h-130zM186 866l66 64l109 -88l131 88l54 -64l-196 -134zM296 360q27 0 51 6.5t42.5 20t29 34.5t10.5 50q0 25 -9 42.5t-25 28t-36.5 15
t-42.5 4.5h-41l-25 -201h46z" />
    <glyph glyph-name="rcaron" unicode="&#x159;" horiz-adv-x="360" 
d="M111 433h122l-8 -62q43 76 130 76q17 0 30 -2.5t27 -7.5l-36 -109q-22 11 -47 11q-32 0 -54.5 -14t-37.5 -36t-23 -50t-11 -55l-23 -184h-122zM185 708l99 -92l121 92l55 -60l-187 -138l-153 138z" />
    <glyph glyph-name="Sacute" unicode="&#x15a;" horiz-adv-x="534" 
d="M270 -15q-75 0 -128.5 32.5t-93.5 93.5l95 81q22 -41 52.5 -65t78.5 -24t80 25.5t32 76.5q0 18 -6.5 32.5t-23.5 28.5t-32.5 19.5t-35.5 13.5l-38 16q-29 12 -51.5 26t-38 32.5t-24 43t-8.5 57.5q0 52 19 91.5t51.5 65t75.5 38.5t92 13q16 0 37.5 -2t45 -10t48.5 -23.5
t49 -42.5l-79 -89q-14 20 -39.5 38.5t-67.5 18.5q-18 0 -35.5 -5t-31 -14.5t-22 -24.5t-8.5 -35q0 -32 28 -51q10 -7 24 -13t39 -17l45 -19q54 -23 89 -62t35 -101q0 -55 -19.5 -103t-51.5 -79q-42 -40 -91 -51.5t-91 -11.5zM306 778l157 142l81 -70l-189 -122z" />
    <glyph glyph-name="sacute" unicode="&#x15b;" horiz-adv-x="400" 
d="M205 -14q-54 0 -93 17t-75 55l73 74q15 -21 39.5 -35.5t50.5 -14.5q25 0 44.5 11t19.5 40q0 6 -2 13t-9 14t-18 11t-25 10l-30 12q-38 15 -62 39.5t-24 69.5q0 36 13.5 63t36 45.5t53 27.5t63.5 9q42 0 74 -10t65 -34l-63 -75q-31 31 -72 31q-20 0 -35 -9t-15 -31
q0 -14 9 -22t35 -16l37 -12q45 -14 71 -43t26 -78q0 -40 -15.5 -70.5t-41 -50.5t-59.5 -30.5t-71 -10.5zM220 550l136 150l81 -56l-166 -134z" />
    <glyph glyph-name="Scircumflex" unicode="&#x15c;" horiz-adv-x="534" 
d="M270 -15q-75 0 -128.5 32.5t-93.5 93.5l95 81q22 -41 52.5 -65t78.5 -24t80 25.5t32 76.5q0 18 -6.5 32.5t-23.5 28.5t-32.5 19.5t-35.5 13.5l-38 16q-29 12 -51.5 26t-38 32.5t-24 43t-8.5 57.5q0 52 19 91.5t51.5 65t75.5 38.5t92 13q16 0 37.5 -2t45 -10t48.5 -23.5
t49 -42.5l-79 -89q-14 20 -39.5 38.5t-67.5 18.5q-18 0 -35.5 -5t-31 -14.5t-22 -24.5t-8.5 -35q0 -32 28 -51q10 -7 24 -13t39 -17l45 -19q54 -23 89 -62t35 -101q0 -55 -19.5 -103t-51.5 -79q-42 -40 -91 -51.5t-91 -11.5zM188 796l196 134l164 -134l-66 -64l-109 88
l-131 -88z" />
    <glyph glyph-name="scircumflex" unicode="&#x15d;" horiz-adv-x="400" 
d="M205 -14q-54 0 -93 17t-75 55l73 74q15 -21 39.5 -35.5t50.5 -14.5q25 0 44.5 11t19.5 40q0 6 -2 13t-9 14t-18 11t-25 10l-30 12q-38 15 -62 39.5t-24 69.5q0 36 13.5 63t36 45.5t53 27.5t63.5 9q42 0 74 -10t65 -34l-63 -75q-31 31 -72 31q-20 0 -35 -9t-15 -31
q0 -14 9 -22t35 -16l37 -12q45 -14 71 -43t26 -78q0 -40 -15.5 -70.5t-41 -50.5t-59.5 -30.5t-71 -10.5zM297 708l153 -138l-65 -60l-99 92l-121 -92l-55 60z" />
    <glyph glyph-name="Scedilla" unicode="&#x15e;" horiz-adv-x="534" 
d="M143 192q22 -41 52.5 -65t78.5 -24t80 25.5t32 76.5q0 18 -6.5 32.5t-23.5 28.5t-32.5 19.5t-35.5 13.5l-38 16q-29 12 -51.5 26t-38 32.5t-24 43t-8.5 57.5q0 52 19 91.5t51.5 65t75.5 38.5t92 13q16 0 37.5 -2t45 -10t48.5 -23.5t49 -42.5l-79 -89q-14 20 -39.5 38.5
t-67.5 18.5q-18 0 -35.5 -5t-31 -14.5t-22 -24.5t-8.5 -35q0 -32 28 -51q10 -7 24 -13t39 -17l45 -19q54 -23 89 -62t35 -101q0 -55 -19.5 -103t-51.5 -79q-42 -40 -91 -51.5t-91 -11.5q-75 0 -128.5 32.5t-93.5 93.5zM140 -208l124 162l96 -44l-150 -154z" />
    <glyph glyph-name="scedilla" unicode="&#x15f;" horiz-adv-x="400" 
d="M205 -14q-54 0 -93 17t-75 55l73 74q15 -21 39.5 -35.5t50.5 -14.5q25 0 44.5 11t19.5 40q0 6 -2 13t-9 14t-18 11t-25 10l-30 12q-38 15 -62 39.5t-24 69.5q0 36 13.5 63t36 45.5t53 27.5t63.5 9q42 0 74 -10t65 -34l-63 -75q-31 31 -72 31q-20 0 -35 -9t-15 -31
q0 -14 9 -22t35 -16l37 -12q45 -14 71 -43t26 -78q0 -40 -15.5 -70.5t-41 -50.5t-59.5 -30.5t-71 -10.5zM62 -200l118 154l88 -44l-142 -146z" />
    <glyph glyph-name="Scaron" unicode="&#x160;" horiz-adv-x="534" 
d="M270 -15q-75 0 -128.5 32.5t-93.5 93.5l95 81q22 -41 52.5 -65t78.5 -24t80 25.5t32 76.5q0 18 -6.5 32.5t-23.5 28.5t-32.5 19.5t-35.5 13.5l-38 16q-29 12 -51.5 26t-38 32.5t-24 43t-8.5 57.5q0 52 19 91.5t51.5 65t75.5 38.5t92 13q16 0 37.5 -2t45 -10t48.5 -23.5
t49 -42.5l-79 -89q-14 20 -39.5 38.5t-67.5 18.5q-18 0 -35.5 -5t-31 -14.5t-22 -24.5t-8.5 -35q0 -32 28 -51q10 -7 24 -13t39 -17l45 -19q54 -23 89 -62t35 -101q0 -55 -19.5 -103t-51.5 -79q-42 -40 -91 -51.5t-91 -11.5zM196 866l66 64l109 -88l131 88l54 -64l-196 -134
z" />
    <glyph glyph-name="scaron" unicode="&#x161;" horiz-adv-x="400" 
d="M205 -14q-54 0 -93 17t-75 55l73 74q15 -21 39.5 -35.5t50.5 -14.5q25 0 44.5 11t19.5 40q0 6 -2 13t-9 14t-18 11t-25 10l-30 12q-38 15 -62 39.5t-24 69.5q0 36 13.5 63t36 45.5t53 27.5t63.5 9q42 0 74 -10t65 -34l-63 -75q-31 31 -72 31q-20 0 -35 -9t-15 -31
q0 -14 9 -22t35 -16l37 -12q45 -14 71 -43t26 -78q0 -40 -15.5 -70.5t-41 -50.5t-59.5 -30.5t-71 -10.5zM185 708l99 -92l121 92l55 -60l-187 -138l-153 138z" />
    <glyph glyph-name="uni0162" unicode="&#x162;" horiz-adv-x="442" 
d="M74 555l14 112h430l-14 -112h-150l-68 -555h-130l68 555h-150zM80 -208l124 162l96 -44l-150 -154z" />
    <glyph glyph-name="uni0163" unicode="&#x163;" horiz-adv-x="270" 
d="M50 329l13 104h48l18 148h122l-18 -148h84l-13 -104h-84l-40 -329h-122l40 329h-48zM-28 -200l118 154l88 -44l-142 -146z" />
    <glyph glyph-name="Tcaron" unicode="&#x164;" horiz-adv-x="442" 
d="M88 667h430l-14 -112h-150l-68 -555h-130l68 555h-150zM213 930l109 -88l131 88l54 -64l-196 -134l-164 134z" />
    <glyph glyph-name="tcaron" unicode="&#x165;" horiz-adv-x="390" 
d="M50 329l13 104h48l18 148h122l-18 -148h84l-13 -104h-84l-40 -329h-122l40 329h-48zM376 690l114 -20l-136 -208l-84 16z" />
    <glyph glyph-name="Utilde" unicode="&#x168;" horiz-adv-x="686" 
d="M105 206q0 10 1 26t2.5 32.5t3 31.5t2.5 23l42 348h130l-45 -369q-1 -8 -2 -18.5l-2 -21t-2 -20t-1 -14.5q0 -58 34 -89.5t91 -31.5q29 0 53 7.5t41 20.5q18 13 29 30.5t17 38t9.5 43.5t6.5 47l47 377h130l-48 -391q-4 -29 -8.5 -59t-12.5 -58.5t-22 -55t-36 -48.5
q-24 -24 -51 -38t-54.5 -21t-54 -9t-47.5 -2q-55 0 -101.5 12.5t-80 39t-52.5 68.5t-19 101zM273 793q14 28 39.5 50.5t63.5 22.5h2q22 0 37 -6.5t27 -14.5t24 -14.5t29 -6.5q11 0 28 10.5t25 35.5l45 -54q-20 -32 -44.5 -54t-63.5 -22h-2q-21 0 -36 6.5t-27.5 14t-24.5 14
t-27 6.5q-9 0 -23.5 -7.5t-25.5 -30.5z" />
    <glyph glyph-name="utilde" unicode="&#x169;" horiz-adv-x="537" 
d="M79 142q0 13 1.5 29t4.5 39l27 223h122l-26 -216q-3 -26 -4 -36.5t-1 -15.5q0 -37 21 -56t58 -19q28 0 46 9t29 24.5t16.5 36.5t8.5 45l28 228h122l-29 -239q-4 -30 -10 -56.5t-16.5 -49t-27 -41t-40.5 -32.5q-29 -17 -63.5 -23t-65.5 -6q-38 0 -74 8t-64.5 26t-45.5 48
t-17 74zM168 564q14 28 39.5 50.5t63.5 22.5h2q22 0 37 -6.5t27 -14.5t24 -14.5t29 -6.5q11 0 28 10.5t25 35.5l45 -54q-20 -32 -44.5 -54t-63.5 -22h-2q-21 0 -36 6.5t-27.5 14t-24.5 14t-27 6.5q-9 0 -23.5 -7.5t-25.5 -30.5z" />
    <glyph glyph-name="Umacron" unicode="&#x16a;" horiz-adv-x="686" 
d="M105 206q0 10 1 26t2.5 32.5t3 31.5t2.5 23l42 348h130l-45 -369q-1 -8 -2 -18.5l-2 -21t-2 -20t-1 -14.5q0 -58 34 -89.5t91 -31.5q29 0 53 7.5t41 20.5q18 13 29 30.5t17 38t9.5 43.5t6.5 47l47 377h130l-48 -391q-4 -29 -8.5 -59t-12.5 -58.5t-22 -55t-36 -48.5
q-24 -24 -51 -38t-54.5 -21t-54 -9t-47.5 -2q-55 0 -101.5 12.5t-80 39t-52.5 68.5t-19 101zM248 745l11 86h366l-11 -86h-366z" />
    <glyph glyph-name="umacron" unicode="&#x16b;" horiz-adv-x="537" 
d="M79 142q0 13 1.5 29t4.5 39l27 223h122l-26 -216q-3 -26 -4 -36.5t-1 -15.5q0 -37 21 -56t58 -19q28 0 46 9t29 24.5t16.5 36.5t8.5 45l28 228h122l-29 -239q-4 -30 -10 -56.5t-16.5 -49t-27 -41t-40.5 -32.5q-29 -17 -63.5 -23t-65.5 -6q-38 0 -74 8t-64.5 26t-45.5 48
t-17 74zM164 619h364l-10 -80h-364z" />
    <glyph glyph-name="Ubreve" unicode="&#x16c;" horiz-adv-x="686" 
d="M105 206q0 10 1 26t2.5 32.5t3 31.5t2.5 23l42 348h130l-45 -369q-1 -8 -2 -18.5l-2 -21t-2 -20t-1 -14.5q0 -58 34 -89.5t91 -31.5q29 0 53 7.5t41 20.5q18 13 29 30.5t17 38t9.5 43.5t6.5 47l47 377h130l-48 -391q-4 -29 -8.5 -59t-12.5 -58.5t-22 -55t-36 -48.5
q-24 -24 -51 -38t-54.5 -21t-54 -9t-47.5 -2q-55 0 -101.5 12.5t-80 39t-52.5 68.5t-19 101zM437 726q-35 0 -64.5 8.5t-52 26.5t-35 45t-12.5 64h88q2 -31 23.5 -45.5t50.5 -14.5q30 0 54 15t32 45h92q-27 -144 -176 -144z" />
    <glyph glyph-name="ubreve" unicode="&#x16d;" horiz-adv-x="537" 
d="M79 142q0 13 1.5 29t4.5 39l27 223h122l-26 -216q-3 -26 -4 -36.5t-1 -15.5q0 -37 21 -56t58 -19q28 0 46 9t29 24.5t16.5 36.5t8.5 45l28 228h122l-29 -239q-4 -30 -10 -56.5t-16.5 -49t-27 -41t-40.5 -32.5q-29 -17 -63.5 -23t-65.5 -6q-38 0 -74 8t-64.5 26t-45.5 48
t-17 74zM337 509q-66 0 -108.5 36.5t-44.5 104.5h80q4 -31 24.5 -47t50.5 -16q67 0 85 63h88q-6 -33 -21.5 -59.5t-38.5 -44.5t-52.5 -27.5t-62.5 -9.5z" />
    <glyph glyph-name="Uring" unicode="&#x16e;" horiz-adv-x="686" 
d="M358 -15q-55 0 -101.5 12.5t-80 39t-52.5 68.5t-19 101q0 10 1 26t2.5 32.5t3 31.5t2.5 23l42 348h130l-45 -369q-1 -8 -2 -18.5l-2 -21t-2 -20t-1 -14.5q0 -58 34 -89.5t91 -31.5q29 0 53 7.5t41 20.5q18 13 29 30.5t17 38t9.5 43.5t6.5 47l47 377h130l-48 -391
q-4 -29 -8.5 -59t-12.5 -58.5t-22 -55t-36 -48.5q-24 -24 -51 -38t-54.5 -21t-54 -9t-47.5 -2zM428 722q-38 0 -64.5 23.5t-26.5 62.5q0 23 9 43.5t24 35.5t35 24t43 9q40 0 64.5 -25.5t24.5 -64.5q0 -23 -8.5 -42.5t-23.5 -34t-35 -23t-42 -8.5zM397 815q0 -15 11 -24.5
t25 -9.5q20 0 32 14t12 33q0 15 -10.5 24t-24.5 9q-19 0 -32 -14t-13 -32z" />
    <glyph glyph-name="uring" unicode="&#x16f;" horiz-adv-x="537" 
d="M280 -14q-38 0 -74 8t-64.5 26t-45.5 48t-17 74q0 13 1.5 29t4.5 39l27 223h122l-26 -216q-3 -26 -4 -36.5t-1 -15.5q0 -37 21 -56t58 -19q28 0 46 9t29 24.5t16.5 36.5t8.5 45l28 228h122l-29 -239q-4 -30 -10 -56.5t-16.5 -49t-27 -41t-40.5 -32.5q-29 -17 -63.5 -23
t-65.5 -6zM337 506q-37 0 -63.5 22.5t-26.5 60.5q0 45 30.5 75t75.5 30q38 0 60.5 -25t22.5 -62q0 -44 -27.5 -72.5t-71.5 -28.5zM346 639q-19 0 -31 -12.5t-12 -31.5q0 -15 9.5 -24.5t24.5 -9.5q18 0 31 12t13 31q0 15 -10 25t-25 10z" />
    <glyph glyph-name="Uhungarumlaut" unicode="&#x170;" horiz-adv-x="686" 
d="M105 206q0 10 1 26t2.5 32.5t3 31.5t2.5 23l42 348h130l-45 -369q-1 -8 -2 -18.5l-2 -21t-2 -20t-1 -14.5q0 -58 34 -89.5t91 -31.5q29 0 53 7.5t41 20.5q18 13 29 30.5t17 38t9.5 43.5t6.5 47l47 377h130l-48 -391q-4 -29 -8.5 -59t-12.5 -58.5t-22 -55t-36 -48.5
q-24 -24 -51 -38t-54.5 -21t-54 -9t-47.5 -2q-55 0 -101.5 12.5t-80 39t-52.5 68.5t-19 101zM391 921l83 -59l-161 -134l-51 40zM591 920l83 -58l-161 -134l-51 40z" />
    <glyph glyph-name="uhungarumlaut" unicode="&#x171;" horiz-adv-x="537" 
d="M79 142q0 13 1.5 29t4.5 39l27 223h122l-26 -216q-3 -26 -4 -36.5t-1 -15.5q0 -37 21 -56t58 -19q28 0 46 9t29 24.5t16.5 36.5t8.5 45l28 228h122l-29 -239q-4 -30 -10 -56.5t-16.5 -49t-27 -41t-40.5 -32.5q-29 -17 -63.5 -23t-65.5 -6q-38 0 -74 8t-64.5 26t-45.5 48
t-17 74zM307 690l75 -58l-149 -134l-45 40zM495 689l75 -57l-149 -134l-45 40z" />
    <glyph glyph-name="Uogonek" unicode="&#x172;" horiz-adv-x="686" 
d="M344 -15q-51 0 -95 14t-76 41.5t-50 68t-18 93.5q0 11 1 28t2.5 34t3 32t2.5 23l42 348h130l-45 -369q-5 -38 -6 -52t-1 -21q0 -59 33.5 -90.5t91.5 -31.5q29 0 53 7.5t41 20.5q18 13 29 30.5t17 38t9.5 43.5t6.5 47l47 377h130l-52 -423q-6 -48 -14 -82t-23.5 -60
t-41 -48t-67.5 -46q-21 -12 -40 -22.5t-33 -22.5q-15 -13 -21.5 -26t-6.5 -24q0 -17 12 -24.5t27 -7.5q11 0 22.5 3.5t22.5 8.5l-22 -69q-19 -11 -35.5 -14t-28.5 -3q-35 0 -60.5 19t-25.5 57q0 32 19 58.5t44 44.5q-6 -1 -12 -1h-12z" />
    <glyph glyph-name="uogonek" unicode="&#x173;" horiz-adv-x="538" 
d="M275 -14q-37 0 -72.5 8.5t-63 27t-44 48.5t-16.5 72q0 13 1.5 29t4.5 39l27 223h122l-26 -216q-3 -26 -4 -36.5t-1 -15.5q0 -37 21 -56t58 -19q28 0 46 9t29 24.5t16.5 36.5t8.5 45l28 228h122l-32 -262q-4 -32 -11 -55.5t-19 -42.5t-30.5 -35.5t-45.5 -35.5
q-21 -15 -41.5 -34.5t-20.5 -48.5q0 -19 11.5 -27.5t28.5 -8.5q11 0 20.5 2t28.5 10l-23 -67q-19 -10 -34 -13.5t-29 -3.5q-32 0 -58 17.5t-26 53.5q0 33 18 60.5t44 46.5q-17 -3 -38 -3z" />
    <glyph glyph-name="Ydieresis" unicode="&#x178;" horiz-adv-x="590" 
d="M80 667h148l114 -232l172 232h160l-280 -362l-37 -305h-130l37 305zM489 739q-27 0 -46 16t-19 45q0 34 22.5 58.5t57.5 24.5q27 0 45.5 -17.5t18.5 -45.5q0 -33 -23 -57t-56 -24zM265 739q-27 0 -46 16t-19 45q0 34 22.5 58.5t57.5 24.5q27 0 45.5 -17.5t18.5 -45.5
q0 -33 -23 -57t-56 -24z" />
    <glyph glyph-name="Zacute" unicode="&#x179;" horiz-adv-x="584" 
d="M252 112h308l-14 -112h-524l392 555h-273l14 112h489zM316 778l157 142l81 -70l-189 -122z" />
    <glyph glyph-name="zacute" unicode="&#x17a;" horiz-adv-x="484" 
d="M239 104h229l-13 -104h-443l286 329h-208l13 104h422zM477 644l-166 -134l-51 40l136 150z" />
    <glyph glyph-name="Zdotaccent" unicode="&#x17b;" horiz-adv-x="584" 
d="M22 0l392 555h-273l14 112h489l-392 -555h308l-14 -112h-524zM390 739q-31 0 -52 19t-21 51q0 37 25.5 61.5t61.5 24.5q32 0 51.5 -18.5t19.5 -50.5q0 -18 -6.5 -33.5t-18 -27.5t-27 -19t-33.5 -7z" />
    <glyph glyph-name="zdotaccent" unicode="&#x17c;" horiz-adv-x="484" 
d="M12 0l286 329h-208l13 104h422l-286 -329h229l-13 -104h-443zM307 514q-30 0 -51 18t-21 50q0 35 24 59.5t59 24.5q33 0 52 -20t19 -52q0 -35 -23.5 -57.5t-58.5 -22.5z" />
    <glyph glyph-name="Zcaron" unicode="&#x17d;" horiz-adv-x="584" 
d="M252 112h308l-14 -112h-524l392 555h-273l14 112h489zM542 930l54 -64l-196 -134l-164 134l66 64l109 -88z" />
    <glyph glyph-name="zcaron" unicode="&#x17e;" horiz-adv-x="484" 
d="M239 104h229l-13 -104h-443l286 329h-208l13 104h422zM445 708l55 -60l-187 -138l-153 138l65 60l99 -92z" />
    <glyph glyph-name="uni018F" unicode="&#x18f;" horiz-adv-x="763" 
d="M156 93q-21 27 -35.5 60.5t-23.5 70.5t-11.5 76t2.5 77h538q-1 42 -15.5 76t-40 59t-60 38.5t-76.5 13.5q-58 0 -102.5 -22.5t-79.5 -67.5l-114 61q61 74 133 110.5t169 36.5q74 0 133.5 -22t101 -63.5t63.5 -101t22 -133.5q0 -53 -9.5 -97t-25.5 -80t-36.5 -64
t-42.5 -49q-29 -28 -57.5 -45t-58 -26.5t-60 -12.5t-62.5 -3q-39 0 -73.5 4.5t-66 16.5t-59.5 33t-53 54zM223 277q4 -81 51.5 -127.5t128.5 -46.5q82 0 138.5 47t71.5 127h-390z" />
    <glyph glyph-name="florin" unicode="&#x192;" horiz-adv-x="568" 
d="M36 -64q16 -3 32 -3q38 0 61.5 12.5t38.5 34.5t23.5 50t16.5 60l64 257h-60l22 86h60l34 130q10 38 26 70.5t39 56t55 37t75 13.5q35 0 55 -7t30 -12l-27 -107q-13 7 -27 11t-27 4q-36 0 -52.5 -22.5t-24.5 -54.5l-32 -119h108l-22 -86h-108l-65 -266q-15 -61 -34 -109.5
t-49.5 -82t-76 -51.5t-113.5 -18q-26 0 -49 4z" />
    <glyph glyph-name="Ohorn" unicode="&#x1a0;" horiz-adv-x="806" 
d="M85 299q0 86 31 156.5t84.5 121t126.5 78t157 27.5q49 0 93 -12q15 -2 33 -2.5t32 -0.5q20 0 33 7.5t21 19t11.5 26.5t5.5 30h101q-7 -57 -33.5 -93.5t-77.5 -50.5q56 -42 78 -103t22 -129q0 -80 -28 -154t-79 -126q-20 -21 -47 -40.5t-61.5 -34.5t-76.5 -24.5t-93 -9.5
q-49 0 -88 9t-69 22.5t-51.5 30t-36.5 31.5q-42 42 -65 100t-23 121zM463 563q-54 0 -98.5 -19.5t-77 -54t-50 -81t-17.5 -99.5q0 -46 15 -84t42 -65t64.5 -42t83.5 -15q54 0 98.5 21t77 57t50 83.5t17.5 99.5q0 46 -15 82.5t-42.5 62.5t-65 40t-82.5 14z" />
    <glyph glyph-name="ohorn" unicode="&#x1a1;" 
d="M63 193q0 54 21 101.5t54 79.5q13 13 31.5 26t43 23.5t55 17t68.5 6.5q26 0 47 -3.5t40 -9.5q7 -1 14 -1h18q20 0 33 7.5t21 19t11.5 26.5t5.5 30h101q-7 -56 -33 -92.5t-76 -50.5q18 -23 31.5 -55t13.5 -77q0 -42 -16 -90t-61 -92q-42 -42 -91.5 -57.5t-107.5 -15.5
q-48 0 -89 13.5t-71 39.5t-47 65t-17 89zM189 201q0 -48 31.5 -77.5t78.5 -29.5q28 0 52.5 10.5t43 29t29.5 43t11 52.5q0 48 -31.5 79t-79.5 31q-29 0 -54 -10.5t-43 -29.5t-28 -44t-10 -54z" />
    <glyph glyph-name="Uhorn" unicode="&#x1af;" horiz-adv-x="686" 
d="M358 -15q-55 0 -101.5 12.5t-80 39t-52.5 68.5t-19 101q0 10 1 26t2.5 32.5t3 31.5t2.5 23l42 348h130l-45 -369q-1 -8 -2 -18.5l-2 -21t-2 -20t-1 -14.5q0 -58 34 -89.5t91 -31.5q29 0 53 7.5t41 20.5q18 13 29 30.5t17 38t9.5 43.5t6.5 47l47 377h64q20 0 33 7.5t21 19
t11.5 26.5t5.5 30h101q-7 -57 -34 -93.5t-80 -50.5l-40 -330q-3 -29 -7.5 -59t-13 -58.5t-22.5 -55t-36 -48.5q-24 -24 -51 -38t-54.5 -21t-54 -9t-47.5 -2z" />
    <glyph glyph-name="uhorn" unicode="&#x1b0;" horiz-adv-x="537" 
d="M79 142q0 13 1.5 29t4.5 39l27 223h122l-26 -216q-3 -26 -4 -36.5t-1 -15.5q0 -37 21 -56t58 -19q28 0 46 9t29 24.5t16.5 36.5t8.5 45l28 228h55q20 0 33 7.5t21 19t11.5 26.5t5.5 30h101q-7 -57 -34 -93.5t-79 -50.5l-21 -178q-7 -60 -26 -105.5t-68 -73.5
q-29 -17 -63.5 -23t-65.5 -6q-38 0 -74 8t-64.5 26t-45.5 48t-17 74z" />
    <glyph glyph-name="uni01CF" unicode="&#x1cf;" horiz-adv-x="282" 
d="M288 667l-82 -667h-130l82 667h130zM346 920l47 -54l-161 -124l-131 124l61 54l82 -80z" />
    <glyph glyph-name="uni01D0" unicode="&#x1d0;" horiz-adv-x="238" 
d="M233 433l-53 -433h-122l53 433h122zM294 708l50 -56l-160 -128l-128 128l62 56l78 -78z" />
    <glyph glyph-name="uni01DD" unicode="&#x1dd;" horiz-adv-x="525" 
d="M124 40q-19 19 -31.5 44.5t-19.5 53t-8.5 55.5t1.5 54h324q2 21 -4.5 43t-20.5 36q-11 11 -28.5 18t-40.5 7q-31 0 -56 -12.5t-39 -41.5l-115 19q34 66 89.5 98.5t129.5 32.5q47 0 86 -13.5t66.5 -39.5t43 -64t15.5 -86q0 -53 -15 -101t-56 -90q-36 -37 -76 -52t-95 -15
q-42 0 -80 11t-70 43zM172 169q3 -42 28.5 -69.5t68.5 -27.5q47 0 75.5 25.5t36.5 71.5h-209z" />
    <glyph glyph-name="Gcaron" unicode="&#x1e6;" horiz-adv-x="766" 
d="M85 301q0 84 29 154t80.5 120.5t122 78.5t153.5 28q88 0 160 -37t117 -114l-117 -67q-27 50 -73 75t-102 25q-54 0 -98 -20.5t-74.5 -55t-47 -81.5t-16.5 -99q0 -45 14.5 -82.5t40.5 -65t63.5 -42.5t82.5 -15q151 0 198 142h-172l14 112h306q-8 -80 -32.5 -148t-68 -118
t-107 -78t-148.5 -28q-71 0 -130.5 22.5t-103 63.5t-67.5 99.5t-24 130.5zM375 930l109 -88l131 88l54 -64l-196 -134l-164 134z" />
    <glyph glyph-name="gcaron" unicode="&#x1e7;" horiz-adv-x="564" 
d="M256 -230q-88 0 -146.5 44t-68.5 135h128q5 -38 30 -56.5t61 -18.5q61 0 88 33t35 90l8 61q-25 -35 -58 -53.5t-77 -18.5q-47 0 -84 15t-62.5 42.5t-39 66t-13.5 84.5q0 51 16.5 97t46.5 80.5t73 55t96 20.5q44 0 81 -16t60 -54l7 56h122l-51 -413q-2 -19 -5.5 -43
t-10.5 -49.5t-19 -50t-31 -44.5q-24 -25 -69 -44t-117 -19zM312 339q-60 0 -94.5 -38t-34.5 -97q0 -48 30 -79t78 -31q62 0 98.5 37.5t36.5 99.5q0 51 -32.5 79.5t-81.5 28.5zM235 708l99 -92l121 92l55 -60l-187 -138l-153 138z" />
    <glyph glyph-name="AEacute" unicode="&#x1fc;" horiz-adv-x="920" 
d="M6 0l371 667h352l30 -112h-245l42 -149h241l32 -112h-242l51 -182h246l30 -112h-381l-42 140h-269l-76 -140h-140zM466 246l-62 240l-128 -240h190zM476 778l157 142l81 -70l-189 -122z" />
    <glyph glyph-name="aeacute" unicode="&#x1fd;" horiz-adv-x="810" 
d="M51 125q0 42 16 70t42.5 45t60.5 24t70 7q32 0 62.5 -6.5t61.5 -23.5v21q0 51 -29.5 70t-75.5 19q-30 0 -59 -6t-59 -17l12 97q33 11 66.5 16.5t64.5 5.5q22 0 44 -4t42.5 -12.5t37 -22.5t27.5 -34q31 39 73.5 56t91.5 17q57 0 92 -16.5t53 -34.5q38 -38 48 -90t4 -110
h-322q0 -54 28 -84t82 -30q29 0 55 14.5t36 42.5l110 -18q-27 -69 -81 -102t-127 -33q-53 0 -95.5 16t-77.5 55q-32 -43 -78.5 -57t-97.5 -14q-35 0 -67 7t-56.5 23.5t-39.5 43t-15 65.5zM171 126q0 -15 8.5 -25.5t21 -17t27.5 -9t27 -2.5q14 0 30.5 3t30.5 10t23 18.5
t9 29.5q0 16 -9 26t-22 16t-28 8t-27 2q-15 0 -31 -2.5t-29.5 -9t-22 -18t-8.5 -29.5zM559 700l81 -56l-166 -134l-51 40zM692 274q-4 42 -29 64.5t-67 22.5q-45 0 -71 -22.5t-38 -64.5h205z" />
    <glyph glyph-name="uni0218" unicode="&#x218;" horiz-adv-x="534" 
d="M143 192q22 -41 52.5 -65t78.5 -24t80 25.5t32 76.5q0 18 -6.5 32.5t-23.5 28.5t-32.5 19.5t-35.5 13.5l-38 16q-29 12 -51.5 26t-38 32.5t-24 43t-8.5 57.5q0 52 19 91.5t51.5 65t75.5 38.5t92 13q16 0 37.5 -2t45 -10t48.5 -23.5t49 -42.5l-79 -89q-14 20 -39.5 38.5
t-67.5 18.5q-18 0 -35.5 -5t-31 -14.5t-22 -24.5t-8.5 -35q0 -32 28 -51q10 -7 24 -13t39 -17l45 -19q54 -23 89 -62t35 -101q0 -55 -19.5 -103t-51.5 -79q-42 -40 -91 -51.5t-91 -11.5q-75 0 -128.5 32.5t-93.5 93.5zM253 -50l112 -16l-130 -204l-80 12z" />
    <glyph glyph-name="uni0219" unicode="&#x219;" horiz-adv-x="400" 
d="M205 -14q-54 0 -93 17t-75 55l73 74q15 -21 39.5 -35.5t50.5 -14.5q25 0 44.5 11t19.5 40q0 6 -2 13t-9 14t-18 11t-25 10l-30 12q-38 15 -62 39.5t-24 69.5q0 36 13.5 63t36 45.5t53 27.5t63.5 9q42 0 74 -10t65 -34l-63 -75q-31 31 -72 31q-20 0 -35 -9t-15 -31
q0 -14 9 -22t35 -16l37 -12q45 -14 71 -43t26 -78q0 -40 -15.5 -70.5t-41 -50.5t-59.5 -30.5t-71 -10.5zM168 -50l112 -16l-130 -204l-80 12z" />
    <glyph glyph-name="uni021A" unicode="&#x21a;" horiz-adv-x="442" 
d="M88 667h430l-14 -112h-150l-68 -555h-130l68 555h-150zM73 -258l98 208l112 -16l-130 -204z" />
    <glyph glyph-name="uni021B" unicode="&#x21b;" horiz-adv-x="270" 
d="M63 433h48l18 148h122l-18 -148h84l-13 -104h-84l-40 -329h-122l40 329h-48zM78 -50l112 -16l-130 -204l-80 12z" />
    <glyph glyph-name="uni0228" unicode="&#x228;" horiz-adv-x="496" 
d="M76 0l82 667h370l-14 -112h-240l-18 -149h230l-14 -112h-230l-22 -182h240l-14 -112h-370zM264 -46l96 -44l-150 -154l-70 36z" />
    <glyph glyph-name="uni0229" unicode="&#x229;" horiz-adv-x="526" 
d="M276 -14q-47 0 -86 13t-67 38.5t-44 63t-16 85.5q0 57 17 105t49 82.5t78 54t104 19.5q101 0 152.5 -53.5t51.5 -153.5v-24t-2 -20h-324q-4 -30 3.5 -51.5t21.5 -35.5q17 -17 35.5 -22t35.5 -5q38 0 63.5 12.5t44.5 46.5l105 -25q-34 -70 -90.5 -100t-131.5 -30z
M156 -200l118 154l88 -44l-142 -146zM313 361q-41 0 -70 -24.5t-40 -62.5h205q-2 41 -28.5 64t-66.5 23z" />
    <glyph glyph-name="uni0237" unicode="&#x237;" horiz-adv-x="238" 
d="M233 433l-81 -662h-122l81 662h122z" />
    <glyph glyph-name="uni0259" unicode="&#x259;" horiz-adv-x="525" 
d="M124 40q-19 19 -31.5 44.5t-19.5 53t-8.5 55.5t1.5 54h324q2 21 -4.5 43t-20.5 36q-11 11 -28.5 18t-40.5 7q-31 0 -56 -12.5t-39 -41.5l-115 19q34 66 89.5 98.5t129.5 32.5q47 0 86 -13.5t66.5 -39.5t43 -64t15.5 -86q0 -53 -15 -101t-56 -90q-36 -37 -76 -52t-95 -15
q-42 0 -80 11t-70 43zM172 169q3 -42 28.5 -69.5t68.5 -27.5q47 0 75.5 25.5t36.5 71.5h-209z" />
    <glyph glyph-name="uni02BC" unicode="&#x2bc;" horiz-adv-x="500" 
d="M266 690l114 -20l-136 -208l-84 16z" />
    <glyph glyph-name="circumflex" unicode="&#x2c6;" horiz-adv-x="500" 
d="M205 510l-55 60l187 138l153 -138l-65 -60l-99 92z" />
    <glyph glyph-name="caron" unicode="&#x2c7;" horiz-adv-x="500" 
d="M445 708l55 -60l-187 -138l-153 138l65 60l99 -92z" />
    <glyph glyph-name="uni02C9" unicode="&#x2c9;" horiz-adv-x="500" 
d="M146 619h364l-10 -80h-364z" />
    <glyph glyph-name="breve" unicode="&#x2d8;" horiz-adv-x="500" 
d="M246 650q4 -31 24.5 -47t50.5 -16q67 0 85 63h88q-6 -33 -21.5 -59.5t-38.5 -44.5t-52.5 -27.5t-62.5 -9.5q-66 0 -108.5 36.5t-44.5 104.5h80z" />
    <glyph glyph-name="dotaccent" unicode="&#x2d9;" horiz-adv-x="500" 
d="M245 582q0 35 24 59.5t59 24.5q33 0 52 -20t19 -52q0 -35 -23.5 -57.5t-58.5 -22.5q-30 0 -51 18t-21 50z" />
    <glyph glyph-name="ring" unicode="&#x2da;" horiz-adv-x="500" 
d="M319 506q-37 0 -63.5 22.5t-26.5 60.5q0 45 30.5 75t75.5 30q38 0 60.5 -25t22.5 -62q0 -44 -27.5 -72.5t-71.5 -28.5zM328 639q-19 0 -31 -12.5t-12 -31.5q0 -15 9.5 -24.5t24.5 -9.5q18 0 31 12t13 31q0 15 -10 25t-25 10z" />
    <glyph glyph-name="ogonek" unicode="&#x2db;" horiz-adv-x="500" 
d="M192 -114q0 19 8 36t21 31.5t28.5 26t30.5 20.5h58q-11 -7 -22.5 -15t-21 -18.5t-15.5 -22.5t-6 -26q0 -17 12 -24t27 -7q11 0 22.5 2t27.5 10l-23 -67q-17 -10 -33.5 -13.5t-32.5 -3.5q-33 0 -57 18t-24 53z" />
    <glyph glyph-name="tilde" unicode="&#x2dc;" horiz-adv-x="500" 
d="M132 571q21 35 51 58t73 23q20 0 34.5 -4.5t28.5 -10.5l36 -15q36 -16 52 -16q31 0 50 41l54 -48q-20 -31 -46.5 -56t-66.5 -25q-21 0 -38.5 6t-31.5 12l-32 14q-12 5 -25.5 9.5t-23.5 4.5q-20 0 -36 -14t-24 -27z" />
    <glyph glyph-name="hungarumlaut" unicode="&#x2dd;" horiz-adv-x="500" 
d="M364 632l-149 -134l-45 40l119 152zM552 632l-149 -134l-45 40l119 151z" />
    <glyph glyph-name="acutecomb" unicode="&#x301;" horiz-adv-x="2" 
d="M-64 644l-166 -134l-51 40l136 150z" />
    <glyph glyph-name="uni0394" unicode="&#x394;" horiz-adv-x="668" 
d="M18 0l248 667h132l252 -667h-632zM194 112h278l-139 406z" />
    <glyph glyph-name="uni0394" unicode="&#x2206;" horiz-adv-x="668" 
d="M18 0l248 667h132l252 -667h-632zM194 112h278l-139 406z" />
    <glyph glyph-name="uni03A9" unicode="&#x3a9;" horiz-adv-x="627" 
d="M30 364q0 69 22 127.5t62 100.5t97 66t127 24t127 -24t97 -66t62 -100.5t22 -127.5q0 -83 -36.5 -148t-109.5 -104h142v-112h-268v112q72 35 105 100t33 143q0 39 -11 76.5t-33 67t-54.5 47.5t-75.5 18q-44 0 -76.5 -18t-54 -48t-32.5 -68t-11 -77q0 -78 33.5 -142
t104.5 -99v-112h-268v112h142q-73 39 -109.5 104t-36.5 148z" />
    <glyph glyph-name="uni03A9" unicode="&#x2126;" horiz-adv-x="627" 
d="M30 364q0 69 22 127.5t62 100.5t97 66t127 24t127 -24t97 -66t62 -100.5t22 -127.5q0 -83 -36.5 -148t-109.5 -104h142v-112h-268v112q72 35 105 100t33 143q0 39 -11 76.5t-33 67t-54.5 47.5t-75.5 18q-44 0 -76.5 -18t-54 -48t-32.5 -68t-11 -77q0 -78 33.5 -142
t104.5 -99v-112h-268v112h142q-73 39 -109.5 104t-36.5 148z" />
    <glyph glyph-name="pi" unicode="&#x3c0;" horiz-adv-x="621" 
d="M638 433v-104h-76v-329h-122v329h-166v-329h-122v329h-76v104h562z" />
    <glyph glyph-name="uni0401" unicode="&#x401;" horiz-adv-x="496" 
d="M76 0l82 667h370l-14 -112h-240l-18 -149h230l-14 -112h-230l-22 -182h240l-14 -112h-370zM465 739q-27 0 -46 16t-19 45q0 34 22.5 58.5t57.5 24.5q27 0 45.5 -17.5t18.5 -45.5q0 -33 -23 -57t-56 -24zM176 800q0 34 22.5 58.5t57.5 24.5q27 0 45.5 -17.5t18.5 -45.5
q0 -33 -23 -57t-56 -24q-27 0 -46 16t-19 45z" />
    <glyph glyph-name="uni0402" unicode="&#x402;" horiz-adv-x="672" 
d="M74 555l14 112h490l-14 -112h-220l-21 -170q30 11 63 17t71 6q49 0 89.5 -12t69 -37t44 -62.5t15.5 -89.5q0 -48 -16.5 -91.5t-48.5 -72.5q-35 -32 -78 -41t-83 -9q-19 0 -43 1.5t-52 6.5l14 111q16 -3 34 -5t37 -2q52 0 76 25.5t24 77.5q0 50 -29.5 69t-75.5 19
q-24 0 -56 -4.5t-68 -18.5l-34 -273h-130l68 555h-140z" />
    <glyph glyph-name="uni0403" unicode="&#x403;" horiz-adv-x="436" 
d="M498 555h-224l-68 -555h-130l82 667h354zM296 778l157 142l81 -70l-189 -122z" />
    <glyph glyph-name="uni0404" unicode="&#x404;" horiz-adv-x="613" 
d="M407 -15q-72 0 -131 21t-101.5 60.5t-66 97t-23.5 131.5q0 91 29.5 164t77.5 121q33 33 68.5 53t72 31t72 14.5t67.5 3.5t76.5 -6.5t99.5 -34.5l-18 -150q-21 24 -44 38.5t-45.5 22t-43.5 10t-37 2.5q-42 0 -81 -10t-74 -41q-27 -24 -46 -56t-28 -66h320l-14 -112h-315
q4 -42 21 -75t44 -55.5t62 -34.5t77 -12q34 0 60.5 6.5t46 17t34 24t24.5 26.5l-19 -152q-21 -11 -61 -25t-104 -14z" />
    <glyph glyph-name="uni0405" unicode="&#x405;" horiz-adv-x="534" 
d="M143 192q22 -41 52.5 -65t78.5 -24t80 25.5t32 76.5q0 18 -6.5 32.5t-23.5 28.5t-32.5 19.5t-35.5 13.5l-38 16q-29 12 -51.5 26t-38 32.5t-24 43t-8.5 57.5q0 52 19 91.5t51.5 65t75.5 38.5t92 13q16 0 37.5 -2t45 -10t48.5 -23.5t49 -42.5l-79 -89q-14 20 -39.5 38.5
t-67.5 18.5q-18 0 -35.5 -5t-31 -14.5t-22 -24.5t-8.5 -35q0 -32 28 -51q10 -7 24 -13t39 -17l45 -19q54 -23 89 -62t35 -101q0 -55 -19.5 -103t-51.5 -79q-42 -40 -91 -51.5t-91 -11.5q-75 0 -128.5 32.5t-93.5 93.5z" />
    <glyph glyph-name="uni0406" unicode="&#x406;" horiz-adv-x="282" 
d="M288 667l-82 -667h-130l82 667h130z" />
    <glyph glyph-name="uni0407" unicode="&#x407;" horiz-adv-x="282" 
d="M158 667h130l-82 -667h-130zM105 798q0 14 4.5 29t13.5 27.5t21.5 20.5t28.5 8q24 0 37 -20t13 -42q0 -14 -4.5 -28.5t-13.5 -26.5t-21.5 -19.5t-27.5 -7.5q-23 0 -37 19t-14 40zM306 739q-23 0 -37 19t-14 40q0 14 4.5 29t13.5 27.5t21.5 20.5t28.5 8q24 0 37 -20
t13 -42q0 -14 -4.5 -28.5t-13.5 -26.5t-21.5 -19.5t-27.5 -7.5z" />
    <glyph glyph-name="uni0408" unicode="&#x408;" horiz-adv-x="390" 
d="M136 -15q-48 0 -85 14t-71 48l90 95q14 -24 31.5 -30t30.5 -6t25 4t23 15q17 17 22.5 47.5t10.5 64.5l53 430h130l-55 -447q-4 -29 -8 -55.5t-11.5 -50.5t-19 -44.5t-30.5 -37.5q-33 -31 -69 -39t-67 -8z" />
    <glyph glyph-name="uni0409" unicode="&#x409;" horiz-adv-x="945" 
d="M69 -6q-28 0 -59 6l14 112q15 -6 36 -6q26 0 43.5 8t27.5 19q24 26 31.5 67.5t12.5 84.5l47 382h454l-32 -261h90q44 0 83.5 -10.5t69 -33t46.5 -57t17 -82.5q0 -54 -18 -94t-44 -66q-22 -22 -47 -34.5t-50.5 -19t-51 -8t-48.5 -1.5h-227l67 555h-193l-36 -296
q-3 -29 -8 -58t-13 -56t-21 -51t-33 -43t-41.5 -30.5t-42.5 -17.5t-40 -7.5t-34 -1.5zM608 112h76q24 0 47.5 4t42 14.5t30.5 28.5t12 47q0 27 -10.5 44t-27 26.5t-38.5 13.5t-44 4h-66z" />
    <glyph glyph-name="uni040A" unicode="&#x40a;" horiz-adv-x="968" 
d="M158 667h130l-33 -261h282l32 261h130l-32 -261h90q44 0 83.5 -10.5t69 -33t46.5 -57t17 -82.5q0 -54 -18 -94t-44 -66q-22 -22 -47 -34.5t-50.5 -19t-51 -8t-48.5 -1.5h-227l36 294h-282l-35 -294h-130zM631 112h76q24 0 47.5 4t42 14.5t30.5 28.5t12 47q0 27 -10.5 44
t-27 26.5t-38.5 13.5t-44 4h-66z" />
    <glyph glyph-name="uni040B" unicode="&#x40b;" horiz-adv-x="693" 
d="M74 555l14 112h470l-14 -112h-200l-20 -160q47 10 81 11.5t47 1.5q40 0 79 -7.5t69.5 -25.5t49 -49t18.5 -79q0 -17 -2.5 -35.5t-5.5 -46.5l-20 -165h-130l17 142q3 24 5 38t2 26q0 28 -11 45.5t-28.5 27.5t-40 13.5t-45.5 3.5q-55 0 -98 -13l-35 -283h-130l68 555h-140z
" />
    <glyph glyph-name="uni040C" unicode="&#x40c;" horiz-adv-x="617" 
d="M158 667h130l-34 -266l273 266h151l-319 -311l253 -356h-156l-192 289l-25 -24l-33 -265h-130zM334 778l157 142l81 -70l-189 -122z" />
    <glyph glyph-name="uni040E" unicode="&#x40e;" horiz-adv-x="606" 
d="M84 667h140l132 -327l180 327h150l-391 -667h-142l122 200zM299 880q6 -20 15 -30t11 -11q17 -8 32.5 -12.5t25.5 -4.5q34 0 58 13t38 45l90 -36q-28 -60 -77.5 -86t-113.5 -26t-105 25.5t-64 86.5z" />
    <glyph glyph-name="uni040F" unicode="&#x40f;" horiz-adv-x="676" 
d="M158 667h130l-68 -555h264l68 555h130l-82 -667h-202l-20 -166h-120l20 166h-202z" />
    <glyph glyph-name="uni0410" unicode="&#x410;" horiz-adv-x="672" 
d="M375 667h98l197 -667h-137l-42 140h-269l-76 -140h-144zM276 246h190l-64 240z" />
    <glyph glyph-name="uni0411" unicode="&#x411;" 
d="M158 667h386l-14 -112h-256l-19 -153h72q45 0 86 -9.5t72 -31t49.5 -56t18.5 -84.5q0 -48 -18.5 -91t-47.5 -70q-25 -23 -71.5 -41.5t-118.5 -18.5h-221zM282 112q24 0 48 4t43.5 14.5t31.5 29t12 47.5q0 27 -11 43.5t-29 25t-40 11.5t-43 3h-52l-22 -178h62z" />
    <glyph glyph-name="uni0412" unicode="&#x412;" horiz-adv-x="571" 
d="M158 667h165q42 0 79.5 -8t65 -26.5t44 -50t16.5 -78.5q0 -48 -23 -89.5t-70 -58.5q52 -17 83.5 -54t31.5 -94q0 -54 -17 -89t-37 -55q-31 -32 -77 -48t-123 -16h-220zM219 106h56q26 0 51.5 3t46 12.5t33 28.5t12.5 52q0 28 -11.5 45.5t-29.5 27t-41 12.5t-46 3h-48z
M282 390q29 0 53.5 5t43.5 25q11 11 18 27.5t7 35.5q0 44 -29 61t-68 17h-32l-21 -171h28z" />
    <glyph glyph-name="uni0413" unicode="&#x413;" horiz-adv-x="436" 
d="M498 555h-224l-68 -555h-130l82 667h354z" />
    <glyph glyph-name="uni0414" unicode="&#x414;" horiz-adv-x="670" 
d="M24 112q19 2 41.5 10t44.5 28t35 46.5t21 56t12 61.5t8 63l36 290h450l-68 -555h70l-32 -262h-120l18 150h-410l-18 -150h-120zM285 223q-14 -41 -34.5 -67.5t-39.5 -43.5h263l54 443h-194l-22 -178q-5 -43 -10.5 -82t-16.5 -72z" />
    <glyph glyph-name="uni0415" unicode="&#x415;" horiz-adv-x="496" 
d="M76 0l82 667h370l-14 -112h-240l-18 -149h230l-14 -112h-230l-22 -182h240l-14 -112h-370z" />
    <glyph glyph-name="uni0416" unicode="&#x416;" horiz-adv-x="861" 
d="M574 667l-35 -282l241 282h148l-284 -312l220 -355h-144l-174 292l-20 -16l-34 -276h-124l35 284l-13 15l-234 -299h-150l295 359l-217 308h144l187 -282l35 282h124z" />
    <glyph glyph-name="uni0417" unicode="&#x417;" horiz-adv-x="600" 
d="M149 192q21 -51 61.5 -75t94.5 -24q26 0 51.5 6t45 19.5t31.5 34.5t12 50q0 30 -11.5 47.5t-30.5 27.5t-43 13t-48 3h-62l14 112h60q21 0 42.5 4.5t39.5 14.5t29 27t11 42q0 20 -8 34t-21 23t-30 13t-35 4q-37 0 -71 -14.5t-62 -38.5l-57 89q49 39 99 58t113 19
q34 0 71 -6t69 -29q25 -18 43.5 -49t18.5 -76q0 -51 -26.5 -92.5t-74.5 -61.5q50 -17 77.5 -56t27.5 -91q0 -56 -19 -96t-45 -66q-36 -37 -89 -55t-134 -18q-76 0 -138.5 29t-100.5 97z" />
    <glyph glyph-name="uni0418" unicode="&#x418;" horiz-adv-x="736" 
d="M156 667h130l-54 -440l424 440h88l-82 -667h-130l54 443l-422 -443h-90z" />
    <glyph glyph-name="uni0419" unicode="&#x419;" horiz-adv-x="736" 
d="M74 0l82 667h130l-54 -440l424 440h88l-82 -667h-130l54 443l-422 -443h-90zM387 880q6 -20 15 -30t11 -11q17 -8 32.5 -12.5t25.5 -4.5q34 0 58 13t38 45l90 -36q-28 -60 -77.5 -86t-113.5 -26t-105 25.5t-64 86.5z" />
    <glyph glyph-name="uni041A" unicode="&#x41a;" horiz-adv-x="617" 
d="M158 667h130l-34 -266l273 266h151l-319 -311l253 -356h-156l-192 289l-25 -24l-33 -265h-130z" />
    <glyph glyph-name="uni041B" unicode="&#x41b;" horiz-adv-x="670" 
d="M24 112q15 -6 36 -6q26 0 43.5 8t27.5 19q24 26 31.5 67.5t12.5 84.5l47 382h454l-82 -667h-130l68 555h-194l-36 -296q-3 -29 -8 -58t-13 -56t-21 -51t-33 -43t-41.5 -30.5t-42.5 -17.5t-40 -7.5t-34 -1.5q-28 0 -59 6z" />
    <glyph glyph-name="uni041C" unicode="&#x41c;" horiz-adv-x="870" 
d="M249 667h94l124 -424l238 424h94l29 -667h-130l-10 411l-232 -411h-40l-122 411l-118 -411h-134z" />
    <glyph glyph-name="uni041D" unicode="&#x41d;" horiz-adv-x="694" 
d="M158 667h130l-32 -258h282l32 258h130l-82 -667h-130l36 297h-282l-36 -297h-130z" />
    <glyph glyph-name="uni041E" unicode="&#x41e;" horiz-adv-x="806" 
d="M173 78q-42 42 -65 100t-23 121q0 86 31 156.5t84.5 121t126.5 78t157 27.5q69 0 127.5 -22t101 -62t66.5 -97t24 -127q0 -80 -28 -154t-79 -126q-20 -21 -47 -40.5t-61.5 -34.5t-76.5 -24.5t-93 -9.5q-49 0 -88 9t-69 22.5t-51.5 30t-36.5 31.5zM463 563
q-54 0 -98.5 -19.5t-77 -54t-50 -81t-17.5 -99.5q0 -46 15 -84t42 -65t64.5 -42t83.5 -15q54 0 98.5 21t77 57t50 83.5t17.5 99.5q0 46 -15 82.5t-42.5 62.5t-65 40t-82.5 14z" />
    <glyph glyph-name="uni041F" unicode="&#x41f;" horiz-adv-x="680" 
d="M158 667h528l-82 -667h-130l68 555h-268l-68 -555h-130z" />
    <glyph glyph-name="uni0420" unicode="&#x420;" horiz-adv-x="535" 
d="M158 667h180q50 0 92.5 -10t74 -33.5t49 -61t17.5 -91.5q0 -58 -18 -100.5t-50 -70t-77.5 -40.5t-100.5 -13h-89l-30 -247h-130zM250 359h55q27 0 51 5t42 17.5t28.5 33t10.5 51.5q0 26 -10 43.5t-26 27.5t-37.5 14t-43.5 4h-46z" />
    <glyph glyph-name="uni0421" unicode="&#x421;" horiz-adv-x="607" 
d="M401 -15q-69 0 -127 21t-100 61t-65.5 96.5t-23.5 127.5q0 95 30.5 168.5t76.5 120.5q32 33 68 53t72 31t70 14.5t64 3.5q32 0 77 -6.5t99 -34.5l-18 -150q-21 24 -44.5 38.5t-46 22t-43 10t-36.5 2.5q-55 0 -98.5 -20t-73.5 -54.5t-46 -81t-16 -98.5q0 -45 14 -83
t40 -65.5t63 -43.5t83 -16q38 0 66 8.5t48 20t32.5 24t18.5 21.5l-19 -152q-20 -11 -60.5 -25t-104.5 -14z" />
    <glyph glyph-name="uni0422" unicode="&#x422;" horiz-adv-x="442" 
d="M88 667h430l-14 -112h-150l-68 -555h-130l68 555h-150z" />
    <glyph glyph-name="uni0423" unicode="&#x423;" horiz-adv-x="606" 
d="M224 667l132 -327l180 327h150l-391 -667h-142l122 200l-191 467h140z" />
    <glyph glyph-name="uni0424" unicode="&#x424;" horiz-adv-x="834" 
d="M87 323q0 69 23.5 121t56.5 86q25 25 55 42t62 26.5t66 13.5t67 4h10l9 78h130l-9 -78h9q58 0 107 -15t84.5 -45t55.5 -75.5t20 -105.5q0 -77 -25 -131t-69 -88t-104.5 -49t-132.5 -15h-10l-11 -92h-130l11 92h-7q-56 0 -105 13t-85 41t-57 71.5t-21 105.5zM516 204
q82 0 132 40t50 126q0 71 -39.5 102.5t-106.5 31.5h-9l-37 -300h10zM402 504q-83 0 -132 -44t-49 -129q0 -35 11.5 -59t32 -39t47.5 -22t59 -7h5l37 300h-11z" />
    <glyph glyph-name="uni0425" unicode="&#x425;" horiz-adv-x="634" 
d="M287 352l-160 315h150l91 -207l149 207h156l-244 -315l185 -352h-150l-116 244l-184 -244h-156z" />
    <glyph glyph-name="uni0426" unicode="&#x426;" horiz-adv-x="690" 
d="M158 667h130l-68 -555h264l68 555h130l-68 -555h80l-32 -262h-120l18 150h-484z" />
    <glyph glyph-name="uni0427" unicode="&#x427;" horiz-adv-x="622" 
d="M107 426q0 19 3 42t6 51l18 148h130l-17 -141q-2 -19 -4.5 -35.5t-2.5 -31.5q0 -29 12 -46t31 -26.5t42.5 -12.5t46.5 -3q25 0 47 3t43 8l36 285h130l-82 -667h-130l33 270q-30 -6 -57 -8.5t-55 -2.5q-42 0 -83 7.5t-73.5 26.5t-53 51t-20.5 82z" />
    <glyph glyph-name="uni0428" unicode="&#x428;" horiz-adv-x="970" 
d="M158 667h130l-68 -555h214l68 555h130l-68 -555h214l68 555h130l-82 -667h-818z" />
    <glyph glyph-name="uni0429" unicode="&#x429;" horiz-adv-x="984" 
d="M158 667h130l-68 -555h214l68 555h130l-68 -555h214l68 555h130l-68 -555h80l-32 -262h-120l18 150h-778z" />
    <glyph glyph-name="uni042A" unicode="&#x42a;" horiz-adv-x="627" 
d="M88 667h270l-32 -261h90q44 0 83.5 -10.5t69 -33t46.5 -57t17 -82.5q0 -54 -18 -94t-44 -66q-22 -22 -47 -34.5t-50.5 -19t-51 -8t-48.5 -1.5h-227l68 555h-140zM290 112h76q24 0 47.5 4t42 14.5t30.5 28.5t12 47q0 27 -10.5 44t-27 26.5t-38.5 13.5t-44 4h-66z" />
    <glyph glyph-name="uni042B" unicode="&#x42b;" horiz-adv-x="800" 
d="M158 667h130l-32 -261h90q44 0 83.5 -10.5t69 -33t46.5 -57t17 -82.5q0 -54 -18 -94t-44 -66q-22 -22 -47 -34.5t-50.5 -19t-51 -8t-48.5 -1.5h-227zM594 0l82 667h130l-82 -667h-130zM296 112q24 0 47.5 4t42 14.5t30.5 28.5t12 47q0 27 -10.5 44t-27 26.5t-38.5 13.5
t-44 4h-66l-22 -182h76z" />
    <glyph glyph-name="uni042C" unicode="&#x42c;" horiz-adv-x="557" 
d="M158 667h130l-32 -261h90q44 0 83.5 -10.5t69 -33t46.5 -57t17 -82.5q0 -54 -18 -94t-44 -66q-22 -22 -47 -34.5t-50.5 -19t-51 -8t-48.5 -1.5h-227zM296 112q24 0 47.5 4t42 14.5t30.5 28.5t12 47q0 27 -10.5 44t-27 26.5t-38.5 13.5t-44 4h-66l-22 -182h76z" />
    <glyph glyph-name="uni042D" unicode="&#x42d;" horiz-adv-x="614" 
d="M66 176q19 -22 40.5 -36t43 -22.5t43.5 -11.5t42 -3q44 0 82.5 10.5t68.5 32.5t51 55t30 78h-299l14 112h297q-1 41 -15 73t-39 54.5t-58.5 34t-72.5 11.5q-54 0 -102.5 -20t-87.5 -55l19 152q57 26 103.5 33.5t79.5 7.5q146 0 225.5 -79t79.5 -225q0 -57 -11 -104
t-27.5 -84t-36.5 -65t-39 -47q-48 -50 -111.5 -71.5t-154.5 -21.5q-37 0 -66.5 4t-52 10t-39 13t-26.5 12z" />
    <glyph glyph-name="uni042E" unicode="&#x42e;" horiz-adv-x="1019" 
d="M76 0l82 667h130l-32 -258h86q16 64 49.5 115t80.5 86t105 53.5t124 18.5q69 0 126.5 -21.5t99.5 -61t65.5 -95.5t23.5 -126q0 -83 -25 -154.5t-72 -124.5t-115 -83.5t-154 -30.5q-29 0 -60 3.5t-62.5 14t-62 28.5t-57.5 47q-34 36 -57.5 91.5t-21.5 127.5h-87l-36 -297
h-130zM455 309q0 -43 13.5 -80.5t38.5 -65.5t61 -44t80 -16q56 0 99.5 21t73 56.5t45 83t15.5 100.5q0 43 -12.5 79.5t-36.5 63t-59 41.5t-79 15q-54 0 -98 -20t-75.5 -54.5t-48.5 -81t-17 -98.5z" />
    <glyph glyph-name="uni042F" unicode="&#x42f;" horiz-adv-x="568" 
d="M12 0l231 270q-61 15 -94 58.5t-33 106.5q0 48 17 92.5t52 76.5q23 21 48.5 33.5t51.5 19t50.5 8.5t45.5 2h193l-82 -667h-130l32 258h-16l-202 -258h-164zM284 531q-14 -14 -23 -36t-9 -45q0 -27 11 -44.5t28.5 -27.5t39.5 -14t45 -4h30l25 201h-40q-26 0 -55 -4
t-52 -26z" />
    <glyph glyph-name="uni0430" unicode="&#x430;" 
d="M63 194q0 54 16 100.5t47 80t75 53t100 19.5q42 0 78.5 -17t58.5 -53l7 56h122l-53 -433h-122l7 56q-26 -34 -60 -52t-76 -18q-46 0 -83 15.5t-63 43t-40 66t-14 83.5zM318 339q-28 0 -51.5 -10t-40.5 -27.5t-26.5 -41.5t-9.5 -52q0 -53 30 -83.5t83 -30.5q59 0 94 38.5
t35 96.5q0 50 -32.5 80t-81.5 30z" />
    <glyph glyph-name="uni0431" unicode="&#x431;" horiz-adv-x="581" 
d="M303 -14q-105 0 -166 60t-61 166q0 41 8.5 93t24.5 103t38.5 95.5t50.5 71.5q38 37 85.5 52.5t100.5 26.5q27 5 46.5 10t33 12t21.5 17.5t12 26.5h112q-15 -44 -34.5 -72.5t-45.5 -47t-60 -29.5t-77 -20q-35 -8 -69.5 -19.5t-61.5 -40.5q-18 -20 -31 -48.5t-18 -57.5h2
q17 20 36 32t38.5 19t37 9t31.5 2q46 0 85.5 -14t69 -40.5t46 -64t16.5 -85.5q0 -54 -19 -100.5t-53 -81.5q-43 -45 -92.5 -60t-106.5 -15zM201 203q0 -51 30.5 -80t80.5 -29q29 0 53.5 10.5t42.5 28.5t28.5 43t10.5 54q0 52 -32.5 80.5t-83.5 28.5q-60 0 -95 -38.5
t-35 -97.5z" />
    <glyph glyph-name="uni0432" unicode="&#x432;" horiz-adv-x="457" 
d="M111 433h180q27 0 52.5 -5t46 -17.5t33 -33t12.5 -51.5q0 -35 -18.5 -62t-53.5 -36q34 -8 55.5 -31.5t21.5 -59.5q0 -35 -13 -60.5t-34.5 -42.5t-50.5 -25.5t-61 -8.5h-223zM255 96q23 0 42 10t19 36q0 24 -17 32.5t-37 8.5h-60l-10 -87h63zM260 261q10 0 21 1t20 5.5
t15 12t6 21.5q0 23 -15.5 29.5t-34.5 6.5h-51l-9 -76h48z" />
    <glyph glyph-name="uni0433" unicode="&#x433;" horiz-adv-x="340" 
d="M111 433h276l-13 -104h-154l-40 -329h-122z" />
    <glyph glyph-name="uni0434" unicode="&#x434;" horiz-adv-x="530" 
d="M-11 -126l28 230q33 3 53.5 19.5t33 39.5t18.5 51.5t9 55.5l20 163h360l-40 -329h64l-28 -230h-110l15 126h-298l-15 -126h-110zM349 104l27 225h-128l-11 -96q-5 -38 -17.5 -70.5t-41.5 -58.5h171z" />
    <glyph glyph-name="uni0435" unicode="&#x435;" horiz-adv-x="526" 
d="M276 -14q-47 0 -86 13t-67 38.5t-44 63t-16 85.5q0 57 17 105t49 82.5t78 54t104 19.5q101 0 152.5 -53.5t51.5 -153.5v-24t-2 -20h-324q-4 -30 3.5 -51.5t21.5 -35.5q17 -17 35.5 -22t35.5 -5q38 0 63.5 12.5t44.5 46.5l105 -25q-34 -70 -90.5 -100t-131.5 -30zM313 361
q-41 0 -70 -24.5t-40 -62.5h205q-2 41 -28.5 64t-66.5 23z" />
    <glyph glyph-name="uni0436" unicode="&#x436;" horiz-adv-x="655" 
d="M200 236l-141 197h134l110 -168l20 168h110l-20 -168l146 168h142l-194 -200l142 -233h-136l-96 170l-18 -18l-19 -152h-110l19 152l-14 18l-135 -170h-142z" />
    <glyph glyph-name="uni0437" unicode="&#x437;" horiz-adv-x="439" 
d="M102 135q23 -22 52 -35.5t61 -13.5q12 0 25.5 2.5t25.5 8.5t19.5 16t7.5 25q0 13 -7.5 21t-18 12.5t-22.5 6t-22 1.5h-51l11 88h49q11 0 23 1.5t22 6t16.5 13.5t6.5 23q0 12 -6.5 19.5t-16 12t-20.5 6.5t-20 2q-26 0 -49 -9.5t-43 -26.5l-53 78q38 27 77 40.5t86 13.5
q27 0 55 -6t51 -19.5t37.5 -35.5t14.5 -54q0 -33 -20 -61t-52 -38q35 -11 56 -34t21 -61q0 -20 -7.5 -48t-34.5 -55q-23 -23 -58 -36t-96 -13q-59 0 -103.5 16.5t-85.5 58.5z" />
    <glyph glyph-name="uni0438" unicode="&#x438;" horiz-adv-x="560" 
d="M111 433h122l-33 -267l233 267h122l-53 -433h-122l33 267l-233 -267h-122z" />
    <glyph glyph-name="uni0439" unicode="&#x439;" horiz-adv-x="560" 
d="M58 0l53 433h122l-33 -267l233 267h122l-53 -433h-122l33 267l-233 -267h-122zM275 650q6 -33 28.5 -48t54.5 -15t53.5 17t31.5 46l77 -38q-20 -53 -66 -78t-100 -25q-27 0 -52.5 6t-47 18.5t-37.5 32t-25 46.5z" />
    <glyph glyph-name="uni043A" unicode="&#x43a;" horiz-adv-x="489" 
d="M111 433h122l-20 -168l176 168h147l-222 -200l174 -233h-140l-124 175l-25 -19l-19 -156h-122z" />
    <glyph glyph-name="uni043B" unicode="&#x43b;" horiz-adv-x="500" 
d="M21 105q12 -3 24 -3q36 0 50.5 22t18.5 54l31 255h350l-53 -433h-122l40 329h-118l-19 -159q-5 -37 -16 -68.5t-31 -55t-49.5 -37t-69.5 -13.5q-29 0 -49 5z" />
    <glyph glyph-name="uni043C" unicode="&#x43c;" horiz-adv-x="600" 
d="M146 433h90l87 -249l147 249h94l24 -433h-120l-7 235l-138 -235h-40l-82 235l-65 -235h-124z" />
    <glyph glyph-name="uni043D" unicode="&#x43d;" horiz-adv-x="530" 
d="M111 433h122l-19 -153h170l19 153h122l-53 -433h-122l22 176h-170l-22 -176h-122z" />
    <glyph glyph-name="uni043E" unicode="&#x43e;" 
d="M63 193q0 54 21 101.5t54 79.5q13 13 31.5 26t43 23.5t55 17t68.5 6.5q48 0 89 -13.5t72 -39.5t48.5 -64.5t17.5 -88.5q0 -42 -16 -90t-61 -92q-42 -42 -91.5 -57.5t-107.5 -15.5q-48 0 -89 13.5t-71 39.5t-47 65t-17 89zM189 201q0 -48 31.5 -77.5t78.5 -29.5
q28 0 52.5 10.5t43 29t29.5 43t11 52.5q0 48 -31.5 79t-79.5 31q-29 0 -54 -10.5t-43 -29.5t-28 -44t-10 -54z" />
    <glyph glyph-name="uni043F" unicode="&#x43f;" horiz-adv-x="526" 
d="M111 433h410l-53 -433h-122l40 329h-166l-40 -329h-122z" />
    <glyph glyph-name="uni0440" unicode="&#x440;" 
d="M30 -229l81 662h122l-7 -56q27 32 64 51t80 19q94 0 143.5 -54.5t49.5 -146.5q0 -53 -15 -100t-44.5 -82.5t-72.5 -56.5t-99 -21q-46 0 -82.5 15.5t-62.5 54.5l-35 -285h-122zM194 206q0 -52 30.5 -82t82.5 -30q30 0 53.5 10.5t40.5 29.5t26 44t9 54q0 49 -31 78t-79 29
q-28 0 -52 -10.5t-42 -28.5t-28 -42t-10 -52z" />
    <glyph glyph-name="uni0441" unicode="&#x441;" horiz-adv-x="420" 
d="M274 -14q-47 0 -86 14.5t-67 41.5t-43.5 65.5t-15.5 85.5q0 57 19 104t52.5 80t80.5 51.5t104 18.5q29 0 58 -5t62 -21l-15 -120q-14 13 -38.5 25.5t-64.5 12.5q-29 0 -53 -10t-41 -28t-26.5 -42.5t-9.5 -52.5q0 -49 31.5 -80.5t80.5 -31.5q20 0 47.5 7.5t52.5 30.5
l-14 -119q-30 -17 -61 -22t-53 -5z" />
    <glyph glyph-name="uni0442" unicode="&#x442;" horiz-adv-x="374" 
d="M59 433h362l-13 -104h-120l-40 -329h-122l40 329h-120z" />
    <glyph glyph-name="uni0443" unicode="&#x443;" horiz-adv-x="538" 
d="M216 65l-161 368h138l104 -246l150 246h142l-430 -662h-138z" />
    <glyph glyph-name="uni0444" unicode="&#x444;" horiz-adv-x="694" 
d="M63 193q0 60 26 110.5t63 79.5q36 29 86.5 42.5t101.5 13.5l28 228h122l-28 -228q44 -2 91 -18.5t78 -45.5q34 -33 44 -71t10 -68q0 -63 -21.5 -108.5t-59 -75t-88.5 -44t-109 -14.5l-27 -223h-122l27 223h-5q-45 0 -84.5 13.5t-69 39t-46.5 62.5t-17 84zM189 201
q0 -48 32.5 -73.5t77.5 -25.5l28 229q-60 0 -99 -33.5t-39 -96.5zM421 102q59 0 98 32.5t39 94.5q0 48 -31.5 75t-77.5 27z" />
    <glyph glyph-name="uni0445" unicode="&#x445;" horiz-adv-x="558" 
d="M231 236l-145 197h147l77 -112l104 112h159l-193 -197l176 -236h-149l-105 151l-139 -151h-161z" />
    <glyph glyph-name="uni0446" unicode="&#x446;" horiz-adv-x="542" 
d="M111 433h122l-40 -329h162l40 329h122l-40 -329h70l-28 -230h-110l15 126h-366z" />
    <glyph glyph-name="uni0447" unicode="&#x447;" horiz-adv-x="483" 
d="M76 258q0 11 1.5 22.5t3.5 31.5l15 121h120l-13 -105q-1 -9 -2 -17t-1 -16q0 -17 6 -27.5t16.5 -16t24 -7.5t27.5 -2q10 0 25 2t34 9l23 180h122l-53 -433h-122l18 153q-23 -8 -44 -11.5t-44 -3.5q-29 0 -57 6.5t-50 21t-36 37t-14 55.5z" />
    <glyph glyph-name="uni0448" unicode="&#x448;" horiz-adv-x="762" 
d="M111 433h122l-40 -329h140l40 329h122l-40 -329h140l40 329h122l-53 -433h-646z" />
    <glyph glyph-name="uni0449" unicode="&#x449;" horiz-adv-x="782" 
d="M111 433h122l-40 -329h140l40 329h122l-40 -329h140l40 329h122l-40 -329h70l-28 -230h-110l15 126h-606z" />
    <glyph glyph-name="uni044A" unicode="&#x44a;" horiz-adv-x="505" 
d="M46 329l13 104h228l-19 -154h78q31 0 58 -6.5t47.5 -21t32.5 -38t12 -57.5q0 -37 -11.5 -65t-29.5 -46q-16 -16 -35.5 -25t-40.5 -13.5t-43 -5.5t-42 -1h-182l40 329h-106zM302 96q25 0 46 9.5t21 38.5q0 25 -18 32t-38 7h-57l-10 -87h56z" />
    <glyph glyph-name="uni044B" unicode="&#x44b;" horiz-adv-x="650" 
d="M58 0l54 433h121l-19 -154h78q31 0 58.5 -6.5t47.5 -21.5t32 -38.5t12 -57.5q0 -47 -16 -77t-44 -47.5t-64.5 -24t-77.5 -6.5h-182zM523 433h122l-53 -433h-122zM192 96h56q25 0 46 9.5t21 38.5q0 25 -18 32t-38 7h-57z" />
    <glyph glyph-name="uni044C" unicode="&#x44c;" horiz-adv-x="451" 
d="M58 0l54 433h121l-19 -154h78q31 0 58.5 -6.5t47.5 -21.5t32 -38.5t12 -57.5q0 -47 -16 -77t-44 -47.5t-64.5 -24t-77.5 -6.5h-182zM248 96q25 0 46 9.5t21 38.5q0 25 -18 32t-38 7h-57l-10 -87h56z" />
    <glyph glyph-name="uni044D" unicode="&#x44d;" horiz-adv-x="436" 
d="M50 127q19 -18 46.5 -30t71.5 -12q46 0 79.5 21t42.5 69h-179l11 88h179q-6 45 -37.5 66.5t-74.5 21.5q-26 0 -55.5 -8t-58.5 -29l13 106q38 15 69 21t58 6q48 0 87 -14t66.5 -40.5t43 -64.5t15.5 -86q0 -38 -7 -69t-17.5 -55t-23.5 -42t-26 -30q-22 -21 -44.5 -33
t-45 -18.5t-44.5 -8t-42 -1.5q-36 0 -70 5t-72 21z" />
    <glyph glyph-name="uni044E" unicode="&#x44e;" horiz-adv-x="753" 
d="M58 0l53 433h122l-20 -163h56q12 43 36 76.5t57 55.5t73 33.5t84 11.5q47 0 88 -14t71.5 -40.5t48 -65t17.5 -87.5q0 -42 -16 -90.5t-61 -92.5q-43 -42 -91 -56.5t-108 -14.5q-43 0 -79.5 11.5t-64.5 34.5t-45.5 56.5t-21.5 77.5h-57l-20 -166h-122zM378 204
q0 -47 28 -78.5t76 -31.5q29 0 53.5 10.5t42.5 29.5t28 43.5t10 53.5q0 48 -31.5 78t-79.5 30q-27 0 -50.5 -11t-40.5 -30t-26.5 -43t-9.5 -51z" />
    <glyph glyph-name="uni044F" unicode="&#x44f;" horiz-adv-x="460" 
d="M168 162q-43 11 -66 39.5t-23 73.5q0 40 13 66.5t28 41.5q18 18 40 28.5t45 15t45.5 5.5t43.5 1h161l-53 -433h-122l19 152h-8l-125 -152h-146zM268 337q-26 0 -45 -12t-19 -41q0 -26 19 -35t41 -9h45l12 97h-53z" />
    <glyph glyph-name="uni0451" unicode="&#x451;" horiz-adv-x="526" 
d="M276 -14q-47 0 -86 13t-67 38.5t-44 63t-16 85.5q0 57 17 105t49 82.5t78 54t104 19.5q101 0 152.5 -53.5t51.5 -153.5v-24t-2 -20h-324q-4 -30 3.5 -51.5t21.5 -35.5q17 -17 35.5 -22t35.5 -5q38 0 63.5 12.5t44.5 46.5l105 -25q-34 -70 -90.5 -100t-131.5 -30zM229 514
q-28 0 -45.5 18.5t-17.5 45.5q0 33 24.5 56.5t57.5 23.5q28 0 45 -18.5t17 -45.5q0 -17 -6.5 -31.5t-18 -25t-26 -17t-30.5 -6.5zM437 514q-28 0 -45.5 18.5t-17.5 45.5q0 33 24.5 56.5t57.5 23.5q28 0 45 -18.5t17 -45.5q0 -17 -6.5 -31.5t-18 -25t-26 -17t-30.5 -6.5z
M313 361q-41 0 -70 -24.5t-40 -62.5h205q-2 41 -28.5 64t-66.5 23z" />
    <glyph glyph-name="uni0452" unicode="&#x452;" horiz-adv-x="546" 
d="M33 519l9 78h100l17 132h122l-17 -132h200l-9 -78h-200l-23 -182q22 35 58.5 52.5t77.5 17.5q68 0 109 -33t41 -103q0 -23 -3 -42t-5 -40l-34 -275q-9 -75 -48 -109.5t-115 -34.5q-38 0 -77 9l13 108q5 -2 16.5 -5.5t26.5 -3.5q35 0 48 18.5t17 48.5l28 218q1 4 2 13
t2 19t1.5 19.5t0.5 15.5q0 35 -19 54t-54 19q-27 0 -46 -10t-31 -27t-18.5 -39t-9.5 -46l-22 -181h-122l64 519h-100z" />
    <glyph glyph-name="uni0453" unicode="&#x453;" horiz-adv-x="340" 
d="M111 433h276l-13 -104h-154l-40 -329h-122zM425 644l-166 -134l-51 40l136 150z" />
    <glyph glyph-name="uni0454" unicode="&#x454;" horiz-adv-x="433" 
d="M283 -14q-49 0 -89.5 13.5t-70 39.5t-45.5 65t-16 89q0 57 19 103t51 79q44 45 93 58.5t99 13.5q42 0 71.5 -7.5t52.5 -18.5l-15 -120q-25 23 -52 30.5t-53 7.5q-45 0 -78 -18t-49 -61h192l-11 -88h-187q11 -43 41 -60.5t72 -17.5q36 0 61 10.5t43 27.5l-14 -119
q-14 -8 -41 -17.5t-74 -9.5z" />
    <glyph glyph-name="uni0455" unicode="&#x455;" horiz-adv-x="400" 
d="M110 132q15 -21 39.5 -35.5t50.5 -14.5q25 0 44.5 11t19.5 40q0 6 -2 13t-9 14t-18 11t-25 10l-30 12q-38 15 -62 39.5t-24 69.5q0 36 13.5 63t36 45.5t53 27.5t63.5 9q42 0 74 -10t65 -34l-63 -75q-31 31 -72 31q-20 0 -35 -9t-15 -31q0 -14 9 -22t35 -16l37 -12
q45 -14 71 -43t26 -78q0 -40 -15.5 -70.5t-41 -50.5t-59.5 -30.5t-71 -10.5q-54 0 -93 17t-75 55z" />
    <glyph glyph-name="uni0456" unicode="&#x456;" horiz-adv-x="238" 
d="M58 0l53 433h122l-53 -433h-122zM186 543q-28 0 -46.5 18t-18.5 46q0 16 6.5 31t18 26.5t26 18t31.5 6.5q28 0 46.5 -18.5t18.5 -46.5q0 -17 -7 -31.5t-18 -25.5t-26 -17.5t-31 -6.5z" />
    <glyph glyph-name="uni0457" unicode="&#x457;" horiz-adv-x="274" 
d="M76 0l53 433h122l-53 -433h-122zM83 607q0 13 4.5 27.5t13 26.5t20.5 20t27 8q24 0 38 -19t14 -42q0 -14 -5 -28.5t-13.5 -26.5t-21 -20t-27.5 -8q-26 0 -38 19.5t-12 42.5zM226 606q0 13 4.5 27.5t13 27t20.5 20.5t27 8q24 0 38 -19t14 -42q0 -14 -5 -28.5t-13.5 -26.5
t-21 -20t-27.5 -8q-25 0 -37.5 19t-12.5 42z" />
    <glyph glyph-name="uni0458" unicode="&#x458;" horiz-adv-x="238" 
d="M30 -229l81 662h122l-81 -662h-122zM186 543q-28 0 -46.5 18t-18.5 46q0 16 6.5 31t18 26.5t26 18t31.5 6.5q28 0 46.5 -18.5t18.5 -46.5q0 -17 -7 -31.5t-18 -25.5t-26 -17.5t-31 -6.5z" />
    <glyph glyph-name="uni0459" unicode="&#x459;" horiz-adv-x="713" 
d="M21 105q12 -3 24 -3q37 0 51 21.5t18 54.5l31 255h350l-19 -154h78q31 0 58.5 -6.5t48 -21.5t32 -39t11.5 -58q0 -41 -13 -67.5t-28 -41.5q-16 -16 -35.5 -25t-40.5 -13.5t-43 -5.5t-42 -1h-182l40 329h-118l-19 -159q-5 -37 -16 -68.5t-31 -55t-49.5 -37t-69.5 -13.5
q-29 0 -49 5zM510 96q25 0 46 9t21 39q0 25 -18 32t-38 7h-57l-10 -87h56z" />
    <glyph glyph-name="uni045A" unicode="&#x45a;" horiz-adv-x="742" 
d="M111 433h122l-19 -154h170l19 154h121l-19 -154h78q31 0 58.5 -6.5t47.5 -21.5t32 -38.5t12 -57.5q0 -47 -16 -77t-44 -47.5t-64.5 -24t-77.5 -6.5h-182l23 183h-169l-23 -183h-122zM483 96h56q25 0 46 9.5t21 38.5q0 25 -18 32t-38 7h-57z" />
    <glyph glyph-name="uni045B" unicode="&#x45b;" horiz-adv-x="546" 
d="M33 519l9 78h100l17 132h122l-17 -132h200l-9 -78h-200l-23 -182q22 35 58.5 52.5t77.5 17.5q68 0 109 -33t41 -103q0 -23 -2.5 -41.5t-5.5 -40.5l-23 -189h-122l20 163q0 4 1 13t2 19t2 19.5t1 15.5q0 35 -19 54t-54 19q-27 0 -46 -10t-31 -27t-18.5 -39t-9.5 -46
l-22 -181h-122l64 519h-100z" />
    <glyph glyph-name="uni045C" unicode="&#x45c;" horiz-adv-x="489" 
d="M58 0l53 433h122l-20 -168l176 168h147l-222 -200l174 -233h-140l-124 175l-25 -19l-19 -156h-122zM278 550l136 150l81 -56l-166 -134z" />
    <glyph glyph-name="uni045E" unicode="&#x45e;" horiz-adv-x="538" 
d="M21 -229l195 294l-161 368h138l104 -246l150 246h142l-430 -662h-138zM265 650q6 -33 28.5 -48t54.5 -15t53.5 17t31.5 46l77 -38q-20 -53 -66 -78t-100 -25q-27 0 -52.5 6t-47 18.5t-37.5 32t-25 46.5z" />
    <glyph glyph-name="uni045F" unicode="&#x45f;" horiz-adv-x="522" 
d="M111 433h122l-40 -329h162l40 329h122l-53 -433h-148l-17 -136h-110l17 136h-148z" />
    <glyph glyph-name="uni0462" unicode="&#x462;" horiz-adv-x="622" 
d="M63 597h150l13 97h130l-13 -97h200l-12 -100h-200l-11 -91h90q44 0 83.5 -10.5t69 -33t46.5 -57t17 -82.5q0 -54 -18 -94t-44 -66q-22 -22 -47 -34.5t-50.5 -19t-51 -8t-48.5 -1.5h-227l61 497h-150zM360 112q24 0 47.5 4t42 14.5t30.5 28.5t12 47q0 27 -10.5 44
t-27 26.5t-38.5 13.5t-44 4h-66l-22 -182h76z" />
    <glyph glyph-name="uni0463" unicode="&#x463;" horiz-adv-x="503" 
d="M59 433h106l29 234h122l-29 -234h140l-11 -88h-140l-9 -74h77q31 0 58.5 -6.5t47.5 -21.5t32 -38.5t12 -57.5q0 -45 -17 -74t-44.5 -45t-63.5 -22t-75 -6h-182l42 345h-106zM246 96h56q12 0 24 2t21.5 7t15.5 14t6 24q0 26 -17.5 33t-38.5 7h-57z" />
    <glyph glyph-name="uni0472" unicode="&#x472;" horiz-adv-x="806" 
d="M85 302q0 85 31.5 155.5t85.5 120t126.5 77t155.5 27.5q69 0 127.5 -22t101 -62t66.5 -97t24 -127q0 -80 -28 -154t-79 -126q-20 -21 -47 -40.5t-61.5 -34.5t-76.5 -24.5t-93 -9.5q-71 0 -131.5 22t-105.5 63.5t-70.5 100t-25.5 131.5zM221 289q3 -43 19.5 -77.5
t43.5 -58.5t63 -37t78 -13q43 0 81 13.5t68.5 38t52 58.5t31.5 76h-437zM667 385q-4 42 -20.5 75.5t-43.5 56t-62.5 34.5t-77.5 12q-88 0 -147.5 -48t-85.5 -130h437z" />
    <glyph glyph-name="uni0473" unicode="&#x473;" 
d="M63 193q0 54 21 101t54 80q13 13 31 26t43 23.5t56 17t69 6.5q48 0 89 -13.5t71.5 -39.5t48 -64.5t17.5 -88.5q0 -42 -16 -90t-61 -92q-42 -42 -91.5 -57.5t-107.5 -15.5q-48 0 -89 13.5t-71 39.5t-47 65t-17 89zM191 184q2 -49 34 -74.5t79 -25.5q48 0 79.5 27t43.5 73
h-236zM322 349q-45 0 -75.5 -22.5t-44.5 -64.5h228q-5 43 -35.5 65t-72.5 22z" />
    <glyph glyph-name="uni0474" unicode="&#x474;" horiz-adv-x="644" 
d="M224 667l123 -448l233 448h144l-366 -667h-74l-200 667h140z" />
    <glyph glyph-name="uni0475" unicode="&#x475;" horiz-adv-x="504" 
d="M187 433l84 -244l144 244h140l-274 -433h-58l-168 433h132z" />
    <glyph glyph-name="uni0490" unicode="&#x490;" horiz-adv-x="476" 
d="M158 667h274l18 150h120l-32 -262h-264l-68 -555h-130z" />
    <glyph glyph-name="uni0491" unicode="&#x491;" horiz-adv-x="380" 
d="M111 433h206l16 126h110l-29 -230h-194l-40 -329h-122z" />
    <glyph glyph-name="uni0492" unicode="&#x492;" horiz-adv-x="436" 
d="M30 408h96l32 259h354l-14 -112h-224l-18 -147h160l-12 -100h-160l-38 -308h-130l38 308h-96z" />
    <glyph glyph-name="uni0493" unicode="&#x493;" horiz-adv-x="340" 
d="M20 244h68l23 189h276l-13 -104h-154l-10 -85h100l-11 -86h-100l-19 -158h-122l19 158h-68z" />
    <glyph glyph-name="uni0494" unicode="&#x494;" horiz-adv-x="602" 
d="M76 0l82 667h350l-14 -112h-220l-21 -170q30 11 63 17t71 6q49 0 89.5 -12t69 -37t44 -62.5t15.5 -89.5q0 -48 -16.5 -91.5t-48.5 -72.5q-35 -32 -78 -41t-83 -9q-19 0 -43 1.5t-52 6.5l14 111q16 -3 34 -5t37 -2q52 0 76 25.5t24 77.5q0 50 -29.5 69t-75.5 19
q-24 0 -56 -4.5t-68 -18.5l-34 -273h-130z" />
    <glyph glyph-name="uni0495" unicode="&#x495;" horiz-adv-x="456" 
d="M58 0l53 433h276l-13 -104h-154l-11 -93h13q15 0 33.5 -1.5t39 -6.5t41 -14.5t38.5 -26.5q17 -17 34.5 -47.5t17.5 -79.5q0 -59 -22 -107t-60 -82.5t-88 -55t-105 -23.5l13 108q28 4 52.5 16.5t42.5 32t28.5 45t10.5 54.5q0 44 -25 64t-67 20h-10l-16 -132h-122z" />
    <glyph glyph-name="uni0496" unicode="&#x496;" horiz-adv-x="861" 
d="M574 667l-35 -282l241 282h148l-284 -312l151 -243h89l-32 -262h-120l18 150h-30l-174 292l-20 -16l-34 -276h-124l35 284l-13 15l-234 -299h-150l295 359l-217 308h144l187 -282l35 282h124z" />
    <glyph glyph-name="uni0497" unicode="&#x497;" horiz-adv-x="655" 
d="M200 236l-141 197h134l110 -168l20 168h110l-20 -168l146 168h142l-194 -200l79 -129h75l-28 -230h-110l15 126h-25l-96 170l-18 -18l-19 -152h-110l19 152l-14 18l-135 -170h-142z" />
    <glyph glyph-name="uni0498" unicode="&#x498;" horiz-adv-x="600" 
d="M149 192q21 -51 61.5 -75t94.5 -24q26 0 51.5 6t45 19.5t31.5 34.5t12 50q0 30 -11.5 47.5t-30.5 27.5t-43 13t-48 3h-62l14 112h60q21 0 42.5 4.5t39.5 14.5t29 27t11 42q0 20 -8 34t-21 23t-30 13t-35 4q-37 0 -71 -14.5t-62 -38.5l-57 89q49 39 99 58t113 19
q34 0 71 -6t69 -29q25 -18 43.5 -49t18.5 -76q0 -51 -26.5 -92.5t-74.5 -61.5q50 -17 77.5 -56t27.5 -91q0 -48 -16.5 -89.5t-46.5 -71.5t-70.5 -48t-88.5 -20l-20 -157h-120l20 154q-28 3 -55.5 13t-51.5 26t-44 37.5t-33 46.5z" />
    <glyph glyph-name="uni0499" unicode="&#x499;" horiz-adv-x="439" 
d="M168 -9q-39 5 -73.5 23t-61.5 47l69 74q23 -21 51.5 -35t60.5 -14q13 0 27 2.5t25.5 8.5t19 16t7.5 25q0 13 -7 21t-17.5 12.5t-23 6t-22.5 1.5h-51l11 88h49q11 0 23 1.5t22 6t16.5 13.5t6.5 23q0 12 -6.5 19.5t-16 12t-20.5 6.5t-20 2q-26 0 -49 -9.5t-43 -26.5l-53 78
q38 27 76.5 40.5t86.5 13.5q27 0 55.5 -6t51 -19.5t37 -35.5t14.5 -55t-20 -61t-52 -37q35 -9 56 -37.5t21 -64.5q0 -30 -11 -55.5t-30 -44t-45 -29.5t-55 -12l-15 -126h-110l16 127v0z" />
    <glyph glyph-name="uni049A" unicode="&#x49a;" horiz-adv-x="617" 
d="M158 667h130l-34 -266l273 266h151l-319 -311l175 -244h93l-32 -262h-120l18 150h-37l-192 289l-25 -24l-33 -265h-130z" />
    <glyph glyph-name="uni049B" unicode="&#x49b;" horiz-adv-x="489" 
d="M111 433h122l-20 -168l176 168h147l-222 -200l97 -129h85l-28 -230h-110l15 126h-25l-124 175l-25 -19l-19 -156h-122z" />
    <glyph glyph-name="uni049C" unicode="&#x49c;" horiz-adv-x="723" 
d="M158 667h130l-33 -268h69l20 160h96l-20 -162l223 270h147l-268 -317l184 -350h-144l-154 303l-21 -174h-96l21 170h-69l-37 -299h-130z" />
    <glyph glyph-name="uni049D" unicode="&#x49d;" horiz-adv-x="584" 
d="M111 433h122l-20 -165h48l11 100h81l-12 -100l144 165h146l-191 -200l126 -233h-138l-97 190l-14 -120h-80l14 120h-48l-23 -190h-122z" />
    <glyph glyph-name="uni04A0" unicode="&#x4a0;" horiz-adv-x="687" 
d="M88 667h270l-34 -266l273 266h151l-319 -311l253 -356h-156l-192 289l-25 -24l-33 -265h-130l68 555h-140z" />
    <glyph glyph-name="uni04A1" unicode="&#x4a1;" horiz-adv-x="573" 
d="M46 329l13 104h228l-20 -168l176 168h147l-222 -200l174 -233h-140l-124 175l-25 -19l-19 -156h-122l40 329h-106z" />
    <glyph glyph-name="uni04A2" unicode="&#x4a2;" horiz-adv-x="708" 
d="M158 667h130l-32 -258h282l32 258h130l-68 -555h80l-32 -262h-120l18 150h-90l36 297h-282l-36 -297h-130z" />
    <glyph glyph-name="uni04A3" unicode="&#x4a3;" horiz-adv-x="550" 
d="M111 433h122l-19 -153h170l19 153h122l-40 -329h70l-28 -230h-110l15 126h-82l22 176h-170l-22 -176h-122z" />
    <glyph glyph-name="uni04A4" unicode="&#x4a4;" horiz-adv-x="848" 
d="M158 667h130l-32 -258h282l32 258h354l-14 -112h-224l-68 -555h-130l36 297h-282l-36 -297h-130z" />
    <glyph glyph-name="uni04A5" unicode="&#x4a5;" horiz-adv-x="632" 
d="M111 433h122l-19 -153h170l19 153h276l-13 -104h-154l-40 -329h-122l22 176h-170l-22 -176h-122z" />
    <glyph glyph-name="uni04AA" unicode="&#x4aa;" horiz-adv-x="607" 
d="M350 -12q-63 6 -112.5 32t-83 67.5t-51.5 95t-18 115.5q0 87 27 157.5t77 121t120 78t157 27.5q32 0 77 -6.5t99 -34.5l-18 -150q-21 24 -44.5 38.5t-46 22t-43 10t-36.5 2.5q-54 0 -97.5 -20t-74 -54t-46.5 -80.5t-16 -98.5q0 -45 14 -83.5t40 -66t63 -43.5t83 -16
q38 0 66 8.5t48 20t32.5 24t18.5 21.5l-19 -152q-24 -15 -48 -23t-48 -10l-20 -157h-120l20 154v0z" />
    <glyph glyph-name="uni04AB" unicode="&#x4ab;" horiz-adv-x="420" 
d="M62 193q0 57 19 104t52.5 80t80.5 51.5t104 18.5q29 0 58 -5t62 -21l-15 -120q-14 13 -38.5 25.5t-64.5 12.5q-29 0 -53 -10t-41 -28t-26.5 -42.5t-9.5 -52.5q0 -49 31.5 -80.5t80.5 -31.5q20 0 47.5 7.5t52.5 30.5l-14 -119q-28 -18 -63 -23l-16 -126h-110l16 129
q-37 7 -65.5 25.5t-48 45t-29.5 60t-10 69.5z" />
    <glyph glyph-name="uni04AE" unicode="&#x4ae;" horiz-adv-x="590" 
d="M228 667l114 -232l172 232h160l-280 -362l-37 -305h-130l37 305l-184 362h148z" />
    <glyph glyph-name="uni04AF" unicode="&#x4af;" horiz-adv-x="504" 
d="M187 433l84 -244l144 244h140l-235 -376l-35 -286h-122l35 286l-143 376h132z" />
    <glyph glyph-name="uni04B0" unicode="&#x4b0;" horiz-adv-x="590" 
d="M72 205l12 100h180l-184 362h148l114 -232l172 232h160l-280 -362h180l-12 -100h-180l-25 -205h-130l25 205h-180z" />
    <glyph glyph-name="uni04B1" unicode="&#x4b1;" horiz-adv-x="504" 
d="M53 20h140l5 37l-143 376h132l84 -244l144 244h140l-235 -376l-5 -37h140l-11 -96h-140l-19 -153h-122l19 153h-140z" />
    <glyph glyph-name="uni04B2" unicode="&#x4b2;" horiz-adv-x="634" 
d="M287 352l-160 315h150l91 -207l149 207h156l-244 -315l125 -240h73l-32 -262h-120l18 150h-29l-116 244l-184 -244h-156z" />
    <glyph glyph-name="uni04B3" unicode="&#x4b3;" horiz-adv-x="556" 
d="M231 236l-145 197h147l77 -112l104 112h159l-193 -197l98 -132h89l-28 -230h-110l15 126h-37l-105 151l-139 -151h-161z" />
    <glyph glyph-name="uni04B6" unicode="&#x4b6;" horiz-adv-x="635" 
d="M107 426q0 19 3 42t6 51l18 148h130l-17 -141q-2 -19 -4.5 -35.5t-2.5 -31.5q0 -29 12 -46t31 -26.5t42.5 -12.5t46.5 -3q25 0 47 3t43 8l36 285h130l-69 -555h80l-32 -262h-120l18 150h-89l33 270q-30 -6 -57 -8.5t-55 -2.5q-42 0 -83 7.5t-73.5 26.5t-53 51t-20.5 82z
" />
    <glyph glyph-name="uni04B7" unicode="&#x4b7;" horiz-adv-x="503" 
d="M76 258q0 11 1.5 22.5t3.5 31.5l15 121h120l-13 -105q-1 -9 -2 -17t-1 -16q0 -17 6 -27.5t16 -16t23.5 -7.5t27.5 -2t28.5 2.5t31.5 8.5l23 180h122l-40 -329h70l-28 -230h-110l15 126h-82l18 153q-23 -8 -44 -11.5t-44 -3.5q-29 0 -57 6.5t-50 21t-36 37t-14 55.5z" />
    <glyph glyph-name="uni04B8" unicode="&#x4b8;" horiz-adv-x="664" 
d="M313 271q-38 0 -75 7.5t-66 25.5t-47 48t-18 75q0 6 0.5 12t1.5 15.5t3 23.5t5 37l19 152h130l-18 -149q-2 -17 -4.5 -33.5t-2.5 -30.5q0 -42 21.5 -61.5t63.5 -19.5l22 180h96l-22 -183q21 0 41.5 1t40.5 5l36 291h130l-82 -667h-130l34 275q-21 -3 -42 -5t-41 -2
l-18 -145h-96l18 148v0z" />
    <glyph glyph-name="uni04B9" unicode="&#x4b9;" horiz-adv-x="540" 
d="M245 152q-30 0 -60 5t-54 18t-39.5 35.5t-15.5 57.5q0 14 1.5 27t3.5 29l14 109h122q-6 -47 -9 -74t-4.5 -41t-2 -18.5t-0.5 -6.5q0 -27 15 -39t40 -12l13 106h80l-13 -107q13 0 26.5 1.5t27.5 3.5l23 187h122l-53 -433h-122l20 159q-27 -6 -55 -6l-11 -89h-80l11 88v0z
" />
    <glyph glyph-name="uni04BA" unicode="&#x4ba;" horiz-adv-x="623" 
d="M76 0l82 667h130l-31 -252q47 10 81 11.5t47 1.5q40 0 79 -7.5t69.5 -25.5t49 -49t18.5 -79q0 -14 -2 -31.5t-6 -50.5l-23 -185h-130l20 162q3 23 5 38t2 26q0 28 -11 45.5t-28.5 27.5t-40 13.5t-45.5 3.5q-56 0 -99 -13l-37 -303h-130z" />
    <glyph glyph-name="uni04BB" unicode="&#x4bb;" horiz-adv-x="536" 
d="M58 0l90 729h122l-44 -352q23 37 59 53.5t78 16.5q67 0 108.5 -32.5t41.5 -102.5q0 -18 -2.5 -34.5t-5.5 -39.5l-29 -238h-122l25 201q0 3 1 12t2 19.5l2 21t1 16.5q0 35 -18.5 54t-53.5 19q-28 0 -47 -10t-31 -26.5t-18.5 -39t-9.5 -46.5l-27 -221h-122z" />
    <glyph glyph-name="uni04C0" unicode="&#x4c0;" horiz-adv-x="282" 
d="M288 667l-82 -667h-130l82 667h130z" />
    <glyph glyph-name="uni04C1" unicode="&#x4c1;" horiz-adv-x="861" 
d="M574 667l-35 -282l241 282h148l-284 -312l220 -355h-144l-174 292l-20 -16l-34 -276h-124l35 284l-13 15l-234 -299h-150l295 359l-217 308h144l187 -282l35 282h124zM444 880q10 -31 31 -44.5t53 -13.5q34 0 58 13t38 45l90 -36q-28 -60 -77.5 -86t-113.5 -26t-105 25.5
t-64 86.5z" />
    <glyph glyph-name="uni04C2" unicode="&#x4c2;" horiz-adv-x="655" 
d="M-2 0l202 236l-141 197h134l110 -168l20 168h110l-20 -168l146 168h142l-194 -200l142 -233h-136l-96 170l-18 -18l-19 -152h-110l19 152l-14 18l-135 -170h-142zM328 650q6 -33 28.5 -48t54.5 -15t53.5 17t31.5 46l77 -38q-20 -53 -66 -78t-100 -25q-27 0 -52.5 6
t-47 18.5t-37.5 32t-25 46.5z" />
    <glyph glyph-name="uni04C3" unicode="&#x4c3;" horiz-adv-x="647" 
d="M76 0l82 667h130l-34 -277l273 277h151l-275 -271q42 0 80.5 -12t67.5 -35t46.5 -58t17.5 -80q0 -103 -61 -164q-39 -39 -79 -48.5t-78 -9.5q-34 0 -66 7l14 111q6 -2 16.5 -4t24.5 -2q44 0 68.5 27t24.5 70q0 28 -11.5 47t-30 30t-42 16t-47.5 5q-28 0 -55 -3.5
t-54 -13.5l-33 -279h-130z" />
    <glyph glyph-name="uni04C4" unicode="&#x4c4;" horiz-adv-x="485" 
d="M58 0l53 433h122l-22 -180l178 180h147l-212 -203q62 -17 96.5 -61.5t34.5 -108.5q0 -59 -22 -107t-60 -82.5t-88 -55t-105 -23.5l13 108q28 4 52.5 16.5t42.5 32t28.5 45t10.5 54.5q0 51 -29 73t-77 22h-24l-17 -143h-122z" />
    <glyph glyph-name="uni04C7" unicode="&#x4c7;" horiz-adv-x="686" 
d="M76 0l82 667h130l-32 -258h282l32 258h130l-88 -719q-5 -43 -16 -76.5t-31 -56t-51.5 -34t-77.5 -11.5t-83 9l14 122q11 -5 20.5 -7t21.5 -2q22 0 36 6.5t22.5 18.5t12.5 28t6 36l38 316h-282l-36 -297h-130z" />
    <glyph glyph-name="uni04C8" unicode="&#x4c8;" horiz-adv-x="530" 
d="M58 0l53 433h122l-19 -153h170l19 153h122l-62 -497q-5 -41 -15 -72t-29 -52t-48.5 -31.5t-73.5 -10.5q-38 0 -77 9l13 108q5 -2 16.5 -5.5t26.5 -3.5q22 0 34.5 7.5t20 20.5t10.5 29t5 34l25 207h-169l-22 -176h-122z" />
    <glyph glyph-name="uni04D0" unicode="&#x4d0;" horiz-adv-x="672" 
d="M375 667h98l197 -667h-137l-42 140h-269l-76 -140h-144zM340 880q6 -20 15 -30t11 -11q17 -8 32.5 -12.5t25.5 -4.5q34 0 58 13t38 45l90 -36q-28 -60 -77.5 -86t-113.5 -26t-105 25.5t-64 86.5zM466 246l-64 240l-126 -240h190z" />
    <glyph glyph-name="uni04D1" unicode="&#x4d1;" 
d="M263 -14q-46 0 -83 15.5t-63 43t-40 66t-14 83.5q0 54 16 100.5t47 80t75 53t100 19.5q42 0 78.5 -17t58.5 -53l7 56h122l-53 -433h-122l7 56q-26 -34 -60 -52t-76 -18zM318 339q-28 0 -51.5 -10t-40.5 -27.5t-26.5 -41.5t-9.5 -52q0 -53 30 -83.5t83 -30.5q59 0 94 38.5
t35 96.5q0 50 -32.5 80t-81.5 30zM385 509q-27 0 -52.5 6t-47 18.5t-37.5 32t-25 46.5l83 38q6 -33 28.5 -48t54.5 -15t53.5 17t31.5 46l77 -38q-20 -53 -66 -78t-100 -25z" />
    <glyph glyph-name="uni04D2" unicode="&#x4d2;" horiz-adv-x="672" 
d="M2 0l373 667h98l197 -667h-137l-42 140h-269l-76 -140h-144zM276 246h190l-64 240zM535 739q-27 0 -46 16t-19 45q0 34 22.5 58.5t57.5 24.5q27 0 45.5 -17.5t18.5 -45.5q0 -33 -23 -57t-56 -24zM311 739q-27 0 -46 16t-19 45q0 34 22.5 58.5t57.5 24.5q27 0 45.5 -17.5
t18.5 -45.5q0 -33 -23 -57t-56 -24z" />
    <glyph glyph-name="uni04D3" unicode="&#x4d3;" 
d="M263 -14q-46 0 -83 15.5t-63 43t-40 66t-14 83.5q0 54 16 100.5t47 80t75 53t100 19.5q42 0 78.5 -17t58.5 -53l7 56h122l-53 -433h-122l7 56q-26 -34 -60 -52t-76 -18zM190 208q0 -53 30 -83.5t83 -30.5q59 0 94 38.5t35 96.5q0 50 -32.5 80t-81.5 30q-28 0 -51.5 -10
t-40.5 -27.5t-26.5 -41.5t-9.5 -52zM457 514q-28 0 -45.5 18.5t-17.5 45.5q0 33 24.5 56.5t57.5 23.5q28 0 45 -18.5t17 -45.5q0 -17 -6.5 -31.5t-18 -25t-26 -17t-30.5 -6.5zM249 514q-28 0 -45.5 18.5t-17.5 45.5q0 33 24.5 56.5t57.5 23.5q28 0 45 -18.5t17 -45.5
q0 -17 -6.5 -31.5t-18 -25t-26 -17t-30.5 -6.5z" />
    <glyph glyph-name="uni04D4" unicode="&#x4d4;" horiz-adv-x="920" 
d="M377 667h352l30 -112h-245l42 -149h241l32 -112h-242l51 -182h246l30 -112h-381l-42 140h-269l-76 -140h-140zM466 246l-62 240l-128 -240h190z" />
    <glyph glyph-name="uni04D5" unicode="&#x4d5;" horiz-adv-x="810" 
d="M51 125q0 42 16 70t42.5 45t60.5 24t70 7q32 0 62.5 -6.5t61.5 -23.5v21q0 51 -29.5 70t-75.5 19q-30 0 -59 -6t-59 -17l12 97q33 11 66.5 16.5t64.5 5.5q22 0 44 -4t42.5 -12.5t37 -22.5t27.5 -34q31 39 73.5 56t91.5 17q57 0 92 -16.5t53 -34.5q38 -38 48 -90t4 -110
h-322q0 -54 28 -84t82 -30q29 0 55 14.5t36 42.5l110 -18q-27 -69 -81 -102t-127 -33q-53 0 -95.5 16t-77.5 55q-32 -43 -78.5 -57t-97.5 -14q-35 0 -67 7t-56.5 23.5t-39.5 43t-15 65.5zM262 185q-15 0 -31 -2.5t-29.5 -9t-22 -18t-8.5 -29.5q0 -15 8.5 -25.5t21 -17
t27.5 -9t27 -2.5q14 0 30.5 3t30.5 10t23 18.5t9 29.5q0 16 -9 26t-22 16t-28 8t-27 2zM596 361q-45 0 -71 -22.5t-38 -64.5h205q-4 42 -29 64.5t-67 22.5z" />
    <glyph glyph-name="uni04D6" unicode="&#x4d6;" horiz-adv-x="496" 
d="M76 0l82 667h370l-14 -112h-240l-18 -149h230l-14 -112h-230l-22 -182h240l-14 -112h-370zM274 880q6 -20 15 -30t11 -11q17 -8 32.5 -12.5t25.5 -4.5q34 0 58 13t38 45l90 -36q-28 -60 -77.5 -86t-113.5 -26t-105 25.5t-64 86.5z" />
    <glyph glyph-name="uni04D7" unicode="&#x4d7;" horiz-adv-x="526" 
d="M63 186q0 57 17 105t49 82.5t78 54t104 19.5q101 0 152.5 -53.5t51.5 -153.5v-24t-2 -20h-324q-4 -30 3.5 -51.5t21.5 -35.5q17 -17 35.5 -22t35.5 -5q38 0 63.5 12.5t44.5 46.5l105 -25q-34 -70 -90.5 -100t-131.5 -30q-47 0 -86 13t-67 38.5t-44 63t-16 85.5zM325 509
q-27 0 -52.5 6t-47 18.5t-37.5 32t-25 46.5l83 38q6 -33 28.5 -48t54.5 -15t53.5 17t31.5 46l77 -38q-20 -53 -66 -78t-100 -25zM313 361q-41 0 -70 -24.5t-40 -62.5h205q-2 41 -28.5 64t-66.5 23z" />
    <glyph glyph-name="uni04D8" unicode="&#x4d8;" horiz-adv-x="763" 
d="M156 93q-21 27 -35.5 60.5t-23.5 70.5t-11.5 76t2.5 77h538q-1 42 -15.5 76t-40 59t-60 38.5t-76.5 13.5q-58 0 -102.5 -22.5t-79.5 -67.5l-114 61q61 74 133 110.5t169 36.5q74 0 133.5 -22t101 -63.5t63.5 -101t22 -133.5q0 -53 -9.5 -97t-25.5 -80t-36.5 -64
t-42.5 -49q-29 -28 -57.5 -45t-58 -26.5t-60 -12.5t-62.5 -3q-39 0 -73.5 4.5t-66 16.5t-59.5 33t-53 54zM223 277q4 -81 51.5 -127.5t128.5 -46.5q82 0 138.5 47t71.5 127h-390z" />
    <glyph glyph-name="uni04D9" unicode="&#x4d9;" horiz-adv-x="525" 
d="M124 40q-19 19 -31.5 44.5t-19.5 53t-8.5 55.5t1.5 54h324q2 21 -4.5 43t-20.5 36q-11 11 -28.5 18t-40.5 7q-31 0 -56 -12.5t-39 -41.5l-115 19q34 66 89.5 98.5t129.5 32.5q47 0 86 -13.5t66.5 -39.5t43 -64t15.5 -86q0 -53 -15 -101t-56 -90q-36 -37 -76 -52t-95 -15
q-42 0 -80 11t-70 43zM172 169q3 -42 28.5 -69.5t68.5 -27.5q47 0 75.5 25.5t36.5 71.5h-209z" />
    <glyph glyph-name="uni04DA" unicode="&#x4da;" horiz-adv-x="763" 
d="M156 93q-21 27 -35.5 60.5t-23.5 70.5t-11.5 76t2.5 77h538q-1 42 -15.5 76t-40 59t-60 38.5t-76.5 13.5q-58 0 -102.5 -22.5t-79.5 -67.5l-114 61q61 74 133 110.5t169 36.5q74 0 133.5 -22t101 -63.5t63.5 -101t22 -133.5q0 -53 -9.5 -97t-25.5 -80t-36.5 -64
t-42.5 -49q-29 -28 -57.5 -45t-58 -26.5t-60 -12.5t-62.5 -3q-39 0 -73.5 4.5t-66 16.5t-59.5 33t-53 54zM223 277q4 -81 51.5 -127.5t128.5 -46.5q82 0 138.5 47t71.5 127h-390zM567 739q-27 0 -46 16t-19 45q0 34 22.5 58.5t57.5 24.5q27 0 45.5 -17.5t18.5 -45.5
q0 -33 -23 -57t-56 -24zM278 800q0 34 22.5 58.5t57.5 24.5q27 0 45.5 -17.5t18.5 -45.5q0 -33 -23 -57t-56 -24q-27 0 -46 16t-19 45z" />
    <glyph glyph-name="uni04DB" unicode="&#x4db;" horiz-adv-x="525" 
d="M124 40q-19 19 -31.5 44.5t-19.5 53t-8.5 55.5t1.5 54h324q2 21 -4.5 43t-20.5 36q-11 11 -28.5 18t-40.5 7q-31 0 -56 -12.5t-39 -41.5l-115 19q34 66 89.5 98.5t129.5 32.5q47 0 86 -13.5t66.5 -39.5t43 -64t15.5 -86q0 -53 -15 -101t-56 -90q-36 -37 -76 -52t-95 -15
q-42 0 -80 11t-70 43zM199 514q-28 0 -45.5 18.5t-17.5 45.5q0 33 24.5 56.5t57.5 23.5q28 0 45 -18.5t17 -45.5q0 -17 -6.5 -31.5t-18 -25t-26 -17t-30.5 -6.5zM407 514q-28 0 -45.5 18.5t-17.5 45.5q0 33 24.5 56.5t57.5 23.5q28 0 45 -18.5t17 -45.5q0 -17 -6.5 -31.5
t-18 -25t-26 -17t-30.5 -6.5zM172 169q3 -42 28.5 -69.5t68.5 -27.5q47 0 75.5 25.5t36.5 71.5h-209z" />
    <glyph glyph-name="uni04DC" unicode="&#x4dc;" horiz-adv-x="861" 
d="M574 667l-35 -282l241 282h148l-284 -312l220 -355h-144l-174 292l-20 -16l-34 -276h-124l35 284l-13 15l-234 -299h-150l295 359l-217 308h144l187 -282l35 282h124zM560 800q0 34 22.5 58.5t57.5 24.5q27 0 45.5 -17.5t18.5 -45.5q0 -33 -23 -57t-56 -24q-27 0 -46 16
t-19 45zM336 800q0 34 22.5 58.5t57.5 24.5q27 0 45.5 -17.5t18.5 -45.5q0 -33 -23 -57t-56 -24q-27 0 -46 16t-19 45z" />
    <glyph glyph-name="uni04DD" unicode="&#x4dd;" horiz-adv-x="655" 
d="M200 236l-141 197h134l110 -168l20 168h110l-20 -168l146 168h142l-194 -200l142 -233h-136l-96 170l-18 -18l-19 -152h-110l19 152l-14 18l-135 -170h-142zM426 578q0 33 24.5 56.5t57.5 23.5q28 0 45 -18.5t17 -45.5q0 -17 -6.5 -31.5t-18 -25t-26 -17t-30.5 -6.5
q-28 0 -45.5 18.5t-17.5 45.5zM281 514q-28 0 -45.5 18.5t-17.5 45.5q0 33 24.5 56.5t57.5 23.5q28 0 45 -18.5t17 -45.5q0 -17 -6.5 -31.5t-18 -25t-26 -17t-30.5 -6.5z" />
    <glyph glyph-name="uni04DE" unicode="&#x4de;" horiz-adv-x="600" 
d="M293 -15q-76 0 -138.5 29t-100.5 97l95 81q21 -51 61.5 -75t94.5 -24q26 0 51.5 6t45 19.5t31.5 34.5t12 50q0 30 -11.5 47.5t-30.5 27.5t-43 13t-48 3h-62l14 112h60q21 0 42.5 4.5t39.5 14.5t29 27t11 42q0 20 -8 34t-21 23t-30 13t-35 4q-37 0 -71 -14.5t-62 -38.5
l-57 89q49 39 99 58t113 19q34 0 71 -6t69 -29q25 -18 43.5 -49t18.5 -76q0 -51 -26.5 -92.5t-74.5 -61.5q50 -17 77.5 -56t27.5 -91q0 -56 -19 -96t-45 -66q-36 -37 -89 -55t-134 -18zM495 739q-27 0 -46 16t-19 45q0 34 22.5 58.5t57.5 24.5q27 0 45.5 -17.5t18.5 -45.5
q0 -33 -23 -57t-56 -24zM271 739q-27 0 -46 16t-19 45q0 34 22.5 58.5t57.5 24.5q27 0 45.5 -17.5t18.5 -45.5q0 -33 -23 -57t-56 -24z" />
    <glyph glyph-name="uni04DF" unicode="&#x4df;" horiz-adv-x="439" 
d="M102 135q23 -22 52 -35.5t61 -13.5q12 0 25.5 2.5t25.5 8.5t19.5 16t7.5 25q0 13 -7.5 21t-18 12.5t-22.5 6t-22 1.5h-51l11 88h49q11 0 23 1.5t22 6t16.5 13.5t6.5 23q0 12 -6.5 19.5t-16 12t-20.5 6.5t-20 2q-26 0 -49 -9.5t-43 -26.5l-53 78q38 27 77 40.5t86 13.5
q27 0 55 -6t51 -19.5t37.5 -35.5t14.5 -54q0 -33 -20 -61t-52 -38q35 -11 56 -34t21 -61q0 -20 -7.5 -48t-34.5 -55q-23 -23 -58 -36t-96 -13q-59 0 -103.5 16.5t-85.5 58.5zM361 514q-28 0 -45.5 18.5t-17.5 45.5q0 33 24.5 56.5t57.5 23.5q28 0 45 -18.5t17 -45.5
q0 -17 -6.5 -31.5t-18 -25t-26 -17t-30.5 -6.5zM153 514q-28 0 -45.5 18.5t-17.5 45.5q0 33 24.5 56.5t57.5 23.5q28 0 45 -18.5t17 -45.5q0 -17 -6.5 -31.5t-18 -25t-26 -17t-30.5 -6.5z" />
    <glyph glyph-name="uni04E2" unicode="&#x4e2;" horiz-adv-x="736" 
d="M74 0l82 667h130l-54 -440l424 440h88l-82 -667h-130l54 443l-422 -443h-90zM303 831h366l-11 -86h-366z" />
    <glyph glyph-name="uni04E3" unicode="&#x4e3;" horiz-adv-x="560" 
d="M111 433h122l-33 -267l233 267h122l-53 -433h-122l33 267l-233 -267h-122zM176 619h364l-10 -80h-364z" />
    <glyph glyph-name="uni04E4" unicode="&#x4e4;" horiz-adv-x="736" 
d="M156 667h130l-54 -440l424 440h88l-82 -667h-130l54 443l-422 -443h-90zM585 739q-27 0 -46 16t-19 45q0 34 22.5 58.5t57.5 24.5q27 0 45.5 -17.5t18.5 -45.5q0 -33 -23 -57t-56 -24zM296 800q0 34 22.5 58.5t57.5 24.5q27 0 45.5 -17.5t18.5 -45.5q0 -33 -23 -57
t-56 -24q-27 0 -46 16t-19 45z" />
    <glyph glyph-name="uni04E5" unicode="&#x4e5;" horiz-adv-x="560" 
d="M58 0l53 433h122l-33 -267l233 267h122l-53 -433h-122l33 267l-233 -267h-122zM384 578q0 33 24.5 56.5t57.5 23.5q28 0 45 -18.5t17 -45.5q0 -17 -6.5 -31.5t-18 -25t-26 -17t-30.5 -6.5q-28 0 -45.5 18.5t-17.5 45.5zM239 514q-28 0 -45.5 18.5t-17.5 45.5
q0 33 24.5 56.5t57.5 23.5q28 0 45 -18.5t17 -45.5q0 -17 -6.5 -31.5t-18 -25t-26 -17t-30.5 -6.5z" />
    <glyph glyph-name="uni04E6" unicode="&#x4e6;" horiz-adv-x="806" 
d="M173 78q-42 42 -65 100t-23 121q0 86 31 156.5t84.5 121t126.5 78t157 27.5q69 0 127.5 -22t101 -62t66.5 -97t24 -127q0 -80 -28 -154t-79 -126q-20 -21 -47 -40.5t-61.5 -34.5t-76.5 -24.5t-93 -9.5q-49 0 -88 9t-69 22.5t-51.5 30t-36.5 31.5zM463 563
q-54 0 -98.5 -19.5t-77 -54t-50 -81t-17.5 -99.5q0 -46 15 -84t42 -65t64.5 -42t83.5 -15q54 0 98.5 21t77 57t50 83.5t17.5 99.5q0 46 -15 82.5t-42.5 62.5t-65 40t-82.5 14zM530 800q0 34 22.5 58.5t57.5 24.5q27 0 45.5 -17.5t18.5 -45.5q0 -33 -23 -57t-56 -24
q-27 0 -46 16t-19 45zM306 800q0 34 22.5 58.5t57.5 24.5q27 0 45.5 -17.5t18.5 -45.5q0 -33 -23 -57t-56 -24q-27 0 -46 16t-19 45z" />
    <glyph glyph-name="uni04E7" unicode="&#x4e7;" 
d="M287 -14q-48 0 -89 13.5t-71 39.5t-47 65t-17 89q0 54 21 101.5t54 79.5q13 13 31.5 26t43 23.5t55 17t68.5 6.5q48 0 89 -13.5t72 -39.5t48.5 -64.5t17.5 -88.5q0 -42 -16 -90t-61 -92q-42 -42 -91.5 -57.5t-107.5 -15.5zM189 201q0 -48 31.5 -77.5t78.5 -29.5
q28 0 52.5 10.5t43 29t29.5 43t11 52.5q0 48 -31.5 79t-79.5 31q-29 0 -54 -10.5t-43 -29.5t-28 -44t-10 -54zM388 578q0 33 24.5 56.5t57.5 23.5q28 0 45 -18.5t17 -45.5q0 -17 -6.5 -31.5t-18 -25t-26 -17t-30.5 -6.5q-28 0 -45.5 18.5t-17.5 45.5zM243 514
q-28 0 -45.5 18.5t-17.5 45.5q0 33 24.5 56.5t57.5 23.5q28 0 45 -18.5t17 -45.5q0 -17 -6.5 -31.5t-18 -25t-26 -17t-30.5 -6.5z" />
    <glyph glyph-name="uni04E8" unicode="&#x4e8;" horiz-adv-x="806" 
d="M85 302q0 85 31.5 155.5t85.5 120t126.5 77t155.5 27.5q69 0 127.5 -22t101 -62t66.5 -97t24 -127q0 -80 -28 -154t-79 -126q-20 -21 -47 -40.5t-61.5 -34.5t-76.5 -24.5t-93 -9.5q-71 0 -131.5 22t-105.5 63.5t-70.5 100t-25.5 131.5zM221 289q3 -43 19.5 -77.5
t43.5 -58.5t63 -37t78 -13q43 0 81 13.5t68.5 38t52 58.5t31.5 76h-437zM667 385q-4 42 -20.5 75.5t-43.5 56t-62.5 34.5t-77.5 12q-88 0 -147.5 -48t-85.5 -130h437z" />
    <glyph glyph-name="uni04E9" unicode="&#x4e9;" 
d="M63 193q0 54 21 101t54 80q13 13 31 26t43 23.5t56 17t69 6.5q48 0 89 -13.5t71.5 -39.5t48 -64.5t17.5 -88.5q0 -42 -16 -90t-61 -92q-42 -42 -91.5 -57.5t-107.5 -15.5q-48 0 -89 13.5t-71 39.5t-47 65t-17 89zM191 184q2 -49 34 -74.5t79 -25.5q48 0 79.5 27t43.5 73
h-236zM322 349q-45 0 -75.5 -22.5t-44.5 -64.5h228q-5 43 -35.5 65t-72.5 22z" />
    <glyph glyph-name="uni04EA" unicode="&#x4ea;" horiz-adv-x="806" 
d="M85 302q0 85 31.5 155.5t85.5 120t126.5 77t155.5 27.5q69 0 127.5 -22t101 -62t66.5 -97t24 -127q0 -80 -28 -154t-79 -126q-20 -21 -47 -40.5t-61.5 -34.5t-76.5 -24.5t-93 -9.5q-71 0 -131.5 22t-105.5 63.5t-70.5 100t-25.5 131.5zM221 289q3 -43 19.5 -77.5
t43.5 -58.5t63 -37t78 -13q43 0 81 13.5t68.5 38t52 58.5t31.5 76h-437zM667 385q-4 42 -20.5 75.5t-43.5 56t-62.5 34.5t-77.5 12q-88 0 -147.5 -48t-85.5 -130h437zM520 800q0 34 22.5 58.5t57.5 24.5q27 0 45.5 -17.5t18.5 -45.5q0 -33 -23 -57t-56 -24q-27 0 -46 16
t-19 45zM361 739q-27 0 -46 16t-19 45q0 34 22.5 58.5t57.5 24.5q27 0 45.5 -17.5t18.5 -45.5q0 -33 -23 -57t-56 -24z" />
    <glyph glyph-name="uni04EB" unicode="&#x4eb;" 
d="M287 -14q-48 0 -89 13.5t-71 39.5t-47 65t-17 89q0 54 21 101t54 80q13 13 31 26t43 23.5t56 17t69 6.5q48 0 89 -13.5t71.5 -39.5t48 -64.5t17.5 -88.5q0 -42 -16 -90t-61 -92q-42 -42 -91.5 -57.5t-107.5 -15.5zM191 184q2 -49 34 -74.5t79 -25.5q48 0 79.5 27t43.5 73
h-236zM243 514q-28 0 -45.5 18.5t-17.5 45.5q0 33 24.5 56.5t57.5 23.5q28 0 45 -18.5t17 -45.5q0 -17 -6.5 -31.5t-18 -25t-26 -17t-30.5 -6.5zM451 514q-28 0 -45.5 18.5t-17.5 45.5q0 33 24.5 56.5t57.5 23.5q28 0 45 -18.5t17 -45.5q0 -17 -6.5 -31.5t-18 -25t-26 -17
t-30.5 -6.5zM322 349q-45 0 -75.5 -22.5t-44.5 -64.5h228q-5 43 -35.5 65t-72.5 22z" />
    <glyph glyph-name="uni04EE" unicode="&#x4ee;" horiz-adv-x="606" 
d="M224 667l132 -327l180 327h150l-391 -667h-142l122 200l-191 467h140zM218 831h366l-11 -86h-366z" />
    <glyph glyph-name="uni04EF" unicode="&#x4ef;" horiz-adv-x="538" 
d="M216 65l-161 368h138l104 -246l150 246h142l-430 -662h-138zM150 539l10 80h364l-10 -80h-364z" />
    <glyph glyph-name="uni04F0" unicode="&#x4f0;" horiz-adv-x="606" 
d="M84 667h140l132 -327l180 327h150l-391 -667h-142l122 200zM440 800q0 34 22.5 58.5t57.5 24.5q27 0 45.5 -17.5t18.5 -45.5q0 -33 -23 -57t-56 -24q-27 0 -46 16t-19 45zM216 800q0 34 22.5 58.5t57.5 24.5q27 0 45.5 -17.5t18.5 -45.5q0 -33 -23 -57t-56 -24
q-27 0 -46 16t-19 45z" />
    <glyph glyph-name="uni04F1" unicode="&#x4f1;" horiz-adv-x="538" 
d="M21 -229l195 294l-161 368h138l104 -246l150 246h142l-430 -662h-138zM373 578q0 33 24.5 56.5t57.5 23.5q28 0 45 -18.5t17 -45.5q0 -17 -6.5 -31.5t-18 -25t-26 -17t-30.5 -6.5q-28 0 -45.5 18.5t-17.5 45.5zM228 514q-28 0 -45.5 18.5t-17.5 45.5q0 33 24.5 56.5
t57.5 23.5q28 0 45 -18.5t17 -45.5q0 -17 -6.5 -31.5t-18 -25t-26 -17t-30.5 -6.5z" />
    <glyph glyph-name="uni04F2" unicode="&#x4f2;" horiz-adv-x="606" 
d="M224 667l132 -327l180 327h150l-391 -667h-142l122 200l-191 467h140zM212 768l129 153l83 -59l-161 -134zM541 920l83 -58l-161 -134l-51 40z" />
    <glyph glyph-name="uni04F3" unicode="&#x4f3;" horiz-adv-x="538" 
d="M216 65l-161 368h138l104 -246l150 246h142l-430 -662h-138zM269 690l75 -58l-149 -134l-45 40zM457 689l75 -57l-149 -134l-45 40z" />
    <glyph glyph-name="uni04F4" unicode="&#x4f4;" horiz-adv-x="622" 
d="M337 259q-42 0 -83 7.5t-73.5 26.5t-53 51t-20.5 82q0 19 3 42t6 51l18 148h130l-17 -141q-2 -19 -4.5 -35.5t-2.5 -31.5q0 -29 12 -46t31 -26.5t42.5 -12.5t46.5 -3q25 0 47 3t43 8l36 285h130l-82 -667h-130l33 270q-30 -6 -57 -8.5t-55 -2.5zM499 739q-27 0 -46 16
t-19 45q0 34 22.5 58.5t57.5 24.5q27 0 45.5 -17.5t18.5 -45.5q0 -33 -23 -57t-56 -24zM210 800q0 34 22.5 58.5t57.5 24.5q27 0 45.5 -17.5t18.5 -45.5q0 -33 -23 -57t-56 -24q-27 0 -46 16t-19 45z" />
    <glyph glyph-name="uni04F5" unicode="&#x4f5;" horiz-adv-x="483" 
d="M233 138q-29 0 -57 6.5t-50 21t-36 37t-14 55.5q0 11 1.5 22.5t3.5 31.5l15 121h120l-13 -105q-1 -9 -2 -17t-1 -16q0 -17 6 -27.5t16.5 -16t24 -7.5t27.5 -2q10 0 25 2t34 9l23 180h122l-53 -433h-122l18 153q-23 -8 -44 -11.5t-44 -3.5zM393 514q-28 0 -45.5 18.5
t-17.5 45.5q0 33 24.5 56.5t57.5 23.5q28 0 45 -18.5t17 -45.5q0 -17 -6.5 -31.5t-18 -25t-26 -17t-30.5 -6.5zM122 578q0 33 24.5 56.5t57.5 23.5q28 0 45 -18.5t17 -45.5q0 -17 -6.5 -31.5t-18 -25t-26 -17t-30.5 -6.5q-28 0 -45.5 18.5t-17.5 45.5z" />
    <glyph glyph-name="uni04F8" unicode="&#x4f8;" horiz-adv-x="800" 
d="M76 0l82 667h130l-32 -261h90q44 0 83.5 -10.5t69 -33t46.5 -57t17 -82.5q0 -54 -18 -94t-44 -66q-22 -22 -47 -34.5t-50.5 -19t-51 -8t-48.5 -1.5h-227zM594 0l82 667h130l-82 -667h-130zM220 112h76q24 0 47.5 4t42 14.5t30.5 28.5t12 47q0 27 -10.5 44t-27 26.5
t-38.5 13.5t-44 4h-66zM542 800q0 34 22.5 58.5t57.5 24.5q27 0 45.5 -17.5t18.5 -45.5q0 -33 -23 -57t-56 -24q-27 0 -46 16t-19 45zM383 739q-27 0 -46 16t-19 45q0 34 22.5 58.5t57.5 24.5q27 0 45.5 -17.5t18.5 -45.5q0 -33 -23 -57t-56 -24z" />
    <glyph glyph-name="uni04F9" unicode="&#x4f9;" horiz-adv-x="650" 
d="M112 433h121l-19 -154h78q31 0 58.5 -6.5t47.5 -21.5t32 -38.5t12 -57.5q0 -47 -16 -77t-44 -47.5t-64.5 -24t-77.5 -6.5h-182zM523 433h122l-53 -433h-122zM284 514q-28 0 -45.5 18.5t-17.5 45.5q0 33 24.5 56.5t57.5 23.5q28 0 45 -18.5t17 -45.5q0 -17 -6.5 -31.5
t-18 -25t-26 -17t-30.5 -6.5zM429 578q0 33 24.5 56.5t57.5 23.5q28 0 45 -18.5t17 -45.5q0 -17 -6.5 -31.5t-18 -25t-26 -17t-30.5 -6.5q-28 0 -45.5 18.5t-17.5 45.5zM192 96h56q25 0 46 9.5t21 38.5q0 25 -18 32t-38 7h-57z" />
    <glyph glyph-name="Germandbls" unicode="&#x1e9e;" horiz-adv-x="582" 
d="M76 0l56 454q6 51 24 93t47.5 72t71 46.5t94.5 16.5q39 0 73 -11.5t59 -33t39.5 -53.5t14.5 -74v-13t-1 -13l-112 -112q51 -17 85 -53.5t34 -93.5q0 -50 -18.5 -95.5t-65.5 -84.5q-40 -34 -90.5 -45.5t-99.5 -13.5l13 106q24 2 47 8.5t39 19.5q18 15 30 40.5t12 53.5
q0 23 -8 39.5t-22 27t-32.5 16t-39.5 6.5l11 93l88 96q4 40 -17 63q-11 12 -23.5 16.5t-26.5 4.5q-25 0 -42 -9t-28 -24t-16.5 -35t-8.5 -42l-57 -466h-130z" />
    <glyph glyph-name="uni1EA0" unicode="&#x1ea0;" horiz-adv-x="672" 
d="M2 0l373 667h98l197 -667h-137l-42 140h-269l-76 -140h-144zM276 246h190l-64 240zM319 -217q-27 0 -47 19.5t-20 46.5t20 46.5t47 19.5q28 0 48 -19.5t20 -46.5t-20 -46.5t-48 -19.5z" />
    <glyph glyph-name="uni1EA1" unicode="&#x1ea1;" 
d="M63 194q0 54 16 100.5t47 80t75 53t100 19.5q42 0 78.5 -17t58.5 -53l7 56h122l-53 -433h-122l7 56q-26 -34 -60 -52t-76 -18q-46 0 -83 15.5t-63 43t-40 66t-14 83.5zM318 339q-28 0 -51.5 -10t-40.5 -27.5t-26.5 -41.5t-9.5 -52q0 -53 30 -83.5t83 -30.5q59 0 94 38.5
t35 96.5q0 50 -32.5 80t-81.5 30zM175 -151q0 27 20 46.5t47 19.5q28 0 48 -19.5t20 -46.5t-20 -46.5t-48 -19.5q-27 0 -47 19.5t-20 46.5z" />
    <glyph glyph-name="uni1EA2" unicode="&#x1ea2;" horiz-adv-x="672" 
d="M2 0l373 667h98l197 -667h-137l-42 140h-269l-76 -140h-144zM327 828q6 22 19.5 38.5t32 26.5t40 15t42.5 5q50 0 75 -25.5t21 -60.5q-2 -20 -11.5 -34.5t-22.5 -24.5t-27 -15.5t-26 -7.5l-2 -16h-71l8 61q9 0 21 1t23 5t19 11t10 19t-7 19.5t-25 7.5q-15 0 -26.5 -6.5
t-15.5 -18.5h-77zM276 246h190l-64 240z" />
    <glyph glyph-name="uni1EA3" unicode="&#x1ea3;" 
d="M263 -14q-46 0 -83 15.5t-63 43t-40 66t-14 83.5q0 54 16 100.5t47 80t75 53t100 19.5q42 0 78.5 -17t58.5 -53l7 56h122l-53 -433h-122l7 56q-26 -34 -60 -52t-76 -18zM318 339q-28 0 -51.5 -10t-40.5 -27.5t-26.5 -41.5t-9.5 -52q0 -53 30 -83.5t83 -30.5q59 0 94 38.5
t35 96.5q0 50 -32.5 80t-81.5 30zM231 599q6 22 19.5 38.5t32 26.5t40 15t42.5 5q50 0 75 -25.5t21 -60.5q-2 -20 -11.5 -34.5t-22.5 -24.5t-27 -15.5t-26 -7.5l-2 -16h-71l8 61q9 0 21 1t23 5t19 11t10 19t-7 19.5t-25 7.5q-15 0 -26.5 -6.5t-15.5 -18.5h-77z" />
    <glyph glyph-name="uni1EA4" unicode="&#x1ea4;" horiz-adv-x="672" 
d="M375 667h98l197 -667h-137l-42 140h-269l-76 -140h-144zM279 778l168 126l139 -126l-57 -49l-91 75l-107 -75zM276 246h190l-64 240zM662 1022l76 -63l-160 -116l-51 43z" />
    <glyph glyph-name="uni1EA5" unicode="&#x1ea5;" 
d="M263 -14q-46 0 -83 15.5t-63 43t-40 66t-14 83.5q0 54 16 100.5t47 80t75 53t100 19.5q42 0 78.5 -17t58.5 -53l7 56h122l-53 -433h-122l7 56q-26 -34 -60 -52t-76 -18zM190 208q0 -53 30 -83.5t83 -30.5q59 0 94 38.5t35 96.5q0 50 -32.5 80t-81.5 30q-28 0 -51.5 -10
t-40.5 -27.5t-26.5 -41.5t-9.5 -52zM350 675l139 -126l-57 -49l-91 75l-107 -75l-52 49zM430 657l135 136l76 -63l-160 -116z" />
    <glyph glyph-name="uni1EA6" unicode="&#x1ea6;" horiz-adv-x="672" 
d="M375 667h98l197 -667h-137l-42 140h-269l-76 -140h-144zM279 778l168 126l139 -126l-57 -49l-91 75l-107 -75zM276 246h190l-64 240zM452 959l76 63l115 -136l-51 -43z" />
    <glyph glyph-name="uni1EA7" unicode="&#x1ea7;" 
d="M63 194q0 54 16 100.5t47 80t75 53t100 19.5q42 0 78.5 -17t58.5 -53l7 56h122l-53 -433h-122l7 56q-26 -34 -60 -52t-76 -18q-46 0 -83 15.5t-63 43t-40 66t-14 83.5zM190 208q0 -53 30 -83.5t83 -30.5q59 0 94 38.5t35 96.5q0 50 -32.5 80t-81.5 30q-28 0 -51.5 -10
t-40.5 -27.5t-26.5 -41.5t-9.5 -52zM182 549l168 126l139 -126l-57 -49l-91 75l-107 -75zM431 793l115 -136l-51 -43l-140 116z" />
    <glyph glyph-name="uni1EA8" unicode="&#x1ea8;" horiz-adv-x="672" 
d="M2 0l373 667h98l197 -667h-137l-42 140h-269l-76 -140h-144zM480 942q6 22 19.5 38.5t32 26.5t40 15t42.5 5q50 0 75 -25.5t21 -60.5q-2 -20 -11.5 -34.5t-22.5 -24.5t-27 -15.5t-26 -7.5l-2 -16h-71l8 61q9 0 21 1t23 5t19 11t10 19t-7 19.5t-25 7.5q-15 0 -26.5 -6.5
t-15.5 -18.5h-77zM279 778l168 126l139 -126l-57 -49l-91 75l-107 -75zM466 246l-64 240l-126 -240h190z" />
    <glyph glyph-name="uni1EA9" unicode="&#x1ea9;" 
d="M263 -14q-46 0 -83 15.5t-63 43t-40 66t-14 83.5q0 54 16 100.5t47 80t75 53t100 19.5q42 0 78.5 -17t58.5 -53l7 56h122l-53 -433h-122l7 56q-26 -34 -60 -52t-76 -18zM190 208q0 -53 30 -83.5t83 -30.5q59 0 94 38.5t35 96.5q0 50 -32.5 80t-81.5 30q-28 0 -51.5 -10
t-40.5 -27.5t-26.5 -41.5t-9.5 -52zM383 713q6 22 19.5 38.5t32 26.5t40 15t42.5 5q50 0 75 -25.5t21 -60.5q-2 -20 -11.5 -34.5t-22.5 -24.5t-27 -15.5t-26 -7.5l-2 -16h-71l8 61q9 0 21 1t23 5t19 11t10 19t-7 19.5t-25 7.5q-15 0 -26.5 -6.5t-15.5 -18.5h-77zM350 675
l139 -126l-57 -49l-91 75l-107 -75l-52 49z" />
    <glyph glyph-name="uni1EAA" unicode="&#x1eaa;" horiz-adv-x="672" 
d="M2 0l373 667h98l197 -667h-137l-42 140h-269l-76 -140h-144zM287 970q14 28 39.5 50.5t63.5 22.5h2q22 0 37 -6.5t27 -14.5t24 -14.5t29 -6.5q11 0 28 10.5t25 35.5l45 -54q-20 -32 -44.5 -54t-63.5 -22h-2q-21 0 -36 6.5t-27.5 14t-24.5 14t-27 6.5q-9 0 -23.5 -7.5
t-25.5 -30.5zM279 778l168 126l139 -126l-57 -49l-91 75l-107 -75zM466 246l-64 240l-126 -240h190z" />
    <glyph glyph-name="uni1EAB" unicode="&#x1eab;" 
d="M263 -14q-46 0 -83 15.5t-63 43t-40 66t-14 83.5q0 54 16 100.5t47 80t75 53t100 19.5q42 0 78.5 -17t58.5 -53l7 56h122l-53 -433h-122l7 56q-26 -34 -60 -52t-76 -18zM190 208q0 -53 30 -83.5t83 -30.5q59 0 94 38.5t35 96.5q0 50 -32.5 80t-81.5 30q-28 0 -51.5 -10
t-40.5 -27.5t-26.5 -41.5t-9.5 -52zM190 741q14 28 39.5 50.5t63.5 22.5h2q22 0 37 -6.5t27 -14.5t24 -14.5t29 -6.5q11 0 28 10.5t25 35.5l45 -54q-20 -32 -44.5 -54t-63.5 -22h-2q-21 0 -36 6.5t-27.5 14t-24.5 14t-27 6.5q-9 0 -23.5 -7.5t-25.5 -30.5zM182 549l168 126
l139 -126l-57 -49l-91 75l-107 -75z" />
    <glyph glyph-name="uni1EAC" unicode="&#x1eac;" horiz-adv-x="672" 
d="M375 667h98l197 -667h-137l-42 140h-269l-76 -140h-144zM279 778l168 126l139 -126l-57 -49l-91 75l-107 -75zM276 246h190l-64 240zM319 -217q-27 0 -47 19.5t-20 46.5t20 46.5t47 19.5q28 0 48 -19.5t20 -46.5t-20 -46.5t-48 -19.5z" />
    <glyph glyph-name="uni1EAD" unicode="&#x1ead;" 
d="M63 194q0 54 16 100.5t47 80t75 53t100 19.5q42 0 78.5 -17t58.5 -53l7 56h122l-53 -433h-122l7 56q-26 -34 -60 -52t-76 -18q-46 0 -83 15.5t-63 43t-40 66t-14 83.5zM318 339q-28 0 -51.5 -10t-40.5 -27.5t-26.5 -41.5t-9.5 -52q0 -53 30 -83.5t83 -30.5q59 0 94 38.5
t35 96.5q0 50 -32.5 80t-81.5 30zM350 675l139 -126l-57 -49l-91 75l-107 -75l-52 49zM242 -217q-27 0 -47 19.5t-20 46.5t20 46.5t47 19.5q28 0 48 -19.5t20 -46.5t-20 -46.5t-48 -19.5z" />
    <glyph glyph-name="uni1EAE" unicode="&#x1eae;" horiz-adv-x="672" 
d="M2 0l373 667h98l197 -667h-137l-42 140h-269l-76 -140h-144zM433 729q-27 0 -51 6.5t-43 21.5t-30 38.5t-12 57.5h86q0 -29 17.5 -40.5t40.5 -11.5t43 11.5t26 40.5h86q-8 -34 -24.5 -57.5t-38.5 -38.5t-47.5 -21.5t-52.5 -6.5zM276 246h190l-64 240zM515 1042l76 -63
l-160 -116l-51 43z" />
    <glyph glyph-name="uni1EAF" unicode="&#x1eaf;" 
d="M263 -14q-46 0 -83 15.5t-63 43t-40 66t-14 83.5q0 54 16 100.5t47 80t75 53t100 19.5q42 0 78.5 -17t58.5 -53l7 56h122l-53 -433h-122l7 56q-26 -34 -60 -52t-76 -18zM190 208q0 -53 30 -83.5t83 -30.5q59 0 94 38.5t35 96.5q0 50 -32.5 80t-81.5 30q-28 0 -51.5 -10
t-40.5 -27.5t-26.5 -41.5t-9.5 -52zM296 624q0 -29 17.5 -40.5t40.5 -11.5t43 11.5t26 40.5h86q-8 -34 -24.5 -57.5t-38.5 -38.5t-47.5 -21.5t-52.5 -6.5t-51 6.5t-43 21.5t-30 38.5t-12 57.5h86zM293 677l135 136l76 -63l-160 -116z" />
    <glyph glyph-name="uni1EB0" unicode="&#x1eb0;" horiz-adv-x="672" 
d="M375 667h98l197 -667h-137l-42 140h-269l-76 -140h-144zM433 729q-27 0 -51 6.5t-43 21.5t-30 38.5t-12 57.5h86q0 -29 17.5 -40.5t40.5 -11.5t43 11.5t26 40.5h86q-8 -34 -24.5 -57.5t-38.5 -38.5t-47.5 -21.5t-52.5 -6.5zM276 246h190l-64 240zM316 979l76 63l115 -136
l-51 -43z" />
    <glyph glyph-name="uni1EB1" unicode="&#x1eb1;" 
d="M263 -14q-46 0 -83 15.5t-63 43t-40 66t-14 83.5q0 54 16 100.5t47 80t75 53t100 19.5q42 0 78.5 -17t58.5 -53l7 56h122l-53 -433h-122l7 56q-26 -34 -60 -52t-76 -18zM318 339q-28 0 -51.5 -10t-40.5 -27.5t-26.5 -41.5t-9.5 -52q0 -53 30 -83.5t83 -30.5q59 0 94 38.5
t35 96.5q0 50 -32.5 80t-81.5 30zM296 624q0 -29 17.5 -40.5t40.5 -11.5t43 11.5t26 40.5h86q-8 -34 -24.5 -57.5t-38.5 -38.5t-47.5 -21.5t-52.5 -6.5t-51 6.5t-43 21.5t-30 38.5t-12 57.5h86zM305 813l115 -136l-51 -43l-140 116z" />
    <glyph glyph-name="uni1EB2" unicode="&#x1eb2;" horiz-adv-x="672" 
d="M375 667h98l197 -667h-137l-42 140h-269l-76 -140h-144zM433 729q-27 0 -51 6.5t-43 21.5t-30 38.5t-12 57.5h86q0 -29 17.5 -40.5t40.5 -11.5t43 11.5t26 40.5h86q-8 -34 -24.5 -57.5t-38.5 -38.5t-47.5 -21.5t-52.5 -6.5zM342 962q6 22 19.5 38.5t32 26.5t40 15t42.5 5
q50 0 75 -25.5t21 -60.5q-2 -20 -11.5 -34.5t-22.5 -24.5t-27 -15.5t-26 -7.5l-2 -16h-71l8 61q9 0 21 1t23 5t19 11t10 19t-7 19.5t-25 7.5q-15 0 -26.5 -6.5t-15.5 -18.5h-77zM466 246l-64 240l-126 -240h190z" />
    <glyph glyph-name="uni1EB3" unicode="&#x1eb3;" 
d="M263 -14q-46 0 -83 15.5t-63 43t-40 66t-14 83.5q0 54 16 100.5t47 80t75 53t100 19.5q42 0 78.5 -17t58.5 -53l7 56h122l-53 -433h-122l7 56q-26 -34 -60 -52t-76 -18zM318 339q-28 0 -51.5 -10t-40.5 -27.5t-26.5 -41.5t-9.5 -52q0 -53 30 -83.5t83 -30.5q59 0 94 38.5
t35 96.5q0 50 -32.5 80t-81.5 30zM346 500q-27 0 -51 6.5t-43 21.5t-30 38.5t-12 57.5h86q0 -29 17.5 -40.5t40.5 -11.5t43 11.5t26 40.5h86q-8 -34 -24.5 -57.5t-38.5 -38.5t-47.5 -21.5t-52.5 -6.5zM255 733q6 22 19.5 38.5t32 26.5t40 15t42.5 5q50 0 75 -25.5t21 -60.5
q-2 -20 -11.5 -34.5t-22.5 -24.5t-27 -15.5t-26 -7.5l-2 -16h-71l8 61q9 0 21 1t23 5t19 11t10 19t-7 19.5t-25 7.5q-15 0 -26.5 -6.5t-15.5 -18.5h-77z" />
    <glyph glyph-name="uni1EB4" unicode="&#x1eb4;" horiz-adv-x="672" 
d="M375 667h98l197 -667h-137l-42 140h-269l-76 -140h-144zM433 729q-27 0 -51 6.5t-43 21.5t-30 38.5t-12 57.5h86q0 -29 17.5 -40.5t40.5 -11.5t43 11.5t26 40.5h86q-8 -34 -24.5 -57.5t-38.5 -38.5t-47.5 -21.5t-52.5 -6.5zM290 927q14 28 39.5 50.5t63.5 22.5h2
q22 0 37 -6.5t27 -14.5t24 -14.5t29 -6.5q11 0 28 10.5t25 35.5l45 -54q-20 -32 -44.5 -54t-63.5 -22h-2q-21 0 -36 6.5t-27.5 14t-24.5 14t-27 6.5q-9 0 -23.5 -7.5t-25.5 -30.5zM276 246h190l-64 240z" />
    <glyph glyph-name="uni1EB5" unicode="&#x1eb5;" 
d="M263 -14q-46 0 -83 15.5t-63 43t-40 66t-14 83.5q0 54 16 100.5t47 80t75 53t100 19.5q42 0 78.5 -17t58.5 -53l7 56h122l-53 -433h-122l7 56q-26 -34 -60 -52t-76 -18zM190 208q0 -53 30 -83.5t83 -30.5q59 0 94 38.5t35 96.5q0 50 -32.5 80t-81.5 30q-28 0 -51.5 -10
t-40.5 -27.5t-26.5 -41.5t-9.5 -52zM296 624q0 -29 17.5 -40.5t40.5 -11.5t43 11.5t26 40.5h86q-8 -34 -24.5 -57.5t-38.5 -38.5t-47.5 -21.5t-52.5 -6.5t-51 6.5t-43 21.5t-30 38.5t-12 57.5h86zM203 698q14 28 39.5 50.5t63.5 22.5h2q22 0 37 -6.5t27 -14.5t24 -14.5
t29 -6.5q11 0 28 10.5t25 35.5l45 -54q-20 -32 -44.5 -54t-63.5 -22h-2q-21 0 -36 6.5t-27.5 14t-24.5 14t-27 6.5q-9 0 -23.5 -7.5t-25.5 -30.5z" />
    <glyph glyph-name="uni1EB6" unicode="&#x1eb6;" horiz-adv-x="672" 
d="M2 0l373 667h98l197 -667h-137l-42 140h-269l-76 -140h-144zM383 853q0 -29 17.5 -40.5t40.5 -11.5t43 11.5t26 40.5h86q-8 -34 -24.5 -57.5t-38.5 -38.5t-47.5 -21.5t-52.5 -6.5t-51 6.5t-43 21.5t-30 38.5t-12 57.5h86zM466 246l-64 240l-126 -240h190zM252 -151
q0 27 20 46.5t47 19.5q28 0 48 -19.5t20 -46.5t-20 -46.5t-48 -19.5q-27 0 -47 19.5t-20 46.5z" />
    <glyph glyph-name="uni1EB7" unicode="&#x1eb7;" 
d="M263 -14q-46 0 -83 15.5t-63 43t-40 66t-14 83.5q0 54 16 100.5t47 80t75 53t100 19.5q42 0 78.5 -17t58.5 -53l7 56h122l-53 -433h-122l7 56q-26 -34 -60 -52t-76 -18zM318 339q-28 0 -51.5 -10t-40.5 -27.5t-26.5 -41.5t-9.5 -52q0 -53 30 -83.5t83 -30.5q59 0 94 38.5
t35 96.5q0 50 -32.5 80t-81.5 30zM346 500q-27 0 -51 6.5t-43 21.5t-30 38.5t-12 57.5h86q0 -29 17.5 -40.5t40.5 -11.5t43 11.5t26 40.5h86q-8 -34 -24.5 -57.5t-38.5 -38.5t-47.5 -21.5t-52.5 -6.5zM242 -217q-27 0 -47 19.5t-20 46.5t20 46.5t47 19.5q28 0 48 -19.5
t20 -46.5t-20 -46.5t-48 -19.5z" />
    <glyph glyph-name="uni1EB8" unicode="&#x1eb8;" horiz-adv-x="496" 
d="M158 667h370l-14 -112h-240l-18 -149h230l-14 -112h-230l-22 -182h240l-14 -112h-370zM245 -217q-27 0 -47 19.5t-20 46.5t20 46.5t47 19.5q28 0 48 -19.5t20 -46.5t-20 -46.5t-48 -19.5z" />
    <glyph glyph-name="uni1EB9" unicode="&#x1eb9;" horiz-adv-x="526" 
d="M63 186q0 57 17 105t49 82.5t78 54t104 19.5q101 0 152.5 -53.5t51.5 -153.5v-24t-2 -20h-324q-4 -30 3.5 -51.5t21.5 -35.5q17 -17 35.5 -22t35.5 -5q38 0 63.5 12.5t44.5 46.5l105 -25q-34 -70 -90.5 -100t-131.5 -30q-47 0 -86 13t-67 38.5t-44 63t-16 85.5zM247 -217
q-27 0 -47 19.5t-20 46.5t20 46.5t47 19.5q28 0 48 -19.5t20 -46.5t-20 -46.5t-48 -19.5zM313 361q-41 0 -70 -24.5t-40 -62.5h205q-2 41 -28.5 64t-66.5 23z" />
    <glyph glyph-name="uni1EBA" unicode="&#x1eba;" horiz-adv-x="496" 
d="M158 667h370l-14 -112h-240l-18 -149h230l-14 -112h-230l-22 -182h240l-14 -112h-370zM243 828q6 22 19.5 38.5t32 26.5t40 15t42.5 5q50 0 75 -25.5t21 -60.5q-2 -20 -11.5 -34.5t-22.5 -24.5t-27 -15.5t-26 -7.5l-2 -16h-71l8 61q9 0 21 1t23 5t19 11t10 19t-7 19.5
t-25 7.5q-15 0 -26.5 -6.5t-15.5 -18.5h-77z" />
    <glyph glyph-name="uni1EBB" unicode="&#x1ebb;" horiz-adv-x="526" 
d="M63 186q0 57 17 105t49 82.5t78 54t104 19.5q101 0 152.5 -53.5t51.5 -153.5v-24t-2 -20h-324q-4 -30 3.5 -51.5t21.5 -35.5q17 -17 35.5 -22t35.5 -5q38 0 63.5 12.5t44.5 46.5l105 -25q-34 -70 -90.5 -100t-131.5 -30q-47 0 -86 13t-67 38.5t-44 63t-16 85.5zM219 599
q6 22 19.5 38.5t32 26.5t40 15t42.5 5q50 0 75 -25.5t21 -60.5q-2 -20 -11.5 -34.5t-22.5 -24.5t-27 -15.5t-26 -7.5l-2 -16h-71l8 61q9 0 21 1t23 5t19 11t10 19t-7 19.5t-25 7.5q-15 0 -26.5 -6.5t-15.5 -18.5h-77zM313 361q-41 0 -70 -24.5t-40 -62.5h205q-2 41 -28.5 64
t-66.5 23z" />
    <glyph glyph-name="uni1EBC" unicode="&#x1ebc;" horiz-adv-x="496" 
d="M158 667h370l-14 -112h-240l-18 -149h230l-14 -112h-230l-22 -182h240l-14 -112h-370zM192 793q14 28 39.5 50.5t63.5 22.5h2q22 0 37 -6.5t27 -14.5t24 -14.5t29 -6.5q11 0 28 10.5t25 35.5l45 -54q-20 -32 -44.5 -54t-63.5 -22h-2q-21 0 -36 6.5t-27.5 14t-24.5 14
t-27 6.5q-9 0 -23.5 -7.5t-25.5 -30.5z" />
    <glyph glyph-name="uni1EBD" unicode="&#x1ebd;" horiz-adv-x="526" 
d="M63 186q0 57 17 105t49 82.5t78 54t104 19.5q101 0 152.5 -53.5t51.5 -153.5v-24t-2 -20h-324q-4 -30 3.5 -51.5t21.5 -35.5q17 -17 35.5 -22t35.5 -5q38 0 63.5 12.5t44.5 46.5l105 -25q-34 -70 -90.5 -100t-131.5 -30q-47 0 -86 13t-67 38.5t-44 63t-16 85.5zM171 564
q14 28 39.5 50.5t63.5 22.5h2q22 0 37 -6.5t27 -14.5t24 -14.5t29 -6.5q11 0 28 10.5t25 35.5l45 -54q-20 -32 -44.5 -54t-63.5 -22h-2q-21 0 -36 6.5t-27.5 14t-24.5 14t-27 6.5q-9 0 -23.5 -7.5t-25.5 -30.5zM313 361q-41 0 -70 -24.5t-40 -62.5h205q-2 41 -28.5 64
t-66.5 23z" />
    <glyph glyph-name="uni1EBE" unicode="&#x1ebe;" horiz-adv-x="496" 
d="M158 667h370l-14 -112h-240l-18 -149h230l-14 -112h-230l-22 -182h240l-14 -112h-370zM368 904l139 -126l-57 -49l-91 75l-107 -75l-52 49zM583 1022l76 -63l-160 -116l-51 43z" />
    <glyph glyph-name="uni1EBF" unicode="&#x1ebf;" horiz-adv-x="526" 
d="M276 -14q-47 0 -86 13t-67 38.5t-44 63t-16 85.5q0 57 17 105t49 82.5t78 54t104 19.5q101 0 152.5 -53.5t51.5 -153.5v-24t-2 -20h-324q-4 -30 3.5 -51.5t21.5 -35.5q17 -17 35.5 -22t35.5 -5q38 0 63.5 12.5t44.5 46.5l105 -25q-34 -70 -90.5 -100t-131.5 -30zM339 675
l139 -126l-57 -49l-91 75l-107 -75l-52 49zM554 793l76 -63l-160 -116l-51 43zM408 274q-2 41 -28.5 64t-66.5 23q-41 0 -70 -24.5t-40 -62.5h205z" />
    <glyph glyph-name="uni1EC0" unicode="&#x1ec0;" horiz-adv-x="496" 
d="M158 667h370l-14 -112h-240l-18 -149h230l-14 -112h-230l-22 -182h240l-14 -112h-370zM368 904l139 -126l-57 -49l-91 75l-107 -75l-52 49zM449 1022l115 -136l-51 -43l-140 116z" />
    <glyph glyph-name="uni1EC1" unicode="&#x1ec1;" horiz-adv-x="526" 
d="M276 -14q-47 0 -86 13t-67 38.5t-44 63t-16 85.5q0 57 17 105t49 82.5t78 54t104 19.5q101 0 152.5 -53.5t51.5 -153.5v-24t-2 -20h-324q-4 -30 3.5 -51.5t21.5 -35.5q17 -17 35.5 -22t35.5 -5q38 0 63.5 12.5t44.5 46.5l105 -25q-34 -70 -90.5 -100t-131.5 -30zM339 675
l139 -126l-57 -49l-91 75l-107 -75l-52 49zM313 361q-41 0 -70 -24.5t-40 -62.5h205q-2 41 -28.5 64t-66.5 23zM420 793l115 -136l-51 -43l-140 116z" />
    <glyph glyph-name="uni1EC2" unicode="&#x1ec2;" horiz-adv-x="496" 
d="M158 667h370l-14 -112h-240l-18 -149h230l-14 -112h-230l-22 -182h240l-14 -112h-370zM401 942q6 22 19.5 38.5t32 26.5t40 15t42.5 5q50 0 75 -25.5t21 -60.5q-2 -20 -11.5 -34.5t-22.5 -24.5t-27 -15.5t-26 -7.5l-2 -16h-71l8 61q9 0 21 1t23 5t19 11t10 19t-7 19.5
t-25 7.5q-15 0 -26.5 -6.5t-15.5 -18.5h-77zM200 778l168 126l139 -126l-57 -49l-91 75l-107 -75z" />
    <glyph glyph-name="uni1EC3" unicode="&#x1ec3;" horiz-adv-x="526" 
d="M63 186q0 57 17 105t49 82.5t78 54t104 19.5q101 0 152.5 -53.5t51.5 -153.5v-24t-2 -20h-324q-4 -30 3.5 -51.5t21.5 -35.5q17 -17 35.5 -22t35.5 -5q38 0 63.5 12.5t44.5 46.5l105 -25q-34 -70 -90.5 -100t-131.5 -30q-47 0 -86 13t-67 38.5t-44 63t-16 85.5zM372 713
q6 22 19.5 38.5t32 26.5t40 15t42.5 5q50 0 75 -25.5t21 -60.5q-2 -20 -11.5 -34.5t-22.5 -24.5t-27 -15.5t-26 -7.5l-2 -16h-71l8 61q9 0 21 1t23 5t19 11t10 19t-7 19.5t-25 7.5q-15 0 -26.5 -6.5t-15.5 -18.5h-77zM171 549l168 126l139 -126l-57 -49l-91 75l-107 -75z
M313 361q-41 0 -70 -24.5t-40 -62.5h205q-2 41 -28.5 64t-66.5 23z" />
    <glyph glyph-name="uni1EC4" unicode="&#x1ec4;" horiz-adv-x="496" 
d="M158 667h370l-14 -112h-240l-18 -149h230l-14 -112h-230l-22 -182h240l-14 -112h-370zM208 970q14 28 39.5 50.5t63.5 22.5h2q22 0 37 -6.5t27 -14.5t24 -14.5t29 -6.5q11 0 28 10.5t25 35.5l45 -54q-20 -32 -44.5 -54t-63.5 -22h-2q-21 0 -36 6.5t-27.5 14t-24.5 14
t-27 6.5q-9 0 -23.5 -7.5t-25.5 -30.5zM368 904l139 -126l-57 -49l-91 75l-107 -75l-52 49z" />
    <glyph glyph-name="uni1EC5" unicode="&#x1ec5;" horiz-adv-x="526" 
d="M63 186q0 57 17 105t49 82.5t78 54t104 19.5q101 0 152.5 -53.5t51.5 -153.5v-24t-2 -20h-324q-4 -30 3.5 -51.5t21.5 -35.5q17 -17 35.5 -22t35.5 -5q38 0 63.5 12.5t44.5 46.5l105 -25q-34 -70 -90.5 -100t-131.5 -30q-47 0 -86 13t-67 38.5t-44 63t-16 85.5zM179 741
q14 28 39.5 50.5t63.5 22.5h2q22 0 37 -6.5t27 -14.5t24 -14.5t29 -6.5q11 0 28 10.5t25 35.5l45 -54q-20 -32 -44.5 -54t-63.5 -22h-2q-21 0 -36 6.5t-27.5 14t-24.5 14t-27 6.5q-9 0 -23.5 -7.5t-25.5 -30.5zM171 549l168 126l139 -126l-57 -49l-91 75l-107 -75zM408 274
q-2 41 -28.5 64t-66.5 23q-41 0 -70 -24.5t-40 -62.5h205z" />
    <glyph glyph-name="uni1EC6" unicode="&#x1ec6;" horiz-adv-x="496" 
d="M158 667h370l-14 -112h-240l-18 -149h230l-14 -112h-230l-22 -182h240l-14 -112h-370zM368 904l139 -126l-57 -49l-91 75l-107 -75l-52 49zM178 -151q0 27 20 46.5t47 19.5q28 0 48 -19.5t20 -46.5t-20 -46.5t-48 -19.5q-27 0 -47 19.5t-20 46.5z" />
    <glyph glyph-name="uni1EC7" unicode="&#x1ec7;" horiz-adv-x="526" 
d="M63 186q0 57 17 105t49 82.5t78 54t104 19.5q101 0 152.5 -53.5t51.5 -153.5v-24t-2 -20h-324q-4 -30 3.5 -51.5t21.5 -35.5q17 -17 35.5 -22t35.5 -5q38 0 63.5 12.5t44.5 46.5l105 -25q-34 -70 -90.5 -100t-131.5 -30q-47 0 -86 13t-67 38.5t-44 63t-16 85.5zM171 549
l168 126l139 -126l-57 -49l-91 75l-107 -75zM180 -151q0 27 20 46.5t47 19.5q28 0 48 -19.5t20 -46.5t-20 -46.5t-48 -19.5q-27 0 -47 19.5t-20 46.5zM313 361q-41 0 -70 -24.5t-40 -62.5h205q-2 41 -28.5 64t-66.5 23z" />
    <glyph glyph-name="uni1EC8" unicode="&#x1ec8;" horiz-adv-x="282" 
d="M76 0l82 667h130l-82 -667h-130zM123 828q6 22 19.5 38.5t32 26.5t40 15t42.5 5q50 0 75 -25.5t21 -60.5q-2 -20 -11.5 -34.5t-22.5 -24.5t-27 -15.5t-26 -7.5l-2 -16h-71l8 61q9 0 21 1t23 5t19 11t10 19t-7 19.5t-25 7.5q-15 0 -26.5 -6.5t-15.5 -18.5h-77z" />
    <glyph glyph-name="uni1EC9" unicode="&#x1ec9;" horiz-adv-x="238" 
d="M58 0l53 433h122l-53 -433h-122zM75 599q6 22 19.5 38.5t32 26.5t40 15t42.5 5q50 0 75 -25.5t21 -60.5q-2 -20 -11.5 -34.5t-22.5 -24.5t-27 -15.5t-26 -7.5l-2 -16h-71l8 61q9 0 21 1t23 5t19 11t10 19t-7 19.5t-25 7.5q-15 0 -26.5 -6.5t-15.5 -18.5h-77z" />
    <glyph glyph-name="uni1ECA" unicode="&#x1eca;" horiz-adv-x="282" 
d="M76 0l82 667h130l-82 -667h-130zM57 -151q0 27 20 46.5t47 19.5q28 0 48 -19.5t20 -46.5t-20 -46.5t-48 -19.5q-27 0 -47 19.5t-20 46.5z" />
    <glyph glyph-name="uni1ECB" unicode="&#x1ecb;" horiz-adv-x="238" 
d="M111 433h122l-53 -433h-122zM189 510q-27 0 -47 19.5t-20 46.5t20 46.5t47 19.5q28 0 48 -19.5t20 -46.5t-20 -46.5t-48 -19.5zM35 -151q0 27 20 46.5t47 19.5q28 0 48 -19.5t20 -46.5t-20 -46.5t-48 -19.5q-27 0 -47 19.5t-20 46.5z" />
    <glyph glyph-name="uni1ECC" unicode="&#x1ecc;" horiz-adv-x="806" 
d="M85 299q0 86 31 156.5t84.5 121t126.5 78t157 27.5q69 0 127.5 -22t101 -62t66.5 -97t24 -127q0 -80 -28 -154t-79 -126q-20 -21 -47 -40.5t-61.5 -34.5t-76.5 -24.5t-93 -9.5q-49 0 -88 9t-69 22.5t-51.5 30t-36.5 31.5q-42 42 -65 100t-23 121zM220 309q0 -46 15 -84
t42 -65t64.5 -42t83.5 -15q54 0 98.5 21t77 57t50 83.5t17.5 99.5q0 46 -15 82.5t-42.5 62.5t-65 40t-82.5 14q-54 0 -98.5 -19.5t-77 -54t-50 -81t-17.5 -99.5zM294 -151q0 27 20 46.5t47 19.5q28 0 48 -19.5t20 -46.5t-20 -46.5t-48 -19.5q-27 0 -47 19.5t-20 46.5z" />
    <glyph glyph-name="uni1ECD" unicode="&#x1ecd;" 
d="M63 193q0 54 21 101.5t54 79.5q13 13 31.5 26t43 23.5t55 17t68.5 6.5q48 0 89 -13.5t72 -39.5t48.5 -64.5t17.5 -88.5q0 -42 -16 -90t-61 -92q-42 -42 -91.5 -57.5t-107.5 -15.5q-48 0 -89 13.5t-71 39.5t-47 65t-17 89zM324 339q-29 0 -54 -10.5t-43 -29.5t-28 -44
t-10 -54q0 -48 31.5 -77.5t78.5 -29.5q28 0 52.5 10.5t43 29t29.5 43t11 52.5q0 48 -31.5 79t-79.5 31zM189 -151q0 27 20 46.5t47 19.5q28 0 48 -19.5t20 -46.5t-20 -46.5t-48 -19.5q-27 0 -47 19.5t-20 46.5z" />
    <glyph glyph-name="uni1ECE" unicode="&#x1ece;" horiz-adv-x="806" 
d="M173 78q-42 42 -65 100t-23 121q0 86 31 156.5t84.5 121t126.5 78t157 27.5q69 0 127.5 -22t101 -62t66.5 -97t24 -127q0 -80 -28 -154t-79 -126q-20 -21 -47 -40.5t-61.5 -34.5t-76.5 -24.5t-93 -9.5q-49 0 -88 9t-69 22.5t-51.5 30t-36.5 31.5zM220 309q0 -46 15 -84
t42 -65t64.5 -42t83.5 -15q54 0 98.5 21t77 57t50 83.5t17.5 99.5q0 46 -15 82.5t-42.5 62.5t-65 40t-82.5 14q-54 0 -98.5 -19.5t-77 -54t-50 -81t-17.5 -99.5zM397 828q6 22 19.5 38.5t32 26.5t40 15t42.5 5q50 0 75 -25.5t21 -60.5q-2 -20 -11.5 -34.5t-22.5 -24.5
t-27 -15.5t-26 -7.5l-2 -16h-71l8 61q9 0 21 1t23 5t19 11t10 19t-7 19.5t-25 7.5q-15 0 -26.5 -6.5t-15.5 -18.5h-77z" />
    <glyph glyph-name="uni1ECF" unicode="&#x1ecf;" 
d="M287 -14q-48 0 -89 13.5t-71 39.5t-47 65t-17 89q0 54 21 101.5t54 79.5q13 13 31.5 26t43 23.5t55 17t68.5 6.5q48 0 89 -13.5t72 -39.5t48.5 -64.5t17.5 -88.5q0 -42 -16 -90t-61 -92q-42 -42 -91.5 -57.5t-107.5 -15.5zM324 339q-29 0 -54 -10.5t-43 -29.5t-28 -44
t-10 -54q0 -48 31.5 -77.5t78.5 -29.5q28 0 52.5 10.5t43 29t29.5 43t11 52.5q0 48 -31.5 79t-79.5 31zM245 599q6 22 19.5 38.5t32 26.5t40 15t42.5 5q50 0 75 -25.5t21 -60.5q-2 -20 -11.5 -34.5t-22.5 -24.5t-27 -15.5t-26 -7.5l-2 -16h-71l8 61q9 0 21 1t23 5t19 11
t10 19t-7 19.5t-25 7.5q-15 0 -26.5 -6.5t-15.5 -18.5h-77z" />
    <glyph glyph-name="uni1ED0" unicode="&#x1ed0;" horiz-adv-x="806" 
d="M173 78q-42 42 -65 100t-23 121q0 86 31 156.5t84.5 121t126.5 78t157 27.5q69 0 127.5 -22t101 -62t66.5 -97t24 -127q0 -80 -28 -154t-79 -126q-20 -21 -47 -40.5t-61.5 -34.5t-76.5 -24.5t-93 -9.5q-49 0 -88 9t-69 22.5t-51.5 30t-36.5 31.5zM220 309q0 -46 15 -84
t42 -65t64.5 -42t83.5 -15q54 0 98.5 21t77 57t50 83.5t17.5 99.5q0 46 -15 82.5t-42.5 62.5t-65 40t-82.5 14q-54 0 -98.5 -19.5t-77 -54t-50 -81t-17.5 -99.5zM512 904l139 -126l-57 -49l-91 75l-107 -75l-52 49zM736 1022l76 -63l-160 -116l-51 43z" />
    <glyph glyph-name="uni1ED1" unicode="&#x1ed1;" 
d="M287 -14q-48 0 -89 13.5t-71 39.5t-47 65t-17 89q0 54 21 101.5t54 79.5q13 13 31.5 26t43 23.5t55 17t68.5 6.5q48 0 89 -13.5t72 -39.5t48.5 -64.5t17.5 -88.5q0 -42 -16 -90t-61 -92q-42 -42 -91.5 -57.5t-107.5 -15.5zM324 339q-29 0 -54 -10.5t-43 -29.5t-28 -44
t-10 -54q0 -48 31.5 -77.5t78.5 -29.5q28 0 52.5 10.5t43 29t29.5 43t11 52.5q0 48 -31.5 79t-79.5 31zM201 549l168 126l139 -126l-57 -49l-91 75l-107 -75zM584 793l76 -63l-160 -116l-51 43z" />
    <glyph glyph-name="uni1ED2" unicode="&#x1ed2;" horiz-adv-x="806" 
d="M173 78q-42 42 -65 100t-23 121q0 86 31 156.5t84.5 121t126.5 78t157 27.5q69 0 127.5 -22t101 -62t66.5 -97t24 -127q0 -80 -28 -154t-79 -126q-20 -21 -47 -40.5t-61.5 -34.5t-76.5 -24.5t-93 -9.5q-49 0 -88 9t-69 22.5t-51.5 30t-36.5 31.5zM220 309q0 -46 15 -84
t42 -65t64.5 -42t83.5 -15q54 0 98.5 21t77 57t50 83.5t17.5 99.5q0 46 -15 82.5t-42.5 62.5t-65 40t-82.5 14q-54 0 -98.5 -19.5t-77 -54t-50 -81t-17.5 -99.5zM512 904l139 -126l-57 -49l-91 75l-107 -75l-52 49zM602 1022l115 -136l-51 -43l-140 116z" />
    <glyph glyph-name="uni1ED3" unicode="&#x1ed3;" 
d="M287 -14q-48 0 -89 13.5t-71 39.5t-47 65t-17 89q0 54 21 101.5t54 79.5q13 13 31.5 26t43 23.5t55 17t68.5 6.5q48 0 89 -13.5t72 -39.5t48.5 -64.5t17.5 -88.5q0 -42 -16 -90t-61 -92q-42 -42 -91.5 -57.5t-107.5 -15.5zM324 339q-29 0 -54 -10.5t-43 -29.5t-28 -44
t-10 -54q0 -48 31.5 -77.5t78.5 -29.5q28 0 52.5 10.5t43 29t29.5 43t11 52.5q0 48 -31.5 79t-79.5 31zM201 549l168 126l139 -126l-57 -49l-91 75l-107 -75zM450 793l115 -136l-51 -43l-140 116z" />
    </font>
</defs>
</svg>
