<?xml version="1.0" standalone="no"?>
<!DOCTYPE svg PUBLIC "-//W3C//DTD SVG 1.1//EN" "http://www.w3.org/Graphics/SVG/1.1/DTD/svg11.dtd" >
<svg xmlns="http://www.w3.org/2000/svg" xmlns:xlink="http://www.w3.org/1999/xlink" version="1.1">
<metadata>
Created by FontForge 20170731 at Thu Oct 21 07:48:54 2021
 By Aleksey,,,
Copyright (c) 1995 ParaGraph Intl., (c) 1998 ParaType Inc., ParaType Ltd. All rights reserved.
</metadata>
<defs>
<font id="SVN-Futura-Light" horiz-adv-x="500" >
  <font-face 
    font-family="SVN-Futura Light"
    font-weight="300"
    font-stretch="normal"
    units-per-em="1000"
    panose-1="0 0 0 0 0 0 0 0 0 0"
    ascent="800"
    descent="-200"
    x-height="408"
    cap-height="667"
    bbox="-298 -250 1018 993"
    underline-thickness="50"
    underline-position="-150"
    unicode-range="U+000D-FB02"
  />
<missing-glyph horiz-adv-x="233" 
 />
    <glyph glyph-name="uniF460" unicode="&#x410;`" horiz-adv-x="586" 
d="M14 0l281 687l277 -687h-48l-89 219h-284l-89 -219h-48zM419 259l-125 316l-127 -316h252zM243 721l116 133l50 -25l-134 -126z" />
    <glyph glyph-name="uniF461" unicode="&#x415;`" horiz-adv-x="464" 
d="M90 667h320v-40h-276v-242h270v-40h-270v-305h276v-40h-320v667zM182 721l116 133l50 -25l-134 -126z" />
    <glyph glyph-name="uniF462" unicode="&#x418;`" horiz-adv-x="700" 
d="M566 556l-476 -573v684h44v-566l476 573v-674h-44v556zM466 829l-134 -126l-32 18l116 133z" />
    <glyph glyph-name="uniF463" unicode="&#x41e;`" horiz-adv-x="800" 
d="M54 332q0 72 26.5 134.5t73 109t110 73.5t136.5 27t136.5 -27t110 -73.5t73 -109t26.5 -134.5t-26.5 -134.5t-73 -109t-110 -73t-136.5 -26.5t-136.5 26.5t-110 73t-73 109t-26.5 134.5zM400 636q-65 0 -119.5 -23.5t-95 -64.5t-63 -96.5t-22.5 -119.5t22.5 -119t63 -96
t95 -64.5t119.5 -23.5q64 0 119 23.5t95.5 64.5t63 96t22.5 119t-22.5 119.5t-63 96.5t-95.5 64.5t-119 23.5zM350 721l116 133l50 -25l-134 -126z" />
    <glyph glyph-name="uniF464" unicode="&#x423;`" horiz-adv-x="550" 
d="M64 667l231 -432l195 432h46l-305 -667h-46l85 186l-256 481h50zM225 721l116 133l50 -25l-134 -126z" />
    <glyph glyph-name="uniF465" unicode="&#x42b;`" horiz-adv-x="690" 
d="M134 667v-287h116q30 0 70 -5t75.5 -24t60 -55t24.5 -99q0 -38 -12 -73t-37.5 -63t-67 -44.5t-99.5 -16.5h-174v667h44zM134 40h112q40 0 74.5 8t60 26.5t39.5 48.5t14 74q0 47 -16.5 75t-43.5 43t-62.5 20t-73.5 5h-104v-300zM600 667v-667h-44v667h44zM295 721l116 133
l50 -25l-134 -126z" />
    <glyph glyph-name="uniF466" unicode="&#x42d;`" horiz-adv-x="678" 
d="M54 130q25 -28 54 -47t58.5 -31t58 -17.5t53.5 -5.5q53 0 105.5 20t95.5 57.5t70 92.5t29 125h-444v40h442q-6 59 -31.5 109t-65.5 86t-91.5 56.5t-108.5 20.5q-65 0 -123.5 -27t-101.5 -78v58q7 7 25.5 21.5t46.5 29t66 25.5t86 11q72 0 135 -27t110 -73.5t74 -109
t27 -134.5q0 -70 -26.5 -132t-73 -109t-110 -74.5t-138.5 -27.5q-54 0 -112.5 19t-109.5 64v58zM365 854l50 -25l-134 -126l-32 18z" />
    <glyph glyph-name="uniF467" unicode="&#x42e;`" horiz-adv-x="960" 
d="M90 0v667h44v-295h102q7 66 36.5 122t74 96.5t102 63t121.5 22.5q71 0 132.5 -27t106.5 -73.5t71 -109t26 -134.5t-26 -134.5t-71 -109t-106.5 -73t-132.5 -26.5q-72 0 -133 27t-106 73.5t-70.5 109t-26.5 133.5h-100v-332h-44zM280 332q0 -64 22 -119t60.5 -96
t91.5 -64.5t116 -23.5t116 23.5t91.5 64.5t60.5 96t22 119t-22 119.5t-60.5 96.5t-91.5 64.5t-116 23.5t-116 -23.5t-91.5 -64.5t-60.5 -96.5t-22 -119.5zM430 721l116 133l50 -25l-134 -126z" />
    <glyph glyph-name="uniF468" unicode="&#x42f;`" horiz-adv-x="470" 
d="M34 0l202 299q-40 1 -73.5 14t-57.5 36.5t-37.5 57t-13.5 76.5q0 33 8.5 59t21.5 45.5t28 32.5t29 21q29 17 62 21.5t63 4.5h114v-667h-44v299h-50l-200 -299h-52zM100 483q0 -75 44.5 -109.5t115.5 -34.5h76v288h-70q-23 0 -47 -3t-44 -13q-35 -17 -55 -50.5t-20 -77.5z
M185 721l116 133l50 -25l-134 -126z" />
    <glyph glyph-name="uniF469" unicode="&#x401;`" horiz-adv-x="464" 
d="M410 667v-40h-276v-242h270v-40h-270v-305h276v-40h-320v667h320zM166 721l116 133l44 -25l-134 -126zM319 780q0 16 11 27t27 11t27 -11t11 -27t-11 -27t-27 -11t-27 11t-11 27zM141 742q-16 0 -27 11t-11 27t11 27t27 11t27 -11t11 -27t-11 -27t-27 -11z" />
    <glyph glyph-name="uniF46A" unicode="&#x430;`" horiz-adv-x="516" 
d="M245 -11q-40 0 -76 14.5t-63.5 42.5t-43.5 68t-16 90q0 47 14.5 86.5t40.5 67.5t62.5 43.5t81.5 15.5q48 0 89 -19t70 -61v71h40v-408h-40v73q-31 -47 -75 -65.5t-84 -18.5zM88 207q0 -35 10.5 -67t31 -57.5t50 -40.5t68.5 -15q38 0 67.5 15t49.5 40t30.5 57.5t10.5 67.5
q0 45 -15 77.5t-38.5 53.5t-51.5 31t-54 10q-30 0 -59 -11.5t-51 -33t-35.5 -53.5t-13.5 -74zM221 483l92 137l43 -25l-105 -128z" />
    <glyph glyph-name="uniF46B" unicode="&#x435;`" horiz-adv-x="483" 
d="M247 -11q-48 0 -85 16.5t-63 45.5t-39.5 67.5t-13.5 83.5q0 53 17 93.5t44.5 67.5t63 40.5t73.5 13.5q41 0 76.5 -16t61.5 -44.5t40.5 -68.5t14.5 -89h-349q0 -39 13 -71t35.5 -54.5t52 -34.5t61.5 -12q50 0 86 26t56 67l34 -20q-9 -17 -24 -36.5t-36.5 -36t-51 -27.5
t-67.5 -11zM244 379q-31 0 -57.5 -11t-46 -30.5t-32.5 -45t-17 -55.5h304q-4 30 -16.5 56t-32.5 45t-46 30t-56 11zM296 620l43 -25l-105 -128l-30 16z" />
    <glyph glyph-name="uniF46C" unicode="&#x438;`" horiz-adv-x="474" 
d="M112 408v-327l290 350v-431h-40v325l-290 -350v433h40zM335 595l-105 -128l-30 16l92 137z" />
    <glyph glyph-name="uniF46D" unicode="&#x43e;`" horiz-adv-x="520" 
d="M46 203q0 45 16.5 84.5t45 68t68 45t84.5 16.5t84.5 -16.5t68 -45t45 -68t16.5 -84.5t-16.5 -84.5t-45 -68t-68 -45t-84.5 -16.5t-84.5 16.5t-68 45t-45 68t-16.5 84.5zM260 379q-37 0 -68.5 -13.5t-54.5 -37.5t-36 -56t-13 -69t13 -69t36 -56t54.5 -37.5t68.5 -13.5
t68.5 13.5t54.5 37.5t36 56t13 69t-13 69t-36 56t-54.5 37.5t-68.5 13.5zM223 483l92 137l43 -25l-105 -128z" />
    <glyph glyph-name="uniF46E" unicode="&#x443;`" horiz-adv-x="428" 
d="M54 408l171 -363l149 363h46l-268 -638h-46l96 223l-194 415h46zM177 483l92 137l43 -25l-105 -128z" />
    <glyph glyph-name="uniF46F" unicode="&#x44b;`" 
d="M72 408h40v-170h97q57 0 95 -29.5t38 -89.5q0 -62 -38.5 -90.5t-95.5 -28.5h-136v408zM112 38h96q38 0 65 19.5t27 61.5q0 43 -27.5 62t-66.5 19h-94v-162zM428 408v-408h-40v408h40zM213 483l92 137l43 -25l-105 -128z" />
    <glyph glyph-name="uniF470" unicode="&#x44d;`" horiz-adv-x="412" 
d="M148 -11q-8 0 -21 0.5t-28 3t-30.5 6.5t-30.5 11v42q31 -17 63 -21t47 -4q37 0 68.5 11.5t55 33t37 51.5t15.5 67h-239v38h239q-4 36 -19.5 64t-39.5 47.5t-54.5 29.5t-65.5 10q-38 0 -62.5 -6.5t-40.5 -14.5v40q28 11 52.5 15t50.5 4q48 0 89 -14.5t70 -41.5t45.5 -66.5
t16.5 -89.5q0 -49 -16 -89t-44.5 -68t-68.5 -43.5t-89 -15.5zM139 483l92 137l43 -25l-105 -128z" />
    <glyph glyph-name="uniF471" unicode="&#x44e;`" horiz-adv-x="640" 
d="M72 0v408h40v-180h70q4 40 21.5 75t44.5 60t62.5 39.5t77.5 14.5q44 0 81.5 -16.5t65.5 -45t43.5 -68t15.5 -84.5t-15.5 -84.5t-43.5 -68t-65.5 -45t-81.5 -16.5q-39 0 -75.5 14t-64.5 40t-46 63t-20 84h-70v-190h-40zM224 203q0 -37 12.5 -69t34.5 -56t52 -37.5
t65 -13.5t65 13.5t52 37.5t34.5 56t12.5 69t-12.5 69t-34.5 56t-52 37.5t-65 13.5t-65 -13.5t-52 -37.5t-34.5 -56t-12.5 -69zM283 483l92 137l43 -25l-105 -128z" />
    <glyph glyph-name="uniF472" unicode="&#x44f;`" horiz-adv-x="386" 
d="M28 0l130 178q-49 2 -81.5 31t-32.5 80q0 63 37.5 91t96.5 28h136v-408h-40v176h-70l-128 -176h-48zM86 290q0 -42 27 -59t65 -17h96v156h-96q-39 0 -65.5 -18.5t-26.5 -61.5zM248 620l43 -25l-105 -128l-30 16z" />
    <glyph glyph-name="uniF473" unicode="&#x451;`" horiz-adv-x="483" 
d="M247 -11q-47 0 -84 16.5t-63 45t-40 67.5t-14 84q0 44 13.5 83t39 68.5t62.5 46.5t83 17q42 0 76 -15t57 -38q29 -29 45 -73t15 -92h-349q-2 -42 12.5 -73.5t34.5 -51.5q20 -21 50 -34t65 -13q48 0 85 25t57 68l34 -20q-29 -52 -73.5 -81.5t-105.5 -29.5zM395 237
q-4 30 -16.5 56t-32 45t-45.5 30t-57 11t-57 -11t-46.5 -30.5t-33 -45t-16.5 -55.5h304zM280 620l37 -25l-105 -128l-24 16zM337 490q-15 0 -25.5 10.5t-10.5 25.5t10.5 25.5t25.5 10.5t25.5 -10.5t10.5 -25.5t-10.5 -25.5t-25.5 -10.5zM115 526q0 15 10.5 25.5t25.5 10.5
t25.5 -10.5t10.5 -25.5t-10.5 -25.5t-25.5 -10.5t-25.5 10.5t-10.5 25.5z" />
    <glyph glyph-name="fi" unicode="fi" horiz-adv-x="442" 
d="M26 408h46v163q0 47 5.5 69.5t16.5 39.5q14 22 30.5 34t33.5 18t33 7.5t30 1.5t30 -1.5t32.5 -7.5t33 -18.5t31.5 -33.5q12 -17 17 -39.5t5 -69.5v-17h-40v17q0 29 -4.5 53t-17 41.5t-33.5 27.5t-54 10t-54 -10t-33.5 -27.5t-17 -41.5t-4.5 -53v-163h102v-38h-102v-370
h-40v370h-46v38zM370 408v-408h-40v408h40z" />
    <glyph glyph-name="fl" unicode="fl" horiz-adv-x="442" 
d="M26 408h46v163q0 47 5.5 69.5t16.5 39.5q14 22 30.5 34t33.5 18t33 7.5t30 1.5t30 -1.5t32.5 -7.5t33 -18.5t31.5 -33.5q12 -17 17 -39.5t5 -69.5v-571h-40v571q0 28 -4.5 52.5t-17 42t-33.5 27.5t-54 10t-54 -10t-33.5 -27.5t-17 -42t-4.5 -52.5v-163h102v-38h-102v-370
h-40v370h-46v38z" />
    <glyph glyph-name=".notdef" horiz-adv-x="233" 
 />
    <glyph glyph-name="uni0000" horiz-adv-x="0" 
 />
    <glyph glyph-name="nonmarkingreturn" horiz-adv-x="233" 
 />
    <glyph glyph-name="uni000D" unicode="&#xd;" horiz-adv-x="250" 
 />
    <glyph glyph-name="space" unicode=" " horiz-adv-x="233" 
 />
    <glyph glyph-name="exclam" unicode="!" horiz-adv-x="260" 
d="M152 667v-548h-44v548h44zM93 30q0 16 10.5 26.5t26.5 10.5t26.5 -10.5t10.5 -26.5t-10.5 -26.5t-26.5 -10.5t-26.5 10.5t-10.5 26.5z" />
    <glyph glyph-name="quotedbl" unicode="&#x22;" horiz-adv-x="280" 
d="M176 667h44l-7 -269h-30zM60 667h44l-7 -269h-30z" />
    <glyph glyph-name="numbersign" unicode="#" horiz-adv-x="600" 
d="M52 259h118l24 161h-118l6 38h118l32 209h40l-32 -209h164l32 209h40l-32 -209h118l-6 -38h-118l-24 -161h118l-6 -38h-118l-33 -221h-40l33 221h-164l-33 -221h-40l33 221h-118zM374 259l24 161h-164l-24 -161h164z" />
    <glyph glyph-name="dollar" unicode="$" horiz-adv-x="548" 
d="M267 -11q-69 0 -121 40t-75 103l38 18q18 -53 59 -86t99 -35v310l-25 12q-27 13 -51 27t-42 32.5t-28.5 42.5t-10.5 57t11.5 62.5t32 52t49.5 36t64 15.5v89h40v-89q6 -1 22.5 -4t36.5 -13t40.5 -28.5t36.5 -49.5l-32 -27q-2 4 -8.5 16t-19.5 25t-31.5 25t-44.5 16v-270
q30 -14 60.5 -29.5t55 -36t39.5 -49t15 -67.5q0 -32 -11.5 -64t-33.5 -58.5t-53.5 -45t-71.5 -24.5v-99h-40v96zM366 288q-5 2 -16 8.5t-43 22.5v-287q29 6 52 20.5t39 35t24.5 45t8.5 50.5q0 27 -13.5 54.5t-51.5 50.5zM267 636q-27 -2 -47.5 -13t-35 -28.5t-21.5 -39
t-7 -43.5q0 -45 28 -74t83 -52v250z" />
    <glyph glyph-name="percent" unicode="%" horiz-adv-x="608" 
d="M34 542q0 57 36.5 94t98.5 37t98.5 -37t36.5 -94t-36.5 -94t-98.5 -37t-98.5 37t-36.5 94zM304 125q0 57 36.5 94t98.5 37t98.5 -37t36.5 -94t-36.5 -94t-98.5 -37t-98.5 37t-36.5 94zM169 637q-24 0 -42 -8.5t-30 -22.5t-17.5 -31t-5.5 -33q0 -17 5.5 -33.5t17.5 -30.5
t30 -22.5t42 -8.5t42 8.5t30 22.5t17.5 30.5t5.5 33.5q0 16 -5.5 33t-17.5 31t-30 22.5t-42 8.5zM344 125q0 -17 5.5 -33.5t17.5 -30.5t30 -22.5t42 -8.5t42 8.5t30 22.5t17.5 30.5t5.5 33.5q0 16 -5.5 33t-17.5 31t-30 22.5t-42 8.5t-42 -8.5t-30 -22.5t-17.5 -31t-5.5 -33
zM92 1l394 681l30 -16l-394 -681z" />
    <glyph glyph-name="ampersand" unicode="&#x26;" horiz-adv-x="628" 
d="M239 -13q-37 0 -68.5 13t-55 35.5t-36.5 54t-13 69.5q0 70 36.5 116t91.5 81l71 46q-17 27 -30 47t-21 37t-12 32t-4 32q0 27 10 51t27.5 41t41.5 27t51 10q54 0 88 -35t34 -89q0 -29 -11 -53t-29 -44t-40 -36.5t-44 -31.5l163 -220q17 17 34 36t44 53l32 -27
q-25 -34 -47 -58t-38 -39l100 -135h-56l-77 105q-27 -22 -54 -43.5t-56.5 -38t-62 -26.5t-69.5 -10zM226 327q-24 -15 -45 -31.5t-36 -36t-24 -43t-9 -54.5q0 -58 34 -96.5t94 -38.5q30 0 59.5 10t57.5 26t53.5 36.5t45.5 40.5l-167 228zM242 548q0 -17 6 -33t15 -32
t19 -30.5t19 -28.5q18 11 36.5 24t33.5 29t25 35t10 42q0 35 -22.5 59t-58.5 24q-18 0 -33 -7.5t-26.5 -19.5t-17.5 -28t-6 -34z" />
    <glyph glyph-name="quotesingle" unicode="'" horiz-adv-x="164" 
d="M97 398h-30l-7 269h44z" />
    <glyph glyph-name="parenleft" unicode="(" horiz-adv-x="282" 
d="M174 -160q-38 108 -56 222t-18 228t18 228t56 222l38 -23q-15 -48 -27.5 -102t-21 -109.5t-13 -110.5t-4.5 -105q0 -106 17 -216t49 -211l-38 -23v0z" />
    <glyph glyph-name="parenright" unicode=")" horiz-adv-x="282" 
d="M136 290q0 51 -4.5 105.5t-13 110t-20.5 109.5t-28 102l38 23q38 -108 56 -222t18 -228t-18 -228t-56 -222l-38 23q15 49 27.5 102.5t21 108.5t13 110t4.5 106z" />
    <glyph glyph-name="asterisk" unicode="*" horiz-adv-x="548" 
d="M255 596l-3 133h44l-3 -133l125 44l14 -41l-128 -38l81 -106l-35 -25l-76 110l-76 -110l-35 25l81 106l-128 38l14 41z" />
    <glyph glyph-name="plus" unicode="+" 
d="M230 348v182h40v-182h197v-38h-197v-182h-40v182h-197v38h197z" />
    <glyph glyph-name="comma" unicode="," horiz-adv-x="228" 
d="M98 65l40 -12l-74 -200l-26 10z" />
    <glyph glyph-name="hyphen" unicode="-" horiz-adv-x="300" 
d="M50 230h200v-46h-200v46z" />
    <glyph glyph-name="period" unicode="." horiz-adv-x="202" 
d="M64 30q0 16 10.5 26.5t26.5 10.5t26.5 -10.5t10.5 -26.5t-10.5 -26.5t-26.5 -10.5t-26.5 10.5t-10.5 26.5z" />
    <glyph glyph-name="slash" unicode="/" horiz-adv-x="576" 
d="M524 743l32 -16l-504 -901l-32 16z" />
    <glyph glyph-name="zero" unicode="0" horiz-adv-x="548" 
d="M117 71q-39 47 -62 113t-23 149t23 149t62 113q20 24 41 40t41.5 25t39.5 12.5t35 3.5t35 -3.5t39.5 -12.5t41.5 -25t41 -40q39 -47 62 -113t23 -149t-23 -149t-62 -113q-36 -43 -77.5 -62.5t-79.5 -19.5t-79.5 19.5t-77.5 62.5zM78 333q0 -80 20 -138t52 -98
q18 -23 36.5 -36.5t35 -20.5t30 -9t22.5 -2t22.5 2t30 9t35 20.5t36.5 36.5q32 40 52 98t20 138q0 81 -20 138.5t-52 97.5q-9 11 -21 23t-27.5 21.5t-34.5 16t-41 6.5t-41 -6.5t-34.5 -16t-27.5 -21.5t-21 -23q-32 -40 -52 -97.5t-20 -138.5z" />
    <glyph glyph-name="one" unicode="1" horiz-adv-x="548" 
d="M272 627h-104l20 40h128v-667h-44v627z" />
    <glyph glyph-name="two" unicode="2" horiz-adv-x="548" 
d="M60 0l256 282q19 21 39 44t36 48.5t26.5 53.5t10.5 58q0 31 -11.5 58.5t-31.5 48t-49 32t-63 11.5q-35 0 -63 -12t-48.5 -33t-31.5 -50t-11 -63h-44q0 44 15 80.5t41.5 62.5t63.5 40.5t81 14.5q43 0 79.5 -14.5t62.5 -40t41 -60.5t15 -75q0 -32 -9 -60.5t-24 -54
t-34.5 -49t-39.5 -45.5l-214 -237h318v-40h-411z" />
    <glyph glyph-name="three" unicode="3" horiz-adv-x="548" 
d="M120 162q1 -28 12.5 -52.5t30 -42.5t43.5 -28t54 -10q31 0 58 12.5t47.5 34t32.5 49.5t12 59q0 69 -41.5 105.5t-106.5 36.5v40q30 0 55.5 10.5t44 29.5t29 44.5t10.5 55.5q0 27 -8.5 50.5t-24.5 41t-40 28t-55 10.5q-57 0 -92.5 -35.5t-37.5 -92.5h-42q1 37 14 68t36 53
t54 34.5t68 12.5q41 0 73.5 -13.5t55 -36t34 -53t11.5 -64.5q0 -21 -5 -44.5t-17.5 -45.5t-32.5 -40.5t-50 -30.5q54 -17 84 -61.5t30 -101.5q0 -42 -15.5 -78t-42 -62t-62 -41t-76.5 -15q-36 0 -69.5 13t-59 36.5t-40.5 55t-15 68.5h44z" />
    <glyph glyph-name="four" unicode="4" horiz-adv-x="548" 
d="M415 689v-522h93v-40h-93v-127h-44v127h-359zM90 167h281v392z" />
    <glyph glyph-name="five" unicode="5" horiz-adv-x="548" 
d="M69 115q28 -42 69.5 -64t92.5 -22q41 0 76 14t60.5 39.5t39.5 61t14 77.5t-14 77.5t-38.5 61t-59 39.5t-76.5 14q-32 0 -57 -7.5t-47 -21.5l86 283h255v-40h-224l-56 -180q12 3 22.5 4.5t22.5 1.5q53 0 96 -17.5t73 -48t46.5 -73t16.5 -92.5q0 -54 -19 -97t-51 -73.5
t-75 -46.5t-92 -16q-26 0 -54 5.5t-54.5 18.5t-50 34t-41.5 52z" />
    <glyph glyph-name="six" unicode="6" horiz-adv-x="548" 
d="M36 226q0 27 5 49.5t12 39.5t14.5 29t11.5 18l222 314l34 -26l-148 -210q23 10 45.5 14t45.5 4q49 0 91.5 -17.5t74 -48t49 -73.5t17.5 -94q0 -50 -17.5 -93.5t-49 -75t-75.5 -49.5t-96 -18q-51 0 -94 17.5t-74.5 49t-49.5 75t-18 95.5zM82 224q0 -42 14.5 -77.5t40 -62
t60.5 -41t76 -14.5t76 15t60.5 41t40 62t14.5 77q0 43 -14.5 78.5t-40 61t-60.5 40t-76 14.5q-42 0 -77 -14.5t-60.5 -40.5t-39.5 -61.5t-14 -77.5z" />
    <glyph glyph-name="seven" unicode="7" horiz-adv-x="548" 
d="M454 627h-405v40h483l-477 -678l-33 25z" />
    <glyph glyph-name="eight" unicode="8" horiz-adv-x="548" 
d="M274 -11q-39 0 -74.5 13t-61.5 37.5t-41.5 59t-15.5 78.5q0 27 7 53t21 48.5t34 40t47 27.5q-34 18 -53 41.5t-28 46t-10.5 40.5t-1.5 26q0 38 13.5 70t37.5 55.5t56 37t70 13.5q37 0 69.5 -13.5t56.5 -37t37.5 -55.5t13.5 -70q0 -8 -1.5 -26t-10.5 -40.5t-28 -46
t-53 -41.5q27 -10 47 -27.5t34 -40t21 -48.5t7 -53q0 -44 -15.5 -78.5t-41.5 -59t-61.5 -37.5t-74.5 -13zM127 177q0 -31 10.5 -58t29.5 -47t46 -31.5t61 -11.5t61 11.5t46 31.5t29.5 47t10.5 58q0 33 -11 60.5t-30.5 47.5t-46.5 31t-59 11t-59 -11t-46.5 -31t-30.5 -47.5
t-11 -60.5zM143 500q0 -30 10.5 -54.5t28.5 -42.5t41.5 -28t50.5 -10t50.5 10t41.5 28t28.5 42.5t10.5 54.5t-10 55t-28 43t-42 28t-51 10t-51 -10t-42 -28t-28 -43t-10 -55z" />
    <glyph glyph-name="nine" unicode="9" horiz-adv-x="548" 
d="M38 441q0 50 17.5 93t49 74.5t75 49.5t96.5 18q51 0 94 -17.5t74.5 -49t49.5 -75t18 -94.5q0 -27 -5 -49.5t-12 -39.5t-14.5 -29t-11.5 -18l-222 -315l-34 26l148 211q-23 -10 -45.5 -14t-45.5 -4q-50 0 -92 17.5t-73.5 48t-49 73.5t-17.5 94zM84 442q0 -43 14.5 -78.5
t40 -61t60.5 -40t76 -14.5q42 0 77 14.5t60.5 40.5t39.5 61.5t14 77.5q0 41 -14.5 76.5t-40 61.5t-60.5 41t-76 15t-76 -15t-60.5 -41t-40 -61.5t-14.5 -76.5z" />
    <glyph glyph-name="colon" unicode=":" horiz-adv-x="202" 
d="M64 380q0 16 10.5 26.5t26.5 10.5t26.5 -10.5t10.5 -26.5t-10.5 -26.5t-26.5 -10.5t-26.5 10.5t-10.5 26.5zM64 26q0 16 10.5 26.5t26.5 10.5t26.5 -10.5t10.5 -26.5t-10.5 -26.5t-26.5 -10.5t-26.5 10.5t-10.5 26.5z" />
    <glyph glyph-name="semicolon" unicode=";" horiz-adv-x="228" 
d="M38 -137l60 202l40 -12l-74 -200zM103 343q-16 0 -26.5 10.5t-10.5 26.5t10.5 26.5t26.5 10.5t26.5 -10.5t10.5 -26.5t-10.5 -26.5t-26.5 -10.5z" />
    <glyph glyph-name="less" unicode="&#x3c;" 
d="M33 309v38l434 192v-41l-390 -170l390 -170v-41z" />
    <glyph glyph-name="equal" unicode="=" 
d="M33 419h434v-38h-434v38zM33 239v38h434v-38h-434z" />
    <glyph glyph-name="greater" unicode="&#x3e;" 
d="M423 328l-390 170v41l434 -192v-38l-434 -192v41z" />
    <glyph glyph-name="question" unicode="?" horiz-adv-x="466" 
d="M81 472q-7 22 -7 46q0 32 8.5 61t35.5 55q20 18 49 30t67 12q75 0 116.5 -44t41.5 -118q0 -65 -32.5 -102.5t-92.5 -54.5q-26 -8 -51.5 -14t-43.5 -20q-11 -9 -22.5 -27t-11.5 -47q0 -43 26.5 -70t69.5 -27q53 0 74.5 30t21.5 78h40q0 -64 -33 -105t-102 -41
q-31 0 -57 9.5t-44.5 27.5t-29 43t-10.5 57t12 57t32 42t44 23.5t48 14.5q28 9 49.5 16.5t36.5 20.5t22.5 33.5t7.5 53.5q0 55 -29 89.5t-86 34.5q-58 0 -85.5 -34.5t-27.5 -89.5q0 -20 7 -40h-44zM197 26q0 16 10.5 26.5t26.5 10.5t26.5 -10.5t10.5 -26.5t-10.5 -26.5
t-26.5 -10.5t-26.5 10.5t-10.5 26.5z" />
    <glyph glyph-name="at" unicode="@" horiz-adv-x="732" 
d="M32 331q0 73 27 135.5t73.5 108.5t109.5 72.5t135 26.5q64 0 121 -21t100 -60t68.5 -93.5t25.5 -121.5q0 -53 -14 -96.5t-36.5 -75.5t-51.5 -49.5t-58 -17.5q-32 0 -51.5 18.5t-19.5 54.5q-21 -38 -55 -56.5t-71 -18.5q-33 0 -58.5 13t-43.5 34.5t-27.5 51t-9.5 62.5
q0 42 13 79t36 65.5t55 45t71 16.5q5 0 21 -1.5t34.5 -10t36 -27t26.5 -52.5l15 78h32q-17 -87 -27 -137.5t-15 -77.5t-6.5 -38t-1.5 -18q0 -18 10.5 -35.5t36.5 -17.5t49.5 17t41 46t28 67.5t10.5 80.5q0 61 -22.5 110t-61 83.5t-90.5 53.5t-111 19q-66 0 -123 -24
t-98.5 -66t-65.5 -98.5t-24 -122.5q0 -47 12.5 -92t36.5 -83.5t59 -68.5t80 -48q36 -14 72.5 -19t66.5 -5q21 0 45.5 2.5t49 7.5t48 12t42.5 16l37 18l12 -29q-110 -57 -235 -57q-79 0 -145 25.5t-114 71.5t-74.5 109t-26.5 138zM374 472q-34 0 -60.5 -14.5t-45 -39
t-28 -55.5t-9.5 -64q0 -32 9.5 -56.5t24.5 -41t34.5 -24.5t40.5 -8q26 0 49.5 13t41.5 37t29 58.5t11 78.5q0 9 -2 28.5t-12 39t-29.5 34t-53.5 14.5z" />
    <glyph glyph-name="A" unicode="A" horiz-adv-x="586" 
d="M14 0l281 687l277 -687h-48l-89 219h-284l-89 -219h-48zM167 259h252l-125 316z" />
    <glyph glyph-name="B" unicode="B" horiz-adv-x="534" 
d="M90 0v667h146q88 0 136 -46t48 -121q0 -54 -22.5 -90t-55.5 -56q66 -11 102 -56.5t36 -110.5q0 -44 -15.5 -78.5t-43 -58.5t-65.5 -37t-83 -13h-183zM246 40q34 0 72.5 5t72.5 35q27 24 35 51.5t8 50.5q0 47 -16.5 75t-43.5 43t-62.5 20t-73.5 5h-104v-285h112zM134 627
v-262h106q61 0 98 33.5t37 96.5q0 40 -14 65t-31 39q-25 20 -55 24t-56 4h-85z" />
    <glyph glyph-name="C" unicode="C" horiz-adv-x="678" 
d="M402 -11q-75 0 -139 27.5t-110.5 74.5t-72.5 109t-26 132q0 72 27 134.5t74 109t110 73.5t135 27q48 0 86 -11t66 -25.5t46 -29t26 -21.5v-58q-43 51 -101.5 78t-123.5 27q-64 0 -119 -24t-95 -65.5t-62.5 -97.5t-22.5 -119q0 -74 28 -130.5t71.5 -94.5t96.5 -57t104 -19
q25 0 53.5 5.5t58 17.5t58 31t54.5 47v-58q-51 -45 -109.5 -64t-112.5 -19z" />
    <glyph glyph-name="D" unicode="D" horiz-adv-x="618" 
d="M90 0v667h132q22 0 51.5 -2.5t62 -12.5t66.5 -28.5t66 -49.5q27 -27 45 -57.5t29.5 -62t16.5 -63t5 -58.5t-5 -58t-16.5 -62.5t-29.5 -62t-45 -57.5q-32 -32 -66 -50t-66.5 -28t-62 -12.5t-51.5 -2.5h-132zM134 627v-587h87q66 0 120.5 21.5t94 60t61 92.5t21.5 119
q0 64 -22 118t-61 93t-93.5 61t-120.5 22h-87z" />
    <glyph glyph-name="E" unicode="E" horiz-adv-x="464" 
d="M90 667h320v-40h-276v-242h270v-40h-270v-305h276v-40h-320v667z" />
    <glyph glyph-name="F" unicode="F" horiz-adv-x="406" 
d="M90 667h270v-40h-226v-242h220v-40h-220v-345h-44v667z" />
    <glyph glyph-name="G" unicode="G" horiz-adv-x="772" 
d="M399 -11q-74 0 -137 25.5t-109 71.5t-72.5 108.5t-26.5 137.5q0 74 27 137t74 109t110.5 72t136.5 26q91 0 164 -41.5t125 -114.5l-35 -28q-20 33 -47.5 59.5t-61 45.5t-71 29t-75.5 10q-64 0 -119 -24t-95.5 -65.5t-63.5 -97t-23 -119.5q0 -63 22.5 -117.5t62 -95.5
t94 -64.5t119.5 -23.5q57 0 106 18t86 50.5t59 79t25 103.5h-236v40h280q0 -73 -21.5 -133.5t-63 -104.5t-100.5 -68.5t-134 -24.5z" />
    <glyph glyph-name="H" unicode="H" horiz-adv-x="672" 
d="M90 667h44v-283h404v283h44v-667h-44v344h-404v-344h-44v667z" />
    <glyph glyph-name="I" unicode="I" horiz-adv-x="224" 
d="M134 667v-667h-44v667h44z" />
    <glyph glyph-name="J" unicode="J" horiz-adv-x="263" 
d="M-24 85q13 -24 33.5 -40t49.5 -16q21 0 34.5 8t21.5 21.5t11 30t3 34.5v544h44v-537q0 -30 -5.5 -56t-19 -44.5t-36 -29.5t-55.5 -11q-38 0 -65 19t-47 51z" />
    <glyph glyph-name="K" unicode="K" horiz-adv-x="540" 
d="M90 667h44v-314l315 314h58l-323 -319l342 -348h-60l-314 318l-18 -17v-301h-44v667z" />
    <glyph glyph-name="L" unicode="L" horiz-adv-x="334" 
d="M134 667v-627h186v-40h-230v667h44z" />
    <glyph glyph-name="M" unicode="M" horiz-adv-x="896" 
d="M159 690l289 -617l289 617l76 -690h-44l-59 536l-262 -560l-262 560l-59 -536h-44z" />
    <glyph glyph-name="N" unicode="N" horiz-adv-x="784" 
d="M90 0v674l560 -586v579h44v-684l-560 586v-569h-44z" />
    <glyph glyph-name="O" unicode="O" horiz-adv-x="800" 
d="M54 332q0 72 26.5 134.5t73 109t110 73.5t136.5 27t136.5 -27t110 -73.5t73 -109t26.5 -134.5t-26.5 -134.5t-73 -109t-110 -73t-136.5 -26.5q-74 0 -137 26.5t-109.5 73t-73 109t-26.5 134.5zM400 636q-65 0 -119.5 -23.5t-95 -64.5t-63 -96.5t-22.5 -119.5t22.5 -119
t63 -96t95 -64.5t119.5 -23.5q64 0 119 23.5t95.5 64.5t63 96t22.5 119t-22.5 119.5t-63 96.5t-95.5 64.5t-119 23.5z" />
    <glyph glyph-name="P" unicode="P" horiz-adv-x="446" 
d="M90 0v667h129q41 0 76.5 -11t62 -33t41.5 -54.5t15 -75.5q0 -42 -14 -74.5t-39.5 -55t-61.5 -34.5t-79 -12h-86v-317h-44zM134 357h88q66 0 106 36t40 99t-40 99t-113 36h-81v-270z" />
    <glyph glyph-name="Q" unicode="Q" horiz-adv-x="800" 
d="M54 332q0 72 26.5 134.5t73 109t110 73.5t136.5 27t136 -27t109.5 -73.5t73.5 -109t27 -134.5q0 -26 -4.5 -55.5t-15 -60.5t-29.5 -62.5t-47 -61.5l86 -92h-58l-59 64q-11 -9 -30 -21.5t-46.5 -24.5t-63 -20.5t-79.5 -8.5q-73 0 -136.5 26.5t-110 73t-73 109t-26.5 134.5
zM400 636q-65 0 -119.5 -23.5t-95 -64.5t-63 -96.5t-22.5 -119.5t22.5 -119t63 -96t95 -64.5t119.5 -23.5q41 0 91 13t100 52l-167 179h58l139 -150q12 13 26 32.5t26 45.5t19.5 58.5t7.5 72.5q0 64 -22.5 119.5t-63 96.5t-95.5 64.5t-119 23.5z" />
    <glyph glyph-name="R" unicode="R" horiz-adv-x="468" 
d="M90 0v667h96q38 0 73 -5.5t68 -28.5q39 -27 54 -65.5t15 -77.5q0 -44 -15 -77t-41.5 -54.5t-62 -32.5t-75.5 -11l218 -315h-50l-216 315h-20v-315h-44zM134 627v-272h64q72 0 112 35.5t40 100.5q0 39 -12 65t-34 42t-51.5 22.5t-63.5 6.5h-55z" />
    <glyph glyph-name="S" unicode="S" horiz-adv-x="514" 
d="M252 -11q-70 0 -122.5 39t-75.5 104l38 18q19 -54 60.5 -87.5t100.5 -33.5q34 0 63 11.5t51 32.5t34.5 49t12.5 61q0 27 -13 54.5t-52 50.5q-29 17 -113 58q-28 13 -54 27.5t-45.5 33t-31.5 43.5t-12 60q0 29 10 58.5t31 53.5t53 39t77 15q51 0 93.5 -23.5t68.5 -71.5
l-32 -27q-15 30 -35 46.5t-39 24.5t-34.5 9.5t-22.5 1.5q-30 0 -53 -10t-38.5 -27t-24 -39.5t-8.5 -47.5q0 -27 9 -46t24.5 -33t37 -26t46.5 -24t44 -21t34.5 -17t28.5 -15.5t26 -16.5q11 -8 23.5 -18.5t23 -26t17.5 -36t7 -48.5q0 -42 -16.5 -77.5t-45 -62t-66 -41
t-80.5 -14.5z" />
    <glyph glyph-name="T" unicode="T" horiz-adv-x="418" 
d="M404 667v-40h-173v-627h-44v627h-173v40h390z" />
    <glyph glyph-name="U" unicode="U" horiz-adv-x="634" 
d="M90 667h44v-417q0 -48 4.5 -81t23.5 -63q15 -24 35 -39t41 -23.5t42 -11.5t37 -3t37 3t42 11.5t41 23.5t35 39q19 30 23.5 63t4.5 81v417h44v-417q0 -27 -1 -50.5t-5 -44t-11.5 -39t-20.5 -37.5q-19 -27 -42.5 -44.5t-48.5 -27.5t-50.5 -14t-47.5 -4q-23 0 -48 4t-50 14
t-48.5 27.5t-42.5 44.5q-26 37 -32 76.5t-6 94.5v417z" />
    <glyph glyph-name="V" unicode="V" horiz-adv-x="510" 
d="M62 667l196 -568l190 568h48l-238 -694l-244 694h48z" />
    <glyph glyph-name="W" unicode="W" horiz-adv-x="984" 
d="M62 667l184 -566l241 602l226 -602l209 566h48l-257 -692l-226 606l-248 -606l-225 692h48z" />
    <glyph glyph-name="X" unicode="X" horiz-adv-x="470" 
d="M206 340l-175 327h48l151 -285l152 285h48l-174 -327l183 -340h-48l-161 300l-159 -300h-48z" />
    <glyph glyph-name="Y" unicode="Y" horiz-adv-x="516" 
d="M64 667l192 -337l196 337h50l-225 -382v-285h-44v285l-219 382h50z" />
    <glyph glyph-name="Z" unicode="Z" horiz-adv-x="554" 
d="M111 40h395v-40h-469l406 627h-367v40h441z" />
    <glyph glyph-name="bracketleft" unicode="[" horiz-adv-x="278" 
d="M88 729h150v-40h-106v-809h106v-40h-150v889z" />
    <glyph glyph-name="backslash" unicode="\" horiz-adv-x="576" 
d="M524 -174l-504 901l32 16l504 -901z" />
    <glyph glyph-name="bracketright" unicode="]" horiz-adv-x="278" 
d="M40 689v40h150v-889h-150v40h106v809h-106z" />
    <glyph glyph-name="asciicircum" unicode="^" 
d="M223 667h54l186 -285h-46l-167 254l-167 -254h-46z" />
    <glyph glyph-name="underscore" unicode="_" 
d="M0 -78h500v-38h-500v38z" />
    <glyph glyph-name="grave" unicode="`" 
d="M143 595l43 25l92 -137l-30 -16z" />
    <glyph glyph-name="a" unicode="a" horiz-adv-x="516" 
d="M245 -11q-40 0 -76 14.5t-63.5 42.5t-43.5 68t-16 90q0 47 14.5 86.5t40.5 67.5t62.5 43.5t81.5 15.5q48 0 89 -19t70 -61v71h40v-408h-40v73q-31 -47 -75 -65.5t-84 -18.5zM88 207q0 -35 10.5 -67t31 -57.5t50 -40.5t68.5 -15q38 0 67.5 15t49.5 40t30.5 57.5t10.5 67.5
q0 45 -15 77.5t-38.5 53.5t-51.5 31t-54 10q-30 0 -59 -11.5t-51 -33t-35.5 -53.5t-13.5 -74z" />
    <glyph glyph-name="b" unicode="b" horiz-adv-x="516" 
d="M72 729h40v-392q29 40 70 60t90 20q46 0 83 -16t62.5 -44.5t39 -67t13.5 -82.5q0 -45 -14 -84.5t-39.5 -69.5t-63 -47t-83.5 -17q-38 0 -65.5 10.5t-46.5 24t-30.5 27.5t-15.5 22v-73h-40v729zM110 209q0 -38 10.5 -71.5t30.5 -58t49.5 -38.5t68.5 -14t68.5 14t49.5 38.5
t30.5 57t10.5 70.5q0 42 -13 74t-34.5 54t-50.5 33t-60 11q-30 0 -59 -10.5t-51.5 -32t-36 -53.5t-13.5 -74z" />
    <glyph glyph-name="c" unicode="c" horiz-adv-x="442" 
d="M255 -11q-46 0 -84.5 16t-66 44.5t-43 67.5t-15.5 84t14.5 84.5t42 69t67 46t88.5 16.5q22 0 60.5 -8.5t80.5 -43.5v-53q-10 12 -24 23.5t-31.5 21.5t-39 16t-46.5 6q-38 0 -69 -13.5t-53.5 -37.5t-35 -56.5t-12.5 -69.5q0 -44 15 -77t39 -54.5t54 -32.5t60 -11
q24 0 46 6.5t40.5 17t34 23.5t27.5 26v-54q-20 -18 -57.5 -37.5t-91.5 -19.5z" />
    <glyph glyph-name="d" unicode="d" horiz-adv-x="516" 
d="M246 -11q-39 0 -75 14t-63.5 41t-44.5 67.5t-17 94.5q0 56 17.5 96t45.5 65.5t64 37.5t73 12q56 0 95 -22.5t63 -57.5v392h40v-729h-40v73q-15 -24 -34.5 -40t-40.5 -25.5t-42.5 -14t-40.5 -4.5zM88 207q0 -45 13.5 -78.5t36 -56t51 -34t59.5 -11.5q30 0 58.5 11.5
t50.5 34t35.5 56t13.5 78.5q0 36 -11 67t-31.5 54.5t-50 37t-67.5 13.5q-32 0 -60.5 -11t-50 -32.5t-34.5 -53.5t-13 -75z" />
    <glyph glyph-name="e" unicode="e" horiz-adv-x="483" 
d="M247 -11q-48 0 -85 16.5t-63 45.5t-39.5 67.5t-13.5 83.5q0 53 17 93.5t44.5 67.5t63 40.5t73.5 13.5q41 0 76.5 -16t61.5 -44.5t40.5 -68.5t14.5 -89h-349q0 -39 13 -71t35.5 -54.5t52 -34.5t61.5 -12q50 0 86 26t56 67l34 -20q-9 -17 -24 -36.5t-36.5 -36t-51 -27.5
t-67.5 -11zM244 379q-31 0 -57.5 -11t-46 -30.5t-32.5 -45t-17 -55.5h304q-4 30 -16.5 56t-32.5 45t-46 30t-56 11z" />
    <glyph glyph-name="f" unicode="f" horiz-adv-x="214" 
d="M72 408v194q0 43 10 70t25.5 42.5t34.5 21t37 5.5q13 0 21.5 -2t13.5 -4v-37q-13 5 -31 5q-13 0 -26 -4t-23 -15.5t-16 -33t-6 -56.5v-186h102v-38h-102v-370h-40v370h-46v38h46z" />
    <glyph glyph-name="g" unicode="g" horiz-adv-x="520" 
d="M85 -55q5 -64 49 -100.5t109 -36.5q60 0 93.5 26t49.5 60.5t19 68t3 49.5v58q-31 -43 -74 -62t-87 -19q-38 0 -74 13.5t-64 40.5t-45.5 67.5t-17.5 93.5q0 44 14 83t41 68t65 45.5t86 16.5q51 0 90.5 -21t65.5 -59v71h40v-396q0 -116 -54 -179t-151 -63q-40 0 -75.5 11.5
t-62.5 33.5t-43.5 55t-18.5 75h42zM88 202q0 -37 11 -69t32 -55.5t50 -37t65 -13.5q38 0 68.5 14t51.5 38t32.5 56.5t11.5 70.5q0 36 -11.5 67.5t-32.5 55t-51 37t-67 13.5q-38 0 -67.5 -14.5t-50 -39t-31.5 -56.5t-11 -67z" />
    <glyph glyph-name="h" unicode="h" horiz-adv-x="442" 
d="M112 729v-385q7 13 18 26t26 23.5t35 17t46 6.5q27 0 47 -7t33.5 -16.5t21.5 -19t11 -14.5q14 -22 17 -49t3 -54v-257h-40v257q0 25 -4 47t-14.5 38.5t-29.5 26.5t-48 10q-37 0 -60.5 -14.5t-37 -38.5t-19 -54t-5.5 -60v-212h-40v729h40z" />
    <glyph glyph-name="i" unicode="i" horiz-adv-x="184" 
d="M112 408v-408h-40v408h40zM51 542q0 17 12 29.5t29 12.5t29.5 -12.5t12.5 -29.5t-12.5 -29t-29.5 -12t-29 12t-12 29z" />
    <glyph glyph-name="j" unicode="j" horiz-adv-x="184" 
d="M112 408v-638h-40v638h40zM51 542q0 17 12 29.5t29 12.5t29.5 -12.5t12.5 -29.5t-12.5 -29t-29.5 -12t-29 12t-12 29z" />
    <glyph glyph-name="k" unicode="k" horiz-adv-x="396" 
d="M72 0v729h40v-496l168 175h52l-172 -177l228 -231h-54l-201 202l-21 -21v-181h-40z" />
    <glyph glyph-name="l" unicode="l" horiz-adv-x="184" 
d="M112 729v-729h-40v729h40z" />
    <glyph glyph-name="m" unicode="m" horiz-adv-x="652" 
d="M112 408v-51q12 20 26 32t28 18t27.5 8t24.5 2q30 0 50.5 -8.5t33.5 -20.5t20 -24.5t10 -20.5q17 37 48.5 55.5t72.5 18.5q69 0 98 -40.5t29 -104.5v-272h-40v272q0 22 -4 41.5t-13.5 34t-26 23t-41.5 8.5q-41 0 -63 -17.5t-32 -40t-12 -44.5t-2 -31v-246h-40v262
q0 10 -1.5 29.5t-10.5 39t-27 34t-51 14.5q-53 0 -78.5 -41t-25.5 -102v-236h-40v408h40z" />
    <glyph glyph-name="n" unicode="n" horiz-adv-x="442" 
d="M112 408v-64q7 13 18 26t26 23.5t35 17t46 6.5q27 0 47 -7t33.5 -16.5t21.5 -19t11 -14.5q14 -22 17 -49t3 -54v-257h-40v257q0 25 -4 47t-14.5 38.5t-29.5 26.5t-48 10q-37 0 -60.5 -14.5t-37 -38.5t-19 -54t-5.5 -60v-212h-40v408h40z" />
    <glyph glyph-name="o" unicode="o" horiz-adv-x="520" 
d="M46 203q0 45 16.5 84.5t45 68t68 45t84.5 16.5t84.5 -16.5t68 -45t45 -68t16.5 -84.5t-16.5 -84.5t-45 -68t-68 -45t-84.5 -16.5t-84.5 16.5t-68 45t-45 68t-16.5 84.5zM260 379q-37 0 -68.5 -13.5t-54.5 -37.5t-36 -56t-13 -69t13 -69t36 -56t54.5 -37.5t68.5 -13.5
t68.5 13.5t54.5 37.5t36 56t13 69t-13 69t-36 56t-54.5 37.5t-68.5 13.5z" />
    <glyph glyph-name="p" unicode="p" horiz-adv-x="516" 
d="M72 408h40v-71q29 40 70 60t90 20q46 0 83 -16t62.5 -44.5t39 -67t13.5 -82.5q0 -45 -14 -84.5t-39.5 -69.5t-63 -47t-83.5 -17q-38 0 -65.5 10.5t-46.5 24t-30.5 27.5t-15.5 22v-303h-40v638zM270 379q-30 0 -59 -10.5t-51.5 -32t-36 -53.5t-13.5 -74q0 -38 10.5 -71.5
t30.5 -58t49.5 -38.5t68.5 -14t68.5 14t49.5 38.5t30.5 57t10.5 70.5q0 42 -13 74t-34.5 54t-50.5 33t-60 11z" />
    <glyph glyph-name="q" unicode="q" horiz-adv-x="516" 
d="M246 -11q-39 0 -75 14t-63.5 41t-44.5 67.5t-17 94.5q0 56 17.5 96t45.5 65.5t64 37.5t73 12q56 0 95 -22.5t63 -57.5v71h40v-638h-40v303q-15 -24 -34.5 -40t-40.5 -25.5t-42.5 -14t-40.5 -4.5zM88 207q0 -45 13.5 -78.5t36 -56t51 -34t59.5 -11.5q30 0 58.5 11.5
t50.5 34t35.5 56t13.5 78.5q0 36 -11 67t-31.5 54.5t-50 37t-67.5 13.5q-32 0 -60.5 -11t-50 -32.5t-34.5 -53.5t-13 -75z" />
    <glyph glyph-name="r" unicode="r" horiz-adv-x="260" 
d="M112 408v-53q11 26 34 44t56 18q8 0 20 -2t23 -8l-20 -36q-3 2 -9.5 5t-20.5 3q-31 0 -47.5 -18t-24.5 -43t-9.5 -52.5t-1.5 -46.5v-219h-40v408h40z" />
    <glyph glyph-name="s" unicode="s" horiz-adv-x="334" 
d="M69 109q11 -41 39.5 -61.5t62.5 -20.5q39 0 65 25t26 65q0 17 -5.5 29.5t-17 22.5t-28.5 18.5t-40 17.5q-19 7 -38 16t-34.5 21.5t-25 29t-9.5 40.5q0 47 31 76t78 29q36 0 64.5 -16.5t42.5 -49.5l-34 -18q-11 24 -30 35t-41 11q-17 0 -30 -6t-21.5 -15.5t-13 -21
t-4.5 -22.5q0 -30 21 -43.5t51 -25.5q31 -12 58 -23.5t47 -36.5q13 -16 17 -32.5t4 -33.5q0 -35 -12 -59.5t-31 -40.5t-42.5 -23t-47.5 -7q-51 0 -89.5 28.5t-51.5 79.5z" />
    <glyph glyph-name="t" unicode="t" horiz-adv-x="194" 
d="M30 408h45v146h40v-146h71v-38h-71v-370h-40v370h-45v38z" />
    <glyph glyph-name="u" unicode="u" horiz-adv-x="438" 
d="M72 408h40v-246q0 -28 4.5 -52.5t16.5 -43t33 -29t53 -10.5t53 10.5t33 29t16.5 43t4.5 52.5v246h40v-257q0 -72 -35 -117t-112 -45t-112 45t-35 117v257z" />
    <glyph glyph-name="v" unicode="v" horiz-adv-x="390" 
d="M52 408l144 -339l142 339h44l-186 -433l-188 433h44z" />
    <glyph glyph-name="w" unicode="w" horiz-adv-x="672" 
d="M52 408l141 -337l141 362l141 -362l145 337h44l-189 -433l-141 362l-141 -362l-185 433h44z" />
    <glyph glyph-name="x" unicode="x" horiz-adv-x="400" 
d="M173 214l-151 194h49l129 -168l127 168h49l-148 -194l164 -214h-49l-143 188l-143 -188h-49z" />
    <glyph glyph-name="y" unicode="y" horiz-adv-x="428" 
d="M54 408l171 -363l149 363h46l-268 -638h-46l96 223l-194 415h46z" />
    <glyph glyph-name="z" unicode="z" horiz-adv-x="452" 
d="M104 38h328v-38h-414l334 370h-282v38h364z" />
    <glyph glyph-name="braceleft" unicode="{" horiz-adv-x="278" 
d="M40 299q21 6 32.5 16t17.5 23.5t7.5 29t1.5 31.5v194q0 67 29 101.5t100 34.5h12v-40q-56 0 -76.5 -22.5t-20.5 -76.5v-194q0 -46 -13 -72t-51 -40q19 -7 31.5 -19t20 -27.5t10 -33.5t2.5 -36v-182q0 -29 4 -49t14.5 -32.5t29.5 -18.5t49 -6v-40h-9q-41 0 -66.5 10
t-40 29.5t-20 48t-5.5 66.5v176q0 13 -1 28.5t-7 29.5t-18 25.5t-33 16.5v29v0z" />
    <glyph glyph-name="bar" unicode="|" 
d="M230 750h40v-1000h-40v1000z" />
    <glyph glyph-name="braceright" unicode="}" horiz-adv-x="278" 
d="M50 729q71 0 100 -34.5t29 -101.5v-194q0 -16 1.5 -31.5t7.5 -29t17.5 -23.5t32.5 -16v-29q-21 -5 -33 -16.5t-18 -25.5t-7 -29.5t-1 -28.5v-176q0 -38 -5.5 -66.5t-20 -48t-40.5 -29.5t-66 -10h-9v40q30 0 49 5.5t29.5 18.5t14.5 33t4 49v182q0 18 2.5 36t10 33.5
t19.5 27.5t32 19q-38 14 -51 40t-13 72v194q0 55 -20.5 77t-76.5 22v40h12z" />
    <glyph glyph-name="asciitilde" unicode="~" 
d="M12 211q10 20 22.5 38.5t29 32.5t36.5 22.5t44 8.5q28 0 56 -12.5t57 -27.5q22 -11 37.5 -18.5t27 -11.5t20.5 -5.5t18 -1.5q38 0 61 23.5t40 54.5l27 -16q-20 -41 -52.5 -70.5t-81.5 -29.5q-26 0 -57.5 12.5t-80.5 39.5q-17 9 -34.5 17t-40.5 8q-38 0 -62.5 -24
t-39.5 -56z" />
    <glyph glyph-name="uni00A0" unicode="&#xa0;" horiz-adv-x="233" 
 />
    <glyph glyph-name="exclamdown" unicode="&#xa1;" horiz-adv-x="260" 
d="M108 -230v548h44v-548h-44zM130 370q-16 0 -26.5 10.5t-10.5 26.5t10.5 26.5t26.5 10.5t26.5 -10.5t10.5 -26.5t-10.5 -26.5t-26.5 -10.5z" />
    <glyph glyph-name="cent" unicode="&#xa2;" horiz-adv-x="548" 
d="M95 338q0 43 13.5 80t38 65t59 46t75.5 23v103h38v-102q8 0 21 -1.5t30 -6.5t37 -15t41 -28v-53q-21 23 -53.5 43.5t-75.5 22.5v-350q9 0 23.5 2.5t32 9.5t37.5 21.5t41 38.5v-54q-25 -22 -58.5 -38t-75.5 -18v-114h-38v114q-42 6 -76 24t-58.5 45.5t-38 63.5t-13.5 78z
M137 339q0 -27 8.5 -55.5t26.5 -53t45 -42t64 -23.5v349q-38 -7 -65.5 -25t-45 -42t-25.5 -52.5t-8 -55.5z" />
    <glyph glyph-name="sterling" unicode="&#xa3;" horiz-adv-x="548" 
d="M69 22q18 20 36 31.5t34 17t28.5 7t20.5 1.5q20 21 35 50t15 56q0 22 -8 46.5t-19 41.5h-114v40h98l-21 35q-17 28 -25.5 43.5t-14.5 26.5q-11 20 -17 40.5t-6 43.5q0 37 14 69t38.5 54.5t57 35.5t69.5 13q40 0 71.5 -14.5t53 -39.5t33 -59t11.5 -72h-44q0 29 -8 55
t-24 46t-39.5 32t-54.5 12q-27 0 -51 -9.5t-42 -26.5t-28.5 -40.5t-10.5 -50.5q0 -26 9 -49t18 -40q12 -23 24 -42t22 -35l17 -28h121v-40h-108q11 -21 16.5 -44.5t5.5 -43.5q0 -21 -9 -50t-37 -65l65 -22q16 -5 34 -11t38 -6q18 0 33 6.5t27 16.5t20.5 22.5t13.5 23.5
l36 -22q-8 -16 -20.5 -32t-28.5 -29t-35 -21.5t-41 -8.5q-26 0 -57 10.5t-63 21.5q-25 8 -41.5 12.5t-32.5 4.5q-26 0 -48 -13t-43 -33l-24 32v0z" />
    <glyph glyph-name="currency" unicode="&#xa4;" horiz-adv-x="548" 
d="M13 583l24 24l90 -89q38 35 78 45.5t69 10.5t69 -10.5t78 -45.5l90 89l24 -24l-90 -90q33 -36 43.5 -74t10.5 -70q0 -28 -9.5 -64t-45.5 -79l91 -91l-24 -24l-91 91q-21 -19 -41.5 -30t-39.5 -16.5t-35 -7t-28 -1.5q-54 0 -89.5 17.5t-56.5 35.5l-90 -90l-24 25l90 89
q-17 19 -28 39t-17 39t-8.5 36.5t-2.5 31.5q0 39 13 75.5t40 67.5zM274 538q-39 0 -72.5 -15t-59 -40.5t-40 -59.5t-14.5 -73t14.5 -73t40 -59.5t59 -40t72.5 -14.5t73 14.5t59.5 40t40 59.5t14.5 73t-14.5 73t-40 59.5t-59.5 40.5t-73 15z" />
    <glyph glyph-name="yen" unicode="&#xa5;" horiz-adv-x="548" 
d="M31 667h51l190 -335l194 335h51l-139 -236h122v-40h-145l-61 -103h206v-40h-207v-248h-44v248h-200v40h198l-59 103h-139v40h116z" />
    <glyph glyph-name="brokenbar" unicode="&#xa6;" 
d="M230 750h40v-360h-40v360zM230 -250v360h40v-360h-40z" />
    <glyph glyph-name="section" unicode="&#xa7;" horiz-adv-x="548" 
d="M254 120q-33 9 -61 21.5t-49 32t-32.5 46.5t-11.5 66q0 57 29.5 100t83.5 63q-44 20 -70 53t-26 83q0 36 12 65t33.5 49t51 30.5t65.5 10.5q85 0 124 -45.5t39 -126.5h-44v9q0 57 -28.5 90t-87.5 33q-51 0 -85 -27t-34 -81q0 -20 7 -39.5t24 -36.5q7 -6 21 -14t30 -15.5
t30.5 -13.5t22.5 -8q34 -10 62 -24t47.5 -34t30 -48.5t10.5 -66.5q0 -55 -26.5 -94t-77.5 -59q93 -44 93 -144q0 -77 -44 -116t-119 -39q-86 0 -122 45t-36 128h44q0 -30 5.5 -55t19 -42t36 -26.5t55.5 -9.5q51 0 83 29.5t32 80.5q0 33 -11.5 54.5t-30 35.5t-43.5 23t-52 17
zM146 291q0 -37 11.5 -59t22.5 -32q19 -18 45.5 -27.5t48.5 -9.5q28 0 51.5 10t40.5 27t26.5 41t9.5 51q0 58 -35 93.5t-93 35.5t-93 -36.5t-35 -93.5z" />
    <glyph glyph-name="dieresis" unicode="&#xa8;" 
d="M333 490q-15 0 -25.5 10.5t-10.5 25.5t10.5 25.5t25.5 10.5t25.5 -10.5t10.5 -25.5t-10.5 -25.5t-25.5 -10.5zM131 526q0 15 10.5 25.5t25.5 10.5t25.5 -10.5t10.5 -25.5t-10.5 -25.5t-25.5 -10.5t-25.5 10.5t-10.5 25.5z" />
    <glyph glyph-name="copyright" unicode="&#xa9;" horiz-adv-x="740" 
d="M370 -10q-71 0 -133.5 27t-109 73.5t-73.5 109t-27 133.5t27 134t73.5 109.5t109 73.5t133.5 27t133.5 -27t109 -73.5t73.5 -109.5t27 -134t-27 -133.5t-73.5 -109t-109 -73.5t-133.5 -27zM370 647q-64 0 -120 -25t-98 -67.5t-66.5 -100t-24.5 -121.5q0 -65 24.5 -121.5
t66.5 -99.5t98.5 -67.5t119.5 -24.5t119.5 24.5t98.5 67.5t66.5 99.5t24.5 121.5q0 64 -24.5 121.5t-66.5 100t-98 67.5t-120 25zM384 134q-42 0 -78 14.5t-62.5 40.5t-41.5 62t-15 78q0 43 15 79t41.5 62t62.5 40.5t78 14.5q10 0 24.5 -1.5t31.5 -7t35.5 -15.5t37.5 -27
v-53q-8 11 -20 23t-28.5 22t-36.5 16.5t-45 6.5q-35 0 -64 -12t-50 -33.5t-32.5 -51t-11.5 -64.5q0 -34 12 -63t33.5 -50t50.5 -33t63 -12q35 0 69 16t60 49v-52q-40 -32 -73.5 -40.5t-55.5 -8.5z" />
    <glyph glyph-name="ordfeminine" unicode="&#xaa;" horiz-adv-x="338" 
d="M30 527q0 63 35.5 101.5t99.5 38.5q31 0 57.5 -13t43.5 -39v46h26v-268h-26v48q-17 -26 -44 -40t-59 -14q-63 0 -98 39.5t-35 100.5zM163 643q-52 0 -78.5 -33t-26.5 -82q0 -48 27 -82.5t78 -34.5q25 0 44.5 9.5t33 25.5t20.5 37.5t7 45.5q0 48 -27.5 81t-77.5 33z
M37 325h255v-34h-255v34z" />
    <glyph glyph-name="guillemotleft" unicode="&#xab;" horiz-adv-x="348" 
d="M188 81l-26 -24l-130 150l130 150l26 -24l-108 -126zM294 81l-26 -24l-130 150l130 150l26 -24l-108 -126z" />
    <glyph glyph-name="logicalnot" unicode="&#xac;" 
d="M427 0v229h-394v38h434v-267h-40z" />
    <glyph glyph-name="uni00AD" unicode="&#xad;" horiz-adv-x="300" 
d="M50 230h200v-46h-200v46z" />
    <glyph glyph-name="registered" unicode="&#xae;" horiz-adv-x="740" 
d="M370 -10q-71 0 -133.5 27t-109 73.5t-73.5 109t-27 133.5t27 134t73.5 109.5t109 73.5t133.5 27t133.5 -27t109 -73.5t73.5 -109.5t27 -134t-27 -133.5t-73.5 -109t-109 -73.5t-133.5 -27zM370 647q-64 0 -120 -25t-98 -67.5t-66.5 -100t-24.5 -121.5q0 -65 24.5 -121.5
t66.5 -99.5t98.5 -67.5t119.5 -24.5t119.5 24.5t98.5 67.5t66.5 99.5t24.5 121.5q0 64 -24.5 121.5t-66.5 100t-98 67.5t-120 25zM297 505h62q60 0 89 -22.5t29 -78.5q0 -44 -29.5 -71t-71.5 -27l119 -171h-40l-117 171h-7v-171h-34v370zM331 474v-137h34q7 0 20 1.5t25.5 8
t22 20t9.5 38.5t-8.5 39t-21.5 21t-27 8t-25 1h-29z" />
    <glyph glyph-name="macron" unicode="&#xaf;" 
d="M115 532h270v-39h-270v39z" />
    <glyph glyph-name="degree" unicode="&#xb0;" 
d="M115 536q0 28 10 52.5t27.5 41.5t42.5 27t55 10t55 -10t42.5 -27t27.5 -41.5t10 -52.5q0 -29 -10 -53t-27.5 -41t-42.5 -27t-55 -10t-55 10t-42.5 27t-27.5 41t-10 53zM147 536q0 -44 27.5 -73.5t75.5 -29.5t75.5 29.5t27.5 73.5t-27.5 73.5t-75.5 29.5t-75.5 -29.5
t-27.5 -73.5z" />
    <glyph glyph-name="plusminus" unicode="&#xb1;" 
d="M230 377v181h40v-181h197v-38h-197v-181h-40v181h-197v38h197zM33 76v38h434v-38h-434z" />
    <glyph glyph-name="twosuperior" unicode="&#xb2;" horiz-adv-x="330" 
d="M37 267l146 169q23 27 42.5 56t19.5 67q0 33 -21 55t-59 22q-37 0 -60 -22.5t-23 -59.5h-36q0 54 33.5 86t86.5 32t86 -32t33 -81q0 -37 -17.5 -68t-40.5 -58l-110 -130h166v-36h-246z" />
    <glyph glyph-name="threesuperior" unicode="&#xb3;" horiz-adv-x="330" 
d="M84 365q2 -30 22.5 -48.5t51.5 -18.5q32 0 55 24t23 60q0 21 -8 35.5t-21.5 23.5t-31 12.5t-35.5 3.5v36q17 0 33.5 5.5t29 15.5t20.5 24.5t8 32.5q0 26 -16.5 45.5t-48.5 19.5q-28 0 -47.5 -17.5t-19.5 -46.5h-36q2 45 30 72.5t73 27.5q50 0 77.5 -29.5t27.5 -70.5
q0 -27 -14 -54.5t-49 -41.5q33 -10 50.5 -36.5t17.5 -60.5q0 -26 -9 -47.5t-25 -37t-37.5 -24t-46.5 -8.5q-22 0 -42 7.5t-35 21.5t-24 32.5t-9 41.5h36z" />
    <glyph glyph-name="acute" unicode="&#xb4;" 
d="M348 595l-105 -128l-30 16l92 137z" />
    <glyph glyph-name="uni00B5" unicode="&#xb5;" 
d="M72 408h40v-207q0 -37 6 -71.5t33 -62.5q20 -21 45 -30.5t48 -9.5q28 0 54 12t46 35.5t32 58.5t12 80v195h40v-408h-40v90q-19 -49 -55.5 -75t-90.5 -26q-12 0 -28 2.5t-34 10.5t-35.5 24.5t-32.5 43.5v-300h-40v638z" />
    <glyph glyph-name="uni00B5" unicode="&#x3bc;" 
d="M72 408h40v-207q0 -37 6 -71.5t33 -62.5q20 -21 45 -30.5t48 -9.5q28 0 54 12t46 35.5t32 58.5t12 80v195h40v-408h-40v90q-19 -49 -55.5 -75t-90.5 -26q-12 0 -28 2.5t-34 10.5t-35.5 24.5t-32.5 43.5v-300h-40v638z" />
    <glyph glyph-name="paragraph" unicode="&#xb6;" horiz-adv-x="531" 
d="M212 311q-42 0 -78 11t-61.5 33t-40 55t-14.5 77q0 48 17 82.5t46 56t68 31.5t83 10h231v-33h-53v-729h-36v729h-117v-729h-36v406h-9v0z" />
    <glyph glyph-name="periodcentered" unicode="&#xb7;" horiz-adv-x="200" 
d="M52 340q0 20 14 34t34 14t34 -14t14 -34t-14 -34t-34 -14t-34 14t-14 34z" />
    <glyph glyph-name="cedilla" unicode="&#xb8;" 
d="M314 -70l-100 -124l-28 16l82 128z" />
    <glyph glyph-name="onesuperior" unicode="&#xb9;" horiz-adv-x="330" 
d="M152 631h-62l12 36h88v-400h-38v364z" />
    <glyph glyph-name="ordmasculine" unicode="&#xba;" horiz-adv-x="342" 
d="M170 387q-30 0 -55.5 10.5t-44.5 29t-29.5 44t-10.5 55.5q0 32 10.5 58t30 44.5t45.5 28.5t58 10q30 0 55 -10.5t43.5 -29.5t29 -44t10.5 -55q0 -63 -39.5 -102t-102.5 -39zM170 643q-24 0 -44.5 -9t-35.5 -25t-23.5 -37t-8.5 -45t8.5 -45t23 -36.5t35 -25t44.5 -9.5
q50 0 82.5 33t32.5 83t-31.5 83t-82.5 33zM37 325h267v-34h-267v34z" />
    <glyph glyph-name="guillemotright" unicode="&#xbb;" horiz-adv-x="348" 
d="M54 333l26 24l130 -150l-130 -150l-26 24l108 126zM160 333l26 24l130 -150l-130 -150l-26 24l108 126z" />
    <glyph glyph-name="onequarter" unicode="&#xbc;" horiz-adv-x="760" 
d="M680 413v-301h56v-36h-56v-76h-38v76h-204zM582 682l30 -16l-394 -681l-30 16zM90 631l12 36h88v-400h-38v364h-62zM508 112h134v190z" />
    <glyph glyph-name="onehalf" unicode="&#xbd;" horiz-adv-x="760" 
d="M613 169q23 27 42.5 56t19.5 67q0 33 -21 55t-59 22q-37 0 -60 -22.5t-23 -59.5h-36q0 54 33.5 86t86.5 32t86 -32t33 -81q0 -37 -17.5 -68t-40.5 -58l-110 -130h166v-36h-246zM158 1l394 681l30 -16l-394 -681zM90 631l12 36h88v-400h-38v364h-62z" />
    <glyph glyph-name="threequarters" unicode="&#xbe;" horiz-adv-x="760" 
d="M438 76l242 337v-301h56v-36h-56v-76h-38v76h-204zM84 365q2 -30 22.5 -48.5t51.5 -18.5q32 0 55 24t23 60q0 21 -8 35.5t-21.5 23.5t-31 12.5t-35.5 3.5v36q17 0 33.5 5.5t29 15.5t20.5 24.5t8 32.5q0 26 -16.5 45.5t-48.5 19.5q-28 0 -47.5 -17.5t-19.5 -46.5h-36
q2 45 30 72.5t73 27.5q50 0 77.5 -29.5t27.5 -70.5q0 -27 -14 -54.5t-49 -41.5q33 -10 50.5 -36.5t17.5 -60.5q0 -26 -9 -47.5t-25 -37t-37.5 -24t-46.5 -8.5q-22 0 -42 7.5t-35 21.5t-24 32.5t-9 41.5h36zM602 682l30 -16l-394 -681l-30 16zM642 112v190l-134 -190h134z
" />
    <glyph glyph-name="questiondown" unicode="&#xbf;" horiz-adv-x="466" 
d="M232 -242q-75 0 -116.5 44t-41.5 118q0 65 32.5 102.5t92.5 54.5q26 8 51.5 14t43.5 20q11 9 22.5 27t11.5 47q0 43 -26.5 70t-69.5 27q-53 0 -74.5 -30t-21.5 -78h-40q0 64 33 105t102 41q31 0 56.5 -9.5t44.5 -27.5t29.5 -43.5t10.5 -56.5q0 -32 -12 -57t-32 -42
q-14 -11 -35.5 -20.5t-56.5 -17.5q-28 -7 -49.5 -15.5t-36.5 -22t-22.5 -34.5t-7.5 -52q0 -55 29 -89.5t86 -34.5q58 0 85.5 34.5t27.5 89.5q0 20 -7 40h44q7 -22 7 -46q0 -32 -8.5 -61t-35.5 -55q-20 -18 -49 -30t-67 -12zM232 370q-16 0 -26.5 10.5t-10.5 26.5t10.5 26.5
t26.5 10.5t26.5 -10.5t10.5 -26.5t-10.5 -26.5t-26.5 -10.5z" />
    <glyph glyph-name="Agrave" unicode="&#xc0;" horiz-adv-x="586" 
d="M14 0l281 687l277 -687h-48l-89 219h-284l-89 -219h-48zM419 259l-125 316l-127 -316h252zM225 865l130 -125l-24 -22l-137 115z" />
    <glyph glyph-name="Aacute" unicode="&#xc1;" horiz-adv-x="586" 
d="M14 0l281 687l277 -687h-48l-89 219h-284l-89 -219h-48zM419 259l-125 316l-127 -316h252zM361 865l31 -32l-137 -115l-24 22z" />
    <glyph glyph-name="Acircumflex" unicode="&#xc2;" horiz-adv-x="586" 
d="M14 0l281 687l277 -687h-48l-89 219h-284l-89 -219h-48zM167 259h252l-125 316zM168 743l126 113l127 -113l-25 -25l-102 87l-101 -87z" />
    <glyph glyph-name="Atilde" unicode="&#xc3;" horiz-adv-x="586" 
d="M14 0l281 687l277 -687h-48l-89 219h-284l-89 -219h-48zM167 259h252l-125 316zM167 738q8 26 27 41.5t46 15.5q18 0 32.5 -6t27 -13t24.5 -13t27 -6q17 0 28.5 14.5t13.5 25.5l26 -20q-6 -23 -23 -40t-43 -17q-17 0 -30.5 6t-26.5 13t-27 13t-32 6q-15 0 -27 -12
t-15 -27z" />
    <glyph glyph-name="Adieresis" unicode="&#xc4;" horiz-adv-x="586" 
d="M14 0l281 687l277 -687h-48l-89 219h-284l-89 -219h-48zM167 259h252l-125 316zM348 780q0 16 11 27t27 11t27 -11t11 -27t-11 -27t-27 -11t-27 11t-11 27zM162 780q0 16 11 27t27 11t27 -11t11 -27t-11 -27t-27 -11t-27 11t-11 27z" />
    <glyph glyph-name="Aring" unicode="&#xc5;" horiz-adv-x="586" 
d="M14 0l281 687l277 -687h-48l-89 219h-284l-89 -219h-48zM167 259h252l-125 316zM293 707q-33 0 -56.5 23.5t-23.5 56.5t23.5 56.5t56.5 23.5t56.5 -23.5t23.5 -56.5t-23.5 -56.5t-56.5 -23.5zM293 828q-18 0 -29.5 -11.5t-11.5 -29.5t11.5 -29.5t29.5 -11.5t29.5 11.5
t11.5 29.5t-11.5 29.5t-29.5 11.5z" />
    <glyph glyph-name="AE" unicode="&#xc6;" horiz-adv-x="852" 
d="M283 667h289l17 -40h-275l99 -242h268l17 -40h-268l124 -305h273l18 -40h-322l-89 219h-285l-87 -219h-48zM165 259h252l-127 314z" />
    <glyph glyph-name="Ccedilla" unicode="&#xc7;" horiz-adv-x="678" 
d="M402 -11q-75 0 -139 27.5t-110.5 74.5t-72.5 109t-26 132q0 72 27 134.5t74 109t110 73.5t135 27q48 0 86 -11t66 -25.5t46 -29t26 -21.5v-58q-43 51 -101.5 78t-123.5 27q-64 0 -119 -24t-95 -65.5t-62.5 -97.5t-22.5 -119q0 -74 28 -130.5t71.5 -94.5t96.5 -57t104 -19
q25 0 53.5 5.5t58 17.5t58 31t54.5 47v-58q-51 -45 -109.5 -64t-112.5 -19zM298 -184l92 134l46 -26l-108 -126z" />
    <glyph glyph-name="Egrave" unicode="&#xc8;" horiz-adv-x="464" 
d="M90 667h320v-40h-276v-242h270v-40h-270v-305h276v-40h-320v667zM175 865l130 -125l-24 -22l-137 115z" />
    <glyph glyph-name="Eacute" unicode="&#xc9;" horiz-adv-x="464" 
d="M90 667h320v-40h-276v-242h270v-40h-270v-305h276v-40h-320v667zM200 740l130 125l31 -32l-137 -115z" />
    <glyph glyph-name="Ecircumflex" unicode="&#xca;" horiz-adv-x="464" 
d="M90 667h320v-40h-276v-242h270v-40h-270v-305h276v-40h-320v667zM251 856l127 -113l-25 -25l-102 87l-101 -87l-25 25z" />
    <glyph glyph-name="Edieresis" unicode="&#xcb;" horiz-adv-x="464" 
d="M90 0v667h320v-40h-276v-242h270v-40h-270v-305h276v-40h-320zM343 742q-16 0 -27 11t-11 27t11 27t27 11t27 -11t11 -27t-11 -27t-27 -11zM157 742q-16 0 -27 11t-11 27t11 27t27 11t27 -11t11 -27t-11 -27t-27 -11z" />
    <glyph glyph-name="Igrave" unicode="&#xcc;" horiz-adv-x="224" 
d="M134 667v-667h-44v667h44zM6 833l31 32l130 -125l-24 -22z" />
    <glyph glyph-name="Iacute" unicode="&#xcd;" horiz-adv-x="224" 
d="M134 667v-667h-44v667h44zM78 718l-24 22l130 125l31 -32z" />
    <glyph glyph-name="Icircumflex" unicode="&#xce;" horiz-adv-x="224" 
d="M134 667v-667h-44v667h44zM32 722l-35 28l115 89l115 -89l-35 -27l-80 59z" />
    <glyph glyph-name="Idieresis" unicode="&#xcf;" horiz-adv-x="224" 
d="M90 0v667h44v-667h-44zM176 742q-16 0 -27 11t-11 27t11 27t27 11t27 -11t11 -27t-11 -27t-27 -11zM10 780q0 16 11 27t27 11t27 -11t11 -27t-11 -27t-27 -11t-27 11t-11 27z" />
    <glyph glyph-name="Eth" unicode="&#xd0;" horiz-adv-x="618" 
d="M0 345v40h90v282h132q22 0 51.5 -2.5t62 -12.5t66.5 -28.5t66 -49.5q27 -27 45 -57.5t29.5 -62t16.5 -63t5 -58.5t-5 -58t-16.5 -62.5t-29.5 -62t-45 -57.5q-32 -32 -66 -50t-66.5 -28t-62 -12.5t-51.5 -2.5h-132v345h-90zM134 345v-305h87q66 0 120.5 21.5t94 60
t61 92.5t21.5 119q0 64 -22 118t-61 93t-93.5 61t-120.5 22h-87v-242h136v-40h-136z" />
    <glyph glyph-name="Ntilde" unicode="&#xd1;" horiz-adv-x="784" 
d="M90 674l560 -586v579h44v-684l-560 586v-569h-44v674zM262 739q10 21 26 40.5t42 19.5q14 0 29 -4.5t35 -12.5l32.5 -13t26.5 -5q15 0 25.5 12t14.5 26l29 -22q-8 -25 -27 -42.5t-47 -17.5q-12 0 -25 4.5t-33 12.5q-14 6 -29 12t-29 6q-17 0 -26 -12t-15 -26z" />
    <glyph glyph-name="Ograve" unicode="&#xd2;" horiz-adv-x="800" 
d="M54 332q0 72 26.5 134.5t73 109t110 73.5t136.5 27t136.5 -27t110 -73.5t73 -109t26.5 -134.5t-26.5 -134.5t-73 -109t-110 -73t-136.5 -26.5q-74 0 -137 26.5t-109.5 73t-73 109t-26.5 134.5zM400 636q-65 0 -119.5 -23.5t-95 -64.5t-63 -96.5t-22.5 -119.5t22.5 -119
t63 -96t95 -64.5t119.5 -23.5q64 0 119 23.5t95.5 64.5t63 96t22.5 119t-22.5 119.5t-63 96.5t-95.5 64.5t-119 23.5zM321 865l130 -125l-24 -22l-137 115z" />
    <glyph glyph-name="Oacute" unicode="&#xd3;" horiz-adv-x="800" 
d="M54 332q0 72 26.5 134.5t73 109t110 73.5t136.5 27t136.5 -27t110 -73.5t73 -109t26.5 -134.5t-26.5 -134.5t-73 -109t-110 -73t-136.5 -26.5q-74 0 -137 26.5t-109.5 73t-73 109t-26.5 134.5zM100 332q0 -64 22.5 -119t63 -96t95 -64.5t119.5 -23.5q64 0 119 23.5
t95.5 64.5t63 96t22.5 119t-22.5 119.5t-63 96.5t-95.5 64.5t-119 23.5q-65 0 -119.5 -23.5t-95 -64.5t-63 -96.5t-22.5 -119.5zM354 740l130 125l31 -32l-137 -115z" />
    <glyph glyph-name="Ocircumflex" unicode="&#xd4;" horiz-adv-x="800" 
d="M54 332q0 72 26.5 134.5t73 109t110 73.5t136.5 27t136.5 -27t110 -73.5t73 -109t26.5 -134.5t-26.5 -134.5t-73 -109t-110 -73t-136.5 -26.5q-74 0 -137 26.5t-109.5 73t-73 109t-26.5 134.5zM100 332q0 -64 22.5 -119t63 -96t95 -64.5t119.5 -23.5q64 0 119 23.5
t95.5 64.5t63 96t22.5 119t-22.5 119.5t-63 96.5t-95.5 64.5t-119 23.5q-65 0 -119.5 -23.5t-95 -64.5t-63 -96.5t-22.5 -119.5zM274 743l126 113l127 -113l-25 -25l-102 87l-101 -87z" />
    <glyph glyph-name="Otilde" unicode="&#xd5;" horiz-adv-x="800" 
d="M54 332q0 72 26.5 134.5t73 109t110 73.5t136.5 27t136.5 -27t110 -73.5t73 -109t26.5 -134.5t-26.5 -134.5t-73 -109t-110 -73t-136.5 -26.5q-74 0 -137 26.5t-109.5 73t-73 109t-26.5 134.5zM400 636q-65 0 -119.5 -23.5t-95 -64.5t-63 -96.5t-22.5 -119.5t22.5 -119
t63 -96t95 -64.5t119.5 -23.5q64 0 119 23.5t95.5 64.5t63 96t22.5 119t-22.5 119.5t-63 96.5t-95.5 64.5t-119 23.5zM273 738q8 26 27 41.5t46 15.5q18 0 32.5 -6t27 -13t24.5 -13t27 -6q17 0 28.5 14.5t13.5 25.5l26 -20q-6 -23 -23 -40t-43 -17q-17 0 -30.5 6t-26.5 13
t-27 13t-32 6q-15 0 -27 -12t-15 -27z" />
    <glyph glyph-name="Odieresis" unicode="&#xd6;" horiz-adv-x="800" 
d="M54 332q0 72 26.5 134.5t73 109t110 73.5t136.5 27t136.5 -27t110 -73.5t73 -109t26.5 -134.5t-26.5 -134.5t-73 -109t-110 -73t-136.5 -26.5q-74 0 -137 26.5t-109.5 73t-73 109t-26.5 134.5zM400 636q-65 0 -119.5 -23.5t-95 -64.5t-63 -96.5t-22.5 -119.5t22.5 -119
t63 -96t95 -64.5t119.5 -23.5q64 0 119 23.5t95.5 64.5t63 96t22.5 119t-22.5 119.5t-63 96.5t-95.5 64.5t-119 23.5zM455 780q0 16 11 27t27 11t27 -11t11 -27t-11 -27t-27 -11t-27 11t-11 27zM269 780q0 16 11 27t27 11t27 -11t11 -27t-11 -27t-27 -11t-27 11t-11 27z" />
    <glyph glyph-name="multiply" unicode="&#xd7;" 
d="M223 329l-156 156l27 27l156 -156l156 156l27 -27l-156 -156l156 -156l-27 -27l-156 156l-156 -156l-27 27z" />
    <glyph glyph-name="Oslash" unicode="&#xd8;" horiz-adv-x="800" 
d="M54 332q0 72 27 134.5t73.5 109t109.5 73.5t136 27q46 0 83 -9t65.5 -22.5t49 -28t33.5 -26.5l78 79l27 -27l-78 -78q49 -55 68.5 -115t19.5 -117q0 -72 -27 -134.5t-73.5 -109t-109.5 -73t-136 -26.5q-46 0 -83 9t-65.5 22t-49 28t-33.5 26l-78 -79l-27 26l79 79
q-13 14 -28.5 35.5t-29 50t-22.5 65t-9 81.5zM400 636q-65 0 -119.5 -23.5t-95 -64.5t-63 -96.5t-22.5 -119.5q0 -41 8 -73t19 -57t24 -43t22 -29l428 431q-11 10 -28.5 23t-42 24.5t-57 19.5t-73.5 8zM199 103q10 -9 28 -21.5t42.5 -24.5t57 -20t73.5 -8q64 0 119 23.5
t95 64.5t63 96t23 119q0 36 -6.5 66t-16.5 55t-23 45t-26 35z" />
    <glyph glyph-name="Ugrave" unicode="&#xd9;" horiz-adv-x="634" 
d="M90 667h44v-417q0 -48 4.5 -81t23.5 -63q15 -24 35 -39t41 -23.5t42 -11.5t37 -3t37 3t42 11.5t41 23.5t35 39q19 30 23.5 63t4.5 81v417h44v-417q0 -27 -1 -50.5t-5 -44t-11.5 -39t-20.5 -37.5q-19 -27 -42.5 -44.5t-48.5 -27.5t-50.5 -14t-47.5 -4q-23 0 -48 4t-50 14
t-48.5 27.5t-42.5 44.5q-26 37 -32 76.5t-6 94.5v417zM240 865l130 -125l-24 -22l-137 115z" />
    <glyph glyph-name="Uacute" unicode="&#xda;" horiz-adv-x="634" 
d="M134 667v-417q0 -48 4.5 -81t23.5 -63q15 -24 35 -39t41 -23.5t42 -11.5t37 -3t37 3t42 11.5t41 23.5t35 39q19 30 23.5 63t4.5 81v417h44v-417q0 -27 -1 -50.5t-5 -44t-11.5 -39t-20.5 -37.5q-19 -27 -42.5 -44.5t-48.5 -27.5t-50.5 -14t-47.5 -4q-23 0 -48 4t-50 14
t-48.5 27.5t-42.5 44.5q-26 37 -32 76.5t-6 94.5v417h44zM269 740l130 125l31 -32l-137 -115z" />
    <glyph glyph-name="Ucircumflex" unicode="&#xdb;" horiz-adv-x="634" 
d="M134 667v-417q0 -48 4.5 -81t23.5 -63q15 -24 35 -39t41 -23.5t42 -11.5t37 -3t37 3t42 11.5t41 23.5t35 39q19 30 23.5 63t4.5 81v417h44v-417q0 -27 -1 -50.5t-5 -44t-11.5 -39t-20.5 -37.5q-19 -27 -42.5 -44.5t-48.5 -27.5t-50.5 -14t-47.5 -4q-23 0 -48 4t-50 14
t-48.5 27.5t-42.5 44.5q-26 37 -32 76.5t-6 94.5v417h44zM187 749l130 90l130 -90l-34 -27l-96 64l-96 -64z" />
    <glyph glyph-name="Udieresis" unicode="&#xdc;" horiz-adv-x="634" 
d="M90 667h44v-417q0 -48 4.5 -81t23.5 -63q15 -24 35 -39t41 -23.5t42 -11.5t37 -3t37 3t42 11.5t41 23.5t35 39q19 30 23.5 63t4.5 81v417h44v-417q0 -27 -1 -50.5t-5 -44t-11.5 -39t-20.5 -37.5q-19 -27 -42.5 -44.5t-48.5 -27.5t-50.5 -14t-47.5 -4q-23 0 -48 4t-50 14
t-48.5 27.5t-42.5 44.5q-26 37 -32 76.5t-6 94.5v417zM410 742q-16 0 -27 11t-11 27t11 27t27 11t27 -11t11 -27t-11 -27t-27 -11zM224 742q-16 0 -27 11t-11 27t11 27t27 11t27 -11t11 -27t-11 -27t-27 -11z" />
    <glyph glyph-name="Yacute" unicode="&#xdd;" horiz-adv-x="516" 
d="M14 667h50l192 -337l196 337h50l-225 -382v-285h-44v285zM341 865l31 -32l-137 -115l-24 22z" />
    <glyph glyph-name="Thorn" unicode="&#xde;" horiz-adv-x="446" 
d="M90 0v667h44v-120h85q41 0 76.5 -11t62 -33t41.5 -54.5t15 -75.5q0 -42 -14 -74.5t-39.5 -55t-61.5 -34.5t-79 -12h-86v-197h-44zM134 507v-270h88q66 0 106 36t40 99t-40 99t-113 36h-81z" />
    <glyph glyph-name="germandbls" unicode="&#xdf;" horiz-adv-x="481" 
d="M4 370v38h69v164q0 37 8 68t25 53.5t45 35t68 12.5q72 0 107.5 -44t35.5 -113q0 -46 -17.5 -82t-60.5 -56q72 -24 115.5 -78t43.5 -132q0 -51 -18 -93.5t-49 -74t-74 -50.5t-92 -23v40q40 3 74.5 18.5t60.5 40.5t41 59.5t15 75.5q0 42 -14.5 76.5t-40 60t-60.5 41
t-76 18.5v35q53 2 81.5 34.5t28.5 84.5q0 26 -5.5 48.5t-17.5 39.5t-32 26.5t-48 9.5q-29 0 -49 -9.5t-32 -26.5t-17.5 -39.5t-5.5 -49.5v-578h-40v370h-69z" />
    <glyph glyph-name="agrave" unicode="&#xe0;" horiz-adv-x="516" 
d="M245 -11q-40 0 -76 14.5t-63.5 42.5t-43.5 68t-16 90q0 47 14.5 86.5t40.5 67.5t62.5 43.5t81.5 15.5q48 0 89 -19t70 -61v71h40v-408h-40v73q-31 -47 -75 -65.5t-84 -18.5zM88 207q0 -35 10.5 -67t31 -57.5t50 -40.5t68.5 -15q38 0 67.5 15t49.5 40t30.5 57.5t10.5 67.5
q0 45 -15 77.5t-38.5 53.5t-51.5 31t-54 10q-30 0 -59 -11.5t-51 -33t-35.5 -53.5t-13.5 -74zM176 627l130 -125l-24 -22l-137 115z" />
    <glyph glyph-name="aacute" unicode="&#xe1;" horiz-adv-x="516" 
d="M245 -11q-40 0 -76 14.5t-63.5 42.5t-43.5 68t-16 90q0 47 14.5 86.5t40.5 67.5t62.5 43.5t81.5 15.5q48 0 89 -19t70 -61v71h40v-408h-40v73q-31 -47 -75 -65.5t-84 -18.5zM88 207q0 -35 10.5 -67t31 -57.5t50 -40.5t68.5 -15q38 0 67.5 15t49.5 40t30.5 57.5t10.5 67.5
q0 45 -15 77.5t-38.5 53.5t-51.5 31t-54 10q-30 0 -59 -11.5t-51 -33t-35.5 -53.5t-13.5 -74zM204 502l130 125l31 -32l-137 -115z" />
    <glyph glyph-name="acircumflex" unicode="&#xe2;" horiz-adv-x="516" 
d="M245 -11q-40 0 -76 14.5t-63.5 42.5t-43.5 68t-16 90q0 47 14.5 86.5t40.5 67.5t62.5 43.5t81.5 15.5q48 0 89 -19t70 -61v71h40v-408h-40v73q-31 -47 -75 -65.5t-84 -18.5zM88 207q0 -35 10.5 -67t31 -57.5t50 -40.5t68.5 -15q38 0 67.5 15t49.5 40t30.5 57.5t10.5 67.5
q0 45 -15 77.5t-38.5 53.5t-51.5 31t-54 10q-30 0 -59 -11.5t-51 -33t-35.5 -53.5t-13.5 -74zM132 505l126 113l127 -113l-25 -25l-102 87l-101 -87z" />
    <glyph glyph-name="atilde" unicode="&#xe3;" horiz-adv-x="516" 
d="M245 -11q-40 0 -76 14.5t-63.5 42.5t-43.5 68t-16 90q0 47 14.5 86.5t40.5 67.5t62.5 43.5t81.5 15.5q48 0 89 -19t70 -61v71h40v-408h-40v73q-31 -47 -75 -65.5t-84 -18.5zM88 207q0 -35 10.5 -67t31 -57.5t50 -40.5t68.5 -15q38 0 67.5 15t49.5 40t30.5 57.5t10.5 67.5
q0 45 -15 77.5t-38.5 53.5t-51.5 31t-54 10q-30 0 -59 -11.5t-51 -33t-35.5 -53.5t-13.5 -74zM137 506q8 26 27 41.5t46 15.5q18 0 32.5 -6t27 -13t24.5 -13t27 -6q17 0 28.5 14.5t13.5 25.5l26 -20q-6 -23 -23 -40t-43 -17q-17 0 -30.5 6t-26.5 13t-27 13t-32 6
q-15 0 -27 -12t-15 -27z" />
    <glyph glyph-name="adieresis" unicode="&#xe4;" horiz-adv-x="516" 
d="M245 -11q-40 0 -76 14.5t-63.5 42.5t-43.5 68t-16 90q0 47 14.5 86.5t40.5 67.5t62.5 43.5t81.5 15.5q48 0 89 -19t70 -61v71h40v-408h-40v73q-31 -47 -75 -65.5t-84 -18.5zM247 379q-30 0 -59 -11.5t-51 -33t-35.5 -53.5t-13.5 -74q0 -35 10.5 -67t31 -57.5t50 -40.5
t68.5 -15q38 0 67.5 15t49.5 40t30.5 57.5t10.5 67.5q0 45 -15 77.5t-38.5 53.5t-51.5 31t-54 10zM352 490q-15 0 -25.5 10.5t-10.5 25.5t10.5 25.5t25.5 10.5t25.5 -10.5t10.5 -25.5t-10.5 -25.5t-25.5 -10.5zM150 526q0 15 10.5 25.5t25.5 10.5t25.5 -10.5t10.5 -25.5
t-10.5 -25.5t-25.5 -10.5t-25.5 10.5t-10.5 25.5z" />
    <glyph glyph-name="aring" unicode="&#xe5;" horiz-adv-x="516" 
d="M245 -11q-40 0 -76 14.5t-63.5 42.5t-43.5 68t-16 90q0 47 14.5 86.5t40.5 67.5t62.5 43.5t81.5 15.5q48 0 89 -19t70 -61v71h40v-408h-40v73q-31 -47 -75 -65.5t-84 -18.5zM247 379q-30 0 -59 -11.5t-51 -33t-35.5 -53.5t-13.5 -74q0 -35 10.5 -67t31 -57.5t50 -40.5
t68.5 -15q38 0 67.5 15t49.5 40t30.5 57.5t10.5 67.5q0 45 -15 77.5t-38.5 53.5t-51.5 31t-54 10zM187 549q0 33 22 55t55 22t55 -22t22 -55t-22 -55t-55 -22t-55 22t-22 55zM223 549q0 -18 11.5 -29.5t29.5 -11.5t29.5 11.5t11.5 29.5t-11.5 29.5t-29.5 11.5t-29.5 -11.5
t-11.5 -29.5z" />
    <glyph glyph-name="ae" unicode="&#xe6;" horiz-adv-x="792" 
d="M217 -11q-43 0 -75.5 11t-54 28.5t-32 40.5t-10.5 47q0 19 8 42t28.5 42t55 32t87.5 13q34 0 67 -7.5t64 -34.5q0 79 -33 127.5t-109 48.5q-38 0 -75.5 -11.5t-63.5 -25.5v41q29 14 64.5 24t76.5 10q57 0 100 -28.5t63 -85.5q26 52 71.5 83t103.5 31q36 0 70.5 -13.5
t61.5 -40.5t44 -68.5t18 -96.5h-350q1 -39 13 -70.5t33 -54t50 -34.5t62 -12q28 0 51.5 8.5t41.5 22t31.5 29.5t22.5 32l34 -24q-28 -44 -73.5 -75t-108.5 -31q-60 0 -102.5 28t-65.5 74q-17 -52 -62 -77t-107 -25zM87 116q0 -35 32 -62t98 -27q38 0 64 9t41.5 22.5t22.5 30
t7 31.5q0 14 -6.5 29.5t-21.5 28t-39.5 21t-61.5 8.5q-69 0 -102.5 -27t-33.5 -64zM705 236q-5 30 -18 56.5t-33 45.5t-46 30t-56 11t-55.5 -11t-45 -30.5t-32.5 -45.5t-17 -56h303z" />
    <glyph glyph-name="ccedilla" unicode="&#xe7;" horiz-adv-x="442" 
d="M255 -11q-46 0 -84.5 16t-66 44.5t-43 67.5t-15.5 84t14.5 84.5t42 69t67 46t88.5 16.5q22 0 60.5 -8.5t80.5 -43.5v-53q-10 12 -24 23.5t-31.5 21.5t-39 16t-46.5 6q-38 0 -69 -13.5t-53.5 -37.5t-35 -56.5t-12.5 -69.5q0 -44 15 -77t39 -54.5t54 -32.5t60 -11
q24 0 46 6.5t40.5 17t34 23.5t27.5 26v-54q-20 -18 -57.5 -37.5t-91.5 -19.5zM157 -178l82 128l46 -20l-100 -124z" />
    <glyph glyph-name="egrave" unicode="&#xe8;" horiz-adv-x="483" 
d="M247 -11q-48 0 -85 16.5t-63 45.5t-39.5 67.5t-13.5 83.5q0 53 17 93.5t44.5 67.5t63 40.5t73.5 13.5q41 0 76.5 -16t61.5 -44.5t40.5 -68.5t14.5 -89h-349q0 -39 13 -71t35.5 -54.5t52 -34.5t61.5 -12q50 0 86 26t56 67l34 -20q-9 -17 -24 -36.5t-36.5 -36t-51 -27.5
t-67.5 -11zM244 379q-31 0 -57.5 -11t-46 -30.5t-32.5 -45t-17 -55.5h304q-4 30 -16.5 56t-32.5 45t-46 30t-56 11zM128 595l31 32l130 -125l-24 -22z" />
    <glyph glyph-name="eacute" unicode="&#xe9;" horiz-adv-x="483" 
d="M247 -11q-48 0 -85 16.5t-63 45.5t-39.5 67.5t-13.5 83.5q0 53 17 93.5t44.5 67.5t63 40.5t73.5 13.5q41 0 76.5 -16t61.5 -44.5t40.5 -68.5t14.5 -89h-349q0 -39 13 -71t35.5 -54.5t52 -34.5t61.5 -12q50 0 86 26t56 67l34 -20q-9 -17 -24 -36.5t-36.5 -36t-51 -27.5
t-67.5 -11zM244 379q-31 0 -57.5 -11t-46 -30.5t-32.5 -45t-17 -55.5h304q-4 30 -16.5 56t-32.5 45t-46 30t-56 11zM328 627l31 -32l-137 -115l-24 22z" />
    <glyph glyph-name="ecircumflex" unicode="&#xea;" horiz-adv-x="483" 
d="M247 -11q-48 0 -85 16.5t-63 45.5t-39.5 67.5t-13.5 83.5q0 53 17 93.5t44.5 67.5t63 40.5t73.5 13.5q41 0 76.5 -16t61.5 -44.5t40.5 -68.5t14.5 -89h-349q0 -39 13 -71t35.5 -54.5t52 -34.5t61.5 -12q50 0 86 26t56 67l34 -20q-9 -17 -24 -36.5t-36.5 -36t-51 -27.5
t-67.5 -11zM244 379q-31 0 -57.5 -11t-46 -30.5t-32.5 -45t-17 -55.5h304q-4 30 -16.5 56t-32.5 45t-46 30t-56 11zM247 618l127 -113l-25 -25l-102 87l-101 -87l-25 25z" />
    <glyph glyph-name="edieresis" unicode="&#xeb;" horiz-adv-x="483" 
d="M247 -11q-48 0 -85 16.5t-63 45.5t-39.5 67.5t-13.5 83.5q0 53 17 93.5t44.5 67.5t63 40.5t73.5 13.5q41 0 76.5 -16t61.5 -44.5t40.5 -68.5t14.5 -89h-349q0 -39 13 -71t35.5 -54.5t52 -34.5t61.5 -12q50 0 86 26t56 67l34 -20q-9 -17 -24 -36.5t-36.5 -36t-51 -27.5
t-67.5 -11zM244 379q-31 0 -57.5 -11t-46 -30.5t-32.5 -45t-17 -55.5h304q-4 30 -16.5 56t-32.5 45t-46 30t-56 11zM326 490q-15 0 -25.5 10.5t-10.5 25.5t10.5 25.5t25.5 10.5t25.5 -10.5t10.5 -25.5t-10.5 -25.5t-25.5 -10.5zM124 526q0 15 10.5 25.5t25.5 10.5
t25.5 -10.5t10.5 -25.5t-10.5 -25.5t-25.5 -10.5t-25.5 10.5t-10.5 25.5z" />
    <glyph glyph-name="igrave" unicode="&#xec;" horiz-adv-x="184" 
d="M112 408v-408h-40v408h40zM-19 595l31 32l130 -125l-24 -22z" />
    <glyph glyph-name="iacute" unicode="&#xed;" horiz-adv-x="184" 
d="M112 408v-408h-40v408h40zM60 480l-24 22l130 125l31 -32z" />
    <glyph glyph-name="icircumflex" unicode="&#xee;" horiz-adv-x="184" 
d="M112 408v-408h-40v408h40zM22 471l-30 26l100 86l100 -86l-30 -26l-70 60z" />
    <glyph glyph-name="idieresis" unicode="&#xef;" horiz-adv-x="184" 
d="M72 0v408h40v-408h-40zM175 490q-15 0 -25.5 10.5t-10.5 25.5t10.5 25.5t25.5 10.5t25.5 -10.5t10.5 -25.5t-10.5 -25.5t-25.5 -10.5zM-27 526q0 15 10.5 25.5t25.5 10.5t25.5 -10.5t10.5 -25.5t-10.5 -25.5t-25.5 -10.5t-25.5 10.5t-10.5 25.5z" />
    <glyph glyph-name="eth" unicode="&#xf0;" horiz-adv-x="516" 
d="M259 -11q-47 0 -86.5 17.5t-67.5 47.5t-43.5 70.5t-15.5 87.5t15.5 88t44 71.5t68.5 48t88 17.5q29 0 52.5 -7.5t41.5 -18.5t31 -25t22 -27h2q-10 55 -39 105t-73 85l-162 -53l-12 34l140 46q-20 14 -59 32.5t-101 27.5l5 37q112 -12 202 -81l146 49l12 -35l-127 -42
q67 -64 97 -149t30 -177q0 -55 -14 -104t-51 -86q-26 -26 -63.5 -42.5t-82.5 -16.5zM262 399q-40 0 -72.5 -15t-55 -41t-34.5 -60t-12 -73q0 -37 12 -70.5t34.5 -58.5t54 -39.5t70.5 -14.5q40 0 71 16t53 42t33.5 60.5t11.5 72.5q0 37 -11.5 70t-32.5 57.5t-52 39t-70 14.5z
" />
    <glyph glyph-name="ntilde" unicode="&#xf1;" horiz-adv-x="442" 
d="M72 0v408h40v-64q7 13 18 26t26 23.5t35 17t46 6.5q27 0 47 -7t33.5 -16.5t21.5 -19t11 -14.5q14 -22 17 -49t3 -54v-257h-40v257q0 25 -4 47t-14.5 38.5t-29.5 26.5t-48 10q-37 0 -60.5 -14.5t-37 -38.5t-19 -54t-5.5 -60v-212h-40zM94 506q8 23 25.5 40t43.5 17
q20 0 40 -8.5t32 -13.5q14 -6 25 -9.5t22 -3.5q16 0 27 12q7 8 10.5 16t3.5 9l25 -20q-8 -23 -26.5 -40t-44.5 -17q-11 0 -24.5 4.5t-33.5 12.5q-18 8 -31.5 13t-27.5 5q-17 0 -26.5 -10.5t-13.5 -25.5z" />
    <glyph glyph-name="ograve" unicode="&#xf2;" horiz-adv-x="520" 
d="M46 203q0 45 16.5 84.5t45 68t68 45t84.5 16.5t84.5 -16.5t68 -45t45 -68t16.5 -84.5t-16.5 -84.5t-45 -68t-68 -45t-84.5 -16.5t-84.5 16.5t-68 45t-45 68t-16.5 84.5zM260 379q-37 0 -68.5 -13.5t-54.5 -37.5t-36 -56t-13 -69t13 -69t36 -56t54.5 -37.5t68.5 -13.5
t68.5 13.5t54.5 37.5t36 56t13 69t-13 69t-36 56t-54.5 37.5t-68.5 13.5zM172 627l130 -125l-24 -22l-137 115z" />
    <glyph glyph-name="oacute" unicode="&#xf3;" horiz-adv-x="520" 
d="M46 203q0 45 16.5 84.5t45 68t68 45t84.5 16.5t84.5 -16.5t68 -45t45 -68t16.5 -84.5t-16.5 -84.5t-45 -68t-68 -45t-84.5 -16.5t-84.5 16.5t-68 45t-45 68t-16.5 84.5zM88 203q0 -37 13 -69t36 -56t54.5 -37.5t68.5 -13.5t68.5 13.5t54.5 37.5t36 56t13 69t-13 69
t-36 56t-54.5 37.5t-68.5 13.5t-68.5 -13.5t-54.5 -37.5t-36 -56t-13 -69zM214 502l130 125l31 -32l-137 -115z" />
    <glyph glyph-name="ocircumflex" unicode="&#xf4;" horiz-adv-x="520" 
d="M46 203q0 45 16.5 84.5t45 68t68 45t84.5 16.5t84.5 -16.5t68 -45t45 -68t16.5 -84.5t-16.5 -84.5t-45 -68t-68 -45t-84.5 -16.5t-84.5 16.5t-68 45t-45 68t-16.5 84.5zM88 203q0 -37 13 -69t36 -56t54.5 -37.5t68.5 -13.5t68.5 13.5t54.5 37.5t36 56t13 69t-13 69
t-36 56t-54.5 37.5t-68.5 13.5t-68.5 -13.5t-54.5 -37.5t-36 -56t-13 -69zM134 505l126 113l127 -113l-25 -25l-102 87l-101 -87z" />
    <glyph glyph-name="otilde" unicode="&#xf5;" horiz-adv-x="520" 
d="M46 203q0 45 16.5 84.5t45 68t68 45t84.5 16.5t84.5 -16.5t68 -45t45 -68t16.5 -84.5t-16.5 -84.5t-45 -68t-68 -45t-84.5 -16.5t-84.5 16.5t-68 45t-45 68t-16.5 84.5zM260 379q-37 0 -68.5 -13.5t-54.5 -37.5t-36 -56t-13 -69t13 -69t36 -56t54.5 -37.5t68.5 -13.5
t68.5 13.5t54.5 37.5t36 56t13 69t-13 69t-36 56t-54.5 37.5t-68.5 13.5zM135 506q8 26 27 41.5t46 15.5q18 0 32.5 -6t27 -13t24.5 -13t27 -6q17 0 28.5 14.5t13.5 25.5l26 -20q-6 -23 -23 -40t-43 -17q-17 0 -30.5 6t-26.5 13t-27 13t-32 6q-15 0 -27 -12t-15 -27z" />
    <glyph glyph-name="odieresis" unicode="&#xf6;" horiz-adv-x="520" 
d="M46 203q0 45 16.5 84.5t45 68t68 45t84.5 16.5t84.5 -16.5t68 -45t45 -68t16.5 -84.5t-16.5 -84.5t-45 -68t-68 -45t-84.5 -16.5t-84.5 16.5t-68 45t-45 68t-16.5 84.5zM260 379q-37 0 -68.5 -13.5t-54.5 -37.5t-36 -56t-13 -69t13 -69t36 -56t54.5 -37.5t68.5 -13.5
t68.5 13.5t54.5 37.5t36 56t13 69t-13 69t-36 56t-54.5 37.5t-68.5 13.5zM307 526q0 15 10.5 25.5t25.5 10.5t25.5 -10.5t10.5 -25.5t-10.5 -25.5t-25.5 -10.5t-25.5 10.5t-10.5 25.5zM141 526q0 15 10.5 25.5t25.5 10.5t25.5 -10.5t10.5 -25.5t-10.5 -25.5t-25.5 -10.5
t-25.5 10.5t-10.5 25.5z" />
    <glyph glyph-name="divide" unicode="&#xf7;" 
d="M467 348v-38h-434v38h434zM250 483q-14 0 -24.5 10.5t-10.5 24.5t10.5 24.5t24.5 10.5t24.5 -10.5t10.5 -24.5t-10.5 -24.5t-24.5 -10.5zM215 140q0 14 10.5 24.5t24.5 10.5t24.5 -10.5t10.5 -24.5t-10.5 -24.5t-24.5 -10.5t-24.5 10.5t-10.5 24.5z" />
    <glyph glyph-name="oslash" unicode="&#xf8;" horiz-adv-x="521" 
d="M40 13l54 53q-5 7 -13 19t-15.5 29t-13 39.5t-5.5 49.5q0 45 16.5 84.5t45 68t68 45t84.5 16.5q27 0 49.5 -5t39.5 -12.5t28.5 -15.5t18.5 -14l53 53l25 -25l-53 -52q31 -35 42 -72.5t11 -70.5q0 -45 -16.5 -84.5t-45 -68t-68 -45t-84.5 -16.5q-32 0 -70.5 11t-73.5 42
l-52 -53zM146 71q31 -29 63 -36.5t52 -7.5q37 0 68.5 13.5t54.5 37.5t36 56t13 69q0 46 -14.5 74t-24.5 40zM261 379q-37 0 -68.5 -13.5t-54.5 -37.5t-36 -56t-13 -69q0 -43 13 -70t21 -38l246 247q-26 20 -54 28.5t-54 8.5z" />
    <glyph glyph-name="ugrave" unicode="&#xf9;" horiz-adv-x="438" 
d="M112 408v-246q0 -28 4.5 -52.5t16.5 -43t33 -29t53 -10.5t53 10.5t33 29t16.5 43t4.5 52.5v246h40v-257q0 -72 -35 -117t-112 -45t-112 45t-35 117v257h40zM141 627l130 -125l-24 -22l-137 115z" />
    <glyph glyph-name="uacute" unicode="&#xfa;" horiz-adv-x="438" 
d="M112 408v-246q0 -28 4.5 -52.5t16.5 -43t33 -29t53 -10.5t53 10.5t33 29t16.5 43t4.5 52.5v246h40v-257q0 -72 -35 -117t-112 -45t-112 45t-35 117v257h40zM184 502l130 125l31 -32l-137 -115z" />
    <glyph glyph-name="ucircumflex" unicode="&#xfb;" horiz-adv-x="438" 
d="M72 408h40v-246q0 -28 4.5 -52.5t16.5 -43t33 -29t53 -10.5t53 10.5t33 29t16.5 43t4.5 52.5v246h40v-257q0 -72 -35 -117t-112 -45t-112 45t-35 117v257zM97 492l122 94l122 -94l-32 -25l-90 68l-90 -68z" />
    <glyph glyph-name="udieresis" unicode="&#xfc;" horiz-adv-x="438" 
d="M112 408v-246q0 -28 4.5 -52.5t16.5 -43t33 -29t53 -10.5t53 10.5t33 29t16.5 43t4.5 52.5v246h40v-257q0 -72 -35 -117t-112 -45t-112 45t-35 117v257h40zM266 526q0 15 10.5 25.5t25.5 10.5t25.5 -10.5t10.5 -25.5t-10.5 -25.5t-25.5 -10.5t-25.5 10.5t-10.5 25.5z
M136 490q-15 0 -25.5 10.5t-10.5 25.5t10.5 25.5t25.5 10.5t25.5 -10.5t10.5 -25.5t-10.5 -25.5t-25.5 -10.5z" />
    <glyph glyph-name="yacute" unicode="&#xfd;" horiz-adv-x="428" 
d="M54 408l171 -363l149 363h46l-268 -638h-46l96 223l-194 415h46zM164 502l130 125l31 -32l-137 -115z" />
    <glyph glyph-name="thorn" unicode="&#xfe;" horiz-adv-x="516" 
d="M72 729h40v-392q29 40 70 60t90 20q46 0 83 -16t62.5 -44.5t39 -67t13.5 -82.5q0 -45 -14 -84.5t-39.5 -69.5t-63 -47t-83.5 -17q-38 0 -65.5 10.5t-46.5 24t-30.5 27.5t-15.5 22v-303h-40v959zM270 379q-30 0 -59 -10.5t-51.5 -32t-36 -53.5t-13.5 -74q0 -38 10.5 -71.5
t30.5 -58t49.5 -38.5t68.5 -14t68.5 14t49.5 38.5t30.5 57t10.5 70.5q0 42 -13 74t-34.5 54t-50.5 33t-60 11z" />
    <glyph glyph-name="ydieresis" unicode="&#xff;" horiz-adv-x="428" 
d="M54 408l171 -363l149 363h46l-268 -638h-46l96 223l-194 415h46zM297 490q-15 0 -25.5 10.5t-10.5 25.5t10.5 25.5t25.5 10.5t25.5 -10.5t10.5 -25.5t-10.5 -25.5t-25.5 -10.5zM95 526q0 15 10.5 25.5t25.5 10.5t25.5 -10.5t10.5 -25.5t-10.5 -25.5t-25.5 -10.5
t-25.5 10.5t-10.5 25.5z" />
    <glyph glyph-name="Amacron" unicode="&#x100;" horiz-adv-x="586" 
d="M295 687l277 -687h-48l-89 219h-284l-89 -219h-48zM167 259h252l-125 316zM158 750v44h270v-44h-270z" />
    <glyph glyph-name="amacron" unicode="&#x101;" horiz-adv-x="516" 
d="M245 -11q-40 0 -76 14.5t-63.5 42.5t-43.5 68t-16 90q0 47 14.5 86.5t40.5 67.5t62.5 43.5t81.5 15.5q48 0 89 -19t70 -61v71h40v-408h-40v73q-31 -47 -75 -65.5t-84 -18.5zM88 207q0 -35 10.5 -67t31 -57.5t50 -40.5t68.5 -15q38 0 67.5 15t49.5 40t30.5 57.5t10.5 67.5
q0 45 -15 77.5t-38.5 53.5t-51.5 31t-54 10q-30 0 -59 -11.5t-51 -33t-35.5 -53.5t-13.5 -74zM391 532v-39h-270v39h270z" />
    <glyph glyph-name="Abreve" unicode="&#x102;" horiz-adv-x="586" 
d="M295 687l277 -687h-48l-89 219h-284l-89 -219h-48zM419 259l-125 316l-127 -316h252zM214 820q5 -30 23 -48t59 -18t59 18t23 48h39q-8 -43 -35 -71.5t-86 -29.5q-59 1 -86.5 29.5t-34.5 71.5h39z" />
    <glyph glyph-name="abreve" unicode="&#x103;" horiz-adv-x="516" 
d="M245 -11q-40 0 -76 14.5t-63.5 42.5t-43.5 68t-16 90q0 47 14.5 86.5t40.5 67.5t62.5 43.5t81.5 15.5q48 0 89 -19t70 -61v71h40v-408h-40v73q-31 -47 -75 -65.5t-84 -18.5zM88 207q0 -35 10.5 -67t31 -57.5t50 -40.5t68.5 -15q38 0 67.5 15t49.5 40t30.5 57.5t10.5 67.5
q0 45 -15 77.5t-38.5 53.5t-51.5 31t-54 10q-30 0 -59 -11.5t-51 -33t-35.5 -53.5t-13.5 -74zM260 480q-59 1 -86.5 29.5t-34.5 71.5h39q5 -30 23 -48t59 -18t59 18t23 48h39q-8 -43 -35 -71.5t-86 -29.5z" />
    <glyph glyph-name="Aogonek" unicode="&#x104;" horiz-adv-x="586" 
d="M14 0l281 687l277 -687q-11 -8 -23 -18.5t-22 -23t-16.5 -26.5t-6.5 -29q0 -20 14 -34.5t46 -14.5q8 0 20 1.5t32 7.5l-9 -37q-8 -3 -19 -5.5t-26 -2.5q-45 0 -72.5 23.5t-27.5 59.5q0 33 20 57.5t46 41.5h-4l-89 219h-284l-89 -219h-48zM419 259l-125 316l-127 -316h252
z" />
    <glyph glyph-name="aogonek" unicode="&#x105;" horiz-adv-x="516" 
d="M245 -11q-40 0 -76 14.5t-63.5 42.5t-43.5 68t-16 90q0 47 14.5 86.5t40.5 67.5t62.5 43.5t81.5 15.5q48 0 89 -19t70 -61v71h40v-408q-11 -8 -23 -18.5t-22 -23t-16.5 -26.5t-6.5 -29q0 -20 14 -34.5t46 -14.5q8 0 20 1.5t32 7.5l-9 -36q-8 -3 -19 -5.5t-26 -2.5
q-26 0 -44 7.5t-29.5 19.5t-17 26.5t-5.5 28.5q0 33 20 57.5t46 41.5v73q-31 -47 -75 -65.5t-84 -18.5zM247 379q-30 0 -59 -11.5t-51 -33t-35.5 -53.5t-13.5 -74q0 -35 10.5 -67t31 -57.5t50 -40.5t68.5 -15q38 0 67.5 15t49.5 40t30.5 57.5t10.5 67.5q0 45 -15 77.5
t-38.5 53.5t-51.5 31t-54 10z" />
    <glyph glyph-name="Cacute" unicode="&#x106;" horiz-adv-x="678" 
d="M402 -11q-75 0 -139 27.5t-110.5 74.5t-72.5 109t-26 132q0 72 27 134.5t74 109t110 73.5t135 27q48 0 86 -11t66 -25.5t46 -29t26 -21.5v-58q-43 51 -101.5 78t-123.5 27q-64 0 -119 -24t-95 -65.5t-62.5 -97.5t-22.5 -119q0 -74 28 -130.5t71.5 -94.5t96.5 -57t104 -19
q25 0 53.5 5.5t58 17.5t58 31t54.5 47v-58q-51 -45 -109.5 -64t-112.5 -19zM330 721l116 133l50 -25l-134 -126z" />
    <glyph glyph-name="cacute" unicode="&#x107;" horiz-adv-x="442" 
d="M255 -11q-46 0 -84.5 16t-66 44.5t-43 67.5t-15.5 84t14.5 84.5t42 69t67 46t88.5 16.5q22 0 60.5 -8.5t80.5 -43.5v-53q-10 12 -24 23.5t-31.5 21.5t-39 16t-46.5 6q-38 0 -69 -13.5t-53.5 -37.5t-35 -56.5t-12.5 -69.5q0 -44 15 -77t39 -54.5t54 -32.5t60 -11
q24 0 46 6.5t40.5 17t34 23.5t27.5 26v-54q-20 -18 -57.5 -37.5t-91.5 -19.5zM213 483l92 137l43 -25l-105 -128z" />
    <glyph glyph-name="Ccircumflex" unicode="&#x108;" horiz-adv-x="678" 
d="M402 -11q-75 0 -139 27.5t-110.5 74.5t-72.5 109t-26 132q0 72 27 134.5t74 109t110 73.5t135 27q48 0 86 -11t66 -25.5t46 -29t26 -21.5v-58q-43 51 -101.5 78t-123.5 27q-64 0 -119 -24t-95 -65.5t-62.5 -97.5t-22.5 -119q0 -74 28 -130.5t71.5 -94.5t96.5 -57t104 -19
q25 0 53.5 5.5t58 17.5t58 31t54.5 47v-58q-51 -45 -109.5 -64t-112.5 -19zM400 839l130 -90l-34 -27l-96 64l-96 -64l-34 27z" />
    <glyph glyph-name="ccircumflex" unicode="&#x109;" horiz-adv-x="442" 
d="M255 -11q-46 0 -84.5 16t-66 44.5t-43 67.5t-15.5 84t14.5 84.5t42 69t67 46t88.5 16.5q22 0 60.5 -8.5t80.5 -43.5v-53q-10 12 -24 23.5t-31.5 21.5t-39 16t-46.5 6q-38 0 -69 -13.5t-53.5 -37.5t-35 -56.5t-12.5 -69.5q0 -44 15 -77t39 -54.5t54 -32.5t60 -11
q24 0 46 6.5t40.5 17t34 23.5t27.5 26v-54q-20 -18 -57.5 -37.5t-91.5 -19.5zM138 492l122 94l122 -94l-32 -25l-90 68l-90 -68z" />
    <glyph glyph-name="Cdotaccent" unicode="&#x10a;" horiz-adv-x="678" 
d="M402 -11q-75 0 -139 27.5t-110.5 74.5t-72.5 109t-26 132q0 72 27 134.5t74 109t110 73.5t135 27q48 0 86 -11t66 -25.5t46 -29t26 -21.5v-58q-43 51 -101.5 78t-123.5 27q-64 0 -119 -24t-95 -65.5t-62.5 -97.5t-22.5 -119q0 -74 28 -130.5t71.5 -94.5t96.5 -57t104 -19
q25 0 53.5 5.5t58 17.5t58 31t54.5 47v-58q-51 -45 -109.5 -64t-112.5 -19zM361 781q0 18 11.5 29.5t29.5 11.5t29.5 -11.5t11.5 -29.5t-11.5 -29.5t-29.5 -11.5t-29.5 11.5t-11.5 29.5z" />
    <glyph glyph-name="cdotaccent" unicode="&#x10b;" horiz-adv-x="442" 
d="M255 -11q-46 0 -84.5 16t-66 44.5t-43 67.5t-15.5 84t14.5 84.5t42 69t67 46t88.5 16.5q22 0 60.5 -8.5t80.5 -43.5v-53q-10 12 -24 23.5t-31.5 21.5t-39 16t-46.5 6q-38 0 -69 -13.5t-53.5 -37.5t-35 -56.5t-12.5 -69.5q0 -44 15 -77t39 -54.5t54 -32.5t60 -11
q24 0 46 6.5t40.5 17t34 23.5t27.5 26v-54q-20 -18 -57.5 -37.5t-91.5 -19.5zM261 488q-17 0 -28 11t-11 28t11 28t28 11t28 -11t11 -28t-11 -28t-28 -11z" />
    <glyph glyph-name="Ccaron" unicode="&#x10c;" horiz-adv-x="678" 
d="M402 -11q-75 0 -139 27.5t-110.5 74.5t-72.5 109t-26 132q0 72 27 134.5t74 109t110 73.5t135 27q48 0 86 -11t66 -25.5t46 -29t26 -21.5v-58q-43 51 -101.5 78t-123.5 27q-64 0 -119 -24t-95 -65.5t-62.5 -97.5t-22.5 -119q0 -74 28 -130.5t71.5 -94.5t96.5 -57t104 -19
q25 0 53.5 5.5t58 17.5t58 31t54.5 47v-58q-51 -45 -109.5 -64t-112.5 -19zM270 812l34 27l96 -64l96 64l34 -27l-130 -90z" />
    <glyph glyph-name="ccaron" unicode="&#x10d;" horiz-adv-x="442" 
d="M255 -11q-46 0 -84.5 16t-66 44.5t-43 67.5t-15.5 84t14.5 84.5t42 69t67 46t88.5 16.5q22 0 60.5 -8.5t80.5 -43.5v-53q-10 12 -24 23.5t-31.5 21.5t-39 16t-46.5 6q-38 0 -69 -13.5t-53.5 -37.5t-35 -56.5t-12.5 -69.5q0 -44 15 -77t39 -54.5t54 -32.5t60 -11
q24 0 46 6.5t40.5 17t34 23.5t27.5 26v-54q-20 -18 -57.5 -37.5t-91.5 -19.5zM138 559l32 26l90 -68l90 68l32 -26l-122 -94z" />
    <glyph glyph-name="Dcaron" unicode="&#x10e;" horiz-adv-x="618" 
d="M90 667h132q22 0 51.5 -2.5t62 -12.5t66.5 -28.5t66 -49.5q27 -27 45 -57.5t29.5 -62t16.5 -63t5 -58.5t-5 -58t-16.5 -62.5t-29.5 -62t-45 -57.5q-32 -32 -66 -50t-66.5 -28t-62 -12.5t-51.5 -2.5h-132v667zM134 40h87q66 0 120.5 21.5t94 60t61 92.5t21.5 119
q0 64 -22 118t-61 93t-93.5 61t-120.5 22h-87v-587zM100 812l34 27l96 -64l96 64l34 -27l-130 -90z" />
    <glyph glyph-name="dcaron" unicode="&#x10f;" horiz-adv-x="542" 
d="M246 -11q-39 0 -75 14t-63.5 41t-44.5 67.5t-17 94.5q0 56 17.5 96t45.5 65.5t64 37.5t73 12q56 0 95 -22.5t63 -57.5v392h40v-729h-40v73q-15 -24 -34.5 -40t-40.5 -25.5t-42.5 -14t-40.5 -4.5zM88 207q0 -45 13.5 -78.5t36 -56t51 -34t59.5 -11.5q30 0 58.5 11.5
t50.5 34t35.5 56t13.5 78.5q0 36 -11 67t-31.5 54.5t-50 37t-67.5 13.5q-32 0 -60.5 -11t-50 -32.5t-34.5 -53.5t-13 -75zM528 680l44 -14l-62 -156l-28 10z" />
    <glyph glyph-name="Dcroat" unicode="&#x110;" horiz-adv-x="618" 
d="M20 306v37h70v324h132q22 0 51.5 -2.5t62 -12.5t66.5 -28.5t66 -49.5q27 -27 45 -57.5t29.5 -62t16.5 -63t5 -58.5t-5 -58t-16.5 -62.5t-29.5 -62t-45 -57.5q-32 -32 -66 -50t-66.5 -28t-62 -12.5t-51.5 -2.5h-132v306h-70zM134 306v-266h87q66 0 120.5 21.5t94 60
t61 92.5t21.5 119q0 64 -22 118t-61 93t-93.5 61t-120.5 22h-87v-284h148v-37h-148z" />
    <glyph glyph-name="dcroat" unicode="&#x111;" horiz-adv-x="516" 
d="M246 -11q-39 0 -75 14t-63.5 41t-44.5 67.5t-17 94.5q0 56 17.5 96t45.5 65.5t64 37.5t73 12q56 0 95 -22.5t63 -57.5v227h-170v36h170v129h40v-129h69v-36h-69v-564h-40v73q-15 -24 -34.5 -40t-40.5 -25.5t-42.5 -14t-40.5 -4.5zM88 207q0 -45 13.5 -78.5t36 -56t51 -34
t59.5 -11.5q30 0 58.5 11.5t50.5 34t35.5 56t13.5 78.5q0 36 -11 67t-31.5 54.5t-50 37t-67.5 13.5q-32 0 -60.5 -11t-50 -32.5t-34.5 -53.5t-13 -75z" />
    <glyph glyph-name="Emacron" unicode="&#x112;" horiz-adv-x="464" 
d="M90 667h320v-40h-276v-242h270v-40h-270v-305h276v-40h-320v667zM385 794v-44h-270v44h270z" />
    <glyph glyph-name="emacron" unicode="&#x113;" horiz-adv-x="483" 
d="M247 -11q-48 0 -85 16.5t-63 45.5t-39.5 67.5t-13.5 83.5q0 53 17 93.5t44.5 67.5t63 40.5t73.5 13.5q41 0 76.5 -16t61.5 -44.5t40.5 -68.5t14.5 -89h-349q0 -39 13 -71t35.5 -54.5t52 -34.5t61.5 -12q50 0 86 26t56 67l34 -20q-9 -17 -24 -36.5t-36.5 -36t-51 -27.5
t-67.5 -11zM244 379q-31 0 -57.5 -11t-46 -30.5t-32.5 -45t-17 -55.5h304q-4 30 -16.5 56t-32.5 45t-46 30t-56 11zM108 493v39h270v-39h-270z" />
    <glyph glyph-name="Edotaccent" unicode="&#x116;" horiz-adv-x="464" 
d="M90 667h320v-40h-276v-242h270v-40h-270v-305h276v-40h-320v667zM250 740q-18 0 -29.5 11.5t-11.5 29.5t11.5 29.5t29.5 11.5t29.5 -11.5t11.5 -29.5t-11.5 -29.5t-29.5 -11.5z" />
    <glyph glyph-name="edotaccent" unicode="&#x117;" horiz-adv-x="483" 
d="M247 -11q-48 0 -85 16.5t-63 45.5t-39.5 67.5t-13.5 83.5q0 53 17 93.5t44.5 67.5t63 40.5t73.5 13.5q41 0 76.5 -16t61.5 -44.5t40.5 -68.5t14.5 -89h-349q0 -39 13 -71t35.5 -54.5t52 -34.5t61.5 -12q50 0 86 26t56 67l34 -20q-9 -17 -24 -36.5t-36.5 -36t-51 -27.5
t-67.5 -11zM244 379q-31 0 -57.5 -11t-46 -30.5t-32.5 -45t-17 -55.5h304q-4 30 -16.5 56t-32.5 45t-46 30t-56 11zM243 488q-17 0 -28 11t-11 28t11 28t28 11t28 -11t11 -28t-11 -28t-28 -11z" />
    <glyph glyph-name="Eogonek" unicode="&#x118;" horiz-adv-x="464" 
d="M90 667h320v-40h-276v-242h270v-40h-270v-305h276v-40h-40q-11 -8 -23 -18t-22 -22t-16.5 -26t-6.5 -30q0 -29 18.5 -39.5t44.5 -10.5q12 0 24 2t25 7l-9 -37q-12 -5 -23 -6.5t-22 -1.5q-19 0 -37 5t-32 15t-22.5 26t-8.5 37q0 33 20 57.5t46 41.5h-236v667z" />
    <glyph glyph-name="eogonek" unicode="&#x119;" horiz-adv-x="485" 
d="M46 202q0 44 13.5 83t39 68.5t62.5 46.5t83 17q47 0 83.5 -17t61 -47t37.5 -69.5t13 -84.5h-351q0 -36 11.5 -67t32.5 -54.5t51 -37t67 -13.5q49 0 85 25t57 68l34 -20q-19 -35 -47.5 -60t-61.5 -42q-14 -7 -28.5 -16t-25.5 -21t-18 -26t-7 -32q0 -27 18 -38t42 -11
q14 0 24 2t28 7l-9 -36q-8 -3 -19 -5.5t-26 -2.5q-19 0 -36 5t-30.5 15.5t-21.5 26t-8 35.5q0 26 15 49t35 39q-48 0 -86 15.5t-64.5 43.5t-40 67.5t-13.5 86.5zM393 237q-4 30 -16 55.5t-31 45t-45 30.5t-57 11q-64 0 -103.5 -40.5t-49.5 -101.5h302z" />
    <glyph glyph-name="Ecaron" unicode="&#x11a;" horiz-adv-x="464" 
d="M90 667h320v-40h-276v-242h270v-40h-270v-305h276v-40h-320v667zM154 839l96 -64l96 64l34 -27l-130 -90l-130 90z" />
    <glyph glyph-name="ecaron" unicode="&#x11b;" horiz-adv-x="483" 
d="M247 -11q-48 0 -85 16.5t-63 45.5t-39.5 67.5t-13.5 83.5q0 53 17 93.5t44.5 67.5t63 40.5t73.5 13.5q41 0 76.5 -16t61.5 -44.5t40.5 -68.5t14.5 -89h-349q0 -39 13 -71t35.5 -54.5t52 -34.5t61.5 -12q50 0 86 26t56 67l34 -20q-9 -17 -24 -36.5t-36.5 -36t-51 -27.5
t-67.5 -11zM244 379q-31 0 -57.5 -11t-46 -30.5t-32.5 -45t-17 -55.5h304q-4 30 -16.5 56t-32.5 45t-46 30t-56 11zM121 559l32 26l90 -68l90 68l32 -26l-122 -94z" />
    <glyph glyph-name="Gcircumflex" unicode="&#x11c;" horiz-adv-x="772" 
d="M54 332q0 74 27 137t74 109t110.5 72t136.5 26q91 0 164 -41.5t125 -114.5l-35 -28q-20 33 -47.5 59.5t-61 45.5t-71 29t-75.5 10q-64 0 -119 -24t-95.5 -65.5t-63.5 -97t-23 -119.5q0 -63 22.5 -117.5t62 -95.5t94 -64.5t119.5 -23.5q57 0 106 18t86 50.5t59 79
t25 103.5h-236v40h280q0 -73 -21.5 -133.5t-63 -104.5t-100.5 -68.5t-134 -24.5q-74 0 -137 25.5t-109 71.5t-72.5 108.5t-26.5 137.5zM270 749l130 90l130 -90l-34 -27l-96 64l-96 -64z" />
    <glyph glyph-name="gcircumflex" unicode="&#x11d;" horiz-adv-x="520" 
d="M85 -55q5 -64 49 -100.5t109 -36.5q60 0 93.5 26t49.5 60.5t19 68t3 49.5v58q-31 -43 -74 -62t-87 -19q-38 0 -74 13.5t-64 40.5t-45.5 67.5t-17.5 93.5q0 44 14 83t41 68t65 45.5t86 16.5q51 0 90.5 -21t65.5 -59v71h40v-396q0 -116 -54 -179t-151 -63q-40 0 -75.5 11.5
t-62.5 33.5t-43.5 55t-18.5 75h42zM88 202q0 -37 11 -69t32 -55.5t50 -37t65 -13.5q38 0 68.5 14t51.5 38t32.5 56.5t11.5 70.5q0 36 -11.5 67.5t-32.5 55t-51 37t-67 13.5q-38 0 -67.5 -14.5t-50 -39t-31.5 -56.5t-11 -67zM128 492l122 94l122 -94l-32 -25l-90 68l-90 -68z
" />
    <glyph glyph-name="Gbreve" unicode="&#x11e;" horiz-adv-x="772" 
d="M54 332q0 74 27 137t74 109t110.5 72t136.5 26q91 0 164 -41.5t125 -114.5l-35 -28q-20 33 -47.5 59.5t-61 45.5t-71 29t-75.5 10q-64 0 -119 -24t-95.5 -65.5t-63.5 -97t-23 -119.5q0 -63 22.5 -117.5t62 -95.5t94 -64.5t119.5 -23.5q57 0 106 18t86 50.5t59 79
t25 103.5h-236v40h280q0 -73 -21.5 -133.5t-63 -104.5t-100.5 -68.5t-134 -24.5q-74 0 -137 25.5t-109 71.5t-72.5 108.5t-26.5 137.5zM400 732q-22 0 -43.5 6t-39 17.5t-29.5 29t-15 41.5h40q8 -29 34 -40.5t53 -11.5t53 11.5t34 40.5h40q-3 -24 -15 -41.5t-29.5 -29
t-39 -17.5t-43.5 -6z" />
    <glyph glyph-name="gbreve" unicode="&#x11f;" horiz-adv-x="520" 
d="M85 -55q5 -64 49 -100.5t109 -36.5q60 0 93.5 26t49.5 60.5t19 68t3 49.5v58q-31 -43 -74 -62t-87 -19q-38 0 -74 13.5t-64 40.5t-45.5 67.5t-17.5 93.5q0 44 14 83t41 68t65 45.5t86 16.5q51 0 90.5 -21t65.5 -59v71h40v-396q0 -116 -54 -179t-151 -63q-40 0 -75.5 11.5
t-62.5 33.5t-43.5 55t-18.5 75h42zM88 202q0 -37 11 -69t32 -55.5t50 -37t65 -13.5q38 0 68.5 14t51.5 38t32.5 56.5t11.5 70.5q0 36 -11.5 67.5t-32.5 55t-51 37t-67 13.5q-38 0 -67.5 -14.5t-50 -39t-31.5 -56.5t-11 -67zM250 479q-22 0 -43 6t-38.5 18t-29 29.5
t-14.5 40.5h38q7 -29 33.5 -42.5t53.5 -13.5t53.5 13.5t33.5 42.5h38q-3 -23 -15 -40.5t-29 -29.5t-38 -18t-43 -6z" />
    <glyph glyph-name="Gdotaccent" unicode="&#x120;" horiz-adv-x="772" 
d="M54 332q0 74 27 137t74 109t110.5 72t136.5 26q91 0 164 -41.5t125 -114.5l-35 -28q-20 33 -47.5 59.5t-61 45.5t-71 29t-75.5 10q-64 0 -119 -24t-95.5 -65.5t-63.5 -97t-23 -119.5q0 -63 22.5 -117.5t62 -95.5t94 -64.5t119.5 -23.5q57 0 106 18t86 50.5t59 79
t25 103.5h-236v40h280q0 -73 -21.5 -133.5t-63 -104.5t-100.5 -68.5t-134 -24.5q-74 0 -137 25.5t-109 71.5t-72.5 108.5t-26.5 137.5zM362 781q0 18 11.5 29.5t29.5 11.5t29.5 -11.5t11.5 -29.5t-11.5 -29.5t-29.5 -11.5t-29.5 11.5t-11.5 29.5z" />
    <glyph glyph-name="gdotaccent" unicode="&#x121;" horiz-adv-x="520" 
d="M85 -55q5 -64 49 -100.5t109 -36.5q60 0 93.5 26t49.5 60.5t19 68t3 49.5v58q-31 -43 -74 -62t-87 -19q-38 0 -74 13.5t-64 40.5t-45.5 67.5t-17.5 93.5q0 44 14 83t41 68t65 45.5t86 16.5q51 0 90.5 -21t65.5 -59v71h40v-396q0 -116 -54 -179t-151 -63q-40 0 -75.5 11.5
t-62.5 33.5t-43.5 55t-18.5 75h42zM248 379q-38 0 -67.5 -14.5t-50 -39t-31.5 -56.5t-11 -67q0 -37 11 -69t32 -55.5t50 -37t65 -13.5q38 0 68.5 14t51.5 38t32.5 56.5t11.5 70.5q0 36 -11.5 67.5t-32.5 55t-51 37t-67 13.5zM252 488q-17 0 -28 11t-11 28t11 28t28 11
t28 -11t11 -28t-11 -28t-28 -11z" />
    <glyph glyph-name="uni0122" unicode="&#x122;" horiz-adv-x="772" 
d="M54 332q0 74 27 137t74 109t110.5 72t136.5 26q91 0 164 -41.5t125 -114.5l-35 -28q-20 33 -47.5 59.5t-61 45.5t-71 29t-75.5 10q-64 0 -119 -24t-95.5 -65.5t-63.5 -97t-23 -119.5q0 -63 22.5 -117.5t62 -95.5t94 -64.5t119.5 -23.5q57 0 106 18t86 50.5t59 79
t25 103.5h-236v40h280q0 -73 -21.5 -133.5t-63 -104.5t-100.5 -68.5t-134 -24.5q-74 0 -137 25.5t-109 71.5t-72.5 108.5t-26.5 137.5zM329 -190l46 140l44 -14l-62 -136z" />
    <glyph glyph-name="uni0123" unicode="&#x123;" horiz-adv-x="520" 
d="M243 -230q-40 0 -75.5 11.5t-62.5 33.5t-43.5 55t-18.5 75h42q5 -64 49 -100.5t109 -36.5q60 0 93.5 26t49.5 60.5t19 68t3 49.5v58q-31 -43 -74 -62t-87 -19q-38 0 -74 13.5t-64 40.5t-45.5 67.5t-17.5 93.5q0 44 14 83t41 68t65 45.5t86 16.5q51 0 90.5 -21t65.5 -59
v71h40v-396q0 -116 -54 -179t-151 -63zM248 379q-38 0 -67.5 -14.5t-50 -39t-31.5 -56.5t-11 -67q0 -37 11 -69t32 -55.5t50 -37t65 -13.5q38 0 68.5 14t51.5 38t32.5 56.5t11.5 70.5q0 36 -11.5 67.5t-32.5 55t-51 37t-67 13.5zM234 507l62 136l28 -10l-46 -140z" />
    <glyph glyph-name="Hcircumflex" unicode="&#x124;" horiz-adv-x="672" 
d="M134 667v-283h404v283h44v-667h-44v344h-404v-344h-44v667h44zM206 749l130 90l130 -90l-34 -27l-96 64l-96 -64z" />
    <glyph glyph-name="hcircumflex" unicode="&#x125;" horiz-adv-x="442" 
d="M112 729v-385q7 13 18 26t26 23.5t35 17t46 6.5q27 0 47 -7t33.5 -16.5t21.5 -19t11 -14.5q14 -22 17 -49t3 -54v-257h-40v257q0 25 -4 47t-14.5 38.5t-29.5 26.5t-48 10q-37 0 -60.5 -14.5t-37 -38.5t-19 -54t-5.5 -60v-212h-40v729h40zM90 826l122 -94l-32 -25l-90 68
l-90 -68l-32 25z" />
    <glyph glyph-name="Hbar" unicode="&#x126;" horiz-adv-x="672" 
d="M36 579v34h54v54h44v-54h404v54h44v-54h54v-34h-54v-579h-44v344h-404v-344h-44v579h-54zM134 384h404v195h-404v-195z" />
    <glyph glyph-name="hbar" unicode="&#x127;" horiz-adv-x="442" 
d="M0 600h72v129h40v-129h180v-38h-180v-218q7 13 18 26t26 23.5t35 17t46 6.5q27 0 47 -7t33.5 -16.5t21.5 -19t11 -14.5q14 -22 17 -49t3 -54v-257h-40v257q0 25 -4 47t-14.5 38.5t-29.5 26.5t-48 10q-37 0 -60.5 -14.5t-37 -38.5t-19 -54t-5.5 -60v-212h-40v562h-72v38z
" />
    <glyph glyph-name="Itilde" unicode="&#x128;" horiz-adv-x="224" 
d="M90 667h44v-667h-44v667zM-14 738q8 26 27 41.5t46 15.5q18 0 32.5 -6t27 -13t24.5 -13t27 -6q17 0 28.5 14.5t13.5 25.5l26 -20q-6 -23 -23 -40t-43 -17q-17 0 -30.5 6t-26.5 13t-27 13t-32 6q-15 0 -27 -12t-15 -27z" />
    <glyph glyph-name="itilde" unicode="&#x129;" horiz-adv-x="184" 
d="M72 408h40v-408h-40v408zM-35 506q8 26 27 41.5t46 15.5q18 0 32.5 -6t27 -13t24.5 -13t27 -6q17 0 28.5 14.5t13.5 25.5l26 -20q-6 -23 -23 -40t-43 -17q-17 0 -30.5 6t-26.5 13t-27 13t-32 6q-15 0 -27 -12t-15 -27z" />
    <glyph glyph-name="Imacron" unicode="&#x12a;" horiz-adv-x="224" 
d="M134 667v-667h-44v667h44zM10 794h204v-44h-204v44z" />
    <glyph glyph-name="imacron" unicode="&#x12b;" horiz-adv-x="184" 
d="M112 408v-408h-40v408h40zM12 532h160v-39h-160v39z" />
    <glyph glyph-name="Iogonek" unicode="&#x12e;" horiz-adv-x="224" 
d="M124 -182q-45 0 -72.5 23.5t-27.5 59.5q0 33 20 57.5t46 41.5v667h44v-667q-11 -8 -23 -18.5t-22 -23t-16.5 -26.5t-6.5 -29q0 -20 14 -34.5t46 -14.5q8 0 20 1.5t32 7.5l-9 -37q-8 -3 -19 -5.5t-26 -2.5z" />
    <glyph glyph-name="iogonek" unicode="&#x12f;" horiz-adv-x="184" 
d="M102 -181q-26 0 -44 7.5t-29.5 19.5t-17 26.5t-5.5 28.5q0 33 20 57.5t46 41.5v408h40v-408q-11 -8 -23 -18.5t-22 -23t-16.5 -26.5t-6.5 -29q0 -20 14 -34.5t46 -14.5q8 0 20 1.5t32 7.5l-9 -36q-8 -3 -19 -5.5t-26 -2.5zM92 507q-15 0 -25.5 10t-10.5 27t10.5 27
t25.5 10t25.5 -10t10.5 -27t-10.5 -27t-25.5 -10z" />
    <glyph glyph-name="Idotaccent" unicode="&#x130;" horiz-adv-x="224" 
d="M134 667v-667h-44v667h44zM71 781q0 18 11.5 29.5t29.5 11.5t29.5 -11.5t11.5 -29.5t-11.5 -29.5t-29.5 -11.5t-29.5 11.5t-11.5 29.5z" />
    <glyph glyph-name="dotlessi" unicode="&#x131;" horiz-adv-x="184" 
d="M112 408v-408h-40v408h40z" />
    <glyph glyph-name="Jcircumflex" unicode="&#x134;" horiz-adv-x="263" 
d="M-24 85q13 -24 33.5 -40t49.5 -16q21 0 34.5 8t21.5 21.5t11 30t3 34.5v544h44v-537q0 -30 -5.5 -56t-19 -44.5t-36 -29.5t-55.5 -11q-38 0 -65 19t-47 51zM150 839l130 -90l-34 -27l-96 64l-96 -64l-34 27z" />
    <glyph glyph-name="jcircumflex" unicode="&#x135;" horiz-adv-x="184" 
d="M112 408v-638h-40v638h40zM22 471l-30 26l100 86l100 -86l-30 -26l-70 60z" />
    <glyph glyph-name="uni0136" unicode="&#x136;" horiz-adv-x="540" 
d="M134 667v-314l315 314h58l-323 -319l342 -348h-60l-314 318l-18 -17v-301h-44v667h44zM213 -190l46 140l44 -14l-62 -136z" />
    <glyph glyph-name="uni0137" unicode="&#x137;" horiz-adv-x="396" 
d="M72 0v729h40v-496l168 175h52l-172 -177l228 -231h-54l-201 202l-21 -21v-181h-40zM140 -190l46 140l44 -14l-62 -136z" />
    <glyph glyph-name="Lacute" unicode="&#x139;" horiz-adv-x="334" 
d="M134 667v-627h186v-40h-230v667h44zM283 829l-134 -126l-32 18l116 133z" />
    <glyph glyph-name="lacute" unicode="&#x13a;" horiz-adv-x="184" 
d="M112 729v-729h-40v729h40zM190 875l-105 -128l-30 16l92 137z" />
    <glyph glyph-name="uni013B" unicode="&#x13b;" horiz-adv-x="334" 
d="M134 667v-627h186v-40h-230v667h44zM199 -50l44 -14l-62 -136l-28 10z" />
    <glyph glyph-name="uni013C" unicode="&#x13c;" horiz-adv-x="184" 
d="M112 729v-729h-40v729h40zM80 -50l44 -14l-62 -136l-28 10z" />
    <glyph glyph-name="Lcaron" unicode="&#x13d;" horiz-adv-x="334" 
d="M134 667v-627h186v-40h-230v667h44zM278 680l44 -14l-62 -156l-28 10z" />
    <glyph glyph-name="lcaron" unicode="&#x13e;" horiz-adv-x="210" 
d="M112 729v-729h-40v729h40zM196 680l44 -14l-62 -156l-28 10z" />
    <glyph glyph-name="Ldot" unicode="&#x13f;" horiz-adv-x="334" 
d="M90 667h44v-627h186v-40h-230v667zM277 295q-17 0 -28 11t-11 28t11 28t28 11t28 -11t11 -28t-11 -28t-28 -11z" />
    <glyph glyph-name="ldot" unicode="&#x140;" horiz-adv-x="272" 
d="M72 0v729h40v-729h-40zM228 326q-17 0 -28 11t-11 28t11 28t28 11t28 -11t11 -28t-11 -28t-28 -11z" />
    <glyph glyph-name="Lslash" unicode="&#x141;" horiz-adv-x="334" 
d="M0 260v44l90 58v305h44v-281l100 64v-44l-100 -64v-302h186v-40h-230v318z" />
    <glyph glyph-name="lslash" unicode="&#x142;" horiz-adv-x="184" 
d="M0 356v44l72 56v273h40v-249l72 56v-44l-72 -56v-436h-40v412z" />
    <glyph glyph-name="Nacute" unicode="&#x143;" horiz-adv-x="784" 
d="M90 0v674l560 -586v579h44v-684l-560 586v-569h-44zM508 829l-134 -126l-32 18l116 133z" />
    <glyph glyph-name="nacute" unicode="&#x144;" horiz-adv-x="442" 
d="M72 408h40v-64q7 13 18 26t26 23.5t35 17t46 6.5q27 0 47 -7t33.5 -16.5t21.5 -19t11 -14.5q14 -22 17 -49t3 -54v-257h-40v257q0 25 -4 47t-14.5 38.5t-29.5 26.5t-48 10q-37 0 -60.5 -14.5t-37 -38.5t-19 -54t-5.5 -60v-212h-40v408zM184 483l92 137l43 -25l-105 -128z
" />
    <glyph glyph-name="uni0145" unicode="&#x145;" horiz-adv-x="784" 
d="M90 0v674l560 -586v579h44v-684l-560 586v-569h-44zM381 -50l44 -14l-62 -136l-28 10z" />
    <glyph glyph-name="uni0146" unicode="&#x146;" horiz-adv-x="442" 
d="M72 408h40v-64q7 13 18 26t26 23.5t35 17t46 6.5q27 0 47 -7t33.5 -16.5t21.5 -19t11 -14.5q14 -22 17 -49t3 -54v-257h-40v257q0 25 -4 47t-14.5 38.5t-29.5 26.5t-48 10q-37 0 -60.5 -14.5t-37 -38.5t-19 -54t-5.5 -60v-212h-40v408zM209 -50l44 -14l-62 -136l-28 10z
" />
    <glyph glyph-name="Ncaron" unicode="&#x147;" horiz-adv-x="784" 
d="M90 0v674l560 -586v579h44v-684l-560 586v-569h-44zM488 839l34 -27l-130 -90l-130 90l34 27l96 -64z" />
    <glyph glyph-name="ncaron" unicode="&#x148;" horiz-adv-x="442" 
d="M72 408h40v-64q7 13 18 26t26 23.5t35 17t46 6.5q27 0 47 -7t33.5 -16.5t21.5 -19t11 -14.5q14 -22 17 -49t3 -54v-257h-40v257q0 25 -4 47t-14.5 38.5t-29.5 26.5t-48 10q-37 0 -60.5 -14.5t-37 -38.5t-19 -54t-5.5 -60v-212h-40v408zM118 559l32 26l90 -68l90 68
l32 -26l-122 -94z" />
    <glyph glyph-name="Omacron" unicode="&#x14c;" horiz-adv-x="800" 
d="M54 332q0 72 26.5 134.5t73 109t110 73.5t136.5 27t136.5 -27t110 -73.5t73 -109t26.5 -134.5t-26.5 -134.5t-73 -109t-110 -73t-136.5 -26.5q-74 0 -137 26.5t-109.5 73t-73 109t-26.5 134.5zM100 332q0 -64 22.5 -119t63 -96t95 -64.5t119.5 -23.5q64 0 119 23.5
t95.5 64.5t63 96t22.5 119t-22.5 119.5t-63 96.5t-95.5 64.5t-119 23.5q-65 0 -119.5 -23.5t-95 -64.5t-63 -96.5t-22.5 -119.5zM535 794v-44h-270v44h270z" />
    <glyph glyph-name="omacron" unicode="&#x14d;" horiz-adv-x="520" 
d="M46 203q0 45 16.5 84.5t45 68t68 45t84.5 16.5t84.5 -16.5t68 -45t45 -68t16.5 -84.5t-16.5 -84.5t-45 -68t-68 -45t-84.5 -16.5t-84.5 16.5t-68 45t-45 68t-16.5 84.5zM88 203q0 -37 13 -69t36 -56t54.5 -37.5t68.5 -13.5t68.5 13.5t54.5 37.5t36 56t13 69t-13 69
t-36 56t-54.5 37.5t-68.5 13.5t-68.5 -13.5t-54.5 -37.5t-36 -56t-13 -69zM395 532v-39h-270v39h270z" />
    <glyph glyph-name="Obreve" unicode="&#x14e;" horiz-adv-x="800" 
d="M54 332q0 72 26.5 134.5t73 109t110 73.5t136.5 27t136.5 -27t110 -73.5t73 -109t26.5 -134.5t-26.5 -134.5t-73 -109t-110 -73t-136.5 -26.5q-74 0 -137 26.5t-109.5 73t-73 109t-26.5 134.5zM400 636q-65 0 -119.5 -23.5t-95 -64.5t-63 -96.5t-22.5 -119.5t22.5 -119
t63 -96t95 -64.5t119.5 -23.5q64 0 119 23.5t95.5 64.5t63 96t22.5 119t-22.5 119.5t-63 96.5t-95.5 64.5t-119 23.5zM400 732q-22 0 -43.5 6t-39 17.5t-29.5 29t-15 41.5h40q8 -29 34 -40.5t53 -11.5t53 11.5t34 40.5h40q-3 -24 -15 -41.5t-29.5 -29t-39 -17.5t-43.5 -6z
" />
    <glyph glyph-name="obreve" unicode="&#x14f;" horiz-adv-x="520" 
d="M46 203q0 45 16.5 84.5t45 68t68 45t84.5 16.5t84.5 -16.5t68 -45t45 -68t16.5 -84.5t-16.5 -84.5t-45 -68t-68 -45t-84.5 -16.5t-84.5 16.5t-68 45t-45 68t-16.5 84.5zM260 379q-37 0 -68.5 -13.5t-54.5 -37.5t-36 -56t-13 -69t13 -69t36 -56t54.5 -37.5t68.5 -13.5
t68.5 13.5t54.5 37.5t36 56t13 69t-13 69t-36 56t-54.5 37.5t-68.5 13.5zM260 479q-22 0 -43 6t-38.5 18t-29 29.5t-14.5 40.5h38q7 -29 33.5 -42.5t53.5 -13.5t53.5 13.5t33.5 42.5h38q-3 -23 -15 -40.5t-29 -29.5t-38 -18t-43 -6z" />
    <glyph glyph-name="Ohungarumlaut" unicode="&#x150;" horiz-adv-x="800" 
d="M54 332q0 72 26.5 134.5t73 109t110 73.5t136.5 27t136.5 -27t110 -73.5t73 -109t26.5 -134.5t-26.5 -134.5t-73 -109t-110 -73t-136.5 -26.5q-74 0 -137 26.5t-109.5 73t-73 109t-26.5 134.5zM400 636q-65 0 -119.5 -23.5t-95 -64.5t-63 -96.5t-22.5 -119.5t22.5 -119
t63 -96t95 -64.5t119.5 -23.5q64 0 119 23.5t95.5 64.5t63 96t22.5 119t-22.5 119.5t-63 96.5t-95.5 64.5t-119 23.5zM427 718l84 136l52 -26l-100 -125zM306 718l84 136l52 -26l-100 -125z" />
    <glyph glyph-name="ohungarumlaut" unicode="&#x151;" horiz-adv-x="520" 
d="M46 203q0 45 16.5 84.5t45 68t68 45t84.5 16.5t84.5 -16.5t68 -45t45 -68t16.5 -84.5t-16.5 -84.5t-45 -68t-68 -45t-84.5 -16.5t-84.5 16.5t-68 45t-45 68t-16.5 84.5zM260 379q-37 0 -68.5 -13.5t-54.5 -37.5t-36 -56t-13 -69t13 -69t36 -56t54.5 -37.5t68.5 -13.5
t68.5 13.5t54.5 37.5t36 56t13 69t-13 69t-36 56t-54.5 37.5t-68.5 13.5zM286 483l84 137l42 -25l-99 -128zM175 483l84 137l42 -25l-99 -128z" />
    <glyph glyph-name="OE" unicode="&#x152;" horiz-adv-x="1072" 
d="M401 -11q-71 0 -134.5 27t-111 74t-75 109t-27.5 133q0 72 27.5 134.5t74.5 109t110 73.5t135 27q97 0 175 -48t124 -135v174h319v-40h-275v-242h268v-40h-268v-305h275v-40h-319v171q-45 -85 -123.5 -133.5t-174.5 -48.5zM401 636q-63 0 -118 -24t-96 -65t-64.5 -96.5
t-23.5 -118.5q0 -62 23.5 -117t64.5 -96.5t95.5 -65.5t116.5 -24q61 0 116 24t95.5 65.5t64.5 96.5t24 117q0 49 -19 102.5t-56.5 98.5t-93 74t-129.5 29z" />
    <glyph glyph-name="oe" unicode="&#x153;" horiz-adv-x="869" 
d="M259 -11q-44 0 -82.5 17t-67.5 46t-46 67.5t-17 82.5q0 45 17 84t46 68t68 46t83 17q64 0 113.5 -32t77.5 -88q22 57 69.5 88.5t107.5 31.5q42 0 77.5 -15.5t62 -44t41 -68.5t14.5 -88h-349q0 -39 12.5 -71.5t34 -55t51 -35t63.5 -12.5q53 0 88.5 27.5t53.5 66.5l33 -20
q-5 -10 -17 -28.5t-33.5 -37t-53 -32.5t-75.5 -14q-9 0 -31.5 2.5t-49.5 14t-54 36t-45 68.5q-29 -55 -78 -88t-114 -33zM88 203q0 -37 13 -69t35.5 -56t54 -37.5t67.5 -13.5q37 0 68.5 13.5t55 36.5t37 55t13.5 68q0 38 -13.5 70.5t-36.5 56.5t-54.5 38t-68.5 14
q-36 0 -67.5 -13.5t-54.5 -37.5t-36 -56t-13 -69zM781 239q-9 66 -52 103t-100 37t-99.5 -36.5t-52.5 -103.5h304z" />
    <glyph glyph-name="Racute" unicode="&#x154;" horiz-adv-x="468" 
d="M186 667q38 0 73 -5.5t68 -28.5q39 -27 54 -65.5t15 -77.5q0 -44 -15 -77t-41.5 -54.5t-62 -32.5t-75.5 -11l218 -315h-50l-216 315h-20v-315h-44v667h96zM198 355q72 0 112 35.5t40 100.5q0 39 -12 65t-34 42t-51.5 22.5t-63.5 6.5h-55v-272h64zM184 721l116 133l50 -25
l-134 -126z" />
    <glyph glyph-name="racute" unicode="&#x155;" horiz-adv-x="260" 
d="M112 408v-53q11 26 34 44t56 18q8 0 20 -2t23 -8l-20 -36q-3 2 -9.5 5t-20.5 3q-31 0 -47.5 -18t-24.5 -43t-9.5 -52.5t-1.5 -46.5v-219h-40v408h40zM113 483l92 137l43 -25l-105 -128z" />
    <glyph glyph-name="uni0156" unicode="&#x156;" horiz-adv-x="468" 
d="M90 667h96q38 0 73 -5.5t68 -28.5q39 -27 54 -65.5t15 -77.5q0 -44 -15 -77t-41.5 -54.5t-62 -32.5t-75.5 -11l218 -315h-50l-216 315h-20v-315h-44v667zM134 627v-272h64q72 0 112 35.5t40 100.5q0 39 -12 65t-34 42t-51.5 22.5t-63.5 6.5h-55zM223 -50l44 -14l-62 -136
l-28 10z" />
    <glyph glyph-name="uni0157" unicode="&#x157;" horiz-adv-x="260" 
d="M72 0v408h40v-53q11 26 34 44t56 18q8 0 20 -2t23 -8l-20 -36q-3 2 -9.5 5t-20.5 3q-31 0 -47.5 -18t-24.5 -43t-9.5 -52.5t-1.5 -46.5v-219h-40zM72 -190l46 140l44 -14l-62 -136z" />
    <glyph glyph-name="Rcaron" unicode="&#x158;" horiz-adv-x="468" 
d="M90 667h96q38 0 73 -5.5t68 -28.5q39 -27 54 -65.5t15 -77.5q0 -44 -15 -77t-41.5 -54.5t-62 -32.5t-75.5 -11l218 -315h-50l-216 315h-20v-315h-44v667zM134 355h64q72 0 112 35.5t40 100.5q0 39 -12 65t-34 42t-51.5 22.5t-63.5 6.5h-55v-272zM114 839l96 -64l96 64
l34 -27l-130 -90l-130 90z" />
    <glyph glyph-name="rcaron" unicode="&#x159;" horiz-adv-x="260" 
d="M72 0v408h40v-53q11 26 34 44t56 18q8 0 20 -2t23 -8l-20 -36q-3 2 -9.5 5t-20.5 3q-31 0 -47.5 -18t-24.5 -43t-9.5 -52.5t-1.5 -46.5v-219h-40zM60 585l90 -68l90 68l32 -26l-122 -94l-122 94z" />
    <glyph glyph-name="Sacute" unicode="&#x15a;" horiz-adv-x="514" 
d="M252 -11q-70 0 -122.5 39t-75.5 104l38 18q19 -54 60.5 -87.5t100.5 -33.5q34 0 63 11.5t51 32.5t34.5 49t12.5 61q0 27 -13 54.5t-52 50.5q-29 17 -113 58q-28 13 -54 27.5t-45.5 33t-31.5 43.5t-12 60q0 29 10 58.5t31 53.5t53 39t77 15q51 0 93.5 -23.5t68.5 -71.5
l-32 -27q-15 30 -35 46.5t-39 24.5t-34.5 9.5t-22.5 1.5q-30 0 -53 -10t-38.5 -27t-24 -39.5t-8.5 -47.5q0 -27 9 -46t24.5 -33t37 -26t46.5 -24t44 -21t34.5 -17t28.5 -15.5t26 -16.5q11 -8 23.5 -18.5t23 -26t17.5 -36t7 -48.5q0 -42 -16.5 -77.5t-45 -62t-66 -41
t-80.5 -14.5zM336 854l50 -25l-134 -126l-32 18z" />
    <glyph glyph-name="sacute" unicode="&#x15b;" horiz-adv-x="334" 
d="M69 109q11 -41 39.5 -61.5t62.5 -20.5q39 0 65 25t26 65q0 17 -5.5 29.5t-17 22.5t-28.5 18.5t-40 17.5q-19 7 -38 16t-34.5 21.5t-25 29t-9.5 40.5q0 47 31 76t78 29q36 0 64.5 -16.5t42.5 -49.5l-34 -18q-11 24 -30 35t-41 11q-17 0 -30 -6t-21.5 -15.5t-13 -21
t-4.5 -22.5q0 -30 21 -43.5t51 -25.5q31 -12 58 -23.5t47 -36.5q13 -16 17 -32.5t4 -33.5q0 -35 -12 -59.5t-31 -40.5t-42.5 -23t-47.5 -7q-51 0 -89.5 28.5t-51.5 79.5zM237 620l43 -25l-105 -128l-30 16z" />
    <glyph glyph-name="Scircumflex" unicode="&#x15c;" horiz-adv-x="514" 
d="M252 -11q-70 0 -122.5 39t-75.5 104l38 18q19 -54 60.5 -87.5t100.5 -33.5q34 0 63 11.5t51 32.5t34.5 49t12.5 61q0 27 -13 54.5t-52 50.5q-29 17 -113 58q-28 13 -54 27.5t-45.5 33t-31.5 43.5t-12 60q0 29 10 58.5t31 53.5t53 39t77 15q51 0 93.5 -23.5t68.5 -71.5
l-32 -27q-15 30 -35 46.5t-39 24.5t-34.5 9.5t-22.5 1.5q-30 0 -53 -10t-38.5 -27t-24 -39.5t-8.5 -47.5q0 -27 9 -46t24.5 -33t37 -26t46.5 -24t44 -21t34.5 -17t28.5 -15.5t26 -16.5q11 -8 23.5 -18.5t23 -26t17.5 -36t7 -48.5q0 -42 -16.5 -77.5t-45 -62t-66 -41
t-80.5 -14.5zM140 749l130 90l130 -90l-34 -27l-96 64l-96 -64z" />
    <glyph glyph-name="scircumflex" unicode="&#x15d;" horiz-adv-x="334" 
d="M171 -11q-51 0 -89.5 28.5t-51.5 79.5l39 12q11 -41 39.5 -61.5t62.5 -20.5q39 0 65 25t26 65q0 17 -5.5 29.5t-17 22.5t-28.5 18.5t-40 17.5q-19 7 -38 16t-34.5 21.5t-25 29t-9.5 40.5q0 47 31 76t78 29q36 0 64.5 -16.5t42.5 -49.5l-34 -18q-11 24 -30 35t-41 11
q-17 0 -30 -6t-21.5 -15.5t-13 -21t-4.5 -22.5q0 -30 21 -43.5t51 -25.5q31 -12 58 -23.5t47 -36.5q13 -16 17 -32.5t4 -33.5q0 -35 -12 -59.5t-31 -40.5t-42.5 -23t-47.5 -7zM176 586l122 -94l-32 -25l-90 68l-90 -68l-32 25z" />
    <glyph glyph-name="Scedilla" unicode="&#x15e;" horiz-adv-x="514" 
d="M252 -11q-70 0 -122.5 39t-75.5 104l38 18q19 -54 60.5 -87.5t100.5 -33.5q34 0 63 11.5t51 32.5t34.5 49t12.5 61q0 27 -13 54.5t-52 50.5q-29 17 -113 58q-28 13 -54 27.5t-45.5 33t-31.5 43.5t-12 60q0 29 10 58.5t31 53.5t53 39t77 15q51 0 93.5 -23.5t68.5 -71.5
l-32 -27q-15 30 -35 46.5t-39 24.5t-34.5 9.5t-22.5 1.5q-30 0 -53 -10t-38.5 -27t-24 -39.5t-8.5 -47.5q0 -27 9 -46t24.5 -33t37 -26t46.5 -24t44 -21t34.5 -17t28.5 -15.5t26 -16.5q11 -8 23.5 -18.5t23 -26t17.5 -36t7 -48.5q0 -42 -16.5 -77.5t-45 -62t-66 -41
t-80.5 -14.5zM158 -184l92 134l46 -26l-108 -126z" />
    <glyph glyph-name="scedilla" unicode="&#x15f;" horiz-adv-x="334" 
d="M171 -11q-51 0 -89.5 28.5t-51.5 79.5l39 12q11 -41 39.5 -61.5t62.5 -20.5q39 0 65 25t26 65q0 17 -5.5 29.5t-17 22.5t-28.5 18.5t-40 17.5q-19 7 -38 16t-34.5 21.5t-25 29t-9.5 40.5q0 47 31 76t78 29q36 0 64.5 -16.5t42.5 -49.5l-34 -18q-11 24 -30 35t-41 11
q-17 0 -30 -6t-21.5 -15.5t-13 -21t-4.5 -22.5q0 -30 21 -43.5t51 -25.5q31 -12 58 -23.5t47 -36.5q13 -16 17 -32.5t4 -33.5q0 -35 -12 -59.5t-31 -40.5t-42.5 -23t-47.5 -7zM88 -178l82 128l46 -20l-100 -124z" />
    <glyph glyph-name="Scaron" unicode="&#x160;" horiz-adv-x="514" 
d="M92 150q19 -54 60.5 -87.5t100.5 -33.5q34 0 63 11.5t51 32.5t34.5 49t12.5 61q0 27 -13 54.5t-52 50.5q-29 17 -113 58q-28 13 -54 27.5t-45.5 33t-31.5 43.5t-12 60q0 29 10 58.5t31 53.5t53 39t77 15q51 0 93.5 -23.5t68.5 -71.5l-32 -27q-15 30 -35 46.5t-39 24.5
t-34.5 9.5t-22.5 1.5q-30 0 -53 -10t-38.5 -27t-24 -39.5t-8.5 -47.5q0 -27 9 -46t24.5 -33t37 -26t46.5 -24t44 -21t34.5 -17t28.5 -15.5t26 -16.5q11 -8 23.5 -18.5t23 -26t17.5 -36t7 -48.5q0 -42 -16.5 -77.5t-45 -62t-66 -41t-80.5 -14.5q-70 0 -122.5 39t-75.5 104z
M132 812l34 27l96 -64l96 64l34 -27l-130 -90z" />
    <glyph glyph-name="scaron" unicode="&#x161;" horiz-adv-x="334" 
d="M171 -11q-51 0 -89.5 28.5t-51.5 79.5l39 12q11 -41 39.5 -61.5t62.5 -20.5q39 0 65 25t26 65q0 17 -5.5 29.5t-17 22.5t-28.5 18.5t-40 17.5q-19 7 -38 16t-34.5 21.5t-25 29t-9.5 40.5q0 47 31 76t78 29q36 0 64.5 -16.5t42.5 -49.5l-34 -18q-11 24 -30 35t-41 11
q-17 0 -30 -6t-21.5 -15.5t-13 -21t-4.5 -22.5q0 -30 21 -43.5t51 -25.5q31 -12 58 -23.5t47 -36.5q13 -16 17 -32.5t4 -33.5q0 -35 -12 -59.5t-31 -40.5t-42.5 -23t-47.5 -7zM84 585l90 -68l90 68l32 -26l-122 -94l-122 94z" />
    <glyph glyph-name="uni0162" unicode="&#x162;" horiz-adv-x="418" 
d="M14 667h390v-40h-173v-627h-44v627h-173v40zM210 -50l46 -26l-108 -126l-30 18z" />
    <glyph glyph-name="uni0163" unicode="&#x163;" horiz-adv-x="194" 
d="M30 370v38h45v146h40v-146h71v-38h-71v-370h-40v370h-45zM88 -50l46 -20l-100 -124l-28 16z" />
    <glyph glyph-name="Tcaron" unicode="&#x164;" horiz-adv-x="418" 
d="M14 627v40h390v-40h-173v-627h-44v627h-173zM113 839l96 -64l96 64l34 -27l-130 -90l-130 90z" />
    <glyph glyph-name="tcaron" unicode="&#x165;" horiz-adv-x="206" 
d="M30 370v38h45v146h40v-146h71v-38h-71v-370h-40v370h-45zM146 520l46 160l44 -14l-62 -156z" />
    <glyph glyph-name="Utilde" unicode="&#x168;" horiz-adv-x="634" 
d="M134 667v-417q0 -48 4.5 -81t23.5 -63q15 -24 35 -39t41 -23.5t42 -11.5t37 -3t37 3t42 11.5t41 23.5t35 39q19 30 23.5 63t4.5 81v417h44v-417q0 -27 -1 -50.5t-5 -44t-11.5 -39t-20.5 -37.5q-19 -27 -42.5 -44.5t-48.5 -27.5t-50.5 -14t-47.5 -4q-23 0 -48 4t-50 14
t-48.5 27.5t-42.5 44.5q-26 37 -32 76.5t-6 94.5v417h44zM191 738q8 26 27 41.5t46 15.5q18 0 32.5 -6t27 -13t24.5 -13t27 -6q17 0 28.5 14.5t13.5 25.5l26 -20q-6 -23 -23 -40t-43 -17q-17 0 -30.5 6t-26.5 13t-27 13t-32 6q-15 0 -27 -12t-15 -27z" />
    <glyph glyph-name="utilde" unicode="&#x169;" horiz-adv-x="438" 
d="M112 408v-246q0 -28 4.5 -52.5t16.5 -43t33 -29t53 -10.5t53 10.5t33 29t16.5 43t4.5 52.5v246h40v-257q0 -72 -35 -117t-112 -45t-112 45t-35 117v257h40zM92 506q8 26 27 41.5t46 15.5q18 0 32.5 -6t27 -13t24.5 -13t27 -6q17 0 28.5 14.5t13.5 25.5l26 -20
q-6 -23 -23 -40t-43 -17q-17 0 -30.5 6t-26.5 13t-27 13t-32 6q-15 0 -27 -12t-15 -27z" />
    <glyph glyph-name="Umacron" unicode="&#x16a;" horiz-adv-x="634" 
d="M134 667v-417q0 -48 4.5 -81t23.5 -63q15 -24 35 -39t41 -23.5t42 -11.5t37 -3t37 3t42 11.5t41 23.5t35 39q19 30 23.5 63t4.5 81v417h44v-417q0 -27 -1 -50.5t-5 -44t-11.5 -39t-20.5 -37.5q-19 -27 -42.5 -44.5t-48.5 -27.5t-50.5 -14t-47.5 -4q-23 0 -48 4t-50 14
t-48.5 27.5t-42.5 44.5q-26 37 -32 76.5t-6 94.5v417h44zM452 794v-44h-270v44h270z" />
    <glyph glyph-name="umacron" unicode="&#x16b;" horiz-adv-x="438" 
d="M112 408v-246q0 -28 4.5 -52.5t16.5 -43t33 -29t53 -10.5t53 10.5t33 29t16.5 43t4.5 52.5v246h40v-257q0 -72 -35 -117t-112 -45t-112 45t-35 117v257h40zM84 493v39h270v-39h-270z" />
    <glyph glyph-name="Ubreve" unicode="&#x16c;" horiz-adv-x="634" 
d="M134 667v-417q0 -48 4.5 -81t23.5 -63q15 -24 35 -39t41 -23.5t42 -11.5t37 -3t37 3t42 11.5t41 23.5t35 39q19 30 23.5 63t4.5 81v417h44v-417q0 -27 -1 -50.5t-5 -44t-11.5 -39t-20.5 -37.5q-19 -27 -42.5 -44.5t-48.5 -27.5t-50.5 -14t-47.5 -4q-23 0 -48 4t-50 14
t-48.5 27.5t-42.5 44.5q-26 37 -32 76.5t-6 94.5v417h44zM317 732q-22 0 -43.5 6t-39 17.5t-29.5 29t-15 41.5h40q8 -29 34 -40.5t53 -11.5t53 11.5t34 40.5h40q-3 -24 -15 -41.5t-29.5 -29t-39 -17.5t-43.5 -6z" />
    <glyph glyph-name="ubreve" unicode="&#x16d;" horiz-adv-x="438" 
d="M112 408v-246q0 -28 4.5 -52.5t16.5 -43t33 -29t53 -10.5t53 10.5t33 29t16.5 43t4.5 52.5v246h40v-257q0 -72 -35 -117t-112 -45t-112 45t-35 117v257h40zM219 479q-22 0 -43 6t-38.5 18t-29 29.5t-14.5 40.5h38q7 -29 33.5 -42.5t53.5 -13.5t53.5 13.5t33.5 42.5h38
q-3 -23 -15 -40.5t-29 -29.5t-38 -18t-43 -6z" />
    <glyph glyph-name="Uring" unicode="&#x16e;" horiz-adv-x="634" 
d="M90 667h44v-417q0 -48 4.5 -81t23.5 -63q15 -24 35 -39t41 -23.5t42 -11.5t37 -3t37 3t42 11.5t41 23.5t35 39q19 30 23.5 63t4.5 81v417h44v-417q0 -27 -1 -50.5t-5 -44t-11.5 -39t-20.5 -37.5q-19 -27 -42.5 -44.5t-48.5 -27.5t-50.5 -14t-47.5 -4q-23 0 -48 4t-50 14
t-48.5 27.5t-42.5 44.5q-26 37 -32 76.5t-6 94.5v417zM237 787q0 33 23.5 56.5t56.5 23.5t56.5 -23.5t23.5 -56.5t-23.5 -56.5t-56.5 -23.5t-56.5 23.5t-23.5 56.5zM276 787q0 -18 11.5 -29.5t29.5 -11.5t29.5 11.5t11.5 29.5t-11.5 29.5t-29.5 11.5t-29.5 -11.5
t-11.5 -29.5z" />
    <glyph glyph-name="uring" unicode="&#x16f;" horiz-adv-x="438" 
d="M72 408h40v-246q0 -28 4.5 -52.5t16.5 -43t33 -29t53 -10.5t53 10.5t33 29t16.5 43t4.5 52.5v246h40v-257q0 -72 -35 -117t-112 -45t-112 45t-35 117v257zM142 549q0 33 22 55t55 22t55 -22t22 -55t-22 -55t-55 -22t-55 22t-22 55zM178 549q0 -18 11.5 -29.5t29.5 -11.5
t29.5 11.5t11.5 29.5t-11.5 29.5t-29.5 11.5t-29.5 -11.5t-11.5 -29.5z" />
    <glyph glyph-name="Uhungarumlaut" unicode="&#x170;" horiz-adv-x="634" 
d="M90 667h44v-417q0 -48 4.5 -81t23.5 -63q15 -24 35 -39t41 -23.5t42 -11.5t37 -3t37 3t42 11.5t41 23.5t35 39q19 30 23.5 63t4.5 81v417h44v-417q0 -27 -1 -50.5t-5 -44t-11.5 -39t-20.5 -37.5q-19 -27 -42.5 -44.5t-48.5 -27.5t-50.5 -14t-47.5 -4q-23 0 -48 4t-50 14
t-48.5 27.5t-42.5 44.5q-26 37 -32 76.5t-6 94.5v417zM344 718l84 136l52 -26l-100 -125zM307 854l52 -26l-100 -125l-36 15z" />
    <glyph glyph-name="uhungarumlaut" unicode="&#x171;" horiz-adv-x="438" 
d="M72 408h40v-246q0 -28 4.5 -52.5t16.5 -43t33 -29t53 -10.5t53 10.5t33 29t16.5 43t4.5 52.5v246h40v-257q0 -72 -35 -117t-112 -45t-112 45t-35 117v257zM245 483l84 137l42 -25l-99 -128zM134 483l84 137l42 -25l-99 -128z" />
    <glyph glyph-name="Uogonek" unicode="&#x172;" horiz-adv-x="634" 
d="M134 667v-427q0 -45 8 -87t42 -75q24 -23 59 -36t74 -13q44 0 78 14t57 37q18 18 27.5 39t14 43t5.5 44.5t1 43.5v417h44v-417q0 -47 -4.5 -82.5t-18.5 -64t-39 -52t-67 -47.5q-15 -8 -30 -17.5t-28 -21.5t-21 -27.5t-8 -34.5q0 -27 18 -38t42 -11q13 0 26 2t26 7l-9 -37
q-11 -4 -21 -6t-24 -2q-20 0 -38 5t-31.5 15t-22 26t-8.5 37q0 26 15 50t36 39q-57 0 -102.5 11.5t-83.5 49.5q-20 20 -32 41t-18.5 44.5t-8.5 49t-2 54.5v427h44z" />
    <glyph glyph-name="uogonek" unicode="&#x173;" horiz-adv-x="438" 
d="M72 408h40v-246q0 -28 4.5 -52.5t16.5 -43t33 -29t53 -10.5t53 10.5t33 29t16.5 43t4.5 52.5v246h40v-257q0 -36 -6 -62.5t-25 -49.5q-14 -17 -26.5 -25t-27.5 -17q-24 -15 -47 -39t-23 -55q0 -27 17.5 -38t42.5 -11q26 0 52 9l-9 -36q-11 -4 -22 -6t-23 -2q-19 0 -36 5
t-30.5 15.5t-21.5 25.5t-8 36q0 27 15 49.5t35 38.5q-79 0 -115 43.5t-36 118.5v257z" />
    <glyph glyph-name="Ydieresis" unicode="&#x178;" horiz-adv-x="516" 
d="M14 667h50l192 -337l196 337h50l-225 -382v-285h-44v285zM351 742q-16 0 -27 11t-11 27t11 27t27 11t27 -11t11 -27t-11 -27t-27 -11zM165 742q-16 0 -27 11t-11 27t11 27t27 11t27 -11t11 -27t-11 -27t-27 -11z" />
    <glyph glyph-name="Zacute" unicode="&#x179;" horiz-adv-x="554" 
d="M111 40h395v-40h-469l406 627h-367v40h441zM406 829l-134 -126l-32 18l116 133z" />
    <glyph glyph-name="zacute" unicode="&#x17a;" horiz-adv-x="452" 
d="M104 38h328v-38h-414l334 370h-282v38h364zM338 595l-105 -128l-30 16l92 137z" />
    <glyph glyph-name="Zdotaccent" unicode="&#x17b;" horiz-adv-x="554" 
d="M443 627h-367v40h441l-406 -627h395v-40h-469zM290 740q-18 0 -29.5 11.5t-11.5 29.5t11.5 29.5t29.5 11.5t29.5 -11.5t11.5 -29.5t-11.5 -29.5t-29.5 -11.5z" />
    <glyph glyph-name="zdotaccent" unicode="&#x17c;" horiz-adv-x="452" 
d="M352 370h-282v38h364l-330 -370h328v-38h-414zM240 488q-17 0 -28 11t-11 28t11 28t28 11t28 -11t11 -28t-11 -28t-28 -11z" />
    <glyph glyph-name="Zcaron" unicode="&#x17d;" horiz-adv-x="554" 
d="M111 40h395v-40h-469l406 627h-367v40h441zM386 839l34 -27l-130 -90l-130 90l34 27l96 -64z" />
    <glyph glyph-name="zcaron" unicode="&#x17e;" horiz-adv-x="452" 
d="M104 38h328v-38h-414l334 370h-282v38h364zM330 585l32 -26l-122 -94l-122 94l32 26l90 -68z" />
    <glyph glyph-name="uni018F" unicode="&#x18f;" horiz-adv-x="773" 
d="M374 -11q-75 0 -134 24.5t-100.5 68.5t-63.5 105t-22 133h619v10q0 64 -22.5 119.5t-62.5 97t-95.5 65.5t-120.5 24q-38 0 -75.5 -10t-71 -29t-61.5 -45.5t-47 -59.5l-35 28q52 73 125 114.5t164 41.5q73 0 136.5 -26t110.5 -72t74 -109t27 -137q0 -75 -26.5 -137.5
t-72.5 -108.5t-109.5 -71.5t-136.5 -25.5zM100 280q3 -57 24.5 -103.5t58.5 -79t86 -50.5t106 -18q60 0 110.5 20t88.5 54.5t62.5 80t32.5 96.5h-569z" />
    <glyph glyph-name="florin" unicode="&#x192;" horiz-adv-x="548" 
d="M35 -109q29 -13 56 -13q17 0 29 4.5t20 12.5q7 7 15 24t16 60l75 391h-62l7 38h62l45 235q8 44 31 70.5t71 26.5q19 0 33 -4.5t25 -9.5l-8 -36q-13 7 -24 9.5t-22 2.5q-30 0 -46 -15t-21 -44l-44 -235h101l-7 -38h-101l-72 -385q-5 -28 -12 -54t-19.5 -46.5t-33.5 -32.5
t-54 -12q-23 0 -40.5 4.5t-27.5 9.5z" />
    <glyph glyph-name="Ohorn" unicode="&#x1a0;" horiz-adv-x="800" 
d="M54 332q0 72 26.5 134.5t73 109t110 73.5t136.5 27q39 0 74 -4.5t64 -4.5q15 0 24.5 6t14.5 15.5t7 22t2 24.5h42q0 -46 -18 -68.5t-46 -30.5q41 -22 74.5 -53.5t57.5 -70.5t37 -84.5t13 -95.5q0 -72 -26.5 -134.5t-73 -109t-110 -73t-136.5 -26.5q-74 0 -137 26.5
t-109.5 73t-73 109t-26.5 134.5zM400 636q-65 0 -119.5 -23.5t-95 -64.5t-63 -96.5t-22.5 -119.5t22.5 -119t63 -96t95 -64.5t119.5 -23.5q64 0 119 23.5t95.5 64.5t63 96t22.5 119t-22.5 119.5t-63 96.5t-95.5 64.5t-119 23.5z" />
    <glyph glyph-name="ohorn" unicode="&#x1a1;" horiz-adv-x="520" 
d="M46 203q0 45 16.5 84.5t45 68t68 45t84.5 16.5q30 0 50 -3.5t48 -5.5q15 0 24.5 6t14.5 15.5t7 22t2 24.5h42q0 -46 -17.5 -68.5t-44.5 -30.5q41 -29 64.5 -74t23.5 -100q0 -45 -16.5 -84.5t-45 -68t-68 -45t-84.5 -16.5t-84.5 16.5t-68 45t-45 68t-16.5 84.5zM260 379
q-37 0 -68.5 -13.5t-54.5 -37.5t-36 -56t-13 -69t13 -69t36 -56t54.5 -37.5t68.5 -13.5t68.5 13.5t54.5 37.5t36 56t13 69t-13 69t-36 56t-54.5 37.5t-68.5 13.5z" />
    <glyph glyph-name="Uhorn" unicode="&#x1af;" horiz-adv-x="634" 
d="M128 79q-26 37 -32 76.5t-6 94.5v417h44v-417q0 -48 4.5 -81t23.5 -63q15 -24 35 -39t41 -23.5t42 -11.5t37 -3t37 3t42 11.5t41 23.5t35 39q19 30 23.5 63t4.5 81v417h31q28 1 36.5 22.5t8.5 45.5h42q0 -50 -21.5 -73t-52.5 -29v-383q0 -27 -1 -50.5t-5 -44t-11.5 -39
t-20.5 -37.5q-19 -27 -42.5 -44.5t-48.5 -27.5t-50.5 -14t-47.5 -4q-23 0 -48 4t-50 14t-48.5 27.5t-42.5 44.5z" />
    <glyph glyph-name="uhorn" unicode="&#x1b0;" horiz-adv-x="438" 
d="M219 -11q-77 0 -112 45t-35 117v257h40v-246q0 -28 4.5 -52.5t16.5 -43t33 -29t53 -10.5t53 10.5t33 29t16.5 43t4.5 52.5v246h22q15 0 24.5 6t14.5 15.5t7 22t2 24.5h42q0 -50 -20.5 -72.5t-51.5 -28.5v-224q0 -72 -35 -117t-112 -45z" />
    <glyph glyph-name="uni01CF" unicode="&#x1cf;" horiz-adv-x="224" 
d="M134 667v-667h-44v667h44zM192 839l35 -28l-115 -89l-115 89l35 28l80 -60z" />
    <glyph glyph-name="uni01D0" unicode="&#x1d0;" horiz-adv-x="184" 
d="M112 408v-408h-40v408h40zM162 583l30 -26l-100 -86l-100 86l30 26l70 -60z" />
    <glyph glyph-name="uni01DD" unicode="&#x1dd;" horiz-adv-x="483" 
d="M239 -11q-41 0 -76.5 15t-61.5 43.5t-40.5 68.5t-14.5 91h349q0 42 -13 74t-35.5 54t-52 33t-61.5 11q-50 0 -86 -26t-56 -67l-34 20q9 17 24 36.5t36.5 36t51 27.5t67.5 11q48 0 85 -16.5t63 -45.5t39.5 -67.5t13.5 -83.5q0 -53 -17 -93.5t-44.5 -67.5t-63.5 -40.5
t-73 -13.5zM88 169q4 -30 16.5 -56t32.5 -45t46 -30t56 -11q31 0 57.5 11t46 30.5t32.5 45t17 55.5h-304z" />
    <glyph glyph-name="Gcaron" unicode="&#x1e6;" horiz-adv-x="772" 
d="M54 332q0 74 27 137t74 109t110.5 72t136.5 26q91 0 164 -41.5t125 -114.5l-35 -28q-20 33 -47.5 59.5t-61 45.5t-71 29t-75.5 10q-64 0 -119 -24t-95.5 -65.5t-63.5 -97t-23 -119.5q0 -63 22.5 -117.5t62 -95.5t94 -64.5t119.5 -23.5q57 0 106 18t86 50.5t59 79
t25 103.5h-236v40h280q0 -73 -21.5 -133.5t-63 -104.5t-100.5 -68.5t-134 -24.5q-74 0 -137 25.5t-109 71.5t-72.5 108.5t-26.5 137.5zM290 839l96 -64l96 64l34 -27l-130 -90l-130 90z" />
    <glyph glyph-name="gcaron" unicode="&#x1e7;" horiz-adv-x="520" 
d="M243 -230q-40 0 -75.5 11.5t-62.5 33.5t-43.5 55t-18.5 75h42q5 -64 49 -100.5t109 -36.5q60 0 93.5 26t49.5 60.5t19 68t3 49.5v58q-31 -43 -74 -62t-87 -19q-38 0 -74 13.5t-64 40.5t-45.5 67.5t-17.5 93.5q0 44 14 83t41 68t65 45.5t86 16.5q51 0 90.5 -21t65.5 -59
v71h40v-396q0 -116 -54 -179t-151 -63zM88 202q0 -37 11 -69t32 -55.5t50 -37t65 -13.5q38 0 68.5 14t51.5 38t32.5 56.5t11.5 70.5q0 36 -11.5 67.5t-32.5 55t-51 37t-67 13.5q-38 0 -67.5 -14.5t-50 -39t-31.5 -56.5t-11 -67zM170 585l90 -68l90 68l32 -26l-122 -94
l-122 94z" />
    <glyph glyph-name="AEacute" unicode="&#x1fc;" horiz-adv-x="852" 
d="M283 667h289l17 -40h-275l99 -242h268l17 -40h-268l124 -305h273l18 -40h-322l-89 219h-285l-87 -219h-48zM165 259h252l-127 314zM492 854l50 -25l-134 -126l-32 18z" />
    <glyph glyph-name="aeacute" unicode="&#x1fd;" horiz-adv-x="792" 
d="M217 -11q-43 0 -75.5 11t-54 28.5t-32 40.5t-10.5 47q0 19 8 42t28.5 42t55 32t87.5 13q34 0 67 -7.5t64 -34.5q0 79 -33 127.5t-109 48.5q-38 0 -75.5 -11.5t-63.5 -25.5v41q29 14 64.5 24t76.5 10q57 0 100 -28.5t63 -85.5q26 52 71.5 83t103.5 31q36 0 70.5 -13.5
t61.5 -40.5t44 -68.5t18 -96.5h-350q1 -39 13 -70.5t33 -54t50 -34.5t62 -12q28 0 51.5 8.5t41.5 22t31.5 29.5t22.5 32l34 -24q-28 -44 -73.5 -75t-108.5 -31q-60 0 -102.5 28t-65.5 74q-17 -52 -62 -77t-107 -25zM223 207q-69 0 -102.5 -27t-33.5 -64q0 -35 32 -62t98 -27
q38 0 64 9t41.5 22.5t22.5 30t7 31.5q0 14 -6.5 29.5t-21.5 28t-39.5 21t-61.5 8.5zM552 379q-30 0 -55.5 -11t-45 -30.5t-32.5 -45.5t-17 -56h303q-5 30 -18 56.5t-33 45.5t-46 30t-56 11zM451 620l43 -25l-105 -128l-30 16z" />
    <glyph glyph-name="uni0218" unicode="&#x218;" horiz-adv-x="514" 
d="M252 -11q-70 0 -122.5 39t-75.5 104l38 18q19 -54 60.5 -87.5t100.5 -33.5q34 0 63 11.5t51 32.5t34.5 49t12.5 61q0 27 -13 54.5t-52 50.5q-29 17 -113 58q-28 13 -54 27.5t-45.5 33t-31.5 43.5t-12 60q0 29 10 58.5t31 53.5t53 39t77 15q51 0 93.5 -23.5t68.5 -71.5
l-32 -27q-15 30 -35 46.5t-39 24.5t-34.5 9.5t-22.5 1.5q-30 0 -53 -10t-38.5 -27t-24 -39.5t-8.5 -47.5q0 -27 9 -46t24.5 -33t37 -26t46.5 -24t44 -21t34.5 -17t28.5 -15.5t26 -16.5q11 -8 23.5 -18.5t23 -26t17.5 -36t7 -48.5q0 -42 -16.5 -77.5t-45 -62t-66 -41
t-80.5 -14.5zM239 -50l44 -14l-62 -136l-28 10z" />
    <glyph glyph-name="uni0219" unicode="&#x219;" horiz-adv-x="334" 
d="M171 -11q-51 0 -89.5 28.5t-51.5 79.5l39 12q11 -41 39.5 -61.5t62.5 -20.5q39 0 65 25t26 65q0 17 -5.5 29.5t-17 22.5t-28.5 18.5t-40 17.5q-19 7 -38 16t-34.5 21.5t-25 29t-9.5 40.5q0 47 31 76t78 29q36 0 64.5 -16.5t42.5 -49.5l-34 -18q-11 24 -30 35t-41 11
q-17 0 -30 -6t-21.5 -15.5t-13 -21t-4.5 -22.5q0 -30 21 -43.5t51 -25.5q31 -12 58 -23.5t47 -36.5q13 -16 17 -32.5t4 -33.5q0 -35 -12 -59.5t-31 -40.5t-42.5 -23t-47.5 -7zM104 -190l46 140l44 -14l-62 -136z" />
    <glyph glyph-name="uni021A" unicode="&#x21a;" horiz-adv-x="418" 
d="M14 627v40h390v-40h-173v-627h-44v627h-173zM199 -50l44 -14l-62 -136l-28 10z" />
    <glyph glyph-name="uni021B" unicode="&#x21b;" horiz-adv-x="194" 
d="M30 370v38h45v146h40v-146h71v-38h-71v-370h-40v370h-45zM42 -190l46 140l44 -14l-62 -136z" />
    <glyph glyph-name="uni0228" unicode="&#x228;" horiz-adv-x="464" 
d="M90 667h320v-40h-276v-242h270v-40h-270v-305h276v-40h-320v667zM160 -184l92 134l46 -26l-108 -126z" />
    <glyph glyph-name="uni0229" unicode="&#x229;" horiz-adv-x="483" 
d="M247 -11q-48 0 -85 16.5t-63 45.5t-39.5 67.5t-13.5 83.5q0 53 17 93.5t44.5 67.5t63 40.5t73.5 13.5q41 0 76.5 -16t61.5 -44.5t40.5 -68.5t14.5 -89h-349q0 -39 13 -71t35.5 -54.5t52 -34.5t61.5 -12q50 0 86 26t56 67l34 -20q-9 -17 -24 -36.5t-36.5 -36t-51 -27.5
t-67.5 -11zM244 379q-31 0 -57.5 -11t-46 -30.5t-32.5 -45t-17 -55.5h304q-4 30 -16.5 56t-32.5 45t-46 30t-56 11zM259 -50l46 -20l-100 -124l-28 16z" />
    <glyph glyph-name="uni0237" unicode="&#x237;" horiz-adv-x="184" 
d="M112 408v-638h-40v638h40z" />
    <glyph glyph-name="uni0259" unicode="&#x259;" horiz-adv-x="483" 
d="M239 -11q-41 0 -76.5 15t-61.5 43.5t-40.5 68.5t-14.5 91h349q0 42 -13 74t-35.5 54t-52 33t-61.5 11q-50 0 -86 -26t-56 -67l-34 20q9 17 24 36.5t36.5 36t51 27.5t67.5 11q48 0 85 -16.5t63 -45.5t39.5 -67.5t13.5 -83.5q0 -53 -17 -93.5t-44.5 -67.5t-63.5 -40.5
t-73 -13.5zM88 169q4 -30 16.5 -56t32.5 -45t46 -30t56 -11q31 0 57.5 11t46 30.5t32.5 45t17 55.5h-304z" />
    <glyph glyph-name="uni02BC" unicode="&#x2bc;" 
d="M238 680l44 -14l-62 -156l-28 10z" />
    <glyph glyph-name="circumflex" unicode="&#x2c6;" 
d="M160 467l-32 25l122 94l122 -94l-32 -25l-90 68z" />
    <glyph glyph-name="caron" unicode="&#x2c7;" 
d="M340 585l32 -26l-122 -94l-122 94l32 26l90 -68z" />
    <glyph glyph-name="uni02C9" unicode="&#x2c9;" 
d="M115 532h270v-39h-270v39z" />
    <glyph glyph-name="breve" unicode="&#x2d8;" 
d="M250 479q-22 0 -43 6t-38.5 18t-29 29.5t-14.5 40.5h38q7 -29 33.5 -42.5t53.5 -13.5t53.5 13.5t33.5 42.5h38q-3 -23 -15 -40.5t-29 -29.5t-38 -18t-43 -6z" />
    <glyph glyph-name="dotaccent" unicode="&#x2d9;" 
d="M211 527q0 17 11 28t28 11t28 -11t11 -28t-11 -28t-28 -11t-28 11t-11 28z" />
    <glyph glyph-name="ring" unicode="&#x2da;" 
d="M250 472q-33 0 -55 22t-22 55t22 55t55 22t55 -22t22 -55t-22 -55t-55 -22zM209 549q0 -18 11.5 -29.5t29.5 -11.5t29.5 11.5t11.5 29.5t-11.5 29.5t-29.5 11.5t-29.5 -11.5t-11.5 -29.5z" />
    <glyph glyph-name="ogonek" unicode="&#x2db;" 
d="M208 -99q0 33 20 57.5t46 41.5h40q-11 -8 -23 -18.5t-22 -23t-16.5 -26.5t-6.5 -29q0 -20 14 -34.5t46 -14.5q8 0 20 1.5t32 7.5l-9 -36q-8 -3 -19 -5.5t-26 -2.5q-26 0 -44 7.5t-29.5 19.5t-17 26.5t-5.5 28.5z" />
    <glyph glyph-name="tilde" unicode="&#x2dc;" 
d="M123 506q8 23 25.5 40t43.5 17q20 0 40 -8.5t32 -13.5q14 -6 25 -9.5t22 -3.5q16 0 27 12q7 8 10.5 16t3.5 9l25 -20q-8 -23 -26.5 -40t-44.5 -17q-11 0 -24.5 4.5t-33.5 12.5q-18 8 -31.5 13t-27.5 5q-17 0 -26.5 -10.5t-13.5 -25.5z" />
    <glyph glyph-name="hungarumlaut" unicode="&#x2dd;" 
d="M291 595l-99 -128l-27 16l84 137zM402 595l-99 -128l-27 16l84 137z" />
    <glyph glyph-name="acutecomb" unicode="&#x301;" horiz-adv-x="2" 
d="M-130 595l-105 -128l-30 16l92 137z" />
    <glyph glyph-name="uni0394" unicode="&#x394;" horiz-adv-x="628" 
d="M14 0l280 667h40l280 -667h-600zM80 40h468l-234 563z" />
    <glyph glyph-name="uni0394" unicode="&#x2206;" horiz-adv-x="628" 
d="M14 0l280 667h40l280 -667h-600zM80 40h468l-234 563z" />
    <glyph glyph-name="uni03A9" unicode="&#x3a9;" horiz-adv-x="666" 
d="M232 40q-44 22 -81 55.5t-64.5 74.5t-43 87.5t-15.5 96.5q0 66 22.5 124.5t62.5 102.5t96 69.5t124 25.5q67 0 123 -25.5t96.5 -69t63 -101.5t22.5 -123q0 -50 -15.5 -97.5t-42.5 -89t-64.5 -75t-81.5 -55.5h204v-40h-256v44q45 24 83 55t66.5 69.5t44.5 84t16 98.5
q0 56 -18.5 107.5t-52 91t-81.5 63t-107 23.5t-107 -23.5t-81.5 -63.5t-52 -91.5t-18.5 -107.5q0 -53 16 -98.5t44.5 -84t67 -69t82.5 -54.5v-44h-256v40h204v0z" />
    <glyph glyph-name="uni03A9" unicode="&#x2126;" horiz-adv-x="666" 
d="M232 40q-44 22 -81 55.5t-64.5 74.5t-43 87.5t-15.5 96.5q0 66 22.5 124.5t62.5 102.5t96 69.5t124 25.5q67 0 123 -25.5t96.5 -69t63 -101.5t22.5 -123q0 -50 -15.5 -97.5t-42.5 -89t-64.5 -75t-81.5 -55.5h204v-40h-256v44q45 24 83 55t66.5 69.5t44.5 84t16 98.5
q0 56 -18.5 107.5t-52 91t-81.5 63t-107 23.5t-107 -23.5t-81.5 -63.5t-52 -91.5t-18.5 -107.5q0 -53 16 -98.5t44.5 -84t67 -69t82.5 -54.5v-44h-256v40h204v0z" />
    <glyph glyph-name="pi" unicode="&#x3c0;" horiz-adv-x="492" 
d="M22 408h448v-38h-72v-370h-40v370h-224v-370h-40v370h-72v38z" />
    <glyph glyph-name="uni0401" unicode="&#x401;" horiz-adv-x="464" 
d="M90 0v667h320v-40h-276v-242h270v-40h-270v-305h276v-40h-320zM345 742q-16 0 -27 11t-11 27t11 27t27 11t27 -11t11 -27t-11 -27t-27 -11zM159 742q-16 0 -27 11t-11 27t11 27t27 11t27 -11t11 -27t-11 -27t-27 -11z" />
    <glyph glyph-name="uni0402" unicode="&#x402;" horiz-adv-x="616" 
d="M14 667h410v-40h-200v-262q14 5 51.5 14t85.5 9q98 0 153.5 -47t55.5 -147q0 -95 -50 -147.5t-144 -52.5q-16 0 -35 2t-33 4v40q17 -4 32 -5t31 -1q77 0 115 40t38 118t-41.5 117t-118.5 39q-33 0 -70.5 -6t-69.5 -17v-325h-44v627h-166v40z" />
    <glyph glyph-name="uni0403" unicode="&#x403;" horiz-adv-x="400" 
d="M90 667h296v-40h-252v-627h-44v667zM366 829l-134 -126l-32 18l116 133z" />
    <glyph glyph-name="uni0404" unicode="&#x404;" horiz-adv-x="678" 
d="M402 -11q-75 0 -139 27.5t-110.5 74.5t-72.5 109t-26 132q0 72 27 134.5t74 109t110 73.5t135 27q48 0 86 -11t66 -25.5t46 -29t26 -21.5v-58q-43 51 -101.5 78t-123.5 27q-57 0 -108.5 -20.5t-91.5 -56.5t-65.5 -86t-31.5 -109h442v-40h-444q1 -71 28.5 -125.5
t70.5 -92.5t95.5 -57.5t105.5 -19.5q25 0 53.5 5.5t58 17.5t58 31t54.5 47v-58q-51 -45 -109.5 -64t-112.5 -19z" />
    <glyph glyph-name="uni0405" unicode="&#x405;" horiz-adv-x="514" 
d="M252 -11q-70 0 -122.5 39t-75.5 104l38 18q19 -54 60.5 -87.5t100.5 -33.5q34 0 63 11.5t51 32.5t34.5 49t12.5 61q0 27 -13 54.5t-52 50.5q-29 17 -113 58q-33 16 -67 34.5t-55 53.5q-11 19 -16 37.5t-5 38.5q0 29 10 58.5t31 53.5t53 39t77 15q51 0 93.5 -23.5
t68.5 -71.5l-32 -27q-15 30 -35 46.5t-39 24.5t-34.5 9.5t-22.5 1.5q-30 0 -53 -10t-38.5 -27t-24 -39.5t-8.5 -47.5q0 -27 9 -46t24.5 -33t37 -26t46.5 -24t44 -21t34.5 -17t28.5 -15.5t26 -16.5q11 -8 23.5 -18.5t23 -26t17.5 -36t7 -48.5q0 -42 -16.5 -77.5t-45 -62
t-66 -41t-80.5 -14.5z" />
    <glyph glyph-name="uni0406" unicode="&#x406;" horiz-adv-x="224" 
d="M134 667v-667h-44v667h44z" />
    <glyph glyph-name="uni0407" unicode="&#x407;" horiz-adv-x="224" 
d="M90 0v667h44v-667h-44zM176 742q-16 0 -27 11t-11 27t11 27t27 11t27 -11t11 -27t-11 -27t-27 -11zM10 780q0 16 11 27t27 11t27 -11t11 -27t-11 -27t-27 -11t-27 11t-11 27z" />
    <glyph glyph-name="uni0408" unicode="&#x408;" horiz-adv-x="263" 
d="M-24 85q13 -24 33.5 -40t49.5 -16q22 0 36 9t21.5 23t10 32.5t2.5 36.5v537h44v-537q0 -30 -5.5 -56t-19 -44.5t-36 -29.5t-55.5 -11q-39 0 -65 19t-46 51z" />
    <glyph glyph-name="uni0409" unicode="&#x409;" horiz-adv-x="922" 
d="M54 -6q-9 0 -20 2t-20 4v40q8 -2 17 -4t20 -2q23 0 39 8t26 18q15 15 22.5 35t11 43.5t4 49t0.5 51.5v428h376v-287h116q30 0 70 -5t75.5 -24t60 -55t24.5 -99q0 -38 -12 -73t-37.5 -63t-67 -44.5t-99.5 -16.5h-174v627h-288v-388q0 -28 -0.5 -56t-5 -55t-14 -51
t-27.5 -43q-15 -17 -40 -28.5t-57 -11.5zM642 40q40 0 74.5 8t60 26.5t39.5 48.5t14 74q0 47 -16.5 75t-43.5 43t-62.5 20t-73.5 5h-104v-300h112z" />
    <glyph glyph-name="uni040A" unicode="&#x40a;" horiz-adv-x="974" 
d="M90 667h44v-287h404v287h44v-287h116q30 0 70 -5t75.5 -24t60 -55t24.5 -99q0 -38 -12 -73t-37.5 -63t-67 -44.5t-99.5 -16.5h-174v340h-404v-340h-44v667zM582 40h112q40 0 74.5 8t60 26.5t39.5 48.5t14 74q0 47 -16.5 75t-43.5 43t-62.5 20t-73.5 5h-104v-300z" />
    <glyph glyph-name="uni040B" unicode="&#x40b;" horiz-adv-x="670" 
d="M14 667h410v-40h-200v-243h170q41 0 74.5 -4t61.5 -18q24 -12 37.5 -27t21 -33.5t9.5 -40.5t2 -48v-213h-44v213q0 48 -12.5 74.5t-36 39t-56 15t-71.5 2.5h-156v-344h-44v627h-166v40z" />
    <glyph glyph-name="uni040C" unicode="&#x40c;" horiz-adv-x="540" 
d="M134 667v-314l315 314h58l-323 -319l342 -348h-60l-314 318l-18 -17v-301h-44v667h44zM220 721l116 133l50 -25l-134 -126z" />
    <glyph glyph-name="uni040E" unicode="&#x40e;" horiz-adv-x="550" 
d="M14 667h50l231 -432l195 432h46l-305 -667h-46l85 186zM180 822q10 -22 24.5 -35t29.5 -19.5t28.5 -8t22.5 -1.5t22.5 1.5t28.5 8t29.5 19.5t24.5 35l35 -19q-12 -26 -29 -42.5t-36.5 -26t-39 -13t-35.5 -3.5t-35.5 3.5t-39 13t-36.5 26t-29 42.5z" />
    <glyph glyph-name="uni040F" unicode="&#x40f;" horiz-adv-x="666" 
d="M134 667v-627h398v627h44v-667h-221v-150h-44v150h-221v667h44z" />
    <glyph glyph-name="uni0410" unicode="&#x410;" horiz-adv-x="586" 
d="M14 0l281 687l277 -687h-48l-89 219h-284l-89 -219h-48zM167 259h252l-125 316z" />
    <glyph glyph-name="uni0411" unicode="&#x411;" horiz-adv-x="534" 
d="M90 667h321v-40h-277v-247h116q30 0 70 -5t75.5 -24t60 -55t24.5 -99q0 -38 -12 -73t-37.5 -63t-67 -44.5t-99.5 -16.5h-174v667zM134 340v-300h112q40 0 74.5 8t60 26.5t39.5 48.5t14 74t-15 72t-40.5 43.5t-59 21.5t-70.5 6h-11h-104z" />
    <glyph glyph-name="uni0412" unicode="&#x412;" horiz-adv-x="534" 
d="M90 0v667h146q88 0 136 -46t48 -121q0 -54 -22.5 -90t-55.5 -56q66 -11 102 -56.5t36 -110.5q0 -44 -15.5 -78.5t-43 -58.5t-65.5 -37t-83 -13h-183zM246 40q34 0 72.5 5t72.5 35q27 24 35 51.5t8 50.5q0 47 -16.5 75t-43.5 43t-62.5 20t-73.5 5h-104v-285h112zM134 627
v-262h106q61 0 98 33.5t37 96.5q0 40 -14 65t-31 39q-25 20 -55 24t-56 4h-85z" />
    <glyph glyph-name="uni0413" unicode="&#x413;" horiz-adv-x="400" 
d="M90 667h296v-40h-252v-627h-44v667z" />
    <glyph glyph-name="uni0414" unicode="&#x414;" horiz-adv-x="610" 
d="M14 40q36 0 63.5 26t42.5 64q10 25 17 65.5t7 109.5v362h376v-627h76v-174h-42v134h-498v-134h-42v174zM188 305q0 -35 -1.5 -71t-9 -70t-22.5 -65.5t-42 -58.5h363v587h-288v-322z" />
    <glyph glyph-name="uni0415" unicode="&#x415;" horiz-adv-x="464" 
d="M90 667h320v-40h-276v-242h270v-40h-270v-305h276v-40h-320v667z" />
    <glyph glyph-name="uni0416" unicode="&#x416;" horiz-adv-x="796" 
d="M14 0l318 344l-296 323h58l282 -314v314h44v-314l282 314h58l-296 -323l318 -344h-58l-291 314l-13 -13v-301h-44v301l-13 13l-291 -314h-58z" />
    <glyph glyph-name="uni0417" unicode="&#x417;" horiz-adv-x="554" 
d="M279 -11q-45 0 -81 12t-64 31.5t-48 45t-32 52.5l42 20q13 -32 35 -55t47.5 -37.5t52.5 -21.5t51 -7q37 0 68.5 11t54.5 31.5t36 50.5t13 69q0 70 -47 109t-131 39h-60v40h60q25 0 48.5 9t42 26t30 42t11.5 57q0 59 -35.5 91t-92.5 32q-37 0 -75 -17t-69 -65l-32 27
q23 38 66.5 66.5t114.5 28.5q37 0 68 -11.5t53.5 -32.5t35 -51t12.5 -68q0 -54 -25.5 -90t-62.5 -56q66 -17 100 -65t34 -111q0 -49 -17 -87t-47 -63.5t-70.5 -38.5t-86.5 -13z" />
    <glyph glyph-name="uni0418" unicode="&#x418;" horiz-adv-x="700" 
d="M566 556l-476 -573v684h44v-566l476 573v-674h-44v556z" />
    <glyph glyph-name="uni0419" unicode="&#x419;" horiz-adv-x="700" 
d="M134 667v-566l476 573v-674h-44v556l-476 -573v684h44zM245 822q10 -22 24.5 -35t29.5 -19.5t28.5 -8t22.5 -1.5t22.5 1.5t28.5 8t29.5 19.5t24.5 35l35 -19q-12 -26 -29 -42.5t-36.5 -26t-39 -13t-35.5 -3.5t-35.5 3.5t-39 13t-36.5 26t-29 42.5z" />
    <glyph glyph-name="uni041A" unicode="&#x41a;" horiz-adv-x="540" 
d="M90 667h44v-314l315 314h58l-323 -319l342 -348h-60l-314 318l-18 -17v-301h-44v667z" />
    <glyph glyph-name="uni041B" unicode="&#x41b;" horiz-adv-x="620" 
d="M54 -6q-9 0 -20 2t-20 4v40q8 -2 17 -4t20 -2q23 0 39 8t26 18q15 15 22.5 35t11 43.5t4 49t0.5 51.5v428h376v-667h-44v627h-288v-388q0 -28 -0.5 -56t-5 -55t-14 -51t-27.5 -43q-15 -17 -40 -28.5t-57 -11.5z" />
    <glyph glyph-name="uni041C" unicode="&#x41c;" horiz-adv-x="896" 
d="M159 690l289 -617l289 617l76 -690h-44l-59 536l-262 -560l-262 560l-59 -536h-44z" />
    <glyph glyph-name="uni041D" unicode="&#x41d;" horiz-adv-x="672" 
d="M90 667h44v-283h404v283h44v-667h-44v344h-404v-344h-44v667z" />
    <glyph glyph-name="uni041E" unicode="&#x41e;" horiz-adv-x="800" 
d="M54 332q0 72 26.5 134.5t73 109t110 73.5t136.5 27t136.5 -27t110 -73.5t73 -109t26.5 -134.5t-26.5 -134.5t-73 -109t-110 -73t-136.5 -26.5t-136.5 26.5t-110 73t-73 109t-26.5 134.5zM400 636q-65 0 -119.5 -23.5t-95 -64.5t-63 -96.5t-22.5 -119.5t22.5 -119t63 -96
t95 -64.5t119.5 -23.5q64 0 119 23.5t95.5 64.5t63 96t22.5 119t-22.5 119.5t-63 96.5t-95.5 64.5t-119 23.5z" />
    <glyph glyph-name="uni041F" unicode="&#x41f;" horiz-adv-x="672" 
d="M90 0v667h492v-667h-44v627h-404v-627h-44z" />
    <glyph glyph-name="uni0420" unicode="&#x420;" horiz-adv-x="446" 
d="M90 0v667h129q41 0 76.5 -11t62 -33t41.5 -54.5t15 -75.5q0 -42 -14 -74.5t-39.5 -55t-61.5 -34.5t-79 -12h-86v-317h-44zM134 357h88q66 0 106 36t40 99t-40 99t-113 36h-81v-270z" />
    <glyph glyph-name="uni0421" unicode="&#x421;" horiz-adv-x="678" 
d="M402 -11q-75 0 -139 27.5t-110.5 74.5t-72.5 109t-26 132q0 72 27 134.5t74 109t110 73.5t135 27q48 0 86 -11t66 -25.5t46 -29t26 -21.5v-58q-43 51 -101.5 78t-123.5 27q-64 0 -119 -24t-95 -65.5t-62.5 -97.5t-22.5 -119q0 -74 28 -130.5t71.5 -94.5t96.5 -57t104 -19
q25 0 53.5 5.5t58 17.5t58 31t54.5 47v-58q-51 -45 -109.5 -64t-112.5 -19z" />
    <glyph glyph-name="uni0422" unicode="&#x422;" horiz-adv-x="418" 
d="M404 667v-40h-173v-627h-44v627h-173v40h390z" />
    <glyph glyph-name="uni0423" unicode="&#x423;" horiz-adv-x="550" 
d="M14 667h50l231 -432l195 432h46l-305 -667h-46l85 186z" />
    <glyph glyph-name="uni0424" unicode="&#x424;" horiz-adv-x="820" 
d="M360 94q-93 0 -152.5 25.5t-93.5 64t-47 84t-13 86.5q0 40 13 86t47 84.5t93.5 64t152.5 25.5h28v80h44v-80h28q93 0 152.5 -25.5t93.5 -64t47 -84.5t13 -86q0 -41 -13 -86.5t-47 -84t-93.5 -64t-152.5 -25.5h-28v-94h-44v94h-28zM462 134q77 0 127 21t79 53t40.5 71
t11.5 75t-11.5 75t-40.5 71t-79 53t-127 21h-30v-440h30zM100 354q0 -36 11.5 -75t40.5 -71t79 -53t127 -21h30v440h-30q-77 0 -127 -21t-79 -53t-40.5 -71t-11.5 -75z" />
    <glyph glyph-name="uni0425" unicode="&#x425;" horiz-adv-x="470" 
d="M206 340l-175 327h48l151 -285l152 285h48l-174 -327l183 -340h-48l-161 300l-159 -300h-48z" />
    <glyph glyph-name="uni0426" unicode="&#x426;" horiz-adv-x="666" 
d="M134 667v-627h398v627h44v-627h76v-174h-42v134h-520v667h44z" />
    <glyph glyph-name="uni0427" unicode="&#x427;" horiz-adv-x="580" 
d="M140 315q-24 12 -37.5 27t-21 33.5t-9.5 40.5t-2 48v203h44v-203q0 -48 12.5 -74.5t36 -39t56 -15t71.5 -2.5q40 0 74.5 1.5t81.5 5.5v327h44v-667h-44v300q-18 -1 -41.5 -2.5t-47 -2.5t-45 -1.5t-36.5 -0.5q-41 0 -74.5 4t-61.5 18z" />
    <glyph glyph-name="uni0428" unicode="&#x428;" horiz-adv-x="920" 
d="M90 667h44v-627h304v627h44v-627h304v627h44v-667h-740v667z" />
    <glyph glyph-name="uni0429" unicode="&#x429;" horiz-adv-x="920" 
d="M90 667h44v-627h304v627h44v-627h304v627h44v-627h76v-174h-42v134h-774v667z" />
    <glyph glyph-name="uni042A" unicode="&#x42a;" horiz-adv-x="610" 
d="M14 667h204v-287h116q30 0 70 -5t75.5 -24t60 -55t24.5 -99q0 -38 -12 -73t-37.5 -63t-67 -44.5t-99.5 -16.5h-174v627h-160v40zM218 340v-300h112q40 0 74.5 8t60 26.5t39.5 48.5t14 74q0 47 -16.5 75t-43.5 43t-62.5 20t-73.5 5h-104z" />
    <glyph glyph-name="uni042B" unicode="&#x42b;" horiz-adv-x="690" 
d="M90 0v667h44v-287h116q30 0 70 -5t75.5 -24t60 -55t24.5 -99q0 -38 -12 -73t-37.5 -63t-67 -44.5t-99.5 -16.5h-174zM246 40q40 0 74.5 8t60 26.5t39.5 48.5t14 74q0 47 -16.5 75t-43.5 43t-62.5 20t-73.5 5h-104v-300h112zM556 667h44v-667h-44v667z" />
    <glyph glyph-name="uni042C" unicode="&#x42c;" horiz-adv-x="526" 
d="M90 667h44v-287h116q30 0 70 -5t75.5 -24t60 -55t24.5 -99q0 -38 -12 -73t-37.5 -63t-67 -44.5t-99.5 -16.5h-174v667zM134 40h112q40 0 74.5 8t60 26.5t39.5 48.5t14 74q0 47 -16.5 75t-43.5 43t-62.5 20t-73.5 5h-104v-300z" />
    <glyph glyph-name="uni042D" unicode="&#x42d;" horiz-adv-x="678" 
d="M54 589q7 7 25.5 21.5t46.5 29t66 25.5t86 11q72 0 135 -27t110 -73.5t74 -109t27 -134.5q0 -70 -26.5 -132t-73 -109t-110 -74.5t-138.5 -27.5q-54 0 -112.5 19t-109.5 64v58q25 -28 54 -47t58.5 -31t58 -17.5t53.5 -5.5q53 0 105.5 20t95.5 57.5t70 92.5t29 125h-444
v40h442q-6 59 -31.5 109t-65.5 86t-91.5 56.5t-108.5 20.5q-65 0 -123.5 -27t-101.5 -78v58z" />
    <glyph glyph-name="uni042E" unicode="&#x42e;" horiz-adv-x="960" 
d="M134 667v-295h102q7 66 36.5 122t74 96.5t102 63t121.5 22.5q71 0 132.5 -27t106.5 -73.5t71 -109t26 -134.5t-26 -134.5t-71 -109t-106.5 -73t-132.5 -26.5q-72 0 -133 27t-106 73.5t-70.5 109t-26.5 133.5h-100v-332h-44v667h44zM280 332q0 -64 22 -119t60.5 -96
t91.5 -64.5t116 -23.5t116 23.5t91.5 64.5t60.5 96t22 119t-22 119.5t-60.5 96.5t-91.5 64.5t-116 23.5t-116 -23.5t-91.5 -64.5t-60.5 -96.5t-22 -119.5z" />
    <glyph glyph-name="uni042F" unicode="&#x42f;" horiz-adv-x="470" 
d="M236 299q-40 1 -73.5 14t-57.5 36.5t-37.5 57t-13.5 76.5q0 33 8.5 59t21.5 45.5t28 32.5t29 21q29 17 62 21.5t63 4.5h114v-667h-44v299h-50l-200 -299h-52zM100 483q0 -75 44.5 -109.5t115.5 -34.5h76v288h-70q-23 0 -47 -3t-44 -13q-35 -17 -55 -50.5t-20 -77.5z" />
    <glyph glyph-name="uni0430" unicode="&#x430;" horiz-adv-x="516" 
d="M245 -11q-40 0 -76 14.5t-63.5 42.5t-43.5 68t-16 90q0 47 14.5 86.5t40.5 67.5t62.5 43.5t81.5 15.5q48 0 89 -19t70 -61v71h40v-408h-40v73q-31 -47 -75 -65.5t-84 -18.5zM88 207q0 -35 10.5 -67t31 -57.5t50 -40.5t68.5 -15q38 0 67.5 15t49.5 40t30.5 57.5t10.5 67.5
q0 45 -15 77.5t-38.5 53.5t-51.5 31t-54 10q-30 0 -59 -11.5t-51 -33t-35.5 -53.5t-13.5 -74z" />
    <glyph glyph-name="uni0431" unicode="&#x431;" horiz-adv-x="520" 
d="M259 -11q-61 0 -102 21.5t-65.5 58.5t-35 86t-10.5 103q0 34 4 79t17 91.5t38.5 88.5t68.5 70q37 24 78.5 33t79.5 17q46 9 64 22.5t26 30.5h50q-11 -26 -28.5 -43t-37.5 -27.5t-41.5 -16t-40.5 -9.5q-15 -3 -33 -7t-36.5 -10t-37.5 -15.5t-36 -22.5q-25 -20 -42.5 -48
t-28.5 -58.5t-16.5 -62t-6.5 -59.5h2q12 28 31.5 48t43.5 33t51 19t53 6q46 0 84 -15.5t65 -43.5t42 -67.5t15 -86.5q0 -50 -16.5 -90t-46 -68t-68.5 -42.5t-84 -14.5zM268 379q-44 0 -76.5 -15.5t-55 -40.5t-33.5 -56.5t-11 -62.5q0 -32 11 -63.5t28 -54.5q29 -38 64 -48.5
t64 -10.5q47 0 80 16.5t53.5 42t30 57t9.5 61.5q0 33 -10.5 64t-31.5 56t-51.5 40t-70.5 15z" />
    <glyph glyph-name="uni0432" unicode="&#x432;" horiz-adv-x="414" 
d="M205 408q25 0 47 -5.5t39 -17.5t27 -31.5t10 -47.5q0 -27 -11 -49t-34 -36q40 -6 62.5 -36t22.5 -69q0 -31 -11.5 -53t-31 -36t-45 -20.5t-53.5 -6.5h-155v408h133zM227 38q19 0 37 4t32 13.5t22 24.5t8 37t-8.5 36.5t-22.5 23t-31.5 12t-36.5 3.5h-115v-154h115z
M112 230h93q33 0 58 17t25 54t-25 53t-58 16h-93v-140z" />
    <glyph glyph-name="uni0433" unicode="&#x433;" horiz-adv-x="300" 
d="M72 408h220v-38h-180v-370h-40v408z" />
    <glyph glyph-name="uni0434" unicode="&#x434;" horiz-adv-x="440" 
d="M8 -110v148q31 1 49.5 18t28 41.5t12 52.5t2.5 52v206h268v-370h60v-148h-38v110h-344v-110h-38zM328 38v332h-188v-180q0 -34 -4.5 -58.5t-11.5 -42.5t-16.5 -30t-19.5 -21h240z" />
    <glyph glyph-name="uni0435" unicode="&#x435;" horiz-adv-x="483" 
d="M247 -11q-48 0 -85 16.5t-63 45.5t-39.5 67.5t-13.5 83.5q0 53 17 93.5t44.5 67.5t63 40.5t73.5 13.5q41 0 76.5 -16t61.5 -44.5t40.5 -68.5t14.5 -89h-349q0 -39 13 -71t35.5 -54.5t52 -34.5t61.5 -12q50 0 86 26t56 67l34 -20q-9 -17 -24 -36.5t-36.5 -36t-51 -27.5
t-67.5 -11zM244 379q-31 0 -57.5 -11t-46 -30.5t-32.5 -45t-17 -55.5h304q-4 30 -16.5 56t-32.5 45t-46 30t-56 11z" />
    <glyph glyph-name="uni0436" unicode="&#x436;" horiz-adv-x="560" 
d="M8 0l206 212l-190 196h52l184 -194v194h40v-194l184 194h52l-190 -196l206 -212h-54l-178 186l-20 -20v-166h-40v166l-20 20l-178 -186h-54z" />
    <glyph glyph-name="uni0437" unicode="&#x437;" horiz-adv-x="400" 
d="M202 -11q-51 0 -92 21.5t-64 68.5l36 23q17 -36 48.5 -55.5t71.5 -19.5q22 0 42 5.5t35 16.5t24 29t9 42q0 23 -8.5 38t-23 24t-33 12.5t-38.5 3.5h-42v38h31q16 0 31.5 3.5t27.5 12t19.5 21.5t7.5 32q0 38 -24.5 56t-59.5 18q-37 0 -60 -17.5t-35 -39.5l-33 23
q6 11 16.5 23.5t26 23.5t37 18t49.5 7q51 0 87 -26.5t36 -81.5q0 -60 -47 -85q38 -9 57.5 -38t19.5 -67q0 -33 -12.5 -57.5t-33.5 -40.5t-48.5 -24t-57.5 -8z" />
    <glyph glyph-name="uni0438" unicode="&#x438;" horiz-adv-x="474" 
d="M112 408v-327l290 350v-431h-40v325l-290 -350v433h40z" />
    <glyph glyph-name="uni0439" unicode="&#x439;" horiz-adv-x="474" 
d="M72 -25v433h40v-327l290 350v-431h-40v325zM152 590q8 -29 32.5 -51t63.5 -22t63.5 22t32.5 51l34 -17q-4 -13 -12.5 -29.5t-24 -30.5t-38 -24t-55.5 -10t-55.5 10t-38 24t-24 30.5t-12.5 29.5z" />
    <glyph glyph-name="uni043A" unicode="&#x43a;" horiz-adv-x="396" 
d="M72 0v408h40v-194l206 194h54l-208 -194l224 -214h-58l-196 187l-22 -21v-166h-40z" />
    <glyph glyph-name="uni043B" unicode="&#x43b;" horiz-adv-x="430" 
d="M8 38q10 -2 15 -2q22 0 35 9t20 23t9.5 31.5t2.5 34.5v274h268v-408h-40v370h-188v-236q0 -26 -4.5 -50t-16 -43.5t-31.5 -31t-50 -11.5q-5 0 -10 0.5t-10 1.5v38v0z" />
    <glyph glyph-name="uni043C" unicode="&#x43c;" horiz-adv-x="566" 
d="M120 433l163 -368l163 368l96 -433h-42l-66 319l-151 -344l-151 344l-66 -319h-42z" />
    <glyph glyph-name="uni043D" unicode="&#x43d;" horiz-adv-x="454" 
d="M112 408v-180h230v180h40v-408h-40v190h-230v-190h-40v408h40z" />
    <glyph glyph-name="uni043E" unicode="&#x43e;" horiz-adv-x="520" 
d="M46 203q0 45 16.5 84.5t45 68t68 45t84.5 16.5t84.5 -16.5t68 -45t45 -68t16.5 -84.5t-16.5 -84.5t-45 -68t-68 -45t-84.5 -16.5t-84.5 16.5t-68 45t-45 68t-16.5 84.5zM260 379q-37 0 -68.5 -13.5t-54.5 -37.5t-36 -56t-13 -69t13 -69t36 -56t54.5 -37.5t68.5 -13.5
t68.5 13.5t54.5 37.5t36 56t13 69t-13 69t-36 56t-54.5 37.5t-68.5 13.5z" />
    <glyph glyph-name="uni043F" unicode="&#x43f;" horiz-adv-x="448" 
d="M376 408v-408h-40v370h-224v-370h-40v408h304z" />
    <glyph glyph-name="uni0440" unicode="&#x440;" horiz-adv-x="516" 
d="M72 408h40v-71q29 40 70 60t90 20q46 0 83 -16t62.5 -44.5t39 -67t13.5 -82.5q0 -45 -14 -84.5t-39.5 -69.5t-63 -47t-83.5 -17q-38 0 -65.5 10.5t-46.5 24t-30.5 27.5t-15.5 22v-303h-40v638zM270 379q-30 0 -59 -10.5t-51.5 -32t-36 -53.5t-13.5 -74q0 -38 10.5 -71.5
t30.5 -58t49.5 -38.5t68.5 -14t68.5 14t49.5 38.5t30.5 57t10.5 70.5q0 42 -13 74t-34.5 54t-50.5 33t-60 11z" />
    <glyph glyph-name="uni0441" unicode="&#x441;" horiz-adv-x="442" 
d="M255 -11q-46 0 -84.5 16t-66 44.5t-43 67.5t-15.5 84t14.5 84.5t42 69t67 46t88.5 16.5q22 0 60.5 -8.5t80.5 -43.5v-53q-10 12 -24 23.5t-31.5 21.5t-39 16t-46.5 6q-38 0 -69 -13.5t-53.5 -37.5t-35 -56.5t-12.5 -69.5q0 -44 15 -77t39 -54.5t54 -32.5t60 -11
q24 0 46 6.5t40.5 17t34 23.5t27.5 26v-54q-20 -18 -57.5 -37.5t-91.5 -19.5z" />
    <glyph glyph-name="uni0442" unicode="&#x442;" horiz-adv-x="340" 
d="M8 408h324v-38h-142v-370h-40v370h-142v38z" />
    <glyph glyph-name="uni0443" unicode="&#x443;" horiz-adv-x="428" 
d="M54 408l171 -363l149 363h46l-268 -638h-46l96 223l-194 415h46z" />
    <glyph glyph-name="uni0444" unicode="&#x444;" horiz-adv-x="600" 
d="M280 -7q-49 0 -92 13.5t-74.5 40t-49.5 66t-18 91.5q0 53 18 92.5t49.5 65.5t74 39t92.5 13v253h40v-253q49 0 92 -13t74.5 -39t49.5 -65.5t18 -92.5q0 -52 -18 -91.5t-49.5 -66t-74.5 -40t-92 -13.5v-223h-40v223zM320 31q41 0 76 11t61 32.5t40.5 54t14.5 75.5
q0 44 -14.5 76.5t-40.5 53.5t-61 31.5t-76 10.5v-345zM280 376q-41 0 -76 -10.5t-61 -31.5t-40.5 -53.5t-14.5 -76.5q0 -43 14.5 -75.5t40.5 -54t61 -32.5t76 -11v345z" />
    <glyph glyph-name="uni0445" unicode="&#x445;" horiz-adv-x="400" 
d="M173 214l-151 194h49l129 -168l127 168h49l-148 -194l164 -214h-49l-143 188l-143 -188h-49z" />
    <glyph glyph-name="uni0446" unicode="&#x446;" horiz-adv-x="444" 
d="M112 408v-370h220v370h40v-370h60v-148h-38v110h-322v408h40z" />
    <glyph glyph-name="uni0447" unicode="&#x447;" horiz-adv-x="412" 
d="M100 408v-123q0 -50 20 -69t68 -19q12 0 27.5 1t31 2.5t29.5 3t24 3.5v201h40v-408h-40v169q-25 -4 -54.5 -7t-52.5 -3q-35 0 -60.5 6t-41.5 20.5t-23.5 39t-7.5 60.5v123h40z" />
    <glyph glyph-name="uni0448" unicode="&#x448;" horiz-adv-x="644" 
d="M112 408v-370h190v370h40v-370h190v370h40v-408h-500v408h40z" />
    <glyph glyph-name="uni0449" unicode="&#x449;" horiz-adv-x="644" 
d="M112 408v-370h190v370h40v-370h190v370h40v-370h60v-148h-38v110h-522v408h40z" />
    <glyph glyph-name="uni044A" unicode="&#x44a;" horiz-adv-x="416" 
d="M148 408v-170h97q57 0 95 -29.5t38 -89.5q0 -62 -38.5 -90.5t-95.5 -28.5h-136v370h-100v38h140zM148 38h96q38 0 65 19.5t27 61.5q0 43 -27.5 62t-66.5 19h-94v-162z" />
    <glyph glyph-name="uni044B" unicode="&#x44b;" 
d="M112 408v-170h97q57 0 95 -29.5t38 -89.5q0 -62 -38.5 -90.5t-95.5 -28.5h-136v408h40zM112 38h96q38 0 65 19.5t27 61.5q0 43 -27.5 62t-66.5 19h-94v-162zM388 408h40v-408h-40v408z" />
    <glyph glyph-name="uni044C" unicode="&#x44c;" horiz-adv-x="380" 
d="M112 408v-170h97q57 0 95 -29.5t38 -89.5q0 -62 -38.5 -90.5t-95.5 -28.5h-136v408h40zM112 38h96q38 0 65 19.5t27 61.5q0 43 -27.5 62t-66.5 19h-94v-162z" />
    <glyph glyph-name="uni044D" unicode="&#x44d;" horiz-adv-x="412" 
d="M38 52q31 -17 63 -21t47 -4q37 0 68.5 11.5t55 33t37 51.5t15.5 67h-239v38h239q-4 36 -19.5 64t-39.5 47.5t-54.5 29.5t-65.5 10q-38 0 -62.5 -6.5t-40.5 -14.5v40q28 11 52.5 15t50.5 4q48 0 89 -14.5t70 -41.5t45.5 -66.5t16.5 -89.5q0 -49 -16 -89t-44.5 -68
t-68.5 -43.5t-89 -15.5q-8 0 -21 0.5t-28 3t-30.5 6.5t-30.5 11v42v0z" />
    <glyph glyph-name="uni044E" unicode="&#x44e;" horiz-adv-x="640" 
d="M112 408v-180h70q4 40 21.5 75t44.5 60t62.5 39.5t77.5 14.5q44 0 81.5 -16.5t65.5 -45t43.5 -68t15.5 -84.5t-15.5 -84.5t-43.5 -68t-65.5 -45t-81.5 -16.5q-39 0 -75.5 14t-64.5 40t-46 63t-20 84h-70v-190h-40v408h40zM224 203q0 -37 12.5 -69t34.5 -56t52 -37.5
t65 -13.5t65 13.5t52 37.5t34.5 56t12.5 69t-12.5 69t-34.5 56t-52 37.5t-65 13.5t-65 -13.5t-52 -37.5t-34.5 -56t-12.5 -69z" />
    <glyph glyph-name="uni044F" unicode="&#x44f;" horiz-adv-x="386" 
d="M158 178q-49 2 -81.5 31t-32.5 80q0 63 37.5 91t96.5 28h136v-408h-40v176h-70l-128 -176h-48zM178 370q-39 0 -65.5 -18.5t-26.5 -61.5q0 -42 27 -59t65 -17h96v156h-96z" />
    <glyph glyph-name="uni0451" unicode="&#x451;" horiz-adv-x="483" 
d="M247 -11q-48 0 -85 16.5t-63 45.5t-39.5 67.5t-13.5 83.5q0 53 17 93.5t44.5 67.5t63 40.5t73.5 13.5q41 0 76.5 -16t61.5 -44.5t40.5 -68.5t14.5 -89h-349q0 -39 13 -71t35.5 -54.5t52 -34.5t61.5 -12q50 0 86 26t56 67l34 -20q-9 -17 -24 -36.5t-36.5 -36t-51 -27.5
t-67.5 -11zM244 379q-31 0 -57.5 -11t-46 -30.5t-32.5 -45t-17 -55.5h304q-4 30 -16.5 56t-32.5 45t-46 30t-56 11zM329 490q-15 0 -25.5 10.5t-10.5 25.5t10.5 25.5t25.5 10.5t25.5 -10.5t10.5 -25.5t-10.5 -25.5t-25.5 -10.5zM127 526q0 15 10.5 25.5t25.5 10.5
t25.5 -10.5t10.5 -25.5t-10.5 -25.5t-25.5 -10.5t-25.5 10.5t-10.5 25.5z" />
    <glyph glyph-name="uni0452" unicode="&#x452;" horiz-adv-x="442" 
d="M0 560h72v169h40v-169h180v-38h-180v-218q7 13 18 26t26 23.5t35 17t46 6.5q27 0 47 -7t33.5 -16.5t21.5 -19t11 -14.5q14 -22 17 -49t3 -54v-312q0 -27 -5.5 -51.5t-18 -43t-33 -29.5t-50.5 -11q-17 0 -35 6v37q8 -3 14 -4t14 -1q24 0 38.5 8.5t22.5 23t10.5 33.5
t2.5 39v305q0 25 -4 47t-14.5 38.5t-29.5 26.5t-48 10q-37 0 -60.5 -14.5t-37 -38.5t-19 -54t-5.5 -60v-172h-40v522h-72v38z" />
    <glyph glyph-name="uni0453" unicode="&#x453;" horiz-adv-x="300" 
d="M72 408h220v-38h-180v-370h-40v408zM278 595l-105 -128l-30 16l92 137z" />
    <glyph glyph-name="uni0454" unicode="&#x454;" horiz-adv-x="441" 
d="M254 -11q-46 0 -84.5 16t-66 44.5t-42.5 67.5t-15 84t14.5 84.5t42 69t66.5 46t88 16.5q22 0 60.5 -8.5t80.5 -43.5v-53q-10 12 -24 23.5t-31.5 21.5t-39 16t-46.5 6q-34 0 -63.5 -11.5t-52 -32t-36.5 -48t-17 -59.5h238v-38h-238q1 -37 15.5 -67t37.5 -51.5t52.5 -33
t61.5 -11.5q24 0 46 6.5t40.5 17t34 23.5t27.5 26v-54q-27 -24 -64 -40.5t-85 -16.5z" />
    <glyph glyph-name="uni0455" unicode="&#x455;" horiz-adv-x="334" 
d="M69 109q11 -41 39.5 -61.5t62.5 -20.5q39 0 65 25t26 65q0 17 -5.5 29.5t-17 22.5t-28.5 18.5t-40 17.5q-19 7 -38 16t-34.5 21.5t-25 29t-9.5 40.5q0 47 31 76t78 29q36 0 64.5 -16.5t42.5 -49.5l-34 -18q-11 24 -30 35t-41 11q-17 0 -30 -6t-21.5 -15.5t-13 -21
t-4.5 -22.5q0 -30 21 -43.5t51 -25.5q31 -12 58 -23.5t47 -36.5q13 -16 17 -32.5t4 -33.5q0 -35 -12 -59.5t-31 -40.5t-42.5 -23t-47.5 -7q-51 0 -89.5 28.5t-51.5 79.5z" />
    <glyph glyph-name="uni0456" unicode="&#x456;" horiz-adv-x="184" 
d="M72 0v408h40v-408h-40zM56 544q0 17 10.5 27t25.5 10t25.5 -10t10.5 -27t-10.5 -27t-25.5 -10t-25.5 10t-10.5 27z" />
    <glyph glyph-name="uni0457" unicode="&#x457;" horiz-adv-x="184" 
d="M71 0v408h40v-408h-40zM140 509q-15 0 -25.5 10.5t-10.5 25.5t10.5 25.5t25.5 10.5t25.5 -10.5t10.5 -25.5t-10.5 -25.5t-25.5 -10.5zM8 545q0 15 10.5 25.5t25.5 10.5t25.5 -10.5t10.5 -25.5t-10.5 -25.5t-25.5 -10.5t-25.5 10.5t-10.5 25.5z" />
    <glyph glyph-name="uni0458" unicode="&#x458;" horiz-adv-x="184" 
d="M72 -230v638h40v-638h-40zM56 544q0 17 10.5 27t25.5 10t25.5 -10t10.5 -27t-10.5 -27t-25.5 -10t-25.5 10t-10.5 27z" />
    <glyph glyph-name="uni0459" unicode="&#x459;" horiz-adv-x="626" 
d="M28 -2q-5 0 -10 0.5t-10 1.5v38q10 -2 15 -2q22 0 35 9t20 23t9.5 31.5t2.5 34.5v274h268v-170h97q57 0 95 -29.5t38 -89.5q0 -62 -38.5 -90.5t-95.5 -28.5h-136v370h-188v-236q0 -26 -4.5 -50t-16 -43.5t-31.5 -31t-50 -11.5zM358 38h96q38 0 65 19.5t27 61.5
q0 43 -27.5 62t-66.5 19h-94v-162z" />
    <glyph glyph-name="uni045A" unicode="&#x45a;" horiz-adv-x="650" 
d="M72 408h40v-170h230v170h40v-170h97q57 0 95 -29.5t38 -89.5q0 -62 -38.5 -90.5t-95.5 -28.5h-136v200h-230v-200h-40v408zM382 38h96q38 0 65 19.5t27 61.5q0 43 -27.5 62t-66.5 19h-94v-162z" />
    <glyph glyph-name="uni045B" unicode="&#x45b;" horiz-adv-x="442" 
d="M0 560h72v169h40v-169h180v-38h-180v-218q7 13 18 26t26 23.5t35 17t46 6.5q27 0 47 -7t33.5 -16.5t21.5 -19t11 -14.5q14 -22 17 -49t3 -54v-217h-40v217q0 25 -4 47t-14.5 38.5t-29.5 26.5t-48 10q-37 0 -60.5 -14.5t-37 -38.5t-19 -54t-5.5 -60v-172h-40v522h-72v38z
" />
    <glyph glyph-name="uni045C" unicode="&#x45c;" horiz-adv-x="396" 
d="M72 0v408h40v-194l206 194h54l-208 -194l224 -214h-58l-196 187l-22 -21v-166h-40zM161 483l92 137l43 -25l-105 -128z" />
    <glyph glyph-name="uni045E" unicode="&#x45e;" horiz-adv-x="428" 
d="M54 408l171 -363l149 363h46l-268 -638h-46l96 223l-194 415h46zM124 590q8 -29 32.5 -51t63.5 -22t63.5 22t32.5 51l34 -17q-4 -13 -12.5 -29.5t-24 -30.5t-38 -24t-55.5 -10t-55.5 10t-38 24t-24 30.5t-12.5 29.5z" />
    <glyph glyph-name="uni045F" unicode="&#x45f;" horiz-adv-x="444" 
d="M112 408v-370h220v370h40v-408h-130v-120h-40v120h-130v408h40z" />
    <glyph glyph-name="uni0462" unicode="&#x462;" horiz-adv-x="610" 
d="M174 567v127h44v-127h200v-40h-200v-147h116q30 0 70 -5t75.5 -24t60 -55t24.5 -99q0 -38 -12 -73t-37.5 -63t-67 -44.5t-99.5 -16.5h-174v527h-160v40h160zM218 340v-300h112q40 0 74.5 8t60 26.5t39.5 48.5t14 74q0 47 -16.5 75t-43.5 43t-62.5 20t-73.5 5h-104z" />
    <glyph glyph-name="uni0463" unicode="&#x463;" horiz-adv-x="416" 
d="M8 370v38h100v259h40v-259h120v-38h-120v-132h97q57 0 95 -29.5t38 -89.5q0 -62 -38.5 -90.5t-95.5 -28.5h-136v370h-100zM148 200v-162h96q38 0 65 19.5t27 61.5q0 43 -27.5 62t-66.5 19h-94z" />
    <glyph glyph-name="uni0472" unicode="&#x472;" horiz-adv-x="800" 
d="M54 332q0 72 26.5 134.5t73 109t110 73.5t136.5 27t136.5 -27t110 -73.5t73 -109t26.5 -134.5t-26.5 -134.5t-73 -109t-110 -73t-136.5 -26.5t-136.5 26.5t-110 73t-73 109t-26.5 134.5zM100 320q2 -57 24 -110t61 -93t93.5 -64t121.5 -24t121.5 24t93.5 64t61 93t24 110
h-600zM400 636q-57 0 -108.5 -19.5t-92 -55.5t-66.5 -87t-32 -114h598q-6 63 -32 114t-66.5 87t-92 55.5t-108.5 19.5z" />
    <glyph glyph-name="uni0473" unicode="&#x473;" horiz-adv-x="520" 
d="M46 203q0 45 16.5 84.5t45 68t68 45t84.5 16.5t84.5 -16.5t68 -45t45 -68t16.5 -84.5t-16.5 -84.5t-45 -68t-68 -45t-84.5 -16.5t-84.5 16.5t-68 45t-45 68t-16.5 84.5zM89 189q2 -36 16.5 -66t38 -51.5t53.5 -33t63 -11.5t63 11.5t53 33t38 51.5t17 66h-342zM260 379
q-28 0 -56.5 -9.5t-52.5 -28.5t-40.5 -47.5t-21.5 -66.5h342q-5 38 -21.5 66.5t-40.5 47.5t-52.5 28.5t-56.5 9.5z" />
    <glyph glyph-name="uni0474" unicode="&#x474;" horiz-adv-x="510" 
d="M62 667l196 -568l190 568h48l-238 -694l-244 694h48z" />
    <glyph glyph-name="uni0475" unicode="&#x475;" horiz-adv-x="390" 
d="M52 408l144 -339l142 339h44l-186 -433l-188 433h44z" />
    <glyph glyph-name="uni0490" unicode="&#x490;" horiz-adv-x="400" 
d="M90 667h254v133h42v-173h-252v-627h-44v667z" />
    <glyph glyph-name="uni0491" unicode="&#x491;" horiz-adv-x="300" 
d="M72 408h182v110h38v-148h-180v-370h-40v408z" />
    <glyph glyph-name="uni0492" unicode="&#x492;" horiz-adv-x="400" 
d="M0 345v40h90v282h296v-40h-252v-242h136v-40h-136v-345h-44v345h-90z" />
    <glyph glyph-name="uni0493" unicode="&#x493;" horiz-adv-x="300" 
d="M0 200v38h72v170h220v-38h-180v-132h100v-38h-100v-200h-40v200h-72z" />
    <glyph glyph-name="uni0494" unicode="&#x494;" horiz-adv-x="526" 
d="M90 667h296v-40h-252v-262q14 5 51.5 14t85.5 9q98 0 153.5 -47t55.5 -147q0 -95 -50 -147.5t-144 -52.5q-16 0 -35 2t-33 4v40q17 -4 32 -5t31 -1q77 0 115 40t38 118t-41.5 117t-118.5 39q-33 0 -70.5 -6t-69.5 -17v-325h-44v667z" />
    <glyph glyph-name="uni0495" unicode="&#x495;" horiz-adv-x="380" 
d="M292 408v-38h-180v-134h30q93 0 142.5 -54.5t49.5 -146.5q0 -46 -14 -87t-40 -73t-62.5 -53.5t-82.5 -29.5v40q37 8 66 27t49.5 46t31 61t10.5 71q0 72 -39 116.5t-111 44.5h-30v-198h-40v408h220z" />
    <glyph glyph-name="uni0496" unicode="&#x496;" horiz-adv-x="796" 
d="M14 0l318 344l-296 323h58l282 -314v314h44v-314l282 314h58l-296 -323l281 -304h37v-174h-42v134h-16l-291 314l-13 -13v-301h-44v301l-13 13l-291 -314h-58z" />
    <glyph glyph-name="uni0497" unicode="&#x497;" horiz-adv-x="560" 
d="M8 0l206 212l-190 196h52l184 -194v194h40v-194l184 194h52l-190 -196l169 -174h37v-148h-38v110h-16l-178 186l-20 -20v-166h-40v166l-20 20l-178 -186h-54z" />
    <glyph glyph-name="uni0498" unicode="&#x498;" horiz-adv-x="554" 
d="M255 -9q-69 2 -120.5 40.5t-80.5 98.5l42 20q26 -55 75 -88t111 -33q34 0 71 13t60 36q14 14 27.5 42t13.5 71q0 39 -14.5 67t-39 46t-56.5 26.5t-68 8.5h-60v40h50q62 0 102 35.5t40 98.5q0 60 -35.5 91.5t-93.5 31.5q-46 0 -82.5 -22t-60.5 -60l-32 27q30 49 75.5 72
t102.5 23q76 0 124 -42.5t48 -120.5q0 -45 -23 -86.5t-65 -59.5q63 -15 98.5 -62t35.5 -112q0 -45 -14.5 -82t-41 -63t-63.5 -41t-82 -17v-140h-44v141v0z" />
    <glyph glyph-name="uni0499" unicode="&#x499;" horiz-adv-x="400" 
d="M180 -10q-45 2 -79.5 26t-54.5 63l36 23q17 -36 48.5 -55.5t71.5 -19.5q22 0 42 5.5t35 16.5t24 29t9 42q0 23 -8.5 38t-23 24t-33 12.5t-38.5 3.5h-42v38h31q16 0 31.5 3.5t27.5 12t19.5 21.5t7.5 32q0 38 -24.5 56t-59.5 18q-37 0 -60 -17.5t-35 -39.5l-33 23
q6 11 16.5 23.5t26 23.5t37 18t49.5 7q51 0 87 -26.5t36 -81.5q0 -60 -47 -85q38 -9 57.5 -38.5t19.5 -67.5q0 -29 -11 -52t-29 -40t-42.5 -26.5t-51.5 -10.5v-109h-40v110v0z" />
    <glyph glyph-name="uni049A" unicode="&#x49a;" horiz-adv-x="540" 
d="M90 0v667h44v-314l315 314h58l-323 -319l303 -308h39v-174h-42v134h-18l-314 318l-18 -17v-301h-44z" />
    <glyph glyph-name="uni049B" unicode="&#x49b;" horiz-adv-x="396" 
d="M72 0v408h40v-194l206 194h54l-208 -194l184 -176h40v-148h-38v110h-20l-196 187l-22 -21v-166h-40z" />
    <glyph glyph-name="uni049C" unicode="&#x49c;" horiz-adv-x="600" 
d="M90 0v667h44v-303h72v140h40v-140l269 303h52l-287 -319l306 -348h-54l-286 324v-160h-40v160h-72v-324h-44z" />
    <glyph glyph-name="uni049D" unicode="&#x49d;" horiz-adv-x="400" 
d="M72 0v408h40v-178h43v100h38v-100l149 178h46l-162 -194l166 -214h-50l-149 192v-120h-38v120h-43v-192h-40z" />
    <glyph glyph-name="uni04A0" unicode="&#x4a0;" horiz-adv-x="624" 
d="M14 627v40h204v-314l315 314h58l-323 -319l342 -348h-60l-314 318l-18 -17v-301h-44v627h-160z" />
    <glyph glyph-name="uni04A1" unicode="&#x4a1;" horiz-adv-x="432" 
d="M8 370v38h140v-194l206 194h54l-208 -194l224 -214h-58l-196 187l-22 -21v-166h-40v370h-100z" />
    <glyph glyph-name="uni04A2" unicode="&#x4a2;" horiz-adv-x="672" 
d="M134 667v-283h404v283h44v-627h76v-174h-42v134h-78v344h-404v-344h-44v667h44z" />
    <glyph glyph-name="uni04A3" unicode="&#x4a3;" horiz-adv-x="454" 
d="M112 408v-180h230v180h40v-370h60v-148h-38v110h-62v190h-230v-190h-40v408h40z" />
    <glyph glyph-name="uni04A4" unicode="&#x4a4;" horiz-adv-x="848" 
d="M134 667v-283h404v283h296v-40h-252v-627h-44v344h-404v-344h-44v667h44z" />
    <glyph glyph-name="uni04A5" unicode="&#x4a5;" horiz-adv-x="570" 
d="M72 408h40v-180h230v180h220v-38h-180v-370h-40v190h-230v-190h-40v408z" />
    <glyph glyph-name="uni04AA" unicode="&#x4aa;" horiz-adv-x="678" 
d="M387 -9q-70 1 -130.5 28t-105.5 73.5t-71 108.5t-26 131q0 73 27 135.5t73.5 109t110 73t135.5 26.5q51 0 111.5 -19t112.5 -68v-58q-24 28 -52 48t-57.5 33t-59 18.5t-56.5 5.5q-64 0 -119 -24t-95 -66t-62.5 -97.5t-22.5 -118.5q0 -64 23.5 -119t64 -95.5t95.5 -63.5
t119 -23q15 0 39 2.5t53.5 13t62.5 30.5t67 55v-58q-30 -26 -58.5 -41.5t-53.5 -24.5t-46 -12t-35 -4v-140h-44v141v0z" />
    <glyph glyph-name="uni04AB" unicode="&#x4ab;" horiz-adv-x="442" 
d="M241 -10q-44 1 -79.5 18.5t-61.5 46t-40 66t-14 80.5q0 46 15 86t42.5 68.5t66.5 45t86 16.5q46 0 81.5 -15.5t61.5 -36.5v-53q-20 23 -41 36.5t-39.5 20t-34 8.5t-24.5 2q-39 0 -70.5 -13.5t-54 -37t-35 -56t-12.5 -70.5q0 -37 12 -69t34.5 -55.5t53 -37t68.5 -13.5
q25 0 47.5 7t41 17.5t33.5 23.5t26 25v-54q-18 -16 -35.5 -26t-33.5 -16.5t-30 -9.5t-24 -4v-110h-40v110v0z" />
    <glyph glyph-name="uni04AE" unicode="&#x4ae;" horiz-adv-x="516" 
d="M64 667l192 -337l196 337h50l-225 -382v-285h-44v285l-219 382h50z" />
    <glyph glyph-name="uni04AF" unicode="&#x4af;" horiz-adv-x="390" 
d="M8 408h44l143 -339l143 339h44l-167 -387v-251h-40v251z" />
    <glyph glyph-name="uni04B0" unicode="&#x4b0;" horiz-adv-x="516" 
d="M64 667l192 -337l196 337h50l-225 -382h200v-40h-200v-245h-44v245h-200v40h200l-219 382h50z" />
    <glyph glyph-name="uni04B1" unicode="&#x4b1;" horiz-adv-x="390" 
d="M8 408h44l143 -339l143 339h44l-167 -387v-21h120v-38h-120v-192h-40v192h-120v38h120v21z" />
    <glyph glyph-name="uni04B2" unicode="&#x4b2;" horiz-adv-x="470" 
d="M206 340l-175 327h48l151 -285l152 285h48l-174 -327l161 -300h22v-174h-42v134h-6l-161 300l-159 -300h-48z" />
    <glyph glyph-name="uni04B3" unicode="&#x4b3;" horiz-adv-x="400" 
d="M173 214l-151 194h49l129 -168l127 168h49l-148 -194l135 -176h29v-148h-38v110h-11l-143 188l-143 -188h-49z" />
    <glyph glyph-name="uni04B6" unicode="&#x4b6;" horiz-adv-x="580" 
d="M140 315q-24 12 -37.5 27t-21 33.5t-9.5 40.5t-2 48v203h44v-203q0 -48 12.5 -74.5t36 -39t56 -15t71.5 -2.5q40 0 74.5 1.5t81.5 5.5v327h44v-627h76v-174h-42v134h-78v300q-18 -1 -41.5 -2.5t-47 -2.5t-45 -1.5t-36.5 -0.5q-41 0 -74.5 4t-61.5 18z" />
    <glyph glyph-name="uni04B7" unicode="&#x4b7;" horiz-adv-x="412" 
d="M100 408v-123q0 -50 20 -69t68 -19q12 0 27.5 1t31 2.5t29.5 3t24 3.5v201h40v-370h60v-148h-38v110h-62v169q-25 -4 -54.5 -7t-52.5 -3q-35 0 -60.5 6t-41.5 20.5t-23.5 39t-7.5 60.5v123h40z" />
    <glyph glyph-name="uni04B8" unicode="&#x4b8;" horiz-adv-x="580" 
d="M114 667v-203q0 -42 9.5 -67.5t28.5 -39.5t47.5 -19t66.5 -5v171h40v-171q28 0 60 1.5t80 5.5v327h44v-667h-44v300q-15 -1 -26.5 -1.5t-26.5 -1.5t-35.5 -2t-51.5 -2v-129h-40v129q-10 0 -25.5 0.5t-32.5 3t-35 6.5t-33 12q-24 12 -37.5 27t-21 33.5t-9.5 40.5t-2 48
v203h44z" />
    <glyph glyph-name="uni04B9" unicode="&#x4b9;" horiz-adv-x="420" 
d="M100 408v-123q0 -48 19 -68t67 -20v120h38v-120q21 1 42 3t42 7v201h40v-408h-40v169q-21 -5 -42 -7t-42 -3v-80h-38v80q-23 0 -48.5 5.5t-40.5 16.5q-14 10 -21.5 23t-11 27t-4 28t-0.5 26v123h40z" />
    <glyph glyph-name="uni04BA" unicode="&#x4ba;" horiz-adv-x="580" 
d="M90 0v667h44v-283h170q41 0 74.5 -4t61.5 -18q24 -12 37.5 -27t21 -33.5t9.5 -40.5t2 -48v-213h-44v213q0 48 -12.5 74.5t-36 39t-56 15t-71.5 2.5h-156v-344h-44z" />
    <glyph glyph-name="uni04BB" unicode="&#x4bb;" horiz-adv-x="442" 
d="M112 729v-385q7 13 18 26t26 23.5t35 17t46 6.5q27 0 47 -7t33.5 -16.5t21.5 -19t11 -14.5q14 -22 17 -49t3 -54v-257h-40v257q0 25 -4 47t-14.5 38.5t-29.5 26.5t-48 10q-37 0 -60.5 -14.5t-37 -38.5t-19 -54t-5.5 -60v-212h-40v729h40z" />
    <glyph glyph-name="uni04C0" unicode="&#x4c0;" horiz-adv-x="184" 
d="M112 667v-667h-40v667h40z" />
    <glyph glyph-name="uni04C1" unicode="&#x4c1;" horiz-adv-x="796" 
d="M332 344l-296 323h58l282 -314v314h44v-314l282 314h58l-296 -323l318 -344h-58l-291 314l-13 -13v-301h-44v301l-13 13l-291 -314h-58zM293 822q10 -22 24.5 -35t29.5 -19.5t28.5 -8t22.5 -1.5t22.5 1.5t28.5 8t29.5 19.5t24.5 35l35 -19q-12 -26 -29 -42.5t-36.5 -26
t-39 -13t-35.5 -3.5t-35.5 3.5t-39 13t-36.5 26t-29 42.5z" />
    <glyph glyph-name="uni04C2" unicode="&#x4c2;" horiz-adv-x="560" 
d="M214 212l-190 196h52l184 -194v194h40v-194l184 194h52l-190 -196l206 -212h-54l-178 186l-20 -20v-166h-40v166l-20 20l-178 -186h-54zM184 590q8 -29 32.5 -51t63.5 -22t63.5 22t32.5 51l34 -17q-4 -13 -12.5 -29.5t-24 -30.5t-38 -24t-55.5 -10t-55.5 10t-38 24
t-24 30.5t-12.5 29.5z" />
    <glyph glyph-name="uni04C3" unicode="&#x4c3;" horiz-adv-x="537" 
d="M90 0v667h44v-314l315 314h58l-296 -298q34 0 61.5 -1t50 -5t42 -12t38.5 -21q55 -38 73 -97t18 -129q0 -55 -10 -103t-34 -84t-65 -56.5t-102 -20.5q-13 0 -28.5 1.5t-31.5 4.5v40q21 -5 36.5 -5.5t21.5 -0.5q51 0 83 18t51 48t26 70t7 84q0 52 -11.5 94.5t-36.5 72.5
t-63.5 46.5t-93.5 16.5q-26 0 -57 -3.5t-52 -7.5v-319h-44z" />
    <glyph glyph-name="uni04C4" unicode="&#x4c4;" horiz-adv-x="397" 
d="M112 408v-194l206 194h54l-208 -193q88 0 138 -48t50 -139q0 -45 -14.5 -84.5t-41 -70.5t-63 -52.5t-80.5 -28.5v40q35 8 64 26t49.5 44t32 58.5t11.5 68.5q0 81 -44 117.5t-119 36.5h-35v-183h-40v408h40z" />
    <glyph glyph-name="uni04C7" unicode="&#x4c7;" horiz-adv-x="672" 
d="M134 667v-283h404v283h44v-758q0 -28 -5 -53t-17.5 -44t-33.5 -30.5t-52 -11.5q-25 0 -46 7v41q16 -6 37 -6q25 0 39.5 9.5t22 25t9.5 35t2 39.5v423h-404v-344h-44v667h44z" />
    <glyph glyph-name="uni04C8" unicode="&#x4c8;" horiz-adv-x="454" 
d="M112 408v-180h230v180h40v-499q0 -26 -5 -51t-17 -44.5t-32 -31.5t-50 -12q-11 0 -19.5 1t-18.5 5v37q3 -1 11 -3t19 -2q24 0 38 9.5t21.5 25.5t10 35t2.5 39v273h-230v-190h-40v408h40z" />
    <glyph glyph-name="uni04D0" unicode="&#x4d0;" horiz-adv-x="586" 
d="M14 0l281 687l277 -687h-48l-89 219h-284l-89 -219h-48zM167 259h252l-125 316zM188 822q10 -22 24.5 -35t29.5 -19.5t28.5 -8t22.5 -1.5t22.5 1.5t28.5 8t29.5 19.5t24.5 35l35 -19q-12 -26 -29 -42.5t-36.5 -26t-39 -13t-35.5 -3.5t-35.5 3.5t-39 13t-36.5 26t-29 42.5
z" />
    <glyph glyph-name="uni04D1" unicode="&#x4d1;" horiz-adv-x="516" 
d="M245 -11q-40 0 -76 14.5t-63.5 42.5t-43.5 68t-16 90q0 47 14.5 86.5t40.5 67.5t62.5 43.5t81.5 15.5q48 0 89 -19t70 -61v71h40v-408h-40v73q-31 -47 -75 -65.5t-84 -18.5zM88 207q0 -35 10.5 -67t31 -57.5t50 -40.5t68.5 -15q38 0 67.5 15t49.5 40t30.5 57.5t10.5 67.5
q0 45 -15 77.5t-38.5 53.5t-51.5 31t-54 10q-30 0 -59 -11.5t-51 -33t-35.5 -53.5t-13.5 -74zM162 590q8 -29 32.5 -51t63.5 -22t63.5 22t32.5 51l34 -17q-4 -13 -12.5 -29.5t-24 -30.5t-38 -24t-55.5 -10t-55.5 10t-38 24t-24 30.5t-12.5 29.5z" />
    <glyph glyph-name="uni04D2" unicode="&#x4d2;" horiz-adv-x="586" 
d="M14 0l281 687l277 -687h-48l-89 219h-284l-89 -219h-48zM167 259h252l-125 316zM348 780q0 16 11 27t27 11t27 -11t11 -27t-11 -27t-27 -11t-27 11t-11 27zM162 780q0 16 11 27t27 11t27 -11t11 -27t-11 -27t-27 -11t-27 11t-11 27z" />
    <glyph glyph-name="uni04D3" unicode="&#x4d3;" horiz-adv-x="516" 
d="M245 -11q-40 0 -76 14.5t-63.5 42.5t-43.5 68t-16 90q0 47 14.5 86.5t40.5 67.5t62.5 43.5t81.5 15.5q48 0 89 -19t70 -61v71h40v-408h-40v73q-31 -47 -75 -65.5t-84 -18.5zM247 379q-30 0 -59 -11.5t-51 -33t-35.5 -53.5t-13.5 -74q0 -35 10.5 -67t31 -57.5t50 -40.5
t68.5 -15q38 0 67.5 15t49.5 40t30.5 57.5t10.5 67.5q0 45 -15 77.5t-38.5 53.5t-51.5 31t-54 10zM337 490q-15 0 -25.5 10.5t-10.5 25.5t10.5 25.5t25.5 10.5t25.5 -10.5t10.5 -25.5t-10.5 -25.5t-25.5 -10.5zM135 526q0 15 10.5 25.5t25.5 10.5t25.5 -10.5t10.5 -25.5
t-10.5 -25.5t-25.5 -10.5t-25.5 10.5t-10.5 25.5z" />
    <glyph glyph-name="uni04D4" unicode="&#x4d4;" horiz-adv-x="852" 
d="M283 667h289l17 -40h-275l99 -242h268l17 -40h-268l124 -305h273l18 -40h-322l-89 219h-285l-87 -219h-48zM165 259h252l-127 314z" />
    <glyph glyph-name="uni04D5" unicode="&#x4d5;" horiz-adv-x="792" 
d="M217 -11q-43 0 -75.5 11t-54 28.5t-32 40.5t-10.5 47q0 19 8 42t28.5 42t55 32t87.5 13q34 0 67 -7.5t64 -34.5q0 79 -33 127.5t-109 48.5q-38 0 -75.5 -11.5t-63.5 -25.5v41q29 14 64.5 24t76.5 10q57 0 100 -28.5t63 -85.5q26 52 71.5 83t103.5 31q36 0 70.5 -13.5
t61.5 -40.5t44 -68.5t18 -96.5h-350q1 -39 13 -70.5t33 -54t50 -34.5t62 -12q28 0 51.5 8.5t41.5 22t31.5 29.5t22.5 32l34 -24q-28 -44 -73.5 -75t-108.5 -31q-60 0 -102.5 28t-65.5 74q-17 -52 -62 -77t-107 -25zM87 116q0 -35 32 -62t98 -27q38 0 64 9t41.5 22.5t22.5 30
t7 31.5q0 14 -6.5 29.5t-21.5 28t-39.5 21t-61.5 8.5q-69 0 -102.5 -27t-33.5 -64zM705 236q-5 30 -18 56.5t-33 45.5t-46 30t-56 11t-55.5 -11t-45 -30.5t-32.5 -45.5t-17 -56h303z" />
    <glyph glyph-name="uni04D6" unicode="&#x4d6;" horiz-adv-x="464" 
d="M90 0v667h320v-40h-276v-242h270v-40h-270v-305h276v-40h-320zM145 822q10 -22 24.5 -35t29.5 -19.5t28.5 -8t22.5 -1.5t22.5 1.5t28.5 8t29.5 19.5t24.5 35l35 -19q-12 -26 -29 -42.5t-36.5 -26t-39 -13t-35.5 -3.5t-35.5 3.5t-39 13t-36.5 26t-29 42.5z" />
    <glyph glyph-name="uni04D7" unicode="&#x4d7;" horiz-adv-x="483" 
d="M247 -11q-48 0 -85 16.5t-63 45.5t-39.5 67.5t-13.5 83.5q0 53 17 93.5t44.5 67.5t63 40.5t73.5 13.5q41 0 76.5 -16t61.5 -44.5t40.5 -68.5t14.5 -89h-349q0 -39 13 -71t35.5 -54.5t52 -34.5t61.5 -12q50 0 86 26t56 67l34 -20q-9 -17 -24 -36.5t-36.5 -36t-51 -27.5
t-67.5 -11zM244 379q-31 0 -57.5 -11t-46 -30.5t-32.5 -45t-17 -55.5h304q-4 30 -16.5 56t-32.5 45t-46 30t-56 11zM242 479q-33 0 -55.5 10t-38 24t-24 30.5t-12.5 29.5l34 17q8 -29 32.5 -51t63.5 -22t63.5 22t32.5 51l34 -17q-4 -13 -12.5 -29.5t-24 -30.5t-38 -24
t-55.5 -10z" />
    <glyph glyph-name="uni04D8" unicode="&#x4d8;" horiz-adv-x="773" 
d="M374 -11q-75 0 -134 24.5t-100.5 68.5t-63.5 105t-22 133h619v10q0 64 -22.5 119.5t-62.5 97t-95.5 65.5t-120.5 24q-38 0 -75.5 -10t-71 -29t-61.5 -45.5t-47 -59.5l-35 28q52 73 125 114.5t164 41.5q73 0 136.5 -26t110.5 -72t74 -109t27 -137q0 -75 -26.5 -137.5
t-72.5 -108.5t-109.5 -71.5t-136.5 -25.5zM100 280q3 -57 24.5 -103.5t58.5 -79t86 -50.5t106 -18q60 0 110.5 20t88.5 54.5t62.5 80t32.5 96.5h-569z" />
    <glyph glyph-name="uni04D9" unicode="&#x4d9;" horiz-adv-x="483" 
d="M239 -11q-41 0 -76.5 15t-61.5 43.5t-40.5 68.5t-14.5 91h349q0 42 -13 74t-35.5 54t-52 33t-61.5 11q-50 0 -86 -26t-56 -67l-34 20q9 17 24 36.5t36.5 36t51 27.5t67.5 11q48 0 85 -16.5t63 -45.5t39.5 -67.5t13.5 -83.5q0 -53 -17 -93.5t-44.5 -67.5t-63.5 -40.5
t-73 -13.5zM88 169q4 -30 16.5 -56t32.5 -45t46 -30t56 -11q31 0 57.5 11t46 30.5t32.5 45t17 55.5h-304z" />
    <glyph glyph-name="uni04DA" unicode="&#x4da;" horiz-adv-x="773" 
d="M374 -11q-75 0 -134 24.5t-100.5 68.5t-63.5 105t-22 133h619v10q0 64 -22.5 119.5t-62.5 97t-95.5 65.5t-120.5 24q-38 0 -75.5 -10t-71 -29t-61.5 -45.5t-47 -59.5l-35 28q52 73 125 114.5t164 41.5q73 0 136.5 -26t110.5 -72t74 -109t27 -137q0 -75 -26.5 -137.5
t-72.5 -108.5t-109.5 -71.5t-136.5 -25.5zM100 280q3 -57 24.5 -103.5t58.5 -79t86 -50.5t106 -18q60 0 110.5 20t88.5 54.5t62.5 80t32.5 96.5h-569zM431 780q0 16 11 27t27 11t27 -11t11 -27t-11 -27t-27 -11t-27 11t-11 27zM245 780q0 16 11 27t27 11t27 -11t11 -27
t-11 -27t-27 -11t-27 11t-11 27z" />
    <glyph glyph-name="uni04DB" unicode="&#x4db;" horiz-adv-x="483" 
d="M239 -11q-41 0 -76.5 15t-61.5 43.5t-40.5 68.5t-14.5 91h349q0 42 -13 74t-35.5 54t-52 33t-61.5 11q-50 0 -86 -26t-56 -67l-34 20q9 17 24 36.5t36.5 36t51 27.5t67.5 11q48 0 85 -16.5t63 -45.5t39.5 -67.5t13.5 -83.5q0 -53 -17 -93.5t-44.5 -67.5t-63.5 -40.5
t-73 -13.5zM88 169q4 -30 16.5 -56t32.5 -45t46 -30t56 -11q31 0 57.5 11t46 30.5t32.5 45t17 55.5h-304zM323 490q-15 0 -25.5 10.5t-10.5 25.5t10.5 25.5t25.5 10.5t25.5 -10.5t10.5 -25.5t-10.5 -25.5t-25.5 -10.5zM157 490q-15 0 -25.5 10.5t-10.5 25.5t10.5 25.5
t25.5 10.5t25.5 -10.5t10.5 -25.5t-10.5 -25.5t-25.5 -10.5z" />
    <glyph glyph-name="uni04DC" unicode="&#x4dc;" horiz-adv-x="796" 
d="M332 344l-296 323h58l282 -314v314h44v-314l282 314h58l-296 -323l318 -344h-58l-291 314l-13 -13v-301h-44v301l-13 13l-291 -314h-58zM453 780q0 16 11 27t27 11t27 -11t11 -27t-11 -27t-27 -11t-27 11t-11 27zM305 742q-16 0 -27 11t-11 27t11 27t27 11t27 -11t11 -27
t-11 -27t-27 -11z" />
    <glyph glyph-name="uni04DD" unicode="&#x4dd;" horiz-adv-x="560" 
d="M214 212l-190 196h52l184 -194v194h40v-194l184 194h52l-190 -196l206 -212h-54l-178 186l-20 -20v-166h-40v166l-20 20l-178 -186h-54zM327 526q0 15 10.5 25.5t25.5 10.5t25.5 -10.5t10.5 -25.5t-10.5 -25.5t-25.5 -10.5t-25.5 10.5t-10.5 25.5zM197 490
q-15 0 -25.5 10.5t-10.5 25.5t10.5 25.5t25.5 10.5t25.5 -10.5t10.5 -25.5t-10.5 -25.5t-25.5 -10.5z" />
    <glyph glyph-name="uni04DE" unicode="&#x4de;" horiz-adv-x="554" 
d="M279 -11q-45 0 -81 12t-64 31.5t-48 45t-32 52.5l42 20q13 -32 35 -55t47.5 -37.5t52.5 -21.5t51 -7q37 0 68.5 11t54.5 31.5t36 50.5t13 69q0 70 -47 109t-131 39h-60v40h60q25 0 48.5 9t42 26t30 42t11.5 57q0 59 -35.5 91t-92.5 32q-37 0 -75 -17t-69 -65l-32 27
q23 38 66.5 66.5t114.5 28.5q37 0 68 -11.5t53.5 -32.5t35 -51t12.5 -68q0 -54 -25.5 -90t-62.5 -56q66 -17 100 -65t34 -111q0 -49 -17 -87t-47 -63.5t-70.5 -38.5t-86.5 -13zM378 742q-16 0 -27 11t-11 27t11 27t27 11t27 -11t11 -27t-11 -27t-27 -11zM192 742
q-16 0 -27 11t-11 27t11 27t27 11t27 -11t11 -27t-11 -27t-27 -11z" />
    <glyph glyph-name="uni04DF" unicode="&#x4df;" horiz-adv-x="400" 
d="M202 -11q-51 0 -92 21.5t-64 68.5l36 23q17 -36 48.5 -55.5t71.5 -19.5q22 0 42 5.5t35 16.5t24 29t9 42q0 23 -8.5 38t-23 24t-33 12.5t-38.5 3.5h-42v38h31q16 0 31.5 3.5t27.5 12t19.5 21.5t7.5 32q0 38 -24.5 56t-59.5 18q-37 0 -60 -17.5t-35 -39.5l-33 23
q6 11 16.5 23.5t26 23.5t37 18t49.5 7q51 0 87 -26.5t36 -81.5q0 -60 -47 -85q38 -9 57.5 -38t19.5 -67q0 -33 -12.5 -57.5t-33.5 -40.5t-48.5 -24t-57.5 -8zM283 490q-15 0 -25.5 10.5t-10.5 25.5t10.5 25.5t25.5 10.5t25.5 -10.5t10.5 -25.5t-10.5 -25.5t-25.5 -10.5z
M81 526q0 15 10.5 25.5t25.5 10.5t25.5 -10.5t10.5 -25.5t-10.5 -25.5t-25.5 -10.5t-25.5 10.5t-10.5 25.5z" />
    <glyph glyph-name="uni04E2" unicode="&#x4e2;" horiz-adv-x="700" 
d="M566 556l-476 -573v684h44v-566l476 573v-674h-44v556zM215 794h270v-44h-270v44z" />
    <glyph glyph-name="uni04E3" unicode="&#x4e3;" horiz-adv-x="474" 
d="M112 408v-327l290 350v-431h-40v325l-290 -350v433h40zM102 532h270v-39h-270v39z" />
    <glyph glyph-name="uni04E4" unicode="&#x4e4;" horiz-adv-x="700" 
d="M90 667h44v-566l476 573v-674h-44v556l-476 -573v684zM405 780q0 16 11 27t27 11t27 -11t11 -27t-11 -27t-27 -11t-27 11t-11 27zM257 742q-16 0 -27 11t-11 27t11 27t27 11t27 -11t11 -27t-11 -27t-27 -11z" />
    <glyph glyph-name="uni04E5" unicode="&#x4e5;" horiz-adv-x="474" 
d="M72 -25v433h40v-327l290 350v-431h-40v325zM284 526q0 15 10.5 25.5t25.5 10.5t25.5 -10.5t10.5 -25.5t-10.5 -25.5t-25.5 -10.5t-25.5 10.5t-10.5 25.5zM154 490q-15 0 -25.5 10.5t-10.5 25.5t10.5 25.5t25.5 10.5t25.5 -10.5t10.5 -25.5t-10.5 -25.5t-25.5 -10.5z" />
    <glyph glyph-name="uni04E6" unicode="&#x4e6;" horiz-adv-x="800" 
d="M54 332q0 72 26.5 134.5t73 109t110 73.5t136.5 27t136.5 -27t110 -73.5t73 -109t26.5 -134.5t-26.5 -134.5t-73 -109t-110 -73t-136.5 -26.5t-136.5 26.5t-110 73t-73 109t-26.5 134.5zM400 636q-65 0 -119.5 -23.5t-95 -64.5t-63 -96.5t-22.5 -119.5t22.5 -119t63 -96
t95 -64.5t119.5 -23.5q64 0 119 23.5t95.5 64.5t63 96t22.5 119t-22.5 119.5t-63 96.5t-95.5 64.5t-119 23.5zM455 780q0 16 11 27t27 11t27 -11t11 -27t-11 -27t-27 -11t-27 11t-11 27zM269 780q0 16 11 27t27 11t27 -11t11 -27t-11 -27t-27 -11t-27 11t-11 27z" />
    <glyph glyph-name="uni04E7" unicode="&#x4e7;" horiz-adv-x="520" 
d="M46 203q0 45 16.5 84.5t45 68t68 45t84.5 16.5t84.5 -16.5t68 -45t45 -68t16.5 -84.5t-16.5 -84.5t-45 -68t-68 -45t-84.5 -16.5t-84.5 16.5t-68 45t-45 68t-16.5 84.5zM260 379q-37 0 -68.5 -13.5t-54.5 -37.5t-36 -56t-13 -69t13 -69t36 -56t54.5 -37.5t68.5 -13.5
t68.5 13.5t54.5 37.5t36 56t13 69t-13 69t-36 56t-54.5 37.5t-68.5 13.5zM307 526q0 15 10.5 25.5t25.5 10.5t25.5 -10.5t10.5 -25.5t-10.5 -25.5t-25.5 -10.5t-25.5 10.5t-10.5 25.5zM141 526q0 15 10.5 25.5t25.5 10.5t25.5 -10.5t10.5 -25.5t-10.5 -25.5t-25.5 -10.5
t-25.5 10.5t-10.5 25.5z" />
    <glyph glyph-name="uni04E8" unicode="&#x4e8;" horiz-adv-x="800" 
d="M54 332q0 72 26.5 134.5t73 109t110 73.5t136.5 27t136.5 -27t110 -73.5t73 -109t26.5 -134.5t-26.5 -134.5t-73 -109t-110 -73t-136.5 -26.5t-136.5 26.5t-110 73t-73 109t-26.5 134.5zM100 320q2 -57 24 -110t61 -93t93.5 -64t121.5 -24t121.5 24t93.5 64t61 93t24 110
h-600zM400 636q-57 0 -108.5 -19.5t-92 -55.5t-66.5 -87t-32 -114h598q-6 63 -32 114t-66.5 87t-92 55.5t-108.5 19.5z" />
    <glyph glyph-name="uni04E9" unicode="&#x4e9;" horiz-adv-x="520" 
d="M46 203q0 45 16.5 84.5t45 68t68 45t84.5 16.5t84.5 -16.5t68 -45t45 -68t16.5 -84.5t-16.5 -84.5t-45 -68t-68 -45t-84.5 -16.5t-84.5 16.5t-68 45t-45 68t-16.5 84.5zM89 189q2 -36 16.5 -66t38 -51.5t53.5 -33t63 -11.5t63 11.5t53 33t38 51.5t17 66h-342zM260 379
q-28 0 -56.5 -9.5t-52.5 -28.5t-40.5 -47.5t-21.5 -66.5h342q-5 38 -21.5 66.5t-40.5 47.5t-52.5 28.5t-56.5 9.5z" />
    <glyph glyph-name="uni04EA" unicode="&#x4ea;" horiz-adv-x="800" 
d="M54 332q0 72 26.5 134.5t73 109t110 73.5t136.5 27t136.5 -27t110 -73.5t73 -109t26.5 -134.5t-26.5 -134.5t-73 -109t-110 -73t-136.5 -26.5t-136.5 26.5t-110 73t-73 109t-26.5 134.5zM100 320q2 -57 24 -110t61 -93t93.5 -64t121.5 -24t121.5 24t93.5 64t61 93t24 110
h-600zM400 636q-57 0 -108.5 -19.5t-92 -55.5t-66.5 -87t-32 -114h598q-6 63 -32 114t-66.5 87t-92 55.5t-108.5 19.5zM493 742q-16 0 -27 11t-11 27t11 27t27 11t27 -11t11 -27t-11 -27t-27 -11zM307 742q-16 0 -27 11t-11 27t11 27t27 11t27 -11t11 -27t-11 -27t-27 -11z
" />
    <glyph glyph-name="uni04EB" unicode="&#x4eb;" horiz-adv-x="520" 
d="M46 203q0 45 16.5 84.5t45 68t68 45t84.5 16.5t84.5 -16.5t68 -45t45 -68t16.5 -84.5t-16.5 -84.5t-45 -68t-68 -45t-84.5 -16.5t-84.5 16.5t-68 45t-45 68t-16.5 84.5zM89 189q2 -36 16.5 -66t38 -51.5t53.5 -33t63 -11.5t63 11.5t53 33t38 51.5t17 66h-342zM260 379
q-28 0 -56.5 -9.5t-52.5 -28.5t-40.5 -47.5t-21.5 -66.5h342q-5 38 -21.5 66.5t-40.5 47.5t-52.5 28.5t-56.5 9.5zM343 490q-15 0 -25.5 10.5t-10.5 25.5t10.5 25.5t25.5 10.5t25.5 -10.5t10.5 -25.5t-10.5 -25.5t-25.5 -10.5zM177 490q-15 0 -25.5 10.5t-10.5 25.5
t10.5 25.5t25.5 10.5t25.5 -10.5t10.5 -25.5t-10.5 -25.5t-25.5 -10.5z" />
    <glyph glyph-name="uni04EE" unicode="&#x4ee;" horiz-adv-x="550" 
d="M64 667l231 -432l195 432h46l-305 -667h-46l85 186l-256 481h50zM420 794v-44h-270v44h270z" />
    <glyph glyph-name="uni04EF" unicode="&#x4ef;" horiz-adv-x="428" 
d="M54 408l171 -363l149 363h46l-268 -638h-46l96 223l-194 415h46zM349 532v-39h-270v39h270z" />
    <glyph glyph-name="uni04F0" unicode="&#x4f0;" horiz-adv-x="550" 
d="M14 667h50l231 -432l195 432h46l-305 -667h-46l85 186zM339 780q0 16 11 27t27 11t27 -11t11 -27t-11 -27t-27 -11t-27 11t-11 27zM153 780q0 16 11 27t27 11t27 -11t11 -27t-11 -27t-27 -11t-27 11t-11 27z" />
    <glyph glyph-name="uni04F1" unicode="&#x4f1;" horiz-adv-x="428" 
d="M54 408l171 -363l149 363h46l-268 -638h-46l96 223l-194 415h46zM303 490q-15 0 -25.5 10.5t-10.5 25.5t10.5 25.5t25.5 10.5t25.5 -10.5t10.5 -25.5t-10.5 -25.5t-25.5 -10.5zM101 526q0 15 10.5 25.5t25.5 10.5t25.5 -10.5t10.5 -25.5t-10.5 -25.5t-25.5 -10.5
t-25.5 10.5t-10.5 25.5z" />
    <glyph glyph-name="uni04F2" unicode="&#x4f2;" horiz-adv-x="550" 
d="M64 667l231 -432l195 432h46l-305 -667h-46l85 186l-256 481h50zM302 718l84 136l52 -26l-100 -125zM181 718l84 136l52 -26l-100 -125z" />
    <glyph glyph-name="uni04F3" unicode="&#x4f3;" horiz-adv-x="428" 
d="M54 408l171 -363l149 363h46l-268 -638h-46l96 223l-194 415h46zM240 483l84 137l42 -25l-99 -128zM129 483l84 137l42 -25l-99 -128z" />
    <glyph glyph-name="uni04F4" unicode="&#x4f4;" horiz-adv-x="580" 
d="M140 315q-24 12 -37.5 27t-21 33.5t-9.5 40.5t-2 48v203h44v-203q0 -48 12.5 -74.5t36 -39t56 -15t71.5 -2.5q40 0 74.5 1.5t81.5 5.5v327h44v-667h-44v300q-18 -1 -41.5 -2.5t-47 -2.5t-45 -1.5t-36.5 -0.5q-41 0 -74.5 4t-61.5 18zM345 780q0 16 11 27t27 11t27 -11
t11 -27t-11 -27t-27 -11t-27 11t-11 27zM197 742q-16 0 -27 11t-11 27t11 27t27 11t27 -11t11 -27t-11 -27t-27 -11z" />
    <glyph glyph-name="uni04F5" unicode="&#x4f5;" horiz-adv-x="412" 
d="M193 159q-35 0 -60.5 6t-41.5 20.5t-23.5 39t-7.5 60.5v123h40v-123q0 -50 20 -69t68 -19q12 0 27.5 1t31 2.5t29.5 3t24 3.5v201h40v-408h-40v169q-25 -4 -54.5 -7t-52.5 -3zM289 490q-15 0 -25.5 10.5t-10.5 25.5t10.5 25.5t25.5 10.5t25.5 -10.5t10.5 -25.5
t-10.5 -25.5t-25.5 -10.5zM87 526q0 15 10.5 25.5t25.5 10.5t25.5 -10.5t10.5 -25.5t-10.5 -25.5t-25.5 -10.5t-25.5 10.5t-10.5 25.5z" />
    <glyph glyph-name="uni04F8" unicode="&#x4f8;" horiz-adv-x="690" 
d="M90 0v667h44v-287h116q30 0 70 -5t75.5 -24t60 -55t24.5 -99q0 -38 -12 -73t-37.5 -63t-67 -44.5t-99.5 -16.5h-174zM134 340v-300h112q40 0 74.5 8t60 26.5t39.5 48.5t14 74q0 47 -16.5 75t-43.5 43t-62.5 20t-73.5 5h-104zM556 667h44v-667h-44v667zM400 780
q0 16 11 27t27 11t27 -11t11 -27t-11 -27t-27 -11t-27 11t-11 27zM214 780q0 16 11 27t27 11t27 -11t11 -27t-11 -27t-27 -11t-27 11t-11 27z" />
    <glyph glyph-name="uni04F9" unicode="&#x4f9;" 
d="M112 408v-170h97q57 0 95 -29.5t38 -89.5q0 -62 -38.5 -90.5t-95.5 -28.5h-136v408h40zM112 200v-162h96q38 0 65 19.5t27 61.5q0 43 -27.5 62t-66.5 19h-94zM388 408h40v-408h-40v408zM297 526q0 15 10.5 25.5t25.5 10.5t25.5 -10.5t10.5 -25.5t-10.5 -25.5t-25.5 -10.5
t-25.5 10.5t-10.5 25.5zM131 526q0 15 10.5 25.5t25.5 10.5t25.5 -10.5t10.5 -25.5t-10.5 -25.5t-25.5 -10.5t-25.5 10.5t-10.5 25.5z" />
    <glyph glyph-name="Germandbls" unicode="&#x1e9e;" horiz-adv-x="560" 
d="M90 500q0 40 14 72.5t38.5 55.5t58.5 35.5t73 12.5q26 0 57 -7t56 -24q29 -20 46 -50.5t16 -68.5l-143 -135q37 -5 72.5 -19t64 -37t46 -55t17.5 -73q0 -51 -21.5 -88.5t-56.5 -63t-79 -39t-89 -16.5v40q35 2 71 12.5t64.5 30t46.5 49t18 70.5q0 40 -18.5 68.5
t-47.5 46.5t-64.5 27.5t-69.5 12.5v40l142 137q-2 27 -13 46.5t-28.5 32t-40 18t-47.5 5.5q-65 0 -102 -37t-37 -103v-496h-44v500v0z" />
    <glyph glyph-name="uni1EA0" unicode="&#x1ea0;" horiz-adv-x="586" 
d="M14 0l281 687l277 -687h-48l-89 219h-284l-89 -219h-48zM167 259h252l-125 316zM252 -133q0 17 12 29.5t29 12.5t29.5 -12.5t12.5 -29.5t-12.5 -29t-29.5 -12t-29 12t-12 29z" />
    <glyph glyph-name="uni1EA1" unicode="&#x1ea1;" horiz-adv-x="516" 
d="M46 204q0 47 14.5 86.5t40.5 67.5t62.5 43.5t81.5 15.5q48 0 89 -19t70 -61v71h40v-408h-40v73q-31 -47 -75 -65.5t-84 -18.5t-76 14.5t-63.5 42.5t-43.5 68t-16 90zM247 379q-30 0 -59 -11.5t-51 -33t-35.5 -53.5t-13.5 -74q0 -35 10.5 -67t31 -57.5t50 -40.5t68.5 -15
q38 0 67.5 15t49.5 40t30.5 57.5t10.5 67.5q0 45 -15 77.5t-38.5 53.5t-51.5 31t-54 10zM197 -133q0 17 12 29.5t29 12.5t29.5 -12.5t12.5 -29.5t-12.5 -29t-29.5 -12t-29 12t-12 29z" />
    <glyph glyph-name="uni1EA2" unicode="&#x1ea2;" horiz-adv-x="586" 
d="M295 687l277 -687h-48l-89 219h-284l-89 -219h-48zM167 259h252l-125 316zM197 807q1 13 7.5 26t18 23.5t28.5 17.5t41 7q17 0 33.5 -4.5t29 -13.5t20 -23t7.5 -33q0 -32 -22.5 -49.5t-48.5 -20.5v-18h-35v41q11 0 23.5 2.5t23 8t17.5 14.5t7 23q0 18 -14 30.5t-40 12.5
q-27 0 -42.5 -13.5t-17.5 -30.5h-36z" />
    <glyph glyph-name="uni1EA3" unicode="&#x1ea3;" horiz-adv-x="516" 
d="M46 204q0 47 14.5 86.5t40.5 67.5t62.5 43.5t81.5 15.5q48 0 89 -19t70 -61v71h40v-408h-40v73q-31 -47 -75 -65.5t-84 -18.5t-76 14.5t-63.5 42.5t-43.5 68t-16 90zM88 207q0 -35 10.5 -67t31 -57.5t50 -40.5t68.5 -15q38 0 67.5 15t49.5 40t30.5 57.5t10.5 67.5
q0 45 -15 77.5t-38.5 53.5t-51.5 31t-54 10q-30 0 -59 -11.5t-51 -33t-35.5 -53.5t-13.5 -74zM167 568q1 13 7.5 26t18 23.5t28.5 17.5t41 7q17 0 33.5 -4.5t29 -13.5t20 -23t7.5 -33q0 -32 -22.5 -49.5t-48.5 -20.5v-18h-35v41q11 0 23.5 2.5t23 8t17.5 14.5t7 23
q0 18 -14 30.5t-40 12.5q-27 0 -42.5 -13.5t-17.5 -30.5h-36z" />
    <glyph glyph-name="uni1EA4" unicode="&#x1ea4;" horiz-adv-x="586" 
d="M14 0l281 687l277 -687h-48l-89 219h-284l-89 -219h-48zM419 259l-125 316l-127 -316h252zM168 743l126 113l127 -113l-25 -25l-102 87l-101 -87zM393 823l130 125l31 -32l-137 -115z" />
    <glyph glyph-name="uni1EA5" unicode="&#x1ea5;" horiz-adv-x="516" 
d="M245 -11q-40 0 -76 14.5t-63.5 42.5t-43.5 68t-16 90q0 47 14.5 86.5t40.5 67.5t62.5 43.5t81.5 15.5q48 0 89 -19t70 -61v71h40v-408h-40v73q-31 -47 -75 -65.5t-84 -18.5zM88 207q0 -35 10.5 -67t31 -57.5t50 -40.5t68.5 -15q38 0 67.5 15t49.5 40t30.5 57.5t10.5 67.5
q0 45 -15 77.5t-38.5 53.5t-51.5 31t-54 10q-30 0 -59 -11.5t-51 -33t-35.5 -53.5t-13.5 -74zM132 505l126 113l127 -113l-25 -25l-102 87l-101 -87zM487 710l31 -32l-137 -115l-24 22z" />
    <glyph glyph-name="uni1EA6" unicode="&#x1ea6;" horiz-adv-x="586" 
d="M14 0l281 687l277 -687h-48l-89 219h-284l-89 -219h-48zM419 259l-125 316l-127 -316h252zM168 743l126 113l127 -113l-25 -25l-102 87l-101 -87zM343 948l130 -125l-24 -22l-137 115z" />
    <glyph glyph-name="uni1EA7" unicode="&#x1ea7;" horiz-adv-x="516" 
d="M245 -11q-40 0 -76 14.5t-63.5 42.5t-43.5 68t-16 90q0 47 14.5 86.5t40.5 67.5t62.5 43.5t81.5 15.5q48 0 89 -19t70 -61v71h40v-408h-40v73q-31 -47 -75 -65.5t-84 -18.5zM88 207q0 -35 10.5 -67t31 -57.5t50 -40.5t68.5 -15q38 0 67.5 15t49.5 40t30.5 57.5t10.5 67.5
q0 45 -15 77.5t-38.5 53.5t-51.5 31t-54 10q-30 0 -59 -11.5t-51 -33t-35.5 -53.5t-13.5 -74zM132 505l126 113l127 -113l-25 -25l-102 87l-101 -87zM307 710l130 -125l-24 -22l-137 115z" />
    <glyph glyph-name="uni1EA8" unicode="&#x1ea8;" horiz-adv-x="586" 
d="M14 0l281 687l277 -687h-48l-89 219h-284l-89 -219h-48zM167 259h252l-125 316zM328 889q1 13 7.5 26t18 23.5t28.5 17.5t41 7q17 0 33.5 -4.5t29 -13.5t20 -23t7.5 -33q0 -32 -22.5 -49.5t-48.5 -20.5v-18h-35v41q11 0 23.5 2.5t23 8t17.5 14.5t7 23q0 18 -14 30.5
t-40 12.5q-27 0 -42.5 -13.5t-17.5 -30.5h-36zM294 856l127 -113l-25 -25l-102 87l-101 -87l-25 25z" />
    <glyph glyph-name="uni1EA9" unicode="&#x1ea9;" horiz-adv-x="516" 
d="M46 204q0 47 14.5 86.5t40.5 67.5t62.5 43.5t81.5 15.5q48 0 89 -19t70 -61v71h40v-408h-40v73q-31 -47 -75 -65.5t-84 -18.5t-76 14.5t-63.5 42.5t-43.5 68t-16 90zM247 379q-30 0 -59 -11.5t-51 -33t-35.5 -53.5t-13.5 -74q0 -35 10.5 -67t31 -57.5t50 -40.5t68.5 -15
q38 0 67.5 15t49.5 40t30.5 57.5t10.5 67.5q0 45 -15 77.5t-38.5 53.5t-51.5 31t-54 10zM292 651q1 13 7.5 26t18 23.5t28.5 17.5t41 7q17 0 33.5 -4.5t29 -13.5t20 -23t7.5 -33q0 -32 -22.5 -49.5t-48.5 -20.5v-18h-35v41q11 0 23.5 2.5t23 8t17.5 14.5t7 23q0 18 -14 30.5
t-40 12.5q-27 0 -42.5 -13.5t-17.5 -30.5h-36zM258 618l127 -113l-25 -25l-102 87l-101 -87l-25 25z" />
    <glyph glyph-name="uni1EAA" unicode="&#x1eaa;" horiz-adv-x="586" 
d="M295 687l277 -687h-48l-89 219h-284l-89 -219h-48zM419 259l-125 316l-127 -316h252zM168 743l126 113l127 -113l-25 -25l-102 87l-101 -87zM168 886q8 26 27 41.5t46 15.5q18 0 32.5 -6t27 -13t24.5 -13t27 -6q17 0 28.5 14.5t13.5 25.5l26 -20q-6 -23 -23 -40t-43 -17
q-17 0 -30.5 6t-26.5 13t-27 13t-32 6q-15 0 -27 -12t-15 -27z" />
    <glyph glyph-name="uni1EAB" unicode="&#x1eab;" horiz-adv-x="516" 
d="M46 204q0 47 14.5 86.5t40.5 67.5t62.5 43.5t81.5 15.5q48 0 89 -19t70 -61v71h40v-408h-40v73q-31 -47 -75 -65.5t-84 -18.5t-76 14.5t-63.5 42.5t-43.5 68t-16 90zM247 379q-30 0 -59 -11.5t-51 -33t-35.5 -53.5t-13.5 -74q0 -35 10.5 -67t31 -57.5t50 -40.5t68.5 -15
q38 0 67.5 15t49.5 40t30.5 57.5t10.5 67.5q0 45 -15 77.5t-38.5 53.5t-51.5 31t-54 10zM132 505l126 113l127 -113l-25 -25l-102 87l-101 -87zM132 648q8 26 27 41.5t46 15.5q18 0 32.5 -6t27 -13t24.5 -13t27 -6q17 0 28.5 14.5t13.5 25.5l26 -20q-6 -23 -23 -40t-43 -17
q-17 0 -30.5 6t-26.5 13t-27 13t-32 6q-15 0 -27 -12t-15 -27z" />
    <glyph glyph-name="uni1EAC" unicode="&#x1eac;" horiz-adv-x="586" 
d="M14 0l281 687l277 -687h-48l-89 219h-284l-89 -219h-48zM167 259h252l-125 316zM294 856l127 -113l-25 -25l-102 87l-101 -87l-25 25zM293 -174q-17 0 -29 12t-12 29t12 29.5t29 12.5t29.5 -12.5t12.5 -29.5t-12.5 -29t-29.5 -12z" />
    <glyph glyph-name="uni1EAD" unicode="&#x1ead;" horiz-adv-x="516" 
d="M46 204q0 47 14.5 86.5t40.5 67.5t62.5 43.5t81.5 15.5q48 0 89 -19t70 -61v71h40v-408h-40v73q-31 -47 -75 -65.5t-84 -18.5t-76 14.5t-63.5 42.5t-43.5 68t-16 90zM247 379q-30 0 -59 -11.5t-51 -33t-35.5 -53.5t-13.5 -74q0 -35 10.5 -67t31 -57.5t50 -40.5t68.5 -15
q38 0 67.5 15t49.5 40t30.5 57.5t10.5 67.5q0 45 -15 77.5t-38.5 53.5t-51.5 31t-54 10zM132 505l126 113l127 -113l-25 -25l-102 87l-101 -87zM238 -174q-17 0 -29 12t-12 29t12 29.5t29 12.5t29.5 -12.5t12.5 -29.5t-12.5 -29t-29.5 -12z" />
    <glyph glyph-name="uni1EAE" unicode="&#x1eae;" horiz-adv-x="586" 
d="M14 0l281 687l277 -687h-48l-89 219h-284l-89 -219h-48zM167 259h252l-125 316zM214 820q5 -30 23 -48t59 -18t59 18t23 48h39q-8 -43 -35 -71.5t-86 -29.5q-59 1 -86.5 29.5t-34.5 71.5h39zM263 852l130 125l31 -32l-137 -115z" />
    <glyph glyph-name="uni1EAF" unicode="&#x1eaf;" horiz-adv-x="516" 
d="M245 -11q-40 0 -76 14.5t-63.5 42.5t-43.5 68t-16 90q0 47 14.5 86.5t40.5 67.5t62.5 43.5t81.5 15.5q48 0 89 -19t70 -61v71h40v-408h-40v73q-31 -47 -75 -65.5t-84 -18.5zM247 379q-30 0 -59 -11.5t-51 -33t-35.5 -53.5t-13.5 -74q0 -35 10.5 -67t31 -57.5t50 -40.5
t68.5 -15q38 0 67.5 15t49.5 40t30.5 57.5t10.5 67.5q0 45 -15 77.5t-38.5 53.5t-51.5 31t-54 10zM260 480q-59 1 -86.5 29.5t-34.5 71.5h39q5 -30 23 -48t59 -18t59 18t23 48h39q-8 -43 -35 -71.5t-86 -29.5zM227 613l130 125l31 -32l-137 -115z" />
    <glyph glyph-name="uni1EB0" unicode="&#x1eb0;" horiz-adv-x="586" 
d="M14 0l281 687l277 -687h-48l-89 219h-284l-89 -219h-48zM167 259h252l-125 316zM214 820q5 -30 23 -48t59 -18t59 18t23 48h39q-8 -43 -35 -71.5t-86 -29.5q-59 1 -86.5 29.5t-34.5 71.5h39zM167 945l31 32l130 -125l-24 -22z" />
    <glyph glyph-name="uni1EB1" unicode="&#x1eb1;" horiz-adv-x="516" 
d="M245 -11q-40 0 -76 14.5t-63.5 42.5t-43.5 68t-16 90q0 47 14.5 86.5t40.5 67.5t62.5 43.5t81.5 15.5q48 0 89 -19t70 -61v71h40v-408h-40v73q-31 -47 -75 -65.5t-84 -18.5zM88 207q0 -35 10.5 -67t31 -57.5t50 -40.5t68.5 -15q38 0 67.5 15t49.5 40t30.5 57.5t10.5 67.5
q0 45 -15 77.5t-38.5 53.5t-51.5 31t-54 10q-30 0 -59 -11.5t-51 -33t-35.5 -53.5t-13.5 -74zM260 480q-59 1 -86.5 29.5t-34.5 71.5h39q5 -30 23 -48t59 -18t59 18t23 48h39q-8 -43 -35 -71.5t-86 -29.5zM162 738l130 -125l-24 -22l-137 115z" />
    <glyph glyph-name="uni1EB2" unicode="&#x1eb2;" horiz-adv-x="586" 
d="M295 687l277 -687h-48l-89 219h-284l-89 -219h-48zM419 259l-125 316l-127 -316h252zM198 919q1 13 7.5 26t18 23.5t28.5 17.5t41 7q17 0 33.5 -4.5t29 -13.5t20 -23t7.5 -33q0 -32 -22.5 -49.5t-48.5 -20.5v-18h-35v41q11 0 23.5 2.5t23 8t17.5 14.5t7 23q0 18 -14 30.5
t-40 12.5q-27 0 -42.5 -13.5t-17.5 -30.5h-36zM296 719q-59 1 -86.5 29.5t-34.5 71.5h39q5 -30 23 -48t59 -18t59 18t23 48h39q-8 -43 -35 -71.5t-86 -29.5z" />
    <glyph glyph-name="uni1EB3" unicode="&#x1eb3;" horiz-adv-x="516" 
d="M46 204q0 47 14.5 86.5t40.5 67.5t62.5 43.5t81.5 15.5q48 0 89 -19t70 -61v71h40v-408h-40v73q-31 -47 -75 -65.5t-84 -18.5t-76 14.5t-63.5 42.5t-43.5 68t-16 90zM88 207q0 -35 10.5 -67t31 -57.5t50 -40.5t68.5 -15q38 0 67.5 15t49.5 40t30.5 57.5t10.5 67.5
q0 45 -15 77.5t-38.5 53.5t-51.5 31t-54 10q-30 0 -59 -11.5t-51 -33t-35.5 -53.5t-13.5 -74zM162 679q1 13 7.5 26t18 23.5t28.5 17.5t41 7q17 0 33.5 -4.5t29 -13.5t20 -23t7.5 -33q0 -32 -22.5 -49.5t-48.5 -20.5v-18h-35v41q11 0 23.5 2.5t23 8t17.5 14.5t7 23
q0 18 -14 30.5t-40 12.5q-27 0 -42.5 -13.5t-17.5 -30.5h-36zM260 480q-59 1 -86.5 29.5t-34.5 71.5h39q5 -30 23 -48t59 -18t59 18t23 48h39q-8 -43 -35 -71.5t-86 -29.5z" />
    <glyph glyph-name="uni1EB4" unicode="&#x1eb4;" horiz-adv-x="586" 
d="M14 0l281 687l277 -687h-48l-89 219h-284l-89 -219h-48zM167 259h252l-125 316zM296 719q-59 1 -86.5 29.5t-34.5 71.5h39q5 -30 23 -48t59 -18t59 18t23 48h39q-8 -43 -35 -71.5t-86 -29.5zM169 867q8 26 27 41.5t46 15.5q18 0 32.5 -6t27 -13t24.5 -13t27 -6
q17 0 28.5 14.5t13.5 25.5l26 -20q-6 -23 -23 -40t-43 -17q-17 0 -30.5 6t-26.5 13t-27 13t-32 6q-15 0 -27 -12t-15 -27z" />
    <glyph glyph-name="uni1EB5" unicode="&#x1eb5;" horiz-adv-x="516" 
d="M46 204q0 47 14.5 86.5t40.5 67.5t62.5 43.5t81.5 15.5q48 0 89 -19t70 -61v71h40v-408h-40v73q-31 -47 -75 -65.5t-84 -18.5t-76 14.5t-63.5 42.5t-43.5 68t-16 90zM247 379q-30 0 -59 -11.5t-51 -33t-35.5 -53.5t-13.5 -74q0 -35 10.5 -67t31 -57.5t50 -40.5t68.5 -15
q38 0 67.5 15t49.5 40t30.5 57.5t10.5 67.5q0 45 -15 77.5t-38.5 53.5t-51.5 31t-54 10zM260 480q-59 1 -86.5 29.5t-34.5 71.5h39q5 -30 23 -48t59 -18t59 18t23 48h39q-8 -43 -35 -71.5t-86 -29.5zM133 628q8 26 27 41.5t46 15.5q18 0 32.5 -6t27 -13t24.5 -13t27 -6
q17 0 28.5 14.5t13.5 25.5l26 -20q-6 -23 -23 -40t-43 -17q-17 0 -30.5 6t-26.5 13t-27 13t-32 6q-15 0 -27 -12t-15 -27z" />
    <glyph glyph-name="uni1EB6" unicode="&#x1eb6;" horiz-adv-x="586" 
d="M14 0l281 687l277 -687h-48l-89 219h-284l-89 -219h-48zM419 259l-125 316l-127 -316h252zM214 820q5 -30 23 -48t59 -18t59 18t23 48h39q-8 -43 -35 -71.5t-86 -29.5q-59 1 -86.5 29.5t-34.5 71.5h39zM293 -174q-17 0 -29 12t-12 29t12 29.5t29 12.5t29.5 -12.5
t12.5 -29.5t-12.5 -29t-29.5 -12z" />
    <glyph glyph-name="uni1EB7" unicode="&#x1eb7;" horiz-adv-x="516" 
d="M46 204q0 47 14.5 86.5t40.5 67.5t62.5 43.5t81.5 15.5q48 0 89 -19t70 -61v71h40v-408h-40v73q-31 -47 -75 -65.5t-84 -18.5t-76 14.5t-63.5 42.5t-43.5 68t-16 90zM88 207q0 -35 10.5 -67t31 -57.5t50 -40.5t68.5 -15q38 0 67.5 15t49.5 40t30.5 57.5t10.5 67.5
q0 45 -15 77.5t-38.5 53.5t-51.5 31t-54 10q-30 0 -59 -11.5t-51 -33t-35.5 -53.5t-13.5 -74zM260 480q-59 1 -86.5 29.5t-34.5 71.5h39q5 -30 23 -48t59 -18t59 18t23 48h39q-8 -43 -35 -71.5t-86 -29.5zM238 -174q-17 0 -29 12t-12 29t12 29.5t29 12.5t29.5 -12.5
t12.5 -29.5t-12.5 -29t-29.5 -12z" />
    <glyph glyph-name="uni1EB8" unicode="&#x1eb8;" horiz-adv-x="464" 
d="M90 667h320v-40h-276v-242h270v-40h-270v-305h276v-40h-320v667zM239 -174q-17 0 -29 12t-12 29t12 29.5t29 12.5t29.5 -12.5t12.5 -29.5t-12.5 -29t-29.5 -12z" />
    <glyph glyph-name="uni1EB9" unicode="&#x1eb9;" horiz-adv-x="483" 
d="M46 202q0 53 17 93.5t44.5 67.5t63 40.5t73.5 13.5q41 0 76.5 -16t61.5 -44.5t40.5 -68.5t14.5 -89h-349q0 -39 13 -71t35.5 -54.5t52 -34.5t61.5 -12q50 0 86 26t56 67l34 -20q-9 -17 -24 -36.5t-36.5 -36t-51 -27.5t-67.5 -11q-48 0 -85 16.5t-63 45.5t-39.5 67.5
t-13.5 83.5zM395 237q-4 30 -16.5 56t-32.5 45t-46 30t-56 11q-31 0 -57.5 -11t-46 -30.5t-32.5 -45t-17 -55.5h304zM239 -174q-17 0 -29 12t-12 29t12 29.5t29 12.5t29.5 -12.5t12.5 -29.5t-12.5 -29t-29.5 -12z" />
    <glyph glyph-name="uni1EBA" unicode="&#x1eba;" horiz-adv-x="464" 
d="M90 0v667h320v-40h-276v-242h270v-40h-270v-305h276v-40h-320zM160 807q1 13 7.5 26t18 23.5t28.5 17.5t41 7q17 0 33.5 -4.5t29 -13.5t20 -23t7.5 -33q0 -32 -22.5 -49.5t-48.5 -20.5v-18h-35v41q11 0 23.5 2.5t23 8t17.5 14.5t7 23q0 18 -14 30.5t-40 12.5
q-27 0 -42.5 -13.5t-17.5 -30.5h-36z" />
    <glyph glyph-name="uni1EBB" unicode="&#x1ebb;" horiz-adv-x="483" 
d="M46 202q0 53 17 93.5t44.5 67.5t63 40.5t73.5 13.5q41 0 76.5 -16t61.5 -44.5t40.5 -68.5t14.5 -89h-349q0 -39 13 -71t35.5 -54.5t52 -34.5t61.5 -12q50 0 86 26t56 67l34 -20q-9 -17 -24 -36.5t-36.5 -36t-51 -27.5t-67.5 -11q-48 0 -85 16.5t-63 45.5t-39.5 67.5
t-13.5 83.5zM244 379q-31 0 -57.5 -11t-46 -30.5t-32.5 -45t-17 -55.5h304q-4 30 -16.5 56t-32.5 45t-46 30t-56 11zM145 568q1 13 7.5 26t18 23.5t28.5 17.5t41 7q17 0 33.5 -4.5t29 -13.5t20 -23t7.5 -33q0 -32 -22.5 -49.5t-48.5 -20.5v-18h-35v41q11 0 23.5 2.5t23 8
t17.5 14.5t7 23q0 18 -14 30.5t-40 12.5q-27 0 -42.5 -13.5t-17.5 -30.5h-36z" />
    <glyph glyph-name="uni1EBC" unicode="&#x1ebc;" horiz-adv-x="464" 
d="M410 667v-40h-276v-242h270v-40h-270v-305h276v-40h-320v667h320zM130 738q8 26 27 41.5t46 15.5q18 0 32.5 -6t27 -13t24.5 -13t27 -6q17 0 28.5 14.5t13.5 25.5l26 -20q-6 -23 -23 -40t-43 -17q-17 0 -30.5 6t-26.5 13t-27 13t-32 6q-15 0 -27 -12t-15 -27z" />
    <glyph glyph-name="uni1EBD" unicode="&#x1ebd;" horiz-adv-x="483" 
d="M46 202q0 53 17 93.5t44.5 67.5t63 40.5t73.5 13.5q41 0 76.5 -16t61.5 -44.5t40.5 -68.5t14.5 -89h-349q0 -39 13 -71t35.5 -54.5t52 -34.5t61.5 -12q50 0 86 26t56 67l34 -20q-9 -17 -24 -36.5t-36.5 -36t-51 -27.5t-67.5 -11q-48 0 -85 16.5t-63 45.5t-39.5 67.5
t-13.5 83.5zM395 237q-4 30 -16.5 56t-32.5 45t-46 30t-56 11q-31 0 -57.5 -11t-46 -30.5t-32.5 -45t-17 -55.5h304zM118 506q8 26 27 41.5t46 15.5q18 0 32.5 -6t27 -13t24.5 -13t27 -6q17 0 28.5 14.5t13.5 25.5l26 -20q-6 -23 -23 -40t-43 -17q-17 0 -30.5 6t-26.5 13
t-27 13t-32 6q-15 0 -27 -12t-15 -27z" />
    <glyph glyph-name="uni1EBE" unicode="&#x1ebe;" horiz-adv-x="464" 
d="M410 667v-40h-276v-242h270v-40h-270v-305h276v-40h-320v667h320zM125 743l126 113l127 -113l-25 -25l-102 87l-101 -87zM480 948l31 -32l-137 -115l-24 22z" />
    <glyph glyph-name="uni1EBF" unicode="&#x1ebf;" horiz-adv-x="483" 
d="M247 -11q-48 0 -85 16.5t-63 45.5t-39.5 67.5t-13.5 83.5q0 53 17 93.5t44.5 67.5t63 40.5t73.5 13.5q41 0 76.5 -16t61.5 -44.5t40.5 -68.5t14.5 -89h-349q0 -39 13 -71t35.5 -54.5t52 -34.5t61.5 -12q50 0 86 26t56 67l34 -20q-9 -17 -24 -36.5t-36.5 -36t-51 -27.5
t-67.5 -11zM244 379q-31 0 -57.5 -11t-46 -30.5t-32.5 -45t-17 -55.5h304q-4 30 -16.5 56t-32.5 45t-46 30t-56 11zM247 618l127 -113l-25 -25l-102 87l-101 -87l-25 25zM346 585l130 125l31 -32l-137 -115z" />
    <glyph glyph-name="uni1EC0" unicode="&#x1ec0;" horiz-adv-x="464" 
d="M410 667v-40h-276v-242h270v-40h-270v-305h276v-40h-320v667h320zM125 743l126 113l127 -113l-25 -25l-102 87l-101 -87zM300 948l130 -125l-24 -22l-137 115z" />
    <glyph glyph-name="uni1EC1" unicode="&#x1ec1;" horiz-adv-x="483" 
d="M247 -11q-48 0 -85 16.5t-63 45.5t-39.5 67.5t-13.5 83.5q0 53 17 93.5t44.5 67.5t63 40.5t73.5 13.5q41 0 76.5 -16t61.5 -44.5t40.5 -68.5t14.5 -89h-349q0 -39 13 -71t35.5 -54.5t52 -34.5t61.5 -12q50 0 86 26t56 67l34 -20q-9 -17 -24 -36.5t-36.5 -36t-51 -27.5
t-67.5 -11zM244 379q-31 0 -57.5 -11t-46 -30.5t-32.5 -45t-17 -55.5h304q-4 30 -16.5 56t-32.5 45t-46 30t-56 11zM247 618l127 -113l-25 -25l-102 87l-101 -87l-25 25zM296 710l130 -125l-24 -22l-137 115z" />
    <glyph glyph-name="uni1EC2" unicode="&#x1ec2;" horiz-adv-x="464" 
d="M90 0v667h320v-40h-276v-242h270v-40h-270v-305h276v-40h-320zM285 889q1 13 7.5 26t18 23.5t28.5 17.5t41 7q17 0 33.5 -4.5t29 -13.5t20 -23t7.5 -33q0 -32 -22.5 -49.5t-48.5 -20.5v-18h-35v41q11 0 23.5 2.5t23 8t17.5 14.5t7 23q0 18 -14 30.5t-40 12.5
q-27 0 -42.5 -13.5t-17.5 -30.5h-36zM251 856l127 -113l-25 -25l-102 87l-101 -87l-25 25z" />
    <glyph glyph-name="uni1EC3" unicode="&#x1ec3;" horiz-adv-x="483" 
d="M247 -11q-48 0 -85 16.5t-63 45.5t-39.5 67.5t-13.5 83.5q0 53 17 93.5t44.5 67.5t63 40.5t73.5 13.5q41 0 76.5 -16t61.5 -44.5t40.5 -68.5t14.5 -89h-349q0 -39 13 -71t35.5 -54.5t52 -34.5t61.5 -12q50 0 86 26t56 67l34 -20q-9 -17 -24 -36.5t-36.5 -36t-51 -27.5
t-67.5 -11zM395 237q-4 30 -16.5 56t-32.5 45t-46 30t-56 11q-31 0 -57.5 -11t-46 -30.5t-32.5 -45t-17 -55.5h304zM281 651q1 13 7.5 26t18 23.5t28.5 17.5t41 7q17 0 33.5 -4.5t29 -13.5t20 -23t7.5 -33q0 -32 -22.5 -49.5t-48.5 -20.5v-18h-35v41q11 0 23.5 2.5t23 8
t17.5 14.5t7 23q0 18 -14 30.5t-40 12.5q-27 0 -42.5 -13.5t-17.5 -30.5h-36zM121 505l126 113l127 -113l-25 -25l-102 87l-101 -87z" />
    <glyph glyph-name="uni1EC4" unicode="&#x1ec4;" horiz-adv-x="464" 
d="M410 667v-40h-276v-242h270v-40h-270v-305h276v-40h-320v667h320zM251 856l127 -113l-25 -25l-102 87l-101 -87l-25 25zM125 886q8 26 27 41.5t46 15.5q18 0 32.5 -6t27 -13t24.5 -13t27 -6q17 0 28.5 14.5t13.5 25.5l26 -20q-6 -23 -23 -40t-43 -17q-17 0 -30.5 6
t-26.5 13t-27 13t-32 6q-15 0 -27 -12t-15 -27z" />
    <glyph glyph-name="uni1EC5" unicode="&#x1ec5;" horiz-adv-x="483" 
d="M46 202q0 53 17 93.5t44.5 67.5t63 40.5t73.5 13.5q41 0 76.5 -16t61.5 -44.5t40.5 -68.5t14.5 -89h-349q0 -39 13 -71t35.5 -54.5t52 -34.5t61.5 -12q50 0 86 26t56 67l34 -20q-9 -17 -24 -36.5t-36.5 -36t-51 -27.5t-67.5 -11q-48 0 -85 16.5t-63 45.5t-39.5 67.5
t-13.5 83.5zM244 379q-31 0 -57.5 -11t-46 -30.5t-32.5 -45t-17 -55.5h304q-4 30 -16.5 56t-32.5 45t-46 30t-56 11zM121 505l126 113l127 -113l-25 -25l-102 87l-101 -87zM121 648q8 26 27 41.5t46 15.5q18 0 32.5 -6t27 -13t24.5 -13t27 -6q17 0 28.5 14.5t13.5 25.5
l26 -20q-6 -23 -23 -40t-43 -17q-17 0 -30.5 6t-26.5 13t-27 13t-32 6q-15 0 -27 -12t-15 -27z" />
    <glyph glyph-name="uni1EC6" unicode="&#x1ec6;" horiz-adv-x="464" 
d="M410 667v-40h-276v-242h270v-40h-270v-305h276v-40h-320v667h320zM125 743l126 113l127 -113l-25 -25l-102 87l-101 -87zM198 -133q0 17 12 29.5t29 12.5t29.5 -12.5t12.5 -29.5t-12.5 -29t-29.5 -12t-29 12t-12 29z" />
    <glyph glyph-name="uni1EC7" unicode="&#x1ec7;" horiz-adv-x="483" 
d="M247 -11q-48 0 -85 16.5t-63 45.5t-39.5 67.5t-13.5 83.5q0 53 17 93.5t44.5 67.5t63 40.5t73.5 13.5q41 0 76.5 -16t61.5 -44.5t40.5 -68.5t14.5 -89h-349q0 -39 13 -71t35.5 -54.5t52 -34.5t61.5 -12q50 0 86 26t56 67l34 -20q-9 -17 -24 -36.5t-36.5 -36t-51 -27.5
t-67.5 -11zM244 379q-31 0 -57.5 -11t-46 -30.5t-32.5 -45t-17 -55.5h304q-4 30 -16.5 56t-32.5 45t-46 30t-56 11zM121 505l126 113l127 -113l-25 -25l-102 87l-101 -87zM198 -133q0 17 12 29.5t29 12.5t29.5 -12.5t12.5 -29.5t-12.5 -29t-29.5 -12t-29 12t-12 29z" />
    <glyph glyph-name="uni1EC8" unicode="&#x1ec8;" horiz-adv-x="224" 
d="M90 0v667h44v-667h-44zM16 807q1 13 7.5 26t18 23.5t28.5 17.5t41 7q17 0 33.5 -4.5t29 -13.5t20 -23t7.5 -33q0 -32 -22.5 -49.5t-48.5 -20.5v-18h-35v41q11 0 23.5 2.5t23 8t17.5 14.5t7 23q0 18 -14 30.5t-40 12.5q-27 0 -42.5 -13.5t-17.5 -30.5h-36z" />
    <glyph glyph-name="uni1EC9" unicode="&#x1ec9;" horiz-adv-x="184" 
d="M72 0v408h40v-408h-40zM-4 568q1 13 7.5 26t18 23.5t28.5 17.5t41 7q17 0 33.5 -4.5t29 -13.5t20 -23t7.5 -33q0 -32 -22.5 -49.5t-48.5 -20.5v-18h-35v41q11 0 23.5 2.5t23 8t17.5 14.5t7 23q0 18 -14 30.5t-40 12.5q-27 0 -42.5 -13.5t-17.5 -30.5h-36z" />
    <glyph glyph-name="uni1ECA" unicode="&#x1eca;" horiz-adv-x="224" 
d="M134 667v-667h-44v667h44zM71 -133q0 17 12 29.5t29 12.5t29.5 -12.5t12.5 -29.5t-12.5 -29t-29.5 -12t-29 12t-12 29z" />
    <glyph glyph-name="uni1ECB" unicode="&#x1ecb;" horiz-adv-x="184" 
d="M72 0v408h40v-408h-40zM51 -133q0 17 12 29.5t29 12.5t29.5 -12.5t12.5 -29.5t-12.5 -29t-29.5 -12t-29 12t-12 29zM92 501q-17 0 -29 12t-12 29t12 29.5t29 12.5t29.5 -12.5t12.5 -29.5t-12.5 -29t-29.5 -12z" />
    <glyph glyph-name="uni1ECC" unicode="&#x1ecc;" horiz-adv-x="800" 
d="M54 332q0 72 26.5 134.5t73 109t110 73.5t136.5 27t136.5 -27t110 -73.5t73 -109t26.5 -134.5t-26.5 -134.5t-73 -109t-110 -73t-136.5 -26.5q-74 0 -137 26.5t-109.5 73t-73 109t-26.5 134.5zM400 636q-65 0 -119.5 -23.5t-95 -64.5t-63 -96.5t-22.5 -119.5t22.5 -119
t63 -96t95 -64.5t119.5 -23.5q64 0 119 23.5t95.5 64.5t63 96t22.5 119t-22.5 119.5t-63 96.5t-95.5 64.5t-119 23.5zM359 -133q0 17 12 29.5t29 12.5t29.5 -12.5t12.5 -29.5t-12.5 -29t-29.5 -12t-29 12t-12 29z" />
    <glyph glyph-name="uni1ECD" unicode="&#x1ecd;" horiz-adv-x="520" 
d="M46 203q0 45 16.5 84.5t45 68t68 45t84.5 16.5t84.5 -16.5t68 -45t45 -68t16.5 -84.5t-16.5 -84.5t-45 -68t-68 -45t-84.5 -16.5t-84.5 16.5t-68 45t-45 68t-16.5 84.5zM260 379q-37 0 -68.5 -13.5t-54.5 -37.5t-36 -56t-13 -69t13 -69t36 -56t54.5 -37.5t68.5 -13.5
t68.5 13.5t54.5 37.5t36 56t13 69t-13 69t-36 56t-54.5 37.5t-68.5 13.5zM219 -133q0 17 12 29.5t29 12.5t29.5 -12.5t12.5 -29.5t-12.5 -29t-29.5 -12t-29 12t-12 29z" />
    <glyph glyph-name="uni1ECE" unicode="&#x1ece;" horiz-adv-x="800" 
d="M54 332q0 72 26.5 134.5t73 109t110 73.5t136.5 27t136.5 -27t110 -73.5t73 -109t26.5 -134.5t-26.5 -134.5t-73 -109t-110 -73t-136.5 -26.5q-74 0 -137 26.5t-109.5 73t-73 109t-26.5 134.5zM100 332q0 -64 22.5 -119t63 -96t95 -64.5t119.5 -23.5q64 0 119 23.5
t95.5 64.5t63 96t22.5 119t-22.5 119.5t-63 96.5t-95.5 64.5t-119 23.5q-65 0 -119.5 -23.5t-95 -64.5t-63 -96.5t-22.5 -119.5zM304 807q1 13 7.5 26t18 23.5t28.5 17.5t41 7q17 0 33.5 -4.5t29 -13.5t20 -23t7.5 -33q0 -32 -22.5 -49.5t-48.5 -20.5v-18h-35v41
q11 0 23.5 2.5t23 8t17.5 14.5t7 23q0 18 -14 30.5t-40 12.5q-27 0 -42.5 -13.5t-17.5 -30.5h-36z" />
    <glyph glyph-name="uni1ECF" unicode="&#x1ecf;" horiz-adv-x="520" 
d="M46 203q0 45 16.5 84.5t45 68t68 45t84.5 16.5t84.5 -16.5t68 -45t45 -68t16.5 -84.5t-16.5 -84.5t-45 -68t-68 -45t-84.5 -16.5t-84.5 16.5t-68 45t-45 68t-16.5 84.5zM88 203q0 -37 13 -69t36 -56t54.5 -37.5t68.5 -13.5t68.5 13.5t54.5 37.5t36 56t13 69t-13 69
t-36 56t-54.5 37.5t-68.5 13.5t-68.5 -13.5t-54.5 -37.5t-36 -56t-13 -69zM164 568q1 13 7.5 26t18 23.5t28.5 17.5t41 7q17 0 33.5 -4.5t29 -13.5t20 -23t7.5 -33q0 -32 -22.5 -49.5t-48.5 -20.5v-18h-35v41q11 0 23.5 2.5t23 8t17.5 14.5t7 23q0 18 -14 30.5t-40 12.5
q-27 0 -42.5 -13.5t-17.5 -30.5h-36z" />
    <glyph glyph-name="uni1ED0" unicode="&#x1ed0;" horiz-adv-x="800" 
d="M54 332q0 72 26.5 134.5t73 109t110 73.5t136.5 27t136.5 -27t110 -73.5t73 -109t26.5 -134.5t-26.5 -134.5t-73 -109t-110 -73t-136.5 -26.5q-74 0 -137 26.5t-109.5 73t-73 109t-26.5 134.5zM100 332q0 -64 22.5 -119t63 -96t95 -64.5t119.5 -23.5q64 0 119 23.5
t95.5 64.5t63 96t22.5 119t-22.5 119.5t-63 96.5t-95.5 64.5t-119 23.5q-65 0 -119.5 -23.5t-95 -64.5t-63 -96.5t-22.5 -119.5zM274 743l126 113l127 -113l-25 -25l-102 87l-101 -87zM499 823l130 125l31 -32l-137 -115z" />
    <glyph glyph-name="uni1ED1" unicode="&#x1ed1;" horiz-adv-x="520" 
d="M46 203q0 45 16.5 84.5t45 68t68 45t84.5 16.5t84.5 -16.5t68 -45t45 -68t16.5 -84.5t-16.5 -84.5t-45 -68t-68 -45t-84.5 -16.5t-84.5 16.5t-68 45t-45 68t-16.5 84.5zM88 203q0 -37 13 -69t36 -56t54.5 -37.5t68.5 -13.5t68.5 13.5t54.5 37.5t36 56t13 69t-13 69
t-36 56t-54.5 37.5t-68.5 13.5t-68.5 -13.5t-54.5 -37.5t-36 -56t-13 -69zM134 505l126 113l127 -113l-25 -25l-102 87l-101 -87zM359 585l130 125l31 -32l-137 -115z" />
    <glyph glyph-name="uni1ED2" unicode="&#x1ed2;" horiz-adv-x="800" 
d="M54 332q0 72 26.5 134.5t73 109t110 73.5t136.5 27t136.5 -27t110 -73.5t73 -109t26.5 -134.5t-26.5 -134.5t-73 -109t-110 -73t-136.5 -26.5q-74 0 -137 26.5t-109.5 73t-73 109t-26.5 134.5zM100 332q0 -64 22.5 -119t63 -96t95 -64.5t119.5 -23.5q64 0 119 23.5
t95.5 64.5t63 96t22.5 119t-22.5 119.5t-63 96.5t-95.5 64.5t-119 23.5q-65 0 -119.5 -23.5t-95 -64.5t-63 -96.5t-22.5 -119.5zM274 743l126 113l127 -113l-25 -25l-102 87l-101 -87zM418 916l31 32l130 -125l-24 -22z" />
    <glyph glyph-name="uni1ED3" unicode="&#x1ed3;" horiz-adv-x="520" 
d="M46 203q0 45 16.5 84.5t45 68t68 45t84.5 16.5t84.5 -16.5t68 -45t45 -68t16.5 -84.5t-16.5 -84.5t-45 -68t-68 -45t-84.5 -16.5t-84.5 16.5t-68 45t-45 68t-16.5 84.5zM88 203q0 -37 13 -69t36 -56t54.5 -37.5t68.5 -13.5t68.5 13.5t54.5 37.5t36 56t13 69t-13 69
t-36 56t-54.5 37.5t-68.5 13.5t-68.5 -13.5t-54.5 -37.5t-36 -56t-13 -69zM134 505l126 113l127 -113l-25 -25l-102 87l-101 -87zM278 678l31 32l130 -125l-24 -22z" />
    <glyph glyph-name="uni1ED4" unicode="&#x1ed4;" horiz-adv-x="800" 
d="M54 332q0 72 26.5 134.5t73 109t110 73.5t136.5 27t136.5 -27t110 -73.5t73 -109t26.5 -134.5t-26.5 -134.5t-73 -109t-110 -73t-136.5 -26.5q-74 0 -137 26.5t-109.5 73t-73 109t-26.5 134.5zM100 332q0 -64 22.5 -119t63 -96t95 -64.5t119.5 -23.5q64 0 119 23.5
t95.5 64.5t63 96t22.5 119t-22.5 119.5t-63 96.5t-95.5 64.5t-119 23.5q-65 0 -119.5 -23.5t-95 -64.5t-63 -96.5t-22.5 -119.5zM434 889q1 13 7.5 26t18 23.5t28.5 17.5t41 7q17 0 33.5 -4.5t29 -13.5t20 -23t7.5 -33q0 -32 -22.5 -49.5t-48.5 -20.5v-18h-35v41
q11 0 23.5 2.5t23 8t17.5 14.5t7 23q0 18 -14 30.5t-40 12.5q-27 0 -42.5 -13.5t-17.5 -30.5h-36zM274 743l126 113l127 -113l-25 -25l-102 87l-101 -87z" />
    <glyph glyph-name="uni1ED5" unicode="&#x1ed5;" horiz-adv-x="520" 
d="M46 203q0 45 16.5 84.5t45 68t68 45t84.5 16.5t84.5 -16.5t68 -45t45 -68t16.5 -84.5t-16.5 -84.5t-45 -68t-68 -45t-84.5 -16.5t-84.5 16.5t-68 45t-45 68t-16.5 84.5zM88 203q0 -37 13 -69t36 -56t54.5 -37.5t68.5 -13.5t68.5 13.5t54.5 37.5t36 56t13 69t-13 69
t-36 56t-54.5 37.5t-68.5 13.5t-68.5 -13.5t-54.5 -37.5t-36 -56t-13 -69zM294 651q1 13 7.5 26t18 23.5t28.5 17.5t41 7q17 0 33.5 -4.5t29 -13.5t20 -23t7.5 -33q0 -32 -22.5 -49.5t-48.5 -20.5v-18h-35v41q11 0 23.5 2.5t23 8t17.5 14.5t7 23q0 18 -14 30.5t-40 12.5
q-27 0 -42.5 -13.5t-17.5 -30.5h-36zM134 505l126 113l127 -113l-25 -25l-102 87l-101 -87z" />
    <glyph glyph-name="uni1ED6" unicode="&#x1ed6;" horiz-adv-x="800" 
d="M400 -11q-74 0 -137 26.5t-109.5 73t-73 109t-26.5 134.5t26.5 134.5t73 109t110 73.5t136.5 27t136.5 -27t110 -73.5t73 -109t26.5 -134.5t-26.5 -134.5t-73 -109t-110 -73t-136.5 -26.5zM400 636q-65 0 -119.5 -23.5t-95 -64.5t-63 -96.5t-22.5 -119.5t22.5 -119
t63 -96t95 -64.5t119.5 -23.5q64 0 119 23.5t95.5 64.5t63 96t22.5 119t-22.5 119.5t-63 96.5t-95.5 64.5t-119 23.5zM274 743l126 113l127 -113l-25 -25l-102 87l-101 -87zM274 886q8 26 27 41.5t46 15.5q18 0 32.5 -6t27 -13t24.5 -13t27 -6q17 0 28.5 14.5t13.5 25.5
l26 -20q-6 -23 -23 -40t-43 -17q-17 0 -30.5 6t-26.5 13t-27 13t-32 6q-15 0 -27 -12t-15 -27z" />
    <glyph glyph-name="uni1ED7" unicode="&#x1ed7;" horiz-adv-x="520" 
d="M260 -11q-45 0 -84.5 16.5t-68 45t-45 68t-16.5 84.5t16.5 84.5t45 68t68 45t84.5 16.5t84.5 -16.5t68 -45t45 -68t16.5 -84.5t-16.5 -84.5t-45 -68t-68 -45t-84.5 -16.5zM260 379q-37 0 -68.5 -13.5t-54.5 -37.5t-36 -56t-13 -69t13 -69t36 -56t54.5 -37.5t68.5 -13.5
t68.5 13.5t54.5 37.5t36 56t13 69t-13 69t-36 56t-54.5 37.5t-68.5 13.5zM134 505l126 113l127 -113l-25 -25l-102 87l-101 -87zM134 648q8 26 27 41.5t46 15.5q18 0 32.5 -6t27 -13t24.5 -13t27 -6q17 0 28.5 14.5t13.5 25.5l26 -20q-6 -23 -23 -40t-43 -17q-17 0 -30.5 6
t-26.5 13t-27 13t-32 6q-15 0 -27 -12t-15 -27z" />
    <glyph glyph-name="uni1ED8" unicode="&#x1ed8;" horiz-adv-x="800" 
d="M400 -11q-74 0 -137 26.5t-109.5 73t-73 109t-26.5 134.5t26.5 134.5t73 109t110 73.5t136.5 27t136.5 -27t110 -73.5t73 -109t26.5 -134.5t-26.5 -134.5t-73 -109t-110 -73t-136.5 -26.5zM400 636q-65 0 -119.5 -23.5t-95 -64.5t-63 -96.5t-22.5 -119.5t22.5 -119
t63 -96t95 -64.5t119.5 -23.5q64 0 119 23.5t95.5 64.5t63 96t22.5 119t-22.5 119.5t-63 96.5t-95.5 64.5t-119 23.5zM274 743l126 113l127 -113l-25 -25l-102 87l-101 -87zM400 -174q-17 0 -29 12t-12 29t12 29.5t29 12.5t29.5 -12.5t12.5 -29.5t-12.5 -29t-29.5 -12z" />
    <glyph glyph-name="uni1ED9" unicode="&#x1ed9;" horiz-adv-x="520" 
d="M260 -11q-45 0 -84.5 16.5t-68 45t-45 68t-16.5 84.5t16.5 84.5t45 68t68 45t84.5 16.5t84.5 -16.5t68 -45t45 -68t16.5 -84.5t-16.5 -84.5t-45 -68t-68 -45t-84.5 -16.5zM260 379q-37 0 -68.5 -13.5t-54.5 -37.5t-36 -56t-13 -69t13 -69t36 -56t54.5 -37.5t68.5 -13.5
t68.5 13.5t54.5 37.5t36 56t13 69t-13 69t-36 56t-54.5 37.5t-68.5 13.5zM134 505l126 113l127 -113l-25 -25l-102 87l-101 -87zM260 -174q-17 0 -29 12t-12 29t12 29.5t29 12.5t29.5 -12.5t12.5 -29.5t-12.5 -29t-29.5 -12z" />
    <glyph glyph-name="uni1EDA" unicode="&#x1eda;" horiz-adv-x="800" 
d="M54 332q0 72 26.5 134.5t73 109t110 73.5t136.5 27q39 0 74 -4.5t64 -4.5q15 0 24.5 6t14.5 15.5t7 22t2 24.5h42q0 -46 -18 -68.5t-46 -30.5q41 -22 74.5 -53.5t57.5 -70.5t37 -84.5t13 -95.5q0 -72 -26.5 -134.5t-73 -109t-110 -73t-136.5 -26.5q-74 0 -137 26.5
t-109.5 73t-73 109t-26.5 134.5zM100 332q0 -64 22.5 -119t63 -96t95 -64.5t119.5 -23.5q64 0 119 23.5t95.5 64.5t63 96t22.5 119t-22.5 119.5t-63 96.5t-95.5 64.5t-119 23.5q-65 0 -119.5 -23.5t-95 -64.5t-63 -96.5t-22.5 -119.5zM484 865l31 -32l-137 -115l-24 22z" />
    <glyph glyph-name="uni1EDB" unicode="&#x1edb;" horiz-adv-x="520" 
d="M46 203q0 45 16.5 84.5t45 68t68 45t84.5 16.5q30 0 50 -3.5t48 -5.5q15 0 24.5 6t14.5 15.5t7 22t2 24.5h42q0 -46 -17.5 -68.5t-44.5 -30.5q41 -29 64.5 -74t23.5 -100q0 -45 -16.5 -84.5t-45 -68t-68 -45t-84.5 -16.5t-84.5 16.5t-68 45t-45 68t-16.5 84.5zM260 379
q-37 0 -68.5 -13.5t-54.5 -37.5t-36 -56t-13 -69t13 -69t36 -56t54.5 -37.5t68.5 -13.5t68.5 13.5t54.5 37.5t36 56t13 69t-13 69t-36 56t-54.5 37.5t-68.5 13.5zM344 627l31 -32l-137 -115l-24 22z" />
    <glyph glyph-name="uni1EDC" unicode="&#x1edc;" horiz-adv-x="800" 
d="M54 332q0 72 26.5 134.5t73 109t110 73.5t136.5 27q39 0 74 -4.5t64 -4.5q15 0 24.5 6t14.5 15.5t7 22t2 24.5h42q0 -46 -18 -68.5t-46 -30.5q41 -22 74.5 -53.5t57.5 -70.5t37 -84.5t13 -95.5q0 -72 -26.5 -134.5t-73 -109t-110 -73t-136.5 -26.5q-74 0 -137 26.5
t-109.5 73t-73 109t-26.5 134.5zM100 332q0 -64 22.5 -119t63 -96t95 -64.5t119.5 -23.5q64 0 119 23.5t95.5 64.5t63 96t22.5 119t-22.5 119.5t-63 96.5t-95.5 64.5t-119 23.5q-65 0 -119.5 -23.5t-95 -64.5t-63 -96.5t-22.5 -119.5zM290 833l31 32l130 -125l-24 -22z" />
    <glyph glyph-name="uni1EDD" unicode="&#x1edd;" horiz-adv-x="520" 
d="M46 203q0 45 16.5 84.5t45 68t68 45t84.5 16.5q30 0 50 -3.5t48 -5.5q15 0 24.5 6t14.5 15.5t7 22t2 24.5h42q0 -46 -17.5 -68.5t-44.5 -30.5q41 -29 64.5 -74t23.5 -100q0 -45 -16.5 -84.5t-45 -68t-68 -45t-84.5 -16.5t-84.5 16.5t-68 45t-45 68t-16.5 84.5zM260 379
q-37 0 -68.5 -13.5t-54.5 -37.5t-36 -56t-13 -69t13 -69t36 -56t54.5 -37.5t68.5 -13.5t68.5 13.5t54.5 37.5t36 56t13 69t-13 69t-36 56t-54.5 37.5t-68.5 13.5zM141 595l31 32l130 -125l-24 -22z" />
    </font>
</defs>
</svg>
