<?xml version="1.0" standalone="no"?>
<!DOCTYPE svg PUBLIC "-//W3C//DTD SVG 1.1//EN" "http://www.w3.org/Graphics/SVG/1.1/DTD/svg11.dtd" >
<svg xmlns="http://www.w3.org/2000/svg" xmlns:xlink="http://www.w3.org/1999/xlink" version="1.1">
<metadata>
Created by FontForge 20170731 at Thu Oct 21 07:48:11 2021
 By Aleksey,,,
Copyright (c) 1995 ParaGraph Intl., (c) 1998 ParaType Inc., ParaType Ltd. All rights reserved.
</metadata>
<defs>
<font id="SVN-Futura-ExtraBoldItalic" horiz-adv-x="500" >
  <font-face 
    font-family="SVN-Futura ExtraBold"
    font-weight="800"
    font-style="italic"
    font-stretch="normal"
    units-per-em="1000"
    panose-1="0 0 0 0 0 0 0 0 0 0"
    ascent="800"
    descent="-200"
    x-height="467"
    cap-height="667"
    bbox="-365 -274 1509 1063"
    underline-thickness="50"
    underline-position="-150"
    slope="-7"
    unicode-range="U+000D-FB02"
  />
<missing-glyph horiz-adv-x="233" 
 />
    <glyph glyph-name="uniF460" unicode="&#x410;`" horiz-adv-x="708" 
d="M-28 0l308 667h276l124 -667h-247l-5 89h-164l-32 -89h-260zM317 779l127 137l117 -73l-157 -119zM320 241h92l-10 121q-1 8 -1.5 20.5t-0.5 26.5v15.5t0.5 12t1 11.5t1.5 14h-8q-7 -29 -13 -50t-17 -50z" />
    <glyph glyph-name="uniF461" unicode="&#x415;`" horiz-adv-x="549" 
d="M559 667l-21 -174h-197l-9 -73h180l-20 -165h-180l-9 -76h204l-22 -179h-446l82 667h438zM374 916l117 -73l-157 -119l-87 55z" />
    <glyph glyph-name="uniF462" unicode="&#x418;`" horiz-adv-x="784" 
d="M121 667h238l-26 -204q-5 -37 -12 -71t-20 -69l10 -5q17 32 36.5 64t36.5 56l166 229h221l-82 -667h-238l21 172q3 22 6 40.5t6.5 36.5t8.5 36.5t11 39.5l-10 2q-8 -15 -24.5 -43.5t-50.5 -73.5l-159 -210h-221zM472 916l117 -73l-157 -119l-87 55z" />
    <glyph glyph-name="uniF463" unicode="&#x41e;`" horiz-adv-x="808" 
d="M48 324q0 76 28.5 141.5t78 114t117 76t144.5 27.5q76 0 143 -24t117.5 -69t80 -108.5t29.5 -142.5q0 -76 -28 -141t-76.5 -113t-115.5 -75t-145 -27q-79 0 -147 26t-118.5 72t-79 108.5t-28.5 134.5zM292 322q0 -28 9 -51.5t24.5 -41t37 -27t47.5 -9.5q28 0 52.5 11
t42 30t27.5 45t10 56q0 27 -9 50t-25 40t-37.5 27t-46.5 10q-27 0 -51 -11t-42 -30t-28.5 -44.5t-10.5 -54.5zM484 916l117 -73l-157 -119l-87 55z" />
    <glyph glyph-name="uniF464" unicode="&#x423;`" horiz-adv-x="714" 
d="M299 667l72 -188q7 -18 11 -35t6 -38h8q5 18 11.5 38t14.5 37l90 186h263l-389 -667h-266l87 153q12 21 23.5 37.5t29.5 35.5l-220 441h259zM310 779l127 137l117 -73l-157 -119z" />
    <glyph glyph-name="uniF465" unicode="&#x42b;`" horiz-adv-x="1007" 
d="M122 667h242l-31 -254h78q49 0 93.5 -8.5t78.5 -30t53.5 -58.5t19.5 -93q0 -34 -7 -61.5t-19 -49t-27 -37.5t-30 -27q-23 -17 -51 -26.5t-56.5 -14t-54.5 -6t-46 -1.5h-326zM752 667h242l-82 -667h-242zM583 916l117 -73l-157 -119l-87 55zM324 156q17 0 34.5 1t32 7
t24 18t9.5 34q0 17 -7.5 26.5t-19.5 14t-26.5 5.5t-27.5 1h-29l-13 -107h23z" />
    <glyph glyph-name="uniF466" unicode="&#x42d;`" horiz-adv-x="670" 
d="M56 249q34 -37 79 -56.5t96 -19.5q26 0 50 4t44.5 14.5t36.5 28t25 44.5h-219l18 146h217q-8 24 -23 39.5t-34 25.5t-41.5 14t-45.5 4q-55 0 -100 -22t-83 -60l28 222q57 29 108.5 39.5t96.5 10.5q76 0 138.5 -21.5t107 -63t69 -101.5t24.5 -138q0 -92 -31 -163t-79 -117
q-32 -30 -66.5 -49t-70 -29.5t-69.5 -14t-65 -3.5q-65 0 -123.5 13t-113.5 42zM238 779l127 137l117 -73l-157 -119z" />
    <glyph glyph-name="uniF467" unicode="&#x42e;`" horiz-adv-x="1143" 
d="M39 0l82 667h242l-28 -228h81q16 58 48.5 103.5t77 76.5t98 47.5t113.5 16.5q76 0 143.5 -24t117 -69t78.5 -108.5t29 -142.5q0 -78 -29 -142.5t-74 -109.5q-44 -44 -111.5 -74t-163.5 -30q-62 0 -119.5 16t-104 48.5t-78 81t-41.5 114.5h-90l-29 -243h-242zM627 322
q0 -26 8.5 -49.5t23.5 -41t37 -28t49 -10.5q30 0 54.5 11.5t41.5 31t26.5 45t9.5 54.5q0 25 -8.5 48.5t-24 40.5t-37.5 27.5t-48 10.5q-28 0 -52 -11.5t-42 -31t-28 -45t-10 -52.5zM524 779l127 137l117 -73l-157 -119z" />
    <glyph glyph-name="uniF468" unicode="&#x42f;`" horiz-adv-x="707" 
d="M25 0l181 251q-30 6 -53.5 21.5t-39.5 38t-24.5 50.5t-8.5 57q0 54 18.5 99.5t47.5 74.5q27 27 59.5 42t65 22.5t63 9t52.5 1.5h308l-82 -667h-242l17 141q1 5 4.5 27.5t16.5 76.5l-7 1q-5 -29 -16 -57t-19 -42l-83 -147h-258zM336 779l127 137l117 -73l-157 -119z
M390 493q-35 0 -56 -16t-21 -53q0 -15 6.5 -24t16.5 -14.5t22.5 -7.5t24.5 -2h34l14 117h-41z" />
    <glyph glyph-name="uniF469" unicode="&#x401;`" horiz-adv-x="549" 
d="M39 0l82 667h438l-21 -174h-197l-9 -73h180l-20 -165h-180l-9 -76h204l-22 -179h-446zM160 735q-13 0 -27 5t-26 15t-19.5 25t-7.5 35q0 35 22.5 57.5t57.5 22.5q20 0 35 -7.5t25 -19.5t15 -26t5 -27q0 -16 -6.5 -30.5t-17.5 -25.5t-25.5 -17.5t-30.5 -6.5zM531 735
q-16 0 -30.5 6.5t-25.5 17.5t-17.5 25.5t-6.5 30.5q0 13 5 27t15 26t25 19.5t35 7.5q35 0 57.5 -22.5t22.5 -57.5q0 -20 -7.5 -35t-19.5 -25t-26 -15t-27 -5zM345 911l107 -31l-120 -150l-88 26z" />
    <glyph glyph-name="uniF46A" unicode="&#x430;`" horiz-adv-x="652" 
d="M25 205q0 55 19 105.5t51.5 89t74.5 61t89 22.5q56 0 88.5 -23t52.5 -77l8 3q-3 25 -4 38t-1 33v10h230l-58 -467h-229q3 12 5 20.5t4.5 17t6 19t9.5 26.5l-7 3q-30 -53 -63.5 -76t-80.5 -23q-39 0 -74.5 17.5t-62.5 47.5t-42.5 69.5t-15.5 83.5zM423 742l117 -73
l-146 -128l-87 55zM326 299q-27 0 -47 -22.5t-20 -53.5q0 -26 16 -42.5t41 -16.5q28 0 46.5 21t18.5 53q0 26 -15.5 43.5t-39.5 17.5z" />
    <glyph glyph-name="uniF46B" unicode="&#x435;`" horiz-adv-x="618" 
d="M308 -13q-62 0 -113.5 17.5t-88.5 49.5t-57.5 76.5t-20.5 98.5q0 57 22 105.5t60.5 84t91 55.5t114.5 20q58 0 108 -19t87 -52t58.5 -77.5t21.5 -95.5q0 -8 -1 -20t-3 -28h-331q-1 -5 -1 -9v-8q0 -29 14 -46t37 -17q34 0 50 40h222q-7 -20 -13 -34.5t-13.5 -26t-16.5 -22
t-22 -21.5q-82 -71 -205 -71zM290 596l116 146l117 -73l-146 -128zM322 360q-47 0 -57 -62h108q-1 62 -51 62z" />
    <glyph glyph-name="uniF46C" unicode="&#x438;`" horiz-adv-x="673" 
d="M77 467h228l-20 -146q-4 -25 -9 -46.5t-16 -44.5l11 -4q8 17 15 30t18 29l124 182h227l-57 -467h-228l19 140q3 23 7 44.5t12 47.5l-10 4q-14 -28 -23 -42t-19 -28l-109 -166h-227zM433 742l117 -73l-146 -128l-87 55z" />
    <glyph glyph-name="uniF46D" unicode="&#x43e;`" horiz-adv-x="637" 
d="M324 -13q-56 0 -109 16t-94.5 47.5t-66.5 78t-25 107.5q0 63 25 111t67 80.5t96 49t112 16.5q57 0 108 -16.5t89.5 -48t61.5 -78t23 -106.5t-23.5 -108t-63 -81t-91.5 -50.5t-109 -17.5zM299 596l116 146l117 -73l-146 -128zM324 310q-31 0 -48.5 -23t-17.5 -52
q0 -26 16.5 -46t43.5 -20q31 0 47.5 23t16.5 52q0 26 -15.5 46t-42.5 20z" />
    <glyph glyph-name="uniF46E" unicode="&#x443;`" horiz-adv-x="591" 
d="M19 -229l88 169q11 19 18.5 32t14.5 23t14 19.5t18 21.5l-141 431h238l20 -130q5 -28 6 -43t1 -32v-20.5t-2 -27.5l10 -1q4 22 8 39t7.5 32t8 29t10.5 31l43 123h249l-363 -696h-248zM270 596l116 146l117 -73l-146 -128z" />
    <glyph glyph-name="uniF46F" unicode="&#x44b;`" horiz-adv-x="884" 
d="M76 467h232l-19 -156h99q37 0 69 -7.5t56 -24.5t37.5 -45t13.5 -69q0 -39 -13 -67t-30 -45q-29 -30 -73.5 -41.5t-100.5 -11.5h-327zM579 0l57 467h228l-57 -467h-228zM423 596l116 146l117 -73l-146 -128zM301 116q25 0 42 10t17 38q0 22 -14.5 28.5t-33.5 6.5h-37
l-10 -83h36z" />
    <glyph glyph-name="uniF470" unicode="&#x44d;`" horiz-adv-x="537" 
d="M225 -12q-52 0 -99 8t-96 33l19 158q52 -60 132 -60q16 0 33 3t31.5 9.5t25.5 18t17 29.5h-167l13 110h161q-16 30 -42.5 42.5t-58.5 12.5q-35 0 -70.5 -15t-60.5 -40l20 165q46 17 84.5 23.5t75.5 6.5q58 0 107.5 -15t85 -45t55.5 -75.5t20 -106.5q0 -73 -23.5 -119.5
t-50.5 -72.5q-24 -24 -51.5 -37.5t-55 -21t-54.5 -9.5t-51 -2zM179 596l116 146l117 -73l-146 -128z" />
    <glyph glyph-name="uniF471" unicode="&#x44e;`" horiz-adv-x="912" 
d="M20 0l57 467h218l-19 -149h63q15 44 41.5 77t61 54.5t76 32.5t86.5 11q55 0 106 -15.5t90 -46t62.5 -75.5t23.5 -104q0 -48 -17.5 -97.5t-55.5 -88.5q-26 -27 -55.5 -42.5t-59 -23.5t-58.5 -10.5t-54 -2.5q-46 0 -87.5 9t-76 29.5t-59 53.5t-35.5 81h-70l-20 -160h-218z
M437 596l116 146l117 -73l-146 -128zM533 235q0 -26 16.5 -46t43.5 -20q31 0 47.5 22.5t16.5 51.5q0 26 -15 46.5t-43 20.5q-31 0 -48.5 -23t-17.5 -52z" />
    <glyph glyph-name="uniF472" unicode="&#x44f;`" horiz-adv-x="627" 
d="M140 158q-47 9 -70.5 43t-23.5 80q0 50 16 81.5t34 49.5q19 19 42 30.5t46.5 16.5t47 6.5t43.5 1.5h332l-57 -467h-230l17 138h-6l-92 -138h-229zM294 596l116 146l117 -73l-146 -128zM266 291q0 -23 15.5 -32t35.5 -9h34l11 95h-31q-27 0 -46 -12t-19 -42z" />
    <glyph glyph-name="uniF473" unicode="&#x451;`" horiz-adv-x="618" 
d="M308 -13q-62 0 -113.5 17.5t-88.5 49.5t-57.5 76.5t-20.5 98.5q0 57 22 105.5t60.5 84t91 55.5t114.5 20q58 0 108 -19t87 -52t58.5 -77.5t21.5 -95.5q0 -8 -1 -20t-3 -28h-331q-1 -5 -1 -9v-8q0 -29 14 -46t37 -17q34 0 50 40h222q-7 -20 -13 -34.5t-13.5 -26t-16.5 -22
t-22 -21.5q-82 -71 -205 -71zM127 589q-32 0 -55 23t-23 55t23 55t55 23q16 0 30 -6t24.5 -16.5t16.5 -25t6 -30.5t-6 -30.5t-16.5 -25t-24.5 -16.5t-30 -6zM432 667q0 16 6 30.5t16.5 25t24.5 16.5t30 6q32 0 55 -23t23 -55t-23 -55t-55 -23q-16 0 -30 6t-24.5 16.5
t-16.5 25t-6 30.5zM318 748l96 -63l-146 -128l-66 45zM373 298q-1 62 -51 62q-47 0 -57 -62h108z" />
    <glyph glyph-name="fi" unicode="fi" horiz-adv-x="701" 
d="M15 287l22 180l62 -6l2 21q6 67 31.5 116t66 80.5t95 46.5t119.5 15q48 0 97.5 -10.5t89.5 -34.5t65 -63t25 -96q0 -8 -0.5 -15t-1.5 -14h-226v4q0 27 -18.5 40t-44.5 13q-33 0 -50.5 -19t-22.5 -50l-5 -36l78 8l-22 -180l-73 6l-36 -293h-226l36 293zM457 467h226
l-57 -467h-226z" />
    <glyph glyph-name="fl" unicode="fl" horiz-adv-x="701" 
d="M15 287l22 180l62 -6l2 21q13 132 94.5 195t211.5 63q53 0 103.5 -12.5t89.5 -39.5t62.5 -69.5t23.5 -102.5q0 -26 -3.5 -53t-7.5 -58l-49 -405h-226l55 440q2 13 4 27.5t2 29.5q0 32 -15.5 49.5t-47.5 17.5q-33 0 -50 -19t-22 -50l-5 -36l78 8l-22 -180l-73 6l-36 -293
h-226l36 293z" />
    <glyph glyph-name=".notdef" horiz-adv-x="233" 
 />
    <glyph glyph-name="uni0000" horiz-adv-x="0" 
 />
    <glyph glyph-name="nonmarkingreturn" horiz-adv-x="233" 
 />
    <glyph glyph-name="uni000D" unicode="&#xd;" horiz-adv-x="250" 
 />
    <glyph glyph-name="space" unicode=" " horiz-adv-x="233" 
 />
    <glyph glyph-name="exclam" unicode="!" horiz-adv-x="404" 
d="M140 667h242l-49 -405h-242zM191 -12q-27 0 -51 9t-42.5 25t-29 36.5t-10.5 44.5q0 23 10 43t27.5 34.5t41 22.5t51.5 8t52.5 -8.5t42.5 -23.5t28.5 -35.5t10.5 -44.5q0 -23 -10.5 -43.5t-28 -35.5t-41.5 -23.5t-51 -8.5z" />
    <glyph glyph-name="quotedbl" unicode="&#x22;" horiz-adv-x="416" 
d="M271 399l9 268h148l-57 -268h-100zM93 667h148l-58 -268h-99z" />
    <glyph glyph-name="numbersign" unicode="#" horiz-adv-x="600" 
d="M0 182l33 117h101l23 83h-100l32 116h101l48 169h131l-47 -169h84l48 169h133l-48 -169h100l-32 -116h-100l-23 -83h101l-32 -117h-102l-51 -182h-134l52 182h-84l-52 -182h-132l52 182h-102zM266 299h84l24 83h-85z" />
    <glyph glyph-name="dollar" unicode="$" horiz-adv-x="707" 
d="M115 249q43 -41 95 -64.5t112 -23.5q44 0 68.5 13t24.5 36q0 20 -15 29.5t-52 14.5q-60 8 -102.5 20t-71.5 30q-35 21 -55 61t-20 86q0 91 63 151t175 75l12 96h148l-12 -96q24 -2 44.5 -6t41 -9.5t41.5 -14t46 -19.5l-77 -177q-72 63 -162 63q-82 0 -82 -45
q0 -9 2 -14.5t9.5 -9.5t22 -7.5t40.5 -8.5q45 -9 88.5 -19.5t77 -31.5t54 -55.5t20.5 -91.5q0 -54 -25 -101.5t-71 -80.5q-17 -12 -32.5 -21t-33.5 -15t-40.5 -11t-54.5 -10l-14 -107h-145l14 107q-60 9 -110.5 27t-102.5 49z" />
    <glyph glyph-name="percent" unicode="%" horiz-adv-x="1059" 
d="M811 -17q-47 0 -85.5 13.5t-66 38t-43 58t-15.5 74.5q0 42 15.5 76.5t43.5 60t66.5 39.5t85.5 14t87 -12.5t69 -36t45.5 -55.5t16.5 -71q0 -43 -17 -79.5t-46.5 -63t-69.5 -41.5t-86 -15zM266 310q-47 0 -85.5 13.5t-66 37.5t-43 58t-15.5 75q0 42 15.5 76.5t43.5 59.5
t66.5 39t85.5 14t86.5 -12.5t68.5 -35.5t45.5 -55t16.5 -71q0 -43 -17 -79.5t-46 -63t-69 -41.5t-86 -15zM720 667h120l-470 -667h-121zM233 496q0 -17 10.5 -29t24.5 -12q19 0 31.5 15t12.5 37q0 18 -10.5 29t-24.5 11q-18 0 -31 -15.5t-13 -35.5zM778 169
q0 -17 10.5 -28.5t24.5 -11.5q19 0 31.5 14.5t12.5 36.5q0 19 -10.5 29.5t-24.5 10.5q-18 0 -31 -15t-13 -36z" />
    <glyph glyph-name="ampersand" unicode="&#x26;" horiz-adv-x="869" 
d="M286 -17q-54 0 -99.5 16.5t-79 45t-52 68t-18.5 86.5q0 45 14.5 76.5t39 53t58 34.5t71.5 22q-28 34 -39.5 61.5t-11.5 60.5q0 42 19 77t52.5 60t80.5 39t104 14q54 0 99 -13.5t78 -38.5t51 -59t18 -74q0 -115 -156 -175l51 -61q18 13 30.5 23t24.5 21t25 26t33 39
l126 -165l-111 -75l143 -145h-293l-35 42q-51 -26 -108 -42.5t-115 -16.5zM320 257q-48 -15 -48 -50q0 -19 16 -30.5t42 -11.5q14 0 26.5 3t32.5 11zM430 545q-17 0 -28.5 -11.5t-11.5 -30.5q0 -11 5 -22t19 -31q28 14 39.5 27t11.5 31q0 16 -10 26.5t-25 10.5z" />
    <glyph glyph-name="quotesingle" unicode="'" horiz-adv-x="231" 
d="M185 399h-101l9 268h150z" />
    <glyph glyph-name="parenleft" unicode="(" horiz-adv-x="428" 
d="M127 -230q-33 97 -53.5 191t-20.5 197q0 88 15.5 175t47.5 167q12 31 23.5 57t27.5 55t38 65t55 89l170 -116q-45 -73 -77 -137t-52 -125.5t-29 -122.5t-9 -127q0 -79 13.5 -151.5t41.5 -146.5l-191 -70v0z" />
    <glyph glyph-name="parenright" unicode=")" horiz-adv-x="428" 
d="M8 -114q45 72 77 136.5t52 125.5t29 121t9 125q0 81 -13 154t-42 148l191 70q17 -50 30.5 -97.5t23.5 -95t15 -96.5t5 -102q0 -86 -15.5 -173t-46.5 -166q-12 -31 -23.5 -56.5t-27.5 -54.5t-38.5 -65.5t-55.5 -89.5z" />
    <glyph glyph-name="asterisk" unicode="*" horiz-adv-x="710" 
d="M349 619l4 110h120l-24 -110l107 44l23 -114l-111 -25l63 -83l-105 -70l-46 94l-67 -94l-89 70l83 83l-105 25l51 114z" />
    <glyph glyph-name="plus" unicode="+" 
d="M199 400v153h130v-153h151v-120h-151v-153h-130v153h-152v120h152z" />
    <glyph glyph-name="comma" unicode="," horiz-adv-x="344" 
d="M308 183l-187 -343h-178l132 343h233z" />
    <glyph glyph-name="hyphen" unicode="-" horiz-adv-x="415" 
d="M41 175l23 180h315l-23 -180h-315z" />
    <glyph glyph-name="period" unicode="." horiz-adv-x="355" 
d="M30 93q0 24 11 45.5t29 37.5t42.5 25.5t51.5 9.5t50.5 -8.5t41 -23.5t27.5 -35.5t10 -43.5q0 -24 -10.5 -44.5t-28.5 -35.5t-43 -24t-53 -9q-27 0 -50.5 8t-41 22.5t-27 33.5t-9.5 42z" />
    <glyph glyph-name="slash" unicode="/" horiz-adv-x="639" 
d="M386 729h173l-491 -922h-172z" />
    <glyph glyph-name="zero" unicode="0" horiz-adv-x="707" 
d="M351 -17q-68 0 -124.5 24t-97.5 67.5t-63.5 103.5t-22.5 132q0 81 25 149t69 118t104.5 78t131.5 28q68 0 126 -24.5t100 -68t66 -103.5t24 -130q0 -80 -26 -148t-71 -118.5t-107 -79t-134 -28.5zM283 298q0 -54 17.5 -84.5t49.5 -30.5q21 0 39 15t31.5 41t21 61t7.5 75
q0 48 -19 76.5t-50 28.5q-19 0 -36.5 -15t-31 -40t-21.5 -58t-8 -69z" />
    <glyph glyph-name="one" unicode="1" horiz-adv-x="707" 
d="M570 667l-82 -667h-246l56 461l-109 -8l26 214h355z" />
    <glyph glyph-name="two" unicode="2" horiz-adv-x="707" 
d="M3 0l331 299l32 30t28.5 31t20.5 33.5t8 35.5q0 26 -14 42t-40 16q-17 0 -29.5 -8t-20.5 -20.5t-12 -28t-4 -30.5h-244q19 139 101 211t223 72q26 0 53.5 -3t55 -10.5t54 -21.5t50.5 -36q24 -23 46.5 -63t22.5 -102q0 -55 -22 -97.5t-57 -74.5t-80 -55t-91 -39l3 -11
q34 12 66 16t67 4h89l-23 -190h-614z" />
    <glyph glyph-name="three" unicode="3" horiz-adv-x="707" 
d="M287 231q-1 -5 -1 -9v-7q0 -29 17.5 -46t45.5 -17q30 0 51 19.5t21 48.5q0 26 -18 43t-46 17h-10t-13 -2l17 137q7 -2 11 -2.5t9 -0.5q26 0 42 15t16 38q0 22 -14.5 36.5t-34.5 14.5q-46 0 -52 -55h-232q3 18 6 31.5t6.5 24.5t8.5 21t12 22q20 33 49.5 56.5t64 38
t72 21.5t74.5 7q59 0 109 -15t86.5 -41t57 -62.5t20.5 -79.5q0 -53 -31.5 -89t-83.5 -44v-10q50 -9 79.5 -47t29.5 -94q0 -49 -21.5 -89t-61 -68.5t-95 -44.5t-122.5 -16q-91 0 -162 30t-110 87q-10 15 -17 28t-11.5 27.5t-8 32.5t-6.5 43h246z" />
    <glyph glyph-name="four" unicode="4" horiz-adv-x="707" 
d="M40 309l312 358h287l-44 -358h92l-23 -182h-92l-15 -127h-223l16 127h-332zM254 288q11 6 19.5 10.5t17.5 6.5t20 3t26 1h41l7 56q4 33 12.5 62t27.5 70l-10 1q-11 -22 -25 -43t-32 -44l-46 -59q-11 -12 -25.5 -26t-36.5 -31z" />
    <glyph glyph-name="five" unicode="5" horiz-adv-x="707" 
d="M100 211q50 -23 95.5 -34.5t100.5 -11.5q14 0 34.5 2t39.5 8.5t32.5 18.5t13.5 32q0 23 -16 36.5t-38 20t-46 8.5t-40 2q-43 0 -82.5 -7.5t-79.5 -21.5l112 403h447l-23 -188h-274l-18 -62q19 5 39 8.5t45 3.5q43 0 82.5 -13t69.5 -37.5t48 -61t18 -82.5q0 -41 -16 -83.5
t-51 -77.5q-90 -91 -285 -91q-68 0 -131.5 12.5t-126.5 38.5z" />
    <glyph glyph-name="six" unicode="6" horiz-adv-x="707" 
d="M33 258q0 46 12 84.5t32.5 71t48.5 61.5t60 57l155 135h339l-186 -148q-18 -14 -35.5 -25.5t-38.5 -19.5l3 -13q15 5 23.5 6t20.5 1q42 0 77 -16t60.5 -43.5t40 -66t14.5 -83.5q0 -60 -24 -110.5t-66 -87t-100 -57.5t-127 -21q-68 0 -124.5 20.5t-97.5 57t-64 87
t-23 110.5zM267 248q0 -35 21 -56t55 -21q35 0 58.5 25t23.5 63q0 33 -21 54t-54 21q-17 0 -32 -7t-26.5 -18.5t-18 -27t-6.5 -33.5z" />
    <glyph glyph-name="seven" unicode="7" horiz-adv-x="707" 
d="M49 0l260 372q13 19 24 34t21.5 26.5t20.5 21t22 19.5l-3 7q-16 -5 -24.5 -6t-16.5 -1h-246l24 194h637l-444 -667h-275z" />
    <glyph glyph-name="eight" unicode="8" horiz-adv-x="707" 
d="M47 206q0 66 39 105.5t109 45.5l2 8q-93 27 -93 120q0 43 21 79t57.5 62.5t87 41.5t110.5 15q61 0 114 -15.5t92 -42.5t61 -63.5t22 -79.5q0 -65 -47 -106q-17 -15 -34 -22.5t-49 -15.5l-1 -8q116 -26 116 -132q0 -46 -22.5 -85.5t-62 -68t-94 -45t-118.5 -16.5
q-66 0 -122.5 17t-98.5 47t-65.5 71t-23.5 88zM282 214q0 -29 20 -49t49 -20t49 19.5t20 47.5q0 30 -19.5 50t-48.5 20t-49.5 -19.5t-20.5 -48.5zM385 520q-23 0 -38.5 -15.5t-15.5 -38.5t15.5 -38.5t37.5 -15.5q23 0 39 15.5t16 38.5t-15.5 38.5t-38.5 15.5z" />
    <glyph glyph-name="nine" unicode="9" horiz-adv-x="707" 
d="M59 0l150 121q34 28 58.5 43t48.5 26l-5 11q-18 -5 -28 -6t-22 -1q-42 0 -78.5 16.5t-63.5 45t-42.5 67.5t-15.5 84q0 60 24.5 110.5t67.5 87.5t102.5 57.5t130.5 20.5q66 0 121.5 -20.5t96 -56.5t63.5 -86t23 -110q0 -44 -10 -80t-28.5 -67.5t-44 -59.5t-55.5 -55
l-165 -148h-328zM296 405q0 -35 21.5 -58t54.5 -23q17 0 32.5 7.5t27.5 20t19 29.5t7 36q0 33 -21.5 54.5t-54.5 21.5q-36 0 -61 -25.5t-25 -62.5z" />
    <glyph glyph-name="colon" unicode=":" horiz-adv-x="355" 
d="M63 375q0 24 11 45.5t29 37.5t42.5 25.5t51.5 9.5t50.5 -8.5t41 -23.5t27.5 -35.5t10 -43.5q0 -24 -10.5 -45t-28.5 -36t-43 -24t-53 -9q-27 0 -50.5 8t-41 22.5t-27 34t-9.5 42.5zM158 -13q-27 0 -50.5 8t-41 22.5t-27 33.5t-9.5 42q0 24 11 45.5t29 37.5t42.5 25.5
t51.5 9.5t50.5 -8.5t41 -23.5t27.5 -35.5t10 -43.5q0 -24 -10.5 -44.5t-28.5 -35.5t-43 -24t-53 -9z" />
    <glyph glyph-name="semicolon" unicode=";" horiz-adv-x="344" 
d="M-57 -160l132 343h233l-187 -343h-178zM219 268q-27 0 -50.5 8t-41 22.5t-27 34t-9.5 42.5q0 24 10.5 45.5t29 37.5t43 25.5t51.5 9.5t50.5 -8.5t41 -23.5t27.5 -35.5t10 -43.5q0 -24 -10.5 -45t-29 -36t-43 -24t-52.5 -9z" />
    <glyph glyph-name="less" unicode="&#x3c;" 
d="M466 609v-128l-296 -147l295 -148l1 -128l-433 222v109z" />
    <glyph glyph-name="equal" unicode="=" 
d="M47 483h433v-113h-433v113zM480 310v-113h-433v113h433z" />
    <glyph glyph-name="greater" unicode="&#x3e;" 
d="M60 58v129l296 147l-295 147l-1 128l433 -221v-109z" />
    <glyph glyph-name="question" unicode="?" horiz-adv-x="618" 
d="M73 461q7 55 31 96t61 69t84 42t100 14q25 0 52 -3t54 -11t52 -22.5t48 -37.5q31 -32 44 -67.5t13 -73.5q0 -48 -16 -83t-39 -58q-39 -39 -95 -53.5t-126 -14.5q-26 0 -48.5 2t-46.5 7l21 152q21 -8 44 -8q15 0 30 3t27 10.5t19 20t7 30.5q0 20 -12 33t-33 13
q-26 0 -36.5 -18.5t-10.5 -41.5h-224zM296 -13q-31 0 -55.5 10t-41 25.5t-25.5 35.5t-9 40t9 40t26 36.5t42 27t57 10.5t56 -10.5t40.5 -27.5t25 -37.5t8.5 -40.5q0 -24 -11 -44.5t-29.5 -34.5t-42.5 -22t-50 -8z" />
    <glyph glyph-name="at" unicode="@" horiz-adv-x="732" 
d="M43 290q0 81 32.5 151.5t88 123t127.5 83t152 30.5q58 0 108.5 -18.5t88 -52.5t59.5 -82.5t22 -107.5q0 -60 -19.5 -117t-58.5 -95q-26 -26 -57 -38.5t-60 -12.5q-28 0 -51.5 12.5t-29.5 41.5q-25 -29 -56 -46t-70 -17q-29 0 -51.5 10.5t-38 28.5t-24 42t-8.5 51
q0 41 15.5 81.5t43.5 72.5t65 51.5t81 19.5q28 0 50.5 -11t35.5 -37l11 38h89l-59 -190q-5 -14 -7.5 -24t-2.5 -20q0 -23 24 -23q9 0 16 3.5t14 8.5q18 14 30 34.5t19.5 42.5t10.5 43.5t3 36.5q0 42 -16 77t-43 60t-63.5 39t-77.5 14q-61 0 -115.5 -23.5t-96 -64t-65.5 -95
t-24 -115.5q0 -54 18 -95.5t50 -69.5t75.5 -42.5t95.5 -14.5q43 0 90 8t93 26l11 -86q-46 -17 -95 -25.5t-105 -8.5q-30 0 -61 3.5t-62 12.5t-60 24.5t-55 40.5q-38 36 -62.5 92.5t-24.5 128.5zM302 293q0 -21 12.5 -39t35.5 -18q21 0 38.5 11t30 28.5t20 38t7.5 38.5
q0 22 -12 39.5t-36 17.5q-21 0 -38.5 -11t-30.5 -28t-20 -37.5t-7 -39.5z" />
    <glyph glyph-name="A" unicode="A" horiz-adv-x="708" 
d="M-28 0l308 667h276l124 -667h-247l-5 89h-164l-32 -89h-260zM320 241h92l-10 121q-1 8 -1.5 20.5t-0.5 26.5v15.5t0.5 12t1 11.5t1.5 14h-8q-7 -29 -13 -50t-17 -50z" />
    <glyph glyph-name="B" unicode="B" horiz-adv-x="681" 
d="M39 0l82 667h299q81 0 130 -23.5t74 -74.5q9 -18 13 -37t4 -35q0 -60 -28.5 -98.5t-82.5 -50.5l1 -6q53 -11 81 -48.5t28 -94.5q0 -44 -17 -81t-47.5 -63t-72 -40.5t-90.5 -14.5h-374zM290 156h16q54 0 78 15.5t24 53.5q0 24 -15 35t-48 11h-41zM342 411q39 0 57 12
t18 40q0 44 -50 44h-34l-12 -96h21z" />
    <glyph glyph-name="C" unicode="C" horiz-adv-x="582" 
d="M367 -17q-69 0 -128 25t-101.5 69t-66.5 104.5t-24 132.5q0 79 28 147t77 117t116.5 77t146.5 28q87 0 173 -31l-20 -237q-34 27 -66 39.5t-67 12.5q-30 0 -56.5 -12t-47 -32t-32 -47t-11.5 -57q0 -26 10 -47.5t27 -38t41 -25.5t51 -9q38 0 69 14t62 43l-29 -243
q-49 -17 -82.5 -23.5t-69.5 -6.5z" />
    <glyph glyph-name="D" unicode="D" horiz-adv-x="744" 
d="M39 0l82 667h226q88 0 157.5 -22t118 -63.5t74 -101.5t25.5 -136q0 -80 -31.5 -148t-90.5 -115q-28 -22 -57.5 -37.5t-64.5 -25t-77.5 -14t-94.5 -4.5h-267zM339 198q30 0 56 12t45.5 32.5t31 48t11.5 59.5q0 53 -32.5 87t-82.5 34h-30l-33 -273h34z" />
    <glyph glyph-name="E" unicode="E" horiz-adv-x="549" 
d="M559 667l-21 -174h-197l-9 -73h180l-20 -165h-180l-9 -76h204l-22 -179h-446l82 667h438z" />
    <glyph glyph-name="F" unicode="F" horiz-adv-x="523" 
d="M547 667l-22 -178h-184l-9 -73h172l-22 -176h-172l-29 -240h-242l82 667h426z" />
    <glyph glyph-name="G" unicode="G" horiz-adv-x="807" 
d="M47 317q0 75 27 141t75 115q16 16 41.5 35.5t62 36.5t83.5 28t107 11q107 0 186 -40t133 -129l-227 -89q-4 8 -11 18t-17.5 18.5t-25.5 14t-35 5.5q-37 0 -66 -14t-49.5 -38t-31 -56t-10.5 -67q0 -61 35 -99.5t97 -38.5q10 0 24.5 2t30.5 9.5t30 22t22 39.5h-130l20 146
h365v-6q0 -34 -4.5 -72.5t-16.5 -78.5t-33.5 -78.5t-55.5 -71.5q-31 -31 -64 -50t-67 -29.5t-68.5 -14.5t-67.5 -4q-35 0 -69 4t-66.5 14.5t-64 29t-61.5 48.5q-18 17 -35.5 40t-31.5 52.5t-22.5 65.5t-8.5 80z" />
    <glyph glyph-name="H" unicode="H" horiz-adv-x="760" 
d="M121 667h242l-28 -228h142l28 228h242l-82 -667h-242l30 243h-143l-29 -243h-242z" />
    <glyph glyph-name="I" unicode="I" horiz-adv-x="379" 
d="M366 667l-82 -667h-245l82 667h245z" />
    <glyph glyph-name="J" unicode="J" horiz-adv-x="456" 
d="M44 251q8 -20 23.5 -40t40.5 -20q8 0 16 2t14 12q2 4 5.5 13.5t6.5 32.5l51 416h242l-55 -447q-5 -44 -17 -90t-49 -84q-19 -20 -41 -32t-45 -19t-46.5 -9.5t-44.5 -2.5q-71 0 -113.5 17.5t-65.5 34.5z" />
    <glyph glyph-name="K" unicode="K" horiz-adv-x="732" 
d="M39 0l82 667h242l-22 -173q-3 -24 -8 -54.5t-13 -61.5l7 -2q11 27 21 47.5t21 37.5l129 206h282l-260 -338l170 -329h-255l-85 192q-7 15 -12 27t-8.5 23.5t-7 22.5t-6.5 25l-7 -1v-20q0 -16 -1.5 -38t-3.5 -39l-23 -192h-242z" />
    <glyph glyph-name="L" unicode="L" horiz-adv-x="530" 
d="M366 667l-57 -466l205 6l-25 -207h-450l82 667h245z" />
    <glyph glyph-name="M" unicode="M" horiz-adv-x="948" 
d="M12 0l194 667h256l26 -208q2 -18 3.5 -36t1.5 -38q0 -23 -1 -37t-5 -36h10q4 23 9.5 44t12 43.5t16 47t21.5 55.5l67 165h255l2 -667h-235l13 197q2 27 4 49t4.5 43.5t6 43.5t8.5 49l-9 2l-5 -19q-7 -26 -12 -44.5t-11 -36.5t-13 -37t-18 -45l-85 -202h-152l-26 211
q-3 27 -5.5 54.5t-2.5 55.5v13v23.5t2 26.5h-8l-2 -15q-3 -23 -5.5 -41.5t-5.5 -36t-7 -36.5t-10 -44l-49 -211h-245z" />
    <glyph glyph-name="N" unicode="N" horiz-adv-x="812" 
d="M39 0l82 667h243l118 -251q11 -24 20.5 -49.5t21.5 -68.5l6 -22l10 1l-2 22q-2 28 -3.5 49.5t-1.5 42.5q0 20 1 39.5t3 39.5l17 197h245l-82 -667h-234l-116 230q-19 37 -30 68.5t-23 66.5l-4 12h-8q2 -23 3 -41t1 -39q0 -20 -0.5 -37t-2.5 -30l-21 -230h-243z" />
    <glyph glyph-name="O" unicode="O" horiz-adv-x="808" 
d="M421 -17q-79 0 -147 26t-118.5 72t-79 108.5t-28.5 134.5q0 76 28.5 141.5t78 114t117 76t144.5 27.5q76 0 143 -24t117.5 -69t80 -108.5t29.5 -142.5q0 -76 -28 -141t-76.5 -113t-115.5 -75t-145 -27zM292 322q0 -28 9 -51.5t24.5 -41t37 -27t47.5 -9.5q28 0 52.5 11
t42 30t27.5 45t10 56q0 27 -9 50t-25 40t-37.5 27t-46.5 10q-27 0 -51 -11t-42 -30t-28.5 -44.5t-10.5 -54.5z" />
    <glyph glyph-name="P" unicode="P" horiz-adv-x="665" 
d="M39 0l82 667h278q69 0 113 -12t79 -39q40 -32 62 -78t22 -99q0 -48 -19 -93t-51 -77q-37 -35 -85 -50.5t-122 -15.5h-92l-25 -203h-242zM348 369q92 0 92 71q0 29 -16 41t-58 12h-25l-15 -124h22z" />
    <glyph glyph-name="Q" unicode="Q" horiz-adv-x="811" 
d="M49 324q0 77 28.5 143t78.5 114t118.5 75t148.5 27q150 0 257 -93q58 -51 84.5 -111.5t26.5 -143.5q0 -37 -5 -67t-16.5 -56.5t-30 -50t-45.5 -47.5l87 -131l-203 -65l-44 91q-21 -8 -36.5 -13t-30 -8t-30 -4t-34.5 -1q-63 0 -121.5 19.5t-106.5 57.5q-63 50 -94.5 114.5
t-31.5 149.5zM292 310q0 -27 9 -51t25.5 -41.5t38 -27.5t47.5 -10q10 0 30 3l-69 92l170 18q2 14 3.5 25t1.5 19q0 25 -10 47.5t-26.5 40t-39 27.5t-46.5 10q-28 0 -52.5 -12t-42.5 -32.5t-28.5 -48.5t-10.5 -59z" />
    <glyph glyph-name="R" unicode="R" horiz-adv-x="701" 
d="M39 0l82 667h265q41 0 72 -3t55.5 -9t44 -16.5t38.5 -25.5q38 -30 58 -74t20 -92q0 -44 -17.5 -82.5t-49.5 -64.5q-11 -9 -21 -15t-21 -10.5t-24.5 -7.5t-32.5 -6l145 -261h-262l-60 161q-8 21 -15 45.5t-11 43.5l-7 -1q1 -17 1 -26v-23q0 -23 -1.5 -46t-3.5 -42
l-13 -112h-242zM346 368q42 0 66.5 18t24.5 48q0 54 -77 54h-19l-15 -120h20z" />
    <glyph glyph-name="S" unicode="S" horiz-adv-x="607" 
d="M106 243q30 -37 74.5 -58t92.5 -21q26 0 41 10.5t15 28.5q0 17 -15 28t-48 19q-41 8 -75.5 21.5t-60.5 36t-40.5 55.5t-14.5 81q0 50 21.5 93.5t58.5 76t87 51t107 18.5q70 0 129.5 -18t119.5 -51l-89 -177q-32 29 -69.5 44.5t-76.5 15.5q-20 0 -33 -10t-13 -25
q0 -8 3 -13.5t11 -10t22 -9t37 -10.5q35 -8 62.5 -19.5t45.5 -24.5q33 -23 53 -63t20 -86q0 -50 -23 -94.5t-62.5 -77.5t-92.5 -52t-113 -19q-73 0 -137 22.5t-127 57.5z" />
    <glyph glyph-name="T" unicode="T" horiz-adv-x="489" 
d="M536 667l-26 -210l-115 7l-57 -464h-245l57 464l-115 -7l25 210h476z" />
    <glyph glyph-name="U" unicode="U" horiz-adv-x="758" 
d="M145 55q-40 32 -57.5 73.5t-17.5 101.5q0 26 3 53l48 384h245l-45 -369q-2 -18 -3.5 -30.5t-1.5 -18.5q0 -30 15.5 -46t44.5 -16q35 0 52.5 23.5t25.5 78.5l46 378h245l-45 -369q-6 -53 -13 -89t-17.5 -62.5t-25.5 -46t-37 -39.5q-45 -41 -99.5 -59.5t-126.5 -18.5
q-147 0 -236 72z" />
    <glyph glyph-name="V" unicode="V" horiz-adv-x="694" 
d="M54 667h253l26 -210q6 -47 6 -99q0 -22 -1 -41t-3 -48l10 -1q8 63 20 113t32 98l77 188h274l-334 -667h-210z" />
    <glyph glyph-name="W" unicode="W" horiz-adv-x="1040" 
d="M54 667h250l22 -259q2 -22 3 -44t1 -44q0 -14 -0.5 -24t-1.5 -29h10l3 19q7 41 16.5 80t25.5 84l81 217h199l28 -254q4 -35 5.5 -61.5t1.5 -58.5v-10.5t-1 -16.5h10q4 34 7 57.5t7.5 43.5t11 40t15.5 48l72 212h274l-320 -667h-204l-30 215q-4 26 -6 55t-2 55v13t1 15
l-9 1l-3 -11q-8 -29 -14 -56t-13 -44l-90 -243h-216z" />
    <glyph glyph-name="X" unicode="X" horiz-adv-x="740" 
d="M250 356l-181 311h273l32 -84q8 -22 13 -37t7 -31h6q5 16 14.5 37.5t17.5 35.5l41 79h292l-253 -321l200 -346h-261l-51 109q-9 19 -14.5 34.5t-12.5 41.5h-8q-6 -20 -10 -29.5t-12 -22.5l-78 -133h-293z" />
    <glyph glyph-name="Y" unicode="Y" horiz-adv-x="684" 
d="M312 667l34 -109q6 -19 8.5 -34.5t4.5 -41.5h9q5 17 10 31.5t14 31.5l62 122h291l-281 -384l-35 -283h-240l36 289l-178 378h265z" />
    <glyph glyph-name="Z" unicode="Z" horiz-adv-x="633" 
d="M-7 60l233 328q13 18 22.5 30.5t17.5 21.5t15.5 15t16.5 11l-3 8q-22 -7 -39.5 -9t-47.5 -4l-153 -4l26 210h582l-8 -59l-247 -348q-12 -17 -20 -27.5t-15 -18t-14 -13.5t-16 -12l4 -8q12 4 20.5 6t17.5 3.5t20.5 2t29.5 1.5l181 4l-24 -198h-607z" />
    <glyph glyph-name="bracketleft" unicode="[" horiz-adv-x="430" 
d="M22 -193l113 922h330l-10 -83h-130l-93 -756h130l-10 -83h-330z" />
    <glyph glyph-name="backslash" unicode="\" horiz-adv-x="740" 
d="M549 729h173l-632 -922h-172z" />
    <glyph glyph-name="bracketright" unicode="]" horiz-adv-x="430" 
d="M-25 -193l10 83h130l93 756h-130l10 83h330l-113 -922h-330z" />
    <glyph glyph-name="asciicircum" unicode="^" 
d="M178 667h170l161 -337h-144l-102 219l-101 -219h-144z" />
    <glyph glyph-name="underscore" unicode="_" 
d="M-30 -46h500v-150h-500v150z" />
    <glyph glyph-name="grave" unicode="`" 
d="M278 742l115 -146l-86 -55l-146 128z" />
    <glyph glyph-name="a" unicode="a" horiz-adv-x="652" 
d="M220 -13q-39 0 -74.5 17.5t-62.5 47.5t-42.5 69.5t-15.5 83.5q0 55 19 105.5t51.5 89t74.5 61t89 22.5q56 0 88.5 -23t52.5 -77l8 3q-3 25 -4 38t-1 33v10h230l-58 -467h-229q3 12 5 20.5t4.5 17t6 19t9.5 26.5l-7 3q-30 -53 -63.5 -76t-80.5 -23zM259 223
q0 -26 16 -42.5t41 -16.5q28 0 46.5 21t18.5 53q0 26 -15.5 43.5t-39.5 17.5q-27 0 -47 -22.5t-20 -53.5z" />
    <glyph glyph-name="b" unicode="b" horiz-adv-x="639" 
d="M20 0l90 729h231l-28 -228q-7 -55 -28 -112l6 -4q44 98 137 98q40 0 73.5 -17.5t58.5 -49t39 -74t14 -92.5q0 -55 -17.5 -103t-47.5 -83.5t-70.5 -56t-87.5 -20.5q-97 0 -144 94l-7 -2q3 -19 4 -29.5t1 -30.5v-19h-224zM330 301q-26 0 -44 -21t-18 -52q0 -27 16 -45.5
t40 -18.5q26 0 43.5 21t17.5 53q0 28 -15.5 45.5t-39.5 17.5z" />
    <glyph glyph-name="c" unicode="c" horiz-adv-x="437" 
d="M262 -13q-52 0 -95 17t-74 48t-48.5 74t-17.5 94q0 61 19.5 111.5t55.5 86.5t86.5 55.5t111.5 19.5q17 0 32 -1t30.5 -4t34 -8t42.5 -13l-29 -196q-19 22 -38 32t-44 10q-33 0 -53 -22t-20 -58q0 -32 18 -50.5t50 -18.5q41 0 78 33l-34 -192q-19 -6 -32.5 -9.5
t-25.5 -5.5t-23 -2.5t-24 -0.5z" />
    <glyph glyph-name="d" unicode="d" horiz-adv-x="643" 
d="M211 -13q-40 0 -74 16.5t-58.5 46t-38.5 69.5t-14 88q0 57 17.5 107t47.5 87.5t70.5 59.5t86.5 22q105 0 140 -102l9 2q-2 14 -3 20.5t-1 14.5q0 22 2 50t5 51l26 210h231l-90 -729h-231q3 12 5.5 21t4.5 17t5 17.5t8 22.5l-8 4q-42 -95 -140 -95zM318 304
q-26 0 -44.5 -21t-18.5 -52q0 -26 16.5 -44t39.5 -18q26 0 43 19.5t19 50.5v5q0 27 -15 43.5t-40 16.5z" />
    <glyph glyph-name="e" unicode="e" horiz-adv-x="618" 
d="M308 -13q-62 0 -113.5 17.5t-88.5 49.5t-57.5 76.5t-20.5 98.5q0 57 22 105.5t60.5 84t91 55.5t114.5 20q58 0 108 -19t87 -52t58.5 -77.5t21.5 -95.5q0 -8 -1 -20t-3 -28h-331q-1 -5 -1 -9v-8q0 -29 14 -46t37 -17q34 0 50 40h222q-7 -20 -13 -34.5t-13.5 -26t-16.5 -22
t-22 -21.5q-82 -71 -205 -71zM322 360q-47 0 -57 -62h108q-1 62 -51 62z" />
    <glyph glyph-name="f" unicode="f" horiz-adv-x="382" 
d="M15 288l23 183l57 -10l10 81q12 98 69 148t157 50q53 0 101 -14l-22 -177q-7 3 -15 5.5t-14 2.5q-14 0 -23 -6.5t-14.5 -16.5t-8.5 -22t-4 -23l-4 -28l67 6l-22 -179l-66 6l-36 -294h-231l36 294z" />
    <glyph glyph-name="g" unicode="g" horiz-adv-x="644" 
d="M74 -24q45 -27 78.5 -38.5t71.5 -11.5q37 0 67 15.5t44 41.5q4 8 7.5 16t6.5 18.5t6 26t8 39.5l-7 2q-23 -49 -53.5 -68.5t-82.5 -19.5q-42 0 -77 16.5t-61 46t-40.5 70t-14.5 88.5q0 55 18 103.5t48.5 84.5t72.5 56.5t90 20.5q53 0 86.5 -22.5t51.5 -72.5l7 2l-2 27
l-2 50h228l-52 -421q-5 -41 -12.5 -72.5t-19 -56t-27.5 -43.5t-38 -35q-44 -32 -100 -50t-121 -18q-28 0 -60 4t-64 10.5t-62.5 16.5t-56.5 22zM255 225q0 -28 16 -45t41 -17q29 0 47 19.5t18 49.5q0 29 -15.5 47.5t-39.5 18.5q-28 0 -47.5 -21.5t-19.5 -51.5z" />
    <glyph glyph-name="h" unicode="h" horiz-adv-x="632" 
d="M20 0l90 729h231l-26 -211q-5 -44 -11 -71t-14 -54l9 -3q53 93 148 93q31 0 58 -11.5t46.5 -31.5t31 -47.5t11.5 -58.5q0 -12 -1 -25t-3 -28l-34 -281h-232l28 226q2 10 2.5 18t0.5 13q0 35 -30 35q-23 0 -33 -15.5t-15 -58.5l-26 -218h-231z" />
    <glyph glyph-name="i" unicode="i" horiz-adv-x="332" 
d="M24 0l57 467h231l-57 -467h-231zM207 529q-42 0 -72 24.5t-30 61.5q0 18 8 34t22 28t32.5 19t39.5 7q48 0 78.5 -25.5t30.5 -62.5t-30.5 -61.5t-78.5 -24.5z" />
    <glyph glyph-name="j" unicode="j" horiz-adv-x="341" 
d="M1 -229l89 696h231l-89 -696h-231zM216 529q-42 0 -72 24.5t-30 61.5q0 18 8 34t22 28t32.5 19t39.5 7q48 0 78.5 -25.5t30.5 -62.5t-30.5 -61.5t-78.5 -24.5z" />
    <glyph glyph-name="k" unicode="k" horiz-adv-x="650" 
d="M20 0l90 729h231l-34 -279q-2 -15 -5 -36t-7 -45t-8.5 -48.5t-8.5 -45.5l7 -1q6 15 11 26t11.5 23t15.5 26t23 34l57 84h275l-201 -241l134 -226h-256l-42 91q-9 19 -15 33t-10.5 27t-8 25.5t-6.5 28.5l-9 -1q2 -20 2.5 -31t0.5 -26q0 -11 -0.5 -21t-1.5 -18l-14 -108
h-231z" />
    <glyph glyph-name="l" unicode="l" horiz-adv-x="327" 
d="M341 729l-90 -729h-231l90 729h231z" />
    <glyph glyph-name="m" unicode="m" horiz-adv-x="903" 
d="M20 0l57 467h225q-2 -11 -3.5 -18.5t-4 -15t-5.5 -17.5t-8 -26l11 -2q30 52 63.5 73.5t84.5 21.5q104 0 120 -98h8q38 98 144 98q70 0 111.5 -41t41.5 -110q0 -14 -1.5 -30t-3.5 -35l-33 -267h-225l29 236q2 17 2.5 22t0.5 7q0 15 -7.5 25t-19.5 10q-20 0 -29 -15.5
t-14 -63.5l-28 -221h-225l28 230l4 25v11q0 15 -7 24t-19 9q-20 0 -29.5 -15t-14.5 -57l-28 -227h-225z" />
    <glyph glyph-name="n" unicode="n" horiz-adv-x="633" 
d="M20 0l57 467h232l-5 -25t-4.5 -19t-5.5 -18t-8 -21l8 -2q35 56 68.5 79t78.5 23q33 0 61 -11.5t48.5 -32t32 -48t11.5 -60.5q0 -15 -1.5 -32.5t-3.5 -38.5l-32 -261h-232l28 226q2 10 2.5 18t0.5 13q0 35 -30 35q-23 0 -33 -15t-15 -59l-27 -218h-231z" />
    <glyph glyph-name="o" unicode="o" horiz-adv-x="637" 
d="M321 -13q-63 0 -116.5 18.5t-92.5 52t-61 79t-22 99.5q0 55 22 102.5t61 81.5t92 53.5t116 19.5q66 0 119.5 -18t91.5 -50.5t59 -78.5t21 -102q0 -55 -22 -102t-61 -81.5t-92 -54t-115 -19.5zM258 235q0 -29 17 -47.5t43 -18.5q28 0 46 21.5t18 53.5q0 29 -16.5 47.5
t-41.5 18.5q-27 0 -46.5 -22t-19.5 -53z" />
    <glyph glyph-name="p" unicode="p" horiz-adv-x="645" 
d="M-4 -229l86 696h232q-2 -11 -4 -19t-4 -15.5t-4.5 -16t-6.5 -20.5l9 -4q28 50 57 71t74 21q39 0 72.5 -18.5t58.5 -50t39.5 -74t14.5 -90.5q0 -53 -17.5 -101t-46.5 -84t-68 -57.5t-82 -21.5q-55 0 -92.5 24.5t-53.5 71.5l-8 -3q2 -20 2.5 -32t0.5 -25q0 -18 -1 -37
t-4 -40l-22 -175h-232zM276 225q0 -28 15 -45t40 -17q27 0 44 21t17 54q0 28 -15.5 46t-38.5 18q-26 0 -44 -22.5t-18 -54.5z" />
    <glyph glyph-name="q" unicode="q" horiz-adv-x="637" 
d="M207 -13q-39 0 -72.5 17t-57.5 46.5t-38 70t-14 88.5q0 55 18 105t48.5 87.5t71 59.5t85.5 22q51 0 84 -23.5t53 -74.5l9 3q-3 12 -5 20.5t-3 17t-1.5 18t-1.5 23.5h236l-86 -696h-231l24 195q8 61 32 119l-9 4q-20 -50 -57 -76t-85 -26zM317 303q-27 0 -45 -20.5
t-18 -50.5q0 -28 15.5 -45.5t38.5 -17.5q26 0 44.5 20.5t18.5 50.5q0 29 -15 46t-39 17z" />
    <glyph glyph-name="r" unicode="r" horiz-adv-x="430" 
d="M20 0l57 467h234q-3 -12 -5 -21t-4.5 -18t-6.5 -19l-10 -25l10 -5q32 59 61.5 82t68.5 23q10 0 29 -4l-28 -230q-19 10 -29.5 13.5t-24.5 3.5q-85 0 -102 -130l-17 -137h-233z" />
    <glyph glyph-name="s" unicode="s" horiz-adv-x="476" 
d="M56 182q74 -49 137 -49q37 0 37 25q0 13 -11.5 21t-40.5 15q-71 16 -99 44t-28 78q0 38 16.5 70.5t46 56t69.5 37t88 13.5t95 -10t103 -32l-57 -141q-53 39 -108 39q-40 0 -40 -24q0 -20 27 -26l42 -10q53 -11 82.5 -45.5t29.5 -82.5q0 -38 -17 -70t-47.5 -55t-72.5 -36
t-93 -13q-60 0 -110.5 15.5t-104.5 38.5z" />
    <glyph glyph-name="t" unicode="t" horiz-adv-x="353" 
d="M306 294l-36 -294h-231l36 294l-60 -6l23 183l57 -10l21 164h231l-20 -164l57 6l-22 -179z" />
    <glyph glyph-name="u" unicode="u" horiz-adv-x="633" 
d="M46 186q0 24 3 54l28 227h232l-28 -227q-2 -17 -3 -27.5t-1 -13.5q0 -15 9.5 -25t24.5 -10q21 0 29.5 13.5t13.5 53.5l29 236h232l-32 -257q-4 -33 -10 -57.5t-15 -44t-21.5 -34.5t-30.5 -30q-37 -30 -84 -43.5t-107 -13.5q-129 0 -199 51.5t-70 147.5z" />
    <glyph glyph-name="v" unicode="v" horiz-adv-x="565" 
d="M19 467h232l11 -138q1 -14 1.5 -26t0.5 -25q0 -14 -0.5 -27t-2.5 -38h9q5 37 13 70.5t17 59.5l44 124h260l-271 -467h-195z" />
    <glyph glyph-name="w" unicode="w" horiz-adv-x="826" 
d="M19 467h235l11 -120q3 -27 3 -56q0 -17 -0.5 -32t-2.5 -45l10 -1l7.5 39t6.5 27q2 3 5 13.5t8 27.5l47 147h165l19 -135q3 -24 5 -52.5t4 -63.5h9q1 18 2.5 31.5t4 26.5t6.5 28t10 38l35 127h256l-247 -467h-188l-11 85q-5 40 -7 63t-2 49q0 6 0.5 15t0.5 20l-8 2
q-7 -26 -12 -44.5t-9 -32.5t-7.5 -24.5t-7.5 -19.5l-47 -113h-186z" />
    <glyph glyph-name="x" unicode="x" horiz-adv-x="633" 
d="M-30 0l217 246l-155 221h263l16 -49q4 -11 5.5 -19.5t3.5 -24.5l9 1q7 23 18 43l27 49h282l-211 -234l162 -233h-255l-20 43q-8 18 -11.5 30t-5.5 29l-7 1q-4 -11 -8 -19t-17 -29l-35 -55h-278z" />
    <glyph glyph-name="y" unicode="y" horiz-adv-x="591" 
d="M19 -229l88 169q11 19 18.5 32t14.5 23t14 19.5t18 21.5l-141 431h238l20 -130q5 -28 6 -43t1 -32v-20.5t-2 -27.5l10 -1q4 22 8 39t7.5 32t8 29t10.5 31l43 123h249l-363 -696h-248z" />
    <glyph glyph-name="z" unicode="z" horiz-adv-x="515" 
d="M-3 35l139 207q10 12 17 20.5t13 15t12.5 11.5t15.5 10l-5 9q-15 -8 -29.5 -11.5t-34.5 -3.5h-84l21 174h461l-4 -30l-144 -204q-13 -18 -27.5 -31.5t-29.5 -24.5l4 -11q14 7 25 9t33 2h107l-22 -177h-472z" />
    <glyph glyph-name="braceleft" unicode="{" horiz-adv-x="503" 
d="M161 159q0 26 -11 39.5t-35 18.5l13 110q48 9 57 45l6 23l23 189q10 78 48.5 111.5t121.5 33.5q3 0 6 -0.5t6 -0.5l65 -2l-14 -114h-21q-25 0 -40.5 -2t-24.5 -8t-13 -17.5t-7 -29.5l-17 -135q-5 -36 -10 -59.5t-14 -40t-22 -29t-32 -24.5q26 -20 36 -39t10 -52
q0 -8 -0.5 -18t-1.5 -18l-19 -160q-1 -6 -1 -10.5v-9.5q0 -22 15 -29.5t59 -7.5h8t12 1l-14 -115l-66 -2h-12q-73 0 -104.5 25t-31.5 85v19t4 40l19 155q1 6 1.5 13.5t0.5 14.5z" />
    <glyph glyph-name="bar" unicode="|" 
d="M185 750h130v-1000h-130v1000z" />
    <glyph glyph-name="braceright" unicode="}" horiz-adv-x="503" 
d="M68 -191l14 115q8 -1 12 -1h9q25 0 40 2t24 8.5t13.5 17.5t7.5 29l20 161q3 25 8 43.5t13 32.5t21 26t33 25q-27 19 -36.5 38t-9.5 53q0 8 0.5 17.5t1.5 17.5l19 161q1 6 1.5 11t0.5 10q0 22 -15 29t-59 7h-20l14 114l66 2q31 0 58 -3t47 -14t31.5 -33t11.5 -59v-16.5
t-2 -18.5l-22 -180q-1 -6 -1.5 -14t-0.5 -14q0 -26 11 -39.5t35 -18.5l-13 -110q-48 -11 -57 -46l-8 -30l-22 -181q-10 -78 -48.5 -111t-120.5 -33h-12z" />
    <glyph glyph-name="asciitilde" unicode="~" 
d="M14 242l7 17q26 65 59.5 93.5t84.5 28.5q18 0 42 -6t62 -20q22 -8 35.5 -13t22 -7t14.5 -2.5t14 -0.5q25 0 39.5 10.5t32.5 40.5l73 -43q-12 -27 -26.5 -51t-33 -42.5t-43 -29.5t-56.5 -11q-8 0 -16 1.5t-19.5 4.5t-27.5 8.5t-39 13.5q-21 7 -34 11.5t-21.5 6.5t-14 3
t-11.5 1q-13 0 -22.5 -2.5t-17.5 -9.5t-16 -19t-17 -30z" />
    <glyph glyph-name="uni00A0" unicode="&#xa0;" horiz-adv-x="233" 
 />
    <glyph glyph-name="exclamdown" unicode="&#xa1;" horiz-adv-x="411" 
d="M35 -230l50 405h242l-50 -405h-242zM236 226q-28 0 -52.5 8.5t-42.5 23.5t-28.5 35.5t-10.5 44.5q0 23 10.5 43.5t28 35.5t41.5 23.5t51 8.5t51 -9t42.5 -24.5t29 -36t10.5 -44.5q0 -23 -10 -43t-27.5 -34.5t-41 -23t-51.5 -8.5z" />
    <glyph glyph-name="cent" unicode="&#xa2;" horiz-adv-x="707" 
d="M158 329q0 53 17 99t48.5 80.5t75 56t96.5 26.5l9 79h100l-10 -84q38 -3 71 -19l-28 -193q-11 14 -30.5 27.5t-48.5 13.5q-32 0 -53 -21t-21 -53q0 -31 21 -47.5t50 -16.5q23 0 44 10t35 24l-34 -191q-35 -15 -66 -18l-12 -92h-104l12 92q-42 8 -74 29t-53.5 51.5t-33 68
t-11.5 78.5z" />
    <glyph glyph-name="sterling" unicode="&#xa3;" horiz-adv-x="707" 
d="M51 0q5 58 36.5 106.5t87.5 69.5q6 17 6 34t1 33h-120l15 110h83q-15 40 -17.5 69.5t-2.5 35.5q0 52 21 94t55.5 70.5t80 44t94.5 15.5q47 0 88 -11.5t71.5 -35.5t48 -60.5t17.5 -87.5q0 -28 -6 -59h-154q3 12 3 32q0 30 -14 51.5t-47 21.5q-35 0 -55 -22t-20 -56
q0 -14 2 -23.5t5 -20t6 -24t5 -34.5h133l-15 -110h-118q0 -22 -4 -42.5t-16 -38.5q40 -18 62.5 -27.5t42.5 -9.5q21 0 31.5 8.5t16.5 28.5h126q-2 -33 -15 -69.5t-38 -61.5q-29 -29 -64.5 -36.5t-66.5 -7.5q-29 0 -52.5 4t-52.5 16l-39 16q-13 5 -26 10.5t-28 5.5
q-42 0 -54 -39h-113z" />
    <glyph glyph-name="currency" unicode="&#xa4;" horiz-adv-x="667" 
d="M38 619l71 71l104 -104q35 23 68 33.5t72 10.5q38 0 70 -10t67 -33l103 102l70 -70l-102 -102q25 -39 35 -70.5t10 -69.5q0 -37 -10 -69t-33 -67l103 -103l-70 -71l-103 103q-67 -45 -142 -45q-37 0 -69.5 10t-70.5 34l-102 -102l-70 70l103 103q-44 65 -44 138
q0 38 10.5 70t33.5 67zM352 514q-28 0 -53 -10.5t-43.5 -29.5t-29 -44t-10.5 -53t10.5 -53t29 -43.5t43.5 -29t53 -10.5t53 10.5t43.5 29t29 43.5t10.5 53t-10.5 53t-29 44t-43.5 29.5t-53 10.5z" />
    <glyph glyph-name="yen" unicode="&#xa5;" horiz-adv-x="707" 
d="M7 139l13 108h196l6 42l-24 50h-167l14 108h102l-103 220h265l34 -109q6 -19 8.5 -34.5t4.5 -41.5h8q5 17 10.5 31t14.5 32l61 122h291l-160 -220h106l-14 -108h-171l-41 -56l-5 -36h206l-13 -108h-206l-17 -139h-240l17 139h-196z" />
    <glyph glyph-name="brokenbar" unicode="&#xa6;" 
d="M185 750h130v-413h-130v413zM315 163v-413h-130v413h130z" />
    <glyph glyph-name="section" unicode="&#xa7;" horiz-adv-x="707" 
d="M231 18v-7q0 -32 22.5 -53.5t57.5 -21.5q29 0 46 15t17 42t-19 44t-67 32q-35 11 -57 18.5t-37 14.5t-25.5 15t-22.5 19q-26 20 -39 53t-13 68q0 48 25 85t81 66q-28 31 -40.5 62t-12.5 70q0 44 18.5 79t53 59.5t83.5 37.5t111 13q65 0 106 -12t74 -41q29 -25 45.5 -61.5
t16.5 -73.5v-11.5t-1 -16.5h-170v11q0 37 -21.5 58.5t-57.5 21.5q-29 0 -45.5 -13.5t-16.5 -36.5t16.5 -39t56.5 -30l47 -16q54 -18 85.5 -39.5t52.5 -53.5q14 -22 21.5 -46t7.5 -44q0 -48 -28.5 -90t-79.5 -62q27 -33 38 -61.5t11 -69.5q0 -94 -66.5 -145t-187.5 -51
q-128 0 -198.5 54t-76.5 157h189zM285 271q0 -29 20.5 -48.5t50.5 -19.5q32 0 54 19.5t22 48.5t-19.5 47.5t-50.5 18.5q-34 0 -55.5 -18.5t-21.5 -47.5z" />
    <glyph glyph-name="dieresis" unicode="&#xa8;" 
d="M322 642q0 21 8 40t22 33t32.5 22t39.5 8t40 -8t33 -22t22 -33t8 -40t-8 -39.5t-22 -32.5t-33 -22t-40 -8t-39.5 8t-32.5 22t-22 32.5t-8 39.5zM177 540q-21 0 -39.5 8t-32.5 22t-22 32.5t-8 39.5t8 40t22 33t32.5 22t39.5 8t40 -8t33 -22t22 -33t8 -40t-8 -39.5
t-22 -32.5t-33 -22t-40 -8z" />
    <glyph glyph-name="copyright" unicode="&#xa9;" horiz-adv-x="760" 
d="M46 334q0 72 27.5 135.5t74.5 110.5t111 74.5t136 27.5q71 0 134 -27.5t110 -75t74 -111t27 -135.5t-27 -135.5t-74 -110.5t-110 -74.5t-135 -27.5t-135.5 27.5t-110.5 74.5t-74.5 111t-27.5 136zM126 333q0 -57 21 -107.5t57.5 -88t85 -59t104.5 -21.5q55 0 103.5 22
t84.5 59.5t57 88t21 107.5t-21 107t-57 87.5t-84.5 59t-103.5 21.5q-56 0 -104.5 -21.5t-85 -59t-57.5 -88t-21 -107.5zM411 127q-45 0 -83.5 15.5t-67 43t-45 64.5t-16.5 80q0 44 16.5 82t46 66.5t68.5 44.5t84 16q29 0 54 -3.5t51 -11.5l4 -2l3 -160l-10 8
q-23 18 -41.5 25t-37.5 7q-30 0 -51 -19.5t-21 -48.5t21.5 -49t52.5 -20q21 0 39 5.5t38 23.5l10 9l-3 -158q-20 -8 -49.5 -13t-62.5 -5z" />
    <glyph glyph-name="ordfeminine" unicode="&#xaa;" horiz-adv-x="381" 
d="M156 386q-53 0 -80.5 33.5t-27.5 84.5q0 32 10.5 61.5t29.5 52t46 36t61 13.5q24 0 42.5 -9t32.5 -30q-1 2 -1 6v8v5l2 12h141l-33 -266h-140l1 9q1 6 4 13t5 12h-4q-19 -23 -39 -32t-50 -9zM25 267l11 92h339l-11 -92h-339zM229 559q-17 0 -27 -11.5t-10 -27.5
q0 -14 9 -20t22 -6q16 0 26.5 10.5t10.5 26.5q0 14 -9 21t-22 7z" />
    <glyph glyph-name="guillemotleft" unicode="&#xab;" horiz-adv-x="544" 
d="M180 5l-144 222l192 230l85 -71l-142 -161l105 -158zM391 5l-144 222l192 230l85 -71l-142 -161l105 -158z" />
    <glyph glyph-name="logicalnot" unicode="&#xac;" 
d="M325 0v150h-303v117h433v-267h-130z" />
    <glyph glyph-name="uni00AD" unicode="&#xad;" horiz-adv-x="415" 
d="M41 175l23 180h315l-23 -180h-315z" />
    <glyph glyph-name="registered" unicode="&#xae;" horiz-adv-x="772" 
d="M74 331q0 72 27.5 136t75.5 112t112 75.5t137 27.5t137 -27.5t112 -75t76 -111.5t28 -137q0 -74 -28 -138t-76 -112t-112 -75.5t-137 -27.5q-72 0 -136 27.5t-112 75.5t-76 112t-28 138zM427 610q-56 0 -105.5 -22.5t-86.5 -61t-59 -89t-22 -107.5q0 -58 22 -109t59 -89
t86.5 -60t105.5 -22t105.5 22t86.5 60t58.5 89t21.5 109q0 57 -21.5 108t-58.5 89.5t-86.5 60.5t-105.5 22zM428 511q72 0 113 -33t41 -92q0 -36 -16.5 -57t-52.5 -35l5 -6l10 -8l87 -122h-163l-56 102v-102h-138v353h170zM410 357q32 0 32 25q0 11 -7 19t-20 8h-20v-52h15z
" />
    <glyph glyph-name="macron" unicode="&#xaf;" 
d="M118 546l12 100h340l-12 -100h-340z" />
    <glyph glyph-name="degree" unicode="&#xb0;" horiz-adv-x="499" 
d="M130 516q0 31 12 58.5t33 48t49 32.5t59 12t59.5 -11.5t49.5 -32t33.5 -48t12.5 -59.5t-12 -59.5t-32.5 -48.5t-48.5 -33t-59 -12q-32 0 -60.5 11.5t-49.5 32t-33.5 48.5t-12.5 61zM284 583q-29 0 -49.5 -20t-20.5 -48t20.5 -48t49.5 -20t49.5 20t20.5 48t-20.5 48
t-49.5 20z" />
    <glyph glyph-name="plusminus" unicode="&#xb1;" 
d="M189 477v153h130v-153h152v-120h-152v-154h-130v154h-151v120h151zM471 170v-120h-433v120h433z" />
    <glyph glyph-name="twosuperior" unicode="&#xb2;" horiz-adv-x="506" 
d="M70 271l146 130q30 26 46.5 40.5t30.5 27.5q11 11 22 24.5t11 34.5q0 34 -32 34q-24 0 -32.5 -16.5t-10.5 -36.5h-143q3 40 20 72.5t44 55t62.5 34.5t74.5 12q32 0 64 -8.5t57 -26t40.5 -44.5t15.5 -63q0 -30 -12.5 -53t-33 -40.5t-45.5 -30.5t-49 -23l4 -9
q28 9 47.5 11.5t38.5 2.5h38l-15 -128h-389z" />
    <glyph glyph-name="threesuperior" unicode="&#xb3;" horiz-adv-x="466" 
d="M110 306q-19 17 -31.5 45t-13.5 62h148q0 -19 7.5 -30.5t28.5 -11.5q15 0 26.5 9.5t11.5 25.5q0 17 -11 25t-27 8q-8 0 -11 -1l10 83q3 -1 5.5 -1.5t5.5 -0.5q14 0 23 9t9 23t-8 22t-22 8q-16 0 -23.5 -12.5t-9.5 -26.5h-138q4 22 11.5 39.5t16 30t16.5 20.5l12 12
q31 28 67.5 33.5t68.5 5.5q29 0 58 -6t52.5 -20t38.5 -37t15 -57q0 -29 -17 -50.5t-46 -28.5v-6q29 -10 44.5 -31t15.5 -52q0 -36 -15 -61.5t-40 -41t-56 -22.5t-62 -7q-20 0 -41.5 1t-42.5 5.5t-40.5 13t-35.5 23.5z" />
    <glyph glyph-name="acute" unicode="&#xb4;" 
d="M347 742l117 -73l-146 -128l-87 55z" />
    <glyph glyph-name="uni00B5" unicode="&#xb5;" horiz-adv-x="661" 
d="M-4 -230l85 697h232l-34 -278q0 -3 -0.5 -6t-0.5 -7q0 -20 11 -32t31 -12q28 0 41 17t16 42l34 276h232l-57 -467h-223l1 9q0 3 2 12.5t9 38.5h-6q-8 -25 -22.5 -45.5t-43.5 -20.5q-14 0 -23.5 6t-15.5 15.5t-9.5 21t-4.5 23.5h-6q2 -11 2.5 -23.5t0.5 -23.5v-12t-1 -11
l-27 -220h-223z" />
    <glyph glyph-name="uni00B5" unicode="&#x3bc;" horiz-adv-x="661" 
d="M-4 -230l85 697h232l-34 -278q0 -3 -0.5 -6t-0.5 -7q0 -20 11 -32t31 -12q28 0 41 17t16 42l34 276h232l-57 -467h-223l1 9q0 3 2 12.5t9 38.5h-6q-8 -25 -22.5 -45.5t-43.5 -20.5q-14 0 -23.5 6t-15.5 15.5t-9.5 21t-4.5 23.5h-6q2 -11 2.5 -23.5t0.5 -23.5v-12t-1 -11
l-27 -220h-223z" />
    <glyph glyph-name="paragraph" unicode="&#xb6;" horiz-adv-x="691" 
d="M58 469q0 59 22.5 97t59.5 60.5t84.5 31.5t98.5 9h348l-14 -110h-70l-80 -652h-122l80 652h-83l-80 -652h-122l51 409h-5q-74 0 -121 39t-47 116z" />
    <glyph glyph-name="periodcentered" unicode="&#xb7;" horiz-adv-x="275" 
d="M12 328q0 25 11.5 47.5t30.5 39.5t44.5 27t54.5 10q28 0 53 -9t43.5 -25t29 -37.5t10.5 -45.5q0 -25 -11 -47t-30.5 -38t-45 -25t-55.5 -9q-29 0 -53.5 8.5t-42.5 23.5t-28.5 35.5t-10.5 44.5z" />
    <glyph glyph-name="cedilla" unicode="&#xb8;" 
d="M252 -45l106 -76l-140 -129l-100 70z" />
    <glyph glyph-name="onesuperior" unicode="&#xb9;" horiz-adv-x="320" 
d="M300 674l-49 -400h-144l34 276l-61 -4l16 128h204z" />
    <glyph glyph-name="ordmasculine" unicode="&#xba;" horiz-adv-x="396" 
d="M222 388q-29 0 -57.5 7t-51 22t-37 38.5t-14.5 56.5q0 41 17.5 70.5t45.5 48t63.5 27.5t71.5 9q30 0 58.5 -7t50.5 -22t35.5 -39t13.5 -58q0 -40 -17.5 -69t-45.5 -47.5t-63 -27.5t-70 -9zM41 359h360l-12 -92h-361zM243 559q-16 0 -26.5 -10.5t-10.5 -26.5q0 -28 31 -28
q16 0 26.5 10.5t10.5 26.5q0 14 -9 21t-22 7z" />
    <glyph glyph-name="guillemotright" unicode="&#xbb;" horiz-adv-x="544" 
d="M161 457l141 -222l-192 -230l-84 71l141 159l-102 160zM374 457l141 -222l-192 -230l-84 71l141 159l-102 160z" />
    <glyph glyph-name="onequarter" unicode="&#xbc;" horiz-adv-x="917" 
d="M467 182l193 218h181l-26 -214l52 5l-14 -114l-54 4l-7 -81h-146l14 81l-206 -5zM568 667h130l-470 -667h-131zM72 667h204l-49 -400h-144l34 276l-61 -4zM600 182q17 4 37 4h43l6 51q2 11 2.5 20t5.5 23l-5 3q-20 -24 -43.5 -51t-46.5 -46z" />
    <glyph glyph-name="onehalf" unicode="&#xbd;" horiz-adv-x="920" 
d="M454 0l146 130q30 26 46.5 40.5t30.5 27.5q11 11 22 24.5t11 34.5q0 34 -32 34q-24 0 -32.5 -16.5t-10.5 -36.5h-143q3 40 20 72.5t44 55t62.5 34.5t74.5 12q32 0 64 -8.5t57 -26t40.5 -44.5t15.5 -63q0 -30 -12.5 -53t-33 -40.5t-45.5 -30.5t-49 -23l4 -9
q28 9 47.5 11.5t38.5 2.5h38l-15 -128h-389zM97 0l471 667h130l-470 -667h-131zM56 539l16 128h204l-49 -400h-144l34 276z" />
    <glyph glyph-name="threequarters" unicode="&#xbe;" horiz-adv-x="1036" 
d="M573 76l13 106l193 218h181l-26 -214l52 5l-14 -114l-54 4l-7 -81h-146l14 81zM101 305q-19 17 -31.5 45t-13.5 62h148q0 -19 7.5 -30.5t28.5 -11.5q15 0 26.5 9.5t11.5 25.5q0 17 -11 25t-27 8q-8 0 -11 -1l10 83q3 -1 5.5 -1.5t5.5 -0.5q14 0 23 9t9 23t-8 22t-22 8
q-16 0 -23.5 -12.5t-9.5 -26.5h-138q4 22 11.5 39.5t16 30t16.5 20.5l12 12q28 25 61 32t69 7q29 0 59.5 -5.5t55 -19t40 -37t15.5 -58.5q0 -29 -17 -50.5t-46 -28.5v-6q29 -10 44.5 -31t15.5 -52q0 -20 -7.5 -43.5t-28.5 -43.5q-17 -16 -35 -25t-37 -13.5t-37 -5.5t-34 -1
q-17 0 -37.5 1t-41 5.5t-40 13t-35.5 23.5zM232 0l471 667h130l-470 -667h-131zM719 182q17 4 37 4h43l6 51q2 11 2.5 20t5.5 23l-5 3q-9 -11 -20.5 -24t-23.5 -26.5t-24 -25.5t-22 -21z" />
    <glyph glyph-name="questiondown" unicode="&#xbf;" horiz-adv-x="623" 
d="M273 -242q-52 0 -98.5 11.5t-82 37t-56.5 66t-21 97.5q0 60 25 102t67 69q47 31 96.5 38t101.5 7q23 0 42 -1t44 -6l-21 -151q-11 4 -22.5 6t-25.5 2q-34 0 -59 -18.5t-25 -54.5q0 -21 12.5 -32.5t33.5 -11.5q26 0 36 17t10 40h229q-4 -35 -15 -62t-24.5 -47t-27.5 -33.5
t-23 -20.5q-23 -18 -48.5 -29t-51 -17t-50.5 -7.5t-46 -1.5zM203 339q0 20 8.5 39.5t25.5 35.5t41.5 25.5t56.5 9.5q31 0 56 -10t41.5 -25.5t25.5 -35.5t9 -40q0 -21 -9.5 -41t-26.5 -35.5t-42 -25.5t-55 -10q-31 0 -55 10t-41 25.5t-26 36t-9 41.5z" />
    <glyph glyph-name="Agrave" unicode="&#xc0;" horiz-adv-x="708" 
d="M-28 0l308 667h276l124 -667h-247l-5 89h-164l-32 -89h-260zM385 907l154 -129l-59 -67l-175 104zM320 241h92l-10 121q-1 8 -1.5 20.5t-0.5 26.5v15.5t0.5 12t1 11.5t1.5 14h-8q-7 -29 -13 -50t-17 -50z" />
    <glyph glyph-name="Aacute" unicode="&#xc1;" horiz-adv-x="708" 
d="M280 667h276l124 -667h-247l-5 89h-164l-32 -89h-260zM494 907l80 -92l-195 -104l-59 67zM320 241h92l-10 121q-1 8 -1.5 20.5t-0.5 26.5v15.5t0.5 12t1 11.5t1.5 14h-8q-7 -29 -13 -50t-17 -50z" />
    <glyph glyph-name="Acircumflex" unicode="&#xc2;" horiz-adv-x="708" 
d="M280 667h276l124 -667h-247l-5 89h-164l-32 -89h-260zM258 777l178 126l164 -126l-72 -66l-102 66l-107 -66zM320 241h92l-10 121q-1 8 -1.5 20.5t-0.5 26.5v15.5t0.5 12t1 11.5t1.5 14h-8q-7 -29 -13 -50t-17 -50z" />
    <glyph glyph-name="Atilde" unicode="&#xc3;" horiz-adv-x="708" 
d="M-28 0l308 667h276l124 -667h-247l-5 89h-164l-32 -89h-260zM249 779q18 30 48 53t71 23h2q24 0 39 -6.5t27 -14.5t24.5 -15t30.5 -8q11 -1 31 10t32 38l46 -68q-25 -35 -54 -57t-70 -22h-3q-23 0 -38.5 6.5t-28.5 14t-24.5 14t-27.5 7.5q-10 0 -26 -7t-31 -32zM412 241
l-10 121q-1 8 -1.5 20.5t-0.5 26.5v15.5t0.5 12t1 11.5t1.5 14h-8q-7 -29 -13 -50t-17 -50l-45 -121h92z" />
    <glyph glyph-name="Adieresis" unicode="&#xc4;" horiz-adv-x="708" 
d="M-28 0l308 667h276l124 -667h-247l-5 89h-164l-32 -89h-260zM303 733q-21 0 -39.5 7.5t-32 21t-21 32t-7.5 39.5t7.5 39t21 31.5t32 21.5t39.5 8t39 -8t31.5 -21.5t21.5 -31.5t8 -39t-8 -39.5t-21.5 -32t-31.5 -21t-39 -7.5zM450 833q0 21 7.5 39t21 31.5t32 21.5t39.5 8
q42 0 71 -29t29 -71q0 -21 -8 -39.5t-21.5 -32t-31.5 -21t-39 -7.5t-39.5 7.5t-32 21t-21 32t-7.5 39.5zM412 241l-10 121q-1 8 -1.5 20.5t-0.5 26.5v15.5t0.5 12t1 11.5t1.5 14h-8q-7 -29 -13 -50t-17 -50l-45 -121h92z" />
    <glyph glyph-name="Aring" unicode="&#xc5;" horiz-adv-x="708" 
d="M-28 0l308 667h276l124 -667h-247l-5 89h-164l-32 -89h-260zM420 717q-26 0 -51.5 5.5t-46 18.5t-33.5 34t-13 51t13 50.5t33.5 33.5t46 18.5t51.5 5.5q23 0 52 -5t52 -23q18 -14 29 -35.5t11 -44.5q0 -30 -13 -51t-33.5 -34t-46 -18.5t-51.5 -5.5zM412 241l-10 121
q-1 8 -1.5 20.5t-0.5 26.5v15.5t0.5 12t1 11.5t1.5 14h-8q-7 -29 -13 -50t-17 -50l-45 -121h92zM420 860q-18 0 -34 -7.5t-16 -28.5q0 -10 5 -16.5t12.5 -10t16 -5t16.5 -1.5q18 0 34 6.5t16 28.5q0 21 -16.5 27.5t-33.5 6.5z" />
    <glyph glyph-name="AE" unicode="&#xc6;" horiz-adv-x="920" 
d="M-21 0l310 667h478l31 -175h-203l12 -71h204l29 -170h-203l13 -70h203l32 -181h-446l-4 88h-165l-32 -88h-259zM420 239l-12 131q-1 7 -1 15v17q0 17 1 28t3 29l-11 2q-3 -15 -5 -25.5t-5 -20.5t-6.5 -20.5t-8.5 -24.5l-48 -131h93z" />
    <glyph glyph-name="Ccedilla" unicode="&#xc7;" horiz-adv-x="582" 
d="M47 314q0 79 28 147t77 117t116.5 77t146.5 28q87 0 173 -31l-20 -237q-34 27 -66 39.5t-67 12.5q-30 0 -56.5 -12t-47 -32t-32 -47t-11.5 -57q0 -26 10 -47.5t27 -38t41 -25.5t51 -9q38 0 69 14t62 43l-29 -243q-49 -17 -82.5 -23.5t-69.5 -6.5q-69 0 -128 25t-101.5 69
t-66.5 104.5t-24 132.5zM350 -43l116 -82l-158 -143l-110 78z" />
    <glyph glyph-name="Egrave" unicode="&#xc8;" horiz-adv-x="549" 
d="M559 667l-21 -174h-197l-9 -73h180l-20 -165h-180l-9 -76h204l-22 -179h-446l82 667h438zM208 815l80 92l154 -129l-59 -67z" />
    <glyph glyph-name="Eacute" unicode="&#xc9;" horiz-adv-x="549" 
d="M559 667l-21 -174h-197l-9 -73h180l-20 -165h-180l-9 -76h204l-22 -179h-446l82 667h438zM309 711l-59 67l174 129l80 -92z" />
    <glyph glyph-name="Ecircumflex" unicode="&#xca;" horiz-adv-x="549" 
d="M559 667l-21 -174h-197l-9 -73h180l-20 -165h-180l-9 -76h204l-22 -179h-446l82 667h438zM231 711l-61 66l178 126l164 -126l-72 -66l-102 66z" />
    <glyph glyph-name="Edieresis" unicode="&#xcb;" horiz-adv-x="549" 
d="M39 0l82 667h438l-21 -174h-197l-9 -73h180l-20 -165h-180l-9 -76h204l-22 -179h-446zM485 733q-21 0 -39.5 7.5t-32 21t-21 32t-7.5 39.5t7.5 39t21 31.5t32 21.5t39.5 8q42 0 71 -29t29 -71q0 -21 -8 -39.5t-21.5 -32t-31.5 -21t-39 -7.5zM138 833q0 21 7.5 39t21 31.5
t32 21.5t39.5 8t39 -8t31.5 -21.5t21.5 -31.5t8 -39t-8 -39.5t-21.5 -32t-31.5 -21t-39 -7.5t-39.5 7.5t-32 21t-21 32t-7.5 39.5z" />
    <glyph glyph-name="Igrave" unicode="&#xcc;" horiz-adv-x="379" 
d="M366 667l-82 -667h-245l82 667h245zM115 815l80 92l154 -129l-59 -67z" />
    <glyph glyph-name="Iacute" unicode="&#xcd;" horiz-adv-x="379" 
d="M366 667l-82 -667h-245l82 667h245zM210 711l-59 67l174 129l80 -92z" />
    <glyph glyph-name="Icircumflex" unicode="&#xce;" horiz-adv-x="379" 
d="M366 667l-82 -667h-245l82 667h245zM75 817l187 101l161 -115l-66 -87l-98 70l-129 -70z" />
    <glyph glyph-name="Idieresis" unicode="&#xcf;" horiz-adv-x="379" 
d="M39 0l82 667h245l-82 -667h-245zM385 733q-21 0 -39.5 7.5t-32 21t-21 32t-7.5 39.5t7.5 39t21 31.5t32 21.5t39.5 8t39 -8t31.5 -21.5t21.5 -31.5t8 -39t-8 -39.5t-21.5 -32t-31.5 -21t-39 -7.5zM138 733q-21 0 -39.5 7.5t-32 21t-21 32t-7.5 39.5t7.5 39t21 31.5
t32 21.5t39.5 8t39 -8t31.5 -21.5t21.5 -31.5t8 -39t-8 -39.5t-21.5 -32t-31.5 -21t-39 -7.5z" />
    <glyph glyph-name="Eth" unicode="&#xd0;" horiz-adv-x="770" 
d="M15 280l14 120h85l33 267h226q88 0 157.5 -22t118 -63.5t74 -101.5t25.5 -136q0 -80 -31.5 -148t-90.5 -115q-28 -22 -57.5 -37.5t-64.5 -25t-77.5 -14t-94.5 -4.5h-267l34 280h-84zM365 198q30 0 56 12t45.5 32.5t31 48t11.5 59.5q0 53 -32.5 87t-82.5 34h-30l-10 -71
h84l-14 -120h-83l-10 -82h34z" />
    <glyph glyph-name="Ntilde" unicode="&#xd1;" horiz-adv-x="812" 
d="M121 667h243l118 -251q11 -24 20.5 -49.5t21.5 -68.5l6 -22l10 1l-2 22q-2 28 -3.5 49.5t-1.5 42.5q0 20 1 39.5t3 39.5l17 197h245l-82 -667h-234l-116 230q-19 37 -30 68.5t-23 66.5l-4 12h-8q2 -23 3 -41t1 -39q0 -20 -0.5 -37t-2.5 -30l-21 -230h-243zM257 755
q33 56 64.5 79t74.5 23q15 0 27.5 -3t42.5 -15q14 -5 21.5 -7.5t13.5 -2.5q12 0 19 5.5t15 22.5l83 -42q-17 -26 -31 -43t-27 -27t-26 -14t-28 -4q-13 0 -24 2.5t-34 10.5l-34 12q-11 4 -17 5t-11 1q-15 0 -23.5 -7t-15.5 -24z" />
    <glyph glyph-name="Ograve" unicode="&#xd2;" horiz-adv-x="808" 
d="M421 -17q-79 0 -147 26t-118.5 72t-79 108.5t-28.5 134.5q0 76 28.5 141.5t78 114t117 76t144.5 27.5q76 0 143 -24t117.5 -69t80 -108.5t29.5 -142.5q0 -76 -28 -141t-76.5 -113t-115.5 -75t-145 -27zM424 462q-27 0 -51 -11t-42 -30t-28.5 -44.5t-10.5 -54.5
q0 -28 9 -51.5t24.5 -41t37 -27t47.5 -9.5q28 0 52.5 11t42 30t27.5 45t10 56q0 27 -9 50t-25 40t-37.5 27t-46.5 10zM279 815l80 92l154 -129l-59 -67z" />
    <glyph glyph-name="Oacute" unicode="&#xd3;" horiz-adv-x="808" 
d="M48 324q0 76 28.5 141.5t78 114t117 76t144.5 27.5q76 0 143 -24t117.5 -69t80 -108.5t29.5 -142.5q0 -76 -28 -141t-76.5 -113t-115.5 -75t-145 -27q-79 0 -147 26t-118.5 72t-79 108.5t-28.5 134.5zM292 322q0 -28 9 -51.5t24.5 -41t37 -27t47.5 -9.5q28 0 52.5 11
t42 30t27.5 45t10 56q0 27 -9 50t-25 40t-37.5 27t-46.5 10q-27 0 -51 -11t-42 -30t-28.5 -44.5t-10.5 -54.5zM560 907l80 -92l-195 -104l-59 67z" />
    <glyph glyph-name="Ocircumflex" unicode="&#xd4;" horiz-adv-x="808" 
d="M48 324q0 76 28.5 141.5t78 114t117 76t144.5 27.5q76 0 143 -24t117.5 -69t80 -108.5t29.5 -142.5q0 -76 -28 -141t-76.5 -113t-115.5 -75t-145 -27q-79 0 -147 26t-118.5 72t-79 108.5t-28.5 134.5zM292 322q0 -28 9 -51.5t24.5 -41t37 -27t47.5 -9.5q28 0 52.5 11
t42 30t27.5 45t10 56q0 27 -9 50t-25 40t-37.5 27t-46.5 10q-27 0 -51 -11t-42 -30t-28.5 -44.5t-10.5 -54.5zM471 903l164 -126l-72 -66l-102 66l-107 -66l-61 66z" />
    <glyph glyph-name="Otilde" unicode="&#xd5;" horiz-adv-x="808" 
d="M421 -17q-79 0 -147 26t-118.5 72t-79 108.5t-28.5 134.5q0 76 28.5 141.5t78 114t117 76t144.5 27.5q76 0 143 -24t117.5 -69t80 -108.5t29.5 -142.5q0 -76 -28 -141t-76.5 -113t-115.5 -75t-145 -27zM292 322q0 -28 9 -51.5t24.5 -41t37 -27t47.5 -9.5q28 0 52.5 11
t42 30t27.5 45t10 56q0 27 -9 50t-25 40t-37.5 27t-46.5 10q-27 0 -51 -11t-42 -30t-28.5 -44.5t-10.5 -54.5zM276 779q18 30 48 53t71 23h2q24 0 39 -6.5t27 -14.5t24.5 -15t30.5 -8q11 -1 31 10t32 38l46 -68q-25 -35 -54 -57t-70 -22h-3q-23 0 -38.5 6.5t-28.5 14
t-24.5 14t-27.5 7.5q-10 0 -26 -7t-31 -32z" />
    <glyph glyph-name="Odieresis" unicode="&#xd6;" horiz-adv-x="808" 
d="M421 -17q-79 0 -147 26t-118.5 72t-79 108.5t-28.5 134.5q0 76 28.5 141.5t78 114t117 76t144.5 27.5q76 0 143 -24t117.5 -69t80 -108.5t29.5 -142.5q0 -76 -28 -141t-76.5 -113t-115.5 -75t-145 -27zM292 322q0 -28 9 -51.5t24.5 -41t37 -27t47.5 -9.5q28 0 52.5 11
t42 30t27.5 45t10 56q0 27 -9 50t-25 40t-37.5 27t-46.5 10q-27 0 -51 -11t-42 -30t-28.5 -44.5t-10.5 -54.5zM455 833q0 21 7.5 39t21 31.5t32 21.5t39.5 8q42 0 71 -29t29 -71q0 -21 -8 -39.5t-21.5 -32t-31.5 -21t-39 -7.5t-39.5 7.5t-32 21t-21 32t-7.5 39.5zM208 833
q0 21 7.5 39t21 31.5t32 21.5t39.5 8t39 -8t31.5 -21.5t21.5 -31.5t8 -39t-8 -39.5t-21.5 -32t-31.5 -21t-39 -7.5t-39.5 7.5t-32 21t-21 32t-7.5 39.5z" />
    <glyph glyph-name="multiply" unicode="&#xd7;" 
d="M47 258l125 124l-125 125l92 92l125 -125l124 124l84 -85l-123 -124l126 -126l-92 -92l-126 126l-125 -124z" />
    <glyph glyph-name="Oslash" unicode="&#xd8;" horiz-adv-x="848" 
d="M3 34l120 107q-30 43 -42.5 87.5t-12.5 95.5q0 77 29 143t79 114t117 75t143 27q68 0 122 -16.5t101 -47.5l124 107l88 -95l-118 -104q26 -42 39.5 -87.5t13.5 -100.5q0 -77 -28.5 -142.5t-78 -113t-116 -74t-142.5 -26.5q-72 0 -126.5 17.5t-100.5 49.5l-119 -111z
M444 462q-28 0 -52 -11.5t-42 -31t-28 -45t-10 -52.5q0 -26 8.5 -49.5t23.5 -41t37 -28t49 -10.5q30 0 54.5 11.5t41.5 31t26.5 45t9.5 54.5q0 25 -8.5 48.5t-24 40.5t-37.5 27.5t-48 10.5z" />
    <glyph glyph-name="Ugrave" unicode="&#xd9;" horiz-adv-x="758" 
d="M70 230q0 26 3 53l48 384h245l-45 -369q-2 -18 -3.5 -30.5t-1.5 -18.5q0 -30 15.5 -46t44.5 -16q35 0 52.5 23.5t25.5 78.5l46 378h245l-45 -369q-6 -53 -13 -89t-17.5 -62.5t-25.5 -46t-37 -39.5q-45 -41 -99.5 -59.5t-126.5 -18.5q-147 0 -236 72q-40 32 -57.5 73.5
t-17.5 101.5zM281 815l80 92l154 -129l-59 -67z" />
    <glyph glyph-name="Uacute" unicode="&#xda;" horiz-adv-x="758" 
d="M70 230q0 26 3 53l48 384h245l-45 -369q-2 -18 -3.5 -30.5t-1.5 -18.5q0 -30 15.5 -46t44.5 -16q35 0 52.5 23.5t25.5 78.5l46 378h245l-45 -369q-6 -53 -13 -89t-17.5 -62.5t-25.5 -46t-37 -39.5q-45 -41 -99.5 -59.5t-126.5 -18.5q-147 0 -236 72q-40 32 -57.5 73.5
t-17.5 101.5zM534 907l80 -92l-195 -104l-59 67z" />
    <glyph glyph-name="Ucircumflex" unicode="&#xdb;" horiz-adv-x="758" 
d="M145 55q-40 32 -57.5 73.5t-17.5 101.5q0 26 3 53l48 384h245l-45 -369q-2 -18 -3.5 -30.5t-1.5 -18.5q0 -30 15.5 -46t44.5 -16q35 0 52.5 23.5t25.5 78.5l46 378h245l-45 -369q-6 -53 -13 -89t-17.5 -62.5t-25.5 -46t-37 -39.5q-45 -41 -99.5 -59.5t-126.5 -18.5
q-147 0 -236 72zM452 918l161 -115l-66 -87l-98 70l-129 -70l-55 101z" />
    <glyph glyph-name="Udieresis" unicode="&#xdc;" horiz-adv-x="758" 
d="M145 55q-40 32 -57.5 73.5t-17.5 101.5q0 26 3 53l48 384h245l-45 -369q-2 -18 -3.5 -30.5t-1.5 -18.5q0 -30 15.5 -46t44.5 -16q35 0 52.5 23.5t25.5 78.5l46 378h245l-45 -369q-6 -53 -13 -89t-17.5 -62.5t-25.5 -46t-37 -39.5q-45 -41 -99.5 -59.5t-126.5 -18.5
q-147 0 -236 72zM460 833q0 21 7.5 39t21 31.5t32 21.5t39.5 8q42 0 71 -29t29 -71q0 -21 -8 -39.5t-21.5 -32t-31.5 -21t-39 -7.5t-39.5 7.5t-32 21t-21 32t-7.5 39.5zM213 833q0 21 7.5 39t21 31.5t32 21.5t39.5 8t39 -8t31.5 -21.5t21.5 -31.5t8 -39t-8 -39.5t-21.5 -32
t-31.5 -21t-39 -7.5t-39.5 7.5t-32 21t-21 32t-7.5 39.5z" />
    <glyph glyph-name="Yacute" unicode="&#xdd;" horiz-adv-x="684" 
d="M312 667l34 -109q6 -19 8.5 -34.5t4.5 -41.5h9q5 17 10 31.5t14 31.5l62 122h291l-281 -384l-35 -283h-240l36 289l-178 378h265zM307 778l174 129l80 -92l-195 -104z" />
    <glyph glyph-name="Thorn" unicode="&#xde;" horiz-adv-x="655" 
d="M121 667h242l-11 -87h37q24 0 51.5 -2t55.5 -9t55.5 -21t51.5 -38q30 -30 46 -70.5t16 -85.5q0 -54 -20 -98.5t-50 -73.5q-25 -23 -52.5 -36.5t-55 -20t-53 -8t-46.5 -1.5h-92l-15 -116h-242zM337 282q39 0 65.5 15t26.5 58q0 17 -6 27t-16.5 15.5t-24 7t-27.5 1.5h-25
l-15 -124h22z" />
    <glyph glyph-name="germandbls" unicode="&#xdf;" horiz-adv-x="648" 
d="M79 480q5 40 11 69.5t14.5 52t20 39t27.5 31.5q74 68 207 68q58 0 105 -14t80 -39.5t50.5 -62.5t17.5 -83q0 -48 -24 -86t-75 -64q56 -21 82 -60t26 -99q0 -74 -29.5 -128.5t-83.5 -77.5q-17 -8 -34 -13t-36.5 -8t-43 -4.5t-53.5 -1.5q-10 0 -24 0.5t-32 0.5l15 122
q7 -1 13 -1h11q39 0 56 33.5t17 111.5q0 35 -14.5 49.5t-56.5 20.5l16 127q19 -3 29 -3q23 0 36.5 12t13.5 32q0 22 -14 35.5t-35 13.5q-16 0 -27 -5t-18.5 -17t-12 -32.5t-8.5 -51.5l-55 -447h-231z" />
    <glyph glyph-name="agrave" unicode="&#xe0;" horiz-adv-x="652" 
d="M220 -13q-39 0 -74.5 17.5t-62.5 47.5t-42.5 69.5t-15.5 83.5q0 55 19 105.5t51.5 89t74.5 61t89 22.5q56 0 88.5 -23t52.5 -77l8 3q-3 25 -4 38t-1 33v10h230l-58 -467h-229q3 12 5 20.5t4.5 17t6 19t9.5 26.5l-7 3q-30 -53 -63.5 -76t-80.5 -23zM274 712l154 -129
l-59 -67l-175 104zM259 223q0 -26 16 -42.5t41 -16.5q28 0 46.5 21t18.5 53q0 26 -15.5 43.5t-39.5 17.5q-27 0 -47 -22.5t-20 -53.5z" />
    <glyph glyph-name="aacute" unicode="&#xe1;" horiz-adv-x="652" 
d="M220 -13q-39 0 -74.5 17.5t-62.5 47.5t-42.5 69.5t-15.5 83.5q0 55 19 105.5t51.5 89t74.5 61t89 22.5q56 0 88.5 -23t52.5 -77l8 3q-3 25 -4 38t-1 33v10h230l-58 -467h-229q3 12 5 20.5t4.5 17t6 19t9.5 26.5l-7 3q-30 -53 -63.5 -76t-80.5 -23zM245 583l174 129
l80 -92l-195 -104zM326 299q-27 0 -47 -22.5t-20 -53.5q0 -26 16 -42.5t41 -16.5q28 0 46.5 21t18.5 53q0 26 -15.5 43.5t-39.5 17.5z" />
    <glyph glyph-name="acircumflex" unicode="&#xe2;" horiz-adv-x="652" 
d="M220 -13q-39 0 -74.5 17.5t-62.5 47.5t-42.5 69.5t-15.5 83.5q0 55 19 105.5t51.5 89t74.5 61t89 22.5q56 0 88.5 -23t52.5 -77l8 3q-3 25 -4 38t-1 33v10h230l-58 -467h-229q3 12 5 20.5t4.5 17t6 19t9.5 26.5l-7 3q-30 -53 -63.5 -76t-80.5 -23zM176 582l178 126
l164 -126l-72 -66l-102 66l-107 -66zM326 299q-27 0 -47 -22.5t-20 -53.5q0 -26 16 -42.5t41 -16.5q28 0 46.5 21t18.5 53q0 26 -15.5 43.5t-39.5 17.5z" />
    <glyph glyph-name="atilde" unicode="&#xe3;" horiz-adv-x="652" 
d="M220 -13q-39 0 -74.5 17.5t-62.5 47.5t-42.5 69.5t-15.5 83.5q0 55 19 105.5t51.5 89t74.5 61t89 22.5q56 0 88.5 -23t52.5 -77l8 3q-3 25 -4 38t-1 33v10h230l-58 -467h-229q3 12 5 20.5t4.5 17t6 19t9.5 26.5l-7 3q-30 -53 -63.5 -76t-80.5 -23zM177 595q18 30 48 53
t71 23h2q24 0 39 -6.5t27 -14.5t24.5 -15t30.5 -8q11 -1 31 10t32 38l46 -68q-25 -35 -54 -57t-70 -22h-3q-23 0 -38.5 6.5t-28.5 14t-24.5 14t-27.5 7.5q-10 0 -26 -7t-31 -32zM259 223q0 -26 16 -42.5t41 -16.5q28 0 46.5 21t18.5 53q0 26 -15.5 43.5t-39.5 17.5
q-27 0 -47 -22.5t-20 -53.5z" />
    <glyph glyph-name="adieresis" unicode="&#xe4;" horiz-adv-x="652" 
d="M220 -13q-39 0 -74.5 17.5t-62.5 47.5t-42.5 69.5t-15.5 83.5q0 55 19 105.5t51.5 89t74.5 61t89 22.5q56 0 88.5 -23t52.5 -77l8 3q-3 25 -4 38t-1 33v10h230l-58 -467h-229q3 12 5 20.5t4.5 17t6 19t9.5 26.5l-7 3q-30 -53 -63.5 -76t-80.5 -23zM247 540q-21 0 -39.5 8
t-32.5 22t-22 32.5t-8 39.5t8 40t22 33t32.5 22t39.5 8t40 -8t33 -22t22 -33t8 -40t-8 -39.5t-22 -32.5t-33 -22t-40 -8zM392 642q0 21 8 40t22 33t32.5 22t39.5 8t40 -8t33 -22t22 -33t8 -40t-8 -39.5t-22 -32.5t-33 -22t-40 -8t-39.5 8t-32.5 22t-22 32.5t-8 39.5z
M259 223q0 -26 16 -42.5t41 -16.5q28 0 46.5 21t18.5 53q0 26 -15.5 43.5t-39.5 17.5q-27 0 -47 -22.5t-20 -53.5z" />
    <glyph glyph-name="aring" unicode="&#xe5;" horiz-adv-x="652" 
d="M25 205q0 55 19 105.5t51.5 89t74.5 61t89 22.5q56 0 88.5 -23t52.5 -77l8 3q-3 25 -4 38t-1 33v10h230l-58 -467h-229q3 12 5 20.5t4.5 17t6 19t9.5 26.5l-7 3q-30 -53 -63.5 -76t-80.5 -23q-39 0 -74.5 17.5t-62.5 47.5t-42.5 69.5t-15.5 83.5zM222 645q0 30 13 50.5
t33.5 33.5t46 18.5t51.5 5.5q23 0 52 -5t52 -23q18 -14 29 -35.5t11 -44.5q0 -30 -13 -51t-33.5 -34t-46 -18.5t-51.5 -5.5t-51.5 5.5t-46 18.5t-33.5 34t-13 51zM326 299q-27 0 -47 -22.5t-20 -53.5q0 -26 16 -42.5t41 -16.5q28 0 46.5 21t18.5 53q0 26 -15.5 43.5
t-39.5 17.5zM316 643q0 -10 5 -16.5t12.5 -10t16 -5t16.5 -1.5q18 0 34 6.5t16 28.5q0 21 -16.5 27.5t-33.5 6.5q-18 0 -34 -7.5t-16 -28.5z" />
    <glyph glyph-name="ae" unicode="&#xe6;" horiz-adv-x="945" 
d="M19 154q0 41 17 70.5t45 48t63.5 27.5t71.5 9q42 0 80.5 -12t67.5 -43q3 15 3 31q0 26 -12 42.5t-30.5 26t-41 13t-43.5 3.5q-50 0 -95.5 -13.5t-82.5 -32.5l17 133q8 3 24.5 9t39.5 12t52.5 10.5t63.5 4.5q40 0 70.5 -5.5t53 -14.5t39 -21.5t28.5 -25.5q10 9 25.5 21
t38.5 22t55 17t75 7q74 0 123.5 -23.5t79.5 -54.5q33 -35 51.5 -79t18.5 -92q0 -22 -4 -41h-331q-1 -4 -1 -8v-8q0 -28 14.5 -45t37.5 -17q21 0 32 9.5t18 28.5h222q-14 -44 -40.5 -77t-62 -55t-77.5 -33t-87 -11q-57 0 -110.5 15.5t-97.5 57.5q-42 -44 -88 -58.5
t-105 -14.5q-40 0 -79 8.5t-70 28.5t-50 51.5t-19 78.5zM217 150q0 -16 7.5 -26t19 -16t25 -8.5t26.5 -2.5q12 0 26 3t25.5 9t19 16.5t7.5 25.5q0 16 -7.5 26t-19.5 16t-26 8t-27 2t-26.5 -2t-24.5 -8t-18 -16.5t-7 -26.5zM700 299q0 23 -12 42.5t-38 19.5
q-25 0 -40.5 -17.5t-17.5 -44.5h108z" />
    <glyph glyph-name="ccedilla" unicode="&#xe7;" horiz-adv-x="437" 
d="M27 220q0 61 19.5 111.5t55.5 86.5t86.5 55.5t111.5 19.5q17 0 32 -1t30.5 -4t34 -8t42.5 -13l-29 -196q-19 22 -38 32t-44 10q-33 0 -53 -22t-20 -58q0 -32 18 -50.5t50 -18.5q41 0 78 33l-34 -192q-19 -6 -32.5 -9.5t-25.5 -5.5t-23 -2.5t-24 -0.5q-52 0 -95 17t-74 48
t-48.5 74t-17.5 94zM252 -45l106 -76l-140 -129l-100 70z" />
    <glyph glyph-name="egrave" unicode="&#xe8;" horiz-adv-x="618" 
d="M308 -13q-62 0 -113.5 17.5t-88.5 49.5t-57.5 76.5t-20.5 98.5q0 57 22 105.5t60.5 84t91 55.5t114.5 20q58 0 108 -19t87 -52t58.5 -77.5t21.5 -95.5q0 -8 -1 -20t-3 -28h-331q-1 -5 -1 -9v-8q0 -29 14 -46t37 -17q34 0 50 40h222q-7 -20 -13 -34.5t-13.5 -26t-16.5 -22
t-22 -21.5q-82 -71 -205 -71zM174 620l80 92l154 -129l-59 -67zM373 298q-1 62 -51 62q-47 0 -57 -62h108z" />
    <glyph glyph-name="eacute" unicode="&#xe9;" horiz-adv-x="618" 
d="M28 229q0 57 22 105.5t60.5 84t91 55.5t114.5 20q58 0 108 -19t87 -52t58.5 -77.5t21.5 -95.5q0 -8 -1 -20t-3 -28h-331q-1 -5 -1 -9v-8q0 -29 14 -46t37 -17q34 0 50 40h222q-7 -20 -13 -34.5t-13.5 -26t-16.5 -22t-22 -21.5q-82 -71 -205 -71q-62 0 -113.5 17.5
t-88.5 49.5t-57.5 76.5t-20.5 98.5zM419 712l80 -92l-195 -104l-59 67zM322 360q-47 0 -57 -62h108q-1 62 -51 62z" />
    <glyph glyph-name="ecircumflex" unicode="&#xea;" horiz-adv-x="618" 
d="M28 229q0 57 22 105.5t60.5 84t91 55.5t114.5 20q58 0 108 -19t87 -52t58.5 -77.5t21.5 -95.5q0 -8 -1 -20t-3 -28h-331q-1 -5 -1 -9v-8q0 -29 14 -46t37 -17q34 0 50 40h222q-7 -20 -13 -34.5t-13.5 -26t-16.5 -22t-22 -21.5q-82 -71 -205 -71q-62 0 -113.5 17.5
t-88.5 49.5t-57.5 76.5t-20.5 98.5zM164 582l178 126l164 -126l-72 -66l-102 66l-107 -66zM322 360q-47 0 -57 -62h108q-1 62 -51 62z" />
    <glyph glyph-name="edieresis" unicode="&#xeb;" horiz-adv-x="618" 
d="M308 -13q-62 0 -113.5 17.5t-88.5 49.5t-57.5 76.5t-20.5 98.5q0 57 22 105.5t60.5 84t91 55.5t114.5 20q58 0 108 -19t87 -52t58.5 -77.5t21.5 -95.5q0 -8 -1 -20t-3 -28h-331q-1 -5 -1 -9v-8q0 -29 14 -46t37 -17q34 0 50 40h222q-7 -20 -13 -34.5t-13.5 -26t-16.5 -22
t-22 -21.5q-82 -71 -205 -71zM197 540q-21 0 -39.5 8t-32.5 22t-22 32.5t-8 39.5t8 40t22 33t32.5 22t39.5 8t40 -8t33 -22t22 -33t8 -40t-8 -39.5t-22 -32.5t-33 -22t-40 -8zM342 642q0 21 8 40t22 33t32.5 22t39.5 8t40 -8t33 -22t22 -33t8 -40t-8 -39.5t-22 -32.5
t-33 -22t-40 -8t-39.5 8t-32.5 22t-22 32.5t-8 39.5zM322 360q-47 0 -57 -62h108q-1 62 -51 62z" />
    <glyph glyph-name="igrave" unicode="&#xec;" horiz-adv-x="332" 
d="M312 467l-57 -467h-231l57 467h231zM70 620l80 92l154 -129l-59 -67z" />
    <glyph glyph-name="iacute" unicode="&#xed;" horiz-adv-x="332" 
d="M312 467l-57 -467h-231l57 467h231zM159 516l-59 67l174 129l80 -92z" />
    <glyph glyph-name="icircumflex" unicode="&#xee;" horiz-adv-x="332" 
d="M312 467l-57 -467h-231l57 467h231zM31 634l187 101l161 -115l-66 -87l-98 70l-129 -70z" />
    <glyph glyph-name="idieresis" unicode="&#xef;" horiz-adv-x="332" 
d="M24 0l57 467h231l-57 -467h-231zM340 540q-21 0 -39.5 8t-32.5 22t-22 32.5t-8 39.5t8 40t22 33t32.5 22t39.5 8t40 -8t33 -22t22 -33t8 -40t-8 -39.5t-22 -32.5t-33 -22t-40 -8zM93 540q-21 0 -39.5 8t-32.5 22t-22 32.5t-8 39.5t8 40t22 33t32.5 22t39.5 8t40 -8
t33 -22t22 -33t8 -40t-8 -39.5t-22 -32.5t-33 -22t-40 -8z" />
    <glyph glyph-name="eth" unicode="&#xf0;" horiz-adv-x="647" 
d="M29 220q0 57 23.5 100.5t61.5 73t87.5 45t101.5 15.5q42 0 79.5 -10t75.5 -36q-13 87 -85 134l-199 -78l-30 96l137 52q-53 21 -118 21l29 111q96 -8 155 -29t89 -38l131 56l33 -94l-86 -36q60 -48 83.5 -118.5t23.5 -144.5q0 -36 -4 -72.5t-14.5 -72t-27.5 -68
t-42 -59.5t-52 -43t-54 -24.5t-54.5 -11t-53.5 -2.5q-45 0 -98.5 10t-101.5 45q-50 36 -70 83.5t-20 94.5zM320 295q-29 0 -47 -22t-18 -50q0 -26 17 -43t43 -17q28 0 46 19t18 47q0 26 -15.5 46t-43.5 20z" />
    <glyph glyph-name="ntilde" unicode="&#xf1;" horiz-adv-x="633" 
d="M20 0l57 467h232l-5 -25t-4.5 -19t-5.5 -18t-8 -21l8 -2q35 56 68.5 79t78.5 23q33 0 61 -11.5t48.5 -32t32 -48t11.5 -60.5q0 -15 -1.5 -32.5t-3.5 -38.5l-32 -261h-232l28 226q2 10 2.5 18t0.5 13q0 35 -30 35q-23 0 -33 -15t-15 -59l-27 -218h-231zM187 580
q19 25 34.5 41.5t29 26.5t26.5 14.5t27 4.5q22 0 52 -13l23 -10q13 -5 20 -5q17 0 34 25l6 9l74 -38q-26 -48 -51.5 -69.5t-57.5 -21.5q-14 0 -24.5 3t-32.5 14t-37 11q-14 0 -24.5 -7.5t-21.5 -24.5z" />
    <glyph glyph-name="ograve" unicode="&#xf2;" horiz-adv-x="637" 
d="M321 -13q-63 0 -116.5 18.5t-92.5 52t-61 79t-22 99.5q0 55 22 102.5t61 81.5t92 53.5t116 19.5q66 0 119.5 -18t91.5 -50.5t59 -78.5t21 -102q0 -55 -22 -102t-61 -81.5t-92 -54t-115 -19.5zM180 620l80 92l154 -129l-59 -67zM258 235q0 -29 17 -47.5t43 -18.5
q28 0 46 21.5t18 53.5q0 29 -16.5 47.5t-41.5 18.5q-27 0 -46.5 -22t-19.5 -53z" />
    <glyph glyph-name="oacute" unicode="&#xf3;" horiz-adv-x="637" 
d="M321 -13q-63 0 -116.5 18.5t-92.5 52t-61 79t-22 99.5q0 55 22 102.5t61 81.5t92 53.5t116 19.5q66 0 119.5 -18t91.5 -50.5t59 -78.5t21 -102q0 -55 -22 -102t-61 -81.5t-92 -54t-115 -19.5zM255 583l174 129l80 -92l-195 -104zM258 235q0 -29 17 -47.5t43 -18.5
q28 0 46 21.5t18 53.5q0 29 -16.5 47.5t-41.5 18.5q-27 0 -46.5 -22t-19.5 -53z" />
    <glyph glyph-name="ocircumflex" unicode="&#xf4;" horiz-adv-x="637" 
d="M321 -13q-63 0 -116.5 18.5t-92.5 52t-61 79t-22 99.5q0 55 22 102.5t61 81.5t92 53.5t116 19.5q66 0 119.5 -18t91.5 -50.5t59 -78.5t21 -102q0 -55 -22 -102t-61 -81.5t-92 -54t-115 -19.5zM351 708l164 -126l-72 -66l-102 66l-107 -66l-61 66zM258 235q0 -29 17 -47.5
t43 -18.5q28 0 46 21.5t18 53.5q0 29 -16.5 47.5t-41.5 18.5q-27 0 -46.5 -22t-19.5 -53z" />
    <glyph glyph-name="otilde" unicode="&#xf5;" horiz-adv-x="637" 
d="M321 -13q-63 0 -116.5 18.5t-92.5 52t-61 79t-22 99.5q0 55 22 102.5t61 81.5t92 53.5t116 19.5q66 0 119.5 -18t91.5 -50.5t59 -78.5t21 -102q0 -55 -22 -102t-61 -81.5t-92 -54t-115 -19.5zM166 595q18 30 48 53t71 23h2q24 0 39 -6.5t27 -14.5t24.5 -15t30.5 -8
q11 -1 31 10t32 38l46 -68q-25 -35 -54 -57t-70 -22h-3q-23 0 -38.5 6.5t-28.5 14t-24.5 14t-27.5 7.5q-10 0 -26 -7t-31 -32zM258 235q0 -29 17 -47.5t43 -18.5q28 0 46 21.5t18 53.5q0 29 -16.5 47.5t-41.5 18.5q-27 0 -46.5 -22t-19.5 -53z" />
    <glyph glyph-name="odieresis" unicode="&#xf6;" horiz-adv-x="637" 
d="M29 236q0 55 22 102.5t61 81.5t92 53.5t116 19.5q66 0 119.5 -18t91.5 -50.5t59 -78.5t21 -102q0 -55 -22 -102t-61 -81.5t-92 -54t-115 -19.5q-63 0 -116.5 18.5t-92.5 52t-61 79t-22 99.5zM212 540q-21 0 -39.5 8t-32.5 22t-22 32.5t-8 39.5t8 40t22 33t32.5 22t39.5 8
t40 -8t33 -22t22 -33t8 -40t-8 -39.5t-22 -32.5t-33 -22t-40 -8zM357 642q0 21 8 40t22 33t32.5 22t39.5 8t40 -8t33 -22t22 -33t8 -40t-8 -39.5t-22 -32.5t-33 -22t-40 -8t-39.5 8t-32.5 22t-22 32.5t-8 39.5zM324 310q-27 0 -46.5 -22t-19.5 -53q0 -29 17 -47.5t43 -18.5
q28 0 46 21.5t18 53.5q0 29 -16.5 47.5t-41.5 18.5z" />
    <glyph glyph-name="divide" unicode="&#xf7;" 
d="M47 280v120h433v-120h-433zM263 436q-30 0 -52 21.5t-22 52.5t21.5 52.5t52.5 21.5q32 0 53.5 -21.5t21.5 -52.5t-22 -53t-53 -21zM263 96q-30 0 -52 21.5t-22 52.5t21.5 52.5t52.5 21.5q32 0 53.5 -21.5t21.5 -52.5t-22 -53t-53 -21z" />
    <glyph glyph-name="oslash" unicode="&#xf8;" horiz-adv-x="643" 
d="M-2 21l82 74q-20 26 -34 59t-14 81q0 62 24.5 110t66 81t95 50t111.5 17q48 0 85.5 -9.5t70.5 -26.5l92 82l72 -80l-80 -71q25 -33 35 -67.5t10 -76.5q0 -61 -24.5 -109t-65.5 -81t-94 -50t-110 -17q-42 0 -79.5 8t-77.5 29l-93 -82zM328 310q-30 0 -48.5 -22.5
t-18.5 -51.5q0 -26 16 -46.5t44 -20.5q31 0 47.5 23t16.5 52q0 26 -15 46t-42 20z" />
    <glyph glyph-name="ugrave" unicode="&#xf9;" horiz-adv-x="633" 
d="M315 -13q-129 0 -199 51.5t-70 147.5q0 24 3 54l28 227h232l-28 -227q-2 -17 -3 -27.5t-1 -13.5q0 -15 9.5 -25t24.5 -10q21 0 29.5 13.5t13.5 53.5l29 236h232l-32 -257q-4 -33 -10 -57.5t-15 -44t-21.5 -34.5t-30.5 -30q-37 -30 -84 -43.5t-107 -13.5zM191 620l80 92
l154 -129l-59 -67z" />
    <glyph glyph-name="uacute" unicode="&#xfa;" horiz-adv-x="633" 
d="M46 186q0 24 3 54l28 227h232l-28 -227q-2 -17 -3 -27.5t-1 -13.5q0 -15 9.5 -25t24.5 -10q21 0 29.5 13.5t13.5 53.5l29 236h232l-32 -257q-4 -33 -10 -57.5t-15 -44t-21.5 -34.5t-30.5 -30q-37 -30 -84 -43.5t-107 -13.5q-129 0 -199 51.5t-70 147.5zM275 583l174 129
l80 -92l-195 -104z" />
    <glyph glyph-name="ucircumflex" unicode="&#xfb;" horiz-adv-x="633" 
d="M46 186q0 24 3 54l28 227h232l-28 -227q-2 -17 -3 -27.5t-1 -13.5q0 -15 9.5 -25t24.5 -10q21 0 29.5 13.5t13.5 53.5l29 236h232l-32 -257q-4 -33 -10 -57.5t-15 -44t-21.5 -34.5t-30.5 -30q-37 -30 -84 -43.5t-107 -13.5q-129 0 -199 51.5t-70 147.5zM372 735l161 -115
l-66 -87l-98 70l-129 -70l-55 101z" />
    <glyph glyph-name="udieresis" unicode="&#xfc;" horiz-adv-x="633" 
d="M315 -13q-129 0 -199 51.5t-70 147.5q0 24 3 54l28 227h232l-28 -227q-2 -17 -3 -27.5t-1 -13.5q0 -15 9.5 -25t24.5 -10q21 0 29.5 13.5t13.5 53.5l29 236h232l-32 -257q-4 -33 -10 -57.5t-15 -44t-21.5 -34.5t-30.5 -30q-37 -30 -84 -43.5t-107 -13.5zM479 540
q-21 0 -39.5 8t-32.5 22t-22 32.5t-8 39.5t8 40t22 33t32.5 22t39.5 8t40 -8t33 -22t22 -33t8 -40t-8 -39.5t-22 -32.5t-33 -22t-40 -8zM232 540q-21 0 -39.5 8t-32.5 22t-22 32.5t-8 39.5t8 40t22 33t32.5 22t39.5 8t40 -8t33 -22t22 -33t8 -40t-8 -39.5t-22 -32.5t-33 -22
t-40 -8z" />
    <glyph glyph-name="yacute" unicode="&#xfd;" horiz-adv-x="591" 
d="M107 -60q11 19 18.5 32t14.5 23t14 19.5t18 21.5l-141 431h238l20 -130q5 -28 6 -43t1 -32v-20.5t-2 -27.5l10 -1q4 22 8 39t7.5 32t8 29t10.5 31l43 123h249l-363 -696h-248zM422 712l80 -92l-195 -104l-59 67z" />
    <glyph glyph-name="thorn" unicode="&#xfe;" horiz-adv-x="645" 
d="M-4 -229l119 958h232l-30 -236q-3 -21 -5.5 -34.5t-5 -23t-5 -18.5t-6.5 -21l9 -4q28 50 57 71t74 21q39 0 72.5 -18.5t58.5 -50t39.5 -74t14.5 -90.5q0 -53 -17.5 -101t-46.5 -84t-68 -57.5t-82 -21.5q-55 0 -92.5 24.5t-53.5 71.5l-8 -3q2 -20 2.5 -32t0.5 -25
q0 -18 -1 -37t-4 -40l-22 -175h-232zM276 225q0 -28 15 -45t40 -17q27 0 44 21t17 54q0 28 -15.5 46t-38.5 18q-26 0 -44 -22.5t-18 -54.5z" />
    <glyph glyph-name="ydieresis" unicode="&#xff;" horiz-adv-x="591" 
d="M107 -60q11 19 18.5 32t14.5 23t14 19.5t18 21.5l-141 431h238l20 -130q5 -28 6 -43t1 -32v-20.5t-2 -27.5l10 -1q4 22 8 39t7.5 32t8 29t10.5 31l43 123h249l-363 -696h-248zM347 642q0 21 8 40t22 33t32.5 22t39.5 8t40 -8t33 -22t22 -33t8 -40t-8 -39.5t-22 -32.5
t-33 -22t-40 -8t-39.5 8t-32.5 22t-22 32.5t-8 39.5zM202 540q-21 0 -39.5 8t-32.5 22t-22 32.5t-8 39.5t8 40t22 33t32.5 22t39.5 8t40 -8t33 -22t22 -33t8 -40t-8 -39.5t-22 -32.5t-33 -22t-40 -8z" />
    <glyph glyph-name="Amacron" unicode="&#x100;" horiz-adv-x="708" 
d="M280 667h276l124 -667h-247l-5 89h-164l-32 -89h-260zM236 746l12 104h364l-12 -104h-364zM320 241h92l-10 121q-1 8 -1.5 20.5t-0.5 26.5v15.5t0.5 12t1 11.5t1.5 14h-8q-7 -29 -13 -50t-17 -50z" />
    <glyph glyph-name="amacron" unicode="&#x101;" horiz-adv-x="652" 
d="M25 205q0 55 19 105.5t51.5 89t74.5 61t89 22.5q56 0 88.5 -23t52.5 -77l8 3q-3 25 -4 38t-1 33v10h230l-58 -467h-229q3 12 5 20.5t4.5 17t6 19t9.5 26.5l-7 3q-30 -53 -63.5 -76t-80.5 -23q-39 0 -74.5 17.5t-62.5 47.5t-42.5 69.5t-15.5 83.5zM223 546l12 100h340
l-12 -100h-340zM259 223q0 -26 16 -42.5t41 -16.5q28 0 46.5 21t18.5 53q0 26 -15.5 43.5t-39.5 17.5q-27 0 -47 -22.5t-20 -53.5z" />
    <glyph glyph-name="Abreve" unicode="&#x102;" horiz-adv-x="708" 
d="M280 667h276l124 -667h-247l-5 89h-164l-32 -89h-260zM381 855q2 -28 17 -39t37 -11q24 0 42 11t26 39h112q-10 -40 -29 -67.5t-44 -44.5t-55 -24.5t-63 -7.5q-32 0 -60 7.5t-49 24.5t-33.5 44.5t-12.5 67.5h112zM320 241h92l-10 121q-1 8 -1.5 20.5t-0.5 26.5v15.5
t0.5 12t1 11.5t1.5 14h-8q-7 -29 -13 -50t-17 -50z" />
    <glyph glyph-name="abreve" unicode="&#x103;" horiz-adv-x="652" 
d="M220 -13q-39 0 -74.5 17.5t-62.5 47.5t-42.5 69.5t-15.5 83.5q0 55 19 105.5t51.5 89t74.5 61t89 22.5q56 0 88.5 -23t52.5 -77l8 3q-3 25 -4 38t-1 33v10h230l-58 -467h-229q3 12 5 20.5t4.5 17t6 19t9.5 26.5l-7 3q-30 -53 -63.5 -76t-80.5 -23zM310 660q2 -28 17 -39
t37 -11q24 0 42 11t26 39h112q-10 -40 -29 -67.5t-44 -44.5t-55 -24.5t-63 -7.5q-32 0 -60 7.5t-49 24.5t-33.5 44.5t-12.5 67.5h112zM259 223q0 -26 16 -42.5t41 -16.5q28 0 46.5 21t18.5 53q0 26 -15.5 43.5t-39.5 17.5q-27 0 -47 -22.5t-20 -53.5z" />
    <glyph glyph-name="Aogonek" unicode="&#x104;" horiz-adv-x="708" 
d="M280 667h276l124 -667h-157q-9 -6 -19.5 -14.5t-19.5 -18.5t-15 -21t-6 -23q0 -17 11.5 -24.5t26.5 -7.5q11 0 27.5 4t35.5 21l-33 -95q-25 -14 -49.5 -18.5t-45.5 -4.5q-40 0 -68.5 18.5t-28.5 62.5q0 21 8.5 38.5t22 32.5t30 27.5t33.5 22.5l-5 89h-164l-32 -89h-260z
M320 241h92l-10 121q-1 11 -1.5 24.5t-0.5 27.5q0 11 0.5 21.5t1.5 18.5l1 8h-8q-5 -33 -12.5 -54t-17.5 -46z" />
    <glyph glyph-name="aogonek" unicode="&#x105;" horiz-adv-x="652" 
d="M223 -13q-44 0 -80.5 19t-62.5 50t-40.5 70.5t-14.5 81.5q0 51 17.5 100t49 88t76.5 63t99 24q50 0 84.5 -26.5t48.5 -73.5l8 3q-3 22 -4 38.5t-1 32.5v10h230l-58 -467h-60q-8 -6 -18.5 -14.5t-17.5 -16.5q-6 -7 -12 -16.5t-6 -23.5q0 -16 11 -22t25 -6q11 0 24.5 4
t30.5 19l-29 -87q-24 -14 -48.5 -17.5t-38.5 -3.5q-35 0 -61.5 17t-26.5 55q0 21 7.5 37t19.5 29.5t27 24.5t31 21h-87q2 12 6.5 29t15.5 46l3 8l-7 3q-21 -44 -55.5 -71.5t-85.5 -27.5zM259 223q0 -25 16 -42t41 -17q30 0 47.5 23t17.5 51q0 24 -14.5 42.5t-40.5 18.5
q-15 0 -27 -7t-21 -17.5t-14 -24.5t-5 -27z" />
    <glyph glyph-name="Cacute" unicode="&#x106;" horiz-adv-x="582" 
d="M47 314q0 79 28 147t77 117t116.5 77t146.5 28q87 0 173 -31l-20 -237q-34 27 -66 39.5t-67 12.5q-30 0 -56.5 -12t-47 -32t-32 -47t-11.5 -57q0 -26 10 -47.5t27 -38t41 -25.5t51 -9q38 0 69 14t62 43l-29 -243q-49 -17 -82.5 -23.5t-69.5 -6.5q-69 0 -128 25t-101.5 69
t-66.5 104.5t-24 132.5zM453 916l117 -73l-157 -119l-87 55z" />
    <glyph glyph-name="cacute" unicode="&#x107;" horiz-adv-x="437" 
d="M27 220q0 61 19.5 111.5t55.5 86.5t86.5 55.5t111.5 19.5q17 0 32 -1t30.5 -4t34 -8t42.5 -13l-29 -196q-19 22 -38 32t-44 10q-33 0 -53 -22t-20 -58q0 -32 18 -50.5t50 -18.5q41 0 78 33l-34 -192q-19 -6 -32.5 -9.5t-25.5 -5.5t-23 -2.5t-24 -0.5q-52 0 -95 17t-74 48
t-48.5 74t-17.5 94zM347 742l117 -73l-146 -128l-87 55z" />
    <glyph glyph-name="Ccircumflex" unicode="&#x108;" horiz-adv-x="582" 
d="M367 -17q-69 0 -128 25t-101.5 69t-66.5 104.5t-24 132.5q0 79 28 147t77 117t116.5 77t146.5 28q87 0 173 -31l-20 -237q-34 27 -66 39.5t-67 12.5q-30 0 -56.5 -12t-47 -32t-32 -47t-11.5 -57q0 -26 10 -47.5t27 -38t41 -25.5t51 -9q38 0 69 14t62 43l-29 -243
q-49 -17 -82.5 -23.5t-69.5 -6.5zM265 817l187 101l161 -115l-66 -87l-98 70l-129 -70z" />
    <glyph glyph-name="ccircumflex" unicode="&#x109;" horiz-adv-x="437" 
d="M262 -13q-52 0 -95 17t-74 48t-48.5 74t-17.5 94q0 61 19.5 111.5t55.5 86.5t86.5 55.5t111.5 19.5q17 0 32 -1t30.5 -4t34 -8t42.5 -13l-29 -196q-19 22 -38 32t-44 10q-33 0 -53 -22t-20 -58q0 -32 18 -50.5t50 -18.5q41 0 78 33l-34 -192q-19 -6 -32.5 -9.5
t-25.5 -5.5t-23 -2.5t-24 -0.5zM145 634l187 101l161 -115l-66 -87l-98 70l-129 -70z" />
    <glyph glyph-name="Cdotaccent" unicode="&#x10a;" horiz-adv-x="582" 
d="M47 314q0 79 28 147t77 117t116.5 77t146.5 28q87 0 173 -31l-20 -237q-34 27 -66 39.5t-67 12.5q-30 0 -56.5 -12t-47 -32t-32 -47t-11.5 -57q0 -26 10 -47.5t27 -38t41 -25.5t51 -9q38 0 69 14t62 43l-29 -243q-49 -17 -82.5 -23.5t-69.5 -6.5q-69 0 -128 25t-101.5 69
t-66.5 104.5t-24 132.5zM335 825q0 21 8 40t22 33t33 22t40 8t39.5 -8t32.5 -22t22 -33t8 -40t-8 -39.5t-22 -32.5t-32.5 -22t-39.5 -8t-40 8t-33 22t-22 32.5t-8 39.5z" />
    <glyph glyph-name="cdotaccent" unicode="&#x10b;" horiz-adv-x="437" 
d="M27 220q0 61 19.5 111.5t55.5 86.5t86.5 55.5t111.5 19.5q17 0 32 -1t30.5 -4t34 -8t42.5 -13l-29 -196q-19 22 -38 32t-44 10q-33 0 -53 -22t-20 -58q0 -32 18 -50.5t50 -18.5q41 0 78 33l-34 -192q-19 -6 -32.5 -9.5t-25.5 -5.5t-23 -2.5t-24 -0.5q-52 0 -95 17t-74 48
t-48.5 74t-17.5 94zM218 642q0 21 8 40t22 33t33 22t40 8t39.5 -8t32.5 -22t22 -33t8 -40t-8 -39.5t-22 -32.5t-32.5 -22t-39.5 -8t-40 8t-33 22t-22 32.5t-8 39.5z" />
    <glyph glyph-name="Ccaron" unicode="&#x10c;" horiz-adv-x="582" 
d="M367 -17q-69 0 -128 25t-101.5 69t-66.5 104.5t-24 132.5q0 79 28 147t77 117t116.5 77t146.5 28q87 0 173 -31l-20 -237q-34 27 -66 39.5t-67 12.5q-30 0 -56.5 -12t-47 -32t-32 -47t-11.5 -57q0 -26 10 -47.5t27 -38t41 -25.5t51 -9q38 0 69 14t62 43l-29 -243
q-49 -17 -82.5 -23.5t-69.5 -6.5zM322 918l97 -70l129 70l55 -101l-187 -101l-161 115z" />
    <glyph glyph-name="ccaron" unicode="&#x10d;" horiz-adv-x="437" 
d="M262 -13q-52 0 -95 17t-74 48t-48.5 74t-17.5 94q0 61 19.5 111.5t55.5 86.5t86.5 55.5t111.5 19.5q17 0 32 -1t30.5 -4t34 -8t42.5 -13l-29 -196q-19 22 -38 32t-44 10q-33 0 -53 -22t-20 -58q0 -32 18 -50.5t50 -18.5q41 0 78 33l-34 -192q-19 -6 -32.5 -9.5
t-25.5 -5.5t-23 -2.5t-24 -0.5zM212 735l97 -70l129 70l55 -101l-187 -101l-161 115z" />
    <glyph glyph-name="Dcaron" unicode="&#x10e;" horiz-adv-x="744" 
d="M39 0l82 667h226q88 0 157.5 -22t118 -63.5t74 -101.5t25.5 -136q0 -80 -31.5 -148t-90.5 -115q-28 -22 -57.5 -37.5t-64.5 -25t-77.5 -14t-94.5 -4.5h-267zM339 198q30 0 56 12t45.5 32.5t31 48t11.5 59.5q0 53 -32.5 87t-82.5 34h-30l-33 -273h34zM205 831l67 87
l97 -70l129 70l55 -101l-187 -101z" />
    <glyph glyph-name="dcaron" unicode="&#x10f;" horiz-adv-x="876" 
d="M211 -13q-40 0 -74 16.5t-58.5 46t-38.5 69.5t-14 88q0 57 17.5 107t47.5 87.5t70.5 59.5t86.5 22q105 0 140 -102l9 2q-2 14 -3 20.5t-1 14.5q0 22 2 50t5 51l26 210h231l-90 -729h-231q3 12 5.5 21t4.5 17t5 17.5t8 22.5l-8 4q-42 -95 -140 -95zM668 449l85 218h193
l-126 -218h-152zM318 304q-26 0 -44.5 -21t-18.5 -52q0 -26 16.5 -44t39.5 -18q26 0 43 19.5t19 50.5v5q0 27 -15 43.5t-40 16.5z" />
    <glyph glyph-name="Dcroat" unicode="&#x110;" horiz-adv-x="770" 
d="M31 269l18 130h65l33 268h226q88 0 157.5 -22t118 -63.5t74 -101.5t25.5 -136q0 -80 -31.5 -148t-90.5 -115q-28 -22 -57.5 -37.5t-64.5 -25t-77.5 -14t-94.5 -4.5h-267l33 269h-67zM365 198q30 0 56 12t45.5 32.5t31 48t11.5 59.5q0 53 -32.5 87t-82.5 34h-30l-9 -72h83
l-18 -130h-81l-8 -71h34z" />
    <glyph glyph-name="dcroat" unicode="&#x111;" horiz-adv-x="660" 
d="M26 207q0 57 17.5 107t47.5 87.5t70.5 59.5t86.5 22q105 0 140 -102l9 2q-2 14 -3 20.5t-1 14.5q0 7 0.5 16.5t1.5 25t3 38t6 56.5h-129l13 101h128q2 17 4.5 35t5.5 39h231l-9 -74h64l-13 -101h-64l-68 -554h-231q3 12 5.5 21t4.5 17t5 17.5t8 22.5l-8 4
q-42 -95 -140 -95q-40 0 -74 16.5t-58.5 46t-38.5 69.5t-14 88zM318 304q-26 0 -44.5 -21t-18.5 -52q0 -26 16.5 -44t39.5 -18q26 0 43 19.5t19 50.5v5q0 27 -15 43.5t-40 16.5z" />
    <glyph glyph-name="Emacron" unicode="&#x112;" horiz-adv-x="549" 
d="M559 667l-21 -174h-197l-9 -73h180l-20 -165h-180l-9 -76h204l-22 -179h-446l82 667h438zM156 746l12 104h364l-12 -104h-364z" />
    <glyph glyph-name="emacron" unicode="&#x113;" horiz-adv-x="618" 
d="M308 -13q-62 0 -113.5 17.5t-88.5 49.5t-57.5 76.5t-20.5 98.5q0 57 22 105.5t60.5 84t91 55.5t114.5 20q58 0 108 -19t87 -52t58.5 -77.5t21.5 -95.5q0 -8 -1 -20t-3 -28h-331q-1 -5 -1 -9v-8q0 -29 14 -46t37 -17q34 0 50 40h222q-7 -20 -13 -34.5t-13.5 -26t-16.5 -22
t-22 -21.5q-82 -71 -205 -71zM158 546l12 100h340l-12 -100h-340zM373 298q-1 62 -51 62q-47 0 -57 -62h108z" />
    <glyph glyph-name="Edotaccent" unicode="&#x116;" horiz-adv-x="549" 
d="M121 667h438l-21 -174h-197l-9 -73h180l-20 -165h-180l-9 -76h204l-22 -179h-446zM351 723q-21 0 -40 8t-33 22t-22 32.5t-8 39.5t8 40t22 33t33 22t40 8t39.5 -8t32.5 -22t22 -33t8 -40t-8 -39.5t-22 -32.5t-32.5 -22t-39.5 -8z" />
    <glyph glyph-name="edotaccent" unicode="&#x117;" horiz-adv-x="618" 
d="M308 -13q-62 0 -113.5 17.5t-88.5 49.5t-57.5 76.5t-20.5 98.5q0 57 22 105.5t60.5 84t91 55.5t114.5 20q58 0 108 -19t87 -52t58.5 -77.5t21.5 -95.5q0 -8 -1 -20t-3 -28h-331q-1 -5 -1 -9v-8q0 -29 14 -46t37 -17q34 0 50 40h222q-7 -20 -13 -34.5t-13.5 -26t-16.5 -22
t-22 -21.5q-82 -71 -205 -71zM218 642q0 21 8 40t22 33t33 22t40 8t39.5 -8t32.5 -22t22 -33t8 -40t-8 -39.5t-22 -32.5t-32.5 -22t-39.5 -8t-40 8t-33 22t-22 32.5t-8 39.5zM322 360q-47 0 -57 -62h108q-1 62 -51 62z" />
    <glyph glyph-name="Eogonek" unicode="&#x118;" horiz-adv-x="549" 
d="M121 667h438l-21 -174h-197l-9 -73h180l-20 -165h-180l-9 -76h204l-22 -179h-60q-9 -6 -19.5 -14.5t-19.5 -18.5t-15 -21t-6 -23q0 -17 11.5 -24.5t26.5 -7.5q11 0 27.5 4t35.5 21l-33 -95q-25 -14 -49.5 -18.5t-45.5 -4.5q-40 0 -68.5 18.5t-28.5 62.5q0 21 8.5 38.5
t22 32.5t30 27.5t33.5 22.5h-296z" />
    <glyph glyph-name="eogonek" unicode="&#x119;" horiz-adv-x="618" 
d="M95 63q-29 29 -48 70.5t-19 93.5q0 60 23 109.5t62.5 84.5t92 54t110.5 19q38 0 70 -7.5t57.5 -19.5t45.5 -26.5t35 -29.5q35 -35 51 -76t16 -76q0 -11 -1 -22t-3 -35h-331q-1 -4 -1 -8v-8q0 -25 11.5 -44.5t39.5 -19.5q23 0 32 11.5t18 28.5h222q-13 -55 -48 -90.5
t-82 -62.5q-20 -11 -35.5 -20.5t-32.5 -24.5q-8 -8 -15 -17.5t-7 -23.5q0 -15 11 -21.5t25 -6.5q11 0 24.5 4t30.5 19l-29 -87q-24 -14 -48.5 -17.5t-38.5 -3.5q-35 0 -61.5 17t-26.5 55q0 19 6 34.5t16.5 28t24 23t28.5 19.5q-50 0 -88 8.5t-65.5 20.5t-45 25t-26.5 22z
M322 360q-28 0 -41 -18t-16 -44h108q0 26 -11 44t-40 18z" />
    <glyph glyph-name="Ecaron" unicode="&#x11a;" horiz-adv-x="549" 
d="M559 667l-21 -174h-197l-9 -73h180l-20 -165h-180l-9 -76h204l-22 -179h-446l82 667h438zM528 817l-187 -101l-161 115l67 87l97 -70l129 70z" />
    <glyph glyph-name="ecaron" unicode="&#x11b;" horiz-adv-x="618" 
d="M28 229q0 57 22 105.5t60.5 84t91 55.5t114.5 20q58 0 108 -19t87 -52t58.5 -77.5t21.5 -95.5q0 -8 -1 -20t-3 -28h-331q-1 -5 -1 -9v-8q0 -29 14 -46t37 -17q34 0 50 40h222q-7 -20 -13 -34.5t-13.5 -26t-16.5 -22t-22 -21.5q-82 -71 -205 -71q-62 0 -113.5 17.5
t-88.5 49.5t-57.5 76.5t-20.5 98.5zM165 648l67 87l97 -70l129 70l55 -101l-187 -101zM322 360q-47 0 -57 -62h108q-1 62 -51 62z" />
    <glyph glyph-name="Gcircumflex" unicode="&#x11c;" horiz-adv-x="807" 
d="M145 79q-18 17 -35.5 40t-31.5 52.5t-22.5 65.5t-8.5 80q0 75 27 141t75 115q16 16 41.5 35.5t62 36.5t83.5 28t107 11q107 0 186 -40t133 -129l-227 -89q-4 8 -11 18t-17.5 18.5t-25.5 14t-35 5.5q-37 0 -66 -14t-49.5 -38t-31 -56t-10.5 -67q0 -61 35 -99.5t97 -38.5
q10 0 24.5 2t30.5 9.5t30 22t22 39.5h-130l20 146h365v-6q0 -34 -4.5 -72.5t-16.5 -78.5t-33.5 -78.5t-55.5 -71.5q-31 -31 -64 -50t-67 -29.5t-68.5 -14.5t-67.5 -4q-35 0 -69 4t-66.5 14.5t-64 29t-61.5 48.5zM265 817l187 101l161 -115l-66 -87l-98 70l-129 -70z" />
    <glyph glyph-name="gcircumflex" unicode="&#x11d;" horiz-adv-x="644" 
d="M255 -229q-28 0 -60 4t-64 10.5t-62.5 16.5t-56.5 22l62 152q45 -27 78.5 -38.5t71.5 -11.5q37 0 67 15.5t44 41.5q4 8 7.5 16t6.5 18.5t6 26t8 39.5l-7 2q-23 -49 -53.5 -68.5t-82.5 -19.5q-42 0 -77 16.5t-61 46t-40.5 70t-14.5 88.5q0 55 18 103.5t48.5 84.5
t72.5 56.5t90 20.5q53 0 86.5 -22.5t51.5 -72.5l7 2l-2 27l-2 50h228l-52 -421q-5 -41 -12.5 -72.5t-19 -56t-27.5 -43.5t-38 -35q-44 -32 -100 -50t-121 -18zM384 735l161 -115l-66 -87l-98 70l-129 -70l-55 101zM322 298q-28 0 -47.5 -21.5t-19.5 -51.5q0 -28 16 -45
t41 -17q29 0 47 19.5t18 49.5q0 29 -15.5 47.5t-39.5 18.5z" />
    <glyph glyph-name="Gbreve" unicode="&#x11e;" horiz-adv-x="807" 
d="M145 79q-18 17 -35.5 40t-31.5 52.5t-22.5 65.5t-8.5 80q0 75 27 141t75 115q16 16 41.5 35.5t62 36.5t83.5 28t107 11q107 0 186 -40t133 -129l-227 -89q-4 8 -11 18t-17.5 18.5t-25.5 14t-35 5.5q-37 0 -66 -14t-49.5 -38t-31 -56t-10.5 -67q0 -61 35 -99.5t97 -38.5
q10 0 24.5 2t30.5 9.5t30 22t22 39.5h-130l20 146h365v-6q0 -34 -4.5 -72.5t-16.5 -78.5t-33.5 -78.5t-55.5 -71.5q-31 -31 -64 -50t-67 -29.5t-68.5 -14.5t-67.5 -4q-35 0 -69 4t-66.5 14.5t-64 29t-61.5 48.5zM443 723q-74 0 -120 37t-48 115h102q5 -30 23.5 -43t47.5 -13
t50 14t29 42h102q-13 -72 -63 -112t-123 -40z" />
    <glyph glyph-name="gbreve" unicode="&#x11f;" horiz-adv-x="644" 
d="M255 -229q-28 0 -59.5 4t-63.5 10.5t-63 16.5t-57 22l62 152q45 -27 78.5 -38.5t71.5 -11.5q37 0 67 15.5t44 41.5q4 8 7.5 16t6.5 18.5t6 26t8 39.5l-7 2q-23 -49 -53.5 -68.5t-82.5 -19.5q-42 0 -77 16.5t-61 46t-40.5 70t-14.5 88.5q0 55 18 103.5t48.5 84.5
t72.5 56.5t90 20.5q53 0 86.5 -22.5t51.5 -72.5l7 2l-2 27l-2 50h228l-52 -421q-5 -41 -12.5 -72.5t-19 -56t-27.5 -43.5t-38 -35q-44 -32 -100 -50t-121 -18zM292 691q5 -30 23.5 -43t47.5 -13t50 14t29 42h102q-13 -73 -63.5 -112.5t-123.5 -39.5q-74 0 -119.5 37.5
t-47.5 114.5h102zM255 225q0 -28 16 -45t41 -17q29 0 47 19.5t18 49.5q0 29 -15.5 47.5t-39.5 18.5q-28 0 -47.5 -21.5t-19.5 -51.5z" />
    <glyph glyph-name="Gdotaccent" unicode="&#x120;" horiz-adv-x="807" 
d="M145 79q-18 17 -35.5 40t-31.5 52.5t-22.5 65.5t-8.5 80q0 75 27 141t75 115q16 16 41.5 35.5t62 36.5t83.5 28t107 11q107 0 186 -40t133 -129l-227 -89q-4 8 -11 18t-17.5 18.5t-25.5 14t-35 5.5q-37 0 -66 -14t-49.5 -38t-31 -56t-10.5 -67q0 -61 35 -99.5t97 -38.5
q10 0 24.5 2t30.5 9.5t30 22t22 39.5h-130l20 146h365v-6q0 -34 -4.5 -72.5t-16.5 -78.5t-33.5 -78.5t-55.5 -71.5q-31 -31 -64 -50t-67 -29.5t-68.5 -14.5t-67.5 -4q-35 0 -69 4t-66.5 14.5t-64 29t-61.5 48.5zM378 825q0 21 8 40t22 33t33 22t40 8t39.5 -8t32.5 -22
t22 -33t8 -40t-8 -39.5t-22 -32.5t-32.5 -22t-39.5 -8t-40 8t-33 22t-22 32.5t-8 39.5z" />
    <glyph glyph-name="gdotaccent" unicode="&#x121;" horiz-adv-x="644" 
d="M74 -24q45 -27 78.5 -38.5t71.5 -11.5q37 0 67 15.5t44 41.5q4 8 7.5 16t6.5 18.5t6 26t8 39.5l-7 2q-23 -49 -53.5 -68.5t-82.5 -19.5q-42 0 -77 16.5t-61 46t-40.5 70t-14.5 88.5q0 55 18 103.5t48.5 84.5t72.5 56.5t90 20.5q53 0 86.5 -22.5t51.5 -72.5l7 2l-2 27
l-2 50h228l-52 -421q-5 -41 -12.5 -72.5t-19 -56t-27.5 -43.5t-38 -35q-44 -32 -100 -50t-121 -18q-28 0 -59.5 4t-63.5 10.5t-63 16.5t-57 22zM267 642q0 21 8 40t22 33t33 22t40 8t39.5 -8t32.5 -22t22 -33t8 -40t-8 -39.5t-22 -32.5t-32.5 -22t-39.5 -8t-40 8t-33 22
t-22 32.5t-8 39.5zM255 225q0 -28 16 -45t41 -17q29 0 47 19.5t18 49.5q0 29 -15.5 47.5t-39.5 18.5q-28 0 -47.5 -21.5t-19.5 -51.5z" />
    <glyph glyph-name="uni0122" unicode="&#x122;" horiz-adv-x="807" 
d="M145 79q-18 17 -35.5 40t-31.5 52.5t-22.5 65.5t-8.5 80q0 75 27 141t75 115q16 16 41.5 35.5t62 36.5t83.5 28t107 11q107 0 186 -40t133 -129l-227 -89q-4 8 -11 18t-17.5 18.5t-25.5 14t-35 5.5q-37 0 -66 -14t-49.5 -38t-31 -56t-10.5 -67q0 -61 35 -99.5t97 -38.5
q10 0 24.5 2t30.5 9.5t30 22t22 39.5h-130l20 146h365v-6q0 -34 -4.5 -72.5t-16.5 -78.5t-33.5 -78.5t-55.5 -71.5q-31 -31 -64 -50t-67 -29.5t-68.5 -14.5t-67.5 -4q-35 0 -69 4t-66.5 14.5t-64 29t-61.5 48.5zM331 -62h196l-125 -212h-155z" />
    <glyph glyph-name="uni0123" unicode="&#x123;" horiz-adv-x="644" 
d="M255 -229q-28 0 -59.5 4t-63.5 10.5t-63 16.5t-57 22l62 152q45 -27 78.5 -38.5t71.5 -11.5q37 0 67 15.5t44 41.5q4 8 7.5 16t6.5 18.5t6 26t8 39.5l-7 2q-23 -49 -53.5 -68.5t-82.5 -19.5q-42 0 -77 16.5t-61 46t-40.5 70t-14.5 88.5q0 55 18 103.5t48.5 84.5
t72.5 56.5t90 20.5q53 0 86.5 -22.5t51.5 -72.5l7 2l-2 27l-2 50h228l-52 -421q-5 -41 -12.5 -72.5t-19 -56t-27.5 -43.5t-38 -35q-44 -32 -100 -50t-121 -18zM232 531l125 212h155l-84 -212h-196zM322 298q-28 0 -47.5 -21.5t-19.5 -51.5q0 -28 16 -45t41 -17q29 0 47 19.5
t18 49.5q0 29 -15.5 47.5t-39.5 18.5z" />
    <glyph glyph-name="Hcircumflex" unicode="&#x124;" horiz-adv-x="760" 
d="M121 667h242l-28 -228h142l28 228h242l-82 -667h-242l30 243h-143l-29 -243h-242zM482 918l161 -115l-66 -87l-98 70l-129 -70l-55 101z" />
    <glyph glyph-name="hcircumflex" unicode="&#x125;" horiz-adv-x="632" 
d="M20 0l90 729h231l-26 -211q-5 -44 -11 -71t-14 -54l9 -3q53 93 148 93q31 0 58 -11.5t46.5 -31.5t31 -47.5t11.5 -58.5q0 -12 -1 -25t-3 -28l-34 -281h-232l28 226q2 10 2.5 18t0.5 13q0 35 -30 35q-23 0 -33 -15.5t-15 -58.5l-26 -218h-231zM60 864l187 101l161 -115
l-66 -87l-98 70l-129 -70z" />
    <glyph glyph-name="Hbar" unicode="&#x126;" horiz-adv-x="760" 
d="M56 624h60l5 43h242l-5 -43h142l5 43h242l-5 -43h60l-18 -142h-60l-59 -482h-242l30 242h-143l-29 -242h-242l59 482h-60zM331 408h144l9 74h-144z" />
    <glyph glyph-name="hbar" unicode="&#x127;" horiz-adv-x="657" 
d="M25 522l15 120h85l10 87h231l-10 -87h165l-14 -120h-166l-1 -4q-5 -21 -8 -38.5t-5.5 -32t-5 -28t-6.5 -26.5l9 -3q53 93 148 93q31 0 58 -11.5t46.5 -31.5t31 -47.5t11.5 -58.5q0 -12 -1 -25t-3 -28l-34 -281h-232l28 226q2 10 2.5 18t0.5 13q0 35 -30 35
q-23 0 -33 -15.5t-15 -58.5l-26 -218h-231l65 522h-85z" />
    <glyph glyph-name="Itilde" unicode="&#x128;" horiz-adv-x="379" 
d="M121 667h245l-82 -667h-245zM73 779q18 30 48 53t71 23h2q24 0 39 -6.5t27 -14.5t24.5 -15t30.5 -8q11 -1 31 10t32 38l46 -68q-25 -35 -54 -57t-70 -22h-3q-23 0 -38.5 6.5t-28.5 14t-24.5 14t-27.5 7.5q-10 0 -26 -7t-31 -32z" />
    <glyph glyph-name="itilde" unicode="&#x129;" horiz-adv-x="332" 
d="M81 467h231l-57 -467h-231zM31 595q18 30 48 53t71 23h2q24 0 39 -6.5t27 -14.5t24.5 -15t30.5 -8q11 -1 31 10t32 38l46 -68q-25 -35 -54 -57t-70 -22h-3q-23 0 -38.5 6.5t-28.5 14t-24.5 14t-27.5 7.5q-10 0 -26 -7t-31 -32z" />
    <glyph glyph-name="Imacron" unicode="&#x12a;" horiz-adv-x="379" 
d="M366 667l-82 -667h-245l82 667h245zM61 746l12 104h364l-12 -104h-364z" />
    <glyph glyph-name="imacron" unicode="&#x12b;" horiz-adv-x="332" 
d="M312 467l-57 -467h-231l57 467h231zM28 546l12 100h340l-12 -100h-340z" />
    <glyph glyph-name="Iogonek" unicode="&#x12e;" horiz-adv-x="379" 
d="M39 0l82 667h245l-82 -667q-9 -6 -19.5 -14.5t-19.5 -18.5t-15 -21t-6 -23q0 -17 11.5 -24.5t26.5 -7.5q11 0 27.5 4t35.5 21l-33 -95q-25 -14 -49.5 -18.5t-45.5 -4.5q-40 0 -68.5 18.5t-28.5 62.5q0 21 8.5 38.5t22 32.5t30 27.5t33.5 22.5h-155z" />
    <glyph glyph-name="iogonek" unicode="&#x12f;" horiz-adv-x="332" 
d="M24 0l57 467h231l-57 -467q-8 -6 -18.5 -14.5t-17.5 -16.5q-6 -7 -12 -16.5t-6 -23.5q0 -16 11 -22t25 -6q11 0 24.5 4t30.5 19l-29 -87q-24 -14 -48.5 -17.5t-38.5 -3.5q-35 0 -61.5 17t-26.5 55q0 21 7.5 37t19.5 29.5t27 24.5t31 21h-149zM85 632q0 24 11 44.5
t29 36.5t42 25t50 9t49.5 -8.5t41 -23.5t28 -35t10.5 -42q0 -20 -9 -40t-26.5 -36t-42.5 -26.5t-56 -10.5q-29 0 -52.5 9t-40 24t-25.5 34.5t-9 39.5z" />
    <glyph glyph-name="Idotaccent" unicode="&#x130;" horiz-adv-x="379" 
d="M39 0l82 667h245l-82 -667h-245zM246 723q-21 0 -40 8t-33 22t-22 32.5t-8 39.5t8 40t22 33t33 22t40 8t39.5 -8t32.5 -22t22 -33t8 -40t-8 -39.5t-22 -32.5t-32.5 -22t-39.5 -8z" />
    <glyph glyph-name="dotlessi" unicode="&#x131;" horiz-adv-x="332" 
d="M312 467l-57 -467h-231l57 467h231z" />
    <glyph glyph-name="Jcircumflex" unicode="&#x134;" horiz-adv-x="456" 
d="M145 -17q-71 0 -113.5 17.5t-65.5 34.5l78 216q8 -20 23.5 -40t40.5 -20q8 0 16 2t14 12q2 4 5.5 13.5t6.5 32.5l51 416h242l-55 -447q-5 -44 -17 -90t-49 -84q-19 -20 -41 -32t-45 -19t-46.5 -9.5t-44.5 -2.5zM155 817l187 101l161 -115l-66 -87l-98 70l-129 -70z" />
    <glyph glyph-name="jcircumflex" unicode="&#x135;" horiz-adv-x="337" 
d="M317 467l-85 -696h-231l85 696h231zM35 634l187 101l161 -115l-66 -87l-98 70l-129 -70z" />
    <glyph glyph-name="uni0136" unicode="&#x136;" horiz-adv-x="732" 
d="M121 667h242l-22 -173q-3 -24 -8 -54.5t-13 -61.5l7 -2q11 27 21 47.5t21 37.5l129 206h282l-260 -338l170 -329h-255l-85 192q-7 15 -12 27t-8.5 23.5t-7 22.5t-6.5 25l-7 -1v-20q0 -16 -1.5 -38t-3.5 -39l-23 -192h-242zM251 -62h196l-125 -212h-155z" />
    <glyph glyph-name="uni0137" unicode="&#x137;" horiz-adv-x="650" 
d="M110 729h231l-34 -279q-2 -15 -5 -36t-7 -45t-8.5 -48.5t-8.5 -45.5l7 -1q6 15 11 26t11.5 23t15.5 26t23 34l57 84h275l-201 -241l134 -226h-256l-42 91q-9 19 -15 33t-10.5 27t-8 25.5t-6.5 28.5l-9 -1q2 -20 2.5 -31t0.5 -26q0 -11 -0.5 -21t-1.5 -18l-14 -108h-231z
M127 -274l84 212h196l-125 -212h-155z" />
    <glyph glyph-name="Lacute" unicode="&#x139;" horiz-adv-x="530" 
d="M366 667l-57 -466l205 6l-25 -207h-450l82 667h245zM313 916l117 -73l-157 -119l-87 55z" />
    <glyph glyph-name="lacute" unicode="&#x13a;" horiz-adv-x="327" 
d="M341 729l-90 -729h-231l90 729h231zM257 982l117 -73l-146 -128l-87 55z" />
    <glyph glyph-name="uni013B" unicode="&#x13b;" horiz-adv-x="530" 
d="M366 667l-57 -466l205 6l-25 -207h-450l82 667h245zM262 -274h-155l84 212h196z" />
    <glyph glyph-name="uni013C" unicode="&#x13c;" horiz-adv-x="327" 
d="M341 729l-90 -729h-231l90 729h231zM110 -274h-155l84 212h196z" />
    <glyph glyph-name="Lcaron" unicode="&#x13d;" horiz-adv-x="596" 
d="M39 0l82 667h245l-57 -466l205 6l-25 -207h-450zM388 449l85 218h193l-126 -218h-152z" />
    <glyph glyph-name="lcaron" unicode="&#x13e;" horiz-adv-x="566" 
d="M341 729l-90 -729h-231l90 729h231zM510 449h-152l85 218h193z" />
    <glyph glyph-name="Ldot" unicode="&#x13f;" horiz-adv-x="560" 
d="M39 0l82 667h245l-57 -466l205 6l-25 -207h-450zM389 370q0 21 8 40t22 33t33 22t40 8t39.5 -8t32.5 -22t22 -33t8 -40t-8 -39.5t-22 -32.5t-32.5 -22t-39.5 -8t-40 8t-33 22t-22 32.5t-8 39.5z" />
    <glyph glyph-name="ldot" unicode="&#x140;" horiz-adv-x="540" 
d="M20 0l90 729h231l-90 -729h-231zM349 354q0 21 8 40t22 33t33 22t40 8t39.5 -8t32.5 -22t22 -33t8 -40t-8 -39.5t-22 -32.5t-32.5 -22t-39.5 -8t-40 8t-33 22t-22 32.5t-8 39.5z" />
    <glyph glyph-name="Lslash" unicode="&#x141;" horiz-adv-x="563" 
d="M75 0l28 230l-93 -55l20 162l93 55l34 275h242l-23 -184l123 73l-20 -162l-123 -73l-13 -106h204l-26 -215h-446z" />
    <glyph glyph-name="lslash" unicode="&#x142;" horiz-adv-x="460" 
d="M379 516l111 68l-18 -142l-110 -68l-46 -374h-231l35 279l-110 -68l16 142l111 68l38 308h231z" />
    <glyph glyph-name="Nacute" unicode="&#x143;" horiz-adv-x="812" 
d="M39 0l82 667h243l118 -251q11 -24 20.5 -49.5t21.5 -68.5l6 -22l10 1l-2 22q-2 28 -3.5 49.5t-1.5 42.5q0 20 1 39.5t3 39.5l17 197h245l-82 -667h-234l-116 230q-19 37 -30 68.5t-23 66.5l-4 12h-8q2 -23 3 -41t1 -39q0 -20 -0.5 -37t-2.5 -30l-21 -230h-243zM513 916
l117 -73l-157 -119l-87 55z" />
    <glyph glyph-name="nacute" unicode="&#x144;" horiz-adv-x="633" 
d="M20 0l57 467h232l-5 -25t-4.5 -19t-5.5 -18t-8 -21l8 -2q35 56 68.5 79t78.5 23q33 0 61 -11.5t48.5 -32t32 -48t11.5 -60.5q0 -15 -1.5 -32.5t-3.5 -38.5l-32 -261h-232l28 226q2 10 2.5 18t0.5 13q0 35 -30 35q-23 0 -33 -15t-15 -59l-27 -218h-231zM397 742l117 -73
l-146 -128l-87 55z" />
    <glyph glyph-name="uni0145" unicode="&#x145;" horiz-adv-x="812" 
d="M121 667h243l118 -251q11 -24 20.5 -49.5t21.5 -68.5l6 -22l10 1l-2 22q-2 28 -3.5 49.5t-1.5 42.5q0 20 1 39.5t3 39.5l17 197h245l-82 -667h-234l-116 230q-19 37 -30 68.5t-23 66.5l-4 12h-8q2 -23 3 -41t1 -39q0 -20 -0.5 -37t-2.5 -30l-21 -230h-243zM291 -62h196
l-125 -212h-155z" />
    <glyph glyph-name="uni0146" unicode="&#x146;" horiz-adv-x="633" 
d="M77 467h232l-5 -25t-4.5 -19t-5.5 -18t-8 -21l8 -2q35 56 68.5 79t78.5 23q33 0 61 -11.5t48.5 -32t32 -48t11.5 -60.5q0 -15 -1.5 -32.5t-3.5 -38.5l-32 -261h-232l28 226q2 10 2.5 18t0.5 13q0 35 -30 35q-23 0 -33 -15t-15 -59l-27 -218h-231zM201 -62h196l-125 -212
h-155z" />
    <glyph glyph-name="Ncaron" unicode="&#x147;" horiz-adv-x="812" 
d="M39 0l82 667h243l118 -251q11 -24 20.5 -49.5t21.5 -68.5l6 -22l10 1l-2 22q-2 28 -3.5 49.5t-1.5 42.5q0 20 1 39.5t3 39.5l17 197h245l-82 -667h-234l-116 230q-19 37 -30 68.5t-23 66.5l-4 12h-8q2 -23 3 -41t1 -39q0 -20 -0.5 -37t-2.5 -30l-21 -230h-243zM357 918
l97 -70l129 70l55 -101l-187 -101l-161 115z" />
    <glyph glyph-name="ncaron" unicode="&#x148;" horiz-adv-x="633" 
d="M77 467h232l-5 -25t-4.5 -19t-5.5 -18t-8 -21l8 -2q35 56 68.5 79t78.5 23q33 0 61 -11.5t48.5 -32t32 -48t11.5 -60.5q0 -15 -1.5 -32.5t-3.5 -38.5l-32 -261h-232l28 226q2 10 2.5 18t0.5 13q0 35 -30 35q-23 0 -33 -15t-15 -59l-27 -218h-231zM185 648l67 87l97 -70
l129 70l55 -101l-187 -101z" />
    <glyph glyph-name="Omacron" unicode="&#x14c;" horiz-adv-x="808" 
d="M48 324q0 76 28.5 141.5t78 114t117 76t144.5 27.5q76 0 143 -24t117.5 -69t80 -108.5t29.5 -142.5q0 -76 -28 -141t-76.5 -113t-115.5 -75t-145 -27q-79 0 -147 26t-118.5 72t-79 108.5t-28.5 134.5zM424 462q-27 0 -51 -11t-42 -30t-28.5 -44.5t-10.5 -54.5
q0 -28 9 -51.5t24.5 -41t37 -27t47.5 -9.5q28 0 52.5 11t42 30t27.5 45t10 56q0 27 -9 50t-25 40t-37.5 27t-46.5 10zM248 850h364l-12 -104h-364z" />
    <glyph glyph-name="omacron" unicode="&#x14d;" horiz-adv-x="637" 
d="M321 -13q-63 0 -116.5 18.5t-92.5 52t-61 79t-22 99.5q0 55 22 102.5t61 81.5t92 53.5t116 19.5q66 0 119.5 -18t91.5 -50.5t59 -78.5t21 -102q0 -55 -22 -102t-61 -81.5t-92 -54t-115 -19.5zM163 546l12 100h340l-12 -100h-340zM258 235q0 -29 17 -47.5t43 -18.5
q28 0 46 21.5t18 53.5q0 29 -16.5 47.5t-41.5 18.5q-27 0 -46.5 -22t-19.5 -53z" />
    <glyph glyph-name="Obreve" unicode="&#x14e;" horiz-adv-x="808" 
d="M421 -17q-79 0 -147 26t-118.5 72t-79 108.5t-28.5 134.5q0 76 28.5 141.5t78 114t117 76t144.5 27.5q76 0 143 -24t117.5 -69t80 -108.5t29.5 -142.5q0 -76 -28 -141t-76.5 -113t-115.5 -75t-145 -27zM424 462q-27 0 -51 -11t-42 -30t-28.5 -44.5t-10.5 -54.5
q0 -28 9 -51.5t24.5 -41t37 -27t47.5 -9.5q28 0 52.5 11t42 30t27.5 45t10 56q0 27 -9 50t-25 40t-37.5 27t-46.5 10zM362 875q5 -30 23.5 -43t47.5 -13t50 14t29 42h102q-13 -72 -63 -112t-123 -40q-74 0 -120 37t-48 115h102z" />
    <glyph glyph-name="obreve" unicode="&#x14f;" horiz-adv-x="637" 
d="M321 -13q-63 0 -116.5 18.5t-92.5 52t-61 79t-22 99.5q0 55 22 102.5t61 81.5t92 53.5t116 19.5q66 0 119.5 -18t91.5 -50.5t59 -78.5t21 -102q0 -55 -22 -102t-61 -81.5t-92 -54t-115 -19.5zM272 691q5 -30 23.5 -43t47.5 -13t50 14t29 42h102q-13 -73 -63.5 -112.5
t-123.5 -39.5q-74 0 -119.5 37.5t-47.5 114.5h102zM258 235q0 -29 17 -47.5t43 -18.5q28 0 46 21.5t18 53.5q0 29 -16.5 47.5t-41.5 18.5q-27 0 -46.5 -22t-19.5 -53z" />
    <glyph glyph-name="Ohungarumlaut" unicode="&#x150;" horiz-adv-x="808" 
d="M421 -17q-79 0 -147 26t-118.5 72t-79 108.5t-28.5 134.5q0 76 28.5 141.5t78 114t117 76t144.5 27.5q76 0 143 -24t117.5 -69t80 -108.5t29.5 -142.5q0 -76 -28 -141t-76.5 -113t-115.5 -75t-145 -27zM292 322q0 -28 9 -51.5t24.5 -41t37 -27t47.5 -9.5q28 0 52.5 11
t42 30t27.5 45t10 56q0 27 -9 50t-25 40t-37.5 27t-46.5 10q-27 0 -51 -11t-42 -30t-28.5 -44.5t-10.5 -54.5zM460 779l111 137l111 -73l-143 -119zM242 779l111 137l111 -73l-143 -119z" />
    <glyph glyph-name="ohungarumlaut" unicode="&#x151;" horiz-adv-x="637" 
d="M321 -13q-63 0 -116.5 18.5t-92.5 52t-61 79t-22 99.5q0 55 22 102.5t61 81.5t92 53.5t116 19.5q66 0 119.5 -18t91.5 -50.5t59 -78.5t21 -102q0 -55 -22 -102t-61 -81.5t-92 -54t-115 -19.5zM245 742l112 -73l-133 -128l-79 55zM349 596l100 146l111 -73l-132 -128z
M258 235q0 -29 17 -47.5t43 -18.5q28 0 46 21.5t18 53.5q0 29 -16.5 47.5t-41.5 18.5q-27 0 -46.5 -22t-19.5 -53z" />
    <glyph glyph-name="OE" unicode="&#x152;" horiz-adv-x="984" 
d="M303 -17q-52 0 -98.5 27t-81 73t-55 107.5t-20.5 130.5q0 75 24.5 140.5t67.5 115t99.5 78t121.5 28.5q34 0 60.5 -8.5t48 -23.5t40.5 -35.5t39 -44.5l12 96h433l-21 -174h-195l-9 -73h178l-20 -165h-179l-9 -76h203l-22 -179h-441l10 83q-38 -44 -82 -72t-104 -28z
M418 475q-27 0 -50 -11t-40 -29.5t-26.5 -44.5t-9.5 -56q0 -58 33.5 -95.5t86.5 -37.5q26 0 48 10.5t38 29.5t25 45.5t9 57.5q0 58 -31.5 94.5t-82.5 36.5z" />
    <glyph glyph-name="oe" unicode="&#x153;" horiz-adv-x="945" 
d="M266 -13q-51 0 -94.5 19t-75 52t-49.5 77t-18 95q0 56 21 104t57 83.5t84.5 55.5t104.5 20q57 0 102 -24.5t77 -71.5q35 49 82.5 72.5t107.5 23.5q55 0 100 -17t82 -56q31 -33 50 -80t19 -101q0 -21 -3 -40h-330q0 -14 2 -26.5t7.5 -23t15.5 -16.5t26 -6t27 9t14 25h229
q-11 -45 -35 -77.5t-58 -54t-74.5 -32t-83.5 -10.5q-61 0 -112 19t-85 72q-72 -91 -190 -91zM257 231q0 -23 13.5 -41.5t38.5 -18.5q15 0 26.5 7t19.5 18.5t12 25t4 26.5q0 24 -13 41.5t-39 17.5q-30 0 -46 -24.5t-16 -51.5zM648 359q-23 0 -38 -18.5t-17 -40.5h109
q-3 23 -15.5 41t-38.5 18z" />
    <glyph glyph-name="Racute" unicode="&#x154;" horiz-adv-x="701" 
d="M121 667h265q41 0 72 -3t55.5 -9t44 -16.5t38.5 -25.5q38 -30 58 -74t20 -92q0 -44 -17.5 -82.5t-49.5 -64.5q-11 -9 -21 -15t-21 -10.5t-24.5 -7.5t-32.5 -6l145 -261h-262l-60 161q-8 21 -15 45.5t-11 43.5l-7 -1q1 -17 1 -26v-23q0 -23 -1.5 -46t-3.5 -42l-13 -112
h-242zM403 916l117 -73l-157 -119l-87 55zM346 368q42 0 66.5 18t24.5 48q0 54 -77 54h-19l-15 -120h20z" />
    <glyph glyph-name="racute" unicode="&#x155;" horiz-adv-x="430" 
d="M20 0l57 467h234q-3 -12 -5 -21t-4.5 -18t-6.5 -19l-10 -25l10 -5q32 59 61.5 82t68.5 23q10 0 29 -4l-28 -230q-19 10 -29.5 13.5t-24.5 3.5q-85 0 -102 -130l-17 -137h-233zM176 596l116 146l117 -73l-146 -128z" />
    <glyph glyph-name="uni0156" unicode="&#x156;" horiz-adv-x="701" 
d="M121 667h265q41 0 72 -3t55.5 -9t44 -16.5t38.5 -25.5q38 -30 58 -74t20 -92q0 -44 -17.5 -82.5t-49.5 -64.5q-11 -9 -21 -15t-21 -10.5t-24.5 -7.5t-32.5 -6l145 -261h-262l-60 161q-8 21 -15 45.5t-11 43.5l-7 -1q1 -17 1 -26v-23q0 -23 -1.5 -46t-3.5 -42l-13 -112
h-242zM251 -62h196l-125 -212h-155zM326 368h20q42 0 66.5 18t24.5 48q0 54 -77 54h-19z" />
    <glyph glyph-name="uni0157" unicode="&#x157;" horiz-adv-x="430" 
d="M20 0l57 467h234q-3 -12 -5 -21t-4.5 -18t-6.5 -19l-10 -25l10 -5q32 59 61.5 82t68.5 23q10 0 29 -4l-28 -230q-19 10 -29.5 13.5t-24.5 3.5q-85 0 -102 -130l-17 -137h-233zM47 -274l84 212h196l-125 -212h-155z" />
    <glyph glyph-name="Rcaron" unicode="&#x158;" horiz-adv-x="701" 
d="M121 667h265q41 0 72 -3t55.5 -9t44 -16.5t38.5 -25.5q38 -30 58 -74t20 -92q0 -44 -17.5 -82.5t-49.5 -64.5q-11 -9 -21 -15t-21 -10.5t-24.5 -7.5t-32.5 -6l145 -261h-262l-60 161q-8 21 -15 45.5t-11 43.5l-7 -1q1 -17 1 -26v-23q0 -23 -1.5 -46t-3.5 -42l-13 -112
h-242zM225 831l67 87l97 -70l129 70l55 -101l-187 -101zM346 368q42 0 66.5 18t24.5 48q0 54 -77 54h-19l-15 -120h20z" />
    <glyph glyph-name="rcaron" unicode="&#x159;" horiz-adv-x="430" 
d="M20 0l57 467h234q-3 -12 -5 -21t-4.5 -18t-6.5 -19l-10 -25l10 -5q32 59 61.5 82t68.5 23q10 0 29 -4l-28 -230q-19 10 -29.5 13.5t-24.5 3.5q-85 0 -102 -130l-17 -137h-233zM105 648l67 87l97 -70l129 70l55 -101l-187 -101z" />
    <glyph glyph-name="Sacute" unicode="&#x15a;" horiz-adv-x="607" 
d="M280 -17q-72 0 -137.5 23t-126.5 57l90 180q30 -37 74.5 -58t92.5 -21q26 0 41 10.5t15 28.5q0 17 -15 28t-48 19q-41 8 -75.5 21.5t-60.5 36t-40.5 55.5t-14.5 81q0 50 21.5 93.5t58.5 76t87 51t107 18.5q70 0 129.5 -18t119.5 -51l-89 -177q-32 29 -69.5 44.5
t-76.5 15.5q-20 0 -33 -10t-13 -25q0 -8 3 -13.5t11 -10t22 -9t37 -10.5q35 -8 62.5 -19.5t45.5 -24.5q33 -23 53 -63t20 -86q0 -50 -23 -94.5t-62.5 -77.5t-92.5 -52t-113 -19zM383 916l117 -73l-157 -119l-87 55z" />
    <glyph glyph-name="sacute" unicode="&#x15b;" horiz-adv-x="476" 
d="M215 -13q-60 0 -110.5 15.5t-104.5 38.5l56 141q74 -49 137 -49q37 0 37 25q0 13 -11.5 21t-40.5 15q-71 16 -99 44t-28 78q0 38 16.5 70.5t46 56t69.5 37t88 13.5t95 -10t103 -32l-57 -141q-53 39 -108 39q-40 0 -40 -24q0 -20 27 -26l42 -10q53 -11 82.5 -45.5
t29.5 -82.5q0 -38 -17 -70t-47.5 -55t-72.5 -36t-93 -13zM191 596l116 146l117 -73l-146 -128z" />
    <glyph glyph-name="Scircumflex" unicode="&#x15c;" horiz-adv-x="607" 
d="M280 -17q-72 0 -137.5 23t-126.5 57l90 180q30 -37 74.5 -58t92.5 -21q26 0 41 10.5t15 28.5q0 17 -15 28t-48 19q-41 8 -75.5 21.5t-60.5 36t-40.5 55.5t-14.5 81q0 50 21.5 93.5t58.5 76t87 51t107 18.5q70 0 129.5 -18t119.5 -51l-89 -177q-32 29 -69.5 44.5
t-76.5 15.5q-20 0 -33 -10t-13 -25q0 -8 3 -13.5t11 -10t22 -9t37 -10.5q35 -8 62.5 -19.5t45.5 -24.5q33 -23 53 -63t20 -86q0 -50 -23 -94.5t-62.5 -77.5t-92.5 -52t-113 -19zM195 817l187 101l161 -115l-66 -87l-98 70l-129 -70z" />
    <glyph glyph-name="scircumflex" unicode="&#x15d;" horiz-adv-x="476" 
d="M215 -13q-60 0 -110.5 15.5t-104.5 38.5l56 141q74 -49 137 -49q37 0 37 25q0 13 -11.5 21t-40.5 15q-71 16 -99 44t-28 78q0 38 16.5 70.5t46 56t69.5 37t88 13.5t95 -10t103 -32l-57 -141q-53 39 -108 39q-40 0 -40 -24q0 -20 27 -26l42 -10q53 -11 82.5 -45.5
t29.5 -82.5q0 -38 -17 -70t-47.5 -55t-72.5 -36t-93 -13zM119 634l187 101l161 -115l-66 -87l-98 70l-129 -70z" />
    <glyph glyph-name="Scedilla" unicode="&#x15e;" horiz-adv-x="607" 
d="M280 -17q-72 0 -137.5 23t-126.5 57l90 180q30 -37 74.5 -58t92.5 -21q26 0 41 10.5t15 28.5q0 17 -15 28t-48 19q-41 8 -75.5 21.5t-60.5 36t-40.5 55.5t-14.5 81q0 50 21.5 93.5t58.5 76t87 51t107 18.5q70 0 129.5 -18t119.5 -51l-89 -177q-32 29 -69.5 44.5
t-76.5 15.5q-20 0 -33 -10t-13 -25q0 -8 3 -13.5t11 -10t22 -9t37 -10.5q35 -8 62.5 -19.5t45.5 -24.5q33 -23 53 -63t20 -86q0 -50 -23 -94.5t-62.5 -77.5t-92.5 -52t-113 -19zM270 -43l116 -82l-158 -143l-110 78z" />
    <glyph glyph-name="scedilla" unicode="&#x15f;" horiz-adv-x="476" 
d="M215 -13q-60 0 -110.5 15.5t-104.5 38.5l56 141q74 -49 137 -49q37 0 37 25q0 13 -11.5 21t-40.5 15q-71 16 -99 44t-28 78q0 38 16.5 70.5t46 56t69.5 37t88 13.5t95 -10t103 -32l-57 -141q-53 39 -108 39q-40 0 -40 -24q0 -20 27 -26l42 -10q53 -11 82.5 -45.5
t29.5 -82.5q0 -38 -17 -70t-47.5 -55t-72.5 -36t-93 -13zM212 -45l106 -76l-140 -129l-100 70z" />
    <glyph glyph-name="Scaron" unicode="&#x160;" horiz-adv-x="607" 
d="M280 -17q-72 0 -137.5 23t-126.5 57l90 180q30 -37 74.5 -58t92.5 -21q26 0 41 10.5t15 28.5q0 17 -15 28t-48 19q-41 8 -75.5 21.5t-60.5 36t-40.5 55.5t-14.5 81q0 50 21.5 93.5t58.5 76t87 51t107 18.5q70 0 129.5 -18t119.5 -51l-89 -177q-32 29 -69.5 44.5
t-76.5 15.5q-20 0 -33 -10t-13 -25q0 -8 3 -13.5t11 -10t22 -9t37 -10.5q35 -8 62.5 -19.5t45.5 -24.5q33 -23 53 -63t20 -86q0 -50 -23 -94.5t-62.5 -77.5t-92.5 -52t-113 -19zM195 831l67 87l97 -70l129 70l55 -101l-187 -101z" />
    <glyph glyph-name="scaron" unicode="&#x161;" horiz-adv-x="476" 
d="M215 -13q-60 0 -110.5 15.5t-104.5 38.5l56 141q74 -49 137 -49q37 0 37 25q0 13 -11.5 21t-40.5 15q-71 16 -99 44t-28 78q0 38 16.5 70.5t46 56t69.5 37t88 13.5t95 -10t103 -32l-57 -141q-53 39 -108 39q-40 0 -40 -24q0 -20 27 -26l42 -10q53 -11 82.5 -45.5
t29.5 -82.5q0 -38 -17 -70t-47.5 -55t-72.5 -36t-93 -13zM123 648l67 87l97 -70l129 70l55 -101l-187 -101z" />
    <glyph glyph-name="uni0162" unicode="&#x162;" horiz-adv-x="489" 
d="M536 667l-26 -210l-115 7l-57 -464h-245l57 464l-115 -7l25 210h476zM190 -43l116 -82l-158 -143l-110 78z" />
    <glyph glyph-name="uni0163" unicode="&#x163;" horiz-adv-x="353" 
d="M306 294l-36 -294h-231l36 294l-60 -6l23 183l57 -10l21 164h231l-20 -164l57 6l-22 -179zM172 -45l106 -76l-140 -129l-100 70z" />
    <glyph glyph-name="Tcaron" unicode="&#x164;" horiz-adv-x="489" 
d="M60 667l-25 -210l115 7l-57 -464h245l57 464l115 -7l26 210h-476zM483 817l-187 -101l-161 115l67 87l97 -70l129 70z" />
    <glyph glyph-name="tcaron" unicode="&#x165;" horiz-adv-x="586" 
d="M306 294l-36 -294h-231l36 294l-60 -6l23 183l57 -10l21 164h231l-20 -164l57 6l-22 -179zM530 509h-152l85 218h193z" />
    <glyph glyph-name="Utilde" unicode="&#x168;" horiz-adv-x="758" 
d="M145 55q-40 32 -57.5 73.5t-17.5 101.5q0 26 3 53l48 384h245l-45 -369q-2 -18 -3.5 -30.5t-1.5 -18.5q0 -30 15.5 -46t44.5 -16q35 0 52.5 23.5t25.5 78.5l46 378h245l-45 -369q-6 -53 -13 -89t-17.5 -62.5t-25.5 -46t-37 -39.5q-45 -41 -99.5 -59.5t-126.5 -18.5
q-147 0 -236 72zM272 779q18 30 48 53t71 23h2q24 0 39 -6.5t27 -14.5t24.5 -15t30.5 -8q11 -1 31 10t32 38l46 -68q-25 -35 -54 -57t-70 -22h-3q-23 0 -38.5 6.5t-28.5 14t-24.5 14t-27.5 7.5q-10 0 -26 -7t-31 -32z" />
    <glyph glyph-name="utilde" unicode="&#x169;" horiz-adv-x="633" 
d="M46 186q0 24 3 54l28 227h232l-28 -227q-2 -17 -3 -27.5t-1 -13.5q0 -15 9.5 -25t24.5 -10q21 0 29.5 13.5t13.5 53.5l29 236h232l-32 -257q-4 -33 -10 -57.5t-15 -44t-21.5 -34.5t-30.5 -30q-37 -30 -84 -43.5t-107 -13.5q-129 0 -199 51.5t-70 147.5zM173 595
q18 30 48 53t71 23h2q24 0 39 -6.5t27 -14.5t24.5 -15t30.5 -8q11 -1 31 10t32 38l46 -68q-25 -35 -54 -57t-70 -22h-3q-23 0 -38.5 6.5t-28.5 14t-24.5 14t-27.5 7.5q-10 0 -26 -7t-31 -32z" />
    <glyph glyph-name="Umacron" unicode="&#x16a;" horiz-adv-x="758" 
d="M70 230q0 26 3 53l48 384h245l-45 -369q-2 -18 -3.5 -30.5t-1.5 -18.5q0 -30 15.5 -46t44.5 -16q35 0 52.5 23.5t25.5 78.5l46 378h245l-45 -369q-6 -53 -13 -89t-17.5 -62.5t-25.5 -46t-37 -39.5q-45 -41 -99.5 -59.5t-126.5 -18.5q-147 0 -236 72q-40 32 -57.5 73.5
t-17.5 101.5zM263 850h364l-12 -104h-364z" />
    <glyph glyph-name="umacron" unicode="&#x16b;" horiz-adv-x="633" 
d="M315 -13q-129 0 -199 51.5t-70 147.5q0 24 3 54l28 227h232l-28 -227q-2 -17 -3 -27.5t-1 -13.5q0 -15 9.5 -25t24.5 -10q21 0 29.5 13.5t13.5 53.5l29 236h232l-32 -257q-4 -33 -10 -57.5t-15 -44t-21.5 -34.5t-30.5 -30q-37 -30 -84 -43.5t-107 -13.5zM178 546l12 100
h340l-12 -100h-340z" />
    <glyph glyph-name="Ubreve" unicode="&#x16c;" horiz-adv-x="758" 
d="M145 55q-40 32 -57.5 73.5t-17.5 101.5q0 26 3 53l48 384h245l-45 -369q-2 -18 -3.5 -30.5t-1.5 -18.5q0 -30 15.5 -46t44.5 -16q35 0 52.5 23.5t25.5 78.5l46 378h245l-45 -369q-6 -53 -13 -89t-17.5 -62.5t-25.5 -46t-37 -39.5q-45 -41 -99.5 -59.5t-126.5 -18.5
q-147 0 -236 72zM438 723q-74 0 -120 37t-48 115h102q5 -30 23.5 -43t47.5 -13t50 14t29 42h102q-13 -72 -63 -112t-123 -40z" />
    <glyph glyph-name="ubreve" unicode="&#x16d;" horiz-adv-x="633" 
d="M315 -13q-129 0 -199 51.5t-70 147.5q0 24 3 54l28 227h232l-28 -227q-2 -17 -3 -27.5t-1 -13.5q0 -15 9.5 -25t24.5 -10q21 0 29.5 13.5t13.5 53.5l29 236h232l-32 -257q-4 -33 -10 -57.5t-15 -44t-21.5 -34.5t-30.5 -30q-37 -30 -84 -43.5t-107 -13.5zM357 539
q-74 0 -119.5 37.5t-47.5 114.5h102q5 -30 23.5 -43t47.5 -13t50 14t29 42h102q-13 -73 -63.5 -112.5t-123.5 -39.5z" />
    <glyph glyph-name="Uring" unicode="&#x16e;" horiz-adv-x="758" 
d="M145 55q-40 32 -57.5 73.5t-17.5 101.5q0 26 3 53l48 384h245l-45 -369q-2 -18 -3.5 -30.5t-1.5 -18.5q0 -30 15.5 -46t44.5 -16q35 0 52.5 23.5t25.5 78.5l46 378h245l-45 -369q-6 -53 -13 -89t-17.5 -62.5t-25.5 -46t-37 -39.5q-45 -41 -99.5 -59.5t-126.5 -18.5
q-147 0 -236 72zM435 717q-26 0 -51.5 5.5t-46 18.5t-33.5 34t-13 51t13 50.5t33.5 33.5t46 18.5t51.5 5.5q23 0 52 -5t52 -23q18 -14 29 -35.5t11 -44.5q0 -30 -13 -51t-33.5 -34t-46 -18.5t-51.5 -5.5zM435 860q-18 0 -34 -7.5t-16 -28.5q0 -10 5 -16.5t12.5 -10t16 -5
t16.5 -1.5q18 0 34 6.5t16 28.5q0 21 -16.5 27.5t-33.5 6.5z" />
    <glyph glyph-name="uring" unicode="&#x16f;" horiz-adv-x="633" 
d="M315 -13q-129 0 -199 51.5t-70 147.5q0 24 3 54l28 227h232l-28 -227q-2 -17 -3 -27.5t-1 -13.5q0 -15 9.5 -25t24.5 -10q21 0 29.5 13.5t13.5 53.5l29 236h232l-32 -257q-4 -33 -10 -57.5t-15 -44t-21.5 -34.5t-30.5 -30q-37 -30 -84 -43.5t-107 -13.5zM350 536
q-26 0 -51.5 5.5t-46 18.5t-33.5 34t-13 51t13 50.5t33.5 33.5t46 18.5t51.5 5.5q23 0 52 -5t52 -23q18 -14 29 -35.5t11 -44.5q0 -30 -13 -51t-33.5 -34t-46 -18.5t-51.5 -5.5zM300 643q0 -10 5 -16.5t12.5 -10t16 -5t16.5 -1.5q18 0 34 6.5t16 28.5q0 21 -16.5 27.5
t-33.5 6.5q-18 0 -34 -7.5t-16 -28.5z" />
    <glyph glyph-name="Uhungarumlaut" unicode="&#x170;" horiz-adv-x="758" 
d="M70 230q0 26 3 53l48 384h245l-45 -369q-2 -18 -3.5 -30.5t-1.5 -18.5q0 -30 15.5 -46t44.5 -16q35 0 52.5 23.5t25.5 78.5l46 378h245l-45 -369q-6 -53 -13 -89t-17.5 -62.5t-25.5 -46t-37 -39.5q-45 -41 -99.5 -59.5t-126.5 -18.5q-147 0 -236 72q-40 32 -57.5 73.5
t-17.5 101.5zM575 916l111 -73l-143 -119l-79 55zM357 916l111 -73l-143 -119l-79 55z" />
    <glyph glyph-name="uhungarumlaut" unicode="&#x171;" horiz-adv-x="633" 
d="M46 186q0 24 3 54l28 227h232l-28 -227q-2 -17 -3 -27.5t-1 -13.5q0 -15 9.5 -25t24.5 -10q21 0 29.5 13.5t13.5 53.5l29 236h232l-32 -257q-4 -33 -10 -57.5t-15 -44t-21.5 -34.5t-30.5 -30q-37 -30 -84 -43.5t-107 -13.5q-129 0 -199 51.5t-70 147.5zM260 742l112 -73
l-133 -128l-79 55zM364 596l100 146l111 -73l-132 -128z" />
    <glyph glyph-name="Uogonek" unicode="&#x172;" horiz-adv-x="758" 
d="M378 -17q-59 0 -115 13.5t-99 42.5t-69 76t-26 113q0 14 1.5 31.5t3.5 31.5l47 376h245l-45 -369q-2 -20 -3.5 -30.5t-1.5 -18.5q0 -29 15.5 -45.5t44.5 -16.5q22 0 36 9t22.5 23.5t13 33t6.5 36.5l46 378h245l-48 -392q-6 -49 -14 -87t-24 -69t-43 -56.5t-72 -49.5
q-23 -12 -39.5 -20t-36.5 -22q-9 -6 -21.5 -18.5t-12.5 -29.5t11.5 -24.5t26.5 -7.5q11 0 27.5 4t35.5 21l-33 -95q-25 -14 -49.5 -18.5t-45.5 -4.5q-40 0 -68.5 18.5t-28.5 62.5q0 32 21 59.5t47 44.5z" />
    <glyph glyph-name="uogonek" unicode="&#x173;" horiz-adv-x="633" 
d="M323 -13q-52 0 -101.5 9t-88.5 32t-63 62.5t-24 99.5q0 14 1.5 30.5t3.5 30.5l26 216h232l-27 -216q-2 -14 -3.5 -26.5t-1.5 -19.5q0 -17 7.5 -29t26.5 -12q16 0 26 8q8 7 11 20t6 39l29 236h232l-32 -257q-5 -40 -13.5 -69.5t-23.5 -53t-38.5 -43t-58.5 -38.5l-34 -20
t-32 -22q-8 -7 -15 -17t-7 -24q0 -15 11 -21.5t25 -6.5q11 0 24.5 4t30.5 19l-29 -87q-24 -14 -48.5 -17.5t-38.5 -3.5q-35 0 -61.5 17t-26.5 55q0 19 6 34.5t16.5 28t24 23t28.5 19.5z" />
    <glyph glyph-name="Ydieresis" unicode="&#x178;" horiz-adv-x="684" 
d="M47 667h265l34 -109q6 -19 8.5 -34.5t4.5 -41.5h9q5 17 10 31.5t14 31.5l62 122h291l-281 -384l-35 -283h-240l36 289zM531 733q-21 0 -39.5 7.5t-32 21t-21 32t-7.5 39.5t7.5 39t21 31.5t32 21.5t39.5 8q42 0 71 -29t29 -71q0 -21 -8 -39.5t-21.5 -32t-31.5 -21
t-39 -7.5zM284 733q-21 0 -39.5 7.5t-32 21t-21 32t-7.5 39.5t7.5 39t21 31.5t32 21.5t39.5 8t39 -8t31.5 -21.5t21.5 -31.5t8 -39t-8 -39.5t-21.5 -32t-31.5 -21t-39 -7.5z" />
    <glyph glyph-name="Zacute" unicode="&#x179;" horiz-adv-x="633" 
d="M-7 60l233 328q13 18 22.5 30.5t17.5 21.5t15.5 15t16.5 11l-3 8q-22 -7 -39.5 -9t-47.5 -4l-153 -4l26 210h582l-8 -59l-247 -348q-12 -17 -20 -27.5t-15 -18t-14 -13.5t-16 -12l4 -8q12 4 20.5 6t17.5 3.5t20.5 2t29.5 1.5l181 4l-24 -198h-607zM413 916l117 -73
l-157 -119l-87 55z" />
    <glyph glyph-name="zacute" unicode="&#x17a;" horiz-adv-x="515" 
d="M-7 0l4 35l139 207q10 12 17 20.5t13 15t12.5 11.5t15.5 10l-5 9q-15 -8 -29.5 -11.5t-34.5 -3.5h-84l21 174h461l-4 -30l-144 -204q-13 -18 -27.5 -31.5t-29.5 -24.5l4 -11q14 7 25 9t33 2h107l-22 -177h-472zM317 742l117 -73l-146 -128l-87 55z" />
    <glyph glyph-name="Zdotaccent" unicode="&#x17b;" horiz-adv-x="633" 
d="M-15 0l8 60l233 328q13 18 22.5 30.5t17.5 21.5t15.5 15t16.5 11l-3 8q-22 -7 -39.5 -9t-47.5 -4l-153 -4l26 210h582l-8 -59l-247 -348q-12 -17 -20 -27.5t-15 -18t-14 -13.5t-16 -12l4 -8q12 4 20.5 6t17.5 3.5t20.5 2t29.5 1.5l181 4l-24 -198h-607zM264 825
q0 21 8 40t22 33t33 22t40 8t39.5 -8t32.5 -22t22 -33t8 -40t-8 -39.5t-22 -32.5t-32.5 -22t-39.5 -8t-40 8t-33 22t-22 32.5t-8 39.5z" />
    <glyph glyph-name="zdotaccent" unicode="&#x17c;" horiz-adv-x="515" 
d="M-7 0l4 35l139 207q10 12 17 20.5t13 15t12.5 11.5t15.5 10l-5 9q-15 -8 -29.5 -11.5t-34.5 -3.5h-84l21 174h461l-4 -30l-144 -204q-13 -18 -27.5 -31.5t-29.5 -24.5l4 -11q14 7 25 9t33 2h107l-22 -177h-472zM193 642q0 21 8 40t22 33t33 22t40 8t39.5 -8t32.5 -22
t22 -33t8 -40t-8 -39.5t-22 -32.5t-32.5 -22t-39.5 -8t-40 8t-33 22t-22 32.5t-8 39.5z" />
    <glyph glyph-name="Zcaron" unicode="&#x17d;" horiz-adv-x="633" 
d="M-15 0l8 60l233 328q13 18 22.5 30.5t17.5 21.5t15.5 15t16.5 11l-3 8q-22 -7 -39.5 -9t-47.5 -4l-153 -4l26 210h582l-8 -59l-247 -348q-12 -17 -20 -27.5t-15 -18t-14 -13.5t-16 -12l4 -8q12 4 20.5 6t17.5 3.5t20.5 2t29.5 1.5l181 4l-24 -198h-607zM201 831l67 87
l97 -70l129 70l55 -101l-187 -101z" />
    <glyph glyph-name="zcaron" unicode="&#x17e;" horiz-adv-x="515" 
d="M-7 0l4 35l139 207q10 12 17 20.5t13 15t12.5 11.5t15.5 10l-5 9q-15 -8 -29.5 -11.5t-34.5 -3.5h-84l21 174h461l-4 -30l-144 -204q-13 -18 -27.5 -31.5t-29.5 -24.5l4 -11q14 7 25 9t33 2h107l-22 -177h-472zM132 648l67 87l97 -70l129 70l55 -101l-187 -101z" />
    <glyph glyph-name="uni018F" unicode="&#x18f;" horiz-adv-x="782" 
d="M141 75q-36 37 -55.5 80t-28.5 85t-9 80t3 66h466q-2 52 -32 84.5t-83 32.5q-38 0 -69 -18t-46 -54l-220 37q51 108 141.5 161.5t208.5 53.5q75 0 138 -23t108.5 -65.5t71 -104t25.5 -138.5q0 -80 -26.5 -151t-76.5 -122q-31 -32 -65 -50.5t-68 -29t-68 -13.5t-65 -3
q-32 0 -65 3.5t-64.5 13.5t-62 28t-58.5 47zM257 258q3 -48 34.5 -71.5t77.5 -23.5q48 0 84.5 23t48.5 72h-245z" />
    <glyph glyph-name="florin" unicode="&#x192;" horiz-adv-x="707" 
d="M115 -193q-21 0 -36.5 1t-32.5 5l40 169h12q43 0 65 13.5t33 57.5l66 268h-60l31 124h60l27 110q9 35 22.5 69.5t45.5 63.5q30 28 67 40t80 12q38 0 64 -7.5t43 -14.5l-40 -167q-11 7 -20.5 9.5t-18.5 2.5q-22 0 -33 -12t-16 -32l-18 -74h69l-31 -124h-69l-69 -292
q-14 -61 -36 -103t-55 -68.5t-79.5 -38.5t-110.5 -12z" />
    <glyph glyph-name="Ohorn" unicode="&#x1a0;" horiz-adv-x="808" 
d="M48 324q0 76 28.5 141.5t78 114t117 76t144.5 27.5q32 0 53.5 -2.5t39 -5.5t33.5 -5.5t37 -2.5q22 0 35.5 7.5t22 20.5t12 28.5t5.5 32.5h150q-3 -26 -10.5 -51.5t-22 -48t-37 -40.5t-55.5 -29q107 -92 107 -248q0 -76 -28 -141t-76.5 -113t-115.5 -75t-145 -27
q-79 0 -147 26t-118.5 72t-79 108.5t-28.5 134.5zM292 322q0 -28 9 -51.5t24.5 -41t37 -27t47.5 -9.5q28 0 52.5 11t42 30t27.5 45t10 56q0 27 -9 50t-25 40t-37.5 27t-46.5 10q-27 0 -51 -11t-42 -30t-28.5 -44.5t-10.5 -54.5z" />
    <glyph glyph-name="ohorn" unicode="&#x1a1;" horiz-adv-x="637" 
d="M29 236q0 55 22 102.5t61 81.5t92 53.5t116 19.5q35 0 58.5 -3.5t40.5 -8t29 -8.5t24 -6q22 0 35.5 7.5t22 20.5t12 28.5t5.5 32.5h150q-3 -27 -10.5 -53t-23 -48.5t-39 -40.5t-57.5 -28q21 -29 32.5 -64.5t11.5 -77.5q0 -55 -22 -102t-61 -81.5t-92 -54t-115 -19.5
q-63 0 -116.5 18.5t-92.5 52t-61 79t-22 99.5zM258 235q0 -29 17 -47.5t43 -18.5q28 0 46 21.5t18 53.5q0 29 -16.5 47.5t-41.5 18.5q-27 0 -46.5 -22t-19.5 -53z" />
    <glyph glyph-name="Uhorn" unicode="&#x1af;" horiz-adv-x="758" 
d="M145 55q-40 32 -57.5 73.5t-17.5 101.5q0 26 3 53l48 384h245l-45 -369q-2 -18 -3.5 -30.5t-1.5 -18.5q0 -30 15.5 -46t44.5 -16q35 0 52.5 23.5t25.5 78.5l46 378h140q21 1 34 9t20.5 20.5t11 28t5.5 31.5h150q-3 -26 -10.5 -52t-22 -48.5t-37.5 -40.5t-56 -28l-35 -289
q-6 -53 -13 -89t-17.5 -62.5t-25.5 -46t-37 -39.5q-45 -41 -99.5 -59.5t-126.5 -18.5q-147 0 -236 72z" />
    <glyph glyph-name="uhorn" unicode="&#x1b0;" horiz-adv-x="633" 
d="M315 -13q-129 0 -199 51.5t-70 147.5q0 24 3 54l28 227h232l-28 -227q-2 -17 -3 -27.5t-1 -13.5q0 -15 9.5 -25t24.5 -10q21 0 29.5 13.5t13.5 53.5l29 236h133q21 1 34 9t20.5 20.5t11 28t5.5 31.5h150q-3 -27 -10.5 -53t-23 -49t-39.5 -41t-59 -28l-22 -175
q-4 -33 -10 -57.5t-15 -44t-21.5 -34.5t-30.5 -30q-37 -30 -84 -43.5t-107 -13.5z" />
    <glyph glyph-name="uni01CF" unicode="&#x1cf;" horiz-adv-x="379" 
d="M366 667l-82 -667h-245l82 667h245zM433 817l-187 -101l-161 115l67 87l97 -70l129 70z" />
    <glyph glyph-name="uni01D0" unicode="&#x1d0;" horiz-adv-x="332" 
d="M312 467l-57 -467h-231l57 467h231zM389 634l-187 -101l-161 115l67 87l97 -70l129 70z" />
    <glyph glyph-name="uni01DD" unicode="&#x1dd;" horiz-adv-x="612" 
d="M99 55q-36 35 -56 92t-12 128h331q3 17 1.5 40t-13.5 37q-5 5 -14 9.5t-24 4.5q-23 0 -37.5 -13t-22.5 -33l-196 38q42 72 110.5 104t149.5 32q55 0 104.5 -16t86 -47.5t58 -77t21.5 -103.5q0 -59 -21 -108.5t-57 -84.5q-45 -44 -96.5 -57.5t-104.5 -13.5q-25 0 -52 3
t-54.5 10.5t-53.5 21t-48 34.5zM241 174q-1 -12 3 -25.5t12 -21.5q5 -5 13 -9t21 -4q27 0 41 17t17 43h-107z" />
    <glyph glyph-name="Gcaron" unicode="&#x1e6;" horiz-adv-x="807" 
d="M145 79q-18 17 -35.5 40t-31.5 52.5t-22.5 65.5t-8.5 80q0 75 27 141t75 115q16 16 41.5 35.5t62 36.5t83.5 28t107 11q107 0 186 -40t133 -129l-227 -89q-4 8 -11 18t-17.5 18.5t-25.5 14t-35 5.5q-37 0 -66 -14t-49.5 -38t-31 -56t-10.5 -67q0 -61 35 -99.5t97 -38.5
q10 0 24.5 2t30.5 9.5t30 22t22 39.5h-130l20 146h365v-6q0 -34 -4.5 -72.5t-16.5 -78.5t-33.5 -78.5t-55.5 -71.5q-31 -31 -64 -50t-67 -29.5t-68.5 -14.5t-67.5 -4q-35 0 -69 4t-66.5 14.5t-64 29t-61.5 48.5zM346 918l97 -70l129 70l55 -101l-187 -101l-161 115z" />
    <glyph glyph-name="gcaron" unicode="&#x1e7;" horiz-adv-x="644" 
d="M255 -229q-28 0 -60 4t-64 10.5t-62.5 16.5t-56.5 22l62 152q45 -27 78.5 -38.5t71.5 -11.5q37 0 67 15.5t44 41.5q4 8 7.5 16t6.5 18.5t6 26t8 39.5l-7 2q-23 -49 -53.5 -68.5t-82.5 -19.5q-42 0 -77 16.5t-61 46t-40.5 70t-14.5 88.5q0 55 18 103.5t48.5 84.5
t72.5 56.5t90 20.5q53 0 86.5 -22.5t51.5 -72.5l7 2l-2 27l-2 50h228l-52 -421q-5 -41 -12.5 -72.5t-19 -56t-27.5 -43.5t-38 -35q-44 -32 -100 -50t-121 -18zM190 648l67 87l97 -70l129 70l55 -101l-187 -101zM255 225q0 -28 16 -45t41 -17q29 0 47 19.5t18 49.5
q0 29 -15.5 47.5t-39.5 18.5q-28 0 -47.5 -21.5t-19.5 -51.5z" />
    <glyph glyph-name="AEacute" unicode="&#x1fc;" horiz-adv-x="920" 
d="M-21 0l310 667h478l31 -175h-203l12 -71h204l29 -170h-203l13 -70h203l32 -181h-446l-4 88h-165l-32 -88h-259zM563 916l117 -73l-157 -119l-87 55zM420 239l-12 131q-1 7 -1 15v17q0 17 1 28t3 29l-11 2q-3 -15 -5 -25.5t-5 -20.5t-6.5 -20.5t-8.5 -24.5l-48 -131h93z
" />
    <glyph glyph-name="aeacute" unicode="&#x1fd;" horiz-adv-x="945" 
d="M19 154q0 41 17 70.5t45 48t63.5 27.5t71.5 9q42 0 80.5 -12t67.5 -43q3 15 3 31q0 26 -12 42.5t-30.5 26t-41 13t-43.5 3.5q-50 0 -95.5 -13.5t-82.5 -32.5l17 133q8 3 24.5 9t39.5 12t52.5 10.5t63.5 4.5q40 0 70.5 -5.5t53 -14.5t39 -21.5t28.5 -25.5q10 9 25.5 21
t38.5 22t55 17t75 7q74 0 123.5 -23.5t79.5 -54.5q33 -35 51.5 -79t18.5 -92q0 -22 -4 -41h-331q-1 -4 -1 -8v-8q0 -28 14.5 -45t37.5 -17q21 0 32 9.5t18 28.5h222q-14 -44 -40.5 -77t-62 -55t-77.5 -33t-87 -11q-57 0 -110.5 15.5t-97.5 57.5q-42 -44 -88 -58.5
t-105 -14.5q-40 0 -79 8.5t-70 28.5t-50 51.5t-19 78.5zM519 742l117 -73l-146 -128l-87 55zM217 150q0 -16 7.5 -26t19 -16t25 -8.5t26.5 -2.5q12 0 26 3t25.5 9t19 16.5t7.5 25.5q0 16 -7.5 26t-19.5 16t-26 8t-27 2t-26.5 -2t-24.5 -8t-18 -16.5t-7 -26.5zM700 299
q0 23 -12 42.5t-38 19.5q-25 0 -40.5 -17.5t-17.5 -44.5h108z" />
    <glyph glyph-name="uni0218" unicode="&#x218;" horiz-adv-x="607" 
d="M280 -17q-72 0 -137.5 23t-126.5 57l90 180q30 -37 74.5 -58t92.5 -21q26 0 41 10.5t15 28.5q0 17 -15 28t-48 19q-41 8 -75.5 21.5t-60.5 36t-40.5 55.5t-14.5 81q0 50 21.5 93.5t58.5 76t87 51t107 18.5q70 0 129.5 -18t119.5 -51l-89 -177q-32 29 -69.5 44.5
t-76.5 15.5q-20 0 -33 -10t-13 -25q0 -8 3 -13.5t11 -10t22 -9t37 -10.5q35 -8 62.5 -19.5t45.5 -24.5q33 -23 53 -63t20 -86q0 -50 -23 -94.5t-62.5 -77.5t-92.5 -52t-113 -19zM117 -274l84 212h196l-125 -212h-155z" />
    <glyph glyph-name="uni0219" unicode="&#x219;" horiz-adv-x="476" 
d="M215 -13q-31 0 -58 4t-53 11.5t-51.5 17t-52.5 21.5l56 141q74 -49 137 -49q37 0 37 25q0 13 -11.5 21t-40.5 15q-71 16 -99 44t-28 78q0 38 16.5 70.5t46 56t69.5 37t88 13.5t95 -10t103 -32l-57 -141q-53 39 -108 39q-40 0 -40 -24q0 -20 27 -26l42 -10
q53 -11 82.5 -45.5t29.5 -82.5q0 -38 -17 -70t-47.5 -55t-72.5 -36t-93 -13zM47 -274l84 212h196l-125 -212h-155z" />
    <glyph glyph-name="uni021A" unicode="&#x21a;" horiz-adv-x="489" 
d="M536 667l-26 -210l-115 7l-57 -464h-245l57 464l-115 -7l25 210h476zM194 -274h-155l84 212h196z" />
    <glyph glyph-name="uni021B" unicode="&#x21b;" horiz-adv-x="353" 
d="M306 294l-36 -294h-231l36 294l-60 -6l23 183l57 -10l21 164h231l-20 -164l57 6l-22 -179zM122 -274h-155l84 212h196z" />
    <glyph glyph-name="uni0228" unicode="&#x228;" horiz-adv-x="549" 
d="M559 667l-21 -174h-197l-9 -73h180l-20 -165h-180l-9 -76h204l-22 -179h-446l82 667h438zM255 -43l116 -82l-158 -143l-110 78z" />
    <glyph glyph-name="uni0229" unicode="&#x229;" horiz-adv-x="618" 
d="M28 229q0 57 22 105.5t60.5 84t91 55.5t114.5 20q58 0 108 -19t87 -52t58.5 -77.5t21.5 -95.5q0 -8 -1 -20t-3 -28h-331q-1 -5 -1 -9v-8q0 -29 14 -46t37 -17q34 0 50 40h222q-7 -20 -13 -34.5t-13.5 -26t-16.5 -22t-22 -21.5q-82 -71 -205 -71q-62 0 -113.5 17.5
t-88.5 49.5t-57.5 76.5t-20.5 98.5zM165 -180l134 135l106 -76l-140 -129zM322 360q-47 0 -57 -62h108q-1 62 -51 62z" />
    <glyph glyph-name="uni0237" unicode="&#x237;" horiz-adv-x="337" 
d="M317 467l-85 -696h-231l85 696h231z" />
    <glyph glyph-name="uni0259" unicode="&#x259;" horiz-adv-x="612" 
d="M99 55q-36 35 -56 92t-12 128h331q3 17 1.5 40t-13.5 37q-5 5 -14 9.5t-24 4.5q-23 0 -37.5 -13t-22.5 -33l-196 38q42 72 110.5 104t149.5 32q55 0 104.5 -16t86 -47.5t58 -77t21.5 -103.5q0 -59 -21 -108.5t-57 -84.5q-45 -44 -96.5 -57.5t-104.5 -13.5q-25 0 -52 3
t-54.5 10.5t-53.5 21t-48 34.5zM241 174q-1 -12 3 -25.5t12 -21.5q5 -5 13 -9t21 -4q27 0 41 17t17 43h-107z" />
    <glyph glyph-name="uni02BC" unicode="&#x2bc;" 
d="M300 449h-152l85 218h193z" />
    <glyph glyph-name="circumflex" unicode="&#x2c6;" 
d="M125 634l187 101l161 -115l-66 -87l-98 70l-129 -70z" />
    <glyph glyph-name="caron" unicode="&#x2c7;" 
d="M473 634l-187 -101l-161 115l67 87l97 -70l129 70z" />
    <glyph glyph-name="uni02C9" unicode="&#x2c9;" 
d="M118 546l12 100h340l-12 -100h-340z" />
    <glyph glyph-name="breve" unicode="&#x2d8;" 
d="M232 691q5 -30 23.5 -43t47.5 -13t50 14t29 42h102q-13 -73 -63.5 -112.5t-123.5 -39.5q-74 0 -119.5 37.5t-47.5 114.5h102z" />
    <glyph glyph-name="dotaccent" unicode="&#x2d9;" 
d="M198 642q0 21 8 40t22 33t33 22t40 8t39.5 -8t32.5 -22t22 -33t8 -40t-8 -39.5t-22 -32.5t-32.5 -22t-39.5 -8t-40 8t-33 22t-22 32.5t-8 39.5z" />
    <glyph glyph-name="ring" unicode="&#x2da;" 
d="M146 645q0 30 13 50.5t33.5 33.5t46 18.5t51.5 5.5q23 0 52 -5t52 -23q18 -14 29 -35.5t11 -44.5q0 -30 -13 -51t-33.5 -34t-46 -18.5t-51.5 -5.5t-51.5 5.5t-46 18.5t-33.5 34t-13 51zM290 679q-18 0 -34 -7.5t-16 -28.5q0 -10 5 -16.5t12.5 -10t16 -5t16.5 -1.5
q18 0 34 6.5t16 28.5q0 21 -16.5 27.5t-33.5 6.5z" />
    <glyph glyph-name="ogonek" unicode="&#x2db;" 
d="M151 -112q0 21 7.5 37t19.5 29.5t27 24.5t31 21h82q-8 -6 -18.5 -14.5t-17.5 -16.5q-6 -7 -12 -16.5t-6 -23.5q0 -16 11 -22t25 -6q11 0 24.5 4t30.5 19l-29 -87q-24 -14 -48.5 -17.5t-38.5 -3.5q-35 0 -61.5 17t-26.5 55z" />
    <glyph glyph-name="tilde" unicode="&#x2dc;" 
d="M137 580q19 25 34.5 41.5t29 26.5t26.5 14.5t27 4.5q22 0 52 -13l23 -10q13 -5 20 -5q17 0 34 25l6 9l74 -38q-26 -48 -51.5 -69.5t-57.5 -21.5q-14 0 -24.5 3t-32.5 14t-37 11q-14 0 -24.5 -7.5t-21.5 -24.5l-77 40v0z" />
    <glyph glyph-name="hungarumlaut" unicode="&#x2dd;" 
d="M210 742l112 -73l-133 -128l-79 55zM414 742l111 -73l-132 -128l-79 55z" />
    <glyph glyph-name="acutecomb" unicode="&#x301;" horiz-adv-x="2" 
d="M-290 533l-75 70l127 120l97 -82z" />
    <glyph glyph-name="uni0394" unicode="&#x394;" horiz-adv-x="667" 
d="M-12 0l245 667h141l248 -667h-634zM174 118h260l-130 390z" />
    <glyph glyph-name="uni0394" unicode="&#x2206;" horiz-adv-x="667" 
d="M-12 0l245 667h141l248 -667h-634zM174 118h260l-130 390z" />
    <glyph glyph-name="uni03A9" unicode="&#x3a9;" horiz-adv-x="667" 
d="M23 0v117h136q-37 23 -62.5 48.5t-42 55.5t-24 65.5t-7.5 79.5q0 69 23 127t63.5 100t96.5 66t122 24t122 -24t96.5 -66t63.5 -100t23 -127q0 -122 -68 -196q-14 -16 -28 -26t-40 -27h136v-117h-270v104q74 42 104 103t30 145q0 47 -12.5 86t-35 67.5t-53.5 44.5t-68 16
t-68 -16t-53.5 -44.5t-35 -68t-12.5 -85.5q0 -84 30.5 -146.5t104.5 -101.5v-104h-271z" />
    <glyph glyph-name="uni03A9" unicode="&#x2126;" horiz-adv-x="667" 
d="M23 0v117h136q-37 23 -62.5 48.5t-42 55.5t-24 65.5t-7.5 79.5q0 69 23 127t63.5 100t96.5 66t122 24t122 -24t96.5 -66t63.5 -100t23 -127q0 -122 -68 -196q-14 -16 -28 -26t-40 -27h136v-117h-270v104q74 42 104 103t30 145q0 47 -12.5 86t-35 67.5t-53.5 44.5t-68 16
t-68 -16t-53.5 -44.5t-35 -68t-12.5 -85.5q0 -84 30.5 -146.5t104.5 -101.5v-104h-271z" />
    <glyph glyph-name="pi" unicode="&#x3c0;" horiz-adv-x="766" 
d="M738 466v-154h-78v-313h-226v313h-82v-313h-226v313h-78v154h690z" />
    <glyph glyph-name="uni0401" unicode="&#x401;" horiz-adv-x="549" 
d="M39 0l82 667h438l-21 -174h-197l-9 -73h180l-20 -165h-180l-9 -76h204l-22 -179h-446zM485 733q-21 0 -39.5 7.5t-32 21t-21 32t-7.5 39.5t7.5 39t21 31.5t32 21.5t39.5 8q42 0 71 -29t29 -71q0 -21 -8 -39.5t-21.5 -32t-31.5 -21t-39 -7.5zM138 833q0 21 7.5 39t21 31.5
t32 21.5t39.5 8t39 -8t31.5 -21.5t21.5 -31.5t8 -39t-8 -39.5t-21.5 -32t-31.5 -21t-39 -7.5t-39.5 7.5t-32 21t-21 32t-7.5 39.5z" />
    <glyph glyph-name="uni0402" unicode="&#x402;" horiz-adv-x="785" 
d="M40 458l25 209h586l-25 -209l-224 6l-10 -88q33 12 65.5 17.5t64.5 5.5q48 0 90.5 -11.5t74 -35.5t50 -61.5t18.5 -89.5q0 -32 -6 -57t-15 -44.5t-20 -33.5t-20 -23q-21 -20 -45 -32t-48.5 -18t-48 -7.5t-43.5 -1.5q-31 0 -57.5 3t-57.5 13l49 143q12 -12 30 -12
q27 0 37.5 15.5t10.5 40.5q0 29 -21 40.5t-47 11.5q-29 0 -51.5 -6.5t-28.5 -8.5l-27 -224h-242l56 464z" />
    <glyph glyph-name="uni0403" unicode="&#x403;" horiz-adv-x="535" 
d="M559 667l-22 -178h-196l-60 -489h-242l82 667h438zM393 916l117 -73l-157 -119l-87 55z" />
    <glyph glyph-name="uni0404" unicode="&#x404;" horiz-adv-x="681" 
d="M393 -17q-76 0 -139.5 21.5t-109.5 63.5t-71.5 103t-25.5 139q0 88 28 157t79 117t122 73.5t157 25.5q48 0 85.5 -6t67 -14.5t50.5 -18t35 -17.5l-27 -221q-35 43 -78 65t-99 22q-46 0 -85.5 -20.5t-60.5 -62.5h217l-18 -146h-217q6 -26 20.5 -43t34.5 -28t43.5 -15.5
t47.5 -4.5q54 0 96 19t80 55l-26 -217q-53 -27 -103.5 -37t-102.5 -10z" />
    <glyph glyph-name="uni0405" unicode="&#x405;" horiz-adv-x="607" 
d="M106 243q30 -37 74.5 -58t92.5 -21q26 0 41 10.5t15 28.5q0 17 -15 28t-48 19q-41 8 -75.5 21.5t-60.5 36t-40.5 55.5t-14.5 81q0 50 21.5 93.5t58.5 76t87 51t107 18.5q70 0 129.5 -18t119.5 -51l-89 -177q-32 29 -69.5 44.5t-76.5 15.5q-20 0 -33 -10t-13 -25
q0 -8 3 -13.5t11 -10t22 -9t37 -10.5q35 -8 62.5 -19.5t45.5 -24.5q33 -23 53 -63t20 -86q0 -50 -23 -94.5t-62.5 -77.5t-92.5 -52t-113 -19q-73 0 -137 22.5t-127 57.5z" />
    <glyph glyph-name="uni0406" unicode="&#x406;" horiz-adv-x="379" 
d="M366 667l-82 -667h-245l82 667h245z" />
    <glyph glyph-name="uni0407" unicode="&#x407;" horiz-adv-x="400" 
d="M51 0l82 667h242l-82 -667h-242zM291 802q0 42 24 71t67 29q37 0 58 -23t21 -59q0 -42 -24 -71t-67 -29q-37 0 -58 23t-21 59zM164 720q-37 0 -58 23t-21 59q0 42 24 71t67 29q37 0 58 -23t21 -59q0 -42 -24 -71t-67 -29z" />
    <glyph glyph-name="uni0408" unicode="&#x408;" horiz-adv-x="456" 
d="M145 -17q-46 0 -89 13t-90 39l78 216q28 -60 67 -60q19 0 26.5 12.5t12.5 47.5l51 416h242l-57 -467q-4 -32 -9 -55t-13 -41t-19 -32t-27 -27q-34 -29 -79 -45.5t-94 -16.5z" />
    <glyph glyph-name="uni0409" unicode="&#x409;" horiz-adv-x="1118" 
d="M2 191q10 -4 18.5 -5t20.5 -1q30 0 49.5 9t32 25.5t19.5 39t10 49.5l44 359h594l-31 -254h84q49 0 93 -8.5t78 -29.5t54 -57.5t20 -92.5q0 -35 -7.5 -63t-19 -49.5t-26.5 -37t-30 -26.5q-24 -17 -51.5 -27t-55 -15t-54 -6t-47.5 -1h-328l59 471h-136l-27 -215
q-5 -39 -14.5 -70t-21.5 -55t-24.5 -41t-24.5 -29q-25 -25 -52 -39t-54 -21.5t-52.5 -9.5t-47.5 -2q-25 0 -47.5 1.5t-46.5 6.5zM750 156q17 0 34.5 1t32 7t24 18t9.5 34q0 17 -7.5 26.5t-19.5 14t-26.5 5.5t-27.5 1h-29l-13 -107h23z" />
    <glyph glyph-name="uni040A" unicode="&#x40a;" horiz-adv-x="1072" 
d="M121 667h242l-31 -254h142l32 254h238l-31 -254h84q49 0 93 -8.5t78 -29.5t54 -57.5t20 -92.5q0 -35 -7.5 -63t-19 -49.5t-26.5 -37t-30 -26.5q-24 -17 -51.5 -27t-55 -15t-54 -6t-47.5 -1h-328l32 257h-144l-30 -257h-242zM704 156q15 0 32 1t32 6t25 16t10 31
q0 17 -7.5 26.5t-19.5 14t-26.5 5.5t-27.5 1h-28l-13 -101h23z" />
    <glyph glyph-name="uni040B" unicode="&#x40b;" horiz-adv-x="783" 
d="M40 458l25 209h586l-25 -209l-224 6l-10 -78q31 8 58 10t58 2q44 0 87 -7t77 -26t55 -53t21 -87q0 -23 -2.5 -42t-4.5 -37l-18 -146h-240l15 131q1 10 2.5 19.5t1.5 20.5q0 15 -6 25t-16 15.5t-22.5 7.5t-25.5 2q-14 0 -30.5 -1.5t-30.5 -4.5l-26 -215h-242l57 464z" />
    <glyph glyph-name="uni040C" unicode="&#x40c;" horiz-adv-x="732" 
d="M121 667h242l-22 -173q-3 -24 -8 -54.5t-13 -61.5l7 -2q11 27 21 47.5t21 37.5l129 206h282l-260 -338l170 -329h-255l-85 192q-7 15 -12 27t-8.5 23.5t-7 22.5t-6.5 25l-7 -1v-20q0 -16 -1.5 -38t-3.5 -39l-23 -192h-242zM503 916l117 -73l-157 -119l-87 55z" />
    <glyph glyph-name="uni040E" unicode="&#x40e;" horiz-adv-x="714" 
d="M299 667l72 -188q7 -18 11 -35t6 -38h8q5 18 11.5 38t14.5 37l90 186h263l-389 -667h-266l87 153q12 21 23.5 37.5t29.5 35.5l-220 441h259zM419 725q-37 0 -70.5 6t-61.5 21t-50 40t-35 62l144 50q4 -32 23 -47.5t51 -15.5q33 0 55.5 15t30.5 48l138 -50
q-15 -38 -38 -62.5t-51.5 -39.5t-63 -21t-72.5 -6z" />
    <glyph glyph-name="uni040F" unicode="&#x40f;" horiz-adv-x="761" 
d="M121 667h242l-58 -471h142l58 471h243l-82 -667h-212l-19 -149h-206l20 149h-210z" />
    <glyph glyph-name="uni0410" unicode="&#x410;" horiz-adv-x="708" 
d="M-28 0l308 667h276l124 -667h-247l-5 89h-164l-32 -89h-260zM320 241h92l-10 121q-1 8 -1.5 20.5t-0.5 26.5v15.5t0.5 12t1 11.5t1.5 14h-8q-7 -29 -13 -50t-17 -50z" />
    <glyph glyph-name="uni0411" unicode="&#x411;" horiz-adv-x="677" 
d="M39 0l82 667h518l-20 -178h-287l-10 -76h80q50 0 94.5 -8.5t78 -30t53 -58.5t19.5 -93q0 -66 -24 -109.5t-64.5 -68.5t-93 -35t-109.5 -10h-317zM314 156q17 0 35 1t32.5 7t23.5 18.5t9 34.5q0 17 -8 26t-20 13.5t-26 5.5t-27 1h-29l-13 -107h23z" />
    <glyph glyph-name="uni0412" unicode="&#x412;" horiz-adv-x="681" 
d="M39 0l82 667h299q81 0 130 -23.5t74 -74.5q9 -18 13 -37t4 -35q0 -60 -28.5 -98.5t-82.5 -50.5l1 -6q53 -11 81 -48.5t28 -94.5q0 -44 -17 -81t-47.5 -63t-72 -40.5t-90.5 -14.5h-374zM290 156h16q54 0 78 15.5t24 53.5q0 24 -15 35t-48 11h-41zM342 411q39 0 57 12
t18 40q0 44 -50 44h-34l-12 -96h21z" />
    <glyph glyph-name="uni0413" unicode="&#x413;" horiz-adv-x="535" 
d="M559 667l-22 -178h-196l-60 -489h-242l82 667h438z" />
    <glyph glyph-name="uni0414" unicode="&#x414;" horiz-adv-x="825" 
d="M10 196q48 0 77 18t45.5 47.5t24 67t12.5 76.5l32 262h577l-58 -471h80l-40 -329h-204l16 133h-382l-16 -133h-204zM482 192l34 282h-120l-16 -126q-3 -23 -8 -45.5t-14.5 -42.5t-24 -36.5t-36.5 -28.5v-3h185z" />
    <glyph glyph-name="uni0415" unicode="&#x415;" horiz-adv-x="549" 
d="M559 667l-21 -174h-197l-9 -73h180l-20 -165h-180l-9 -76h204l-22 -179h-446l82 667h438z" />
    <glyph glyph-name="uni0416" unicode="&#x416;" horiz-adv-x="1063" 
d="M233 356l-150 311h250l75 -197q6 -15 10 -31t6.5 -29.5t3.5 -23t1 -10.5l10 2q1 18 1.5 26.5t0.5 13t0.5 7.5t0.5 10l3 31.5t3 27.5l22 173h230l-23 -173q-3 -23 -6.5 -48t-14.5 -68l10 -2q9 29 21 52t18 33l129 206h259l-242 -320l163 -347h-243l-85 192q-8 17 -16.5 40
t-14.5 58l-10 -1q0 -9 -0.5 -22.5t-1.5 -27.5t-1.5 -26.5t-1.5 -20.5l-22 -192h-230l23 192q0 1 0.5 6t2.5 16t5.5 29t8.5 46l-8 1q-11 -23 -24.5 -48.5t-30.5 -49.5l-133 -192h-247z" />
    <glyph glyph-name="uni0417" unicode="&#x417;" horiz-adv-x="653" 
d="M101 245q32 -36 76 -58t93 -22q12 0 26.5 1.5t27.5 6.5t22 14.5t9 25.5q0 14 -9 22t-21.5 11.5t-26.5 4.5t-24 1h-85l20 162h67q11 0 27 1t31 5t25.5 13t10.5 25q0 12 -7.5 20t-19 12t-23.5 5.5t-21 1.5q-43 0 -82 -18t-73 -42l-56 178q46 22 86.5 35.5t74 21t59.5 9.5
t45 2q45 0 91 -10.5t83.5 -33.5t61.5 -60t24 -89q0 -54 -28.5 -89.5t-77.5 -52.5l-1 -6q48 -12 75.5 -47t27.5 -85q0 -62 -26 -105.5t-68 -70.5t-95 -39t-107 -12q-84 0 -154.5 20t-142.5 62z" />
    <glyph glyph-name="uni0418" unicode="&#x418;" horiz-adv-x="784" 
d="M39 0l82 667h238l-26 -204q-5 -37 -12 -71t-20 -69l10 -5q17 32 36.5 64t36.5 56l166 229h221l-82 -667h-238l21 172q3 22 6 40.5t6.5 36.5t8.5 36.5t11 39.5l-10 2q-8 -15 -24.5 -43.5t-50.5 -73.5l-159 -210h-221z" />
    <glyph glyph-name="uni0419" unicode="&#x419;" horiz-adv-x="784" 
d="M39 0l82 667h238l-26 -204q-5 -37 -12 -71t-20 -69l10 -5q17 32 36.5 64t36.5 56l166 229h221l-82 -667h-238l21 172q3 22 6 40.5t6.5 36.5t8.5 36.5t11 39.5l-10 2q-8 -15 -24.5 -43.5t-50.5 -73.5l-159 -210h-221zM467 725q-37 0 -70.5 6t-61.5 21t-50 40t-35 62
l144 50q4 -32 23 -47.5t51 -15.5q33 0 55.5 15t30.5 48l138 -50q-15 -38 -38 -62.5t-51.5 -39.5t-63 -21t-72.5 -6z" />
    <glyph glyph-name="uni041A" unicode="&#x41a;" horiz-adv-x="732" 
d="M39 0l82 667h242l-22 -173q-3 -24 -8 -54.5t-13 -61.5l7 -2q11 27 21 47.5t21 37.5l129 206h282l-260 -338l170 -329h-255l-85 192q-7 15 -12 27t-8.5 23.5t-7 22.5t-6.5 25l-7 -1v-20q0 -16 -1.5 -38t-3.5 -39l-23 -192h-242z" />
    <glyph glyph-name="uni041B" unicode="&#x41b;" horiz-adv-x="797" 
d="M-8 191q10 -4 18.5 -5t20.5 -1q30 0 49.5 9t32 25.5t19.5 39t10 49.5l44 359h598l-82 -667h-242l58 471h-136l-27 -215q-5 -39 -14.5 -70t-21.5 -55t-24.5 -41t-24.5 -29q-25 -25 -52 -39t-54 -21.5t-52.5 -9.5t-47.5 -2q-25 0 -47.5 1.5t-46.5 6.5z" />
    <glyph glyph-name="uni041C" unicode="&#x41c;" horiz-adv-x="948" 
d="M12 0l194 667h256l26 -208q2 -18 3.5 -36t1.5 -38q0 -23 -1 -37t-5 -36h10q4 23 9.5 44t12 43.5t16 47t21.5 55.5l67 165h255l2 -667h-235l13 197q2 27 4 49t4.5 43.5t6 43.5t8.5 49l-9 2l-5 -19q-7 -26 -12 -44.5t-11 -36.5t-13 -37t-18 -45l-85 -202h-152l-26 211
q-3 27 -5.5 54.5t-2.5 55.5v13v23.5t2 26.5h-8l-2 -15q-3 -23 -5.5 -41.5t-5.5 -36t-7 -36.5t-10 -44l-49 -211h-245z" />
    <glyph glyph-name="uni041D" unicode="&#x41d;" horiz-adv-x="760" 
d="M121 667h242l-28 -228h142l28 228h242l-82 -667h-242l30 243h-143l-29 -243h-242z" />
    <glyph glyph-name="uni041E" unicode="&#x41e;" horiz-adv-x="808" 
d="M421 -17q-79 0 -147 26t-118.5 72t-79 108.5t-28.5 134.5q0 76 28.5 141.5t78 114t117 76t144.5 27.5q76 0 143 -24t117.5 -69t80 -108.5t29.5 -142.5q0 -76 -28 -141t-76.5 -113t-115.5 -75t-145 -27zM292 322q0 -28 9 -51.5t24.5 -41t37 -27t47.5 -9.5q28 0 52.5 11
t42 30t27.5 45t10 56q0 27 -9 50t-25 40t-37.5 27t-46.5 10q-27 0 -51 -11t-42 -30t-28.5 -44.5t-10.5 -54.5z" />
    <glyph glyph-name="uni041F" unicode="&#x41f;" horiz-adv-x="760" 
d="M121 667h626l-82 -667h-242l58 471h-143l-57 -471h-242z" />
    <glyph glyph-name="uni0420" unicode="&#x420;" horiz-adv-x="665" 
d="M39 0l82 667h278q69 0 113 -12t79 -39q40 -32 62 -78t22 -99q0 -48 -19 -93t-51 -77q-37 -35 -85 -50.5t-122 -15.5h-92l-25 -203h-242zM348 369q92 0 92 71q0 29 -16 41t-58 12h-25l-15 -124h22z" />
    <glyph glyph-name="uni0421" unicode="&#x421;" horiz-adv-x="582" 
d="M367 -17q-69 0 -128 25t-101.5 69t-66.5 104.5t-24 132.5q0 79 28 147t77 117t116.5 77t146.5 28q87 0 173 -31l-20 -237q-34 27 -66 39.5t-67 12.5q-30 0 -56.5 -12t-47 -32t-32 -47t-11.5 -57q0 -26 10 -47.5t27 -38t41 -25.5t51 -9q38 0 69 14t62 43l-29 -243
q-49 -17 -82.5 -23.5t-69.5 -6.5z" />
    <glyph glyph-name="uni0422" unicode="&#x422;" horiz-adv-x="489" 
d="M536 667l-26 -210l-115 7l-57 -464h-245l57 464l-115 -7l25 210h476z" />
    <glyph glyph-name="uni0423" unicode="&#x423;" horiz-adv-x="714" 
d="M40 667h259l72 -188q7 -18 11 -35t6 -38h8q5 18 11.5 38t14.5 37l90 186h263l-389 -667h-266l87 153q12 21 23.5 37.5t29.5 35.5z" />
    <glyph glyph-name="uni0424" unicode="&#x424;" horiz-adv-x="938" 
d="M40 340q0 58 19 112t54 93q18 21 43.5 39t60 32t78.5 22t100 8l12 98h240l-12 -98q62 0 115 -16t91.5 -48.5t60.5 -81t22 -113.5q0 -58 -19 -113t-55 -91q-35 -35 -102.5 -60t-179.5 -25l-12 -98h-240l13 98q-58 0 -110.5 14t-92 44t-63 75.5t-23.5 108.5zM388 464
q-25 0 -47 -5t-39 -17t-27 -31t-10 -47q0 -47 29 -65.5t71 -18.5h6l23 184h-6zM569 280h5q25 0 48 5.5t39.5 18t26.5 32t10 47.5q0 23 -8 38.5t-22 25t-32.5 13.5t-38.5 4h-5z" />
    <glyph glyph-name="uni0425" unicode="&#x425;" horiz-adv-x="740" 
d="M250 356l-181 311h273l32 -84q8 -22 13 -37t7 -31h6q5 16 14.5 37.5t17.5 35.5l41 79h292l-253 -321l200 -346h-261l-51 109q-9 19 -14.5 34.5t-12.5 41.5h-8q-6 -20 -10 -29.5t-12 -22.5l-78 -133h-293z" />
    <glyph glyph-name="uni0426" unicode="&#x426;" horiz-adv-x="808" 
d="M121 667h242l-58 -471h142l58 471h243l-58 -471h105l-39 -329h-206l16 133h-527z" />
    <glyph glyph-name="uni0427" unicode="&#x427;" horiz-adv-x="724" 
d="M300 221q-44 0 -87 7t-77 26t-55 52.5t-21 87.5q0 8 1.5 25t2.5 26l27 222h240l-21 -172q-2 -17 -3 -36t17 -33q12 -9 29 -11t24 -2q14 0 32 2t30 4l30 248h242l-82 -667h-242l29 233q-31 -8 -58.5 -10t-57.5 -2z" />
    <glyph glyph-name="uni0428" unicode="&#x428;" horiz-adv-x="1088" 
d="M121 667h238l-58 -471h120l58 471h238l-58 -471h120l58 471h238l-82 -667h-954z" />
    <glyph glyph-name="uni0429" unicode="&#x429;" horiz-adv-x="1144" 
d="M121 667h238l-58 -471h120l58 471h238l-58 -471h120l58 471h238l-59 -471h115l-39 -329h-206l16 133h-863z" />
    <glyph glyph-name="uni042A" unicode="&#x42a;" horiz-adv-x="762" 
d="M45 457l26 210h363l-31 -254h84q49 0 93 -8.5t78 -29.5t54 -57.5t20 -92.5q0 -35 -7.5 -63t-19 -49.5t-26.5 -37t-30 -26.5q-24 -17 -51.5 -27t-55 -15t-54 -6t-47.5 -1h-332l57 464zM394 156q17 0 34.5 1t32 7t24 18t9.5 34q0 17 -7.5 26.5t-19.5 14t-26.5 5.5t-27.5 1
h-29l-13 -107h23z" />
    <glyph glyph-name="uni042B" unicode="&#x42b;" horiz-adv-x="1007" 
d="M122 667h242l-31 -254h78q49 0 93.5 -8.5t78.5 -30t53.5 -58.5t19.5 -93q0 -34 -7 -61.5t-19 -49t-27 -37.5t-30 -27q-23 -17 -51 -26.5t-56.5 -14t-54.5 -6t-46 -1.5h-326zM670 0l82 667h242l-82 -667h-242zM324 156q17 0 34.5 1t32 7t24 18t9.5 34q0 17 -7.5 26.5
t-19.5 14t-26.5 5.5t-27.5 1h-29l-13 -107h23z" />
    <glyph glyph-name="uni042C" unicode="&#x42c;" horiz-adv-x="692" 
d="M122 667h242l-31 -254h84q49 0 93 -8.5t78 -29.5t54 -57.5t20 -92.5q0 -35 -7.5 -63t-19 -49.5t-26.5 -37t-30 -26.5q-24 -17 -51.5 -27t-55 -15t-54 -6t-47.5 -1h-332zM324 156q17 0 34.5 1t32 7t24 18t9.5 34q0 17 -7.5 26.5t-19.5 14t-26.5 5.5t-27.5 1h-29l-13 -107
h23z" />
    <glyph glyph-name="uni042D" unicode="&#x42d;" horiz-adv-x="670" 
d="M56 249q34 -37 79 -56.5t96 -19.5q26 0 50 4t44.5 14.5t36.5 28t25 44.5h-219l18 146h217q-8 24 -23 39.5t-34 25.5t-41.5 14t-45.5 4q-55 0 -100 -22t-83 -60l28 222q57 29 108.5 39.5t96.5 10.5q76 0 138.5 -21.5t107 -63t69 -101.5t24.5 -138q0 -92 -31 -163t-79 -117
q-32 -30 -66.5 -49t-70 -29.5t-69.5 -14t-65 -3.5q-65 0 -123.5 13t-113.5 42z" />
    <glyph glyph-name="uni042E" unicode="&#x42e;" horiz-adv-x="1143" 
d="M39 0l82 667h242l-28 -228h81q16 58 48.5 103.5t77 76.5t98 47.5t113.5 16.5q76 0 143.5 -24t117 -69t78.5 -108.5t29 -142.5q0 -78 -29 -142.5t-74 -109.5q-44 -44 -111.5 -74t-163.5 -30q-62 0 -119.5 16t-104 48.5t-78 81t-41.5 114.5h-90l-29 -243h-242zM627 322
q0 -26 8.5 -49.5t23.5 -41t37 -28t49 -10.5q30 0 54.5 11.5t41.5 31t26.5 45t9.5 54.5q0 25 -8.5 48.5t-24 40.5t-37.5 27.5t-48 10.5q-28 0 -52 -11.5t-42 -31t-28 -45t-10 -52.5z" />
    <glyph glyph-name="uni042F" unicode="&#x42f;" horiz-adv-x="707" 
d="M25 0l181 251q-30 6 -53.5 21.5t-39.5 38t-24.5 50.5t-8.5 57q0 54 18.5 99.5t47.5 74.5q27 27 59.5 42t65 22.5t63 9t52.5 1.5h308l-82 -667h-242l17 141q1 5 4.5 27.5t16.5 76.5l-7 1q-5 -29 -16 -57t-19 -42l-83 -147h-258zM390 493q-35 0 -56 -16t-21 -53
q0 -15 6.5 -24t16.5 -14.5t22.5 -7.5t24.5 -2h34l14 117h-41z" />
    <glyph glyph-name="uni0430" unicode="&#x430;" horiz-adv-x="652" 
d="M220 -13q-39 0 -74.5 17.5t-62.5 47.5t-42.5 69.5t-15.5 83.5q0 55 19 105.5t51.5 89t74.5 61t89 22.5q56 0 88.5 -23t52.5 -77l8 3q-3 25 -4 38t-1 33v10h230l-58 -467h-229q3 12 5 20.5t4.5 17t6 19t9.5 26.5l-7 3q-30 -53 -63.5 -76t-80.5 -23zM259 223
q0 -26 16 -42.5t41 -16.5q28 0 46.5 21t18.5 53q0 26 -15.5 43.5t-39.5 17.5q-27 0 -47 -22.5t-20 -53.5z" />
    <glyph glyph-name="uni0431" unicode="&#x431;" horiz-adv-x="650" 
d="M40 289q0 35 6 75t18.5 80t32 77t47.5 65q21 21 44.5 36t51 26t59 18.5t66.5 14.5q40 8 63.5 13.5t37.5 18.5q13 11 14 27h180q-7 -42 -24.5 -73.5t-44 -55t-60.5 -39.5t-73 -26l-67 -18q-35 -9 -65.5 -19t-54.5 -26.5t-40.5 -42t-22.5 -65.5l8 -1q27 48 71.5 69.5
t98.5 21.5q51 0 95 -14.5t76.5 -42.5t50.5 -69.5t18 -94.5q0 -52 -18 -97t-51 -79q-25 -26 -53.5 -41.5t-57.5 -24.5t-58.5 -12t-56.5 -3q-24 0 -51 2.5t-54.5 10.5t-55 22.5t-51.5 39.5q-14 14 -28 35t-25.5 48.5t-18.5 63.5t-7 80zM272 235q0 -26 16.5 -46t43.5 -20
q31 0 47.5 23t16.5 52q0 26 -15.5 46t-42.5 20q-31 0 -48.5 -23t-17.5 -52z" />
    <glyph glyph-name="uni0432" unicode="&#x432;" horiz-adv-x="597" 
d="M77 467h329q31 0 59.5 -5.5t50.5 -19.5t35 -37.5t13 -58.5q0 -42 -23 -71t-65 -35v-4q42 -7 66.5 -33t24.5 -69q0 -39 -15 -65t-39.5 -41t-56 -21.5t-64.5 -6.5h-372zM292 110q23 0 39.5 9.5t16.5 35.5q0 22 -13.5 29t-32.5 7h-37l-10 -81h37zM276 279h33q22 0 37 9.5
t15 33.5q0 23 -13.5 29t-32.5 6h-30z" />
    <glyph glyph-name="uni0433" unicode="&#x433;" horiz-adv-x="470" 
d="M77 467h393l-21 -174h-161l-36 -293h-232z" />
    <glyph glyph-name="uni0434" unicode="&#x434;" horiz-adv-x="700" 
d="M-30 -131l35 281h5q34 0 56.5 14t36 36.5t20.5 51t10 57.5l19 158h495l-39 -317h67l-34 -281h-174l16 131h-322l-17 -131h-174zM392 150l21 167h-78l-8 -70q-4 -32 -16.5 -58.5t-44.5 -38.5h126z" />
    <glyph glyph-name="uni0435" unicode="&#x435;" horiz-adv-x="618" 
d="M308 -13q-62 0 -113.5 17.5t-88.5 49.5t-57.5 76.5t-20.5 98.5q0 57 22 105.5t60.5 84t91 55.5t114.5 20q58 0 108 -19t87 -52t58.5 -77.5t21.5 -95.5q0 -8 -1 -20t-3 -28h-331q-1 -5 -1 -9v-8q0 -29 14 -46t37 -17q34 0 50 40h222q-7 -20 -13 -34.5t-13.5 -26t-16.5 -22
t-22 -21.5q-82 -71 -205 -71zM322 360q-47 0 -57 -62h108q-1 62 -51 62z" />
    <glyph glyph-name="uni0436" unicode="&#x436;" horiz-adv-x="970" 
d="M-15 0l191 247l-130 220h253l37 -84q4 -10 8 -17.5t7.5 -18t8.5 -27.5t11 -46l7 1q1 25 1.5 42.5t1.5 32.5t2 29.5t3 31.5l7 56h220l-6 -56q-2 -20 -8.5 -59t-15.5 -77l7 -1q14 36 29.5 61t31.5 48l57 84h267l-201 -241l134 -226h-248l-42 91q-15 32 -24.5 58t-15.5 56
l-9 -1q1 -9 2 -21.5t1 -26t-0.5 -26.5t-1.5 -22l-14 -108h-220l13 108q1 10 3.5 23.5t6 27t7.5 25.5t8 20l-9 1q-12 -25 -27 -51.5t-41 -62.5l-64 -91h-248z" />
    <glyph glyph-name="uni0437" unicode="&#x437;" horiz-adv-x="543" 
d="M66 186q28 -25 64 -39t74 -14q9 0 20.5 1t22.5 4t18.5 10t7.5 19q0 17 -20 24q-2 1 -13 2.5t-40 1.5h-46l14 100h50q26 0 37 1.5t14 2.5q15 4 19 12t4 14q0 10 -8 16t-18.5 8.5t-21.5 3t-18 0.5q-38 0 -70.5 -13.5t-61.5 -36.5l-40 142q66 31 119 39.5t97 8.5
q37 0 78 -5.5t75.5 -22t57 -45.5t22.5 -76q0 -38 -22 -63.5t-57 -35.5l1 -9q34 -7 55 -30.5t21 -58.5q0 -24 -10 -50.5t-33 -49.5q-20 -20 -44.5 -31.5t-52 -18t-56 -8.5t-55.5 -2q-52 0 -111.5 10t-128.5 45z" />
    <glyph glyph-name="uni0438" unicode="&#x438;" horiz-adv-x="673" 
d="M20 0l57 467h228l-20 -146q-4 -25 -9 -46.5t-16 -44.5l11 -4q8 17 15 30t18 29l124 182h227l-57 -467h-228l19 140q3 23 7 44.5t12 47.5l-10 4q-14 -28 -23 -42t-19 -28l-109 -166h-227z" />
    <glyph glyph-name="uni0439" unicode="&#x439;" horiz-adv-x="673" 
d="M20 0l57 467h228l-20 -146q-4 -25 -9 -46.5t-16 -44.5l11 -4q8 17 15 30t18 29l124 182h227l-57 -467h-228l19 140q3 23 7 44.5t12 47.5l-10 4q-14 -28 -23 -42t-19 -28l-109 -166h-227zM388 523q-34 0 -67 5.5t-61.5 19t-50.5 37t-33 59.5l145 51q5 -29 19 -45.5
t46 -16.5t50 16t26 46l134 -51q-14 -34 -35 -57t-48 -37.5t-59 -20.5t-66 -6z" />
    <glyph glyph-name="uni043A" unicode="&#x43a;" horiz-adv-x="650" 
d="M20 0l58 467h231l-7 -56l-3 -21t-5 -32.5t-7 -39.5t-9 -43l7 -1q14 36 29.5 61t31.5 48l57 84h267l-201 -241l134 -226h-248l-42 91q-15 32 -24.5 58t-15.5 56l-9 -1q1 -9 2 -21.5t1 -26t-0.5 -26.5t-1.5 -22l-14 -108h-231z" />
    <glyph glyph-name="uni043B" unicode="&#x43b;" horiz-adv-x="663" 
d="M1 170q6 -2 12 -2h11q25 0 41 8.5t25 23t13.5 34t7.5 41.5l22 192h510l-57 -467h-232l37 299h-74l-18 -130q-5 -35 -19.5 -64t-42.5 -54q-22 -20 -44.5 -31.5t-45 -17t-44 -7t-41.5 -1.5q-21 0 -40.5 1.5t-41.5 4.5z" />
    <glyph glyph-name="uni043C" unicode="&#x43c;" horiz-adv-x="857" 
d="M10 0l132 467h255l32 -186q2 -11 3.5 -30t-0.5 -44h10q4 20 9 36.5t13 36.5l75 187h255l18 -467h-218l-6 175q-1 14 1.5 34t4.5 32h-10q-13 -48 -19.5 -68t-10.5 -28l-66 -145h-150l-29 143q-4 19 -5 49.5t-1 49.5h-10q-3 -21 -7 -38t-10 -38l-48 -166h-218z" />
    <glyph glyph-name="uni043D" unicode="&#x43d;" horiz-adv-x="633" 
d="M77 467h232l-18 -144h74l18 144h232l-57 -467h-232l19 155h-74l-19 -155h-232z" />
    <glyph glyph-name="uni043E" unicode="&#x43e;" horiz-adv-x="637" 
d="M29 236q0 63 25 111t67 80.5t96 49t112 16.5q57 0 108 -16.5t89.5 -48t61.5 -78t23 -106.5t-23.5 -108t-63 -81t-91.5 -50.5t-109 -17.5q-56 0 -109 16t-94.5 47.5t-66.5 78t-25 107.5zM324 310q-31 0 -48.5 -23t-17.5 -52q0 -26 16.5 -46t43.5 -20q31 0 47.5 23t16.5 52
q0 26 -15.5 46t-42.5 20z" />
    <glyph glyph-name="uni043F" unicode="&#x43f;" horiz-adv-x="633" 
d="M77 467h538l-57 -467h-232l37 299h-74l-37 -299h-232z" />
    <glyph glyph-name="uni0440" unicode="&#x440;" horiz-adv-x="645" 
d="M-4 -229l86 696h232q-2 -11 -4 -19t-4 -15.5t-4.5 -16t-6.5 -20.5l9 -4q28 50 57 71t74 21q39 0 72.5 -18.5t58.5 -50t39.5 -74t14.5 -90.5q0 -53 -17.5 -101t-46.5 -84t-68 -57.5t-82 -21.5q-55 0 -92.5 24.5t-53.5 71.5l-8 -3q2 -20 2.5 -32t0.5 -25q0 -18 -1 -37
t-4 -40l-22 -175h-232zM276 225q0 -28 15 -45t40 -17q27 0 44 21t17 54q0 28 -15.5 46t-38.5 18q-26 0 -44 -22.5t-18 -54.5z" />
    <glyph glyph-name="uni0441" unicode="&#x441;" horiz-adv-x="437" 
d="M262 -13q-52 0 -95 17t-74 48t-48.5 74t-17.5 94q0 61 19.5 111.5t55.5 86.5t86.5 55.5t111.5 19.5q17 0 32 -1t30.5 -4t34 -8t42.5 -13l-29 -196q-19 22 -38 32t-44 10q-33 0 -53 -22t-20 -58q0 -32 18 -50.5t50 -18.5q41 0 78 33l-34 -192q-19 -6 -32.5 -9.5
t-25.5 -5.5t-23 -2.5t-24 -0.5z" />
    <glyph glyph-name="uni0442" unicode="&#x442;" horiz-adv-x="469" 
d="M131 293l-106 -6l22 180h442l-22 -180l-104 6l-36 -293h-232z" />
    <glyph glyph-name="uni0443" unicode="&#x443;" horiz-adv-x="591" 
d="M19 -229l88 169q11 19 18.5 32t14.5 23t14 19.5t18 21.5l-141 431h238l20 -130q5 -28 6 -43t1 -32v-20.5t-2 -27.5l10 -1q4 22 8 39t7.5 32t8 29t10.5 31l43 123h249l-363 -696h-248z" />
    <glyph glyph-name="uni0444" unicode="&#x444;" horiz-adv-x="808" 
d="M24 208q0 67 23 117t63 83t94.5 49.5t117.5 16.5h2l25 203h221l-25 -203q49 -1 93 -16t77 -43t52 -69t19 -93q0 -69 -22 -118t-61.5 -80.5t-94 -46.5t-118.5 -15h-4l-27 -222h-221l27 222h-4q-51 0 -94 14t-75 41t-50 67t-18 93zM322 310q-41 0 -68 -21.5t-27 -64.5
q0 -36 21 -51.5t55 -15.5h3l19 153h-3zM488 157q42 0 68.5 20.5t26.5 65.5q0 33 -22.5 50t-53.5 17h-3l-19 -153h3z" />
    <glyph glyph-name="uni0445" unicode="&#x445;" horiz-adv-x="633" 
d="M-30 0l217 246l-155 221h263l16 -49q4 -11 5.5 -19.5t3.5 -24.5l9 1q7 23 18 43l27 49h282l-211 -234l162 -233h-255l-20 43q-8 18 -11.5 30t-5.5 29l-7 1q-4 -11 -8 -19t-17 -29l-35 -55h-278z" />
    <glyph glyph-name="uni0446" unicode="&#x446;" horiz-adv-x="675" 
d="M77 467h232l-37 -299h72l37 299h232l-37 -299h79l-36 -299h-174l16 131h-441z" />
    <glyph glyph-name="uni0447" unicode="&#x447;" horiz-adv-x="616" 
d="M92 163q-21 15 -32 32.5t-15.5 36t-4.5 35.5t2 30l21 170h227l-15 -126q-2 -13 -0.5 -24t9.5 -18q5 -5 14 -6.5t16 -1.5q9 0 16.5 2t12.5 4l21 170h232l-57 -467h-232l17 141q-46 -10 -94 -10q-13 0 -30.5 1t-36 4t-37 9.5t-34.5 17.5z" />
    <glyph glyph-name="uni0448" unicode="&#x448;" horiz-adv-x="899" 
d="M77 467h218l-37 -299h74l37 299h218l-37 -299h74l37 299h218l-57 -467h-802z" />
    <glyph glyph-name="uni0449" unicode="&#x449;" horiz-adv-x="949" 
d="M77 467h218l-37 -299h74l37 299h218l-37 -299h74l37 299h218l-37 -299h87l-37 -299h-174l17 131h-715z" />
    <glyph glyph-name="uni044A" unicode="&#x44a;" horiz-adv-x="670" 
d="M25 287l22 180h331l-19 -156h115q36 0 68 -7.5t56 -24t38 -44.5t14 -68q0 -49 -18 -81t-48 -51t-69.5 -27t-81.5 -8h-343l35 293zM371 116q25 0 42 10t17 38q0 22 -14.5 28.5t-33.5 6.5h-37l-10 -83h36z" />
    <glyph glyph-name="uni044B" unicode="&#x44b;" horiz-adv-x="884" 
d="M76 467h232l-19 -156h99q37 0 69 -7.5t56 -24.5t37.5 -45t13.5 -69q0 -39 -13 -67t-30 -45q-29 -30 -73.5 -41.5t-100.5 -11.5h-327zM579 0l57 467h228l-57 -467h-228zM301 116q25 0 42 10t17 38q0 22 -14.5 28.5t-33.5 6.5h-37l-10 -83h36z" />
    <glyph glyph-name="uni044C" unicode="&#x44c;" horiz-adv-x="600" 
d="M20 0l56 467h232l-19 -156h115q36 0 68 -7.5t56 -24t38 -44.5t14 -68q0 -49 -18 -81t-48 -51t-69.5 -27t-81.5 -8h-343zM265 116h36q25 0 42 10t17 38q0 22 -14.5 28.5t-33.5 6.5h-37z" />
    <glyph glyph-name="uni044D" unicode="&#x44d;" horiz-adv-x="537" 
d="M49 187q52 -60 132 -60q16 0 33 3t31.5 9.5t25.5 18t17 29.5h-167l13 110h161q-16 30 -42.5 42.5t-58.5 12.5q-35 0 -70.5 -15t-60.5 -40l20 165q46 17 84.5 23.5t75.5 6.5q58 0 107.5 -15t85 -45t55.5 -75.5t20 -106.5q0 -73 -23.5 -119.5t-50.5 -72.5
q-24 -24 -51.5 -37.5t-55 -21t-54.5 -9.5t-51 -2q-52 0 -99 8t-96 33z" />
    <glyph glyph-name="uni044E" unicode="&#x44e;" horiz-adv-x="912" 
d="M20 0l57 467h218l-19 -149h63q15 44 41.5 77t61 54.5t76 32.5t86.5 11q55 0 106 -15.5t90 -46t62.5 -75.5t23.5 -104q0 -48 -17.5 -97.5t-55.5 -88.5q-26 -27 -55.5 -42.5t-59 -23.5t-58.5 -10.5t-54 -2.5q-46 0 -87.5 9t-76 29.5t-59 53.5t-35.5 81h-70l-20 -160h-218z
M533 235q0 -26 16.5 -46t43.5 -20q31 0 47.5 22.5t16.5 51.5q0 26 -15 46.5t-43 20.5q-31 0 -48.5 -23t-17.5 -52z" />
    <glyph glyph-name="uni044F" unicode="&#x44f;" horiz-adv-x="627" 
d="M140 158q-47 9 -70.5 43t-23.5 80q0 50 16 81.5t34 49.5q19 19 42 30.5t46.5 16.5t47 6.5t43.5 1.5h332l-57 -467h-230l17 138h-6l-92 -138h-229zM331 345q-27 0 -46 -12t-19 -42q0 -23 15.5 -32t35.5 -9h34l11 95h-31z" />
    <glyph glyph-name="uni0451" unicode="&#x451;" horiz-adv-x="618" 
d="M308 -13q-62 0 -113.5 17.5t-88.5 49.5t-57.5 76.5t-20.5 98.5q0 57 22 105.5t60.5 84t91 55.5t114.5 20q58 0 108 -19t87 -52t58.5 -77.5t21.5 -95.5q0 -8 -1 -20t-3 -28h-331q-1 -5 -1 -9v-8q0 -29 14 -46t37 -17q34 0 50 40h222q-7 -20 -13 -34.5t-13.5 -26t-16.5 -22
t-22 -21.5q-82 -71 -205 -71zM202 540q-21 0 -39.5 8t-32.5 22t-22 32.5t-8 39.5t8 40t22 33t32.5 22t39.5 8t40 -8t33 -22t22 -33t8 -40t-8 -39.5t-22 -32.5t-33 -22t-40 -8zM347 642q0 21 8 40t22 33t32.5 22t39.5 8t40 -8t33 -22t22 -33t8 -40t-8 -39.5t-22 -32.5
t-33 -22t-40 -8t-39.5 8t-32.5 22t-22 32.5t-8 39.5zM322 360q-47 0 -57 -62h108q-1 62 -51 62z" />
    <glyph glyph-name="uni0452" unicode="&#x452;" horiz-adv-x="656" 
d="M24 482l15 120h80l16 127h232l-16 -127h165l-15 -120h-165l-7 -51q-2 -19 -8.5 -45t-12.5 -45l9 -3q23 44 61 68.5t89 24.5q34 0 61.5 -11.5t46.5 -32.5t29 -49t10 -61q0 -14 -1 -27t-3 -24l-29 -234q-7 -58 -24.5 -100t-47 -69t-72.5 -40t-102 -13q-54 0 -101 10l21 174
q8 -7 16.5 -10.5t22.5 -3.5q29 0 41 15t15 42l23 186q1 5 2 11.5t1 12.5q0 33 -34 33q-17 0 -27 -12q-8 -9 -11 -23.5t-6 -37.5l-21 -167h-232l59 482h-80z" />
    <glyph glyph-name="uni0453" unicode="&#x453;" horiz-adv-x="470" 
d="M77 467h393l-21 -174h-161l-36 -293h-232zM312 742l117 -73l-146 -128l-87 55z" />
    <glyph glyph-name="uni0454" unicode="&#x454;" horiz-adv-x="518" 
d="M27 224q0 69 23.5 119.5t64.5 83.5t96.5 49t120.5 16q39 0 81.5 -6.5t94.5 -29.5l-19 -158q-47 56 -120 56q-35 0 -64.5 -12.5t-46.5 -44.5h165l-13 -110h-165q6 -18 17.5 -30t26 -18.5t31.5 -9t34 -2.5q35 0 66 11t54 38l-19 -153q-47 -23 -89 -29.5t-85 -6.5
q-21 0 -45.5 2t-50 9t-50 20.5t-46.5 36.5q-25 26 -43.5 68.5t-18.5 100.5z" />
    <glyph glyph-name="uni0455" unicode="&#x455;" horiz-adv-x="476" 
d="M56 182q74 -49 137 -49q37 0 37 25q0 13 -11.5 21t-40.5 15q-71 16 -99 44t-28 78q0 38 16.5 70.5t46 56t69.5 37t88 13.5t95 -10t103 -32l-57 -141q-53 39 -108 39q-40 0 -40 -24q0 -20 27 -26l42 -10q53 -11 82.5 -45.5t29.5 -82.5q0 -38 -17 -70t-47.5 -55t-72.5 -36
t-93 -13q-60 0 -110.5 15.5t-104.5 38.5z" />
    <glyph glyph-name="uni0456" unicode="&#x456;" horiz-adv-x="332" 
d="M24 0l57 467h231l-57 -467h-231zM212 525q-27 0 -50 8.5t-40 22.5t-27 33.5t-10 42.5t10.5 44t28.5 36.5t42 25t51 9.5q26 0 49.5 -9t41 -24t28 -34.5t10.5 -41.5q0 -24 -10.5 -44.5t-28.5 -35.5t-42.5 -24t-52.5 -9z" />
    <glyph glyph-name="uni0457" unicode="&#x457;" horiz-adv-x="400" 
d="M59 0l57 467h227l-57 -467h-227zM266 623q0 42 24 71t67 29q37 0 58 -23t21 -59q0 -42 -24 -71t-67 -29q-37 0 -58 23t-21 59zM147 541q-37 0 -58 23t-21 59q0 42 24 71t67 29q37 0 58 -23t21 -59q0 -42 -24 -71t-67 -29z" />
    <glyph glyph-name="uni0458" unicode="&#x458;" horiz-adv-x="341" 
d="M1 -229l89 696h231l-89 -696h-231zM220 525q-27 0 -50 8.5t-40 22.5t-27 33.5t-10 42.5t10.5 44t28.5 36.5t42 25t51 9.5q26 0 49.5 -9t41.5 -24t28.5 -34.5t10.5 -41.5q0 -24 -10.5 -44.5t-28.5 -35.5t-43 -24t-53 -9z" />
    <glyph glyph-name="uni0459" unicode="&#x459;" horiz-adv-x="927" 
d="M62 -6q-21 0 -40.5 1.5t-41.5 4.5l21 170q6 -2 12 -2h11q25 0 41 8.5t25 23t13.5 34t7.5 41.5l22 192h502l-18 -156h114q36 0 68 -7.5t56 -24t38 -44.5t14 -68q0 -49 -18 -81t-48 -51t-69.5 -27t-81.5 -8h-336l37 299h-74l-18 -130q-5 -35 -19.5 -64t-42.5 -54
q-22 -20 -44.5 -31.5t-45 -17t-44 -7t-41.5 -1.5zM592 116h36q25 0 42 10t17 38q0 22 -14.5 28.5t-33.5 6.5h-37z" />
    <glyph glyph-name="uni045A" unicode="&#x45a;" horiz-adv-x="905" 
d="M77 467h232l-19 -156h73l18 156h232l-19 -156h115q36 0 68 -7.5t56 -24t38 -44.5t14 -68q0 -49 -18 -81t-48 -51t-69.5 -27t-81.5 -8h-343l24 192h-74l-23 -192h-232zM606 116q25 0 42 10t17 38q0 22 -14.5 28.5t-33.5 6.5h-37l-10 -83h36z" />
    <glyph glyph-name="uni045B" unicode="&#x45b;" horiz-adv-x="656" 
d="M24 482l15 120h80l16 127h232l-16 -127h165l-15 -120h-165l-7 -51q-2 -19 -8.5 -45t-12.5 -45l9 -3q23 44 61 68.5t89 24.5q34 0 61.5 -11.5t46.5 -32.5t29 -49t10 -61q0 -14 -1 -27t-3 -24l-28 -226h-232l23 183q1 5 2 11.5t1 12.5q0 33 -34 33q-17 0 -27 -12
q-8 -9 -11 -23.5t-6 -37.5l-21 -167h-232l59 482h-80z" />
    <glyph glyph-name="uni045C" unicode="&#x45c;" horiz-adv-x="650" 
d="M78 467h231l-7 -56l-3 -21t-5 -32.5t-7 -39.5t-9 -43l7 -1q14 36 29.5 61t31.5 48l57 84h267l-201 -241l134 -226h-248l-42 91q-15 32 -24.5 58t-15.5 56l-9 -1q1 -9 2 -21.5t1 -26t-0.5 -26.5t-1.5 -22l-14 -108h-231zM397 742l117 -73l-146 -128l-87 55z" />
    <glyph glyph-name="uni045E" unicode="&#x45e;" horiz-adv-x="591" 
d="M19 -229l88 169q11 19 18.5 32t14.5 23t14 19.5t18 21.5l-141 431h238l20 -130q5 -28 6 -43t1 -32v-20.5t-2 -27.5l10 -1q4 22 8 39t7.5 32t8 29t10.5 31l43 123h249l-363 -696h-248zM281 695q5 -29 19 -45.5t46 -16.5t50 16t26 46l134 -51q-14 -34 -35 -57t-48 -37.5
t-59 -20.5t-66 -6t-67 5.5t-61.5 19t-50.5 37t-33 59.5z" />
    <glyph glyph-name="uni045F" unicode="&#x45f;" horiz-adv-x="635" 
d="M77 467h232l-37 -299h74l37 299h232l-57 -467h-187l-17 -140h-166l18 140h-186z" />
    <glyph glyph-name="uni0462" unicode="&#x462;" horiz-adv-x="743" 
d="M40 477l19 149h113l14 118h242l-15 -118h169l-18 -149l-169 6l-9 -82h82q51 0 95.5 -8.5t78 -30.5t52.5 -59t19 -95q0 -62 -25.5 -102.5t-66.5 -64t-92.5 -32.5t-103.5 -9h-332l61 483zM355 156h23q16 0 34 1t33 7t24.5 18t9.5 34q0 17 -7.5 26.5t-19.5 14t-26.5 5.5
t-27.5 1h-29z" />
    <glyph glyph-name="uni0463" unicode="&#x463;" horiz-adv-x="639" 
d="M40 467h85l23 200h231l-25 -200h165l-14 -120h-166l-7 -56h113q34 0 65.5 -7t55.5 -23t38.5 -42.5t14.5 -64.5q0 -44 -17 -73.5t-44.5 -47.5t-63.5 -25.5t-74 -7.5h-354l44 347h-85zM344 116q10 0 20.5 2t19 7t14 13t5.5 20q0 21 -15 27.5t-33 6.5h-34l-10 -76h33z" />
    <glyph glyph-name="uni0472" unicode="&#x472;" horiz-adv-x="808" 
d="M48 324q0 77 29 142.5t79 113.5t117 75.5t143 27.5q84 0 157.5 -31t123.5 -81q17 -17 33 -40t28.5 -52t20 -64t7.5 -76q0 -77 -28.5 -142.5t-78 -113t-116 -74t-142.5 -26.5q-74 0 -141.5 24.5t-119 69t-82 107.5t-30.5 140zM302 287q5 -45 34 -70t74 -25q48 0 79 24
t42 71h-229zM533 395q-9 39 -38.5 59.5t-68.5 20.5q-40 0 -69.5 -20.5t-41.5 -59.5h218z" />
    <glyph glyph-name="uni0473" unicode="&#x473;" horiz-adv-x="637" 
d="M101 67q-28 27 -50 68.5t-22 100.5q0 63 25 111t67 80.5t96 49t112 16.5q57 0 108 -16.5t89.5 -48t61.5 -78t23 -106.5t-22 -103t-49 -71q-25 -26 -52 -42t-54.5 -25t-55 -12.5t-54.5 -3.5q-60 0 -117 16t-106 64zM242 203q0 -32 20 -47.5t50 -15.5t51.5 16t26.5 47h-148
zM329 340q-29 0 -50 -15t-29 -44h150q-3 30 -22.5 44.5t-48.5 14.5z" />
    <glyph glyph-name="uni0474" unicode="&#x474;" horiz-adv-x="694" 
d="M54 667h253l26 -210q6 -47 6 -99q0 -22 -1 -41t-3 -48l10 -1q8 63 20 113t32 98l77 188h274l-334 -667h-210z" />
    <glyph glyph-name="uni0475" unicode="&#x475;" horiz-adv-x="565" 
d="M19 467h232l11 -138q1 -14 1.5 -26t0.5 -25q0 -14 -0.5 -27t-2.5 -38h9q5 37 13 70.5t17 59.5l44 124h260l-271 -467h-195z" />
    <glyph glyph-name="uni0490" unicode="&#x490;" horiz-adv-x="595" 
d="M416 668l21 158h198l-39 -337h-255l-60 -489h-242l82 667z" />
    <glyph glyph-name="uni0491" unicode="&#x491;" horiz-adv-x="540" 
d="M77 467h285l18 145h170l-39 -319h-223l-36 -293h-232z" />
    <glyph glyph-name="uni0492" unicode="&#x492;" horiz-adv-x="609" 
d="M41 392h92l35 275h465l-22 -178h-223l-12 -97h160l-21 -175h-160l-27 -217h-242l26 217h-92z" />
    <glyph glyph-name="uni0493" unicode="&#x493;" horiz-adv-x="525" 
d="M21 242h84l27 225h393l-21 -174h-161l-6 -51h111l-16 -124h-111l-14 -118h-232l14 118h-84z" />
    <glyph glyph-name="uni0494" unicode="&#x494;" horiz-adv-x="720" 
d="M39 0l82 667h475l-23 -190h-233l-13 -101q33 12 65.5 17.5t65.5 5.5q48 0 90 -11.5t73.5 -35.5t50 -61.5t18.5 -89.5q0 -32 -6 -57t-15 -44.5t-20 -33.5t-20 -23q-21 -20 -45 -32t-48.5 -18t-48 -7.5t-43.5 -1.5q-31 0 -57.5 3t-57.5 13l49 143q12 -12 30 -12
q27 0 37.5 15.5t10.5 40.5q0 29 -21 40.5t-47 11.5q-15 0 -34 -3t-45 -11l-28 -225h-242z" />
    <glyph glyph-name="uni0495" unicode="&#x495;" horiz-adv-x="577" 
d="M20 0l57 467h393l-21 -174h-161l-6 -51h25q49 0 92.5 -10t76.5 -32.5t52 -59.5t19 -91q0 -56 -18.5 -102.5t-50.5 -78.5q-44 -44 -106.5 -60t-134.5 -16h-13l16 124h3q25 0 42 10t28 26.5t16 38t5 43.5q0 70 -67 70h-2l-13 -104h-232z" />
    <glyph glyph-name="uni0496" unicode="&#x496;" horiz-adv-x="1063" 
d="M233 356l-150 311h250l75 -197q6 -15 10 -31t6.5 -29.5t3.5 -23t1 -10.5l10 2q1 18 1.5 26.5t0.5 13t0.5 7.5t0.5 10l3 31.5t3 27.5l22 173h230l-23 -173q-3 -23 -6.5 -48t-14.5 -68l10 -2q9 29 21 52t18 33l129 206h259l-242 -320l70 -151h117l-39 -329h-200l16 133h-44
l-85 192q-8 17 -16.5 40t-14.5 58l-10 -1q0 -9 -0.5 -22.5t-1.5 -27.5t-1.5 -26.5t-1.5 -20.5l-22 -192h-230l23 192q0 1 0.5 6t2.5 16t5.5 29t8.5 46l-8 1q-11 -23 -24.5 -48.5t-30.5 -49.5l-133 -192h-247z" />
    <glyph glyph-name="uni0497" unicode="&#x497;" horiz-adv-x="959" 
d="M-15 0l191 247l-130 220h253l37 -84q4 -10 8 -17.5t7.5 -18t8.5 -27.5t11 -46l7 1q1 25 1.5 42.5t1.5 32.5t2 29.5t3 31.5l7 56h220l-6 -56q-2 -20 -8.5 -59t-15.5 -77l7 -1q14 36 29.5 61t31.5 48l57 84h256l-190 -234l38 -65h107l-35 -299h-166l15 131h-65l-50 91
q-13 23 -23.5 55.5t-16.5 58.5l-9 -1q1 -9 2 -21.5t1 -26t-0.5 -26.5t-1.5 -22l-14 -108h-220l13 108q3 24 10 49t15 47l-9 1q-12 -25 -27 -51.5t-41 -62.5l-64 -91h-248z" />
    <glyph glyph-name="uni0498" unicode="&#x498;" horiz-adv-x="653" 
d="M186 -3q-29 5 -71.5 19.5t-98.5 48.5l85 180q32 -35 75.5 -57.5t91.5 -22.5q12 0 27 1.5t28.5 6.5t22.5 14.5t9 25.5q0 14 -9 22t-21.5 11.5t-26.5 4.5t-24 1h-85l20 162h67q11 0 27 1t31 5t25.5 13t10.5 25q0 12 -7.5 20t-19 12t-23.5 5.5t-21 1.5q-43 0 -82 -18
t-73 -42l-56 178q46 22 86.5 35.5t74 21t59.5 9.5t45 2q45 0 91 -10.5t83.5 -33.5t61.5 -60t24 -89q0 -54 -28.5 -89.5t-77.5 -52.5l-1 -6q50 -13 76.5 -49t26.5 -87q0 -47 -17.5 -85t-47.5 -66.5t-70 -45.5t-84 -20l-17 -138h-206l19 146v0z" />
    <glyph glyph-name="uni0499" unicode="&#x499;" horiz-adv-x="543" 
d="M66 189q27 -26 63.5 -40.5t74.5 -14.5q7 0 18 0.5t21.5 3.5t18 8.5t7.5 16.5q0 5 -3.5 11.5t-16.5 11.5q-11 4 -26 4.5t-23 0.5h-50l14 108h50q27 0 38.5 1t15.5 3q11 5 15.5 11t4.5 12q0 9 -7.5 14.5t-17.5 8.5t-20.5 3.5t-16.5 0.5q-36 0 -70 -13.5t-62 -36.5l-40 142
q65 29 120 38.5t99 9.5q35 0 75.5 -6t75 -22.5t57 -45t22.5 -73.5q0 -39 -20.5 -65.5t-58.5 -35.5l1 -9q35 -8 55.5 -30.5t20.5 -60.5q0 -34 -14 -62t-37.5 -47.5t-53.5 -31t-62 -12.5l-17 -131h-166l19 132q-40 3 -80.5 14.5t-79.5 34.5z" />
    <glyph glyph-name="uni049A" unicode="&#x49a;" horiz-adv-x="726" 
d="M121 667h242l-21 -171q-3 -24 -9 -57.5t-13 -60.5l7 -2q16 44 42 85l129 206h268l-242 -336l74 -135h117l-39 -329h-200l16 133h-49l-88 182q-8 17 -19 44.5t-20 63.5l-7 -1q0 -11 -0.5 -25.5t-1.5 -30t-2 -30t-2 -24.5l-22 -179h-242z" />
    <glyph glyph-name="uni049B" unicode="&#x49b;" horiz-adv-x="636" 
d="M20 0l58 467h231l-7 -56l-3 -21t-5 -32.5t-7 -39.5t-9 -43l7 -1q14 36 29.5 61t31.5 48l57 84h253l-185 -236l38 -63h103l-36 -299h-166l16 131h-60l-53 91q-11 18 -23 49t-17 65l-9 -1q1 -9 2 -21.5t1 -26t-0.5 -26.5t-1.5 -22l-14 -108h-231z" />
    <glyph glyph-name="uni049C" unicode="&#x49c;" horiz-adv-x="901" 
d="M39 0l82 667h242l-33 -265h50l18 141h121l-10 -84q-2 -21 -6 -41t-9 -42h5q7 17 19.5 42t38.5 68l112 181h282l-260 -338l170 -329h-255l-78 177q-11 24 -21 48.5t-19 58.5h-5l-2 -36t-3 -36l-6 -53h-121l11 95h-50l-31 -254h-242z" />
    <glyph glyph-name="uni049D" unicode="&#x49d;" horiz-adv-x="795" 
d="M105 467h228l-22 -183h37l11 92h108l-12 -102h5q8 21 21 48t36 61l57 84h241l-186 -241l125 -226h-228l-42 91q-15 32 -22.5 51t-12.5 43h-5l-13 -107h-108l11 96h-37l-21 -174h-228z" />
    <glyph glyph-name="uni04A0" unicode="&#x4a0;" horiz-adv-x="807" 
d="M57 667h381l-22 -173q-3 -24 -8 -54.5t-13 -61.5l7 -2q11 27 21 47.5t21 37.5l129 206h282l-260 -338l170 -329h-255l-85 192q-7 15 -12 27t-8.5 23.5t-7 22.5t-6.5 25l-7 -1v-20q0 -16 -1.5 -38t-3.5 -39l-23 -192h-242l61 489h-140z" />
    <glyph glyph-name="uni04A1" unicode="&#x4a1;" horiz-adv-x="750" 
d="M25 293l21 174h363l-7 -56l-3 -21t-5 -32.5t-7 -39.5t-9 -43l7 -1q14 36 29.5 61t31.5 48l57 84h267l-201 -241l134 -226h-248l-42 91q-15 32 -24.5 58t-15.5 56l-9 -1q1 -9 2 -21.5t1 -26t-0.5 -26.5t-1.5 -22l-14 -108h-231l37 293h-132z" />
    <glyph glyph-name="uni04A2" unicode="&#x4a2;" horiz-adv-x="808" 
d="M121 667h242l-28 -228h142l28 228h242l-57 -471h105l-39 -329h-200l16 133h-149l30 243h-143l-29 -243h-242z" />
    <glyph glyph-name="uni04A3" unicode="&#x4a3;" horiz-adv-x="678" 
d="M77 467h232l-18 -144h74l18 144h232l-36 -299h79l-36 -299h-166l16 131h-146l19 155h-74l-19 -155h-232z" />
    <glyph glyph-name="uni04A4" unicode="&#x4a4;" horiz-adv-x="893" 
d="M121 667h242l-28 -228h142l28 228h418l-22 -178h-176l-60 -489h-242l30 243h-143l-29 -243h-242z" />
    <glyph glyph-name="uni04A5" unicode="&#x4a5;" horiz-adv-x="749" 
d="M77 467h232l-18 -144h74l18 144h371l-21 -174h-139l-36 -293h-232l19 155h-74l-19 -155h-232z" />
    <glyph glyph-name="uni04AA" unicode="&#x4aa;" horiz-adv-x="582" 
d="M47 314q0 82 28 150t78 116.5t119 75.5t150 27q48 0 88 -8t78 -23l-20 -237q-6 5 -18 14t-29 17.5t-39 14.5t-47 6q-30 0 -57 -11.5t-47 -32t-31.5 -47.5t-11.5 -57q0 -27 10.5 -49t28 -38t41 -24.5t49.5 -8.5q35 0 69 14.5t62 42.5l-29 -243q-30 -16 -65 -19l-17 -143
h-206l19 153q-49 18 -87 49.5t-63.5 72.5t-39 89t-13.5 99z" />
    <glyph glyph-name="uni04AB" unicode="&#x4ab;" horiz-adv-x="437" 
d="M27 220q0 61 20 111.5t56 86.5t86 55.5t111 19.5q33 0 65.5 -6t73.5 -20l-29 -196q-3 3 -9.5 10t-16.5 14t-24 12.5t-32 5.5q-33 0 -53 -21.5t-20 -58.5q0 -33 18 -51t50 -18q24 0 44 9.5t34 23.5l-34 -192q-18 -6 -33 -9l-17 -136h-166l20 143q-35 12 -61.5 34t-45 50.5
t-28 62.5t-9.5 70z" />
    <glyph glyph-name="uni04AE" unicode="&#x4ae;" horiz-adv-x="684" 
d="M312 667l34 -109q6 -19 8.5 -34.5t4.5 -41.5h9q5 17 10 31.5t14 31.5l62 122h291l-281 -384l-35 -283h-240l36 289l-178 378h265z" />
    <glyph glyph-name="uni04AF" unicode="&#x4af;" horiz-adv-x="616" 
d="M267 467l19 -119q4 -26 9 -67t2 -87h10q13 72 40 142l50 131h253l-251 -454l-30 -242h-232l30 242l-143 454h243z" />
    <glyph glyph-name="uni04B0" unicode="&#x4b0;" horiz-adv-x="694" 
d="M35 127l20 168h180l3 19l-181 353h265l34 -109q6 -19 8.5 -34.5t4.5 -41.5h9q5 17 10 31.5t14 31.5l62 122h291l-275 -353l-3 -19h180l-20 -168h-180l-18 -127h-240l16 127h-180z" />
    <glyph glyph-name="uni04B1" unicode="&#x4b1;" horiz-adv-x="624" 
d="M24 -100l17 138h136l3 25l-148 404h243l19 -109q3 -17 6 -35.5t5 -38.5q0 -4 1 -20.5t-1 -39.5h10q6 34 16 64.5t24 62.5l50 116h253l-246 -404l-2 -25h137l-17 -138h-137l-15 -129h-232l15 129h-137z" />
    <glyph glyph-name="uni04B2" unicode="&#x4b2;" horiz-adv-x="740" 
d="M250 356l-181 311h273l32 -84q7 -17 11.5 -31t8.5 -37h6q8 23 15.5 39.5t16.5 33.5l41 79h292l-253 -321l100 -150h117l-39 -329h-200l16 133h-40l-58 99l-13.5 27t-21.5 59h-8q-4 -12 -9 -25.5t-13 -26.5l-78 -133h-293z" />
    <glyph glyph-name="uni04B3" unicode="&#x4b3;" horiz-adv-x="633" 
d="M187 246l-155 221h263l15 -46q4 -11 7 -23t3 -24l9 1q2 11 7 21.5t11 21.5l27 49h272l-192 -228l51 -71h105l-36 -299h-166l16 131h-65l-25 43q-16 29 -19 59l-7 1q-9 -24 -25 -49l-35 -54h-278z" />
    <glyph glyph-name="uni04B6" unicode="&#x4b6;" horiz-adv-x="770" 
d="M300 221q-44 0 -87 7t-77 26t-55 52.5t-21 87.5q0 8 1.5 25t2.5 26l27 222h240l-21 -172q-2 -17 -3 -36t17 -33q12 -9 29 -11t24 -2q14 0 32 2t30 4l30 248h242l-59 -471h105l-39 -329h-200l16 133h-147l29 233q-31 -8 -58.5 -10t-57.5 -2z" />
    <glyph glyph-name="uni04B7" unicode="&#x4b7;" horiz-adv-x="659" 
d="M92 163q-21 15 -32 32.5t-15.5 36t-4.5 35.5t2 30l21 170h227l-15 -126q-2 -13 -0.5 -24t9.5 -18q5 -5 14 -6.5t16 -1.5q9 0 16.5 2t12.5 4l21 170h232l-36 -299h79l-36 -299h-166l16 131h-146l17 141q-46 -10 -94 -10q-13 0 -30.5 1t-36 4t-37 9.5t-34.5 17.5z" />
    <glyph glyph-name="uni04B8" unicode="&#x4b8;" horiz-adv-x="814" 
d="M109 275q-21 19 -31.5 40t-14.5 42.5t-2.5 42.5t3.5 40l28 227h228l-21 -171q-2 -10 -3 -20.5t-1 -23.5q0 -30 15.5 -41t43.5 -11l18 143h122l-18 -146q29 2 51 10l32 260h242l-82 -667h-242l30 246q-27 -8 -51 -12l-14 -108h-122l12 97q-9 -1 -18.5 -1.5t-20.5 -0.5
q-49 0 -100 12.5t-84 41.5z" />
    <glyph glyph-name="uni04B9" unicode="&#x4b9;" horiz-adv-x="713" 
d="M73 179q-15 15 -22 32t-9.5 34.5t-1.5 34.5t3 31l19 156h210l-16 -130q-2 -14 -2 -28.5t12 -23.5t31 -9l12 100h104l-12 -98q17 0 38 8l22 181h232l-57 -467h-232l18 152q-10 -3 -19 -5t-18 -3l-10 -76h-104l8 63q-9 -1 -18 -1h-19q-23 0 -46.5 2t-46 7.5t-42.5 15
t-34 24.5z" />
    <glyph glyph-name="uni04BA" unicode="&#x4ba;" horiz-adv-x="725" 
d="M39 0l82 667h242l-29 -233q30 7 56.5 9.5t58.5 2.5q43 0 86 -7t77.5 -25.5t56 -52t21.5 -86.5q0 -10 -1.5 -27t-2.5 -26l-27 -222h-240l21 172q1 7 2 15t1 16q0 31 -22 41t-48 10q-14 0 -31 -1.5t-32 -4.5l-29 -248h-242z" />
    <glyph glyph-name="uni04BB" unicode="&#x4bb;" horiz-adv-x="632" 
d="M20 0l90 729h231l-26 -211q-5 -44 -11 -71t-14 -54l9 -3q53 93 148 93q31 0 58 -11.5t46.5 -31.5t31 -47.5t11.5 -58.5q0 -12 -1 -25t-3 -28l-34 -281h-232l28 226q2 10 2.5 18t0.5 13q0 35 -30 35q-23 0 -33 -15.5t-15 -58.5l-26 -218h-231z" />
    <glyph glyph-name="uni04C0" unicode="&#x4c0;" horiz-adv-x="379" 
d="M366 667l-82 -667h-245l82 667h245z" />
    <glyph glyph-name="uni04C1" unicode="&#x4c1;" horiz-adv-x="1063" 
d="M-15 0l248 356l-150 311h250l75 -197q6 -15 10 -31t6.5 -29.5t3.5 -23t1 -10.5l10 2q1 18 1.5 26.5t0.5 13t0.5 7.5t0.5 10l3 31.5t3 27.5l22 173h230l-23 -173q-3 -23 -6.5 -48t-14.5 -68l10 -2q9 29 21 52t18 33l129 206h259l-242 -320l163 -347h-243l-85 192
q-8 17 -16.5 40t-14.5 58l-10 -1q0 -9 -0.5 -22.5t-1.5 -27.5t-1.5 -26.5t-1.5 -20.5l-22 -192h-230l23 192q0 1 0.5 6t2.5 16t5.5 29t8.5 46l-8 1q-11 -23 -24.5 -48.5t-30.5 -49.5l-133 -192h-247zM584 725q-37 0 -70.5 6t-61.5 21t-50 40t-35 62l144 50q4 -32 23 -47.5
t51 -15.5q33 0 55.5 15t30.5 48l138 -50q-15 -38 -38 -62.5t-51.5 -39.5t-63 -21t-72.5 -6z" />
    <glyph glyph-name="uni04C2" unicode="&#x4c2;" horiz-adv-x="970" 
d="M-15 0l191 247l-130 220h253l37 -84q4 -10 8 -17.5t7.5 -18t8.5 -27.5t11 -46l7 1q1 25 1.5 42.5t1.5 32.5t2 29.5t3 31.5l7 56h220l-6 -56q-2 -20 -8.5 -59t-15.5 -77l7 -1q14 36 29.5 61t31.5 48l57 84h267l-201 -241l134 -226h-248l-42 91q-15 32 -24.5 58t-15.5 56
l-9 -1q1 -9 2 -21.5t1 -26t-0.5 -26.5t-1.5 -22l-14 -108h-220l13 108q1 10 3.5 23.5t6 27t7.5 25.5t8 20l-9 1q-12 -25 -27 -51.5t-41 -62.5l-64 -91h-248zM533 523q-34 0 -67 5.5t-61.5 19t-50.5 37t-33 59.5l145 51q5 -29 19 -45.5t46 -16.5t50 16t26 46l134 -51
q-14 -34 -35 -57t-48 -37.5t-59 -20.5t-66 -6z" />
    <glyph glyph-name="uni04C3" unicode="&#x4c3;" horiz-adv-x="705" 
d="M39 0l82 667h242l-21 -171q-3 -24 -9 -57.5t-13 -60.5l7 -2q8 18 14 30.5t11 21.5t9.5 16.5t9.5 16.5l127 206h237l-197 -279q72 -9 116.5 -53t44.5 -118q0 -55 -17.5 -99t-44.5 -72q-20 -20 -41.5 -32.5t-44 -19t-45 -8.5t-43.5 -2q-39 0 -70 5t-66 20l50 140
q15 -20 38 -20q22 0 33 19t11 38q0 31 -19.5 44.5t-48.5 13.5q-24 0 -44 -10t-40 -23l-26 -211h-242z" />
    <glyph glyph-name="uni04C4" unicode="&#x4c4;" horiz-adv-x="620" 
d="M20 0l58 467h231l-7 -56q-6 -51 -14 -87.5t-14 -59.5l7 -1q8 19 23 49.5t42 70.5l57 84h232l-187 -236v-6q62 -14 96.5 -59t34.5 -108q0 -75 -26 -126t-70.5 -82t-104.5 -44.5t-127 -13.5h-13l16 124h3q27 0 46 10t30.5 27t16.5 39.5t5 47.5q0 17 -3 33t-10.5 28
t-20 19.5t-32.5 7.5q-11 0 -23 -3l-15 -125h-231z" />
    <glyph glyph-name="uni04C7" unicode="&#x4c7;" horiz-adv-x="760" 
d="M39 0l82 667h242l-28 -228h142l28 228h242l-87 -711q-7 -54 -22 -90t-41 -57.5t-65 -30t-93 -8.5q-32 0 -59 2t-57 7l18 146q8 -5 14 -6.5t14 -1.5q29 0 38.5 16.5t12.5 42.5l33 267h-143l-29 -243h-242z" />
    <glyph glyph-name="uni04C8" unicode="&#x4c8;" horiz-adv-x="633" 
d="M77 467h232l-18 -144h74l18 144h232l-59 -497q-6 -51 -18.5 -89t-36.5 -62.5t-61 -36.5t-91 -12q-33 0 -64 3.5t-60 8.5l18 148q13 -10 33 -10q29 0 37 17t11 42l21 176h-74l-19 -155h-232z" />
    <glyph glyph-name="uni04D0" unicode="&#x4d0;" horiz-adv-x="708" 
d="M280 667h276l124 -667h-247l-5 89h-164l-32 -89h-260zM431 725q-37 0 -70.5 6t-61.5 21t-50 40t-35 62l144 50q4 -32 23 -47.5t51 -15.5q33 0 55.5 15t30.5 48l138 -50q-15 -38 -38 -62.5t-51.5 -39.5t-63 -21t-72.5 -6zM412 241l-10 121q-1 8 -1.5 20.5t-0.5 26.5v15.5
t0.5 12t1 11.5t1.5 14h-8q-7 -29 -13 -50t-17 -50l-45 -121h92z" />
    <glyph glyph-name="uni04D1" unicode="&#x4d1;" horiz-adv-x="652" 
d="M220 -13q-39 0 -74.5 17.5t-62.5 47.5t-42.5 69.5t-15.5 83.5q0 55 19 105.5t51.5 89t74.5 61t89 22.5q56 0 88.5 -23t52.5 -77l8 3q-3 25 -4 38t-1 33v10h230l-58 -467h-229q3 12 5 20.5t4.5 17t6 19t9.5 26.5l-7 3q-30 -53 -63.5 -76t-80.5 -23zM306 695
q5 -29 19 -45.5t46 -16.5t50 16t26 46l134 -51q-14 -34 -35 -57t-48 -37.5t-59 -20.5t-66 -6t-67 5.5t-61.5 19t-50.5 37t-33 59.5zM259 223q0 -26 16 -42.5t41 -16.5q28 0 46.5 21t18.5 53q0 26 -15.5 43.5t-39.5 17.5q-27 0 -47 -22.5t-20 -53.5z" />
    <glyph glyph-name="uni04D2" unicode="&#x4d2;" horiz-adv-x="708" 
d="M-28 0l308 667h276l124 -667h-247l-5 89h-164l-32 -89h-260zM308 733q-21 0 -39.5 7.5t-32 21t-21 32t-7.5 39.5t7.5 39t21 31.5t32 21.5t39.5 8t39 -8t31.5 -21.5t21.5 -31.5t8 -39t-8 -39.5t-21.5 -32t-31.5 -21t-39 -7.5zM455 833q0 21 7.5 39t21 31.5t32 21.5t39.5 8
q42 0 71 -29t29 -71q0 -21 -8 -39.5t-21.5 -32t-31.5 -21t-39 -7.5t-39.5 7.5t-32 21t-21 32t-7.5 39.5zM412 241l-10 121q-1 8 -1.5 20.5t-0.5 26.5v15.5t0.5 12t1 11.5t1.5 14h-8q-7 -29 -13 -50t-17 -50l-45 -121h92z" />
    <glyph glyph-name="uni04D3" unicode="&#x4d3;" horiz-adv-x="652" 
d="M220 -13q-39 0 -74.5 17.5t-62.5 47.5t-42.5 69.5t-15.5 83.5q0 55 19 105.5t51.5 89t74.5 61t89 22.5q56 0 88.5 -23t52.5 -77l8 3q-3 25 -4 38t-1 33v10h230l-58 -467h-229q3 12 5 20.5t4.5 17t6 19t9.5 26.5l-7 3q-30 -53 -63.5 -76t-80.5 -23zM247 540q-21 0 -39.5 8
t-32.5 22t-22 32.5t-8 39.5t8 40t22 33t32.5 22t39.5 8t40 -8t33 -22t22 -33t8 -40t-8 -39.5t-22 -32.5t-33 -22t-40 -8zM392 642q0 21 8 40t22 33t32.5 22t39.5 8t40 -8t33 -22t22 -33t8 -40t-8 -39.5t-22 -32.5t-33 -22t-40 -8t-39.5 8t-32.5 22t-22 32.5t-8 39.5z
M259 223q0 -26 16 -42.5t41 -16.5q28 0 46.5 21t18.5 53q0 26 -15.5 43.5t-39.5 17.5q-27 0 -47 -22.5t-20 -53.5z" />
    <glyph glyph-name="uni04D4" unicode="&#x4d4;" horiz-adv-x="920" 
d="M-21 0l310 667h478l31 -175h-203l12 -71h204l29 -170h-203l13 -70h203l32 -181h-446l-4 88h-165l-32 -88h-259zM420 239l-12 131q-1 7 -1 15v17q0 17 1 28t3 29l-11 2q-3 -15 -5 -25.5t-5 -20.5t-6.5 -20.5t-8.5 -24.5l-48 -131h93z" />
    <glyph glyph-name="uni04D5" unicode="&#x4d5;" horiz-adv-x="945" 
d="M19 154q0 41 17 70.5t45 48t63.5 27.5t71.5 9q42 0 80.5 -12t67.5 -43q3 15 3 31q0 26 -12 42.5t-30.5 26t-41 13t-43.5 3.5q-50 0 -95.5 -13.5t-82.5 -32.5l17 133q8 3 24.5 9t39.5 12t52.5 10.5t63.5 4.5q40 0 70.5 -5.5t53 -14.5t39 -21.5t28.5 -25.5q10 9 25.5 21
t38.5 22t55 17t75 7q74 0 123.5 -23.5t79.5 -54.5q33 -35 51.5 -79t18.5 -92q0 -22 -4 -41h-331q-1 -4 -1 -8v-8q0 -28 14.5 -45t37.5 -17q21 0 32 9.5t18 28.5h222q-14 -44 -40.5 -77t-62 -55t-77.5 -33t-87 -11q-57 0 -110.5 15.5t-97.5 57.5q-42 -44 -88 -58.5
t-105 -14.5q-40 0 -79 8.5t-70 28.5t-50 51.5t-19 78.5zM217 150q0 -16 7.5 -26t19 -16t25 -8.5t26.5 -2.5q12 0 26 3t25.5 9t19 16.5t7.5 25.5q0 16 -7.5 26t-19.5 16t-26 8t-27 2t-26.5 -2t-24.5 -8t-18 -16.5t-7 -26.5zM700 299q0 23 -12 42.5t-38 19.5
q-25 0 -40.5 -17.5t-17.5 -44.5h108z" />
    <glyph glyph-name="uni04D6" unicode="&#x4d6;" horiz-adv-x="549" 
d="M121 667h438l-21 -174h-197l-9 -73h180l-20 -165h-180l-9 -76h204l-22 -179h-446zM352 725q-37 0 -70.5 6t-61.5 21t-50 40t-35 62l144 50q4 -32 23 -47.5t51 -15.5q33 0 55.5 15t30.5 48l138 -50q-15 -38 -38 -62.5t-51.5 -39.5t-63 -21t-72.5 -6z" />
    <glyph glyph-name="uni04D7" unicode="&#x4d7;" horiz-adv-x="618" 
d="M308 -13q-62 0 -113.5 17.5t-88.5 49.5t-57.5 76.5t-20.5 98.5q0 57 22 105.5t60.5 84t91 55.5t114.5 20q58 0 108 -19t87 -52t58.5 -77.5t21.5 -95.5q0 -8 -1 -20t-3 -28h-331q-1 -5 -1 -9v-8q0 -29 14 -46t37 -17q34 0 50 40h222q-7 -20 -13 -34.5t-13.5 -26t-16.5 -22
t-22 -21.5q-82 -71 -205 -71zM333 523q-34 0 -67 5.5t-61.5 19t-50.5 37t-33 59.5l145 51q5 -29 19 -45.5t46 -16.5t50 16t26 46l134 -51q-14 -34 -35 -57t-48 -37.5t-59 -20.5t-66 -6zM373 298q-1 62 -51 62q-47 0 -57 -62h108z" />
    <glyph glyph-name="uni04D8" unicode="&#x4d8;" horiz-adv-x="782" 
d="M141 75q-36 37 -55.5 80t-28.5 85t-9 80t3 66h466q-2 52 -32 84.5t-83 32.5q-38 0 -69 -18t-46 -54l-220 37q51 108 141.5 161.5t208.5 53.5q75 0 138 -23t108.5 -65.5t71 -104t25.5 -138.5q0 -80 -26.5 -151t-76.5 -122q-31 -32 -65 -50.5t-68 -29t-68 -13.5t-65 -3
q-32 0 -65 3.5t-64.5 13.5t-62 28t-58.5 47zM257 258q3 -48 34.5 -71.5t77.5 -23.5q48 0 84.5 23t48.5 72h-245z" />
    <glyph glyph-name="uni04D9" unicode="&#x4d9;" horiz-adv-x="612" 
d="M99 55q-36 35 -56 92t-12 128h331q3 17 1.5 40t-13.5 37q-5 5 -14 9.5t-24 4.5q-23 0 -37.5 -13t-22.5 -33l-196 38q42 72 110.5 104t149.5 32q55 0 104.5 -16t86 -47.5t58 -77t21.5 -103.5q0 -59 -21 -108.5t-57 -84.5q-45 -44 -96.5 -57.5t-104.5 -13.5q-25 0 -52 3
t-54.5 10.5t-53.5 21t-48 34.5zM241 174q-1 -12 3 -25.5t12 -21.5q5 -5 13 -9t21 -4q27 0 41 17t17 43h-107z" />
    <glyph glyph-name="uni04DA" unicode="&#x4da;" horiz-adv-x="782" 
d="M141 75q-36 37 -55.5 80t-28.5 85t-9 80t3 66h466q-2 52 -32 84.5t-83 32.5q-38 0 -69 -18t-46 -54l-220 37q51 108 141.5 161.5t208.5 53.5q75 0 138 -23t108.5 -65.5t71 -104t25.5 -138.5q0 -80 -26.5 -151t-76.5 -122q-31 -32 -65 -50.5t-68 -29t-68 -13.5t-65 -3
q-32 0 -65 3.5t-64.5 13.5t-62 28t-58.5 47zM308 733q-21 0 -39.5 7.5t-32 21t-21 32t-7.5 39.5t7.5 39t21 31.5t32 21.5t39.5 8t39 -8t31.5 -21.5t21.5 -31.5t8 -39t-8 -39.5t-21.5 -32t-31.5 -21t-39 -7.5zM455 833q0 21 7.5 39t21 31.5t32 21.5t39.5 8q42 0 71 -29
t29 -71q0 -21 -8 -39.5t-21.5 -32t-31.5 -21t-39 -7.5t-39.5 7.5t-32 21t-21 32t-7.5 39.5zM257 258q3 -48 34.5 -71.5t77.5 -23.5q48 0 84.5 23t48.5 72h-245z" />
    <glyph glyph-name="uni04DB" unicode="&#x4db;" horiz-adv-x="612" 
d="M99 55q-36 35 -56 92t-12 128h331q3 17 1.5 40t-13.5 37q-5 5 -14 9.5t-24 4.5q-23 0 -37.5 -13t-22.5 -33l-196 38q42 72 110.5 104t149.5 32q55 0 104.5 -16t86 -47.5t58 -77t21.5 -103.5q0 -59 -21 -108.5t-57 -84.5q-45 -44 -96.5 -57.5t-104.5 -13.5q-25 0 -52 3
t-54.5 10.5t-53.5 21t-48 34.5zM197 540q-21 0 -39.5 8t-32.5 22t-22 32.5t-8 39.5t8 40t22 33t32.5 22t39.5 8t40 -8t33 -22t22 -33t8 -40t-8 -39.5t-22 -32.5t-33 -22t-40 -8zM444 540q-21 0 -39.5 8t-32.5 22t-22 32.5t-8 39.5t8 40t22 33t32.5 22t39.5 8t40 -8t33 -22
t22 -33t8 -40t-8 -39.5t-22 -32.5t-33 -22t-40 -8zM241 174q-1 -12 3 -25.5t12 -21.5q5 -5 13 -9t21 -4q27 0 41 17t17 43h-107z" />
    <glyph glyph-name="uni04DC" unicode="&#x4dc;" horiz-adv-x="1063" 
d="M-15 0l248 356l-150 311h250l75 -197q6 -15 10 -31t6.5 -29.5t3.5 -23t1 -10.5l10 2q1 18 1.5 26.5t0.5 13t0.5 7.5t0.5 10l3 31.5t3 27.5l22 173h230l-23 -173q-3 -23 -6.5 -48t-14.5 -68l10 -2q9 29 21 52t18 33l129 206h259l-242 -320l163 -347h-243l-85 192
q-8 17 -16.5 40t-14.5 58l-10 -1q0 -9 -0.5 -22.5t-1.5 -27.5t-1.5 -26.5t-1.5 -20.5l-22 -192h-230l23 192q0 1 0.5 6t2.5 16t5.5 29t8.5 46l-8 1q-11 -23 -24.5 -48.5t-30.5 -49.5l-133 -192h-247zM625 833q0 21 7.5 39t21 31.5t32 21.5t39.5 8q42 0 71 -29t29 -71
q0 -21 -8 -39.5t-21.5 -32t-31.5 -21t-39 -7.5q-42 0 -71 29t-29 71zM378 833q0 21 7.5 39t21 31.5t32 21.5t39.5 8q42 0 71 -29t29 -71q0 -21 -8 -39.5t-21.5 -32t-31.5 -21t-39 -7.5t-39.5 7.5t-32 21t-21 32t-7.5 39.5z" />
    <glyph glyph-name="uni04DD" unicode="&#x4dd;" horiz-adv-x="970" 
d="M-15 0l191 247l-130 220h253l37 -84q4 -10 8 -17.5t7.5 -18t8.5 -27.5t11 -46l7 1q1 25 1.5 42.5t1.5 32.5t2 29.5t3 31.5l7 56h220l-6 -56q-2 -20 -8.5 -59t-15.5 -77l7 -1q14 36 29.5 61t31.5 48l57 84h267l-201 -241l134 -226h-248l-42 91q-15 32 -24.5 58t-15.5 56
l-9 -1q1 -9 2 -21.5t1 -26t-0.5 -26.5t-1.5 -22l-14 -108h-220l13 108q1 10 3.5 23.5t6 27t7.5 25.5t8 20l-9 1q-12 -25 -27 -51.5t-41 -62.5l-64 -91h-248zM532 642q0 21 8 40t22 33t32.5 22t39.5 8t40 -8t33 -22t22 -33t8 -40t-8 -39.5t-22 -32.5t-33 -22t-40 -8t-39.5 8
t-32.5 22t-22 32.5t-8 39.5zM285 642q0 21 8 40t22 33t32.5 22t39.5 8t40 -8t33 -22t22 -33t8 -40t-8 -39.5t-22 -32.5t-33 -22t-40 -8t-39.5 8t-32.5 22t-22 32.5t-8 39.5z" />
    <glyph glyph-name="uni04DE" unicode="&#x4de;" horiz-adv-x="653" 
d="M313 -17q-84 0 -154.5 20t-142.5 62l85 180q32 -36 76 -58t93 -22q12 0 26.5 1.5t27.5 6.5t22 14.5t9 25.5q0 14 -9 22t-21.5 11.5t-26.5 4.5t-24 1h-85l20 162h67q11 0 27 1t31 5t25.5 13t10.5 25q0 12 -7.5 20t-19 12t-23.5 5.5t-21 1.5q-43 0 -82 -18t-73 -42l-56 178
q46 22 86.5 35.5t74 21t59.5 9.5t45 2q45 0 91 -10.5t83.5 -33.5t61.5 -60t24 -89q0 -54 -28.5 -89.5t-77.5 -52.5l-1 -6q48 -12 75.5 -47t27.5 -85q0 -62 -26 -105.5t-68 -70.5t-95 -39t-107 -12zM495 733q-21 0 -39.5 7.5t-32 21t-21 32t-7.5 39.5t7.5 39t21 31.5t32 21.5
t39.5 8q42 0 71 -29t29 -71q0 -21 -8 -39.5t-21.5 -32t-31.5 -21t-39 -7.5zM248 733q-21 0 -39.5 7.5t-32 21t-21 32t-7.5 39.5t7.5 39t21 31.5t32 21.5t39.5 8t39 -8t31.5 -21.5t21.5 -31.5t8 -39t-8 -39.5t-21.5 -32t-31.5 -21t-39 -7.5z" />
    <glyph glyph-name="uni04DF" unicode="&#x4df;" horiz-adv-x="543" 
d="M250 -13q-52 0 -111.5 10t-128.5 45l56 144q28 -25 64 -39t74 -14q9 0 20.5 1t22.5 4t18.5 10t7.5 19q0 17 -20 24q-2 1 -13 2.5t-40 1.5h-46l14 100h50q26 0 37 1.5t14 2.5q15 4 19 12t4 14q0 10 -8 16t-18.5 8.5t-21.5 3t-18 0.5q-38 0 -70.5 -13.5t-61.5 -36.5
l-40 142q66 31 119 39.5t97 8.5q37 0 78 -5.5t75.5 -22t57 -45.5t22.5 -76q0 -38 -22 -63.5t-57 -35.5l1 -9q34 -7 55 -30.5t21 -58.5q0 -24 -10 -50.5t-33 -49.5q-20 -20 -44.5 -31.5t-52 -18t-56 -8.5t-55.5 -2zM404 540q-21 0 -39.5 8t-32.5 22t-22 32.5t-8 39.5t8 40
t22 33t32.5 22t39.5 8t40 -8t33 -22t22 -33t8 -40t-8 -39.5t-22 -32.5t-33 -22t-40 -8zM55 642q0 21 8 40t22 33t32.5 22t39.5 8t40 -8t33 -22t22 -33t8 -40t-8 -39.5t-22 -32.5t-33 -22t-40 -8t-39.5 8t-32.5 22t-22 32.5t-8 39.5z" />
    <glyph glyph-name="uni04E2" unicode="&#x4e2;" horiz-adv-x="784" 
d="M121 667h238l-26 -204q-5 -37 -12 -71t-20 -69l10 -5q17 32 36.5 64t36.5 56l166 229h221l-82 -667h-238l21 172q3 22 6 40.5t6.5 36.5t8.5 36.5t11 39.5l-10 2q-8 -15 -24.5 -43.5t-50.5 -73.5l-159 -210h-221zM281 850h364l-12 -104h-364z" />
    <glyph glyph-name="uni04E3" unicode="&#x4e3;" horiz-adv-x="673" 
d="M20 0l57 467h228l-20 -146q-4 -25 -9 -46.5t-16 -44.5l11 -4q8 17 15 30t18 29l124 182h227l-57 -467h-228l19 140q3 23 7 44.5t12 47.5l-10 4q-14 -28 -23 -42t-19 -28l-109 -166h-227zM204 546l12 100h340l-12 -100h-340z" />
    <glyph glyph-name="uni04E4" unicode="&#x4e4;" horiz-adv-x="784" 
d="M39 0l82 667h238l-26 -204q-5 -37 -12 -71t-20 -69l10 -5q17 32 36.5 64t36.5 56l166 229h221l-82 -667h-238l21 172q3 22 6 40.5t6.5 36.5t8.5 36.5t11 39.5l-10 2q-8 -15 -24.5 -43.5t-50.5 -73.5l-159 -210h-221zM483 833q0 21 7.5 39t21 31.5t32 21.5t39.5 8
q42 0 71 -29t29 -71q0 -21 -8 -39.5t-21.5 -32t-31.5 -21t-39 -7.5q-42 0 -71 29t-29 71zM236 833q0 21 7.5 39t21 31.5t32 21.5t39.5 8t39 -8t31.5 -21.5t21.5 -31.5t8 -39t-8 -39.5t-21.5 -32t-31.5 -21t-39 -7.5t-39.5 7.5t-32 21t-21 32t-7.5 39.5z" />
    <glyph glyph-name="uni04E5" unicode="&#x4e5;" horiz-adv-x="673" 
d="M20 0l57 467h228l-20 -146q-4 -25 -9 -46.5t-16 -44.5l11 -4q8 17 15 30t18 29l124 182h227l-57 -467h-228l19 140q3 23 7 44.5t12 47.5l-10 4q-14 -28 -23 -42t-19 -28l-109 -166h-227zM402 642q0 21 8 40t22 33t32.5 22t39.5 8t40 -8t33 -22t22 -33t8 -40t-8 -39.5
t-22 -32.5t-33 -22t-40 -8t-39.5 8t-32.5 22t-22 32.5t-8 39.5zM155 642q0 21 8 40t22 33t32.5 22t39.5 8t40 -8t33 -22t22 -33t8 -40t-8 -39.5t-22 -32.5t-33 -22t-40 -8t-39.5 8t-32.5 22t-22 32.5t-8 39.5z" />
    <glyph glyph-name="uni04E6" unicode="&#x4e6;" horiz-adv-x="808" 
d="M421 -17q-79 0 -147 26t-118.5 72t-79 108.5t-28.5 134.5q0 76 28.5 141.5t78 114t117 76t144.5 27.5q76 0 143 -24t117.5 -69t80 -108.5t29.5 -142.5q0 -76 -28 -141t-76.5 -113t-115.5 -75t-145 -27zM292 322q0 -28 9 -51.5t24.5 -41t37 -27t47.5 -9.5q28 0 52.5 11
t42 30t27.5 45t10 56q0 27 -9 50t-25 40t-37.5 27t-46.5 10q-27 0 -51 -11t-42 -30t-28.5 -44.5t-10.5 -54.5zM455 833q0 21 7.5 39t21 31.5t32 21.5t39.5 8q42 0 71 -29t29 -71q0 -21 -8 -39.5t-21.5 -32t-31.5 -21t-39 -7.5t-39.5 7.5t-32 21t-21 32t-7.5 39.5zM208 833
q0 21 7.5 39t21 31.5t32 21.5t39.5 8t39 -8t31.5 -21.5t21.5 -31.5t8 -39t-8 -39.5t-21.5 -32t-31.5 -21t-39 -7.5t-39.5 7.5t-32 21t-21 32t-7.5 39.5z" />
    <glyph glyph-name="uni04E7" unicode="&#x4e7;" horiz-adv-x="637" 
d="M29 236q0 63 25 111t67 80.5t96 49t112 16.5q57 0 108 -16.5t89.5 -48t61.5 -78t23 -106.5t-23.5 -108t-63 -81t-91.5 -50.5t-109 -17.5q-56 0 -109 16t-94.5 47.5t-66.5 78t-25 107.5zM227 540q-21 0 -39.5 8t-32.5 22t-22 32.5t-8 39.5t8 40t22 33t32.5 22t39.5 8
t40 -8t33 -22t22 -33t8 -40t-8 -39.5t-22 -32.5t-33 -22t-40 -8zM372 642q0 21 8 40t22 33t32.5 22t39.5 8t40 -8t33 -22t22 -33t8 -40t-8 -39.5t-22 -32.5t-33 -22t-40 -8t-39.5 8t-32.5 22t-22 32.5t-8 39.5zM258 235q0 -26 16.5 -46t43.5 -20q31 0 47.5 23t16.5 52
q0 26 -15.5 46t-42.5 20q-31 0 -48.5 -23t-17.5 -52z" />
    <glyph glyph-name="uni04E8" unicode="&#x4e8;" horiz-adv-x="808" 
d="M48 324q0 77 29 142.5t79 113.5t117 75.5t143 27.5q84 0 157.5 -31t123.5 -81q17 -17 33 -40t28.5 -52t20 -64t7.5 -76q0 -77 -28.5 -142.5t-78 -113t-116 -74t-142.5 -26.5q-74 0 -141.5 24.5t-119 69t-82 107.5t-30.5 140zM302 287q5 -45 34 -70t74 -25q48 0 79 24
t42 71h-229zM533 395q-9 39 -38.5 59.5t-68.5 20.5q-40 0 -69.5 -20.5t-41.5 -59.5h218z" />
    <glyph glyph-name="uni04E9" unicode="&#x4e9;" horiz-adv-x="637" 
d="M101 67q-28 27 -50 68.5t-22 100.5q0 63 25 111t67 80.5t96 49t112 16.5q57 0 108 -16.5t89.5 -48t61.5 -78t23 -106.5t-22 -103t-49 -71q-25 -26 -52 -42t-54.5 -25t-55 -12.5t-54.5 -3.5q-60 0 -117 16t-106 64zM242 203q0 -32 20 -47.5t50 -15.5t51.5 16t26.5 47h-148
zM329 340q-29 0 -50 -15t-29 -44h150q-3 30 -22.5 44.5t-48.5 14.5z" />
    <glyph glyph-name="uni04EA" unicode="&#x4ea;" horiz-adv-x="808" 
d="M421 -17q-74 0 -141.5 24.5t-119 69t-82 107.5t-30.5 140t29 142.5t79 113.5t117 75.5t143 27.5q84 0 157.5 -31t123.5 -81q17 -17 33 -40t28.5 -52t20 -64t7.5 -76q0 -77 -28.5 -142.5t-78 -113t-116 -74t-142.5 -26.5zM208 833q0 21 7.5 39t21 31.5t32 21.5t39.5 8
t39 -8t31.5 -21.5t21.5 -31.5t8 -39t-8 -39.5t-21.5 -32t-31.5 -21t-39 -7.5t-39.5 7.5t-32 21t-21 32t-7.5 39.5zM555 733q-21 0 -39.5 7.5t-32 21t-21 32t-7.5 39.5t7.5 39t21 31.5t32 21.5t39.5 8q42 0 71 -29t29 -71q0 -21 -8 -39.5t-21.5 -32t-31.5 -21t-39 -7.5z
M302 287q5 -45 34 -70t74 -25q48 0 79 24t42 71h-229zM426 475q-40 0 -70 -20.5t-41 -59.5h218q-9 39 -38.5 59.5t-68.5 20.5z" />
    <glyph glyph-name="uni04EB" unicode="&#x4eb;" horiz-adv-x="637" 
d="M101 67q-28 27 -50 68.5t-22 100.5q0 63 25 111t67 80.5t96 49t112 16.5q57 0 108 -16.5t89.5 -48t61.5 -78t23 -106.5t-22 -103t-49 -71q-25 -26 -52 -42t-54.5 -25t-55 -12.5t-54.5 -3.5q-60 0 -117 16t-106 64zM227 540q-21 0 -39.5 8t-32.5 22t-22 32.5t-8 39.5t8 40
t22 33t32.5 22t39.5 8t40 -8t33 -22t22 -33t8 -40t-8 -39.5t-22 -32.5t-33 -22t-40 -8zM474 540q-21 0 -39.5 8t-32.5 22t-22 32.5t-8 39.5t8 40t22 33t32.5 22t39.5 8t40 -8t33 -22t22 -33t8 -40t-8 -39.5t-22 -32.5t-33 -22t-40 -8zM242 203q0 -32 20 -47.5t50 -15.5
t51.5 16t26.5 47h-148zM329 340q-29 0 -50 -15t-29 -44h150q-3 30 -22.5 44.5t-48.5 14.5z" />
    <glyph glyph-name="uni04EE" unicode="&#x4ee;" horiz-adv-x="714" 
d="M299 667l72 -188q7 -18 11 -35t6 -38h8q5 18 11.5 38t14.5 37l90 186h263l-389 -667h-266l87 153q12 21 23.5 37.5t29.5 35.5l-220 441h259zM243 850h364l-12 -104h-364z" />
    <glyph glyph-name="uni04EF" unicode="&#x4ef;" horiz-adv-x="591" 
d="M107 -60q11 19 18.5 32t14.5 23t14 19.5t18 21.5l-141 431h238l20 -130q5 -28 6 -43t1 -32v-20.5t-2 -27.5l10 -1q4 22 8 39t7.5 32t8 29t10.5 31l43 123h249l-363 -696h-248zM158 546l12 100h340l-12 -100h-340z" />
    <glyph glyph-name="uni04F0" unicode="&#x4f0;" horiz-adv-x="714" 
d="M40 667h259l72 -188q7 -18 11 -35t6 -38h8q5 18 11.5 38t14.5 37l90 186h263l-389 -667h-266l87 153q12 21 23.5 37.5t29.5 35.5zM545 733q-21 0 -39.5 7.5t-32 21t-21 32t-7.5 39.5t7.5 39t21 31.5t32 21.5t39.5 8q42 0 71 -29t29 -71q0 -21 -8 -39.5t-21.5 -32
t-31.5 -21t-39 -7.5zM198 833q0 21 7.5 39t21 31.5t32 21.5t39.5 8t39 -8t31.5 -21.5t21.5 -31.5t8 -39t-8 -39.5t-21.5 -32t-31.5 -21t-39 -7.5t-39.5 7.5t-32 21t-21 32t-7.5 39.5z" />
    <glyph glyph-name="uni04F1" unicode="&#x4f1;" horiz-adv-x="591" 
d="M107 -60q11 19 18.5 32t14.5 23t14 19.5t18 21.5l-141 431h238l20 -130q5 -28 6 -43t1 -32v-20.5t-2 -27.5l10 -1q4 22 8 39t7.5 32t8 29t10.5 31l43 123h249l-363 -696h-248zM342 642q0 21 8 40t22 33t32.5 22t39.5 8t40 -8t33 -22t22 -33t8 -40t-8 -39.5t-22 -32.5
t-33 -22t-40 -8t-39.5 8t-32.5 22t-22 32.5t-8 39.5zM197 540q-21 0 -39.5 8t-32.5 22t-22 32.5t-8 39.5t8 40t22 33t32.5 22t39.5 8t40 -8t33 -22t22 -33t8 -40t-8 -39.5t-22 -32.5t-33 -22t-40 -8z" />
    <glyph glyph-name="uni04F2" unicode="&#x4f2;" horiz-adv-x="714" 
d="M299 667l72 -188q7 -18 11 -35t6 -38h8q5 18 11.5 38t14.5 37l90 186h263l-389 -667h-266l87 153q12 21 23.5 37.5t29.5 35.5l-220 441h259zM535 916l111 -73l-143 -119l-79 55zM317 916l111 -73l-143 -119l-79 55z" />
    <glyph glyph-name="uni04F3" unicode="&#x4f3;" horiz-adv-x="591" 
d="M19 -229l88 169q11 19 18.5 32t14.5 23t14 19.5t18 21.5l-141 431h238l20 -130q5 -28 6 -43t1 -32v-20.5t-2 -27.5l10 -1q4 22 8 39t7.5 32t8 29t10.5 31l43 123h249l-363 -696h-248zM243 742l112 -73l-133 -128l-79 55zM347 596l100 146l111 -73l-132 -128z" />
    <glyph glyph-name="uni04F4" unicode="&#x4f4;" horiz-adv-x="724" 
d="M300 221q-44 0 -87 7t-77 26t-55 52.5t-21 87.5q0 8 1.5 25t2.5 26l27 222h240l-21 -172q-2 -17 -3 -36t17 -33q12 -9 29 -11t24 -2q14 0 32 2t30 4l30 248h242l-82 -667h-242l29 233q-31 -8 -58.5 -10t-57.5 -2zM445 833q0 21 7.5 39t21 31.5t32 21.5t39.5 8
q42 0 71 -29t29 -71q0 -21 -8 -39.5t-21.5 -32t-31.5 -21t-39 -7.5t-39.5 7.5t-32 21t-21 32t-7.5 39.5zM198 833q0 21 7.5 39t21 31.5t32 21.5t39.5 8t39 -8t31.5 -21.5t21.5 -31.5t8 -39t-8 -39.5t-21.5 -32t-31.5 -21t-39 -7.5t-39.5 7.5t-32 21t-21 32t-7.5 39.5z" />
    <glyph glyph-name="uni04F5" unicode="&#x4f5;" horiz-adv-x="616" 
d="M92 163q-21 15 -32 32.5t-15.5 36t-4.5 35.5t2 30l21 170h227l-15 -126q-2 -13 -0.5 -24t9.5 -18q5 -5 14 -6.5t16 -1.5q9 0 16.5 2t12.5 4l21 170h232l-57 -467h-232l17 141q-46 -10 -94 -10q-13 0 -30.5 1t-36 4t-37 9.5t-34.5 17.5zM464 540q-21 0 -39.5 8t-32.5 22
t-22 32.5t-8 39.5t8 40t22 33t32.5 22t39.5 8t40 -8t33 -22t22 -33t8 -40t-8 -39.5t-22 -32.5t-33 -22t-40 -8zM217 540q-21 0 -39.5 8t-32.5 22t-22 32.5t-8 39.5t8 40t22 33t32.5 22t39.5 8t40 -8t33 -22t22 -33t8 -40t-8 -39.5t-22 -32.5t-33 -22t-40 -8z" />
    <glyph glyph-name="uni04F8" unicode="&#x4f8;" horiz-adv-x="1007" 
d="M122 667h242l-31 -254h78q49 0 93.5 -8.5t78.5 -30t53.5 -58.5t19.5 -93q0 -34 -7 -61.5t-19 -49t-27 -37.5t-30 -27q-23 -17 -51 -26.5t-56.5 -14t-54.5 -6t-46 -1.5h-326zM670 0l82 667h242l-82 -667h-242zM348 833q0 21 7.5 39t21 31.5t32 21.5t39.5 8q42 0 71 -29
t29 -71q0 -21 -8 -39.5t-21.5 -32t-31.5 -21t-39 -7.5t-39.5 7.5t-32 21t-21 32t-7.5 39.5zM695 733q-42 0 -71 29t-29 71q0 21 7.5 39t21 31.5t32 21.5t39.5 8q42 0 71 -29t29 -71q0 -21 -8 -39.5t-21.5 -32t-31.5 -21t-39 -7.5zM324 156q17 0 34.5 1t32 7t24 18t9.5 34
q0 17 -7.5 26.5t-19.5 14t-26.5 5.5t-27.5 1h-29l-13 -107h23z" />
    <glyph glyph-name="uni04F9" unicode="&#x4f9;" horiz-adv-x="884" 
d="M76 467h232l-19 -156h99q37 0 69 -7.5t56 -24.5t37.5 -45t13.5 -69q0 -39 -13 -67t-30 -45q-29 -30 -73.5 -41.5t-100.5 -11.5h-327zM636 467h228l-57 -467h-228zM347 540q-21 0 -39.5 8t-32.5 22t-22 32.5t-8 39.5t8 40t22 33t32.5 22t39.5 8t40 -8t33 -22t22 -33t8 -40
t-8 -39.5t-22 -32.5t-33 -22t-40 -8zM492 642q0 21 8 40t22 33t32.5 22t39.5 8t40 -8t33 -22t22 -33t8 -40t-8 -39.5t-22 -32.5t-33 -22t-40 -8t-39.5 8t-32.5 22t-22 32.5t-8 39.5zM265 116h36q25 0 42 10t17 38q0 22 -14.5 28.5t-33.5 6.5h-37z" />
    <glyph glyph-name="Germandbls" unicode="&#x1e9e;" horiz-adv-x="679" 
d="M90 416q4 33 10.5 60.5t18 51.5t27.5 46t40 43q38 34 93 49.5t111 15.5q33 0 68 -6t66 -20t56 -36.5t39 -56.5q8 -19 12.5 -42t2.5 -47l-96 -102q48 -17 74.5 -52t26.5 -87q0 -54 -22 -105.5t-69 -85.5q-21 -15 -46 -23.5t-51 -12.5t-51 -5t-46 -1h-38l19 157
q42 0 60.5 19t18.5 61q0 29 -19 40t-44 14l13 99l51 63q0 20 -8.5 33.5t-31.5 13.5q-27 0 -41 -15t-17 -41l-54 -444h-224z" />
    <glyph glyph-name="uni1EA0" unicode="&#x1ea0;" horiz-adv-x="708" 
d="M-28 0l308 667h276l124 -667h-247l-5 89h-164l-32 -89h-260zM318 -231q-21 0 -39 6.5t-31.5 17.5t-21 26t-7.5 33t7.5 33.5t21 27t31.5 18t39 6.5q46 0 75.5 -24.5t29.5 -60.5q0 -35 -29.5 -59t-75.5 -24zM412 241l-10 121q-1 8 -1.5 20.5t-0.5 26.5v15.5t0.5 12t1 11.5
t1.5 14h-8q-7 -29 -13 -50t-17 -50l-45 -121h92z" />
    <glyph glyph-name="uni1EA1" unicode="&#x1ea1;" horiz-adv-x="652" 
d="M25 205q0 55 19 105.5t51.5 89t74.5 61t89 22.5q56 0 88.5 -23t52.5 -77l8 3q-3 25 -4 38t-1 33v10h230l-58 -467h-229q3 12 5 20.5t4.5 17t6 19t9.5 26.5l-7 3q-30 -53 -63.5 -76t-80.5 -23q-39 0 -74.5 17.5t-62.5 47.5t-42.5 69.5t-15.5 83.5zM253 -231q-21 0 -39 6.5
t-31.5 17.5t-21 26t-7.5 33t7.5 33.5t21 27t31.5 18t39 6.5q46 0 75.5 -24.5t29.5 -60.5q0 -35 -29.5 -59t-75.5 -24zM326 299q-27 0 -47 -22.5t-20 -53.5q0 -26 16 -42.5t41 -16.5q28 0 46.5 21t18.5 53q0 26 -15.5 43.5t-39.5 17.5z" />
    <glyph glyph-name="uni1EA2" unicode="&#x1ea2;" horiz-adv-x="708" 
d="M-28 0l308 667h276l124 -667h-247l-5 89h-164l-32 -89h-260zM301 818q6 27 21 45t35 29t44 16t49 5q60 0 88 -27.5t23 -68.5q-3 -23 -13.5 -38.5t-25 -26t-30 -16t-27.5 -7.5l-1 -14h-86l8 66q8 0 20.5 1.5t24.5 5t21 10t11 17.5t-5 19t-22 8q-31 0 -39 -24h-96zM320 241
h92l-10 121q-1 8 -1.5 20.5t-0.5 26.5v15.5t0.5 12t1 11.5t1.5 14h-8q-7 -29 -13 -50t-17 -50z" />
    <glyph glyph-name="uni1EA3" unicode="&#x1ea3;" horiz-adv-x="652" 
d="M220 -13q-39 0 -74.5 17.5t-62.5 47.5t-42.5 69.5t-15.5 83.5q0 55 19 105.5t51.5 89t74.5 61t89 22.5q56 0 88.5 -23t52.5 -77l8 3q-3 25 -4 38t-1 33v10h230l-58 -467h-229q3 12 5 20.5t4.5 17t6 19t9.5 26.5l-7 3q-30 -53 -63.5 -76t-80.5 -23zM218 619q6 27 21 45
t35 29t44 16t49 5q60 0 88 -27.5t23 -68.5q-3 -23 -13.5 -38.5t-25 -26t-30 -16t-27.5 -7.5l-1 -14h-86l8 66q8 0 20.5 1.5t24.5 5t21 10t11 17.5t-5 19t-22 8q-31 0 -39 -24h-96zM259 223q0 -26 16 -42.5t41 -16.5q28 0 46.5 21t18.5 53q0 26 -15.5 43.5t-39.5 17.5
q-27 0 -47 -22.5t-20 -53.5z" />
    <glyph glyph-name="uni1EA4" unicode="&#x1ea4;" horiz-adv-x="708" 
d="M-28 0l308 667h276l124 -667h-247l-5 89h-164l-32 -89h-260zM258 777l178 126l164 -126l-72 -66l-102 66l-107 -66zM684 1027l80 -92l-195 -104l-59 67zM412 241l-10 121q-1 8 -1.5 20.5t-0.5 26.5v15.5t0.5 12t1 11.5t1.5 14h-8q-7 -29 -13 -50t-17 -50l-45 -121h92z
" />
    <glyph glyph-name="uni1EA5" unicode="&#x1ea5;" horiz-adv-x="652" 
d="M25 205q0 55 19 105.5t51.5 89t74.5 61t89 22.5q56 0 88.5 -23t52.5 -77l8 3q-3 25 -4 38t-1 33v10h230l-58 -467h-229q3 12 5 20.5t4.5 17t6 19t9.5 26.5l-7 3q-30 -53 -63.5 -76t-80.5 -23q-39 0 -74.5 17.5t-62.5 47.5t-42.5 69.5t-15.5 83.5zM176 582l178 126
l164 -126l-72 -66l-102 66l-107 -66zM428 703l174 129l80 -92l-195 -104zM326 299q-27 0 -47 -22.5t-20 -53.5q0 -26 16 -42.5t41 -16.5q28 0 46.5 21t18.5 53q0 26 -15.5 43.5t-39.5 17.5z" />
    <glyph glyph-name="uni1EA6" unicode="&#x1ea6;" horiz-adv-x="708" 
d="M-28 0l308 667h276l124 -667h-247l-5 89h-164l-32 -89h-260zM258 777l178 126l164 -126l-72 -66l-102 66l-107 -66zM438 935l80 92l154 -129l-59 -67zM412 241l-10 121q-1 8 -1.5 20.5t-0.5 26.5v15.5t0.5 12t1 11.5t1.5 14h-8q-7 -29 -13 -50t-17 -50l-45 -121h92z" />
    <glyph glyph-name="uni1EA7" unicode="&#x1ea7;" horiz-adv-x="652" 
d="M25 205q0 55 19 105.5t51.5 89t74.5 61t89 22.5q56 0 88.5 -23t52.5 -77l8 3q-3 25 -4 38t-1 33v10h230l-58 -467h-229q3 12 5 20.5t4.5 17t6 19t9.5 26.5l-7 3q-30 -53 -63.5 -76t-80.5 -23q-39 0 -74.5 17.5t-62.5 47.5t-42.5 69.5t-15.5 83.5zM176 582l178 126
l164 -126l-72 -66l-102 66l-107 -66zM436 832l154 -129l-59 -67l-175 104zM326 299q-27 0 -47 -22.5t-20 -53.5q0 -26 16 -42.5t41 -16.5q28 0 46.5 21t18.5 53q0 26 -15.5 43.5t-39.5 17.5z" />
    <glyph glyph-name="uni1EA8" unicode="&#x1ea8;" horiz-adv-x="708" 
d="M280 667h276l124 -667h-247l-5 89h-164l-32 -89h-260zM484 934q6 27 21 45t35 29t44 16t49 5q60 0 88 -27.5t23 -68.5q-3 -23 -13.5 -38.5t-25 -26t-30 -16t-27.5 -7.5l-1 -14h-86l8 66q8 0 20.5 1.5t24.5 5t21 10t11 17.5t-5 19t-22 8q-31 0 -39 -24h-96zM436 903
l164 -126l-72 -66l-102 66l-107 -66l-61 66zM320 241h92l-10 121q-1 8 -1.5 20.5t-0.5 26.5v15.5t0.5 12t1 11.5t1.5 14h-8q-7 -29 -13 -50t-17 -50z" />
    <glyph glyph-name="uni1EA9" unicode="&#x1ea9;" horiz-adv-x="652" 
d="M220 -13q-39 0 -74.5 17.5t-62.5 47.5t-42.5 69.5t-15.5 83.5q0 55 19 105.5t51.5 89t74.5 61t89 22.5q56 0 88.5 -23t52.5 -77l8 3q-3 25 -4 38t-1 33v10h230l-58 -467h-229q3 12 5 20.5t4.5 17t6 19t9.5 26.5l-7 3q-30 -53 -63.5 -76t-80.5 -23zM402 739q6 27 21 45
t35 29t44 16t49 5q60 0 88 -27.5t23 -68.5q-3 -23 -13.5 -38.5t-25 -26t-30 -16t-27.5 -7.5l-1 -14h-86l8 66q8 0 20.5 1.5t24.5 5t21 10t11 17.5t-5 19t-22 8q-31 0 -39 -24h-96zM176 582l178 126l164 -126l-72 -66l-102 66l-107 -66zM259 223q0 -26 16 -42.5t41 -16.5
q28 0 46.5 21t18.5 53q0 26 -15.5 43.5t-39.5 17.5q-27 0 -47 -22.5t-20 -53.5z" />
    <glyph glyph-name="uni1EAA" unicode="&#x1eaa;" horiz-adv-x="708" 
d="M280 667h276l124 -667h-247l-5 89h-164l-32 -89h-260zM270 978q18 30 48 53t71 23h2q24 0 39 -6.5t27 -14.5t24.5 -15t30.5 -8q11 -1 31 10t32 38l46 -68q-25 -35 -54 -57t-70 -22h-3q-23 0 -38.5 6.5t-28.5 14t-24.5 14t-27.5 7.5q-10 0 -26 -7t-31 -32zM436 903
l164 -126l-72 -66l-102 66l-107 -66l-61 66zM320 241h92l-10 121q-1 8 -1.5 20.5t-0.5 26.5v15.5t0.5 12t1 11.5t1.5 14h-8q-7 -29 -13 -50t-17 -50z" />
    <glyph glyph-name="uni1EAB" unicode="&#x1eab;" horiz-adv-x="652" 
d="M220 -13q-39 0 -74.5 17.5t-62.5 47.5t-42.5 69.5t-15.5 83.5q0 55 19 105.5t51.5 89t74.5 61t89 22.5q56 0 88.5 -23t52.5 -77l8 3q-3 25 -4 38t-1 33v10h230l-58 -467h-229q3 12 5 20.5t4.5 17t6 19t9.5 26.5l-7 3q-30 -53 -63.5 -76t-80.5 -23zM188 783q18 30 48 53
t71 23h2q24 0 39 -6.5t27 -14.5t24.5 -15t30.5 -8q11 -1 31 10t32 38l46 -68q-25 -35 -54 -57t-70 -22h-3q-23 0 -38.5 6.5t-28.5 14t-24.5 14t-27.5 7.5q-10 0 -26 -7t-31 -32zM354 708l164 -126l-72 -66l-102 66l-107 -66l-61 66zM326 299q-27 0 -47 -22.5t-20 -53.5
q0 -26 16 -42.5t41 -16.5q28 0 46.5 21t18.5 53q0 26 -15.5 43.5t-39.5 17.5z" />
    <glyph glyph-name="uni1EAC" unicode="&#x1eac;" horiz-adv-x="708" 
d="M-28 0l308 667h276l124 -667h-247l-5 89h-164l-32 -89h-260zM436 903l164 -126l-72 -66l-102 66l-107 -66l-61 66zM219 -148q0 18 7.5 33.5t21 27t31.5 18t39 6.5q46 0 75.5 -24.5t29.5 -60.5q0 -35 -29.5 -59t-75.5 -24q-21 0 -39 6.5t-31.5 17.5t-21 26t-7.5 33z
M412 241l-10 121q-1 8 -1.5 20.5t-0.5 26.5v15.5t0.5 12t1 11.5t1.5 14h-8q-7 -29 -13 -50t-17 -50l-45 -121h92z" />
    <glyph glyph-name="uni1EAD" unicode="&#x1ead;" horiz-adv-x="652" 
d="M25 205q0 55 19 105.5t51.5 89t74.5 61t89 22.5q56 0 88.5 -23t52.5 -77l8 3q-3 25 -4 38t-1 33v10h230l-58 -467h-229q3 12 5 20.5t4.5 17t6 19t9.5 26.5l-7 3q-30 -53 -63.5 -76t-80.5 -23q-39 0 -74.5 17.5t-62.5 47.5t-42.5 69.5t-15.5 83.5zM176 582l178 126
l164 -126l-72 -66l-102 66l-107 -66zM154 -148q0 18 7.5 33.5t21 27t31.5 18t39 6.5q46 0 75.5 -24.5t29.5 -60.5q0 -35 -29.5 -59t-75.5 -24q-21 0 -39 6.5t-31.5 17.5t-21 26t-7.5 33zM326 299q-27 0 -47 -22.5t-20 -53.5q0 -26 16 -42.5t41 -16.5q28 0 46.5 21t18.5 53
q0 26 -15.5 43.5t-39.5 17.5z" />
    <glyph glyph-name="uni1EAE" unicode="&#x1eae;" horiz-adv-x="708" 
d="M280 667h276l124 -667h-247l-5 89h-164l-32 -89h-260zM424 711q-32 0 -60 7.5t-49 24.5t-33.5 44.5t-12.5 67.5h112q2 -28 17 -39t37 -11q24 0 42 11t26 39h112q-10 -40 -29 -67.5t-44 -44.5t-55 -24.5t-63 -7.5zM370 932l174 129l80 -92l-195 -104zM412 241l-10 121
q-1 8 -1.5 20.5t-0.5 26.5v15.5t0.5 12t1 11.5t1.5 14h-8q-7 -29 -13 -50t-17 -50l-45 -121h92z" />
    <glyph glyph-name="uni1EAF" unicode="&#x1eaf;" horiz-adv-x="652" 
d="M220 -13q-39 0 -74.5 17.5t-62.5 47.5t-42.5 69.5t-15.5 83.5q0 55 19 105.5t51.5 89t74.5 61t89 22.5q56 0 88.5 -23t52.5 -77l8 3q-3 25 -4 38t-1 33v10h230l-58 -467h-229q3 12 5 20.5t4.5 17t6 19t9.5 26.5l-7 3q-30 -53 -63.5 -76t-80.5 -23zM353 516q-32 0 -60 7.5
t-49 24.5t-33.5 44.5t-12.5 67.5h112q2 -28 17 -39t37 -11q24 0 42 11t26 39h112q-10 -40 -29 -67.5t-44 -44.5t-55 -24.5t-63 -7.5zM473 866l80 -92l-195 -104l-59 67zM259 223q0 -26 16 -42.5t41 -16.5q28 0 46.5 21t18.5 53q0 26 -15.5 43.5t-39.5 17.5q-27 0 -47 -22.5
t-20 -53.5z" />
    <glyph glyph-name="uni1EB0" unicode="&#x1eb0;" horiz-adv-x="708" 
d="M280 667h276l124 -667h-247l-5 89h-164l-32 -89h-260zM424 711q-32 0 -60 7.5t-49 24.5t-33.5 44.5t-12.5 67.5h112q2 -28 17 -39t37 -11q24 0 42 11t26 39h112q-10 -40 -29 -67.5t-44 -44.5t-55 -24.5t-63 -7.5zM363 1061l154 -129l-59 -67l-175 104zM320 241h92
l-10 121q-1 8 -1.5 20.5t-0.5 26.5v15.5t0.5 12t1 11.5t1.5 14h-8q-7 -29 -13 -50t-17 -50z" />
    </font>
</defs>
</svg>
