<?xml version="1.0" standalone="no"?>
<!DOCTYPE svg PUBLIC "-//W3C//DTD SVG 1.1//EN" "http://www.w3.org/Graphics/SVG/1.1/DTD/svg11.dtd" >
<svg xmlns="http://www.w3.org/2000/svg" xmlns:xlink="http://www.w3.org/1999/xlink" version="1.1">
<metadata>
Created by FontForge 20170731 at Thu Oct 21 07:50:09 2021
 By Aleksey,,,
Copyright (c) 1995 ParaGraph Intl., (c) 1998 ParaType Inc., ParaType Ltd. All rights reserved.
</metadata>
<defs>
<font id="SVN-FuturaCondensed-ExtraBoldItalic" horiz-adv-x="500" >
  <font-face 
    font-family="SVN-Futura Cond XBold"
    font-weight="800"
    font-style="italic"
    font-stretch="condensed"
    units-per-em="1000"
    panose-1="0 0 0 0 0 0 0 0 0 0"
    ascent="800"
    descent="-200"
    x-height="467"
    cap-height="667"
    bbox="-272 -250 1024 965"
    underline-thickness="50"
    underline-position="-150"
    slope="-7"
    unicode-range="U+000D-FB02"
  />
<missing-glyph horiz-adv-x="233" 
 />
    <glyph glyph-name="fi" unicode="fi" horiz-adv-x="539" 
d="M22 327l17 140h50q5 47 10 94.5t25 86.5q22 43 62 67.5t88 24.5q20 0 39.5 -3.5t38.5 -8.5l-20 -161q-7 7 -14.5 12t-18.5 5q-10 0 -16 -4.5t-9 -12t-4.5 -15.5t-2.5 -16l-8 -69h61l-17 -140h-61l-40 -327h-171l40 327h-49zM453 503q-31 0 -53 21t-22 48q0 30 22.5 50
t52.5 20q32 0 55 -20t23 -50q0 -28 -22.5 -48.5t-55.5 -20.5zM359 467h170l-57 -467h-171z" />
    <glyph glyph-name="fl" unicode="fl" horiz-adv-x="539" 
d="M22 327l17 140h50q5 47 10 94.5t25 86.5q22 43 62 67.5t88 24.5q20 0 39.5 -3.5t38.5 -8.5l-20 -161q-7 7 -14.5 12t-18.5 5q-10 0 -16 -4.5t-9 -12t-4.5 -15.5t-2.5 -16l-8 -69h61l-17 -140h-61l-40 -327h-171l40 327h-49zM391 729h171l-90 -729h-171z" />
    <glyph glyph-name=".notdef" horiz-adv-x="233" 
 />
    <glyph glyph-name="uni0000" horiz-adv-x="0" 
 />
    <glyph glyph-name="uni0000" horiz-adv-x="0" 
 />
    <glyph glyph-name="uni000D" unicode="&#xd;" horiz-adv-x="250" 
 />
    <glyph glyph-name="space" unicode=" " horiz-adv-x="233" 
 />
    <glyph glyph-name="exclam" unicode="!" horiz-adv-x="314" 
d="M76 240l54 450h173l-54 -450h-173zM129 -10q-38 0 -62.5 25.5t-24.5 63.5q0 23 9 43.5t24.5 36t36 25t42.5 9.5q39 0 63.5 -26t24.5 -64q0 -22 -9.5 -42.5t-25 -36t-36 -25t-42.5 -9.5z" />
    <glyph glyph-name="quotedbl" unicode="&#x22;" horiz-adv-x="413" 
d="M234 667l-24 -268h-96l-24 268h144zM278 667h144l-25 -268h-95z" />
    <glyph glyph-name="numbersign" unicode="#" horiz-adv-x="600" 
d="M0 182l33 117h101l23 83h-100l32 116h101l48 169h131l-47 -169h84l48 169h133l-48 -169h100l-32 -116h-100l-23 -83h101l-32 -117h-102l-51 -182h-134l52 182h-84l-52 -182h-132l52 182h-102zM266 299h84l24 83h-85z" />
    <glyph glyph-name="dollar" unicode="$" horiz-adv-x="532" 
d="M95 229q15 -30 42 -52.5t62 -22.5q22 0 40 12.5t18 36.5q0 14 -10 27.5t-25 28.5t-33 31.5t-33 36.5t-25 45.5t-10 56.5q0 40 12.5 78.5t35 71t53.5 57.5t69 38l11 93h84l-10 -88q14 -3 25.5 -6t22.5 -7.5t22.5 -10t25.5 -13.5l-24 -202q-17 27 -40.5 49t-58.5 22
q-19 0 -34 -12t-15 -32q0 -14 10 -26t25.5 -25t33.5 -28.5t33.5 -35.5t25.5 -47t10 -62q0 -46 -16 -90t-46 -79q-22 -25 -41.5 -39t-48.5 -28l-12 -101h-84l10 85q-21 1 -36.5 2.5t-30.5 4.5t-30 8.5t-34 14.5z" />
    <glyph glyph-name="percent" unicode="%" horiz-adv-x="713" 
d="M175 337q-63 0 -95.5 38.5t-32.5 104.5q0 41 11 77t32 63t52 43t71 16q32 0 55 -11t38 -30.5t22 -47t7 -59.5q0 -37 -11 -72t-32 -62t-50.5 -43.5t-66.5 -16.5zM137 0l372 667h90l-370 -667h-92zM199 581q-11 0 -18 -11t-11 -26.5t-5.5 -32.5t-1.5 -28q0 -17 3 -33
t18 -16q11 0 18 11.5t10.5 27t5 32.5t1.5 28q0 17 -3 32.5t-17 15.5zM404 138q0 41 11 77t32 63t52 43t71 16q32 0 55 -11t38 -30.5t22 -47t7 -59.5q0 -37 -11 -72t-32 -62t-50.5 -43.5t-66.5 -16.5q-63 0 -95.5 38.5t-32.5 104.5zM556 239q-11 0 -18 -11t-11 -26.5
t-5.5 -32.5t-1.5 -28q0 -17 3 -33t18 -16q11 0 18 11.5t10.5 27t5 32.5t1.5 28q0 17 -3 32.5t-17 15.5z" />
    <glyph glyph-name="ampersand" unicode="&#x26;" horiz-adv-x="620" 
d="M34 169q0 70 38.5 120t97.5 82q-17 24 -26.5 53t-9.5 58q0 41 17.5 77t46 62.5t65.5 42t77 15.5q35 0 67.5 -11.5t57 -32.5t39 -51t14.5 -67q0 -32 -11 -60.5t-30 -52.5t-43 -44t-50 -35l54 -86q19 19 36 38t34 39l76 -122q-19 -18 -38 -35.5t-39 -34.5l76 -124h-192
l-22 36q-35 -22 -73 -35t-80 -13q-38 0 -71.5 14t-58 38.5t-38.5 57.5t-14 71zM337 542q-17 0 -29 -12t-12 -29t7.5 -32t15.5 -29q16 13 33 31t17 40q0 14 -9 22.5t-23 8.5zM203 190q0 -20 12.5 -33.5t32.5 -13.5q13 0 24.5 4.5t22.5 12.5l-54 87q-18 -10 -28 -23t-10 -34z
" />
    <glyph glyph-name="quotesingle" unicode="'" horiz-adv-x="225" 
d="M210 399h-96l-24 268h144z" />
    <glyph glyph-name="parenleft" unicode="(" horiz-adv-x="330" 
d="M42 139q0 165 50 315t139 283l119 -69q-68 -112 -110.5 -238t-42.5 -263q0 -86 12.5 -162t41.5 -153l-136 -69q-35 84 -54 173t-19 183z" />
    <glyph glyph-name="parenright" unicode=")" horiz-adv-x="330" 
d="M-13 -148q34 54 62.5 114t48.5 123.5t31.5 130t11.5 132.5q0 169 -55 316l136 69q73 -167 73 -358q0 -166 -49.5 -314t-139.5 -282z" />
    <glyph glyph-name="asterisk" unicode="*" horiz-adv-x="525" 
d="M378 515l59 -93l-98 -55l-47 99l-69 -85l-82 77l79 76l-101 40l48 103l95 -52l7 110l111 -14l-20 -108l105 28l21 -111z" />
    <glyph glyph-name="plus" unicode="+" 
d="M199 400v153h130v-153h151v-120h-151v-153h-130v153h-152v120h152z" />
    <glyph glyph-name="comma" unicode="," horiz-adv-x="289" 
d="M96 -161h-140l120 320h174z" />
    <glyph glyph-name="hyphen" unicode="-" horiz-adv-x="317" 
d="M45 186l16 134h217l-16 -134h-217z" />
    <glyph glyph-name="period" unicode="." horiz-adv-x="289" 
d="M27 80q0 22 9 42.5t24.5 36t36 24.5t42.5 9q38 0 63.5 -26t25.5 -64q0 -22 -9 -42.5t-24.5 -36t-36 -24.5t-42.5 -9q-38 0 -63.5 26t-25.5 64z" />
    <glyph glyph-name="slash" unicode="/" horiz-adv-x="526" 
d="M76 -216h-120l489 945h120z" />
    <glyph glyph-name="zero" unicode="0" horiz-adv-x="532" 
d="M43 254q0 43 5 86t16 85q12 47 34 92.5t54 81.5t74.5 58t96.5 22q55 0 92 -22t59.5 -57.5t32 -81t9.5 -92.5q0 -45 -4.5 -89.5t-15.5 -88.5q-11 -46 -32 -92.5t-52 -84t-73 -60.5t-96 -23q-58 0 -96.5 23t-61.5 60.5t-32.5 85.5t-9.5 97zM300 523q-19 0 -32.5 -18
t-22.5 -46.5t-14.5 -63.5t-8.5 -68t-4 -60t-1 -41q0 -10 0.5 -24t4.5 -27t11.5 -22t21.5 -9q19 0 33 18t24 45.5t16 61.5t9.5 66.5t4.5 59.5t1 41q0 11 -1 26t-5 28.5t-12.5 23t-24.5 9.5z" />
    <glyph glyph-name="one" unicode="1" horiz-adv-x="532" 
d="M356 0h-177l62 510h-71l19 157h249z" />
    <glyph glyph-name="two" unicode="2" horiz-adv-x="532" 
d="M213 243q20 23 44 51.5t44.5 60.5t34.5 65t14 65q0 16 -8 31t-27 15q-17 0 -27.5 -12t-16.5 -28.5t-8 -35t-3 -30.5h-172q5 53 23.5 99t50 80.5t76 54.5t100.5 20q42 0 76.5 -13.5t58.5 -38t37 -59t13 -76.5q0 -54 -19 -102t-49.5 -91t-68.5 -80.5t-76 -70.5
q42 3 82.5 3.5t82.5 1.5l-19 -153h-452z" />
    <glyph glyph-name="three" unicode="3" horiz-adv-x="532" 
d="M229 -12q-39 0 -74 11t-62 32t-42.5 53t-15.5 74q0 10 1.5 19t2.5 19h173q-1 -5 -1 -9v-9q0 -18 8.5 -30t28.5 -12q14 0 24.5 6.5t18 17t11 23.5t3.5 25q0 35 -19.5 47.5t-51.5 12.5l-16 -2h-8l18 142q5 -1 10.5 -1h10.5q81 0 81 80q0 15 -6.5 29t-24.5 14
q-22 0 -30 -17.5t-12 -35.5h-171q9 45 29.5 82t51 64t70 41.5t86.5 14.5q38 0 71.5 -12t58.5 -34.5t39 -54.5t14 -71q0 -55 -26.5 -95.5t-72.5 -66.5q38 -23 54.5 -55t16.5 -76q0 -51 -21 -92.5t-55.5 -71.5t-79.5 -46t-93 -16z" />
    <glyph glyph-name="four" unicode="4" horiz-adv-x="532" 
d="M36 276l247 391h217l-48 -388h56l-17 -144h-56l-17 -135h-177l16 135h-238zM312 479q-30 -52 -61 -102t-68 -98h98q8 51 15 100.5t16 99.5z" />
    <glyph glyph-name="five" unicode="5" horiz-adv-x="532" 
d="M68 198q31 -20 64.5 -33t70.5 -13q18 0 36.5 5t32.5 15.5t23 26t9 36.5q0 20 -9 33t-22.5 20.5t-30.5 10t-34 2.5q-32 0 -60 -6t-59 -17l98 389h327l-19 -157h-187l-24 -75q8 1 15 1h15q39 0 70 -13.5t53 -37.5t34 -56t12 -70q0 -57 -23 -106.5t-61.5 -86t-89.5 -57.5
t-107 -21q-46 0 -90.5 13.5t-83.5 38.5z" />
    <glyph glyph-name="six" unicode="6" horiz-adv-x="532" 
d="M43 192q0 57 23.5 120.5t57.5 126.5t72.5 122t68.5 106h191l-128 -190q-9 -14 -18.5 -26.5t-20.5 -25.5q16 8 31 13t33 5q36 0 62 -16.5t43 -42t25 -57.5t8 -63q0 -56 -19 -106t-53.5 -88t-82 -60t-105.5 -22q-46 0 -81.5 15t-59 42t-35.5 64.5t-12 82.5zM217 193
q0 -10 1.5 -20.5t5.5 -19.5t11.5 -15t20.5 -6q20 0 32 13.5t19.5 33t10 40t2.5 35.5q0 20 -9.5 39.5t-32.5 19.5q-19 0 -31 -13.5t-18.5 -32.5t-9 -39.5t-2.5 -34.5z" />
    <glyph glyph-name="seven" unicode="7" horiz-adv-x="532" 
d="M216 355q46 80 104 155h-222l19 157h466l-377 -667h-191z" />
    <glyph glyph-name="eight" unicode="8" horiz-adv-x="532" 
d="M36 166q0 42 17.5 81t49.5 65q15 13 31.5 20.5t34.5 14.5q-44 15 -63.5 43t-19.5 75t19.5 86.5t52 68t74.5 44t87 15.5q37 0 72 -10.5t62 -31.5t43 -52t16 -72q0 -60 -28.5 -101t-80.5 -65q45 -20 64.5 -51t19.5 -79q0 -51 -21 -93.5t-55.5 -72.5t-79.5 -46.5t-94 -16.5
q-39 0 -75.5 12t-64 35t-44.5 56t-17 75zM260 464q0 -17 6.5 -31t26.5 -14q12 0 20 8t13 19.5t7 24t2 21.5q0 14 -7 28.5t-24 14.5q-13 0 -21.5 -7.5t-13.5 -18t-7 -23t-2 -22.5zM220 195q0 -17 7 -35t29 -18q14 0 24 9t16 21.5t9 27t3 25.5q0 17 -7 34.5t-29 17.5
q-13 0 -23 -8.5t-16.5 -21.5t-9.5 -27t-3 -25z" />
    <glyph glyph-name="nine" unicode="9" horiz-adv-x="532" 
d="M204 223q-36 0 -61.5 16.5t-42.5 42.5t-25 57.5t-8 62.5q0 56 19 106t53.5 88t82.5 60.5t106 22.5q47 0 82 -15.5t58 -42.5t35 -64.5t12 -81.5q0 -57 -23.5 -120.5t-57.5 -126.5t-73 -122t-69 -106h-190l128 189q9 14 18.5 27t20.5 26q-16 -9 -31.5 -14t-33.5 -5z
M238 412q0 -20 9.5 -39.5t32.5 -19.5q20 0 32 13.5t18.5 33t9 40.5t2.5 35q0 10 -1.5 20.5t-5.5 19.5t-12 14.5t-20 5.5q-20 0 -32.5 -13.5t-20 -33t-10 -40.5t-2.5 -36z" />
    <glyph glyph-name="colon" unicode=":" horiz-adv-x="289" 
d="M151 275q-38 0 -63.5 26t-25.5 64q0 22 9 42.5t24.5 36t36 24.5t42.5 9q38 0 63.5 -26t25.5 -64q0 -22 -9 -42.5t-24.5 -36t-36 -24.5t-42.5 -9zM116 -10q-38 0 -63.5 26t-25.5 64q0 22 9 42.5t24.5 36t36 24.5t42.5 9q38 0 63.5 -26t25.5 -64q0 -22 -9 -42.5t-24.5 -36
t-36 -24.5t-42.5 -9z" />
    <glyph glyph-name="semicolon" unicode=";" horiz-adv-x="289" 
d="M184 275q-38 0 -63.5 25.5t-25.5 63.5q0 23 9 43t24.5 36t36 25t42.5 9q38 0 63.5 -26t25.5 -64q0 -22 -9 -42.5t-24.5 -36t-36 -24.5t-42.5 -9zM-44 -161l120 320h174l-154 -320h-140z" />
    <glyph glyph-name="less" unicode="&#x3c;" 
d="M33 280v109l433 220v-128l-296 -147l295 -148l1 -128z" />
    <glyph glyph-name="equal" unicode="=" 
d="M47 370v113h433v-113h-433zM47 197v113h433v-113h-433z" />
    <glyph glyph-name="greater" unicode="&#x3e;" 
d="M60 58v129l296 147l-295 147l-1 128l433 -221v-109z" />
    <glyph glyph-name="question" unicode="?" horiz-adv-x="501" 
d="M71 478q5 40 13.5 67.5t31.5 61.5q32 47 84 71t108 24q87 0 137.5 -51.5t50.5 -138.5q0 -34 -10 -67t-29 -61t-47 -48.5t-65 -30.5l-7 -65h-169l19 160q7 -1 13.5 -1.5t13.5 -0.5q54 0 79 27t25 75q0 8 -1 17.5t-4 17.5t-9 13.5t-17 5.5q-13 0 -21.5 -8t-13.5 -20
t-7.5 -25t-3.5 -23h-171zM224 -10q-38 0 -62.5 25.5t-24.5 63.5q0 23 9 43.5t24.5 36t36 25t42.5 9.5q39 0 63.5 -26t24.5 -64q0 -22 -9.5 -42.5t-25 -36t-36 -25t-42.5 -9.5z" />
    <glyph glyph-name="at" unicode="@" horiz-adv-x="733" 
d="M358 -12q-69 0 -127 20t-99.5 58t-65 93.5t-23.5 126.5q0 80 32.5 151t87 124.5t126.5 85t151 31.5q58 0 109.5 -17t89.5 -50t60.5 -81t22.5 -109q0 -43 -12 -84.5t-35 -78.5q-12 -19 -27.5 -37.5t-35 -33.5t-41 -24t-45.5 -9t-45 14t-25 40q-24 -29 -59.5 -46t-73.5 -17
q-28 0 -51 11t-38.5 29t-24 42.5t-8.5 51.5q0 39 16 78.5t43 71.5t63.5 52.5t77.5 20.5q27 0 53 -11t39 -37l12 38l88 -1l-60 -189l-8 -26t-4 -27q0 -22 20 -22q14 0 27 11t21 21q26 30 40 71.5t14 80.5q0 46 -16 81t-44.5 58.5t-66 35.5t-81.5 12q-62 0 -117.5 -24.5
t-97 -66.5t-66 -97.5t-24.5 -117.5q0 -42 13 -82t40 -72q35 -43 84 -56.5t102 -13.5q95 0 185 30l10 -80q-50 -16 -101.5 -23t-104.5 -7zM303 294q0 -26 15.5 -42t41.5 -16q21 0 38.5 10.5t30.5 27t20.5 36.5t7.5 39q0 26 -13.5 43t-40.5 17q-21 0 -39 -10.5t-31.5 -27.5
t-21.5 -37t-8 -40z" />
    <glyph glyph-name="A" unicode="A" horiz-adv-x="524" 
d="M-23 0l240 667h217l57 -667h-183l-3 85h-119l-25 -85h-184zM302 227q-1 20 -1.5 39t-0.5 39v87q0 29 1 57.5t2 57.5q-6 -23 -11 -47t-12 -47q-14 -47 -26.5 -93t-26.5 -93h75z" />
    <glyph glyph-name="B" unicode="B" horiz-adv-x="522" 
d="M100 667h206q42 0 79 -8t65.5 -27t45 -50.5t16.5 -79.5q0 -67 -35.5 -110.5t-104.5 -49.5q59 -8 88 -36.5t29 -90.5q0 -48 -17.5 -87.5t-47.5 -68t-70.5 -44t-87.5 -15.5h-248zM245 408q4 -1 12 -1q31 0 54 16.5t23 49.5q0 27 -15.5 38.5t-40.5 11.5h-9.5t-9.5 -1z
M213 145q5 -1 15 -1q33 0 57.5 19.5t24.5 54.5q0 32 -21.5 43.5t-49.5 11.5l-6 -1h-4z" />
    <glyph glyph-name="C" unicode="C" horiz-adv-x="438" 
d="M38 260q0 75 20.5 150t62 134.5t104.5 97t148 37.5q27 0 45 -3t43 -14l-23 -190q-17 19 -34 29.5t-43 10.5q-40 0 -67 -23t-43 -56.5t-23 -72.5t-7 -71q0 -24 4.5 -46.5t15.5 -40.5t29 -29t46 -11q29 0 52.5 12.5t44.5 30.5l-34 -193q-29 -12 -53 -18t-56 -6
q-60 0 -103.5 22t-72 59.5t-42.5 87t-14 103.5z" />
    <glyph glyph-name="D" unicode="D" horiz-adv-x="529" 
d="M100 667h153q128 0 196 -71.5t68 -197.5q0 -69 -18.5 -141t-56.5 -129q-48 -71 -110.5 -99.5t-147.5 -28.5h-166zM215 161q36 2 59 25t36.5 56t18.5 69.5t5 64.5q0 20 -2.5 41.5t-11 40t-23.5 30.5t-40 12z" />
    <glyph glyph-name="E" unicode="E" horiz-adv-x="405" 
d="M410 510h-152l-12 -97h137l-19 -151h-136l-13 -102h152l-19 -160h-330l82 667h330z" />
    <glyph glyph-name="F" unicode="F" horiz-adv-x="382" 
d="M394 510h-136l-12 -97h127l-19 -151h-126l-33 -262h-177l82 667h313z" />
    <glyph glyph-name="G" unicode="G" horiz-adv-x="552" 
d="M37 253q0 46 7 95t22.5 96.5t39.5 90t57.5 74.5t77 51t97.5 19q82 0 132 -44.5t73 -120.5l-180 -64q0 11 -2 22.5t-6.5 22t-13 17t-22.5 6.5q-20 0 -34 -12.5t-23.5 -30.5t-15 -38t-9.5 -35q-10 -40 -15.5 -80t-5.5 -81q0 -14 1.5 -30t6.5 -30t15.5 -23.5t29.5 -9.5
q18 0 31 9.5t21.5 24t13.5 31.5t7 32h-65l17 140h247q-4 -43 -12 -89.5t-21.5 -90.5t-34.5 -83.5t-51.5 -69t-72 -47t-96.5 -17.5q-59 0 -100.5 21.5t-67 58.5t-37 85t-11.5 100z" />
    <glyph glyph-name="H" unicode="H" horiz-adv-x="531" 
d="M100 667h177l-29 -236h85l29 236h177l-82 -667h-177l33 268h-85l-33 -268h-177z" />
    <glyph glyph-name="I" unicode="I" horiz-adv-x="269" 
d="M195 0h-177l82 667h177z" />
    <glyph glyph-name="J" unicode="J" horiz-adv-x="349" 
d="M86 -12q-30 0 -57 5.5t-56 16.5l23 186q11 -17 27.5 -28t38.5 -11q18 0 29.5 7t19 19t11 26.5t5.5 29.5l52 428h178l-57 -463q-5 -34 -11.5 -65t-25.5 -60q-31 -48 -76 -69.5t-101 -21.5z" />
    <glyph glyph-name="K" unicode="K" horiz-adv-x="533" 
d="M100 667h177l-40 -298l140 298h187l-181 -322l117 -345h-191l-79 319l-35 -319h-177z" />
    <glyph glyph-name="L" unicode="L" horiz-adv-x="363" 
d="M329 0h-311l82 667h177l-62 -507h133z" />
    <glyph glyph-name="M" unicode="M" horiz-adv-x="755" 
d="M160 667h221l9 -225q1 -13 1.5 -25t0.5 -25q0 -20 -1 -40l-2 -40q20 91 48 178.5t56 176.5h219l-18 -667h-185q8 107 17 212.5t18 212.5q-27 -108 -60 -213.5t-66 -211.5h-145l-11 321v8l-1 18q0 20 0.5 39t1.5 39q-14 -107 -33 -213l-38 -212h-190z" />
    <glyph glyph-name="N" unicode="N" horiz-adv-x="554" 
d="M100 667h169l60 -234q11 -42 18.5 -84t16.5 -84q0 63 1 126t9 126l19 150h169l-82 -667h-169l-59 245q-8 35 -15.5 69.5t-12.5 69.5q-2 -26 -3 -53t-3 -53q-4 -70 -13.5 -139t-17.5 -139h-169z" />
    <glyph glyph-name="O" unicode="O" horiz-adv-x="558" 
d="M85 77q-28 41 -37.5 89.5t-9.5 96.5t7 95t22 92t40 86t59 73t77 51t94 19q54 0 93.5 -22t65 -58t38 -82.5t12.5 -94.5t-6 -96t-20 -95q-13 -46 -36.5 -90t-57 -78t-76.5 -54.5t-96 -20.5q-51 0 -95.5 23.5t-73.5 65.5zM222 266q0 -12 1 -31t5.5 -36t14 -29.5t27.5 -12.5
q19 0 33 14.5t24 37t17 50.5t11 56t5.5 52.5t1.5 40.5q0 12 -1 29.5t-5.5 34t-14 28t-26.5 11.5q-27 0 -44.5 -29.5t-28.5 -70t-15.5 -81.5t-4.5 -64z" />
    <glyph glyph-name="P" unicode="P" horiz-adv-x="498" 
d="M18 0l82 667h172q50 0 93 -9t75.5 -31t51 -59.5t18.5 -93.5q0 -51 -18.5 -102t-54.5 -88t-82.5 -52t-97.5 -15q-9 0 -17.5 0.5t-17.5 1.5l-27 -219h-177zM250 368q37 0 58 26t21 61q0 27 -14 46.5t-43 19.5h-13l-18 -153h9z" />
    <glyph glyph-name="Q" unicode="Q" horiz-adv-x="566" 
d="M37 256q0 45 5.5 88.5t18.5 85.5q15 48 39 92.5t58.5 79.5t78.5 56t98 21q57 0 97 -23.5t66 -61.5t38 -86t12 -98q0 -42 -6.5 -87t-20 -89.5t-34.5 -84.5t-50 -71l69 -92l-152 -79l-50 89q-14 -5 -27 -6.5t-27 -1.5q-56 0 -96.5 23.5t-66.5 61t-38 86t-12 97.5zM312 511
q-25 0 -42.5 -30.5t-28 -71.5t-15 -82.5t-4.5 -63.5q0 -12 1 -30.5t6 -35t14.5 -28.5t27.5 -12q20 0 35 18t25.5 43t16.5 51t8 42q6 45 6 92q0 13 -1 31.5t-6 35.5t-15 29t-28 12z" />
    <glyph glyph-name="R" unicode="R" horiz-adv-x="525" 
d="M18 0l82 667h181q49 0 91 -9.5t73 -31.5t48.5 -58.5t17.5 -91.5q0 -69 -29.5 -120.5t-94.5 -78.5l98 -277h-192q-12 51 -25 100t-24 100q-1 5 -2 9.5t-2 9.5l-9 39q-1 5 -1.5 9.5t-2.5 9.5q-6 -70 -14.5 -139t-17.5 -138h-177zM251 358q18 0 33.5 8.5t26.5 22t17 30.5
t6 34q0 38 -20.5 51t-54.5 13l-20 -159h12z" />
    <glyph glyph-name="S" unicode="S" horiz-adv-x="398" 
d="M32 226q17 -29 43 -51t61 -22q22 0 40 13t18 37q0 15 -10 28t-25.5 26.5t-33.5 29.5t-33.5 36.5t-25.5 47.5t-10 63q0 46 18 90t48.5 78.5t72 55.5t89.5 21q33 0 64 -9t60 -25l-25 -204q-14 27 -38.5 50t-56.5 23q-18 0 -35.5 -12t-17.5 -32q0 -15 10.5 -27.5t26 -26
t33.5 -29t33.5 -35.5t26 -46t10.5 -60q0 -51 -18 -98t-50 -82.5t-76.5 -56.5t-97.5 -21q-33 0 -65 7.5t-62 21.5z" />
    <glyph glyph-name="T" unicode="T" horiz-adv-x="377" 
d="M54 667h373l-20 -160h-98l-62 -507h-177l62 507h-98z" />
    <glyph glyph-name="U" unicode="U" horiz-adv-x="537" 
d="M42 172q0 24 3 48l55 447h177l-53 -431q-1 -8 -1.5 -16.5t-0.5 -16.5q0 -20 8.5 -33t30.5 -13q17 0 26.5 7.5t15.5 19t8.5 25.5t3.5 27l53 431h177l-58 -472q-6 -51 -24.5 -87t-60.5 -68q-35 -27 -72.5 -39.5t-82.5 -12.5q-44 0 -81.5 11.5t-65 34t-43 57.5t-15.5 81z
" />
    <glyph glyph-name="V" unicode="V" horiz-adv-x="510" 
d="M54 667h186l8 -156t4 -156q0 -31 -1 -61.5t-3 -61.5q23 112 56 219t67 216h193l-261 -667h-181z" />
    <glyph glyph-name="W" unicode="W" horiz-adv-x="742" 
d="M229 667q2 -60 3.5 -120.5t3.5 -120.5v-14l2 -29q0 -33 -0.5 -66.5t-1.5 -66.5q23 106 52.5 209.5t60.5 207.5h152q5 -72 9 -143.5t6 -143.5q1 -35 0.5 -69t-0.5 -69q11 55 22.5 109.5t26.5 108.5l58 207h173l-215 -667h-171q-5 105 -11 208.5t-5 208.5q-6 -23 -10.5 -46
t-9.5 -46q-4 -21 -9.5 -41.5t-10.5 -41.5l-63 -242h-173l-64 667h175z" />
    <glyph glyph-name="X" unicode="X" horiz-adv-x="509" 
d="M-28 0l202 346l-111 321h197q2 -7 3 -13.5t2 -14.5l12 -54q2 -17 6 -38t8 -38q13 41 29 80t33 78h199l-190 -321l119 -346h-197q-8 31 -13.5 62t-12.5 62q-3 14 -5.5 27.5t-4.5 27.5q-19 -46 -40 -90t-43 -89h-193z" />
    <glyph glyph-name="Y" unicode="Y" horiz-adv-x="493" 
d="M239 667q11 -51 21 -102.5t16 -103.5q20 53 42 104t45 102h184l-200 -385l-35 -282h-177l35 282l-116 385h185z" />
    <glyph glyph-name="Z" unicode="Z" horiz-adv-x="507" 
d="M-12 0l2 14l181 326q25 45 52 87t58 83h-191l19 157h435l-2 -19l-206 -363q-19 -34 -39 -66.5t-40 -66.5q51 5 101.5 5.5t101.5 2.5l-19 -160h-453z" />
    <glyph glyph-name="bracketleft" unicode="[" horiz-adv-x="344" 
d="M358 610h-102l-85 -699h101l-15 -120h-251l115 938h251z" />
    <glyph glyph-name="backslash" unicode="\" horiz-adv-x="562" 
d="M173 729l372 -945h-120l-372 945h120z" />
    <glyph glyph-name="bracketright" unicode="]" horiz-adv-x="344" 
d="M231 -209h-252l15 120h101l86 699h-101l14 119h252z" />
    <glyph glyph-name="asciicircum" unicode="^" 
d="M178 667h170l161 -337h-136l-110 233l-110 -233h-135z" />
    <glyph glyph-name="underscore" unicode="_" 
d="M-28 -166v120h500v-120h-500z" />
    <glyph glyph-name="grave" unicode="`" 
d="M242 530l-68 148h138l28 -148h-98z" />
    <glyph glyph-name="a" unicode="a" horiz-adv-x="489" 
d="M23 167q0 28 3.5 61.5t12 68t22 67t33.5 57.5t46.5 40.5t61.5 15.5q43 0 64 -24t35 -60q0 5 0.5 9.5t0.5 9.5l2 36q0 5 0.5 9.5t0.5 9.5h174l-57 -467h-171l15 79q-23 -38 -53 -63.5t-77 -25.5q-34 0 -56 17.5t-35 43.5t-17.5 57.5t-4.5 58.5zM195 188q0 -8 1 -17.5
t4 -18t9 -14t17 -5.5q18 0 29 19.5t17 45.5t8 51.5t2 38.5q0 14 -4.5 30t-23.5 16q-18 0 -29.5 -18t-18 -42t-9 -48.5t-2.5 -37.5z" />
    <glyph glyph-name="b" unicode="b" horiz-adv-x="489" 
d="M101 729h171q-9 -70 -16 -139.5t-19 -138.5l-4 -26l-4 -26q22 34 48.5 56t69.5 22q37 0 60.5 -16.5t36.5 -42.5t18 -57.5t5 -61.5q0 -42 -8.5 -96t-29 -101t-55.5 -79.5t-88 -32.5q-40 0 -59.5 20t-36.5 53q0 -4 -0.5 -7.5t-0.5 -8.5l-2 -31v-8t-1 -8h-175zM203 195
q0 -8 1 -17.5t4 -18t9 -14.5t17 -6q17 0 28 16.5t17 38.5t8.5 44.5t2.5 34.5q0 8 -1 18.5t-4.5 19.5t-10.5 15.5t-18 6.5q-16 0 -26.5 -17t-16.5 -40t-8 -46t-2 -35z" />
    <glyph glyph-name="c" unicode="c" horiz-adv-x="298" 
d="M204 -10q-46 0 -80 17t-56 46t-32.5 67t-10.5 80q0 53 18.5 102.5t51.5 88.5t79 62.5t101 23.5q8 0 17 -0.5t17 -1.5l-19 -152q-42 -3 -64.5 -30t-22.5 -68q0 -12 3.5 -25t10 -23.5t17 -17.5t24.5 -7h11l-19 -159q-22 -3 -46 -3z" />
    <glyph glyph-name="d" unicode="d" horiz-adv-x="489" 
d="M145 -10q-36 0 -60 16t-38 41t-19.5 56t-5.5 61q0 32 3 64.5t11 64.5q7 30 20.5 62.5t34 59.5t48.5 44.5t64 17.5q42 0 63.5 -21.5t36.5 -56.5q5 84 16 165.5t22 164.5h170l-89 -729h-174q1 16 5 31.5t6 31.5q-23 -30 -48.5 -51.5t-65.5 -21.5zM201 197q0 -8 1.5 -18
t5 -19t10 -15t16.5 -6q17 0 27.5 16.5t16.5 39t8 45t2 34.5q0 7 -0.5 17t-3.5 19.5t-9 16t-16 6.5q-18 0 -29.5 -16.5t-17.5 -38.5t-8.5 -45t-2.5 -36z" />
    <glyph glyph-name="e" unicode="e" horiz-adv-x="474" 
d="M23 181q0 54 16.5 107t48 94.5t78 67.5t105.5 26q45 0 79 -15.5t56.5 -42.5t33.5 -63.5t11 -78.5q0 -20 -2.5 -39.5t-5.5 -39.5h-250q-1 -5 -1 -9.5v-9.5q0 -8 1 -17.5t4 -17.5t9.5 -13t17.5 -5q15 0 26 9.5t16 22.5h166q-26 -80 -83.5 -123.5t-141.5 -43.5
q-91 0 -137.5 51.5t-46.5 139.5zM286 290v3l1 6q0 17 -6.5 33.5t-27.5 16.5q-22 0 -33 -20t-13 -39h79z" />
    <glyph glyph-name="f" unicode="f" horiz-adv-x="296" 
d="M22 327l17 140h50q5 47 10 94.5t25 86.5q22 43 62 67.5t88 24.5q20 0 39.5 -3.5t38.5 -8.5l-20 -161q-7 7 -14.5 12t-18.5 5q-10 0 -16 -4.5t-9 -12t-4.5 -15.5t-2.5 -16l-8 -69h61l-17 -140h-61l-40 -327h-171l40 327h-49z" />
    <glyph glyph-name="g" unicode="g" horiz-adv-x="485" 
d="M173 -46q0 -16 7 -27t24 -11q14 0 23 6t14 15.5t7.5 21.5t3.5 23q5 35 9 72q-21 -26 -50 -43.5t-64 -17.5t-59 17.5t-38.5 44t-20.5 58.5t-6 61q0 62 15 122q8 29 22 61t35 58.5t48.5 44t62.5 17.5q33 0 55.5 -22.5t37.5 -48.5l4 61h172l-59 -479q-5 -36 -15 -68t-34 -60
q-34 -39 -83 -57t-100 -18q-88 0 -135.5 38.5t-49.5 130.5h174zM202 199q0 -7 1 -18t4 -21t9 -17t16 -7q17 0 27 18t15.5 41.5t7.5 47.5t2 36q0 7 -0.5 17t-3 19t-8 15t-15.5 6q-17 0 -28 -17t-17 -39.5t-8 -45.5t-2 -35z" />
    <glyph glyph-name="h" unicode="h" horiz-adv-x="483" 
d="M101 729h171l-32 -261q-3 -23 -7 -45t-9 -45q21 39 53.5 69t80.5 30q25 0 43.5 -9.5t31 -25.5t19 -37t6.5 -44q0 -22 -3 -43l-39 -318h-171l31 247q1 7 1.5 13t0.5 13q0 11 -4.5 21t-18.5 10q-12 0 -20 -7.5t-13 -18t-7.5 -22.5t-3.5 -21l-29 -235h-171z" />
    <glyph glyph-name="i" unicode="i" horiz-adv-x="249" 
d="M161 503q-31 0 -53 21t-22 48q0 30 22.5 50t52.5 20q32 0 55 -20t23 -50q0 -28 -22.5 -48.5t-55.5 -20.5zM11 0l58 467h170l-57 -467h-171z" />
    <glyph glyph-name="j" unicode="j" horiz-adv-x="252" 
d="M162 503q-31 0 -53 21t-22 48q0 30 22.5 50t52.5 20q32 0 55 -20t23 -50q0 -28 -22.5 -48.5t-55.5 -20.5zM-13 -215l83 682h172l-85 -682h-170z" />
    <glyph glyph-name="k" unicode="k" horiz-adv-x="487" 
d="M11 0l90 729h171l-57 -462q6 14 15 30l18 32l75 138h182l-139 -215l93 -252h-190l-41 146q-8 29 -12 49.5t-6 31.5l-28 -227h-171z" />
    <glyph glyph-name="l" unicode="l" horiz-adv-x="250" 
d="M182 0h-171l90 729h171z" />
    <glyph glyph-name="m" unicode="m" horiz-adv-x="722" 
d="M11 0l58 467h170q-4 -39 -12 -78q23 36 53.5 62t76.5 26q49 0 73 -27t37 -70q10 21 21.5 38.5t26 30.5t33.5 20.5t44 7.5q48 0 77 -30.5t29 -77.5q0 -12 -1 -24.5t-3 -24.5l-39 -320h-171l30 245q1 8 2.5 17t1.5 17q0 11 -4.5 20.5t-17.5 9.5t-21.5 -7.5t-14 -19t-8 -24
t-3.5 -22.5l-29 -236h-171l29 235q2 11 3 20.5t1 20.5q0 12 -5 20.5t-19 8.5q-15 0 -23.5 -7t-13 -18t-6.5 -24t-4 -24l-29 -232h-171z" />
    <glyph glyph-name="n" unicode="n" horiz-adv-x="483" 
d="M11 0l58 467h170q-4 -23 -7 -44.5t-8 -44.5q21 39 53.5 69t80.5 30q25 0 43.5 -9.5t31 -25.5t19 -37t6.5 -44q0 -22 -3 -43l-39 -318h-171l31 247q1 7 1.5 13t0.5 13q0 11 -4.5 21t-18.5 10q-12 0 -20 -7.5t-13 -18t-7.5 -22.5t-3.5 -21l-29 -235h-171z" />
    <glyph glyph-name="o" unicode="o" horiz-adv-x="480" 
d="M208 -10q-46 0 -81 14.5t-57.5 41t-34 63.5t-11.5 81q0 54 16 106t47.5 92t77.5 64.5t105 24.5q91 0 138.5 -54.5t47.5 -142.5q0 -57 -15.5 -109.5t-46 -92.5t-77 -64t-109.5 -24zM254 346q-18 0 -30.5 -18t-20 -42.5t-10.5 -49t-3 -38.5q0 -9 1 -22t5 -25.5t11.5 -21
t19.5 -8.5q18 0 30.5 18t20 42.5t10.5 49.5t3 38q0 9 -1 22t-4.5 25.5t-11 21t-20.5 8.5z" />
    <glyph glyph-name="p" unicode="p" horiz-adv-x="489" 
d="M-14 -215l85 682h170l-12 -66q21 32 47 54t68 22q37 0 60.5 -18.5t37.5 -46t19.5 -60.5t5.5 -63q0 -27 -4 -59.5t-13 -66t-23 -64.5t-34 -55.5t-46.5 -39t-59.5 -14.5q-38 0 -60.5 20.5t-38.5 52.5q0 -20 -2 -38.5t-4 -38.5l-25 -201h-171zM259 334q-16 0 -26.5 -16.5
t-16.5 -39t-8.5 -45.5t-2.5 -35q0 -7 0.5 -17.5t3.5 -20.5t9 -17t16 -7q16 0 27 17t17.5 39.5t9 45t2.5 34.5q0 8 -1 18.5t-4 20t-9 16.5t-17 7z" />
    <glyph glyph-name="q" unicode="q" horiz-adv-x="487" 
d="M23 173q0 63 15 123q8 29 22 61t35 58.5t48.5 44t62.5 17.5q39 0 61 -20.5t35 -55.5l4 66h171l-84 -682h-171l25 201q1 7 1.5 13t2.5 13q3 13 5.5 25.5t4.5 25.5q-23 -31 -50 -52t-68 -21q-37 0 -60.5 17.5t-36.5 44.5t-18 59t-5 62zM256 334q-17 0 -27.5 -16.5
t-16.5 -39t-8 -45t-2 -34.5q0 -7 1 -18t4 -21t9.5 -17t16.5 -7q15 0 25.5 17t16.5 39.5t8.5 45.5t2.5 34q0 8 -0.5 18.5t-3.5 20t-9 16.5t-17 7z" />
    <glyph glyph-name="r" unicode="r" horiz-adv-x="339" 
d="M69 467h170l-20 -91q23 45 56 72.5t85 29.5l-24 -194q-11 7 -21.5 11t-24.5 4q-17 0 -31.5 -7.5t-25.5 -19.5q-14 -16 -19 -34t-7 -38l-25 -200h-171z" />
    <glyph glyph-name="s" unicode="s" horiz-adv-x="389" 
d="M78 168q14 -17 35 -33t44 -16q12 0 24 6.5t12 20.5q0 16 -14 22.5t-26 11.5q-21 8 -40 18t-33 24t-22.5 33t-8.5 44q0 41 18.5 74t48 56t67 35.5t75.5 12.5q37 0 68.5 -10t63.5 -28l-74 -127q-12 14 -28.5 27.5t-36.5 13.5q-11 0 -20.5 -6.5t-9.5 -18.5q0 -13 10.5 -21.5
t26.5 -15.5t34 -15t34 -21t26.5 -33t10.5 -51q0 -41 -17.5 -74.5t-46 -57t-65 -36.5t-75.5 -13q-48 0 -83 12.5t-76 36.5z" />
    <glyph glyph-name="t" unicode="t" horiz-adv-x="297" 
d="M43 467h49l17 137h171l-17 -137h56l-17 -140h-56l-41 -327h-170l40 327h-49z" />
    <glyph glyph-name="u" unicode="u" horiz-adv-x="492" 
d="M31 144q0 9 1 18l2 18l35 287h170l-32 -263q-1 -9 -2 -17.5t-1 -17.5q0 -34 31 -34q14 0 22.5 7t13 17t6 22.5t2.5 22.5l32 263h171l-35 -287q-6 -49 -24.5 -84t-60.5 -63q-66 -43 -145 -43q-36 0 -69.5 9t-59.5 28t-41.5 48t-15.5 69z" />
    <glyph glyph-name="v" unicode="v" horiz-adv-x="439" 
d="M29 467h173q4 -51 8 -101t4 -101q0 -23 -0.5 -46.5t-1.5 -46.5q18 75 41.5 148t46.5 147h168l-191 -467h-178z" />
    <glyph glyph-name="w" unicode="w" horiz-adv-x="672" 
d="M29 467h168l8 -150q1 -17 1 -33v-33v-66q14 73 38.5 142.5t48.5 139.5h145q3 -71 5.5 -141t0.5 -141q18 72 41 142l46 140h170l-191 -467h-169v280l-87 -280h-168z" />
    <glyph glyph-name="x" unicode="x" horiz-adv-x="475" 
d="M-28 0l169 240l-104 227h195q5 -26 10.5 -50.5t9.5 -50.5q11 26 24.5 50.5t25.5 50.5h189l-163 -223l119 -244h-198q-8 27 -14 54.5t-11 55.5q-13 -29 -28.5 -56.5t-32.5 -53.5h-191z" />
    <glyph glyph-name="y" unicode="y" horiz-adv-x="458" 
d="M10 -215l110 234l-82 448h172q7 -59 14.5 -117t7.5 -118v-7l-1 -15v-8q11 42 22 83t26 81l38 101h170l-301 -682h-176z" />
    <glyph glyph-name="z" unicode="z" horiz-adv-x="428" 
d="M129 242q13 22 26.5 43.5t28.5 41.5h-130l17 140h370l-138 -238q-26 -46 -55 -88h126l-17 -141h-369z" />
    <glyph glyph-name="braceleft" unicode="{" horiz-adv-x="504" 
d="M129 320q34 6 47 25t17 51l22 188q10 81 50 113t120 32q20 0 38.5 -1t38.5 -2l-14 -114q-11 0 -20.5 0.5t-18.5 0.5q-26 0 -43 -10t-24 -48q-5 -36 -8.5 -71t-7 -67t-9.5 -59t-16 -47q-9 -18 -23 -29t-31 -22q27 -20 36.5 -39.5t9.5 -52.5v-17.5t-2 -17.5l-20 -157
q-1 -7 -2 -13t-1 -13q0 -30 17 -36.5t43 -6.5h17t17 1l-14 -115q-20 -1 -39 -1.5t-39 -0.5q-30 0 -55 4.5t-43 16.5t-28 33.5t-10 55.5q0 8 0.5 17t1.5 17l24 189q1 7 1.5 14t0.5 14q0 48 -46 58z" />
    <glyph glyph-name="bar" unicode="|" 
d="M188 -250v1000h130v-1000h-130z" />
    <glyph glyph-name="braceright" unicode="}" horiz-adv-x="504" 
d="M82 -92q5 -1 10.5 -1h10.5h5q18 0 31.5 1t23 6.5t15.5 17t10 32.5q4 23 7.5 56.5t7.5 69t10.5 67.5t16.5 52q9 18 23.5 29t30.5 22q-27 20 -36.5 39t-9.5 52q0 9 0.5 17.5t1.5 17.5l19 157q1 8 2 16.5t1 16.5q0 24 -20 30.5t-42 6.5q-9 0 -17 -0.5t-15 -0.5l14 114
q20 1 38.5 2t38.5 1q30 0 55 -4.5t43.5 -16.5t28.5 -33.5t10 -55.5q0 -9 -0.5 -17.5t-1.5 -17.5l-23 -188q-1 -7 -1.5 -14t-0.5 -14q0 -25 10.5 -39t35.5 -19l-13 -110q-32 -7 -46.5 -26t-18.5 -50l-23 -189q-5 -44 -18.5 -72t-35.5 -44t-53.5 -22t-73.5 -6q-17 0 -32.5 0.5
t-32.5 1.5z" />
    <glyph glyph-name="asciitilde" unicode="~" horiz-adv-x="667" 
d="M143 607q11 26 23 51t29.5 44.5t41.5 31.5t57 12q25 0 49 -7.5t47 -17t46.5 -17t47.5 -7.5q28 0 43.5 14t28.5 37l73 -43q-12 -26 -26.5 -50t-33 -43t-43 -30t-56.5 -11q-23 0 -46 8t-46 17t-45.5 17t-45.5 8q-31 0 -45.5 -17.5t-27.5 -43.5z" />
    <glyph glyph-name="uni00A0" unicode="&#xa0;" horiz-adv-x="233" 
 />
    <glyph glyph-name="exclamdown" unicode="&#xa1;" horiz-adv-x="315" 
d="M166 274q-39 0 -63.5 26t-24.5 64q0 22 9.5 42.5t25 36t36 25t42.5 9.5q38 0 63 -25.5t25 -63.5q0 -22 -9 -43t-25 -36.5t-36 -25t-43 -9.5zM16 -223l55 450h174l-56 -450h-173z" />
    <glyph glyph-name="cent" unicode="&#xa2;" horiz-adv-x="532" 
d="M133 315q0 52 18 102.5t51 91.5q20 24 37.5 36.5t44.5 25.5l12 108h84l-10 -86q4 1 8 1h8q8 0 15.5 -1t15.5 -3l-18 -148q-42 -2 -64.5 -30.5t-22.5 -68.5q0 -25 13.5 -47.5t41.5 -22.5h11l-19 -161q-12 -2 -24 -1.5t-24 -1.5l-10 -86h-84l13 105q-52 33 -74.5 79.5
t-22.5 107.5z" />
    <glyph glyph-name="sterling" unicode="&#xa3;" horiz-adv-x="532" 
d="M30 78q20 14 40.5 26t42.5 22q17 24 22.5 46.5t5.5 51.5q0 17 -2.5 32.5t-5.5 31.5h-60l11 93h33l-8 42t-4 43q0 46 17 84.5t46.5 66.5t69 44t84.5 16q57 0 101.5 -25t79.5 -68l-107 -96q-10 19 -23 34.5t-36 15.5q-24 0 -39 -19t-15 -42q0 -9 1 -18t3 -18l4 -24
q2 -9 3 -18t1 -18h159l-12 -93h-148q-4 -37 -19 -69t-39 -60q24 -2 37.5 -5.5t33.5 -15.5q9 -5 16.5 -8t18.5 -3q18 0 31.5 9t24.5 23l82 -48q-13 -26 -29.5 -48.5t-37.5 -39t-47 -26t-57 -9.5q-41 0 -81 17q-21 9 -34 15t-37 6q-26 0 -46.5 -8.5t-41.5 -21.5z" />
    <glyph glyph-name="currency" unicode="&#xa4;" horiz-adv-x="667" 
d="M38 619l71 71l104 -104q33 22 66.5 33t73.5 11q39 0 72 -11t65 -32l103 102l70 -70l-102 -102q22 -34 33.5 -66t11.5 -73q0 -39 -10.5 -72t-32.5 -65l103 -103l-70 -71l-103 103q-32 -22 -67.5 -33.5t-74.5 -11.5q-41 0 -73 11.5t-67 32.5l-102 -102l-70 70l103 103
q-21 31 -32.5 65.5t-11.5 72.5q0 39 11 72t33 65zM352 514q-28 0 -53 -11t-43.5 -29.5t-29 -43.5t-10.5 -53t10.5 -53t29 -43.5t43.5 -29t53 -10.5t53 10.5t43.5 29t29 43.5t10.5 53t-10.5 53t-29 43.5t-43.5 29.5t-53 11z" />
    <glyph glyph-name="yen" unicode="&#xa5;" horiz-adv-x="532" 
d="M23 202l11 93h152l-20 66h-124l12 94h84l-64 212h184q11 -51 21.5 -102.5t16.5 -103.5q20 53 42 104t45 102h184l-111 -212h78l-11 -94h-115l-34 -66h141l-12 -93h-146l-25 -202h-177l25 202h-157z" />
    <glyph glyph-name="brokenbar" unicode="&#xa6;" 
d="M188 335v415h130v-415h-130zM188 -250v415h130v-415h-130z" />
    <glyph glyph-name="section" unicode="&#xa7;" horiz-adv-x="525" 
d="M207 -215q-39 0 -74 10.5t-61 32t-41.5 53t-15.5 73.5q0 14 1.5 26.5t2.5 26.5h147q-1 -8 -2 -15t-1 -15q0 -30 15 -46.5t46 -16.5q28 0 47.5 18.5t19.5 46.5q0 15 -7.5 26t-18 20t-23 16.5t-23.5 13.5q-18 11 -36.5 21t-35.5 21q-22 14 -39.5 29t-29.5 32.5t-18.5 39
t-6.5 49.5q0 51 24 92t65 70q-19 28 -29.5 53t-10.5 65q0 49 19.5 88.5t52.5 67t75.5 42.5t88.5 15q75 0 121.5 -40.5t46.5 -118.5q0 -17 -2 -32.5t-4 -32.5h-140q3 21 3 42q0 27 -12.5 44t-41.5 17q-26 0 -43.5 -16t-17.5 -42q0 -23 17.5 -40.5t44 -33t57.5 -32.5
t57.5 -38.5t44 -50.5t17.5 -69q0 -48 -22 -88t-60 -68q30 -26 42.5 -54t12.5 -68q0 -51 -21 -94t-55.5 -74t-80 -48.5t-95.5 -17.5zM276 336q-30 0 -51 -21t-21 -51q0 -26 15.5 -42.5t42.5 -16.5q31 0 52 21.5t21 52.5q0 28 -16 42.5t-43 14.5z" />
    <glyph glyph-name="dieresis" unicode="&#xa8;" 
d="M193 530q-28 0 -46 18t-18 46q0 16 6.5 30.5t18 25.5t26 17.5t30.5 6.5q32 0 47.5 -21t15.5 -51q0 -14 -7.5 -27t-19.5 -23t-26 -16t-27 -6zM319 594q0 16 6.5 30.5t17.5 25.5t25.5 17.5t30.5 6.5q28 0 46 -18t18 -46q0 -16 -6.5 -30.5t-18 -25.5t-26 -17.5t-30.5 -6.5
q-27 0 -45 18.5t-18 45.5z" />
    <glyph glyph-name="copyright" unicode="&#xa9;" horiz-adv-x="760" 
d="M46 334q0 72 27.5 135.5t75 110.5t111 74.5t135.5 27.5t134.5 -28t109.5 -75.5t74 -111t27 -134.5q0 -72 -27 -135t-74 -110.5t-110 -75t-135 -27.5t-135.5 27.5t-110.5 75t-74.5 111t-27.5 135.5zM394 609q-57 0 -106 -22t-85 -59.5t-56.5 -87.5t-20.5 -106
q0 -55 20.5 -105.5t56.5 -88.5t85 -60.5t106 -22.5t105.5 22.5t84 60t56 88t20.5 105.5q0 56 -20.5 106t-56 87.5t-84 60t-105.5 22.5zM415 126q-45 0 -78.5 16.5t-56 45t-33.5 66t-11 78.5q0 45 12.5 83t37.5 65.5t61 43.5t82 16q20 0 32 -1.5t30 -9.5v-127q-7 6 -13 12
t-12.5 10.5t-14.5 7.5t-19 3q-20 0 -33 -9.5t-20.5 -24.5t-10.5 -33t-3 -34t3 -33t10 -31.5t20 -24t32 -9.5q22 0 36.5 10.5t30.5 23.5l-8 -128q-20 -8 -36 -12t-38 -4z" />
    <glyph glyph-name="ordfeminine" unicode="&#xaa;" horiz-adv-x="284" 
d="M118 366q-21 0 -34.5 9.5t-21.5 24.5t-11 33t-3 35q0 24 4.5 59t16 67.5t32 55.5t53.5 23q23 0 37 -14.5t21 -34.5l2 43h101l-36 -295h-99l8 45q-11 -20 -29 -35.5t-41 -15.5zM147 475q0 -8 3 -17t14 -9t18.5 14.5t12 33.5t6 37t1.5 25q0 9 -2.5 20.5t-14.5 11.5
t-19.5 -15t-11.5 -34.5t-5.5 -39t-1.5 -27.5zM33 345h242l-6 -48h-242z" />
    <glyph glyph-name="guillemotleft" unicode="&#xab;" horiz-adv-x="485" 
d="M152 13l-124 226l179 226l71 -66l-134 -168l93 -168zM352 13l-124 226l179 226l71 -66l-134 -168l93 -168z" />
    <glyph glyph-name="logicalnot" unicode="&#xac;" 
d="M325 0v150h-303v117h433v-267h-130z" />
    <glyph glyph-name="uni00AD" unicode="&#xad;" horiz-adv-x="317" 
d="M45 186l16 134h217l-16 -134h-217z" />
    <glyph glyph-name="registered" unicode="&#xae;" horiz-adv-x="760" 
d="M394 -15q-72 0 -135.5 27.5t-110.5 75t-74.5 111t-27.5 135.5t27.5 135.5t75 110.5t111 74.5t135.5 27.5t134.5 -28t109.5 -75.5t74 -111t27 -134.5q0 -72 -27 -135t-74 -110.5t-110 -75t-135 -27.5zM394 609q-57 0 -106 -22t-85 -59.5t-56.5 -87.5t-20.5 -106
q0 -55 20.5 -105.5t56.5 -88.5t85 -60.5t106 -22.5t105.5 22.5t84 60t56 88t20.5 105.5q0 56 -20.5 106t-56 87.5t-84 60t-105.5 22.5zM263 154v375h109q31 0 59 -6.5t49 -21.5t33.5 -39.5t12.5 -59.5q0 -32 -15 -56t-46 -37l78 -155h-117l-54 143v-143h-109zM372 357h5
q19 0 29.5 13.5t10.5 30.5q0 22 -13 31t-32 9v-84z" />
    <glyph glyph-name="macron" unicode="&#xaf;" 
d="M457 553h-335l12 94h335z" />
    <glyph glyph-name="degree" unicode="&#xb0;" 
d="M130 509q0 32 12.5 59.5t33.5 47.5t49 32t59 12q32 0 60 -11.5t49 -32t33.5 -48t12.5 -59.5t-12.5 -60t-33.5 -48.5t-49 -32.5t-60 -12q-31 0 -59 12t-49 33t-33.5 49t-12.5 59zM284 584q-31 0 -53.5 -21.5t-22.5 -53.5t22 -54t54 -22t54.5 22t22.5 54t-22.5 53.5
t-54.5 21.5z" />
    <glyph glyph-name="plusminus" unicode="&#xb1;" 
d="M38 357v120h151v153h130v-153h152v-120h-152v-154h-130v154h-151zM38 170h433v-120h-433v120z" />
    <glyph glyph-name="twosuperior" unicode="&#xb2;" horiz-adv-x="347" 
d="M161 414q12 14 26.5 30.5t26.5 35t20.5 38.5t8.5 39q0 8 -4.5 16.5t-14.5 8.5t-16 -7t-9 -17t-4.5 -21t-1.5 -18h-110q3 32 14.5 60.5t31 49.5t46.5 33t61 12q53 0 85 -29.5t32 -83.5q0 -32 -11 -60t-29 -53t-40 -47t-45 -42q48 3 96 3l-11 -95h-282z" />
    <glyph glyph-name="threesuperior" unicode="&#xb3;" horiz-adv-x="347" 
d="M178 260q-23 0 -45 6t-39.5 18.5t-28 31.5t-10.5 44q0 7 0.5 13.5t1.5 13.5h110q-1 -3 -1 -6.5v-6.5q0 -22 21 -22q16 0 24 13.5t8 27.5q0 17 -10 25t-26 8q-6 0 -11.5 -0.5t-10.5 -1.5l11 89h4l7 -1q25 0 38 10t13 36q0 8 -3.5 16t-13.5 8q-14 0 -18 -10.5t-6 -21.5
h-108q11 55 49 89.5t95 34.5q24 0 45 -7t36.5 -20t25 -32.5t9.5 -44.5q0 -32 -15 -56.5t-42 -40.5q22 -14 31.5 -33t9.5 -44q0 -31 -13 -56t-34 -43t-48 -27.5t-56 -9.5z" />
    <glyph glyph-name="acute" unicode="&#xb4;" 
d="M332 530h-98l65 148h138z" />
    <glyph glyph-name="uni00B5" unicode="&#xb5;" horiz-adv-x="582" 
d="M-14 -215l83 682h172l-27 -219q-1 -9 -2 -21.5t-1 -20.5q0 -35 17 -61.5t55 -26.5q26 0 42.5 13.5t26.5 33.5t14.5 43.5t7.5 43.5l26 215h172l-57 -467h-156l8 64q-14 -32 -37.5 -53t-60.5 -21t-59.5 21t-33.5 55l-34 -281h-156z" />
    <glyph glyph-name="uni00B5" unicode="&#x3bc;" horiz-adv-x="582" 
d="M-14 -215l83 682h172l-27 -219q-1 -9 -2 -21.5t-1 -20.5q0 -35 17 -61.5t55 -26.5q26 0 42.5 13.5t26.5 33.5t14.5 43.5t7.5 43.5l26 215h172l-57 -467h-156l8 64q-14 -32 -37.5 -53t-60.5 -21t-59.5 21t-33.5 55l-34 -281h-156z" />
    <glyph glyph-name="paragraph" unicode="&#xb6;" horiz-adv-x="667" 
d="M216 321q-34 0 -63 9.5t-50 28t-33 46t-12 62.5q0 40 16 78.5t45 65.5q19 17 42 28t48.5 17t51.5 8.5t51 2.5h335l-12 -100h-73l-81 -667h-110l81 667h-83l-82 -667h-110l52 421h-13z" />
    <glyph glyph-name="periodcentered" unicode="&#xb7;" horiz-adv-x="322" 
d="M57 326q0 26 10.5 49.5t28.5 41.5t41.5 29t49.5 11q45 0 74.5 -29.5t29.5 -74.5q0 -26 -11 -49.5t-29 -41.5t-41.5 -28.5t-49.5 -10.5q-45 0 -74 29t-29 74z" />
    <glyph glyph-name="cedilla" unicode="&#xb8;" 
d="M181 -223l-71 54l102 122l95 -59z" />
    <glyph glyph-name="onesuperior" unicode="&#xb9;" horiz-adv-x="347" 
d="M251 267h-112l37 303h-43l12 97h155z" />
    <glyph glyph-name="ordmasculine" unicode="&#xba;" horiz-adv-x="284" 
d="M164 374q-28 0 -49 10.5t-34.5 28.5t-20 42t-6.5 50q0 32 9.5 62.5t27.5 54t44.5 37.5t61.5 14q28 0 48.5 -10t34 -27t20.5 -39.5t7 -48.5q0 -33 -8.5 -64.5t-26 -56t-44.5 -39t-64 -14.5zM150 489q0 -11 3.5 -25t17.5 -14q12 0 20 13t12.5 31t6 35.5t1.5 26.5
q0 5 -1 12.5t-3 14t-6.5 11t-11.5 4.5q-13 0 -20.5 -14t-11.5 -32t-5.5 -36t-1.5 -27zM27 297l6 48h246l-6 -48h-246z" />
    <glyph glyph-name="guillemotright" unicode="&#xbb;" horiz-adv-x="485" 
d="M144 247l-92 168l85 50l123 -226l-178 -226l-71 66zM344 247l-92 168l85 50l123 -226l-178 -226l-71 66z" />
    <glyph glyph-name="onequarter" unicode="&#xbc;" horiz-adv-x="831" 
d="M560 667h90l-370 -667h-92zM133 570l12 97h155l-49 -400h-112l37 303h-43zM494 80l10 86l151 234h135l-28 -231h34l-11 -89h-34l-10 -80h-112l10 80h-145zM654 169q4 27 7.5 54t8.5 53q-17 -28 -33.5 -54.5t-36.5 -52.5h54z" />
    <glyph glyph-name="onehalf" unicode="&#xbd;" horiz-adv-x="831" 
d="M188 0l372 667h90l-370 -667h-92zM145 667h155l-49 -400h-112l37 303h-43zM612 147q12 13 26 30t26.5 35.5t21 38.5t8.5 39q0 9 -4.5 17t-15.5 8q-10 0 -16 -7.5t-9 -17.5t-4.5 -20.5t-1.5 -17.5h-109q3 32 14.5 60.5t31 49.5t46.5 33t61 12q53 0 85 -29.5t32 -83.5
q0 -32 -11 -60t-29 -53t-40 -47t-45 -42q48 3 96 3l-11 -95h-282z" />
    <glyph glyph-name="threequarters" unicode="&#xbe;" horiz-adv-x="831" 
d="M55 360q0 7 0.5 13.5t1.5 13.5h110q-1 -3 -1 -6.5v-6.5q0 -22 21 -22q16 0 24 13.5t8 27.5q0 17 -10 25t-26 8q-6 0 -11.5 -0.5t-10.5 -1.5l11 89h4l7 -1q25 0 38 10t13 36q0 8 -3.5 16t-13.5 8q-14 0 -18 -10.5t-6 -21.5h-108q11 55 49 89.5t95 34.5q24 0 45 -7
t36.5 -20t25 -32.5t9.5 -44.5q0 -32 -15 -56.5t-42 -40.5q22 -14 31.5 -33t9.5 -44q0 -31 -13 -56t-34 -43t-48 -27.5t-56 -9.5q-23 0 -45 6t-39.5 18.5t-28 31.5t-10.5 44zM216 0l372 667h90l-370 -667h-92zM494 80l10 86l150 234h136l-28 -231h34l-11 -89h-34l-10 -80
h-112l10 80h-145zM670 276q-17 -28 -34 -54.5t-37 -52.5h55q4 26 7 53.5t9 53.5z" />
    <glyph glyph-name="questiondown" unicode="&#xbf;" horiz-adv-x="501" 
d="M170 364q0 22 9.5 42.5t25 36t36 25t42.5 9.5q38 0 62.5 -26t24.5 -64q0 -22 -9 -42.5t-24.5 -36t-35.5 -25t-43 -9.5q-39 0 -63.5 25.5t-24.5 64.5zM10 -45q0 34 9.5 67t28.5 61t47 48.5t65 30.5l9 65h169l-21 -160q-6 1 -12.5 1.5t-13.5 0.5q-55 0 -79.5 -26.5
t-24.5 -75.5q0 -8 1 -17.5t4 -17.5t9 -13.5t16 -5.5q13 0 21.5 8t13.5 20t7.5 25t3.5 23h171q-4 -40 -12.5 -67.5t-31.5 -61.5q-32 -46 -84 -70.5t-108 -24.5q-87 0 -137.5 51.5t-50.5 138.5z" />
    <glyph glyph-name="Agrave" unicode="&#xc0;" horiz-adv-x="524" 
d="M304 850l101 -94l-55 -55l-111 82zM217 667h217l57 -667h-183l-3 85h-119l-25 -85h-184zM302 227q-1 20 -1.5 39t-0.5 39v87q0 29 1 57.5t2 57.5q-6 -23 -11 -47t-12 -47q-14 -47 -26.5 -93t-26.5 -93h75z" />
    <glyph glyph-name="Aacute" unicode="&#xc1;" horiz-adv-x="524" 
d="M402 850l48 -67l-134 -82l-41 55zM217 667h217l57 -667h-183l-3 85h-119l-25 -85h-184zM302 227q-1 20 -1.5 39t-0.5 39v87q0 29 1 57.5t2 57.5q-6 -23 -11 -47t-12 -47q-14 -47 -26.5 -93t-26.5 -93h75z" />
    <glyph glyph-name="Acircumflex" unicode="&#xc2;" horiz-adv-x="524" 
d="M231 750l119 91l96 -91l-62 -49l-47 38l-56 -38zM-23 0l240 667h217l57 -667h-183l-3 85h-119l-25 -85h-184zM302 227q-1 20 -1.5 39t-0.5 39v87q0 29 1 57.5t2 57.5q-6 -23 -11 -47t-12 -47q-14 -47 -26.5 -93t-26.5 -93h75z" />
    <glyph glyph-name="Atilde" unicode="&#xc3;" horiz-adv-x="524" 
d="M229 749q7 24 26 45t46 21q18 0 28.5 -5t18.5 -10.5t14.5 -10.5t16.5 -5q7 0 15 9t13 21l39 -37q-4 -26 -24 -46t-47 -20q-15 0 -25.5 5t-18.5 10.5t-14 10.5t-13 5q-8 0 -17.5 -6.5t-18.5 -23.5zM-23 0l240 667h217l57 -667h-183l-3 85h-119l-25 -85h-184zM280 413
q-14 -47 -26.5 -93t-26.5 -93h75q-1 20 -1.5 39t-0.5 39v87q0 29 1 57.5t2 57.5q-6 -23 -11 -47t-12 -47z" />
    <glyph glyph-name="Adieresis" unicode="&#xc4;" horiz-adv-x="524" 
d="M233 720q-28 0 -46 18t-18 46q0 16 6.5 30.5t18 25.5t26 17.5t30.5 6.5q32 0 47.5 -21t15.5 -51q0 -14 -7.5 -27t-19.5 -23t-26 -16t-27 -6zM422 720q-27 0 -45 18.5t-18 45.5q0 16 6.5 30.5t17.5 25.5t25.5 17.5t30.5 6.5q28 0 46 -18t18 -46q0 -16 -6.5 -30.5
t-18 -25.5t-26 -17.5t-30.5 -6.5zM217 667h217l57 -667h-183l-3 85h-119l-25 -85h-184zM302 227q-1 20 -1.5 39t-0.5 39v87q0 29 1 57.5t2 57.5q-6 -23 -11 -47t-12 -47q-14 -47 -26.5 -93t-26.5 -93h75z" />
    <glyph glyph-name="Aring" unicode="&#xc5;" horiz-adv-x="524" 
d="M238 810q0 40 28 68t68 28t68 -28t28 -68q0 -20 -7.5 -37.5t-20.5 -30.5t-30.5 -20.5t-36.5 -7.5q-20 0 -38 7.5t-31 21t-20.5 31t-7.5 36.5zM297 810q0 -16 10.5 -26.5t26.5 -10.5t26.5 10.5t10.5 26.5t-10.5 26.5t-26.5 10.5t-26.5 -10.5t-10.5 -26.5zM-23 0l240 667
h217l57 -667h-183l-3 85h-119l-25 -85h-184zM302 227q-1 20 -1.5 39t-0.5 39v87q0 29 1 57.5t2 57.5q-6 -23 -11 -47t-12 -47q-14 -47 -26.5 -93t-26.5 -93h75z" />
    <glyph glyph-name="AE" unicode="&#xc6;" horiz-adv-x="606" 
d="M-28 0l234 667h424l-19 -157h-177l3 -97h148l-18 -151h-122l4 -102h119l-20 -160h-252l-2 85h-114l-24 -85h-184zM293 223q-1 46 -1.5 91.5t-0.5 92.5q0 25 0.5 49.5t1.5 49.5q-16 -72 -35 -142t-39 -141h74z" />
    <glyph glyph-name="Ccedilla" unicode="&#xc7;" horiz-adv-x="438" 
d="M270 -12q-60 0 -103.5 22t-72 59.5t-42.5 87t-14 103.5q0 75 20.5 150t62 134.5t104.5 97t148 37.5q27 0 45 -3t43 -14l-23 -190q-17 19 -34 29.5t-43 10.5q-40 0 -67 -23t-43 -56.5t-23 -72.5t-7 -71q0 -24 4.5 -46.5t15.5 -40.5t29 -29t46 -11q29 0 52.5 12.5
t44.5 30.5l-34 -193q-29 -12 -53 -18t-56 -6zM128 -184l107 137l96 -66l-126 -124z" />
    <glyph glyph-name="Egrave" unicode="&#xc8;" horiz-adv-x="405" 
d="M289 701l-111 82l65 67l101 -94zM410 510h-152l-12 -97h137l-19 -151h-136l-13 -102h152l-19 -160h-330l82 667h330z" />
    <glyph glyph-name="Eacute" unicode="&#xc9;" horiz-adv-x="405" 
d="M207 756l127 94l48 -67l-134 -82zM410 510h-152l-12 -97h137l-19 -151h-136l-13 -102h152l-19 -160h-330l82 667h330z" />
    <glyph glyph-name="Ecircumflex" unicode="&#xca;" horiz-adv-x="405" 
d="M219 701l-50 49l119 91l96 -91l-62 -49l-47 38zM410 510h-152l-12 -97h137l-19 -151h-136l-13 -102h152l-19 -160h-330l82 667h330z" />
    <glyph glyph-name="Edieresis" unicode="&#xcb;" horiz-adv-x="405" 
d="M109 784q0 16 6.5 30.5t18 25.5t26 17.5t30.5 6.5q32 0 47.5 -21t15.5 -51q0 -14 -7.5 -27t-19.5 -23t-26 -16t-27 -6q-28 0 -46 18t-18 46zM299 784q0 16 6.5 30.5t17.5 25.5t25.5 17.5t30.5 6.5q28 0 46 -18t18 -46q0 -16 -6.5 -30.5t-18 -25.5t-26 -17.5t-30.5 -6.5
q-27 0 -45 18.5t-18 45.5zM18 0l82 667h330l-20 -157h-152l-12 -97h137l-19 -151h-136l-13 -102h152l-19 -160h-330z" />
    <glyph glyph-name="Igrave" unicode="&#xcc;" horiz-adv-x="269" 
d="M217 701l-111 82l65 67l101 -94zM195 0h-177l82 667h177z" />
    <glyph glyph-name="Iacute" unicode="&#xcd;" horiz-adv-x="269" 
d="M126 756l127 94l48 -67l-134 -82zM195 0h-177l82 667h177z" />
    <glyph glyph-name="Icircumflex" unicode="&#xce;" horiz-adv-x="269" 
d="M345 772l-65 -70l-71 55l-94 -57l-53 70l159 100zM195 0h-177l82 667h177z" />
    <glyph glyph-name="Idieresis" unicode="&#xcf;" horiz-adv-x="269" 
d="M98 720q-28 0 -46 18t-18 46q0 16 6.5 30.5t18 25.5t26 17.5t30.5 6.5q32 0 47.5 -21t15.5 -51q0 -14 -7.5 -27t-19.5 -23t-26 -16t-27 -6zM224 784q0 16 6.5 30.5t17.5 25.5t25.5 17.5t30.5 6.5q28 0 46 -18t18 -46q0 -16 -6.5 -30.5t-18 -25.5t-26 -17.5t-30.5 -6.5
q-27 0 -45 18.5t-18 45.5zM100 667h177l-82 -667h-177z" />
    <glyph glyph-name="Eth" unicode="&#xd0;" horiz-adv-x="533" 
d="M31 397h39l33 270h153q43 0 86 -9t79 -35q26 -19 45 -44.5t31 -55t17.5 -61.5t5.5 -63q0 -69 -18 -141t-57 -130q-48 -71 -110.5 -99.5t-147.5 -28.5h-166l35 287h-39zM218 161q36 2 59.5 25t36.5 56t18 70t5 65q0 20 -3 41.5t-11 40t-23.5 30.5t-39.5 12l-13 -104h50
l-14 -110h-49z" />
    <glyph glyph-name="Ntilde" unicode="&#xd1;" horiz-adv-x="554" 
d="M175 720q3 24 10.5 47.5t21.5 42.5t34.5 30.5t48.5 11.5q19 0 34.5 -5t29 -11.5t26.5 -11.5t26 -5q17 0 23.5 11t8.5 25h88q-2 -25 -10.5 -49t-23.5 -43t-36 -30t-50 -11q-18 0 -33 5t-28.5 11.5t-25.5 11.5t-24 5q-16 0 -22.5 -10.5t-8.5 -24.5h-89zM100 667h169
l60 -234q11 -42 18.5 -84t16.5 -84q0 63 1 126t9 126l19 150h169l-82 -667h-169l-59 245q-8 35 -15.5 69.5t-12.5 69.5q-2 -26 -3 -53t-3 -53q-4 -70 -13.5 -139t-17.5 -139h-169z" />
    <glyph glyph-name="Ograve" unicode="&#xd2;" horiz-adv-x="558" 
d="M306 850l101 -94l-55 -55l-111 82zM38 263q0 48 7 95t22 92t40 86t59 73t77 51t94 19q54 0 93.5 -22t65 -58t38 -82.5t12.5 -94.5t-6 -96t-20 -95q-13 -46 -36.5 -90t-57 -78t-76.5 -54.5t-96 -20.5q-51 0 -95.5 23.5t-73.5 65.5q-28 41 -37.5 89.5t-9.5 96.5zM222 266
q0 -12 1 -31t5.5 -36t14 -29.5t27.5 -12.5q19 0 33 14.5t24 37t17 50.5t11 56t5.5 52.5t1.5 40.5q0 12 -1 29.5t-5.5 34t-14 28t-26.5 11.5q-27 0 -45 -29.5t-28.5 -70t-15 -81.5t-4.5 -64z" />
    <glyph glyph-name="Oacute" unicode="&#xd3;" horiz-adv-x="558" 
d="M286 756l127 94l48 -67l-134 -82zM85 77q-28 41 -37.5 89.5t-9.5 96.5t7 95t22 92t40 86t59 73t77 51t94 19q54 0 93.5 -22t65 -58t38 -82.5t12.5 -94.5t-6 -96t-20 -95q-13 -46 -36.5 -90t-57 -78t-76.5 -54.5t-96 -20.5q-51 0 -95.5 23.5t-73.5 65.5zM222 266
q0 -12 1 -31t5.5 -36t14 -29.5t27.5 -12.5q19 0 33 14.5t24 37t17 50.5t11 56t5.5 52.5t1.5 40.5q0 12 -1 29.5t-5.5 34t-14 28t-26.5 11.5q-27 0 -44.5 -29.5t-28.5 -70t-15.5 -81.5t-4.5 -64z" />
    <glyph glyph-name="Ocircumflex" unicode="&#xd4;" horiz-adv-x="558" 
d="M248 750l119 91l96 -91l-62 -49l-47 38l-56 -38zM38 263q0 48 7 95t22 92t40 86t59 73t77 51t94 19q54 0 93.5 -22t65 -58t38 -82.5t12.5 -94.5t-6 -96t-20 -95q-13 -46 -36.5 -90t-57 -78t-76.5 -54.5t-96 -20.5q-51 0 -95.5 23.5t-73.5 65.5q-28 41 -37.5 89.5
t-9.5 96.5zM222 266q0 -12 1 -31t5.5 -36t14 -29.5t27.5 -12.5q19 0 33 14.5t24 37t17 50.5t11 56t5.5 52.5t1.5 40.5q0 12 -1 29.5t-5.5 34t-14 28t-26.5 11.5q-27 0 -44.5 -29.5t-28.5 -70t-15.5 -81.5t-4.5 -64z" />
    <glyph glyph-name="Otilde" unicode="&#xd5;" horiz-adv-x="558" 
d="M243 749q7 24 26 45t46 21q18 0 28.5 -5t18.5 -10.5t14.5 -10.5t16.5 -5q7 0 15 9t13 21l39 -37q-4 -26 -24 -46t-47 -20q-15 0 -25.5 5t-18.5 10.5t-14 10.5t-13 5q-8 0 -17.5 -6.5t-18.5 -23.5zM85 77q-28 41 -37.5 89.5t-9.5 96.5t7 95t22 92t40 86t59 73t77 51t94 19
q54 0 93.5 -22t65 -58t38 -82.5t12.5 -94.5t-6 -96t-20 -95q-13 -46 -36.5 -90t-57 -78t-76.5 -54.5t-96 -20.5q-51 0 -95.5 23.5t-73.5 65.5zM315 511q-27 0 -44.5 -29.5t-28.5 -70t-15.5 -81.5t-4.5 -64q0 -12 1 -31t5.5 -36t14 -29.5t27.5 -12.5q19 0 33 14.5t24 37
t17 50.5t11 56t5.5 52.5t1.5 40.5q0 12 -1 29.5t-5.5 34t-14 28t-26.5 11.5z" />
    <glyph glyph-name="Odieresis" unicode="&#xd6;" horiz-adv-x="558" 
d="M248 720q-28 0 -46 18t-18 46q0 16 6.5 30.5t18 25.5t26 17.5t30.5 6.5q32 0 47.5 -21t15.5 -51q0 -14 -7.5 -27t-19.5 -23t-26 -16t-27 -6zM374 784q0 16 6.5 30.5t17.5 25.5t25.5 17.5t30.5 6.5q28 0 46 -18t18 -46q0 -16 -6.5 -30.5t-18 -25.5t-26 -17.5t-30.5 -6.5
q-27 0 -45 18.5t-18 45.5zM85 77q-28 41 -37.5 89.5t-9.5 96.5t7 95t22 92t40 86t59 73t77 51t94 19q54 0 93.5 -22t65 -58t38 -82.5t12.5 -94.5t-6 -96t-20 -95q-13 -46 -36.5 -90t-57 -78t-76.5 -54.5t-96 -20.5q-51 0 -95.5 23.5t-73.5 65.5zM222 266q0 -12 1 -31
t5.5 -36t14 -29.5t27.5 -12.5q19 0 33 14.5t24 37t17 50.5t11 56t5.5 52.5t1.5 40.5q0 12 -1 29.5t-5.5 34t-14 28t-26.5 11.5q-27 0 -44.5 -29.5t-28.5 -70t-15.5 -81.5t-4.5 -64z" />
    <glyph glyph-name="multiply" unicode="&#xd7;" 
d="M67 229l111 111l-111 111l85 85l111 -111l111 111l85 -85l-111 -111l111 -111l-85 -85l-111 111l-111 -111z" />
    <glyph glyph-name="Oslash" unicode="&#xd8;" horiz-adv-x="586" 
d="M76 116q-15 38 -21 66.5t-6 69.5q0 45 5.5 89t18.5 87q14 48 38.5 93t58.5 80.5t78.5 56.5t98.5 21q47 0 82 -16.5t67 -49.5l51 64l59 -46l-68 -85q12 -37 17 -67t5 -68q0 -88 -24 -172q-15 -47 -39.5 -92t-59.5 -80.5t-79.5 -57t-98.5 -21.5q-45 0 -78 15t-65 45
l-54 -68l-57 44zM367 475q-4 16 -14 28.5t-28 12.5q-17 0 -30.5 -12.5t-24 -32t-17.5 -43.5t-11.5 -48t-7.5 -45t-5 -34zM242 190q3 -17 13 -28t28 -11q27 0 44.5 26t28.5 61t16.5 70.5t7.5 55.5z" />
    <glyph glyph-name="Ugrave" unicode="&#xd9;" horiz-adv-x="537" 
d="M223 783l65 67l101 -94l-55 -55zM42 172q0 24 3 48l55 447h177l-53 -431q-1 -8 -1.5 -16.5t-0.5 -16.5q0 -20 8.5 -33t30.5 -13q17 0 26.5 7.5t15.5 19t8.5 25.5t3.5 27l53 431h177l-58 -472q-6 -51 -24.5 -87t-60.5 -68q-35 -27 -72.5 -39.5t-82.5 -12.5
q-44 0 -81.5 11.5t-65 34t-43 57.5t-15.5 81z" />
    <glyph glyph-name="Uacute" unicode="&#xda;" horiz-adv-x="537" 
d="M400 850l48 -67l-134 -82l-41 55zM42 172q0 24 3 48l55 447h177l-53 -431q-1 -8 -1.5 -16.5t-0.5 -16.5q0 -20 8.5 -33t30.5 -13q17 0 26.5 7.5t15.5 19t8.5 25.5t3.5 27l53 431h177l-58 -472q-6 -51 -24.5 -87t-60.5 -68q-35 -27 -72.5 -39.5t-82.5 -12.5
q-44 0 -81.5 11.5t-65 34t-43 57.5t-15.5 81z" />
    <glyph glyph-name="Ucircumflex" unicode="&#xdb;" horiz-adv-x="537" 
d="M356 870l124 -98l-65 -70l-71 55l-94 -57l-53 70zM42 172q0 24 3 48l55 447h177l-53 -431q-1 -8 -1.5 -16.5t-0.5 -16.5q0 -20 8.5 -33t30.5 -13q17 0 26.5 7.5t15.5 19t8.5 25.5t3.5 27l53 431h177l-58 -472q-6 -51 -24.5 -87t-60.5 -68q-35 -27 -72.5 -39.5
t-82.5 -12.5q-44 0 -81.5 11.5t-65 34t-43 57.5t-15.5 81z" />
    <glyph glyph-name="Udieresis" unicode="&#xdc;" horiz-adv-x="537" 
d="M169 784q0 16 6.5 30.5t18 25.5t26 17.5t30.5 6.5q32 0 47.5 -21t15.5 -51q0 -14 -7.5 -27t-19.5 -23t-26 -16t-27 -6q-28 0 -46 18t-18 46zM422 720q-27 0 -45 18.5t-18 45.5q0 16 6.5 30.5t17.5 25.5t25.5 17.5t30.5 6.5q28 0 46 -18t18 -46q0 -16 -6.5 -30.5
t-18 -25.5t-26 -17.5t-30.5 -6.5zM42 172q0 24 3 48l55 447h177l-53 -431q-1 -8 -1.5 -16.5t-0.5 -16.5q0 -20 8.5 -33t30.5 -13q17 0 26.5 7.5t15.5 19t8.5 25.5t3.5 27l53 431h177l-58 -472q-6 -51 -24.5 -87t-60.5 -68q-35 -27 -72.5 -39.5t-82.5 -12.5q-44 0 -81.5 11.5
t-65 34t-43 57.5t-15.5 81z" />
    <glyph glyph-name="Yacute" unicode="&#xdd;" horiz-adv-x="493" 
d="M246 756l127 94l48 -67l-134 -82zM239 667q11 -51 21 -102.5t16 -103.5q20 53 42 104t45 102h184l-200 -385l-35 -282h-177l35 282l-116 385h185z" />
    <glyph glyph-name="Thorn" unicode="&#xde;" horiz-adv-x="498" 
d="M18 0l82 667h177l-11 -93q48 -1 90 -10.5t73.5 -31.5t50 -58.5t18.5 -92.5q0 -52 -18 -102t-55 -88q-38 -39 -85 -52.5t-101 -13.5h-28l-16 -125h-177zM238 275q37 0 58.5 26t21.5 61q0 27 -14.5 46.5t-43.5 19.5q-8 0 -12 -1l-19 -152h9z" />
    <glyph glyph-name="germandbls" unicode="&#xdf;" horiz-adv-x="518" 
d="M23 327l17 140h47q4 33 9 65.5t18 63.5q13 32 35 58.5t50.5 45.5t61.5 30t67 11q36 0 68.5 -12.5t57 -34.5t39 -53t14.5 -69q0 -26 -6.5 -52.5t-20 -48.5t-34 -38.5t-47.5 -23.5q17 -2 29.5 -6.5t25.5 -17.5q23 -23 32 -55.5t9 -63.5q0 -23 -5 -47.5t-13.5 -48.5
t-20.5 -46t-27 -40q-36 -44 -82.5 -63t-102.5 -21l17 143q18 5 29.5 18.5t17.5 31.5t8 37t2 35q0 9 -1 19.5t-4 19.5t-10 15.5t-19 7.5l17 140q13 1 21 9.5t12.5 19.5t6.5 24t2 23q0 17 -6.5 30t-26.5 13q-13 0 -21.5 -6t-13 -15t-7 -20t-3.5 -22l-64 -523h-171l40 327h-47z
" />
    <glyph glyph-name="agrave" unicode="&#xe0;" horiz-adv-x="489" 
d="M163 581l65 67l101 -94l-55 -55zM23 167q0 28 3.5 61.5t12 68t22 67t33.5 57.5t46.5 40.5t61.5 15.5q43 0 64 -24t35 -60q0 5 0.5 9.5t0.5 9.5l2 36q0 5 0.5 9.5t0.5 9.5h174l-57 -467h-171l15 79q-23 -38 -53 -63.5t-77 -25.5q-34 0 -56 17.5t-35 43.5t-17.5 57.5
t-4.5 58.5zM254 334q-18 0 -29.5 -18t-18 -42t-9 -48.5t-2.5 -37.5q0 -8 1 -17.5t4 -18t9 -14t17 -5.5q18 0 29 19.5t17 45.5t8 51.5t2 38.5q0 14 -4.5 30t-23.5 16z" />
    <glyph glyph-name="aacute" unicode="&#xe1;" horiz-adv-x="489" 
d="M340 648l48 -67l-134 -82l-41 55zM23 167q0 28 3.5 61.5t12 68t22 67t33.5 57.5t46.5 40.5t61.5 15.5q43 0 64 -24t35 -60q0 5 0.5 9.5t0.5 9.5l2 36q0 5 0.5 9.5t0.5 9.5h174l-57 -467h-171l15 79q-23 -38 -53 -63.5t-77 -25.5q-34 0 -56 17.5t-35 43.5t-17.5 57.5
t-4.5 58.5zM254 334q-18 0 -29.5 -18t-18 -42t-9 -48.5t-2.5 -37.5q0 -8 1 -17.5t4 -18t9 -14t17 -5.5q18 0 29 19.5t17 45.5t8 51.5t2 38.5q0 14 -4.5 30t-23.5 16z" />
    <glyph glyph-name="acircumflex" unicode="&#xe2;" horiz-adv-x="489" 
d="M169 548l119 91l96 -91l-62 -49l-47 38l-56 -38zM136 -10q-34 0 -56 17.5t-35 43.5t-17.5 57.5t-4.5 58.5q0 28 3.5 61.5t12 68t22 67t33.5 57.5t46.5 40.5t61.5 15.5q43 0 64 -24t35 -60q0 5 0.5 9.5t0.5 9.5l2 36q0 5 0.5 9.5t0.5 9.5h174l-57 -467h-171l15 79
q-23 -38 -53 -63.5t-77 -25.5zM195 188q0 -8 1 -17.5t4 -18t9 -14t17 -5.5q18 0 29 19.5t17 45.5t8 51.5t2 38.5q0 14 -4.5 30t-23.5 16q-18 0 -29.5 -18t-18 -42t-9 -48.5t-2.5 -37.5z" />
    <glyph glyph-name="atilde" unicode="&#xe3;" horiz-adv-x="489" 
d="M177 547q7 24 26 45t46 21q18 0 28.5 -5t18.5 -10.5t14.5 -10.5t16.5 -5q7 0 15 9t13 21l39 -37q-4 -26 -24 -46t-47 -20q-15 0 -25.5 5t-18.5 10.5t-14 10.5t-13 5q-8 0 -17.5 -6.5t-18.5 -23.5zM136 -10q-34 0 -56 17.5t-35 43.5t-17.5 57.5t-4.5 58.5q0 28 3.5 61.5
t12 68t22 67t33.5 57.5t46.5 40.5t61.5 15.5q43 0 64 -24t35 -60q0 5 0.5 9.5t0.5 9.5l2 36q0 5 0.5 9.5t0.5 9.5h174l-57 -467h-171l15 79q-23 -38 -53 -63.5t-77 -25.5zM195 188q0 -8 1 -17.5t4 -18t9 -14t17 -5.5q18 0 29 19.5t17 45.5t8 51.5t2 38.5q0 14 -4.5 30
t-23.5 16q-18 0 -29.5 -18t-18 -42t-9 -48.5t-2.5 -37.5z" />
    <glyph glyph-name="adieresis" unicode="&#xe4;" horiz-adv-x="489" 
d="M208 530q-28 0 -46 18t-18 46q0 16 6.5 30.5t18 25.5t26 17.5t30.5 6.5q32 0 47.5 -21t15.5 -51q0 -14 -7.5 -27t-19.5 -23t-26 -16t-27 -6zM397 530q-27 0 -45 18.5t-18 45.5q0 16 6.5 30.5t17.5 25.5t25.5 17.5t30.5 6.5q28 0 46 -18t18 -46q0 -16 -6.5 -30.5
t-18 -25.5t-26 -17.5t-30.5 -6.5zM23 167q0 28 3.5 61.5t12 68t22 67t33.5 57.5t46.5 40.5t61.5 15.5q43 0 64 -24t35 -60q0 5 0.5 9.5t0.5 9.5l2 36q0 5 0.5 9.5t0.5 9.5h174l-57 -467h-171l15 79q-23 -38 -53 -63.5t-77 -25.5q-34 0 -56 17.5t-35 43.5t-17.5 57.5
t-4.5 58.5zM254 334q-18 0 -29.5 -18t-18 -42t-9 -48.5t-2.5 -37.5q0 -8 1 -17.5t4 -18t9 -14t17 -5.5q18 0 29 19.5t17 45.5t8 51.5t2 38.5q0 14 -4.5 30t-23.5 16z" />
    <glyph glyph-name="aring" unicode="&#xe5;" horiz-adv-x="489" 
d="M188 619q0 40 28 68t68 28t68 -28t28 -68t-28 -68t-68 -28t-68 28t-28 68zM247 619q0 -16 10.5 -26.5t26.5 -10.5t26.5 10.5t10.5 26.5t-10.5 26.5t-26.5 10.5t-26.5 -10.5t-10.5 -26.5zM136 -10q-34 0 -56 17.5t-35 43.5t-17.5 57.5t-4.5 58.5q0 28 3.5 61.5t12 68
t22 67t33.5 57.5t46.5 40.5t61.5 15.5q43 0 64 -24t35 -60q0 5 0.5 9.5t0.5 9.5l2 36q0 5 0.5 9.5t0.5 9.5h174l-57 -467h-171l15 79q-23 -38 -53 -63.5t-77 -25.5zM195 188q0 -8 1 -17.5t4 -18t9 -14t17 -5.5q18 0 29 19.5t17 45.5t8 51.5t2 38.5q0 14 -4.5 30t-23.5 16
q-18 0 -29.5 -18t-18 -42t-9 -48.5t-2.5 -37.5z" />
    <glyph glyph-name="ae" unicode="&#xe6;" horiz-adv-x="724" 
d="M16 131q0 41 14.5 72.5t40 53t59 33t72.5 11.5q22 0 43.5 -2.5t42.5 -7.5q0 18 -7.5 29t-19.5 17.5t-26.5 8.5t-29.5 2q-32 0 -60 -6.5t-57 -20.5l17 135q35 9 70 15t70 6q40 0 72.5 -8.5t62.5 -37.5q32 22 65 34t73 12q45 0 79.5 -15.5t57.5 -42.5t34.5 -63.5
t11.5 -79.5q0 -20 -2.5 -39t-5.5 -39h-252v-4l-1 -9q0 -9 1 -21t5 -22t11 -17t20 -7q16 0 26.5 11t16.5 24l161 -3q-15 -40 -34 -70t-56 -54q-32 -20 -65 -28t-70 -8q-39 0 -70 11t-60 37q-34 -22 -73.5 -35t-80.5 -13q-32 0 -60.5 9.5t-49.5 27.5t-33.5 44t-12.5 60z
M539 291q0 9 -1 20.5t-4.5 21t-11 16.5t-19.5 7q-13 0 -21.5 -6.5t-14 -16t-9 -21t-5.5 -21.5h86zM232 191q-20 0 -35 -13.5t-15 -33.5q0 -19 12 -27t29 -8q21 0 35.5 12.5t14.5 34.5q0 18 -12 26.5t-29 8.5z" />
    <glyph glyph-name="ccedilla" unicode="&#xe7;" horiz-adv-x="298" 
d="M25 200q0 53 18.5 102.5t51.5 88.5t79 62.5t101 23.5q8 0 17 -0.5t17 -1.5l-19 -152q-42 -3 -64.5 -30t-22.5 -68q0 -12 3.5 -25t10 -23.5t17 -17.5t24.5 -7h11l-19 -159q-22 -3 -46 -3q-46 0 -80 17t-56 46t-32.5 67t-10.5 80zM51 -169l102 122l95 -59l-126 -117z" />
    <glyph glyph-name="egrave" unicode="&#xe8;" horiz-adv-x="474" 
d="M237 648l101 -94l-55 -55l-111 82zM23 181q0 54 16.5 107t48 94.5t78 67.5t105.5 26q45 0 79 -15.5t56.5 -42.5t33.5 -63.5t11 -78.5q0 -20 -2.5 -39.5t-5.5 -39.5h-250q-1 -5 -1 -9.5v-9.5q0 -8 1 -17.5t4 -17.5t9.5 -13t17.5 -5q15 0 26 9.5t16 22.5h166
q-26 -80 -83.5 -123.5t-141.5 -43.5q-91 0 -137.5 51.5t-46.5 139.5zM253 349q-22 0 -33 -20t-13 -39h79v3l1 6q0 17 -6.5 33.5t-27.5 16.5z" />
    <glyph glyph-name="eacute" unicode="&#xe9;" horiz-adv-x="474" 
d="M349 648l48 -67l-134 -82l-41 55zM23 181q0 54 16.5 107t48 94.5t78 67.5t105.5 26q45 0 79 -15.5t56.5 -42.5t33.5 -63.5t11 -78.5q0 -20 -2.5 -39.5t-5.5 -39.5h-250q-1 -5 -1 -9.5v-9.5q0 -8 1 -17.5t4 -17.5t9.5 -13t17.5 -5q15 0 26 9.5t16 22.5h166
q-26 -80 -83.5 -123.5t-141.5 -43.5q-91 0 -137.5 51.5t-46.5 139.5zM253 349q-22 0 -33 -20t-13 -39h79v3l1 6q0 17 -6.5 33.5t-27.5 16.5z" />
    <glyph glyph-name="ecircumflex" unicode="&#xea;" horiz-adv-x="474" 
d="M293 639l96 -91l-62 -49l-47 38l-56 -38l-50 49zM23 181q0 54 16.5 107t48 94.5t78 67.5t105.5 26q45 0 79 -15.5t56.5 -42.5t33.5 -63.5t11 -78.5q0 -20 -2.5 -39.5t-5.5 -39.5h-250q-1 -5 -1 -9.5v-9.5q0 -8 1 -17.5t4 -17.5t9.5 -13t17.5 -5q15 0 26 9.5t16 22.5h166
q-26 -80 -83.5 -123.5t-141.5 -43.5q-91 0 -137.5 51.5t-46.5 139.5zM286 290v3l1 6q0 17 -6.5 33.5t-27.5 16.5q-22 0 -33 -20t-13 -39h79z" />
    <glyph glyph-name="edieresis" unicode="&#xeb;" horiz-adv-x="474" 
d="M116 594q0 16 6.5 30.5t18 25.5t26 17.5t30.5 6.5q32 0 47.5 -21t15.5 -51q0 -14 -7.5 -27t-19.5 -23t-26 -16t-27 -6q-28 0 -46 18t-18 46zM369 530q-27 0 -45 18.5t-18 45.5q0 16 6.5 30.5t17.5 25.5t25.5 17.5t30.5 6.5q28 0 46 -18t18 -46q0 -16 -6.5 -30.5
t-18 -25.5t-26 -17.5t-30.5 -6.5zM23 181q0 54 16.5 107t48 94.5t78 67.5t105.5 26q45 0 79 -15.5t56.5 -42.5t33.5 -63.5t11 -78.5q0 -20 -2.5 -39.5t-5.5 -39.5h-250q-1 -5 -1 -9.5v-9.5q0 -8 1 -17.5t4 -17.5t9.5 -13t17.5 -5q15 0 26 9.5t16 22.5h166
q-26 -80 -83.5 -123.5t-141.5 -43.5q-91 0 -137.5 51.5t-46.5 139.5zM253 349q-22 0 -33 -20t-13 -39h79v3l1 6q0 17 -6.5 33.5t-27.5 16.5z" />
    <glyph glyph-name="igrave" unicode="&#xec;" horiz-adv-x="249" 
d="M190 499l-111 82l65 67l101 -94zM182 0h-171l58 467h170z" />
    <glyph glyph-name="iacute" unicode="&#xed;" horiz-adv-x="249" 
d="M97 554l127 94l48 -67l-134 -82zM182 0h-171l58 467h170z" />
    <glyph glyph-name="icircumflex" unicode="&#xee;" horiz-adv-x="249" 
d="M302 573l-64 -63l-65 66l-90 -70l-53 67l156 117zM182 0h-171l58 467h170z" />
    <glyph glyph-name="idieresis" unicode="&#xef;" horiz-adv-x="249" 
d="M-6 594q0 16 6.5 30.5t18 25.5t26 17.5t30.5 6.5q32 0 47.5 -21t15.5 -51q0 -14 -7.5 -27t-19.5 -23t-26 -16t-27 -6q-28 0 -46 18t-18 46zM247 530q-27 0 -45 18.5t-18 45.5q0 16 6.5 30.5t17.5 25.5t25.5 17.5t30.5 6.5q28 0 46 -18t18 -46q0 -16 -6.5 -30.5t-18 -25.5
t-26 -17.5t-30.5 -6.5zM69 467h170l-57 -467h-171z" />
    <glyph glyph-name="eth" unicode="&#xf0;" horiz-adv-x="481" 
d="M24 190q0 53 15.5 104t45.5 91t74.5 65t102.5 26q-6 28 -14.5 49t-19.5 39l-96 -54l-33 70l78 43q-18 14 -37.5 26t-39.5 22l52 69q33 -10 66.5 -26t61.5 -36l98 53l38 -68l-70 -37q30 -29 51.5 -65t35.5 -75.5t21 -81.5t7 -83q0 -30 -3 -61.5t-10 -63t-19.5 -60.5
t-30.5 -53q-35 -45 -81.5 -69t-103.5 -24q-95 0 -142 54t-47 146zM189 197q0 -9 1 -22t5 -25t11.5 -21t19.5 -9q19 0 31.5 18t20 42.5t10.5 49.5t3 38q0 9 -1 22t-5 25.5t-11.5 21t-20.5 8.5q-18 0 -30.5 -18.5t-20 -43t-10.5 -49t-3 -37.5z" />
    <glyph glyph-name="ntilde" unicode="&#xf1;" horiz-adv-x="483" 
d="M112 530q3 24 10.5 47.5t21.5 42.5t34.5 30.5t48.5 11.5q19 0 34.5 -5t29 -11.5t26.5 -11.5t26 -5q17 0 23.5 11t8.5 25h88q-2 -25 -10.5 -49t-23.5 -43t-36 -30t-50 -11q-18 0 -33 5t-28.5 11.5t-25.5 11.5t-24 5q-16 0 -22.5 -10.5t-8.5 -24.5h-89zM69 467h170
q-4 -23 -7 -44.5t-8 -44.5q21 39 53.5 69t80.5 30q25 0 43.5 -9.5t31 -25.5t19 -37t6.5 -44q0 -22 -3 -43l-39 -318h-171l31 247q1 7 1.5 13t0.5 13q0 11 -4.5 21t-18.5 10q-12 0 -20 -7.5t-13 -18t-7.5 -22.5t-3.5 -21l-29 -235h-171z" />
    <glyph glyph-name="ograve" unicode="&#xf2;" horiz-adv-x="480" 
d="M172 581l65 67l101 -94l-55 -55zM24 190q0 54 16 106t47.5 92t77.5 64.5t105 24.5q91 0 138.5 -54.5t47.5 -142.5q0 -57 -15.5 -109.5t-46 -92.5t-77 -64t-109.5 -24q-46 0 -81 14.5t-57.5 41t-34 63.5t-11.5 81zM254 346q-18 0 -30.5 -18t-20 -42.5t-10.5 -49t-3 -38.5
q0 -9 1 -22t5 -25.5t11.5 -21t19.5 -8.5q18 0 30.5 18t20 42.5t10.5 49.5t3 38q0 9 -1 22t-4.5 25.5t-11 21t-20.5 8.5z" />
    <glyph glyph-name="oacute" unicode="&#xf3;" horiz-adv-x="480" 
d="M223 554l127 94l48 -67l-134 -82zM208 -10q-46 0 -81 14.5t-57.5 41t-34 63.5t-11.5 81q0 54 16 106t47.5 92t77.5 64.5t105 24.5q91 0 138.5 -54.5t47.5 -142.5q0 -57 -15.5 -109.5t-46 -92.5t-77 -64t-109.5 -24zM254 346q-18 0 -30.5 -18t-20 -42.5t-10.5 -49
t-3 -38.5q0 -9 1 -22t5 -25.5t11.5 -21t19.5 -8.5q18 0 30.5 18t20 42.5t10.5 49.5t3 38q0 9 -1 22t-4.5 25.5t-11 21t-20.5 8.5z" />
    <glyph glyph-name="ocircumflex" unicode="&#xf4;" horiz-adv-x="480" 
d="M301 639l96 -91l-62 -49l-47 38l-56 -38l-50 49zM24 190q0 54 16 106t47.5 92t77.5 64.5t105 24.5q91 0 138.5 -54.5t47.5 -142.5q0 -57 -15.5 -109.5t-46 -92.5t-77 -64t-109.5 -24q-46 0 -81 14.5t-57.5 41t-34 63.5t-11.5 81zM190 198q0 -9 1 -22t5 -25.5t11.5 -21
t19.5 -8.5q18 0 30.5 18t20 42.5t10.5 49.5t3 38q0 9 -1 22t-4.5 25.5t-11 21t-20.5 8.5q-18 0 -30.5 -18t-20 -42.5t-10.5 -49t-3 -38.5z" />
    <glyph glyph-name="otilde" unicode="&#xf5;" horiz-adv-x="480" 
d="M173 547q7 24 26 45t46 21q18 0 28.5 -5t18.5 -10.5t14.5 -10.5t16.5 -5q7 0 15 9t13 21l39 -37q-4 -26 -24 -46t-47 -20q-15 0 -25.5 5t-18.5 10.5t-14 10.5t-13 5q-8 0 -17.5 -6.5t-18.5 -23.5zM208 -10q-46 0 -81 14.5t-57.5 41t-34 63.5t-11.5 81q0 54 16 106
t47.5 92t77.5 64.5t105 24.5q91 0 138.5 -54.5t47.5 -142.5q0 -57 -15.5 -109.5t-46 -92.5t-77 -64t-109.5 -24zM254 346q-18 0 -30.5 -18t-20 -42.5t-10.5 -49t-3 -38.5q0 -9 1 -22t5 -25.5t11.5 -21t19.5 -8.5q18 0 30.5 18t20 42.5t10.5 49.5t3 38q0 9 -1 22t-4.5 25.5
t-11 21t-20.5 8.5z" />
    <glyph glyph-name="odieresis" unicode="&#xf6;" horiz-adv-x="480" 
d="M119 594q0 16 6.5 30.5t18 25.5t26 17.5t30.5 6.5q32 0 47.5 -21t15.5 -51q0 -14 -7.5 -27t-19.5 -23t-26 -16t-27 -6q-28 0 -46 18t-18 46zM372 530q-27 0 -45 18.5t-18 45.5q0 16 6.5 30.5t17.5 25.5t25.5 17.5t30.5 6.5q28 0 46 -18t18 -46q0 -16 -6.5 -30.5
t-18 -25.5t-26 -17.5t-30.5 -6.5zM24 190q0 54 16 106t47.5 92t77.5 64.5t105 24.5q91 0 138.5 -54.5t47.5 -142.5q0 -57 -15.5 -109.5t-46 -92.5t-77 -64t-109.5 -24q-46 0 -81 14.5t-57.5 41t-34 63.5t-11.5 81zM254 346q-18 0 -30.5 -18t-20 -42.5t-10.5 -49t-3 -38.5
q0 -9 1 -22t5 -25.5t11.5 -21t19.5 -8.5q18 0 30.5 18t20 42.5t10.5 49.5t3 38q0 9 -1 22t-4.5 25.5t-11 21t-20.5 8.5z" />
    <glyph glyph-name="divide" unicode="&#xf7;" 
d="M264 436q-31 0 -53 21.5t-22 52.5t21.5 52.5t52.5 21.5t53 -21t22 -53q0 -30 -22 -52t-52 -22zM480 400v-120h-433v120h433zM189 170q0 31 21.5 52.5t52.5 21.5t53 -21t22 -53q0 -30 -22 -52t-52 -22q-31 0 -53 21.5t-22 52.5z" />
    <glyph glyph-name="oslash" unicode="&#xf8;" horiz-adv-x="480" 
d="M-2 -8l58 73q-18 30 -25 60t-7 65q0 54 16.5 105.5t47.5 92t77 65t104 24.5q27 0 51.5 -5.5t48.5 -18.5l54 66l61 -47l-58 -72q18 -29 24.5 -60.5t6.5 -65.5q0 -56 -16 -107.5t-47.5 -90.5t-78 -62.5t-107.5 -23.5q-30 0 -49.5 3.5t-46.5 17.5l-54 -67zM254 346
q-18 0 -30.5 -18t-20 -42.5t-10.5 -49t-3 -38.5q0 -9 1 -22t5 -25.5t11.5 -21t19.5 -8.5q18 0 30.5 18t20 42.5t10.5 49.5t3 38q0 9 -1 22t-4.5 25.5t-11 21t-20.5 8.5z" />
    <glyph glyph-name="ugrave" unicode="&#xf9;" horiz-adv-x="492" 
d="M173 581l65 67l101 -94l-55 -55zM31 144q0 9 1 18l2 18l35 287h170l-32 -263q-1 -9 -2 -17.5t-1 -17.5q0 -34 31 -34q14 0 22.5 7t13 17t6 22.5t2.5 22.5l32 263h171l-35 -287q-6 -49 -24.5 -84t-60.5 -63q-66 -43 -145 -43q-36 0 -69.5 9t-59.5 28t-41.5 48t-15.5 69z
" />
    <glyph glyph-name="uacute" unicode="&#xfa;" horiz-adv-x="492" 
d="M226 554l127 94l48 -67l-134 -82zM31 144q0 9 1 18l2 18l35 287h170l-32 -263q-1 -9 -2 -17.5t-1 -17.5q0 -34 31 -34q14 0 22.5 7t13 17t6 22.5t2.5 22.5l32 263h171l-35 -287q-6 -49 -24.5 -84t-60.5 -63q-66 -43 -145 -43q-36 0 -69.5 9t-59.5 28t-41.5 48t-15.5 69z
" />
    <glyph glyph-name="ucircumflex" unicode="&#xfb;" horiz-adv-x="492" 
d="M307 690l116 -117l-64 -63l-65 66l-90 -70l-53 67zM217 -10q-36 0 -69.5 9t-59.5 28t-41.5 48t-15.5 69q0 9 1 18l2 18l35 287h170l-32 -263q-1 -9 -2 -17.5t-1 -17.5q0 -34 31 -34q14 0 22.5 7t13 17t6 22.5t2.5 22.5l32 263h171l-35 -287q-6 -49 -24.5 -84t-60.5 -63
q-66 -43 -145 -43z" />
    <glyph glyph-name="udieresis" unicode="&#xfc;" horiz-adv-x="492" 
d="M125 594q0 16 6.5 30.5t18 25.5t26 17.5t30.5 6.5q32 0 47.5 -21t15.5 -51q0 -14 -7.5 -27t-19.5 -23t-26 -16t-27 -6q-28 0 -46 18t-18 46zM315 594q0 16 6.5 30.5t17.5 25.5t25.5 17.5t30.5 6.5q28 0 46 -18t18 -46q0 -16 -6.5 -30.5t-18 -25.5t-26 -17.5t-30.5 -6.5
q-27 0 -45 18.5t-18 45.5zM31 144q0 9 1 18l2 18l35 287h170l-32 -263q-1 -9 -2 -17.5t-1 -17.5q0 -34 31 -34q14 0 22.5 7t13 17t6 22.5t2.5 22.5l32 263h171l-35 -287q-6 -49 -24.5 -84t-60.5 -63q-66 -43 -145 -43q-36 0 -69.5 9t-59.5 28t-41.5 48t-15.5 69z" />
    <glyph glyph-name="yacute" unicode="&#xfd;" horiz-adv-x="458" 
d="M208 554l127 94l48 -67l-134 -82zM120 19l-82 448h172q7 -59 14.5 -117t7.5 -118v-7l-1 -15v-8q11 42 22 83t26 81l38 101h170l-301 -682h-176z" />
    <glyph glyph-name="thorn" unicode="&#xfe;" horiz-adv-x="490" 
d="M104 729h171l-32 -262q-2 -17 -5.5 -33t-7.5 -33q21 33 47 54.5t68 21.5q37 0 60.5 -18t37.5 -46t19.5 -61t5.5 -62q0 -26 -4 -58.5t-12.5 -65.5t-22.5 -65t-33.5 -56.5t-46 -39.5t-59.5 -15q-40 0 -62 19.5t-39 53.5q-4 -69 -12.5 -137t-19.5 -141h-171zM261 334
q-16 0 -26.5 -17t-16.5 -39.5t-8.5 -45t-2.5 -33.5q0 -7 0.5 -17.5t3.5 -20.5t8.5 -17.5t15.5 -7.5q17 0 27.5 16.5t17 39t9 45t2.5 33.5q0 7 -0.5 18t-3.5 21t-9 17.5t-17 7.5z" />
    <glyph glyph-name="ydieresis" unicode="&#xff;" horiz-adv-x="458" 
d="M168 530q-28 0 -46 18t-18 46q0 16 6.5 30.5t18 25.5t26 17.5t30.5 6.5q32 0 47.5 -21t15.5 -51q0 -14 -7.5 -27t-19.5 -23t-26 -16t-27 -6zM357 530q-27 0 -45 18.5t-18 45.5q0 16 6.5 30.5t17.5 25.5t25.5 17.5t30.5 6.5q28 0 46 -18t18 -46q0 -16 -6.5 -30.5
t-18 -25.5t-26 -17.5t-30.5 -6.5zM10 -215l110 234l-82 448h172q7 -59 14.5 -117t7.5 -118v-7l-1 -15v-8q11 42 22 83t26 81l38 101h170l-301 -682h-176z" />
    <glyph glyph-name="Amacron" unicode="&#x100;" horiz-adv-x="524" 
d="M169 837h335l-12 -94h-335zM-23 0l240 667h217l57 -667h-183l-3 85h-119l-25 -85h-184zM302 227q-1 20 -1.5 39t-0.5 39v87q0 29 1 57.5t2 57.5q-6 -23 -11 -47t-12 -47q-14 -47 -26.5 -93t-26.5 -93h75z" />
    <glyph glyph-name="amacron" unicode="&#x101;" horiz-adv-x="489" 
d="M122 553l12 94h335l-12 -94h-335zM23 167q0 28 3.5 61.5t12 68t22 67t33.5 57.5t46.5 40.5t61.5 15.5q43 0 64 -24t35 -60q0 5 0.5 9.5t0.5 9.5l2 36q0 5 0.5 9.5t0.5 9.5h174l-57 -467h-171l15 79q-23 -38 -53 -63.5t-77 -25.5q-34 0 -56 17.5t-35 43.5t-17.5 57.5
t-4.5 58.5zM254 334q-18 0 -29.5 -18t-18 -42t-9 -48.5t-2.5 -37.5q0 -8 1 -17.5t4 -18t9 -14t17 -5.5q18 0 29 19.5t17 45.5t8 51.5t2 38.5q0 14 -4.5 30t-23.5 16z" />
    <glyph glyph-name="Abreve" unicode="&#x102;" horiz-adv-x="524" 
d="M329 701q-31 0 -49.5 9.5t-27.5 24.5t-10.5 33.5t1.5 36.5h80q-5 -32 17 -32q9 0 17.5 8t12.5 24h81q-3 -17 -10.5 -35.5t-21.5 -33.5t-36 -25t-54 -10zM-23 0l240 667h217l57 -667h-183l-3 85h-119l-25 -85h-184zM302 227q-1 20 -1.5 39t-0.5 39v87q0 29 1 57.5t2 57.5
q-6 -23 -11 -47t-12 -47q-14 -47 -26.5 -93t-26.5 -93h75z" />
    <glyph glyph-name="abreve" unicode="&#x103;" horiz-adv-x="489" 
d="M273 499q-31 0 -49.5 9.5t-27.5 24.5t-10.5 33.5t1.5 36.5h80q-5 -32 17 -32q9 0 17.5 8t12.5 24h81q-3 -17 -10.5 -35.5t-21.5 -33.5t-36 -25t-54 -10zM23 167q0 28 3.5 61.5t12 68t22 67t33.5 57.5t46.5 40.5t61.5 15.5q43 0 64 -24t35 -60q0 5 0.5 9.5t0.5 9.5l2 36
q0 5 0.5 9.5t0.5 9.5h174l-57 -467h-171l15 79q-23 -38 -53 -63.5t-77 -25.5q-34 0 -56 17.5t-35 43.5t-17.5 57.5t-4.5 58.5zM195 188q0 -8 1 -17.5t4 -18t9 -14t17 -5.5q18 0 29 19.5t17 45.5t8 51.5t2 38.5q0 14 -4.5 30t-23.5 16q-18 0 -29.5 -18t-18 -42t-9 -48.5
t-2.5 -37.5z" />
    <glyph glyph-name="Aogonek" unicode="&#x104;" horiz-adv-x="524" 
d="M217 667h217l57 -667h-60q-12 -14 -22.5 -33t-10.5 -38q0 -16 10 -24t25 -8q8 0 18.5 3t17.5 6l-17 -77q-28 -12 -60 -12q-37 0 -63.5 18t-26.5 58q0 36 19.5 60.5t45.5 46.5h-59l-3 85h-119l-25 -85h-184zM302 227l-2 78v87q0 22 1 55.5t2 59.5q-10 -44 -17.5 -75
t-18.5 -65q-3 -10 -6 -20.5t-7.5 -25.5t-10.5 -37.5t-16 -56.5h75z" />
    <glyph glyph-name="aogonek" unicode="&#x105;" horiz-adv-x="489" 
d="M23 173q0 26 3.5 59t12 66.5t22.5 65.5t34 57.5t46.5 40.5t60.5 15q39 0 63.5 -24t35.5 -60l4 74h174l-57 -467h-52q-11 -14 -22 -32.5t-11 -35.5q0 -15 10 -23t24 -8q9 0 18 2.5t17 6.5l-17 -73q-11 -5 -26 -8.5t-35 -3.5q-36 0 -60.5 19t-24.5 57q0 32 19 56.5t44 42.5
h-55l15 79q-20 -36 -51.5 -62.5t-75.5 -26.5q-36 0 -59 17.5t-35.5 44.5t-17 59.5t-4.5 61.5zM195 185q0 -16 5.5 -34t25.5 -18q18 0 29 19.5t17 45t8 51t2 37.5q0 8 -0.5 16t-3.5 15.5t-8.5 12t-15.5 4.5q-19 0 -30.5 -18.5t-18 -43t-8.5 -49.5t-2 -38z" />
    <glyph glyph-name="Cacute" unicode="&#x106;" horiz-adv-x="438" 
d="M379 868h138l-105 -148h-98zM270 -12q-60 0 -103.5 22t-72 59.5t-42.5 87t-14 103.5q0 75 20.5 150t62 134.5t104.5 97t148 37.5q27 0 45 -3t43 -14l-23 -190q-17 19 -34 29.5t-43 10.5q-40 0 -67 -23t-43 -56.5t-23 -72.5t-7 -71q0 -24 4.5 -46.5t15.5 -40.5t29 -29
t46 -11q29 0 52.5 12.5t44.5 30.5l-34 -193q-29 -12 -53 -18t-56 -6z" />
    <glyph glyph-name="cacute" unicode="&#x107;" horiz-adv-x="298" 
d="M204 530l65 148h138l-105 -148h-98zM25 200q0 53 18.5 102.5t51.5 88.5t79 62.5t101 23.5q8 0 17 -0.5t17 -1.5l-19 -152q-42 -3 -64.5 -30t-22.5 -68q0 -12 3.5 -25t10 -23.5t17 -17.5t24.5 -7h11l-19 -159q-22 -3 -46 -3q-46 0 -80 17t-56 46t-32.5 67t-10.5 80z" />
    <glyph glyph-name="Ccircumflex" unicode="&#x108;" horiz-adv-x="438" 
d="M396 870l124 -98l-65 -70l-71 55l-94 -57l-53 70zM38 260q0 75 20.5 150t62 134.5t104.5 97t148 37.5q27 0 45 -3t43 -14l-23 -190q-17 19 -34 29.5t-43 10.5q-40 0 -67 -23t-43 -56.5t-23 -72.5t-7 -71q0 -24 4.5 -46.5t15.5 -40.5t29 -29t46 -11q29 0 52.5 12.5
t44.5 30.5l-34 -193q-29 -12 -53 -18t-56 -6q-60 0 -103.5 22t-72 59.5t-42.5 87t-14 103.5z" />
    <glyph glyph-name="ccircumflex" unicode="&#x109;" horiz-adv-x="298" 
d="M105 573l156 117l116 -117l-64 -63l-65 66l-90 -70zM204 -10q-46 0 -80 17t-56 46t-32.5 67t-10.5 80q0 53 18.5 102.5t51.5 88.5t79 62.5t101 23.5q8 0 17 -0.5t17 -1.5l-19 -152q-42 -3 -64.5 -30t-22.5 -68q0 -12 3.5 -25t10 -23.5t17 -17.5t24.5 -7h11l-19 -159
q-22 -3 -46 -3z" />
    <glyph glyph-name="Cdotaccent" unicode="&#x10a;" horiz-adv-x="438" 
d="M312 787q0 34 25 59t59 25q35 0 51 -21.5t16 -53.5q0 -5 -2 -11t-4 -10q-9 -24 -30.5 -39.5t-47.5 -15.5q-29 0 -48 19t-19 48zM270 -12q-60 0 -103.5 22t-72 59.5t-42.5 87t-14 103.5q0 75 20.5 150t62 134.5t104.5 97t148 37.5q27 0 45 -3t43 -14l-23 -190
q-17 19 -34 29.5t-43 10.5q-40 0 -67 -23t-43 -56.5t-23 -72.5t-7 -71q0 -24 4.5 -46.5t15.5 -40.5t29 -29t46 -11q29 0 52.5 12.5t44.5 30.5l-34 -193q-29 -12 -53 -18t-56 -6z" />
    <glyph glyph-name="cdotaccent" unicode="&#x10b;" horiz-adv-x="298" 
d="M271 530q-29 0 -48 19t-19 48q0 34 25 59t59 25q35 0 51 -21.5t16 -53.5q0 -5 -2 -11t-4 -10q-9 -24 -30.5 -39.5t-47.5 -15.5zM25 200q0 53 18.5 102.5t51.5 88.5t79 62.5t101 23.5q8 0 17 -0.5t17 -1.5l-19 -152q-42 -3 -64.5 -30t-22.5 -68q0 -12 3.5 -25t10 -23.5
t17 -17.5t24.5 -7h11l-19 -159q-22 -3 -46 -3q-46 0 -80 17t-56 46t-32.5 67t-10.5 80z" />
    <glyph glyph-name="Ccaron" unicode="&#x10c;" horiz-adv-x="438" 
d="M249 807l71 63l70 -58l92 56l54 -66l-166 -98zM38 260q0 75 20.5 150t62 134.5t104.5 97t148 37.5q27 0 45 -3t43 -14l-23 -190q-17 19 -34 29.5t-43 10.5q-40 0 -67 -23t-43 -56.5t-23 -72.5t-7 -71q0 -24 4.5 -46.5t15.5 -40.5t29 -29t46 -11q29 0 52.5 12.5t44.5 30.5
l-34 -193q-29 -12 -53 -18t-56 -6q-60 0 -103.5 22t-72 59.5t-42.5 87t-14 103.5z" />
    <glyph glyph-name="ccaron" unicode="&#x10d;" horiz-adv-x="298" 
d="M133 629l71 61l64 -65l87 65l55 -67l-159 -112zM204 -10q-46 0 -80 17t-56 46t-32.5 67t-10.5 80q0 53 18.5 102.5t51.5 88.5t79 62.5t101 23.5q8 0 17 -0.5t17 -1.5l-19 -152q-42 -3 -64.5 -30t-22.5 -68q0 -12 3.5 -25t10 -23.5t17 -17.5t24.5 -7h11l-19 -159
q-22 -3 -46 -3z" />
    <glyph glyph-name="Dcaron" unicode="&#x10e;" horiz-adv-x="529" 
d="M240 870l70 -58l92 56l54 -66l-166 -98l-121 103zM18 0l82 667h153q128 0 196 -71.5t68 -197.5q0 -69 -18.5 -141t-56.5 -129q-48 -71 -110.5 -99.5t-147.5 -28.5h-166zM215 161q36 2 59 25t36.5 56t18.5 69.5t5 64.5q0 20 -2.5 41.5t-11 40t-23.5 30.5t-40 12z" />
    <glyph glyph-name="dcaron" unicode="&#x10f;" horiz-adv-x="717" 
d="M145 -10q-36 0 -60 16t-38 41t-19.5 56t-5.5 61q0 32 3 64.5t11 64.5q7 30 20.5 62.5t34 59.5t48.5 44.5t64 17.5q42 0 63.5 -21.5t36.5 -56.5q5 84 16 165.5t22 164.5h170l-89 -729h-174q1 16 5 31.5t6 31.5q-23 -30 -48.5 -51.5t-65.5 -21.5zM581 667h146l-100 -221
h-104zM259 333q-18 0 -29.5 -16.5t-17.5 -38.5t-8.5 -45t-2.5 -36q0 -8 1.5 -18t5 -19t10 -15t16.5 -6q17 0 27.5 16.5t16.5 39t8 45t2 34.5q0 7 -0.5 17t-3.5 19.5t-9 16t-16 6.5z" />
    <glyph glyph-name="Dcroat" unicode="&#x110;" horiz-adv-x="533" 
d="M54 273h-27l13 106h27l36 288h153q43 0 86 -9t79 -35q26 -19 45 -44.5t31 -55t17.5 -61.5t5.5 -63q0 -69 -18 -141t-57 -130q-48 -71 -110.5 -99.5t-147.5 -28.5h-166zM218 161q36 2 59.5 25t36.5 56t18 70t5 65q0 20 -3 41.5t-11 40t-23.5 30.5t-39.5 12l-15 -122h49
l-14 -106h-48z" />
    <glyph glyph-name="dcroat" unicode="&#x111;" horiz-adv-x="489" 
d="M145 -10q-37 0 -60.5 18.5t-37.5 46.5t-19.5 61t-5.5 63q0 38 10 82.5t31.5 83t54.5 64.5t79 26q35 0 61.5 -17.5t41.5 -48.5q0 15 1 25t2 18l2 16t2 19l7 63h-85l11 92h85l16 127h170l-16 -127h54l-12 -92h-53l-62 -510h-174l11 63q-20 -29 -48 -51t-66 -22zM257 307
q-16 0 -27 -14.5t-17.5 -34.5t-9 -40.5t-2.5 -32.5q0 -7 1 -17t4.5 -18.5t9.5 -14.5t16 -6q16 0 26.5 15t17 35t9 40.5t2.5 31.5q0 8 -1 17.5t-4 18t-9 14.5t-16 6z" />
    <glyph glyph-name="Emacron" unicode="&#x112;" horiz-adv-x="405" 
d="M437 743h-335l12 94h335zM410 510h-152l-12 -97h137l-19 -151h-136l-13 -102h152l-19 -160h-330l82 667h330z" />
    <glyph glyph-name="emacron" unicode="&#x113;" horiz-adv-x="474" 
d="M121 647h335l-12 -94h-335zM207 -10q-91 0 -137.5 51.5t-46.5 139.5q0 54 16.5 107t48 94.5t78 67.5t105.5 26q45 0 79 -15.5t56.5 -42.5t33.5 -63.5t11 -78.5q0 -20 -2.5 -39.5t-5.5 -39.5h-250q-1 -5 -1 -9.5v-9.5q0 -8 1 -17.5t4 -17.5t9.5 -13t17.5 -5q15 0 26 9.5
t16 22.5h166q-26 -80 -83.5 -123.5t-141.5 -43.5zM286 290v3l1 6q0 17 -6.5 33.5t-27.5 16.5q-22 0 -33 -20t-13 -39h79z" />
    <glyph glyph-name="Edotaccent" unicode="&#x116;" horiz-adv-x="405" 
d="M268 720q-29 0 -48 19t-19 48q0 34 25 59t59 25q35 0 51 -21.5t16 -53.5q0 -5 -2 -11t-4 -10q-9 -24 -30.5 -39.5t-47.5 -15.5zM18 0l82 667h330l-20 -157h-152l-12 -97h137l-19 -151h-136l-13 -102h152l-19 -160h-330z" />
    <glyph glyph-name="edotaccent" unicode="&#x117;" horiz-adv-x="474" 
d="M275 530q-29 0 -48 19t-19 48q0 34 25 59t59 25q35 0 51 -21.5t16 -53.5q0 -5 -2 -11t-4 -10q-9 -24 -30.5 -39.5t-47.5 -15.5zM23 181q0 54 16.5 107t48 94.5t78 67.5t105.5 26q45 0 79 -15.5t56.5 -42.5t33.5 -63.5t11 -78.5q0 -20 -2.5 -39.5t-5.5 -39.5h-250
q-1 -5 -1 -9.5v-9.5q0 -8 1 -17.5t4 -17.5t9.5 -13t17.5 -5q15 0 26 9.5t16 22.5h166q-26 -80 -83.5 -123.5t-141.5 -43.5q-91 0 -137.5 51.5t-46.5 139.5zM253 349q-22 0 -33 -20t-13 -39h79v3l1 6q0 17 -6.5 33.5t-27.5 16.5z" />
    <glyph glyph-name="Eogonek" unicode="&#x118;" horiz-adv-x="405" 
d="M100 667h330l-20 -157h-152l-12 -97h137l-19 -151h-136l-13 -102h152l-19 -160h-52q-12 -14 -22.5 -33t-10.5 -38q0 -16 10 -24t25 -8q8 0 18.5 3t17.5 6l-17 -77q-28 -12 -60 -12q-37 0 -63.5 18t-26.5 58q0 36 19.5 60.5t45.5 46.5h-214z" />
    <glyph glyph-name="eogonek" unicode="&#x119;" horiz-adv-x="474" 
d="M196 -10q-42 0 -74 15t-54 41t-33.5 60.5t-11.5 74.5q0 54 16.5 107t48.5 95t78 67.5t105 25.5q45 0 78.5 -15.5t56 -42.5t34 -63.5t11.5 -78.5q0 -21 -3 -43.5t-5 -35.5h-250q-1 -4 -1 -9v-10q0 -9 1 -18t4 -17t9.5 -13t17.5 -5q15 0 25.5 9.5t16.5 22.5h166
q-8 -26 -19.5 -46t-26.5 -37t-32.5 -32.5t-37.5 -32.5q-17 -14 -28 -24t-17 -19q-11 -16 -11 -34q0 -15 10 -23t24 -8q9 0 18 2.5t17 6.5l-17 -73q-11 -5 -26 -8.5t-35 -3.5q-36 0 -60.5 19t-24.5 57q0 28 15.5 52t38.5 38q-6 -1 -12 -1h-12zM253 349q-22 0 -33 -20t-13 -39
h79q1 3 1 6.5v6.5q0 17 -7.5 31.5t-26.5 14.5z" />
    <glyph glyph-name="Ecaron" unicode="&#x11a;" horiz-adv-x="405" 
d="M265 704l-121 103l71 63l70 -58l92 56l54 -66zM410 510h-152l-12 -97h137l-19 -151h-136l-13 -102h152l-19 -160h-330l82 667h330z" />
    <glyph glyph-name="ecaron" unicode="&#x11b;" horiz-adv-x="474" 
d="M221 690l64 -65l87 65l55 -67l-159 -112l-118 118zM23 181q0 54 16.5 107t48 94.5t78 67.5t105.5 26q45 0 79 -15.5t56.5 -42.5t33.5 -63.5t11 -78.5q0 -20 -2.5 -39.5t-5.5 -39.5h-250q-1 -5 -1 -9.5v-9.5q0 -8 1 -17.5t4 -17.5t9.5 -13t17.5 -5q15 0 26 9.5t16 22.5
h166q-26 -80 -83.5 -123.5t-141.5 -43.5q-91 0 -137.5 51.5t-46.5 139.5zM286 290v3l1 6q0 17 -6.5 33.5t-27.5 16.5q-22 0 -33 -20t-13 -39h79z" />
    <glyph glyph-name="Gcircumflex" unicode="&#x11c;" horiz-adv-x="552" 
d="M227 770l159 100l124 -98l-65 -70l-71 55l-94 -57zM37 253q0 46 7 95t22.5 96.5t39.5 90t57.5 74.5t77 51t97.5 19q82 0 132 -44.5t73 -120.5l-180 -64q0 11 -2 22.5t-6.5 22t-13 17t-22.5 6.5q-20 0 -34 -12.5t-23.5 -30.5t-15 -38t-9.5 -35q-10 -40 -15.5 -80t-5.5 -81
q0 -14 1.5 -30t6.5 -30t15.5 -23.5t29.5 -9.5q18 0 31 9.5t21.5 24t13.5 31.5t7 32h-65l17 140h247q-4 -43 -12 -89.5t-21.5 -90.5t-34.5 -83.5t-51.5 -69t-72 -47t-96.5 -17.5q-59 0 -100.5 21.5t-67 58.5t-37 85t-11.5 100z" />
    <glyph glyph-name="gcircumflex" unicode="&#x11d;" horiz-adv-x="485" 
d="M165 573l156 117l116 -117l-64 -63l-65 66l-90 -70zM173 -46q0 -16 7 -27t24 -11q14 0 23 6t14 15.5t7.5 21.5t3.5 23q5 35 9 72q-21 -26 -50 -43.5t-64 -17.5t-59 17.5t-38.5 44t-20.5 58.5t-6 61q0 62 15 122q8 29 22 61t35 58.5t48.5 44t62.5 17.5q33 0 55.5 -22.5
t37.5 -48.5l4 61h172l-59 -479q-5 -36 -15 -68t-34 -60q-34 -39 -83 -57t-100 -18q-88 0 -135.5 38.5t-49.5 130.5h174zM202 199q0 -7 1 -18t4 -21t9 -17t16 -7q17 0 27 18t15.5 41.5t7.5 47.5t2 36q0 7 -0.5 17t-3 19t-8 15t-15.5 6q-17 0 -28 -17t-17 -39.5t-8 -45.5
t-2 -35z" />
    <glyph glyph-name="Gbreve" unicode="&#x11e;" horiz-adv-x="552" 
d="M346 718q-30 0 -55.5 9t-44 26t-29.5 41t-11 55v17h69q9 -34 29.5 -43.5t52.5 -9.5q35 0 57 10.5t39 42.5h69q-14 -67 -60 -107.5t-116 -40.5zM37 253q0 46 7 95t22.5 96.5t39.5 90t57.5 74.5t77 51t97.5 19q82 0 132 -44.5t73 -120.5l-180 -64q0 11 -2 22.5t-6.5 22
t-13 17t-22.5 6.5q-20 0 -34 -12.5t-23.5 -30.5t-15 -38t-9.5 -35q-10 -40 -15.5 -80t-5.5 -81q0 -14 1.5 -30t6.5 -30t15.5 -23.5t29.5 -9.5q18 0 31 9.5t21.5 24t13.5 31.5t7 32h-65l17 140h247q-4 -43 -12 -89.5t-21.5 -90.5t-34.5 -83.5t-51.5 -69t-72 -47t-96.5 -17.5
q-59 0 -100.5 21.5t-67 58.5t-37 85t-11.5 100z" />
    <glyph glyph-name="gbreve" unicode="&#x11f;" horiz-adv-x="485" 
d="M276 521q-30 0 -55.5 9t-44 26t-29.5 41t-11 55v17h69q9 -34 29.5 -43.5t52.5 -9.5q35 0 57 10.5t39 42.5h69q-14 -67 -60 -107.5t-116 -40.5zM173 -46q0 -16 7 -27t24 -11q14 0 23 6t14 15.5t7.5 21.5t3.5 23q5 35 9 72q-21 -26 -50 -43.5t-64 -17.5t-59 17.5t-38.5 44
t-20.5 58.5t-6 61q0 62 15 122q8 29 22 61t35 58.5t48.5 44t62.5 17.5q33 0 55.5 -22.5t37.5 -48.5l4 61h172l-59 -479q-5 -36 -15 -68t-34 -60q-34 -39 -83 -57t-100 -18q-88 0 -135.5 38.5t-49.5 130.5h174zM202 199q0 -7 1 -18t4 -21t9 -17t16 -7q17 0 27 18t15.5 41.5
t7.5 47.5t2 36q0 7 -0.5 17t-3 19t-8 15t-15.5 6q-17 0 -28 -17t-17 -39.5t-8 -45.5t-2 -35z" />
    <glyph glyph-name="Gdotaccent" unicode="&#x120;" horiz-adv-x="552" 
d="M279 787q0 34 25 59t59 25q35 0 51 -21.5t16 -53.5q0 -5 -2 -11t-4 -10q-9 -24 -30.5 -39.5t-47.5 -15.5q-29 0 -48 19t-19 48zM37 253q0 46 7 95t22.5 96.5t39.5 90t57.5 74.5t77 51t97.5 19q82 0 132 -44.5t73 -120.5l-180 -64q0 11 -2 22.5t-6.5 22t-13 17t-22.5 6.5
q-20 0 -34 -12.5t-23.5 -30.5t-15 -38t-9.5 -35q-10 -40 -15.5 -80t-5.5 -81q0 -14 1.5 -30t6.5 -30t15.5 -23.5t29.5 -9.5q18 0 31 9.5t21.5 24t13.5 31.5t7 32h-65l17 140h247q-4 -43 -12 -89.5t-21.5 -90.5t-34.5 -83.5t-51.5 -69t-72 -47t-96.5 -17.5q-59 0 -100.5 21.5
t-67 58.5t-37 85t-11.5 100z" />
    <glyph glyph-name="gdotaccent" unicode="&#x121;" horiz-adv-x="485" 
d="M211 597q0 34 25 59t59 25q35 0 51 -21.5t16 -53.5q0 -5 -2 -11t-4 -10q-9 -24 -30.5 -39.5t-47.5 -15.5q-29 0 -48 19t-19 48zM173 -46q0 -16 7 -27t24 -11q14 0 23 6t14 15.5t7.5 21.5t3.5 23q5 35 9 72q-21 -26 -50 -43.5t-64 -17.5t-59 17.5t-38.5 44t-20.5 58.5
t-6 61q0 62 15 122q8 29 22 61t35 58.5t48.5 44t62.5 17.5q33 0 55.5 -22.5t37.5 -48.5l4 61h172l-59 -479q-5 -36 -15 -68t-34 -60q-34 -39 -83 -57t-100 -18q-88 0 -135.5 38.5t-49.5 130.5h174zM257 336q-17 0 -28 -17t-17 -39.5t-8 -45.5t-2 -35q0 -7 1 -18t4 -21t9 -17
t16 -7q17 0 27 18t15.5 41.5t7.5 47.5t2 36q0 7 -0.5 17t-3 19t-8 15t-15.5 6z" />
    <glyph glyph-name="uni0122" unicode="&#x122;" horiz-adv-x="552" 
d="M37 253q0 46 7 95t22.5 96.5t39.5 90t57.5 74.5t77 51t97.5 19q82 0 132 -44.5t73 -120.5l-180 -64q0 11 -2 22.5t-6.5 22t-13 17t-22.5 6.5q-20 0 -34 -12.5t-23.5 -30.5t-15 -38t-9.5 -35q-10 -40 -15.5 -80t-5.5 -81q0 -14 1.5 -30t6.5 -30t15.5 -23.5t29.5 -9.5
q18 0 31 9.5t21.5 24t13.5 31.5t7 32h-65l17 140h247q-4 -43 -12 -89.5t-21.5 -90.5t-34.5 -83.5t-51.5 -69t-72 -47t-96.5 -17.5q-59 0 -100.5 21.5t-67 58.5t-37 85t-11.5 100zM131 -233l50 188h146l-94 -188h-102z" />
    <glyph glyph-name="uni0123" unicode="&#x123;" horiz-adv-x="485" 
d="M273 705h102l-50 -188h-146zM173 -46q0 -16 7 -27t24 -11q14 0 23 6t14 15.5t7.5 21.5t3.5 23q5 35 9 72q-21 -26 -50 -43.5t-64 -17.5t-59 17.5t-38.5 44t-20.5 58.5t-6 61q0 62 15 122q8 29 22 61t35 58.5t48.5 44t62.5 17.5q33 0 55.5 -22.5t37.5 -48.5l4 61h172
l-59 -479q-5 -36 -15 -68t-34 -60q-34 -39 -83 -57t-100 -18q-88 0 -135.5 38.5t-49.5 130.5h174zM202 199q0 -7 1 -18t4 -21t9 -17t16 -7q17 0 27 18t15.5 41.5t7.5 47.5t2 36q0 7 -0.5 17t-3 19t-8 15t-15.5 6q-17 0 -28 -17t-17 -39.5t-8 -45.5t-2 -35z" />
    <glyph glyph-name="Hcircumflex" unicode="&#x124;" horiz-adv-x="531" 
d="M202 770l159 100l124 -98l-65 -70l-71 55l-94 -57zM18 0l82 667h177l-29 -236h85l29 236h177l-82 -667h-177l33 268h-85l-33 -268h-177z" />
    <glyph glyph-name="hcircumflex" unicode="&#x125;" horiz-adv-x="483" 
d="M211 930l116 -117l-64 -63l-65 66l-90 -70l-53 67zM11 0l90 729h171l-32 -261q-3 -23 -7 -45t-9 -45q21 39 53.5 69t80.5 30q25 0 43.5 -9.5t31 -25.5t19 -37t6.5 -44q0 -22 -3 -43l-39 -318h-171l31 247q1 7 1.5 13t0.5 13q0 11 -4.5 21t-18.5 10q-12 0 -20 -7.5
t-13 -18t-7.5 -22.5t-3.5 -21l-29 -235h-171z" />
    <glyph glyph-name="Hbar" unicode="&#x126;" horiz-adv-x="531" 
d="M18 0l62 505h-50l15 121h50l5 41h177l-5 -41h86l5 41h177l-5 -41h50l-15 -121h-50l-62 -505h-177l33 268h-86l-33 -268h-177zM333 421l10 84h-86l-10 -84h86z" />
    <glyph glyph-name="hbar" unicode="&#x127;" horiz-adv-x="489" 
d="M20 0l61 499h-54l14 105h53l15 125h173l-15 -125h118l-14 -105h-118l-8 -73q-2 -23 -6.5 -45t-9.5 -45q21 39 53.5 69t80.5 30q25 0 43.5 -9.5t31 -25.5t19 -37t6.5 -44q0 -22 -3 -43l-35 -276h-171l27 205q1 7 1.5 13t0.5 13q0 11 -4.5 21t-18.5 10q-12 0 -20 -7.5
t-13 -18t-7.5 -22.5t-3.5 -21l-25 -193h-171z" />
    <glyph glyph-name="Itilde" unicode="&#x128;" horiz-adv-x="269" 
d="M93 749q7 24 26 45t46 21q18 0 28.5 -5t18.5 -10.5t14.5 -10.5t16.5 -5q7 0 15 9t13 21l39 -37q-4 -26 -24 -46t-47 -20q-15 0 -25.5 5t-18.5 10.5t-14 10.5t-13 5q-8 0 -17.5 -6.5t-18.5 -23.5zM100 667h177l-82 -667h-177z" />
    <glyph glyph-name="itilde" unicode="&#x129;" horiz-adv-x="249" 
d="M58 547q7 24 26 45t46 21q18 0 28.5 -5t18.5 -10.5t14.5 -10.5t16.5 -5q7 0 15 9t13 21l39 -37q-4 -26 -24 -46t-47 -20q-15 0 -25.5 5t-18.5 10.5t-14 10.5t-13 5q-8 0 -17.5 -6.5t-18.5 -23.5zM11 0l58 467h170l-57 -467h-171z" />
    <glyph glyph-name="Imacron" unicode="&#x12a;" horiz-adv-x="269" 
d="M352 743h-335l12 94h335zM195 0h-177l82 667h177z" />
    <glyph glyph-name="imacron" unicode="&#x12b;" horiz-adv-x="250" 
d="M327 553h-335l12 94h335zM182 0h-171l58 467h170z" />
    <glyph glyph-name="Iogonek" unicode="&#x12e;" horiz-adv-x="269" 
d="M100 667h177l-82 -667q-12 -14 -22.5 -33t-10.5 -38q0 -16 10 -24t25 -8q8 0 18.5 3t17.5 6l-17 -77q-28 -12 -60 -12q-37 0 -63.5 18t-26.5 58q0 36 19.5 60.5t45.5 46.5h-113z" />
    <glyph glyph-name="iogonek" unicode="&#x12f;" horiz-adv-x="250" 
d="M73 600q0 23 9 43t25 36t36.5 25t42.5 9q38 0 63 -25.5t25 -63.5q0 -22 -9.5 -42.5t-25 -36t-36 -25t-42.5 -9.5q-37 0 -62.5 26t-25.5 63zM70 467h170l-57 -467q-11 -14 -22 -32.5t-11 -35.5q0 -15 10 -23t24 -8q9 0 18 2.5t17 6.5l-17 -73q-11 -5 -26 -8.5t-35 -3.5
q-36 0 -60.5 19t-24.5 57q0 32 19 56.5t44 42.5h-107z" />
    <glyph glyph-name="Idotaccent" unicode="&#x130;" horiz-adv-x="269" 
d="M193 720q-29 0 -48 19t-19 48q0 34 25 59t59 25q35 0 51 -21.5t16 -53.5q0 -5 -2 -11t-4 -10q-9 -24 -30.5 -39.5t-47.5 -15.5zM18 0l82 667h177l-82 -667h-177z" />
    <glyph glyph-name="dotlessi" unicode="&#x131;" horiz-adv-x="249" 
d="M182 0h-171l58 467h170z" />
    <glyph glyph-name="Jcircumflex" unicode="&#x134;" horiz-adv-x="349" 
d="M291 870l124 -98l-65 -70l-71 55l-94 -57l-53 70zM-4 196q11 -17 27.5 -28t38.5 -11q18 0 29.5 7t19 19t11 26.5t5.5 29.5l52 428h178l-57 -463q-5 -34 -11.5 -65t-25.5 -60q-31 -48 -76 -69.5t-101 -21.5q-30 0 -57 5.5t-56 16.5z" />
    <glyph glyph-name="jcircumflex" unicode="&#x135;" horiz-adv-x="251" 
d="M292 573l-64 -63l-65 66l-90 -70l-53 67l156 117zM157 -215h-170l82 682h172z" />
    <glyph glyph-name="uni0136" unicode="&#x136;" horiz-adv-x="533" 
d="M18 0l82 667h177l-40 -298l140 298h187l-181 -322l117 -345h-191l-79 319l-35 -319h-177zM126 -233l50 188h146l-94 -188h-102z" />
    <glyph glyph-name="uni0137" unicode="&#x137;" horiz-adv-x="487" 
d="M101 729h171l-57 -462q6 14 15 30l18 32l75 138h182l-139 -215l93 -252h-190l-41 146q-8 29 -12 49.5t-6 31.5l-28 -227h-171zM101 -234l50 188h146l-94 -188h-102z" />
    <glyph glyph-name="Lacute" unicode="&#x139;" horiz-adv-x="363" 
d="M222 720h-98l65 148h138zM329 0h-311l82 667h177l-62 -507h133z" />
    <glyph glyph-name="lacute" unicode="&#x13a;" horiz-adv-x="250" 
d="M212 770h-98l65 148h138zM182 0h-171l90 729h171z" />
    <glyph glyph-name="uni013B" unicode="&#x13b;" horiz-adv-x="363" 
d="M329 0h-311l82 667h177l-62 -507h133zM153 -233h-102l50 188h146z" />
    <glyph glyph-name="uni013C" unicode="&#x13c;" horiz-adv-x="250" 
d="M182 0h-171l90 729h171zM73 -234h-102l50 188h146z" />
    <glyph glyph-name="Lcaron" unicode="&#x13d;" horiz-adv-x="507" 
d="M18 0l82 667h177l-62 -507h133l-19 -160h-311zM361 667h146l-104 -209h-102z" />
    <glyph glyph-name="lcaron" unicode="&#x13e;" horiz-adv-x="487" 
d="M182 0h-171l90 729h171zM387 446h-104l58 221h146z" />
    <glyph glyph-name="Ldot" unicode="&#x13f;" horiz-adv-x="395" 
d="M18 0l82 667h177l-62 -507h133l-19 -160h-311zM337 258q-29 0 -48 19t-19 48q0 34 25 59t59 25q35 0 51 -21.5t16 -53.5q0 -5 -2 -11t-4 -10q-9 -24 -30.5 -39.5t-47.5 -15.5z" />
    <glyph glyph-name="ldot" unicode="&#x140;" horiz-adv-x="396" 
d="M11 0l90 729h171l-90 -729h-171zM332 289q-29 0 -48 19t-19 48q0 34 25 59t59 25q35 0 51 -21.5t16 -53.5q0 -5 -2 -11t-4 -10q-9 -24 -30.5 -39.5t-47.5 -15.5z" />
    <glyph glyph-name="Lslash" unicode="&#x141;" horiz-adv-x="367" 
d="M332 0h-311l27 217l-52 -40l16 131l52 40l39 319h177l-27 -224l96 71l-16 -131l-96 -71l-19 -152h133z" />
    <glyph glyph-name="lslash" unicode="&#x142;" horiz-adv-x="296" 
d="M304 397l-54 -39l-44 -358h-171l34 275l-55 -38l14 118l55 38l42 336h170l-31 -253l55 39z" />
    <glyph glyph-name="Nacute" unicode="&#x143;" horiz-adv-x="554" 
d="M334 868h138l-105 -148h-98zM100 667h169l60 -234q11 -42 18.5 -84t16.5 -84q0 63 1 126t9 126l19 150h169l-82 -667h-169l-59 245q-8 35 -15.5 69.5t-12.5 69.5q-2 -26 -3 -53t-3 -53q-4 -70 -13.5 -139t-17.5 -139h-169z" />
    <glyph glyph-name="nacute" unicode="&#x144;" horiz-adv-x="483" 
d="M214 530l65 148h138l-105 -148h-98zM11 0l58 467h170q-4 -23 -7 -44.5t-8 -44.5q21 39 53.5 69t80.5 30q25 0 43.5 -9.5t31 -25.5t19 -37t6.5 -44q0 -22 -3 -43l-39 -318h-171l31 247q1 7 1.5 13t0.5 13q0 11 -4.5 21t-18.5 10q-12 0 -20 -7.5t-13 -18t-7.5 -22.5
t-3.5 -21l-29 -235h-171z" />
    <glyph glyph-name="uni0145" unicode="&#x145;" horiz-adv-x="554" 
d="M100 667h169l60 -234q11 -42 18.5 -84t16.5 -84q0 63 1 126t9 126l19 150h169l-82 -667h-169l-59 245q-8 35 -15.5 69.5t-12.5 69.5q-2 -26 -3 -53t-3 -53q-4 -70 -13.5 -139t-17.5 -139h-169zM126 -233l50 188h146l-94 -188h-102z" />
    <glyph glyph-name="uni0146" unicode="&#x146;" horiz-adv-x="483" 
d="M69 467h170q-4 -23 -7 -44.5t-8 -44.5q21 39 53.5 69t80.5 30q25 0 43.5 -9.5t31 -25.5t19 -37t6.5 -44q0 -22 -3 -43l-39 -318h-171l31 247q1 7 1.5 13t0.5 13q0 11 -4.5 21t-18.5 10q-12 0 -20 -7.5t-13 -18t-7.5 -22.5t-3.5 -21l-29 -235h-171zM141 -46h146l-94 -188
h-102z" />
    <glyph glyph-name="Ncaron" unicode="&#x147;" horiz-adv-x="554" 
d="M219 807l71 63l70 -58l92 56l54 -66l-166 -98zM18 0l82 667h169l60 -234q11 -42 18.5 -84t16.5 -84q0 63 1 126t9 126l19 150h169l-82 -667h-169l-59 245q-8 35 -15.5 69.5t-12.5 69.5q-2 -26 -3 -53t-3 -53q-4 -70 -13.5 -139t-17.5 -139h-169z" />
    <glyph glyph-name="ncaron" unicode="&#x148;" horiz-adv-x="483" 
d="M239 690l64 -65l87 65l55 -67l-159 -112l-118 118zM11 0l58 467h170q-4 -23 -7 -44.5t-8 -44.5q21 39 53.5 69t80.5 30q25 0 43.5 -9.5t31 -25.5t19 -37t6.5 -44q0 -22 -3 -43l-39 -318h-171l31 247q1 7 1.5 13t0.5 13q0 11 -4.5 21t-18.5 10q-12 0 -20 -7.5t-13 -18
t-7.5 -22.5t-3.5 -21l-29 -235h-171z" />
    <glyph glyph-name="Omacron" unicode="&#x14c;" horiz-adv-x="558" 
d="M189 837h335l-12 -94h-335zM85 77q-28 41 -37.5 89.5t-9.5 96.5t7 95t22 92t40 86t59 73t77 51t94 19q54 0 93.5 -22t65 -58t38 -82.5t12.5 -94.5t-6 -96t-20 -95q-13 -46 -36.5 -90t-57 -78t-76.5 -54.5t-96 -20.5q-51 0 -95.5 23.5t-73.5 65.5zM222 266q0 -12 1 -31
t5.5 -36t14 -29.5t27.5 -12.5q19 0 33 14.5t24 37t17 50.5t11 56t5.5 52.5t1.5 40.5q0 12 -1 29.5t-5.5 34t-14 28t-26.5 11.5q-27 0 -45 -29.5t-28.5 -70t-15 -81.5t-4.5 -64z" />
    <glyph glyph-name="omacron" unicode="&#x14d;" horiz-adv-x="480" 
d="M122 553l12 94h335l-12 -94h-335zM208 -10q-46 0 -81 14.5t-57.5 41t-34 63.5t-11.5 81q0 54 16 106t47.5 92t77.5 64.5t105 24.5q91 0 138.5 -54.5t47.5 -142.5q0 -57 -15.5 -109.5t-46 -92.5t-77 -64t-109.5 -24zM254 346q-18 0 -30.5 -18t-20 -42.5t-10.5 -49
t-3 -38.5q0 -9 1 -22t5 -25.5t11.5 -21t19.5 -8.5q18 0 30.5 18t20 42.5t10.5 49.5t3 38q0 9 -1 22t-4.5 25.5t-11 21t-20.5 8.5z" />
    <glyph glyph-name="Obreve" unicode="&#x14e;" horiz-adv-x="558" 
d="M341 718q-30 0 -55.5 9t-44 26t-29.5 41t-11 55v17h69q9 -34 29.5 -43.5t52.5 -9.5q35 0 57 10.5t39 42.5h69q-14 -67 -60 -107.5t-116 -40.5zM85 77q-28 41 -37.5 89.5t-9.5 96.5t7 95t22 92t40 86t59 73t77 51t94 19q54 0 93.5 -22t65 -58t38 -82.5t12.5 -94.5t-6 -96
t-20 -95q-13 -46 -36.5 -90t-57 -78t-76.5 -54.5t-96 -20.5q-51 0 -95.5 23.5t-73.5 65.5zM222 266q0 -12 1 -31t5.5 -36t14 -29.5t27.5 -12.5q19 0 33 14.5t24 37t17 50.5t11 56t5.5 52.5t1.5 40.5q0 12 -1 29.5t-5.5 34t-14 28t-26.5 11.5q-27 0 -45 -29.5t-28.5 -70
t-15 -81.5t-4.5 -64z" />
    <glyph glyph-name="obreve" unicode="&#x14f;" horiz-adv-x="480" 
d="M276 521q-30 0 -55.5 9t-44 26t-29.5 41t-11 55v17h69q9 -34 29.5 -43.5t52.5 -9.5q35 0 57 10.5t39 42.5h69q-14 -67 -60 -107.5t-116 -40.5zM208 -10q-46 0 -81 14.5t-57.5 41t-34 63.5t-11.5 81q0 54 16 106t47.5 92t77.5 64.5t105 24.5q91 0 138.5 -54.5t47.5 -142.5
q0 -57 -15.5 -109.5t-46 -92.5t-77 -64t-109.5 -24zM254 346q-18 0 -30.5 -18t-20 -42.5t-10.5 -49t-3 -38.5q0 -9 1 -22t5 -25.5t11.5 -21t19.5 -8.5q18 0 30.5 18t20 42.5t10.5 49.5t3 38q0 9 -1 22t-4.5 25.5t-11 21t-20.5 8.5z" />
    <glyph glyph-name="Ohungarumlaut" unicode="&#x150;" horiz-adv-x="558" 
d="M443 868h128l-105 -148h-88zM214 720l65 148h127l-104 -148h-88zM85 77q-28 41 -37.5 89.5t-9.5 96.5t7 95t22 92t40 86t59 73t77 51t94 19q54 0 93.5 -22t65 -58t38 -82.5t12.5 -94.5t-6 -96t-20 -95q-13 -46 -36.5 -90t-57 -78t-76.5 -54.5t-96 -20.5q-51 0 -95.5 23.5
t-73.5 65.5zM222 266q0 -12 1 -31t5.5 -36t14 -29.5t27.5 -12.5q19 0 33 14.5t24 37t17 50.5t11 56t5.5 52.5t1.5 40.5q0 12 -1 29.5t-5.5 34t-14 28t-26.5 11.5q-27 0 -45 -29.5t-28.5 -70t-15 -81.5t-4.5 -64z" />
    <glyph glyph-name="ohungarumlaut" unicode="&#x151;" horiz-adv-x="480" 
d="M313 530l65 148h128l-105 -148h-88zM149 530l65 148h127l-104 -148h-88zM208 -10q-46 0 -81 14.5t-57.5 41t-34 63.5t-11.5 81q0 54 16 106t47.5 92t77.5 64.5t105 24.5q91 0 138.5 -54.5t47.5 -142.5q0 -57 -15.5 -109.5t-46 -92.5t-77 -64t-109.5 -24zM190 198
q0 -9 1 -22t5 -25.5t11.5 -21t19.5 -8.5q18 0 30.5 18t20 42.5t10.5 49.5t3 38q0 9 -1 22t-4.5 25.5t-11 21t-20.5 8.5q-18 0 -30.5 -18t-20 -42.5t-10.5 -49t-3 -38.5z" />
    <glyph glyph-name="OE" unicode="&#x152;" horiz-adv-x="697" 
d="M38 256q0 51 8 102t23 97.5t37.5 86.5t52.5 70q37 37 72.5 49t63.5 12q32 0 56 -13.5t37 -38.5l6 46h326l-19 -157h-148l-12 -97h134l-19 -151h-134l-12 -102h149l-19 -160h-328l6 49q-29 -37 -57 -47t-45 -10q-52 0 -86 25.5t-54.5 64.5t-29 85.5t-8.5 88.5zM220 262
q0 -12 1.5 -30.5t7 -35t15.5 -28.5t27 -12q19 0 32.5 15.5t24 39.5t17 53.5t10.5 57.5t5.5 52t1.5 36q0 11 -1 28t-5 33.5t-13 28t-26 11.5q-19 0 -33.5 -15t-25.5 -38t-18 -51.5t-11.5 -56.5t-6.5 -51.5t-2 -36.5z" />
    <glyph glyph-name="oe" unicode="&#x153;" horiz-adv-x="726" 
d="M24 190q0 57 16 108.5t48 91t79 63t108 23.5q35 0 62.5 -8t54.5 -34q33 24 63.5 33t65.5 9q45 0 79 -15.5t57 -42t35 -63t12 -78.5q0 -20 -2.5 -39.5t-6.5 -40.5h-253v-17q0 -9 1.5 -19.5t5 -19.5t10.5 -15.5t19 -6.5q16 0 27 11t16 27h162q-27 -79 -86 -123t-139 -44
q-34 0 -63.5 9t-57.5 34q-22 -20 -52 -31.5t-65 -11.5q-94 0 -145 53t-51 147zM504 349q-13 0 -21.5 -5.5t-14 -14t-9 -19t-5.5 -20.5h86q0 9 -1 19.5t-5 19t-11 14.5t-19 6zM191 198q0 -9 1 -22t5 -25.5t11.5 -21t19.5 -8.5q19 0 31.5 18t20 43t10.5 50t3 39q0 9 -1 22
t-5 25t-11.5 20.5t-20.5 8.5q-18 0 -30.5 -18t-20 -43t-10.5 -49.5t-3 -38.5z" />
    <glyph glyph-name="Racute" unicode="&#x154;" horiz-adv-x="525" 
d="M246 720l65 148h138l-105 -148h-98zM100 667h181q49 0 91 -9.5t73 -31.5t48.5 -58.5t17.5 -91.5q0 -69 -29.5 -120.5t-94.5 -78.5l98 -277h-192q-12 51 -25 100t-24 100q-1 5 -2 9.5t-2 9.5l-9 39q-1 5 -1.5 9.5t-2.5 9.5q-6 -70 -14.5 -139t-17.5 -138h-177zM239 358h12
q18 0 33.5 8.5t26.5 22t17 30.5t6 34q0 38 -20.5 51t-54.5 13z" />
    <glyph glyph-name="racute" unicode="&#x155;" horiz-adv-x="339" 
d="M239 678h138l-105 -148h-98zM69 467h170l-20 -91q23 45 56 72.5t85 29.5l-24 -194q-11 7 -21.5 11t-24.5 4q-17 0 -31.5 -7.5t-25.5 -19.5q-14 -16 -19 -34t-7 -38l-25 -200h-171z" />
    <glyph glyph-name="uni0156" unicode="&#x156;" horiz-adv-x="525" 
d="M18 0l82 667h181q49 0 91 -9.5t73 -31.5t48.5 -58.5t17.5 -91.5q0 -69 -29.5 -120.5t-94.5 -78.5l98 -277h-192q-12 51 -25 100t-24 100q-1 5 -2 9.5t-2 9.5l-9 39q-1 5 -1.5 9.5t-2.5 9.5q-6 -70 -14.5 -139t-17.5 -138h-177zM251 358q18 0 33.5 8.5t26.5 22t17 30.5
t6 34q0 38 -20.5 51t-54.5 13l-20 -159h12zM121 -233l50 188h146l-94 -188h-102z" />
    <glyph glyph-name="uni0157" unicode="&#x157;" horiz-adv-x="339" 
d="M11 0l58 467h170l-20 -91q23 45 56 72.5t85 29.5l-24 -194q-11 7 -21.5 11t-24.5 4q-17 0 -31.5 -7.5t-25.5 -19.5q-14 -16 -19 -34t-7 -38l-25 -200h-171zM131 -46h146l-94 -188h-102z" />
    <glyph glyph-name="Rcaron" unicode="&#x158;" horiz-adv-x="525" 
d="M176 807l71 63l70 -58l92 56l54 -66l-166 -98zM18 0l82 667h181q49 0 91 -9.5t73 -31.5t48.5 -58.5t17.5 -91.5q0 -69 -29.5 -120.5t-94.5 -78.5l98 -277h-192q-12 51 -25 100t-24 100q-1 5 -2 9.5t-2 9.5l-9 39q-1 5 -1.5 9.5t-2.5 9.5q-6 -70 -14.5 -139t-17.5 -138
h-177zM239 358h12q18 0 33.5 8.5t26.5 22t17 30.5t6 34q0 38 -20.5 51t-54.5 13z" />
    <glyph glyph-name="rcaron" unicode="&#x159;" horiz-adv-x="339" 
d="M123 629l71 61l64 -65l87 65l55 -67l-159 -112zM11 0l58 467h170l-20 -91q23 45 56 72.5t85 29.5l-24 -194q-11 7 -21.5 11t-24.5 4q-17 0 -31.5 -7.5t-25.5 -19.5q-14 -16 -19 -34t-7 -38l-25 -200h-171z" />
    <glyph glyph-name="Sacute" unicode="&#x15a;" horiz-adv-x="398" 
d="M299 868h138l-105 -148h-98zM133 -12q-33 0 -65 7.5t-62 21.5l26 209q17 -29 43 -51t61 -22q22 0 40 13t18 37q0 15 -10 28t-25.5 26.5t-33.5 29.5t-33.5 36.5t-25.5 47.5t-10 63q0 46 18 90t48.5 78.5t72 55.5t89.5 21q33 0 64 -9t60 -25l-25 -204q-14 27 -38.5 50
t-56.5 23q-18 0 -35.5 -12t-17.5 -32q0 -15 10.5 -27.5t26 -26t33.5 -29t33.5 -35.5t26 -46t10.5 -60q0 -51 -18 -98t-50 -82.5t-76.5 -56.5t-97.5 -21z" />
    <glyph glyph-name="sacute" unicode="&#x15b;" horiz-adv-x="389" 
d="M274 678h138l-105 -148h-98zM159 -10q-48 0 -83 12.5t-76 36.5l78 129q14 -17 35 -33t44 -16q12 0 24 6.5t12 20.5q0 16 -14 22.5t-26 11.5q-21 8 -40 18t-33 24t-22.5 33t-8.5 44q0 41 18.5 74t48 56t67 35.5t75.5 12.5q37 0 68.5 -10t63.5 -28l-74 -127
q-12 14 -28.5 27.5t-36.5 13.5q-11 0 -20.5 -6.5t-9.5 -18.5q0 -13 10.5 -21.5t26.5 -15.5t34 -15t34 -21t26.5 -33t10.5 -51q0 -41 -17.5 -74.5t-46 -57t-65 -36.5t-75.5 -13z" />
    <glyph glyph-name="Scircumflex" unicode="&#x15c;" horiz-adv-x="398" 
d="M316 870l124 -98l-65 -70l-71 55l-94 -57l-53 70zM133 -12q-33 0 -65 7.5t-62 21.5l26 209q17 -29 43 -51t61 -22q22 0 40 13t18 37q0 15 -10 28t-25.5 26.5t-33.5 29.5t-33.5 36.5t-25.5 47.5t-10 63q0 46 18 90t48.5 78.5t72 55.5t89.5 21q33 0 64 -9t60 -25l-25 -204
q-14 27 -38.5 50t-56.5 23q-18 0 -35.5 -12t-17.5 -32q0 -15 10.5 -27.5t26 -26t33.5 -29t33.5 -35.5t26 -46t10.5 -60q0 -51 -18 -98t-50 -82.5t-76.5 -56.5t-97.5 -21z" />
    <glyph glyph-name="scircumflex" unicode="&#x15d;" horiz-adv-x="389" 
d="M291 690l116 -117l-64 -63l-65 66l-90 -70l-53 67zM159 -10q-48 0 -83 12.5t-76 36.5l78 129q14 -17 35 -33t44 -16q12 0 24 6.5t12 20.5q0 16 -14 22.5t-26 11.5q-21 8 -40 18t-33 24t-22.5 33t-8.5 44q0 41 18.5 74t48 56t67 35.5t75.5 12.5q37 0 68.5 -10t63.5 -28
l-74 -127q-12 14 -28.5 27.5t-36.5 13.5q-11 0 -20.5 -6.5t-9.5 -18.5q0 -13 10.5 -21.5t26.5 -15.5t34 -15t34 -21t26.5 -33t10.5 -51q0 -41 -17.5 -74.5t-46 -57t-65 -36.5t-75.5 -13z" />
    <glyph glyph-name="Scedilla" unicode="&#x15e;" horiz-adv-x="398" 
d="M32 226q17 -29 43 -51t61 -22q22 0 40 13t18 37q0 15 -10 28t-25.5 26.5t-33.5 29.5t-33.5 36.5t-25.5 47.5t-10 63q0 46 18 90t48.5 78.5t72 55.5t89.5 21q33 0 64 -9t60 -25l-25 -204q-14 27 -38.5 50t-56.5 23q-18 0 -35.5 -12t-17.5 -32q0 -15 10.5 -27.5t26 -26
t33.5 -29t33.5 -35.5t26 -46t10.5 -60q0 -51 -18 -98t-50 -82.5t-76.5 -56.5t-97.5 -21q-33 0 -65 7.5t-62 21.5zM17 -184l107 137l96 -66l-126 -124z" />
    <glyph glyph-name="scedilla" unicode="&#x15f;" horiz-adv-x="389" 
d="M78 168q14 -17 35 -33t44 -16q12 0 24 6.5t12 20.5q0 16 -14 22.5t-26 11.5q-21 8 -40 18t-33 24t-22.5 33t-8.5 44q0 41 18.5 74t48 56t67 35.5t75.5 12.5q37 0 68.5 -10t63.5 -28l-74 -127q-12 14 -28.5 27.5t-36.5 13.5q-11 0 -20.5 -6.5t-9.5 -18.5q0 -13 10.5 -21.5
t26.5 -15.5t34 -15t34 -21t26.5 -33t10.5 -51q0 -41 -17.5 -74.5t-46 -57t-65 -36.5t-75.5 -13q-48 0 -83 12.5t-76 36.5zM41 -169l102 122l95 -59l-126 -117z" />
    <glyph glyph-name="Scaron" unicode="&#x160;" horiz-adv-x="398" 
d="M235 870l70 -58l92 56l54 -66l-166 -98l-121 103zM133 -12q-33 0 -65 7.5t-62 21.5l26 209q17 -29 43 -51t61 -22q22 0 40 13t18 37q0 15 -10 28t-25.5 26.5t-33.5 29.5t-33.5 36.5t-25.5 47.5t-10 63q0 46 18 90t48.5 78.5t72 55.5t89.5 21q33 0 64 -9t60 -25l-25 -204
q-14 27 -38.5 50t-56.5 23q-18 0 -35.5 -12t-17.5 -32q0 -15 10.5 -27.5t26 -26t33.5 -29t33.5 -35.5t26 -46t10.5 -60q0 -51 -18 -98t-50 -82.5t-76.5 -56.5t-97.5 -21z" />
    <glyph glyph-name="scaron" unicode="&#x161;" horiz-adv-x="389" 
d="M138 629l71 61l64 -65l87 65l55 -67l-159 -112zM159 -10q-48 0 -83 12.5t-76 36.5l78 129q14 -17 35 -33t44 -16q12 0 24 6.5t12 20.5q0 16 -14 22.5t-26 11.5q-21 8 -40 18t-33 24t-22.5 33t-8.5 44q0 41 18.5 74t48 56t67 35.5t75.5 12.5q37 0 68.5 -10t63.5 -28
l-74 -127q-12 14 -28.5 27.5t-36.5 13.5q-11 0 -20.5 -6.5t-9.5 -18.5q0 -13 10.5 -21.5t26.5 -15.5t34 -15t34 -21t26.5 -33t10.5 -51q0 -41 -17.5 -74.5t-46 -57t-65 -36.5t-75.5 -13z" />
    <glyph glyph-name="uni0162" unicode="&#x162;" horiz-adv-x="377" 
d="M34 507l20 160h373l-20 -160h-98l-62 -507h-177l62 507h-98zM34 -184l107 137l96 -66l-126 -124z" />
    <glyph glyph-name="uni0163" unicode="&#x163;" horiz-adv-x="297" 
d="M43 467h49l17 137h171l-17 -137h56l-17 -140h-56l-41 -327h-170l40 327h-49zM102 -47l95 -59l-126 -117l-71 54z" />
    <glyph glyph-name="Tcaron" unicode="&#x164;" horiz-adv-x="377" 
d="M195 870l70 -58l92 56l54 -66l-166 -98l-121 103zM54 667h373l-20 -160h-98l-62 -507h-177l62 507h-98z" />
    <glyph glyph-name="tcaron" unicode="&#x165;" horiz-adv-x="507" 
d="M371 727h146l-100 -221h-104zM26 327l17 140h49l17 137h171l-17 -137h56l-17 -140h-56l-41 -327h-170l40 327h-49z" />
    <glyph glyph-name="Utilde" unicode="&#x168;" horiz-adv-x="537" 
d="M223 749q7 24 26 45t46 21q18 0 28.5 -5t18.5 -10.5t14.5 -10.5t16.5 -5q7 0 15 9t13 21l39 -37q-4 -26 -24 -46t-47 -20q-15 0 -25.5 5t-18.5 10.5t-14 10.5t-13 5q-8 0 -17.5 -6.5t-18.5 -23.5zM42 172q0 24 3 48l55 447h177l-53 -431q-1 -8 -1.5 -16.5t-0.5 -16.5
q0 -20 8.5 -33t30.5 -13q17 0 26.5 7.5t15.5 19t8.5 25.5t3.5 27l53 431h177l-58 -472q-6 -51 -24.5 -87t-60.5 -68q-35 -27 -72.5 -39.5t-82.5 -12.5q-44 0 -81.5 11.5t-65 34t-43 57.5t-15.5 81z" />
    <glyph glyph-name="utilde" unicode="&#x169;" horiz-adv-x="492" 
d="M172 547q7 24 26 45t46 21q18 0 28.5 -5t18.5 -10.5t14.5 -10.5t16.5 -5q7 0 15 9t13 21l39 -37q-4 -26 -24 -46t-47 -20q-15 0 -25.5 5t-18.5 10.5t-14 10.5t-13 5q-8 0 -17.5 -6.5t-18.5 -23.5zM31 144q0 9 1 18l2 18l35 287h170l-32 -263q-1 -9 -2 -17.5t-1 -17.5
q0 -34 31 -34q14 0 22.5 7t13 17t6 22.5t2.5 22.5l32 263h171l-35 -287q-6 -49 -24.5 -84t-60.5 -63q-66 -43 -145 -43q-36 0 -69.5 9t-59.5 28t-41.5 48t-15.5 69z" />
    <glyph glyph-name="Umacron" unicode="&#x16a;" horiz-adv-x="537" 
d="M174 837h335l-12 -94h-335zM42 172q0 24 3 48l55 447h177l-53 -431q-1 -8 -1.5 -16.5t-0.5 -16.5q0 -20 8.5 -33t30.5 -13q17 0 26.5 7.5t15.5 19t8.5 25.5t3.5 27l53 431h177l-58 -472q-6 -51 -24.5 -87t-60.5 -68q-35 -27 -72.5 -39.5t-82.5 -12.5q-44 0 -81.5 11.5
t-65 34t-43 57.5t-15.5 81z" />
    <glyph glyph-name="umacron" unicode="&#x16b;" horiz-adv-x="492" 
d="M124 647h335l-12 -94h-335zM31 144q0 9 1 18l2 18l35 287h170l-32 -263q-1 -9 -2 -17.5t-1 -17.5q0 -34 31 -34q14 0 22.5 7t13 17t6 22.5t2.5 22.5l32 263h171l-35 -287q-6 -49 -24.5 -84t-60.5 -63q-66 -43 -145 -43q-36 0 -69.5 9t-59.5 28t-41.5 48t-15.5 69z" />
    <glyph glyph-name="Ubreve" unicode="&#x16c;" horiz-adv-x="537" 
d="M186 866h69q9 -34 29.5 -43.5t52.5 -9.5q35 0 57 10.5t39 42.5h69q-14 -67 -60 -107.5t-116 -40.5q-30 0 -55.5 9t-44 26t-29.5 41t-11 55v17zM42 172q0 24 3 48l55 447h177l-53 -431q-1 -8 -1.5 -16.5t-0.5 -16.5q0 -20 8.5 -33t30.5 -13q17 0 26.5 7.5t15.5 19
t8.5 25.5t3.5 27l53 431h177l-58 -472q-6 -51 -24.5 -87t-60.5 -68q-35 -27 -72.5 -39.5t-82.5 -12.5q-44 0 -81.5 11.5t-65 34t-43 57.5t-15.5 81z" />
    <glyph glyph-name="ubreve" unicode="&#x16d;" horiz-adv-x="492" 
d="M136 669h69q9 -34 29.5 -43.5t52.5 -9.5q35 0 57 10.5t39 42.5h69q-14 -67 -60 -107.5t-116 -40.5q-30 0 -55.5 9t-44 26t-29.5 41t-11 55v17zM31 144q0 9 1 18l2 18l35 287h170l-32 -263q-1 -9 -2 -17.5t-1 -17.5q0 -34 31 -34q14 0 22.5 7t13 17t6 22.5t2.5 22.5
l32 263h171l-35 -287q-6 -49 -24.5 -84t-60.5 -63q-66 -43 -145 -43q-36 0 -69.5 9t-59.5 28t-41.5 48t-15.5 69z" />
    <glyph glyph-name="Uring" unicode="&#x16e;" horiz-adv-x="537" 
d="M243 810q0 40 28 68t68 28t68 -28t28 -68q0 -20 -7.5 -37.5t-20.5 -30.5t-30.5 -20.5t-36.5 -7.5q-20 0 -38 7.5t-31 21t-20.5 31t-7.5 36.5zM302 810q0 -16 10.5 -26.5t26.5 -10.5t26.5 10.5t10.5 26.5t-10.5 26.5t-26.5 10.5t-26.5 -10.5t-10.5 -26.5zM247 -12
q-44 0 -81.5 11.5t-65 34t-43 57.5t-15.5 81q0 24 3 48l55 447h177l-53 -431q-1 -8 -1.5 -16.5t-0.5 -16.5q0 -20 8.5 -33t30.5 -13q17 0 26.5 7.5t15.5 19t8.5 25.5t3.5 27l53 431h177l-58 -472q-6 -51 -24.5 -87t-60.5 -68q-35 -27 -72.5 -39.5t-82.5 -12.5z" />
    <glyph glyph-name="uring" unicode="&#x16f;" horiz-adv-x="492" 
d="M188 619q0 40 28 68t68 28t68 -28t28 -68t-28 -68t-68 -28t-68 28t-28 68zM247 619q0 -16 10.5 -26.5t26.5 -10.5t26.5 10.5t10.5 26.5t-10.5 26.5t-26.5 10.5t-26.5 -10.5t-10.5 -26.5zM31 144q0 9 1 18l2 18l35 287h170l-32 -263q-1 -9 -2 -17.5t-1 -17.5q0 -34 31 -34
q14 0 22.5 7t13 17t6 22.5t2.5 22.5l32 263h171l-35 -287q-6 -49 -24.5 -84t-60.5 -63q-66 -43 -145 -43q-36 0 -69.5 9t-59.5 28t-41.5 48t-15.5 69z" />
    <glyph glyph-name="Uhungarumlaut" unicode="&#x170;" horiz-adv-x="537" 
d="M328 720l65 148h128l-105 -148h-88zM164 720l65 148h127l-104 -148h-88zM42 172q0 24 3 48l55 447h177l-53 -431q-1 -8 -1.5 -16.5t-0.5 -16.5q0 -20 8.5 -33t30.5 -13q17 0 26.5 7.5t15.5 19t8.5 25.5t3.5 27l53 431h177l-58 -472q-6 -51 -24.5 -87t-60.5 -68
q-35 -27 -72.5 -39.5t-82.5 -12.5q-44 0 -81.5 11.5t-65 34t-43 57.5t-15.5 81z" />
    <glyph glyph-name="uhungarumlaut" unicode="&#x171;" horiz-adv-x="492" 
d="M298 530l65 148h128l-105 -148h-88zM134 530l65 148h127l-104 -148h-88zM31 144q0 9 1 18l2 18l35 287h170l-32 -263q-1 -9 -2 -17.5t-1 -17.5q0 -34 31 -34q14 0 22.5 7t13 17t6 22.5t2.5 22.5l32 263h171l-35 -287q-6 -49 -24.5 -84t-60.5 -63q-66 -43 -145 -43
q-36 0 -69.5 9t-59.5 28t-41.5 48t-15.5 69z" />
    <glyph glyph-name="Uogonek" unicode="&#x172;" horiz-adv-x="537" 
d="M247 -11q-45 0 -82.5 11t-65 34t-42.5 58t-15 83q0 26 3 45l55 447h177l-53 -431q-1 -8 -1.5 -15t-0.5 -14q0 -20 7.5 -35t30.5 -15q17 0 27 7.5t15.5 19t8.5 25.5t4 27l53 431h177l-58 -472q-7 -57 -28 -97t-67 -75q-16 -12 -37 -25.5t-35 -27.5q-8 -8 -13.5 -17.5
t-5.5 -22.5q0 -16 9.5 -24.5t25.5 -8.5q8 0 18.5 3t17.5 6l-17 -77q-28 -12 -60 -12q-38 0 -64 18t-26 60q0 29 15.5 52t36.5 42h-10z" />
    <glyph glyph-name="uogonek" unicode="&#x173;" horiz-adv-x="492" 
d="M204 -10q-34 0 -65.5 10.5t-55.5 30.5t-38 48.5t-14 64.5q0 9 1.5 23.5t2.5 23.5l34 276h170l-33 -275q-1 -4 -1.5 -12t-0.5 -12q0 -33 31 -33q22 0 31 16t11 35l34 281h171l-35 -287q-4 -35 -10.5 -59t-19 -42t-31.5 -34t-49 -34q-28 -17 -40.5 -25.5t-19.5 -16.5
q-14 -16 -14 -36q0 -15 9.5 -23.5t24.5 -8.5q9 0 18 2.5t17 6.5l-17 -73q-11 -5 -26 -8.5t-35 -3.5q-36 0 -60.5 19t-24.5 57q0 29 16.5 51t37.5 39q-5 -1 -9.5 -1h-9.5z" />
    <glyph glyph-name="Ydieresis" unicode="&#x178;" horiz-adv-x="493" 
d="M208 720q-28 0 -46 18t-18 46q0 16 6.5 30.5t18 25.5t26 17.5t30.5 6.5q32 0 47.5 -21t15.5 -51q0 -14 -7.5 -27t-19.5 -23t-26 -16t-27 -6zM397 720q-27 0 -45 18.5t-18 45.5q0 16 6.5 30.5t17.5 25.5t25.5 17.5t30.5 6.5q28 0 46 -18t18 -46q0 -16 -6.5 -30.5
t-18 -25.5t-26 -17.5t-30.5 -6.5zM54 667h185q11 -51 21 -102.5t16 -103.5q20 53 42 104t45 102h184l-200 -385l-35 -282h-177l35 282z" />
    <glyph glyph-name="Zacute" unicode="&#x179;" horiz-adv-x="507" 
d="M324 868h138l-105 -148h-98zM-10 14l181 326q25 45 52 87t58 83h-191l19 157h435l-2 -19l-206 -363q-19 -34 -39 -66.5t-40 -66.5q51 5 101.5 5.5t101.5 2.5l-19 -160h-453z" />
    <glyph glyph-name="zacute" unicode="&#x17a;" horiz-adv-x="428" 
d="M198 530l65 148h138l-105 -148h-98zM-12 0l141 242q13 22 26.5 43.5t28.5 41.5h-130l17 140h370l-138 -238q-26 -46 -55 -88h126l-17 -141h-369z" />
    <glyph glyph-name="Zdotaccent" unicode="&#x17b;" horiz-adv-x="507" 
d="M258 787q0 34 25 59t59 25q35 0 51 -21.5t16 -53.5q0 -5 -2 -11t-4 -10q-9 -24 -30.5 -39.5t-47.5 -15.5q-29 0 -48 19t-19 48zM-12 0l2 14l181 326q25 45 52 87t58 83h-191l19 157h435l-2 -19l-206 -363q-19 -34 -39 -66.5t-40 -66.5q51 5 101.5 5.5t101.5 2.5l-19 -160
h-453z" />
    <glyph glyph-name="zdotaccent" unicode="&#x17c;" horiz-adv-x="428" 
d="M192 597q0 34 25 59t59 25q35 0 51 -21.5t16 -53.5q0 -5 -2 -11t-4 -10q-9 -24 -30.5 -39.5t-47.5 -15.5q-29 0 -48 19t-19 48zM-12 0l141 242q13 22 26.5 43.5t28.5 41.5h-130l17 140h370l-138 -238q-26 -46 -55 -88h126l-17 -141h-369z" />
    <glyph glyph-name="Zcaron" unicode="&#x17d;" horiz-adv-x="507" 
d="M270 870l70 -58l92 56l54 -66l-166 -98l-121 103zM-12 0l2 14l181 326q25 45 52 87t58 83h-191l19 157h435l-2 -19l-206 -363q-19 -34 -39 -66.5t-40 -66.5q51 5 101.5 5.5t101.5 2.5l-19 -160h-453z" />
    <glyph glyph-name="zcaron" unicode="&#x17e;" horiz-adv-x="428" 
d="M204 690l64 -65l87 65l55 -67l-159 -112l-118 118zM-12 0l141 242q13 22 26.5 43.5t28.5 41.5h-130l17 140h370l-138 -238q-26 -46 -55 -88h126l-17 -141h-369z" />
    <glyph glyph-name="uni018F" unicode="&#x18f;" horiz-adv-x="554" 
d="M38 266q0 26 2 49.5t4 42.5l3 27h310q2 56 -4.5 81t-13.5 34q-5 7 -14.5 12.5t-23.5 5.5q-29 0 -44.5 -21.5t-23.5 -46.5l-168 55q36 78 99 126t151 48q60 0 103 -21.5t70.5 -58t40.5 -85.5t13 -104q0 -43 -6.5 -91t-21.5 -95.5t-38.5 -91t-58.5 -78.5
q-20 -20 -39.5 -32.5t-39.5 -20t-42 -10.5t-48 -3q-40 0 -74.5 10t-65.5 42q-21 22 -34.5 49t-21.5 57t-11 60.5t-3 59.5zM212 253q-2 -25 -0.5 -41.5t4.5 -27t7 -15.5t5 -7q13 -13 34 -13q19 0 32.5 10.5t23 26.5t15 34t8.5 33h-129z" />
    <glyph glyph-name="florin" unicode="&#x192;" horiz-adv-x="532" 
d="M54 23q8 -1 15.5 -1.5t15.5 -0.5q21 0 32 7t16 29l61 316h-68l17 94h69l21 106q8 37 19 68t30 53t47.5 34t70.5 12q20 0 39.5 -3t39.5 -8l-22 -138h-8l-16 3q-20 0 -31 -6t-15 -28l-18 -93h70l-18 -94h-71l-64 -332q-7 -39 -20.5 -71t-35 -55t-52.5 -35.5t-74 -12.5
q-20 0 -38.5 4t-37.5 9z" />
    <glyph glyph-name="Ohorn" unicode="&#x1a0;" horiz-adv-x="558" 
d="M38 263q0 48 7 95t22 92t40 86t59 73t77 51t94 19q35 0 57 -6t38 -6q26 0 36.5 21.5t13.5 45.5h106q-2 -18 -8 -37.5t-17 -38t-28.5 -33t-42.5 -22.5q28 -36 41 -83.5t13 -97.5q0 -48 -6 -96t-20 -95q-13 -46 -36.5 -90t-57 -78t-76.5 -54.5t-96 -20.5q-51 0 -95.5 23.5
t-73.5 65.5q-28 41 -37.5 89.5t-9.5 96.5zM222 266q0 -12 1 -31t5.5 -36t14 -29.5t27.5 -12.5q19 0 33 14.5t24 37t17 50.5t11 56t5.5 52.5t1.5 40.5q0 12 -1 29.5t-5.5 34t-14 28t-26.5 11.5q-27 0 -45 -29.5t-28.5 -70t-15 -81.5t-4.5 -64z" />
    <glyph glyph-name="ohorn" unicode="&#x1a1;" horiz-adv-x="480" 
d="M24 190q0 54 16 106t47.5 92t77.5 64.5t105 24.5q34 0 55 -5t35 -5q26 0 36.5 21.5t13.5 45.5h106q-2 -17 -8 -36.5t-16.5 -37.5t-27.5 -33t-41 -23q17 -25 25 -56.5t8 -67.5q0 -57 -15.5 -109.5t-46 -92.5t-77 -64t-109.5 -24q-46 0 -81 14.5t-57.5 41t-34 63.5
t-11.5 81zM190 198q0 -9 1 -22t5 -25.5t11.5 -21t19.5 -8.5q18 0 30.5 18t20 42.5t10.5 49.5t3 38q0 9 -1 22t-4.5 25.5t-11 21t-20.5 8.5q-18 0 -30.5 -18t-20 -42.5t-10.5 -49t-3 -38.5z" />
    <glyph glyph-name="Uhorn" unicode="&#x1af;" horiz-adv-x="537" 
d="M247 -12q-44 0 -81.5 11.5t-65 34t-43 57.5t-15.5 81q0 24 3 48l55 447h177l-53 -431q-1 -8 -1.5 -16.5t-0.5 -16.5q0 -20 8.5 -33t30.5 -13q17 0 26.5 7.5t15.5 19t8.5 25.5t3.5 27l53 431h112q12 0 20.5 6.5t14 16t9 21t4.5 23.5h106q-2 -18 -8 -38t-17 -38t-28.5 -33
t-43.5 -22l-50 -408q-6 -51 -24.5 -87t-60.5 -68q-35 -27 -72.5 -39.5t-82.5 -12.5z" />
    <glyph glyph-name="uhorn" unicode="&#x1b0;" horiz-adv-x="492" 
d="M217 -10q-36 0 -69.5 9t-59.5 28t-41.5 48t-15.5 69q0 9 1 18l2 18l35 287h170l-32 -263q-1 -9 -2 -17.5t-1 -17.5q0 -34 31 -34q14 0 22.5 7t13 17t6 22.5t2.5 22.5l32 263h106q12 0 20.5 6.5t14 16t9 21t4.5 23.5h106q-2 -18 -8 -38t-17 -38t-28.5 -33t-43.5 -22
l-27 -223q-6 -49 -24.5 -84t-60.5 -63q-66 -43 -145 -43z" />
    <glyph glyph-name="uni01CF" unicode="&#x1cf;" horiz-adv-x="269" 
d="M200 704l-121 103l71 63l70 -58l92 56l54 -66zM195 0h-177l82 667h177z" />
    <glyph glyph-name="uni01D0" unicode="&#x1d0;" horiz-adv-x="250" 
d="M156 511l-118 118l71 61l64 -65l87 65l55 -67zM182 0h-171l58 467h170z" />
    <glyph glyph-name="uni01DD" unicode="&#x1dd;" horiz-adv-x="482" 
d="M213 -10q-49 0 -84.5 16.5t-58.5 45t-34.5 68t-11.5 85.5q0 17 2.5 33.5t4.5 30.5h254q1 6 1 14t-0.5 16.5t-3.5 16.5t-8 14q-7 8 -15 9.5t-13 1.5q-34 0 -45 -33l-154 38q32 64 88.5 97.5t127.5 33.5q95 0 145 -54.5t50 -148.5q0 -65 -21 -125.5t-63 -100.5
q-38 -36 -78.5 -47t-82.5 -11zM191 176q-1 -14 1 -28t10 -22q3 -3 9 -6t15 -3q11 0 19 6t13.5 14.5t9 19t4.5 19.5h-81z" />
    <glyph glyph-name="Gcaron" unicode="&#x1e6;" horiz-adv-x="552" 
d="M295 870l70 -58l92 56l54 -66l-166 -98l-121 103zM37 253q0 46 7 95t22.5 96.5t39.5 90t57.5 74.5t77 51t97.5 19q82 0 132 -44.5t73 -120.5l-180 -64q0 11 -2 22.5t-6.5 22t-13 17t-22.5 6.5q-20 0 -34 -12.5t-23.5 -30.5t-15 -38t-9.5 -35q-10 -40 -15.5 -80t-5.5 -81
q0 -14 1.5 -30t6.5 -30t15.5 -23.5t29.5 -9.5q18 0 31 9.5t21.5 24t13.5 31.5t7 32h-65l17 140h247q-4 -43 -12 -89.5t-21.5 -90.5t-34.5 -83.5t-51.5 -69t-72 -47t-96.5 -17.5q-59 0 -100.5 21.5t-67 58.5t-37 85t-11.5 100z" />
    <glyph glyph-name="gcaron" unicode="&#x1e7;" horiz-adv-x="485" 
d="M148 629l71 61l64 -65l87 65l55 -67l-159 -112zM173 -46q0 -16 7 -27t24 -11q14 0 23 6t14 15.5t7.5 21.5t3.5 23q5 35 9 72q-21 -26 -50 -43.5t-64 -17.5t-59 17.5t-38.5 44t-20.5 58.5t-6 61q0 62 15 122q8 29 22 61t35 58.5t48.5 44t62.5 17.5q33 0 55.5 -22.5
t37.5 -48.5l4 61h172l-59 -479q-5 -36 -15 -68t-34 -60q-34 -39 -83 -57t-100 -18q-88 0 -135.5 38.5t-49.5 130.5h174zM202 199q0 -7 1 -18t4 -21t9 -17t16 -7q17 0 27 18t15.5 41.5t7.5 47.5t2 36q0 7 -0.5 17t-3 19t-8 15t-15.5 6q-17 0 -28 -17t-17 -39.5t-8 -45.5
t-2 -35z" />
    <glyph glyph-name="AEacute" unicode="&#x1fc;" horiz-adv-x="606" 
d="M287 720l65 148h138l-105 -148h-98zM-28 0l234 667h424l-19 -157h-177l3 -97h148l-18 -151h-122l4 -102h119l-20 -160h-252l-2 85h-114l-24 -85h-184zM293 223q-1 46 -1.5 91.5t-0.5 92.5q0 25 0.5 49.5t1.5 49.5q-16 -72 -35 -142t-39 -141h74z" />
    <glyph glyph-name="aeacute" unicode="&#x1fd;" horiz-adv-x="724" 
d="M346 530l65 148h138l-105 -148h-98zM172 -10q-32 0 -60.5 9.5t-49.5 27.5t-33.5 44t-12.5 60q0 41 14.5 72.5t40 53t59 33t72.5 11.5q22 0 43.5 -2.5t42.5 -7.5q0 18 -7.5 29t-19.5 17.5t-26.5 8.5t-29.5 2q-32 0 -60 -6.5t-57 -20.5l17 135q35 9 70 15t70 6
q40 0 72.5 -8.5t62.5 -37.5q32 22 65 34t73 12q45 0 79.5 -15.5t57.5 -42.5t34.5 -63.5t11.5 -79.5q0 -20 -2.5 -39t-5.5 -39h-252v-4l-1 -9q0 -9 1 -21t5 -22t11 -17t20 -7q16 0 26.5 11t16.5 24l161 -3q-15 -40 -34 -70t-56 -54q-32 -20 -65 -28t-70 -8q-39 0 -70 11
t-60 37q-34 -22 -73.5 -35t-80.5 -13zM503 356q-13 0 -21.5 -6.5t-14 -16t-9 -21t-5.5 -21.5h86q0 9 -1 20.5t-4.5 21t-11 16.5t-19.5 7zM182 144q0 -19 12 -27t29 -8q21 0 35.5 12.5t14.5 34.5q0 18 -12 26.5t-29 8.5q-20 0 -35 -13.5t-15 -33.5z" />
    <glyph glyph-name="uni0218" unicode="&#x218;" horiz-adv-x="398" 
d="M32 226q17 -29 43 -51t61 -22q22 0 40 13t18 37q0 15 -10 28t-25.5 26.5t-33.5 29.5t-33.5 36.5t-25.5 47.5t-10 63q0 46 18 90t48.5 78.5t72 55.5t89.5 21q33 0 64 -9t60 -25l-25 -204q-14 27 -38.5 50t-56.5 23q-18 0 -35.5 -12t-17.5 -32q0 -15 10.5 -27.5t26 -26
t33.5 -29t33.5 -35.5t26 -46t10.5 -60q0 -51 -18 -98t-50 -82.5t-76.5 -56.5t-97.5 -21q-33 0 -65 7.5t-62 21.5zM31 -233l50 188h146l-94 -188h-102z" />
    <glyph glyph-name="uni0219" unicode="&#x219;" horiz-adv-x="389" 
d="M78 168q14 -17 35 -33t44 -16q12 0 24 6.5t12 20.5q0 16 -14 22.5t-26 11.5q-21 8 -40 18t-33 24t-22.5 33t-8.5 44q0 41 18.5 74t48 56t67 35.5t75.5 12.5q37 0 68.5 -10t63.5 -28l-74 -127q-12 14 -28.5 27.5t-36.5 13.5q-11 0 -20.5 -6.5t-9.5 -18.5q0 -13 10.5 -21.5
t26.5 -15.5t34 -15t34 -21t26.5 -33t10.5 -51q0 -41 -17.5 -74.5t-46 -57t-65 -36.5t-75.5 -13q-48 0 -83 12.5t-76 36.5zM46 -234l50 188h146l-94 -188h-102z" />
    <glyph glyph-name="uni021A" unicode="&#x21a;" horiz-adv-x="377" 
d="M54 667h373l-20 -160h-98l-62 -507h-177l62 507h-98zM81 -45h146l-94 -188h-102z" />
    <glyph glyph-name="uni021B" unicode="&#x21b;" horiz-adv-x="297" 
d="M43 467h49l17 137h171l-17 -137h56l-17 -140h-56l-41 -327h-170l40 327h-49zM-4 -234l50 188h146l-94 -188h-102z" />
    <glyph glyph-name="uni0228" unicode="&#x228;" horiz-adv-x="405" 
d="M410 510h-152l-12 -97h137l-19 -151h-136l-13 -102h152l-19 -160h-330l82 667h330zM144 -237l-77 53l107 137l96 -66z" />
    <glyph glyph-name="uni0229" unicode="&#x229;" horiz-adv-x="474" 
d="M23 181q0 54 16.5 107t48 94.5t78 67.5t105.5 26q45 0 79 -15.5t56.5 -42.5t33.5 -63.5t11 -78.5q0 -20 -2.5 -39.5t-5.5 -39.5h-250q-1 -5 -1 -9.5v-9.5q0 -8 1 -17.5t4 -17.5t9.5 -13t17.5 -5q15 0 26 9.5t16 22.5h166q-26 -80 -83.5 -123.5t-141.5 -43.5
q-91 0 -137.5 51.5t-46.5 139.5zM286 290v3l1 6q0 17 -6.5 33.5t-27.5 16.5q-22 0 -33 -20t-13 -39h79zM190 -47l95 -59l-126 -117l-71 54z" />
    <glyph glyph-name="uni0237" unicode="&#x237;" horiz-adv-x="251" 
d="M157 -215h-170l82 682h172z" />
    <glyph glyph-name="uni0259" unicode="&#x259;" horiz-adv-x="482" 
d="M213 -10q-49 0 -84.5 16.5t-58.5 45t-34.5 68t-11.5 85.5q0 17 2.5 33.5t4.5 30.5h254q1 6 1 14t-0.5 16.5t-3.5 16.5t-8 14q-7 8 -15 9.5t-13 1.5q-34 0 -45 -33l-154 38q32 64 88.5 97.5t127.5 33.5q95 0 145 -54.5t50 -148.5q0 -65 -21 -125.5t-63 -100.5
q-38 -36 -78.5 -47t-82.5 -11zM191 176q-1 -14 1 -28t10 -22q3 -3 9 -6t15 -3q11 0 19 6t13.5 14.5t9 19t4.5 19.5h-81z" />
    <glyph glyph-name="uni02BC" unicode="&#x2bc;" horiz-adv-x="246" 
d="M167 446h-104l58 221h146z" />
    <glyph glyph-name="circumflex" unicode="&#x2c6;" 
d="M427 573l-64 -63l-65 66l-90 -70l-53 67l156 117z" />
    <glyph glyph-name="caron" unicode="&#x2c7;" 
d="M281 511l-118 118l71 61l64 -65l87 65l55 -67z" />
    <glyph glyph-name="uni02C9" unicode="&#x2c9;" 
d="M457 553h-335l12 94h335z" />
    <glyph glyph-name="breve" unicode="&#x2d8;" 
d="M146 669h69q9 -34 29.5 -43.5t52.5 -9.5q35 0 57 10.5t39 42.5h69q-14 -67 -60 -107.5t-116 -40.5q-30 0 -55.5 9t-44 26t-29.5 41t-11 55v17z" />
    <glyph glyph-name="dotaccent" unicode="&#x2d9;" 
d="M288 530q-29 0 -48 19t-19 48q0 34 25 59t59 25q35 0 51 -21.5t16 -53.5q0 -5 -2 -11t-4 -10q-9 -24 -30.5 -39.5t-47.5 -15.5z" />
    <glyph glyph-name="ring" unicode="&#x2da;" horiz-adv-x="503" 
d="M299 523q-40 0 -68 28t-28 68t28 68t68 28t68 -28t28 -68t-28 -68t-68 -28zM299 656q-16 0 -26.5 -10.5t-10.5 -26.5t10.5 -26.5t26.5 -10.5t26.5 10.5t10.5 26.5t-10.5 26.5t-26.5 10.5z" />
    <glyph glyph-name="ogonek" unicode="&#x2db;" 
d="M318 -171q-17 0 -33.5 4t-29.5 13t-21 23t-8 33q0 28 18.5 53.5t37.5 44.5h60q-3 -5 -9 -12.5t-12 -18.5q-5 -8 -9 -17t-4 -20q0 -16 11.5 -23t25.5 -7q17 0 33 6l-16 -70q-19 -9 -44 -9z" />
    <glyph glyph-name="tilde" unicode="&#x2dc;" 
d="M120 530q3 24 10.5 47.5t21.5 42.5t34.5 30.5t48.5 11.5q19 0 34.5 -5t29 -11.5t26.5 -11.5t26 -5q17 0 23.5 11t8.5 25h88q-2 -25 -10.5 -49t-23.5 -43t-36 -30t-50 -11q-18 0 -33 5t-28.5 11.5t-25.5 11.5t-24 5q-16 0 -22.5 -10.5t-8.5 -24.5h-89z" />
    <glyph glyph-name="hungarumlaut" unicode="&#x2dd;" 
d="M388 678h128l-105 -148h-88zM159 530l65 148h127l-104 -148h-88z" />
    <glyph glyph-name="acutecomb" unicode="&#x301;" horiz-adv-x="2" 
d="M-174 530h-98l65 148h138z" />
    <glyph glyph-name="uni0394" unicode="&#x394;" horiz-adv-x="667" 
d="M-12 0l245 667h141l248 -667h-634zM304 508l-130 -390h260z" />
    <glyph glyph-name="uni0394" unicode="&#x2206;" horiz-adv-x="667" 
d="M-12 0l245 667h141l248 -667h-634zM304 508l-130 -390h260z" />
    <glyph glyph-name="uni03A9" unicode="&#x3a9;" horiz-adv-x="667" 
d="M159 117q-73 45 -104.5 104.5t-31.5 144.5q0 66 22 124t62.5 101t96.5 67.5t124 24.5t124 -24.5t96.5 -67.5t62.5 -101t22 -124q0 -85 -32 -145.5t-104 -103.5h136v-117h-270v104q74 40 104 103.5t30 144.5q0 38 -10 76t-31 69t-53 50t-75 19t-75 -19t-53 -50t-31 -69
t-10 -76q0 -81 30.5 -145t104.5 -103v-104h-271v117h136z" />
    <glyph glyph-name="uni03A9" unicode="&#x2126;" horiz-adv-x="667" 
d="M159 117q-73 45 -104.5 104.5t-31.5 144.5q0 66 22 124t62.5 101t96.5 67.5t124 24.5t124 -24.5t96.5 -67.5t62.5 -101t22 -124q0 -85 -32 -145.5t-104 -103.5h136v-117h-270v104q74 40 104 103.5t30 144.5q0 38 -10 76t-31 69t-53 50t-75 19t-75 -19t-53 -50t-31 -69
t-10 -76q0 -81 30.5 -145t104.5 -103v-104h-271v117h136z" />
    <glyph glyph-name="pi" unicode="&#x3c0;" horiz-adv-x="708" 
d="M40 327v140h632v-140h-76v-327h-172v327h-135v-327h-172v327h-77z" />
    <glyph glyph-name="uni0401" unicode="&#x401;" horiz-adv-x="410" 
d="M110 777q0 16 6.5 30.5t18 25.5t26 17.5t30.5 6.5q32 0 47.5 -21t15.5 -51q0 -14 -7.5 -27t-19.5 -23t-26 -16t-27 -6q-28 0 -46 18t-18 46zM295 777q0 16 6.5 30.5t17.5 25.5t25.5 17.5t30.5 6.5q28 0 46 -18t18 -46q0 -16 -6.5 -30.5t-18 -25.5t-26 -17.5t-30.5 -6.5
q-27 0 -45 18.5t-18 45.5zM18 0l82 667h330l-20 -157h-152l-12 -97h137l-19 -151h-136l-13 -102h152l-19 -160h-330z" />
    <glyph glyph-name="uni0402" unicode="&#x402;" horiz-adv-x="581" 
d="M40 507l20 160h429l-20 -160h-154l-8 -65q-2 -20 -4.5 -33t-8.5 -31q35 21 62.5 27t46.5 6q40 0 69 -15.5t47.5 -41.5t27.5 -59.5t9 -69.5q0 -61 -19.5 -114.5t-51.5 -83.5q-31 -29 -65 -36t-58 -7q-39 0 -74 14l31 142q11 -9 24 -9q11 0 18.5 7.5t11.5 18t5.5 22.5
t1.5 20q0 20 -9.5 39t-32.5 19q-14 0 -28 -5t-28 -12l-29 -240h-177l63 507h-99z" />
    <glyph glyph-name="uni0403" unicode="&#x403;" horiz-adv-x="382" 
d="M302 720h-98l65 148h138zM394 510h-136l-63 -510h-177l82 667h313z" />
    <glyph glyph-name="uni0404" unicode="&#x404;" horiz-adv-x="485" 
d="M38 271q0 42 7.5 87.5t22.5 89t38.5 83t54.5 69.5q45 43 96 61t111 18q49 0 80.5 -10.5t51.5 -21.5l-23 -189q-20 26 -44 40t-58 14q-48 0 -80.5 -27t-47.5 -72h164l-20 -149h-165q2 -47 30.5 -75.5t75.5 -28.5q69 0 114 50l-32 -189q-35 -20 -68 -26.5t-62 -6.5
q-63 0 -109.5 22t-77 60.5t-45 90t-14.5 110.5z" />
    <glyph glyph-name="uni0405" unicode="&#x405;" horiz-adv-x="398" 
d="M32 226q17 -29 43 -51t61 -22q22 0 40 13t18 37q0 15 -10 28t-25.5 26.5t-33.5 29.5t-33.5 36.5t-25.5 47.5t-10 63q0 46 18 90t48.5 78.5t72 55.5t89.5 21q33 0 64 -9t60 -25l-25 -204q-14 27 -38.5 50t-56.5 23q-18 0 -35.5 -12t-17.5 -32q0 -15 10.5 -27.5t26 -26
t33.5 -29t33.5 -35.5t26 -46t10.5 -60q0 -51 -18 -98t-50 -82.5t-76.5 -56.5t-97.5 -21q-33 0 -65 7.5t-62 21.5z" />
    <glyph glyph-name="uni0406" unicode="&#x406;" horiz-adv-x="269" 
d="M195 0h-177l82 667h177z" />
    <glyph glyph-name="uni0407" unicode="&#x407;" horiz-adv-x="269" 
d="M216 784q0 32 16.5 56t39.5 24q20 0 32.5 -18t12.5 -46q0 -32 -17 -56t-40 -24q-19 0 -31.5 18.5t-12.5 45.5zM128 720q-20 0 -32.5 18t-12.5 46q0 16 4.5 30.5t12.5 25.5t18.5 17.5t21.5 6.5q23 0 33.5 -21t10.5 -51q0 -10 -5 -22.5t-12.5 -23.5t-17.5 -18.5t-21 -7.5z
M100 667h177l-82 -667h-177z" />
    <glyph glyph-name="uni0408" unicode="&#x408;" horiz-adv-x="349" 
d="M86 -12q-30 0 -57 5.5t-56 16.5l23 186q11 -17 27.5 -28t38.5 -11q18 0 29.5 7t19 19t11 26.5t5.5 29.5l52 428h178l-57 -463q-5 -34 -11.5 -65t-25.5 -60q-31 -48 -76 -69.5t-101 -21.5z" />
    <glyph glyph-name="uni0409" unicode="&#x409;" horiz-adv-x="803" 
d="M52 -11q-21 0 -37.5 1.5t-34.5 6.5l22 178q5 -5 14 -10.5t23 -5.5q23 0 36.5 11t21 27.5t11 36t5.5 37.5l49 396h421l-30 -245h9q47 0 88 -10t71.5 -32.5t48.5 -58.5t18 -87q0 -49 -17 -93t-48 -75q-22 -22 -46.5 -35t-50 -20t-51 -9t-48.5 -2h-201l62 503h-80l-27 -221
q-7 -57 -18 -109.5t-35.5 -93.5t-66 -65.5t-109.5 -24.5zM519 145q4 -1 12 -1q35 0 57 20.5t22 55.5q0 29 -18 44t-46 15q-7 0 -11 -1z" />
    <glyph glyph-name="uni040A" unicode="&#x40a;" horiz-adv-x="758" 
d="M18 0l82 667h177l-30 -245h86l30 245h175l-30 -245h9q47 0 88 -10t71.5 -32.5t48.5 -58.5t18 -87q0 -49 -17 -93t-48 -75q-22 -22 -46.5 -35t-50 -20t-51 -9t-48.5 -2h-201l33 278h-86l-33 -278h-177zM474 145q4 -1 12 -1q35 0 57 20.5t22 55.5q0 29 -18 44t-46 15
q-7 0 -11 -1z" />
    <glyph glyph-name="uni040B" unicode="&#x40b;" horiz-adv-x="569" 
d="M40 507l20 160h429l-20 -160h-154l-15 -107q23 8 44.5 11.5t45.5 3.5q69 0 111.5 -37t42.5 -109q0 -18 -2.5 -36.5t-4.5 -39.5l-23 -193h-176l20 158q2 20 3.5 31t1.5 19q0 21 -9 34t-32 13q-11 0 -21.5 -3t-18.5 -8l-30 -244h-177l64 507h-99z" />
    <glyph glyph-name="uni040C" unicode="&#x40c;" horiz-adv-x="533" 
d="M269 720l65 148h138l-105 -148h-98zM18 0l82 667h177l-40 -298l140 298h187l-181 -322l117 -345h-191l-79 319l-35 -319h-177z" />
    <glyph glyph-name="uni040E" unicode="&#x40e;" 
d="M245 874q4 -28 21.5 -42t45.5 -14q56 0 65 56l125 -37q-9 -36 -27.5 -60t-44 -38.5t-56.5 -21t-65 -6.5q-33 0 -64 6.5t-56 21t-43.5 38.5t-27.5 59zM54 667h184l23 -109q8 -38 12 -72t5 -69q11 38 22.5 73t26.5 73l41 104h186l-318 -667h-177l108 230z" />
    <glyph glyph-name="uni040F" unicode="&#x40f;" horiz-adv-x="530" 
d="M100 667h177l-62 -504h84l62 504h177l-82 -667h-139l-16 -130h-160l16 130h-139z" />
    <glyph glyph-name="uni0410" unicode="&#x410;" horiz-adv-x="524" 
d="M-23 0l240 667h217l57 -667h-183l-3 85h-119l-25 -85h-184zM302 227q-1 20 -1.5 39t-0.5 39v87q0 29 1 57.5t2 57.5q-6 -23 -11 -47t-12 -47q-14 -47 -26.5 -93t-26.5 -93h75z" />
    <glyph glyph-name="uni0411" unicode="&#x411;" horiz-adv-x="491" 
d="M18 0l82 667h367l-19 -157h-190l-13 -104h10q45 0 85 -8.5t70 -29t48 -54.5t18 -84q0 -57 -19 -100.5t-53 -72t-80.5 -43t-101.5 -14.5h-204zM213 145q4 -1 13 -1q34 0 53 21.5t19 54.5q0 26 -15.5 39.5t-41.5 13.5q-5 0 -8 -0.5t-5 -0.5z" />
    <glyph glyph-name="uni0412" unicode="&#x412;" horiz-adv-x="522" 
d="M100 667h206q42 0 79 -8t65.5 -27t45 -50.5t16.5 -79.5q0 -67 -35.5 -110.5t-104.5 -49.5q59 -8 88 -36.5t29 -90.5q0 -48 -17.5 -87.5t-47.5 -68t-70.5 -44t-87.5 -15.5h-248zM245 408q4 -1 12 -1q31 0 54 16.5t23 49.5q0 27 -15.5 38.5t-40.5 11.5h-9.5t-9.5 -1z
M213 145q5 -1 15 -1q33 0 57.5 19.5t24.5 54.5q0 32 -21.5 43.5t-49.5 11.5l-6 -1h-4z" />
    <glyph glyph-name="uni0413" unicode="&#x413;" horiz-adv-x="382" 
d="M394 510h-136l-63 -510h-177l82 667h313z" />
    <glyph glyph-name="uni0414" unicode="&#x414;" horiz-adv-x="583" 
d="M-30 -130l36 288q31 7 50 24.5t30 41t16.5 51.5t8.5 55l41 337h411l-63 -509h56l-35 -288h-152l16 130h-247l-16 -130h-152zM327 158l43 351h-73l-21 -169q-7 -61 -15 -89.5t-14 -41.5q-7 -14 -17.5 -27t-25.5 -24h123z" />
    <glyph glyph-name="uni0415" unicode="&#x415;" horiz-adv-x="405" 
d="M410 510h-152l-12 -97h137l-19 -151h-136l-13 -102h152l-19 -160h-330l82 667h330z" />
    <glyph glyph-name="uni0416" unicode="&#x416;" horiz-adv-x="777" 
d="M162 349l-98 318h180l69 -300l31 300h170l-42 -300l142 300h178l-176 -324l93 -343h-182l-61 321l-34 -321h-170l45 321l-140 -321h-182z" />
    <glyph glyph-name="uni0417" unicode="&#x417;" horiz-adv-x="452" 
d="M45 232q20 -33 48.5 -56.5t69.5 -23.5q29 0 49.5 14t20.5 45q0 17 -7.5 28t-19.5 17t-26.5 8t-28.5 2h-26l17 148h24q14 0 29.5 1.5t29.5 7t23 16t9 28.5q0 14 -7 23.5t-18 15.5t-23.5 8.5t-24.5 2.5q-35 0 -63 -20t-51 -44l24 190q39 23 74.5 29.5t64.5 6.5q44 0 82 -11
t66 -33t44.5 -56t16.5 -81q0 -66 -35 -108t-101 -51q56 0 88 -36t32 -90q0 -44 -18 -88t-51 -75q-34 -32 -81 -47t-99 -15q-35 0 -73 9.5t-84 33.5z" />
    <glyph glyph-name="uni0418" unicode="&#x418;" horiz-adv-x="557" 
d="M100 667h170l-23 -185q-11 -87 -25 -142.5t-22 -82.5q21 50 45.5 101.5t46.5 93.5l115 215h158l-82 -667h-170l22 178q5 38 14.5 97t22.5 117q-8 -24 -17 -45.5t-19 -44t-22.5 -47t-28.5 -53.5l-109 -202h-158z" />
    <glyph glyph-name="uni0419" unicode="&#x419;" horiz-adv-x="557" 
d="M285 874q4 -28 21.5 -42t45.5 -14q56 0 65 56l125 -37q-9 -36 -27.5 -60t-44 -38.5t-56.5 -21t-65 -6.5q-33 0 -64 6.5t-56 21t-43.5 38.5t-27.5 59zM18 0l82 667h170l-23 -185q-11 -87 -25 -142.5t-22 -82.5q21 50 45.5 101.5t46.5 93.5l115 215h158l-82 -667h-170
l22 178q5 38 14.5 97t22.5 117q-8 -24 -17 -45.5t-19 -44t-22.5 -47t-28.5 -53.5l-109 -202h-158z" />
    <glyph glyph-name="uni041A" unicode="&#x41a;" horiz-adv-x="533" 
d="M100 667h177l-40 -298l140 298h187l-181 -322l117 -345h-191l-79 319l-35 -319h-177z" />
    <glyph glyph-name="uni041B" unicode="&#x41b;" horiz-adv-x="580" 
d="M2 175q5 -5 14 -10.5t23 -5.5q23 0 36.5 11t21 27.5t11 36t5.5 37.5l49 396h426l-82 -667h-180l62 503h-80l-27 -221q-7 -57 -18 -109.5t-35.5 -93.5t-66 -65.5t-109.5 -24.5q-21 0 -37.5 1.5t-34.5 6.5z" />
    <glyph glyph-name="uni041C" unicode="&#x41c;" horiz-adv-x="755" 
d="M160 667h221l9 -225q1 -13 1.5 -25t0.5 -25q0 -20 -1 -40l-2 -40q20 91 48 178.5t56 176.5h219l-18 -667h-185q8 107 17 212.5t18 212.5q-27 -108 -60 -213.5t-66 -211.5h-145l-11 321v8l-1 18q0 20 0.5 39t1.5 39q-14 -107 -33 -213l-38 -212h-190z" />
    <glyph glyph-name="uni041D" unicode="&#x41d;" horiz-adv-x="531" 
d="M100 667h177l-29 -236h85l29 236h177l-82 -667h-177l33 268h-85l-33 -268h-177z" />
    <glyph glyph-name="uni041E" unicode="&#x41e;" horiz-adv-x="558" 
d="M108 50q-24 24 -37.5 51t-21 55t-9.5 55t-2 52q0 62 10 114.5t27 95t39.5 75.5t46.5 57q24 23 48 37.5t46.5 22.5t43.5 11t38 3q56 0 96 -22.5t65 -60t36.5 -85t11.5 -97.5q0 -43 -7 -91.5t-22 -96t-38.5 -90.5t-55.5 -76t-74 -52.5t-95 -19.5q-32 0 -71.5 12.5
t-74.5 49.5zM315 511q-18 0 -32.5 -15t-24.5 -38.5t-17 -52.5t-11 -56.5t-6 -50.5t-2 -36q0 -12 1 -29.5t5.5 -34.5t14.5 -29t27 -12q19 0 33 15t24 38.5t17 52t11 56t5.5 51t1.5 36.5q0 26 -2.5 43t-5.5 28t-7 16.5t-7 8.5q-10 9 -25 9z" />
    <glyph glyph-name="uni041F" unicode="&#x41f;" horiz-adv-x="531" 
d="M100 667h439l-82 -667h-177l62 504h-85l-62 -504h-177z" />
    <glyph glyph-name="uni0420" unicode="&#x420;" horiz-adv-x="498" 
d="M18 0l82 667h172q50 0 93 -9t75.5 -31t51 -59.5t18.5 -93.5q0 -51 -18.5 -102t-54.5 -88t-82.5 -52t-97.5 -15q-9 0 -17.5 0.5t-17.5 1.5l-27 -219h-177zM250 368q37 0 58 26t21 61q0 27 -14 46.5t-43 19.5h-13l-18 -153h9z" />
    <glyph glyph-name="uni0421" unicode="&#x421;" horiz-adv-x="438" 
d="M38 260q0 75 20.5 150t62 134.5t104.5 97t148 37.5q27 0 45 -3t43 -14l-23 -190q-17 19 -34 29.5t-43 10.5q-40 0 -67 -23t-43 -56.5t-23 -72.5t-7 -71q0 -24 4.5 -46.5t15.5 -40.5t29 -29t46 -11q29 0 52.5 12.5t44.5 30.5l-34 -193q-29 -12 -53 -18t-56 -6
q-60 0 -103.5 22t-72 59.5t-42.5 87t-14 103.5z" />
    <glyph glyph-name="uni0422" unicode="&#x422;" horiz-adv-x="377" 
d="M54 667h373l-20 -160h-98l-62 -507h-177l62 507h-98z" />
    <glyph glyph-name="uni0423" unicode="&#x423;" 
d="M54 667h184l23 -109q8 -38 12 -72t5 -69q11 38 22.5 73t26.5 73l41 104h186l-318 -667h-177l108 230z" />
    <glyph glyph-name="uni0424" unicode="&#x424;" horiz-adv-x="703" 
d="M38 322q0 63 18.5 115.5t53 91.5t85 62t113.5 27l10 86h176l-10 -86q49 -6 87.5 -26t65 -51t40.5 -72t14 -90q0 -63 -19 -114t-54.5 -88.5t-86 -59.5t-112.5 -27l-11 -90h-176l11 90q-43 5 -78.5 22t-61.5 41q-41 38 -53 83t-12 86zM425 246q27 1 46 11.5t31 28t17.5 40
t5.5 46.5q0 37 -18 62t-56 29zM204 340q0 -36 17.5 -62t54.5 -33l27 218q-25 -1 -44 -11.5t-31 -27.5t-18 -39t-6 -45z" />
    <glyph glyph-name="uni0425" unicode="&#x425;" horiz-adv-x="509" 
d="M-28 0l202 346l-111 321h197q2 -7 3 -13.5t2 -14.5l12 -54q2 -17 6 -38t8 -38q13 41 29 80t33 78h199l-190 -321l119 -346h-197q-8 31 -13.5 62t-12.5 62q-3 14 -5.5 27.5t-4.5 27.5q-19 -46 -40 -90t-43 -89h-193z" />
    <glyph glyph-name="uni0426" unicode="&#x426;" horiz-adv-x="558" 
d="M18 0l82 667h177l-62 -504h82l62 504h177l-62 -504h70l-37 -293h-160l17 130h-346z" />
    <glyph glyph-name="uni0427" unicode="&#x427;" horiz-adv-x="521" 
d="M224 258q-34 0 -64 9t-52 27t-35 45t-13 64q0 7 0.5 17t1.5 21t2 20.5t2 15.5l24 190h176l-22 -178q-2 -14 -2.5 -20t-0.5 -10q0 -22 14 -32.5t34 -10.5q6 0 14.5 1t18.5 6l30 244h177l-82 -667h-177l33 269q-21 -6 -40 -8.5t-39 -2.5z" />
    <glyph glyph-name="uni0428" unicode="&#x428;" horiz-adv-x="780" 
d="M100 667h176l-62 -504h80l62 504h176l-62 -504h80l62 504h176l-82 -667h-688z" />
    <glyph glyph-name="uni0429" unicode="&#x429;" horiz-adv-x="820" 
d="M102 667h176l-62 -504h80l62 504h176l-62 -504h80l62 504h176l-62 -504h78l-37 -293h-160l17 130h-606z" />
    <glyph glyph-name="uni042A" unicode="&#x42a;" horiz-adv-x="555" 
d="M55 507l20 160h260l-30 -245h9q47 0 88 -10t71.5 -32.5t48.5 -58.5t18 -87q0 -49 -17 -93t-48 -75q-22 -22 -46.5 -35t-50 -20t-51 -9t-48.5 -2h-203l62 507h-83zM271 145q4 -1 12 -1q35 0 57 20.5t22 55.5q0 29 -18 44t-46 15q-7 0 -11 -1z" />
    <glyph glyph-name="uni042B" unicode="&#x42b;" horiz-adv-x="751" 
d="M100 667h177l-30 -245h8q46 0 87 -10t72 -32.5t49 -57.5t18 -86t-17.5 -95.5t-47.5 -74.5q-22 -22 -46.5 -35t-50 -20t-51 -9t-48.5 -2h-202zM576 667h183l-85 -667h-177zM213 145q4 -1 12 -1q35 0 57 20.5t22 55.5q0 29 -18 44t-46 15q-7 0 -11 -1z" />
    <glyph glyph-name="uni042C" unicode="&#x42c;" horiz-adv-x="497" 
d="M18 0l82 667h177l-30 -245h9q47 0 88 -10t71.5 -32.5t48.5 -58.5t18 -87q0 -49 -17 -93t-48 -75q-22 -22 -46.5 -35t-50 -20t-51 -9t-48.5 -2h-203zM213 145q4 -1 12 -1q35 0 57 20.5t22 55.5q0 29 -18 44t-46 15q-7 0 -11 -1z" />
    <glyph glyph-name="uni042D" unicode="&#x42d;" horiz-adv-x="496" 
d="M51 222q18 -29 46.5 -46.5t62.5 -17.5q47 0 78 29t39 74h-151l19 151h150q-8 47 -36 73.5t-76 26.5q-32 0 -58 -14t-47 -37l24 188q32 17 60.5 23.5t56.5 6.5q67 0 116.5 -23t82.5 -63.5t49.5 -95t16.5 -117.5q0 -39 -6.5 -82.5t-21.5 -86.5t-38.5 -83t-56.5 -71
q-38 -35 -81.5 -52t-101.5 -17q-43 0 -72.5 10.5t-65.5 30.5z" />
    <glyph glyph-name="uni042E" unicode="&#x42e;" horiz-adv-x="810" 
d="M18 0l82 667h177l-30 -242h69q11 50 34 96t57.5 81t79.5 56t100 21q57 0 97 -22.5t65.5 -59t37 -84.5t11.5 -99q0 -43 -6.5 -91.5t-21.5 -96t-38.5 -91t-58.5 -78.5q-37 -37 -77.5 -53t-94.5 -16q-60 0 -100 24t-64 63.5t-33.5 90t-9.5 102.5h-66l-33 -268h-177zM474 262
q0 -12 1 -29.5t5.5 -34.5t14.5 -29t27 -12q19 0 33 15t24 38.5t17 52t11 56t5.5 51t1.5 36.5q0 26 -2.5 43t-5.5 28t-7 16.5t-7 8.5q-10 9 -25 9q-18 0 -32.5 -15t-24.5 -38.5t-17 -52.5t-11 -56.5t-6 -50.5t-2 -36z" />
    <glyph glyph-name="uni042F" unicode="&#x42f;" horiz-adv-x="541" 
d="M0 0l155 269q-49 23 -70 61t-21 91q0 57 18 100.5t45 71.5q44 44 109 59t141 15h172l-82 -667h-177l19 147q2 17 3.5 29.5t3.5 25.5t4.5 28.5t6.5 36.5l-128 -267h-199zM255 427q0 -32 20.5 -50.5t52.5 -18.5h6l19 159q-3 0 -6.5 0.5t-7.5 0.5q-39 0 -61.5 -26.5
t-22.5 -64.5z" />
    <glyph glyph-name="uni0430" unicode="&#x430;" horiz-adv-x="489" 
d="M23 167q0 28 3.5 61.5t12 68t22 67t33.5 57.5t46.5 40.5t61.5 15.5q43 0 64 -24t35 -60q0 5 0.5 9.5t0.5 9.5l2 36q0 5 0.5 9.5t0.5 9.5h174l-57 -467h-171l15 79q-23 -38 -53 -63.5t-77 -25.5q-34 0 -56 17.5t-35 43.5t-17.5 57.5t-4.5 58.5zM195 188q0 -8 1 -17.5
t4 -18t9 -14t17 -5.5q18 0 29 19.5t17 45.5t8 51.5t2 38.5q0 14 -4.5 30t-23.5 16q-18 0 -29.5 -18t-18 -42t-9 -48.5t-2.5 -37.5z" />
    <glyph glyph-name="uni0431" unicode="&#x431;" horiz-adv-x="503" 
d="M40 224q0 59 8.5 110.5t21.5 100.5q15 56 35 97.5t49 71.5t70 50.5t98 34.5q12 3 25.5 7.5t25 11t19.5 17t10 25.5h131q-2 -32 -14.5 -68t-35.5 -63q-23 -28 -51.5 -41t-55.5 -21l-38 -11q-31 -9 -57 -20.5t-45.5 -29t-32 -42.5t-16.5 -60q40 83 128 83q42 0 71.5 -16
t48.5 -43t28 -62t9 -73q0 -24 -3.5 -55t-13 -63.5t-26 -63.5t-41.5 -55q-39 -37 -80 -46.5t-79 -9.5q-72 0 -113 32t-58.5 84t-17.5 118zM206 195q0 -9 1 -21.5t5 -24.5t11.5 -20t19.5 -8q18 0 30.5 19t20 44.5t10.5 51t3 37.5q0 9 -1.5 21.5t-5 24t-11 19.5t-19.5 8
q-18 0 -30.5 -19t-20 -44t-10.5 -50.5t-3 -37.5z" />
    <glyph glyph-name="uni0432" unicode="&#x432;" horiz-adv-x="476" 
d="M68 467h200q33 0 66 -4t59.5 -16.5t42.5 -37t16 -65.5q0 -50 -30 -77t-79 -27v-2q45 0 72 -22t27 -69q0 -39 -14.5 -67t-39.5 -46t-57.5 -26t-68.5 -8h-251zM216 280h7q24 0 44.5 8.5t20.5 37.5q0 20 -15 26.5t-32 6.5h-15zM195 108h6q12 0 24 1.5t21.5 6.5t15.5 14t6 24
q0 12 -5 19.5t-13 11t-18 4.5t-19 1h-8z" />
    <glyph glyph-name="uni0433" unicode="&#x433;" horiz-adv-x="364" 
d="M223 327l-40 -327h-172l57 467h300l-17 -140h-128z" />
    <glyph glyph-name="uni0434" unicode="&#x434;" horiz-adv-x="533" 
d="M-30 -115l31 251q30 6 48 21.5t28.5 37.5t15.5 47.5t8 52.5l21 172h378l-40 -331h53l-32 -251h-138l15 115h-236l-14 -115h-138zM247 252q-5 -35 -15 -64.5t-40 -51.5h102l24 195h-61z" />
    <glyph glyph-name="uni0435" unicode="&#x435;" horiz-adv-x="474" 
d="M23 181q0 54 16.5 107t48 94.5t78 67.5t105.5 26q45 0 79 -15.5t56.5 -42.5t33.5 -63.5t11 -78.5q0 -20 -2.5 -39.5t-5.5 -39.5h-250q-1 -5 -1 -9.5v-9.5q0 -8 1 -17.5t4 -17.5t9.5 -13t17.5 -5q15 0 26 9.5t16 22.5h166q-26 -80 -83.5 -123.5t-141.5 -43.5
q-91 0 -137.5 51.5t-46.5 139.5zM286 290v3l1 6q0 17 -6.5 33.5t-27.5 16.5q-22 0 -33 -20t-13 -39h79z" />
    <glyph glyph-name="uni0436" unicode="&#x436;" horiz-adv-x="723" 
d="M128 239l-79 228h178l30 -104q4 -14 11.5 -45t14.5 -73l27 222h168l-27 -222q8 20 15.5 36t14 30t13 26.5t13.5 25.5l54 104h180l-137 -228l82 -239h-187l-26 96q-8 31 -14 58.5t-11 61.5l-27 -216h-168l27 216q-14 -33 -27.5 -63t-27.5 -57l-50 -96h-192z" />
    <glyph glyph-name="uni0437" unicode="&#x437;" horiz-adv-x="435" 
d="M92 174q13 -23 36.5 -37.5t49.5 -14.5q15 0 29.5 6.5t14.5 24.5q0 7 -4 14.5t-16 11.5q-9 3 -23.5 4t-25.5 1h-20l13 109h30q8 0 19 0.5t20.5 3t16.5 8.5t7 17q0 8 -5 13.5t-12 8.5t-15 4t-14 1q-25 0 -46 -12q-16 -9 -26.5 -20.5t-12.5 -13.5l-55 127q44 23 84 35t91 12
q32 0 64.5 -6.5t58.5 -22.5t42 -41t16 -63q0 -48 -28.5 -75t-74.5 -30q41 -3 67 -27t26 -66q0 -26 -9.5 -51t-31.5 -48q-34 -37 -74.5 -47t-82.5 -10q-56 0 -101 15t-90 48z" />
    <glyph glyph-name="uni0438" unicode="&#x438;" horiz-adv-x="504" 
d="M68 467h166l-16 -131q-3 -26 -8.5 -58.5t-13.5 -64.5q2 4 7.5 15.5t12.5 25.5t14 27.5t12 21.5l94 164h158l-57 -467h-166l15 125q2 13 5 31.5t6 37.5t6.5 35.5t4.5 24.5q-8 -20 -21.5 -48t-24.5 -46l-93 -160h-158z" />
    <glyph glyph-name="uni0439" unicode="&#x439;" horiz-adv-x="504" 
d="M290 524q-63 0 -107.5 30.5t-55.5 96.5l118 26q-1 -11 2 -22.5t10 -19.5q8 -8 17 -10.5t17 -2.5q26 0 40.5 15.5t19.5 39.5l111 -26q-18 -64 -62.5 -95.5t-109.5 -31.5zM11 0l57 467h166l-16 -131q-3 -26 -8.5 -58.5t-13.5 -64.5q2 4 7.5 15.5t12.5 25.5t14 27.5t12 21.5
l94 164h158l-57 -467h-166l15 125q2 13 5 31.5t6 37.5t6.5 35.5t4.5 24.5q-8 -20 -21.5 -48t-24.5 -46l-93 -160h-158z" />
    <glyph glyph-name="uni043A" unicode="&#x43a;" horiz-adv-x="487" 
d="M11 0l57 467h172l-27 -221q18 45 38 85t32 62l40 74h182l-139 -234l90 -233h-190l-24 80q-3 10 -6 18.5t-6.5 21.5t-8.5 32.5t-13 50.5l-25 -203h-172z" />
    <glyph glyph-name="uni043B" unicode="&#x43b;" horiz-adv-x="506" 
d="M-3 138q10 -7 24 -7q20 0 32 10q11 10 18.5 31t12.5 59l29 236h383l-57 -467h-172l40 327h-60l-13 -104q-6 -46 -15.5 -88.5t-29.5 -74.5t-54 -51.5t-88 -19.5q-20 0 -36.5 2.5t-30.5 7.5z" />
    <glyph glyph-name="uni043C" unicode="&#x43c;" horiz-adv-x="636" 
d="M-10 0l118 467h182l16 -156q3 -27 5 -53t1 -64q2 11 10.5 42.5t21.5 69.5l56 161h182l4 -467h-167l9 155q2 29 4 60t5 61q-8 -36 -15.5 -62.5t-18.5 -55.5l-56 -158h-118l-17 169q-3 26 -4.5 51t-0.5 56q-4 -40 -8 -62.5t-9 -45.5l-33 -168h-167z" />
    <glyph glyph-name="uni043D" unicode="&#x43d;" horiz-adv-x="486" 
d="M68 467h172l-19 -159h64l19 159h172l-57 -467h-172l21 168h-64l-21 -168h-172z" />
    <glyph glyph-name="uni043E" unicode="&#x43e;" horiz-adv-x="480" 
d="M208 -10q-46 0 -81 14.5t-57.5 41t-34 63t-11.5 81.5q0 55 16 106.5t47.5 91.5t77.5 64.5t105 24.5q46 0 80.5 -14.5t58 -40.5t35.5 -63t12 -81q0 -57 -15.5 -109.5t-47 -92t-77.5 -63t-108 -23.5zM254 346q-18 0 -30.5 -19t-20 -44t-10.5 -50.5t-3 -37.5q0 -9 1 -21.5
t5 -24.5t11.5 -20t19.5 -8q18 0 30.5 19t20 44.5t10.5 51t3 37.5q0 9 -1.5 21.5t-5 24t-11 19.5t-19.5 8z" />
    <glyph glyph-name="uni043F" unicode="&#x43f;" horiz-adv-x="484" 
d="M68 467h406l-57 -467h-172l40 327h-62l-40 -327h-172z" />
    <glyph glyph-name="uni0440" unicode="&#x440;" horiz-adv-x="489" 
d="M-14 -215l85 682h170l-12 -66q21 32 47 54t68 22q37 0 60.5 -18.5t37.5 -46t19.5 -60.5t5.5 -63q0 -27 -4 -59.5t-13 -66t-23 -64.5t-34 -55.5t-46.5 -39t-59.5 -14.5q-38 0 -60.5 20.5t-38.5 52.5q0 -20 -2 -38.5t-4 -38.5l-25 -201h-171zM259 334q-16 0 -26.5 -16.5
t-16.5 -39t-8.5 -45.5t-2.5 -35q0 -7 0.5 -17.5t3.5 -20.5t9 -17t16 -7q16 0 27 17t17.5 39.5t9 45t2.5 34.5q0 8 -1 18.5t-4 20t-9 16.5t-17 7z" />
    <glyph glyph-name="uni0441" unicode="&#x441;" horiz-adv-x="298" 
d="M204 -10q-46 0 -80 17t-56 46t-32.5 67t-10.5 80q0 53 18.5 102.5t51.5 88.5t79 62.5t101 23.5q8 0 17 -0.5t17 -1.5l-19 -152q-42 -3 -64.5 -30t-22.5 -68q0 -12 3.5 -25t10 -23.5t17 -17.5t24.5 -7h11l-19 -159q-22 -3 -46 -3z" />
    <glyph glyph-name="uni0442" unicode="&#x442;" horiz-adv-x="376" 
d="M43 467h355l-17 -140h-94l-41 -327h-170l40 327h-90z" />
    <glyph glyph-name="uni0443" unicode="&#x443;" horiz-adv-x="458" 
d="M10 -215l110 234l-82 448h172q7 -59 14.5 -117t7.5 -118v-7l-1 -15v-8q11 42 22 83t26 81l38 101h170l-301 -682h-176z" />
    <glyph glyph-name="uni0444" unicode="&#x444;" horiz-adv-x="641" 
d="M206 -7q-45 2 -79 20.5t-57 48.5t-34.5 68.5t-11.5 80.5q0 56 17 102.5t48 81t76 55t100 24.5l25 193h170l-25 -193q42 -7 75.5 -26.5t57.5 -48t36.5 -65.5t12.5 -79q0 -55 -16 -103t-46.5 -83.5t-75.5 -55.5t-103 -20l-27 -208h-170zM378 133q24 1 41 11t27.5 26
t15.5 36.5t5 42.5q0 33 -14.5 56.5t-49.5 28.5zM263 334q-24 -1 -40.5 -12t-27 -27.5t-15.5 -37t-5 -41.5q0 -15 3.5 -30t11 -26.5t19.5 -19t29 -7.5z" />
    <glyph glyph-name="uni0445" unicode="&#x445;" horiz-adv-x="475" 
d="M-28 0l169 240l-104 227h195q5 -26 10.5 -50.5t9.5 -50.5q11 26 24.5 50.5t25.5 50.5h189l-163 -223l119 -244h-198q-8 27 -14 54.5t-11 55.5q-13 -29 -28.5 -56.5t-32.5 -53.5h-191z" />
    <glyph glyph-name="uni0446" unicode="&#x446;" horiz-adv-x="507" 
d="M68 467h172l-40 -327h64l40 327h172l-40 -327h61l-31 -255h-142l14 115h-327z" />
    <glyph glyph-name="uni0447" unicode="&#x447;" horiz-adv-x="476" 
d="M186 151q-63 0 -104.5 30.5t-41.5 97.5q0 5 0.5 13.5t1.5 18t1.5 18.5t1.5 15l15 123h170l-15 -122q-1 -5 -1.5 -13.5t-0.5 -12.5q0 -16 9 -23t24 -7t27 8l21 170h172l-57 -467h-172l20 161q-34 -10 -71 -10z" />
    <glyph glyph-name="uni0448" unicode="&#x448;" horiz-adv-x="714" 
d="M68 467h168l-40 -327h66l40 327h168l-40 -327h66l40 327h168l-57 -467h-636z" />
    <glyph glyph-name="uni0449" unicode="&#x449;" horiz-adv-x="741" 
d="M68 467h168l-40 -327h66l40 327h168l-40 -327h66l40 327h168l-40 -327h67l-31 -255h-142l14 115h-561z" />
    <glyph glyph-name="uni044A" unicode="&#x44a;" horiz-adv-x="526" 
d="M30 327l17 140h252l-20 -166h53q34 0 65.5 -6.5t55.5 -22.5t38.5 -42t14.5 -65q0 -42 -14 -73.5t-38.5 -51.5t-58 -30t-73.5 -10h-252l40 327h-80zM256 110h5q12 0 25 1t23 5.5t16.5 13.5t6.5 25q0 13 -5.5 20.5t-14.5 11.5t-19.5 5t-20.5 1h-6z" />
    <glyph glyph-name="uni044B" unicode="&#x44b;" horiz-adv-x="694" 
d="M10 0l57 467h172l-20 -166h49q34 0 65.5 -6.5t55.5 -22.5t38.5 -42t14.5 -65q0 -42 -14 -73.5t-38.5 -51.5t-58 -30t-73.5 -10h-248zM511 467h172l-57 -467h-172zM196 110h5q12 0 25 1t23 5.5t16.5 13.5t6.5 25q0 13 -5.5 20.5t-14.5 11.5t-19.5 5t-20.5 1h-6z" />
    <glyph glyph-name="uni044C" unicode="&#x44c;" horiz-adv-x="466" 
d="M10 0l57 467h172l-20 -166h53q34 0 65.5 -6.5t55.5 -22.5t38.5 -42t14.5 -65q0 -42 -14 -73.5t-38.5 -51.5t-58 -30t-73.5 -10h-252zM196 110h5q12 0 25 1t23 5.5t16.5 13.5t6.5 25q0 13 -5.5 20.5t-14.5 11.5t-19.5 5t-20.5 1h-6z" />
    <glyph glyph-name="uni044D" unicode="&#x44d;" horiz-adv-x="389" 
d="M37 155q18 -20 38 -26.5t37 -6.5q30 0 52 14t28 46h-107l13 104h103q-5 31 -26 45t-51 14q-14 0 -31 -4.5t-37 -18.5l17 135q28 12 51.5 16t43.5 4q50 0 86.5 -16t61.5 -44.5t37 -68.5t12 -87q0 -20 -3.5 -46t-12 -54.5t-23.5 -57t-38 -52.5q-34 -35 -71 -48t-81 -13
q-40 0 -68 9t-48 23z" />
    <glyph glyph-name="uni044E" unicode="&#x44e;" horiz-adv-x="706" 
d="M11 0l57 467h168l-19 -161h55q9 39 29.5 71t49.5 54t65 34t76 12q94 0 142 -55t48 -146q0 -69 -22 -128t-62 -99q-35 -35 -75.5 -47t-88.5 -12q-83 0 -130 49t-49 131h-56l-20 -170h-168zM416 195q0 -9 1 -21.5t5 -24.5t11.5 -20t19.5 -8q18 0 30.5 19t20 44.5t10.5 51
t3 37.5q0 9 -1.5 21.5t-5 24t-11 19.5t-19.5 8q-18 0 -30.5 -19t-20 -44t-10.5 -50.5t-3 -37.5z" />
    <glyph glyph-name="uni044F" unicode="&#x44f;" horiz-adv-x="478" 
d="M0 0l104 162q-37 13 -53.5 43t-16.5 68q0 43 13.5 78t36.5 59q37 38 86 47.5t115 9.5h183l-57 -467h-172l12 102q2 19 4 34.5t6 38.5q-9 -23 -14.5 -33.5t-10.5 -22.5l-55 -119h-181zM272 345q-13 0 -25 -1.5t-21 -7t-14 -15t-5 -25.5q0 -26 17 -36t40 -10h6l11 95h-9z
" />
    <glyph glyph-name="uni0451" unicode="&#x451;" horiz-adv-x="474" 
d="M118 594q0 16 6.5 30.5t18 25.5t26 17.5t30.5 6.5q32 0 47.5 -21t15.5 -51q0 -14 -7.5 -27t-19.5 -23t-26 -16t-27 -6q-28 0 -46 18t-18 46zM371 530q-27 0 -45 18.5t-18 45.5q0 16 6.5 30.5t17.5 25.5t25.5 17.5t30.5 6.5q28 0 46 -18t18 -46q0 -16 -6.5 -30.5
t-18 -25.5t-26 -17.5t-30.5 -6.5zM23 181q0 54 16.5 107t48 94.5t78 67.5t105.5 26q45 0 79 -15.5t56.5 -42.5t33.5 -63.5t11 -78.5q0 -20 -2.5 -39.5t-5.5 -39.5h-250q-1 -5 -1 -9.5v-9.5q0 -8 1 -17.5t4 -17.5t9.5 -13t17.5 -5q15 0 26 9.5t16 22.5h166
q-26 -80 -83.5 -123.5t-141.5 -43.5q-91 0 -137.5 51.5t-46.5 139.5zM253 349q-22 0 -33 -20t-13 -39h79v3l1 6q0 17 -6.5 33.5t-27.5 16.5z" />
    <glyph glyph-name="uni0452" unicode="&#x452;" horiz-adv-x="492" 
d="M20 0l64 499h-54l14 105h53l15 125h173l-16 -125h118l-14 -105h-118l-8 -74q-3 -25 -6 -47t-8 -43q19 41 52.5 70.5t81.5 29.5q28 0 47 -11t30.5 -29.5t16.5 -42t5 -47.5q0 -10 -1 -23.5t-2.5 -27.5t-3 -26.5t-2.5 -20.5l-27 -200q-6 -47 -17.5 -87.5t-33 -70.5
t-56.5 -47t-89 -17q-17 0 -36 2.5t-38 7.5l18 145q8 -10 17 -12.5t14 -2.5q14 0 22 5.5t13.5 14.5t8 20t3.5 22l27 202q2 15 3 24t1 16q0 11 -4 22t-18 11q-12 0 -20 -6t-13 -15t-8 -20t-4 -20l-27 -201h-173z" />
    <glyph glyph-name="uni0453" unicode="&#x453;" horiz-adv-x="364" 
d="M264 530h-98l65 148h138zM223 327l-40 -327h-172l57 467h300l-17 -140h-128z" />
    <glyph glyph-name="uni0454" unicode="&#x454;" horiz-adv-x="390" 
d="M25 205q0 56 17 105.5t49 86.5t78.5 58.5t104.5 21.5q26 0 51.5 -4.5t54.5 -19.5l-16 -132q-23 17 -42.5 21.5t-31.5 4.5q-30 0 -53 -15t-32 -44h105l-13 -106h-105q5 -32 27 -47t54 -15q14 0 32.5 4t37.5 16l-17 -133q-31 -11 -54.5 -14t-46.5 -3q-50 0 -87.5 15.5
t-62.5 43.5t-37.5 67.5t-12.5 88.5z" />
    <glyph glyph-name="uni0455" unicode="&#x455;" horiz-adv-x="389" 
d="M78 168q14 -17 35 -33t44 -16q12 0 24 6.5t12 20.5q0 16 -14 22.5t-26 11.5q-21 8 -40 18t-33 24t-22.5 33t-8.5 44q0 41 18.5 74t48 56t67 35.5t75.5 12.5q37 0 68.5 -10t63.5 -28l-74 -127q-12 14 -28.5 27.5t-36.5 13.5q-11 0 -20.5 -6.5t-9.5 -18.5q0 -13 10.5 -21.5
t26.5 -15.5t34 -15t34 -21t26.5 -33t10.5 -51q0 -41 -17.5 -74.5t-46 -57t-65 -36.5t-75.5 -13q-48 0 -83 12.5t-76 36.5z" />
    <glyph glyph-name="uni0456" unicode="&#x456;" horiz-adv-x="249" 
d="M160 511q-38 0 -63 25.5t-25 63.5q0 23 9 43t25 36t36.5 25t42.5 9q38 0 63 -25.5t25 -63.5q0 -22 -9.5 -42.5t-25 -36t-36 -25t-42.5 -9.5zM11 0l58 467h170l-57 -467h-171z" />
    <glyph glyph-name="uni0457" unicode="&#x457;" horiz-adv-x="249" 
d="M99 534q-13 0 -21.5 6.5t-14 16.5t-8 22t-2.5 22q0 13 4 29t12 30t20 23.5t28 9.5q12 0 20 -6.5t13.5 -16t7.5 -21t2 -21.5q0 -12 -3.5 -28.5t-11 -31t-19 -24.5t-27.5 -10zM182 601q0 13 4 29t12 30t19.5 23.5t27.5 9.5q12 0 20 -6.5t13 -16.5t7.5 -21.5t2.5 -20.5
q0 -12 -4 -28.5t-11.5 -31t-19 -24.5t-27.5 -10q-13 0 -21.5 6.5t-13.5 16.5t-7 22t-2 22zM69 467h170l-57 -467h-171z" />
    <glyph glyph-name="uni0458" unicode="&#x458;" horiz-adv-x="252" 
d="M162 511q-38 0 -63 25.5t-25 63.5q0 23 9 43t24.5 36t36 25t42.5 9q39 0 63.5 -25.5t24.5 -63.5v-10q0 -6 -3 -15t-5 -14q-14 -31 -42 -52.5t-62 -21.5zM70 467h172l-85 -682h-170z" />
    <glyph glyph-name="uni0459" unicode="&#x459;" horiz-adv-x="719" 
d="M47 -11q-20 0 -36.5 2.5t-30.5 7.5l17 139q10 -7 24 -7q20 0 32 10q11 10 18.5 31t12.5 59l29 236h379l-20 -166h53q34 0 65.5 -6.5t55.5 -22.5t38.5 -42t14.5 -65q0 -42 -14 -73.5t-38.5 -51.5t-58 -30t-73.5 -10h-248l40 327h-60l-13 -104q-6 -46 -15.5 -88.5
t-29.5 -74.5t-54 -51.5t-88 -19.5zM449 110h5q12 0 25 1t23 5.5t16.5 13.5t6.5 25q0 13 -5.5 20.5t-14.5 11.5t-19.5 5t-20.5 1h-6z" />
    <glyph glyph-name="uni045A" unicode="&#x45a;" horiz-adv-x="704" 
d="M11 0l57 467h172l-19 -166h64l20 166h172l-20 -166h53q34 0 65.5 -6.5t55.5 -22.5t38.5 -42t14.5 -65q0 -42 -14 -73.5t-38.5 -51.5t-58 -30t-73.5 -10h-252l24 193h-65l-24 -193h-172zM439 110q12 0 25 1t23 5.5t16.5 13.5t6.5 25q0 13 -5.5 20.5t-14.5 11.5t-19.5 5
t-20.5 1h-6l-10 -83h5z" />
    <glyph glyph-name="uni045B" unicode="&#x45b;" horiz-adv-x="489" 
d="M20 0l61 499h-54l14 105h53l15 125h173l-15 -125h118l-14 -105h-118l-8 -73q-2 -23 -6.5 -45t-9.5 -45q21 39 53.5 69t80.5 30q25 0 43.5 -9.5t31 -25.5t19 -37t6.5 -44q0 -22 -3 -43l-35 -276h-171l27 207q1 6 1.5 12t0.5 12q0 11 -4.5 21t-18.5 10q-12 0 -20 -7.5
t-13 -18t-7.5 -22.5t-3.5 -21l-25 -193h-171z" />
    <glyph glyph-name="uni045C" unicode="&#x45c;" horiz-adv-x="487" 
d="M234 530l65 148h138l-105 -148h-98zM11 0l57 467h172l-27 -221q18 45 38 85t32 62l40 74h182l-139 -234l90 -233h-190l-24 80q-3 10 -6 18.5t-6.5 21.5t-8.5 32.5t-13 50.5l-25 -203h-172z" />
    <glyph glyph-name="uni045E" unicode="&#x45e;" horiz-adv-x="458" 
d="M271 524q-63 0 -107.5 30.5t-55.5 96.5l118 26q-1 -11 2 -22.5t10 -19.5q8 -8 17 -10.5t17 -2.5q26 0 40.5 15.5t19.5 39.5l111 -26q-18 -64 -62.5 -95.5t-109.5 -31.5zM10 -215l110 234l-82 448h172q7 -59 14.5 -117t7.5 -118v-7l-1 -15v-8q11 42 22 83t26 81l38 101
h170l-301 -682h-176z" />
    <glyph glyph-name="uni045F" unicode="&#x45f;" horiz-adv-x="486" 
d="M68 467h172l-40 -327h64l40 327h172l-57 -467h-133l-14 -115h-142l14 115h-133z" />
    <glyph glyph-name="uni0462" unicode="&#x462;" horiz-adv-x="538" 
d="M35 489l17 130h84l10 85h177l-11 -85h104l-16 -130h-104l-8 -73h9q51 0 95 -9t79 -44q20 -20 36 -51.5t16 -77.5q0 -51 -18.5 -97t-51.5 -77q-23 -21 -49 -33t-51 -18t-48.5 -7.5t-42.5 -1.5h-203l61 489h-85zM254 145q4 -1 12 -1q35 0 57 20.5t22 55.5q0 36 -22 47
t-53 11z" />
    <glyph glyph-name="uni0463" unicode="&#x463;" horiz-adv-x="498" 
d="M40 467h60l25 200h172l-25 -200h97l-15 -124h-97l-5 -46h52q34 0 65.5 -6.5t55.5 -22.5t38.5 -42t14.5 -65q0 -42 -14 -72t-38.5 -50t-58 -29.5t-72.5 -9.5h-252l42 343h-60zM229 110h5q12 0 25 1t23 5.5t16.5 13.5t6.5 25q0 13 -5.5 20.5t-14.5 11.5t-19.5 5t-20.5 1h-6
z" />
    <glyph glyph-name="uni0472" unicode="&#x472;" horiz-adv-x="558" 
d="M38 263q0 62 10 114.5t27 95t39.5 75.5t46.5 57q24 23 48 37.5t46.5 22.5t43.5 11t38 3q56 0 96 -22.5t65 -60t36.5 -85t11.5 -97.5q0 -43 -7 -91.5t-22 -96t-38.5 -90.5t-55.5 -76t-74 -52.5t-95 -19.5q-32 0 -71.5 12.5t-74.5 49.5q-24 24 -37.5 51t-21 55t-9.5 55
t-2 52zM315 515q-16 0 -28.5 -12.5t-22.5 -29.5t-16 -35.5t-8 -30.5h122q1 11 0.5 24.5t-3 28t-7 27t-12.5 19.5q-9 9 -25 9zM222 276q0 -16 1 -33t3.5 -32.5t7 -28t11.5 -19.5q10 -10 25 -10q18 0 32 14t24 33.5t15.5 40.5t6.5 35h-126z" />
    <glyph glyph-name="uni0473" unicode="&#x473;" horiz-adv-x="480" 
d="M24 190q0 55 16 106.5t47.5 91.5t77.5 64.5t105 24.5q46 0 80.5 -14.5t58 -40.5t35.5 -63t12 -81q0 -57 -15.5 -109.5t-47 -92t-77.5 -63t-108 -23.5q-46 0 -81 14.5t-57.5 41t-34 63t-11.5 81.5zM253 354q-11 0 -20 -6.5t-15.5 -16t-10.5 -20.5t-6 -20h92q-1 10 -2.5 21
t-6 20.5t-12 15.5t-19.5 6zM188 185q0 -9 1.5 -21.5t5.5 -24t11.5 -19t20.5 -7.5t22.5 7t16.5 18t11 23.5t5 23.5h-94z" />
    <glyph glyph-name="uni0474" unicode="&#x474;" horiz-adv-x="510" 
d="M54 667h186l8 -156t4 -156q0 -31 -1 -61.5t-3 -61.5q23 112 56 219t67 216h193l-261 -667h-181z" />
    <glyph glyph-name="uni0475" unicode="&#x475;" horiz-adv-x="439" 
d="M29 467h173q4 -51 8 -101t4 -101q0 -23 -0.5 -46.5t-1.5 -46.5q18 75 41.5 148t46.5 147h168l-191 -467h-178z" />
    <glyph glyph-name="uni0490" unicode="&#x490;" horiz-adv-x="451" 
d="M316 667l17 142h156l-36 -299h-195l-63 -510h-177l82 667h216z" />
    <glyph glyph-name="uni0491" unicode="&#x491;" horiz-adv-x="403" 
d="M268 467l18 140h142l-35 -280h-170l-40 -327h-172l57 467h200z" />
    <glyph glyph-name="uni0492" unicode="&#x492;" horiz-adv-x="405" 
d="M24 413h66l31 254h315l-19 -157h-138l-12 -97h128l-19 -151h-128l-32 -262h-177l32 262h-66z" />
    <glyph glyph-name="uni0493" unicode="&#x493;" horiz-adv-x="388" 
d="M0 125l18 140h50l24 202h300l-17 -140h-128l-7 -62h100l-18 -140h-100l-15 -125h-172l15 125h-50z" />
    <glyph glyph-name="uni0494" unicode="&#x494;" horiz-adv-x="523" 
d="M18 0l82 667h326l-19 -157h-149l-9 -68q-3 -20 -5 -33t-8 -31q35 21 62.5 27t46.5 6q40 0 69 -15.5t47.5 -41.5t27.5 -59.5t9 -69.5q0 -61 -19.5 -114.5t-51.5 -83.5q-31 -29 -65 -36t-58 -7q-39 0 -74 14l31 142q11 -9 24 -9q11 0 18.5 7.5t11.5 18t5.5 22.5t1.5 20
q0 20 -9.5 39t-32.5 19q-14 0 -28 -5t-28 -12l-29 -240h-177z" />
    <glyph glyph-name="uni0495" unicode="&#x495;" horiz-adv-x="464" 
d="M68 467h308l-17 -140h-136l-9 -72h15q100 0 152.5 -51.5t52.5 -152.5q0 -64 -19.5 -112.5t-55.5 -82t-86.5 -51.5t-112.5 -20l16 136q26 1 43 12.5t28 29t15.5 39.5t4.5 44q0 17 -3 33t-10.5 28.5t-20.5 20t-33 7.5l-17 -135h-172z" />
    <glyph glyph-name="uni0496" unicode="&#x496;" horiz-adv-x="777" 
d="M-15 0l177 349l-98 318h180l69 -300l31 300h170l-42 -300l142 300h178l-176 -324l49 -180h72l-37 -292h-156l17 129h-34l-61 321l-34 -321h-170l45 321l-140 -321h-182z" />
    <glyph glyph-name="uni0497" unicode="&#x497;" horiz-adv-x="723" 
d="M128 239l-79 228h178l30 -104q4 -14 11.5 -45t14.5 -73l27 222h168l-27 -222q8 20 15.5 36t14 30t13 26.5t13.5 25.5l54 104h180l-137 -228l30 -99h63l-31 -255h-142l14 115h-36l-27 96q-4 16 -8 28.5t-7.5 26t-6 29t-5.5 36.5l-27 -216h-168l27 216q-14 -33 -27.5 -63
t-27.5 -57l-50 -96h-192z" />
    <glyph glyph-name="uni0498" unicode="&#x498;" horiz-adv-x="452" 
d="M45 232q20 -33 48.5 -56.5t69.5 -23.5q29 0 49.5 14t20.5 45q0 17 -7.5 28t-19.5 17t-26.5 8t-28.5 2h-26l17 148h24q14 0 29.5 1.5t29.5 7t23 16t9 28.5q0 14 -7 23.5t-18 15.5t-23.5 8.5t-24.5 2.5q-35 0 -63 -20t-51 -44l24 190q39 23 74.5 29.5t64.5 6.5q44 0 82 -11
t66 -33t44.5 -56t16.5 -81q0 -66 -35 -108t-101 -51q59 0 89.5 -38t30.5 -94q0 -36 -10.5 -71t-30.5 -63t-49.5 -47.5t-67.5 -25.5l-16 -130h-160l16 128q-25 5 -47 13.5t-41 19.5z" />
    <glyph glyph-name="uni0499" unicode="&#x499;" horiz-adv-x="435" 
d="M92 174q13 -23 36.5 -37.5t49.5 -14.5q15 0 29.5 6.5t14.5 24.5q0 7 -4 14.5t-16 11.5q-9 3 -23.5 4t-25.5 1h-20l13 109h30q8 0 19 0.5t20.5 3t16.5 8.5t7 17q0 8 -5 13.5t-12 8.5t-15 4t-14 1q-25 0 -46 -12q-16 -9 -26.5 -20.5t-12.5 -13.5l-55 127q44 23 84 35t91 12
q32 0 64.5 -6.5t58.5 -22.5t42 -41t16 -63q0 -48 -28.5 -75t-74.5 -30q41 -3 67 -27.5t26 -66.5q0 -30 -10 -55.5t-28 -44.5t-43 -31t-54 -15l-14 -114h-142l14 112q-22 5 -47.5 16.5t-64.5 39.5z" />
    <glyph glyph-name="uni049A" unicode="&#x49a;" horiz-adv-x="533" 
d="M100 667h177l-40 -298l140 298h187l-181 -322l62 -182h77l-37 -292h-156l17 129h-37l-79 319l-35 -319h-177z" />
    <glyph glyph-name="uni049B" unicode="&#x49b;" horiz-adv-x="492" 
d="M11 0l57 467h172l-27 -221q18 45 38 85t32 62l40 74h187l-141 -229l35 -98h65l-31 -255h-142l14 115h-42l-26 80l-8 24t-7.5 26t-8 31.5t-10.5 41.5l-25 -203h-172z" />
    <glyph glyph-name="uni049C" unicode="&#x49c;" horiz-adv-x="663" 
d="M100 667h177l-34 -274h43l19 150h87l-21 -168l137 292h186l-175 -322l95 -345h-190l-60 317l-19 -158h-87l16 134h-43l-36 -293h-177z" />
    <glyph glyph-name="uni049D" unicode="&#x49d;" horiz-adv-x="581" 
d="M68 467h172l-22 -186h33l11 95h72l-15 -123q23 69 62 140l40 74h178l-137 -231l86 -236h-184l-24 80q-5 17 -13.5 49t-14.5 67l-14 -118h-72l12 103h-33l-22 -181h-172z" />
    <glyph glyph-name="uni04A0" unicode="&#x4a0;" horiz-adv-x="623" 
d="M59 667h308l-40 -298l140 298h187l-181 -322l117 -345h-191l-79 319l-35 -319h-177l62 510h-130z" />
    <glyph glyph-name="uni04A1" unicode="&#x4a1;" horiz-adv-x="571" 
d="M20 327l17 140h282l-27 -221q18 45 38 85t32 62l40 74h187l-141 -231l96 -236h-199l-24 80q-3 10 -6 18.5t-6.5 21.5t-8.5 32.5t-13 50.5l-25 -203h-172l40 327h-110z" />
    <glyph glyph-name="uni04A2" unicode="&#x4a2;" horiz-adv-x="560" 
d="M100 667h177l-29 -236h85l29 236h177l-63 -504h70l-38 -292h-160l18 129h-86l33 268h-85l-33 -268h-177z" />
    <glyph glyph-name="uni04A3" unicode="&#x4a3;" horiz-adv-x="507" 
d="M68 467h172l-19 -159h64l19 159h172l-40 -327h61l-31 -255h-142l14 115h-91l21 168h-64l-21 -168h-172z" />
    <glyph glyph-name="uni04A4" unicode="&#x4a4;" horiz-adv-x="629" 
d="M100 667h177l-29 -236h85l29 236h298l-19 -157h-121l-63 -510h-177l33 268h-85l-33 -268h-177z" />
    <glyph glyph-name="uni04A5" unicode="&#x4a5;" horiz-adv-x="576" 
d="M68 467h172l-19 -159h64l19 159h276l-17 -140h-104l-40 -327h-172l21 168h-64l-21 -168h-172z" />
    <glyph glyph-name="uni04AA" unicode="&#x4aa;" horiz-adv-x="438" 
d="M182 3q-37 14 -64 40t-45 59.5t-26.5 74t-8.5 83.5q0 75 20.5 150t62 134.5t104.5 97t148 37.5q27 0 45 -3t43 -14l-23 -190q-17 19 -34 29.5t-43 10.5q-40 0 -67 -23t-43 -56.5t-23 -72.5t-7 -71q0 -24 4.5 -46.5t15.5 -40.5t29 -29t46 -11q29 0 52.5 12.5t44.5 30.5
l-34 -193q-9 -4 -18.5 -8t-19.5 -6l-29 -137h-160z" />
    <glyph glyph-name="uni04AB" unicode="&#x4ab;" horiz-adv-x="307" 
d="M106 12q-46 34 -63.5 78.5t-17.5 100.5t16.5 107.5t49 91.5t79 63.5t106.5 23.5q9 0 23 -1t19 -1l-18 -152q-42 0 -67.5 -26.5t-25.5 -68.5q0 -33 16 -54.5t51 -21.5h5l-20 -159l-20 -3l-13 -105h-136z" />
    <glyph glyph-name="uni04AE" unicode="&#x4ae;" horiz-adv-x="493" 
d="M239 667q11 -51 21 -102.5t16 -103.5q20 53 42 104t45 102h184l-200 -385l-35 -282h-177l35 282l-116 385h185z" />
    <glyph glyph-name="uni04AF" unicode="&#x4af;" horiz-adv-x="458" 
d="M201 467l12 -115q2 -16 3.5 -32t3 -34.5t2.5 -40.5t1 -51q5 19 11.5 41t12.5 43.5t12.5 41l11.5 34.5l39 113h183l-204 -448l-28 -234h-171l27 234l-92 448h176z" />
    <glyph glyph-name="uni04B0" unicode="&#x4b0;" horiz-adv-x="493" 
d="M52 274h118l3 26l-119 367h185q11 -51 21 -102.5t16 -103.5q20 53 42 104t45 102h184l-197 -367l-3 -26h118l-18 -143h-118l-17 -131h-177l17 131h-118z" />
    <glyph glyph-name="uni04B1" unicode="&#x4b1;" horiz-adv-x="465" 
d="M23 52h105l3 18l-99 397h176l13 -110q4 -34 7 -69t4 -86q6 26 11.5 46t11 38t11.5 35.5t13 37.5l38 108h183l-197 -397l-3 -18h106l-13 -105h-106l-19 -162h-172l19 162h-105z" />
    <glyph glyph-name="uni04B2" unicode="&#x4b2;" horiz-adv-x="509" 
d="M-28 0l202 346l-111 321h197q2 -7 3 -13.5t2 -14.5l12 -54q2 -17 6 -38t8 -38q13 41 29 80t33 78h199l-190 -321l61 -183h70l-36 -292h-156l16 129h-33q-8 31 -13.5 62t-12.5 62q-3 14 -5.5 27.5t-4.5 27.5q-19 -46 -40 -90t-43 -89h-193z" />
    <glyph glyph-name="uni04B3" unicode="&#x4b3;" horiz-adv-x="475" 
d="M-28 0l169 240l-104 227h195q5 -26 10.5 -50.5t9.5 -50.5q11 26 24.5 50.5t25.5 50.5h189l-163 -223l50 -104h65l-31 -255h-142l14 115h-31q-11 27 -17.5 54.5t-11.5 55.5q-13 -29 -28.5 -56.5t-32.5 -53.5h-191z" />
    <glyph glyph-name="uni04B6" unicode="&#x4b6;" horiz-adv-x="550" 
d="M224 258q-34 0 -64 9t-52 27t-35 45t-13 64q0 7 0.5 17t1.5 21t2 20.5t2 15.5l24 190h176l-22 -178q-3 -21 -3 -30q0 -22 14 -32.5t34 -10.5q6 0 14.5 1t18.5 6l30 244h177l-63 -504h70l-36 -292h-160l16 129h-86l33 269q-21 -6 -40 -8.5t-39 -2.5z" />
    <glyph glyph-name="uni04B7" unicode="&#x4b7;" horiz-adv-x="495" 
d="M186 151q-63 0 -104.5 30.5t-41.5 97.5q0 5 0.5 13.5t1.5 18t1.5 18.5t1.5 15l15 123h170l-15 -122q-1 -5 -1.5 -13.5t-0.5 -12.5q0 -16 9 -23t24 -7t27 8l21 170h172l-41 -327h60l-31 -255h-142l14 115h-89l20 161q-34 -10 -71 -10z" />
    <glyph glyph-name="uni04B8" unicode="&#x4b8;" horiz-adv-x="595" 
d="M255 258q-36 0 -71 7.5t-62.5 24.5t-44.5 45.5t-17 71.5q0 6 0.5 21t5.5 49l24 190h172l-22 -178q-3 -22 -3 -38q0 -36 37 -36l17 136h83l-17 -138q20 2 39 9l30 245h177l-82 -667h-177l33 267q-17 -6 -40 -9l-14 -119h-83z" />
    <glyph glyph-name="uni04B9" unicode="&#x4b9;" horiz-adv-x="543" 
d="M40 277q0 5 0.5 14t1.5 19t1.5 19t1.5 15l15 123h161l-14 -117q-1 -7 -2 -15t-1 -16q0 -15 6.5 -25.5t23.5 -10.5l12 103h72l-12 -102q20 2 34 10l21 173h172l-57 -467h-172l20 165q-16 -7 -34 -9l-10 -86h-72l9 80h-7q-33 0 -63.5 5.5t-54 20t-38 39t-14.5 62.5z" />
    <glyph glyph-name="uni04BA" unicode="&#x4ba;" horiz-adv-x="515" 
d="M18 0l82 667h177l-31 -251q23 8 44.5 11.5t45.5 3.5q69 0 111.5 -37t42.5 -109q0 -16 -2 -33t-5 -43l-26 -209h-176l22 174q2 20 3.5 30.5t1.5 19.5q0 21 -9 34t-32 13q-11 0 -21.5 -3t-18.5 -8l-32 -260h-177z" />
    <glyph glyph-name="uni04BB" unicode="&#x4bb;" horiz-adv-x="483" 
d="M101 729h171l-32 -261q-3 -23 -7 -45t-9 -45q21 39 53.5 69t80.5 30q25 0 43.5 -9.5t31 -25.5t19 -37t6.5 -44q0 -22 -3 -43l-39 -318h-171l31 247q1 7 1.5 13t0.5 13q0 11 -4.5 21t-18.5 10q-12 0 -20 -7.5t-13 -18t-7.5 -22.5t-3.5 -21l-29 -235h-171z" />
    <glyph glyph-name="uni04C0" unicode="&#x4c0;" horiz-adv-x="250" 
d="M182 0h-171l83 667h171z" />
    <glyph glyph-name="uni04C1" unicode="&#x4c1;" horiz-adv-x="777" 
d="M370 874q4 -28 21.5 -42t45.5 -14q56 0 65 56l125 -37q-9 -36 -27.5 -60t-44 -38.5t-56.5 -21t-65 -6.5q-33 0 -64 6.5t-56 21t-43.5 38.5t-27.5 59zM-15 0l177 349l-98 318h180l69 -300l31 300h170l-42 -300l142 300h178l-176 -324l93 -343h-182l-61 321l-34 -321h-170
l45 321l-140 -321h-182z" />
    <glyph glyph-name="uni04C2" unicode="&#x4c2;" horiz-adv-x="723" 
d="M345 677q-1 -11 2 -22.5t10 -19.5q8 -8 17 -10.5t17 -2.5q26 0 40.5 15.5t19.5 39.5l111 -26q-18 -64 -62.5 -95.5t-109.5 -31.5q-63 0 -107.5 30.5t-55.5 96.5zM-17 0l145 239l-79 228h178l30 -104q4 -14 11.5 -45t14.5 -73l27 222h168l-27 -222q8 20 15.5 36t14 30
t13 26.5t13.5 25.5l54 104h180l-137 -228l82 -239h-187l-26 96q-8 31 -14 58.5t-11 61.5l-27 -216h-168l27 216q-14 -33 -27.5 -63t-27.5 -57l-50 -96h-192z" />
    <glyph glyph-name="uni04C3" unicode="&#x4c3;" horiz-adv-x="558" 
d="M18 0l82 667h177l-40 -286l141 286h190l-161 -278q35 -8 56.5 -27.5t34.5 -46t17.5 -57.5t4.5 -62q0 -34 -4 -77.5t-13.5 -87.5t-25.5 -83t-40 -63q-30 -30 -64.5 -37.5t-69.5 -7.5q-27 0 -46 3t-40 11l29 142q13 -10 31 -10q6 0 13 1.5t13 7.5q10 10 17 37t11.5 58.5
t6.5 61.5t2 46q0 27 -12 46.5t-42 19.5q-19 0 -35 -6t-29 -14l-27 -244h-177z" />
    <glyph glyph-name="uni04C4" unicode="&#x4c4;" horiz-adv-x="492" 
d="M11 0l57 467h172l-27 -221q18 45 38 85t32 62l40 74h187l-145 -237q26 -9 44 -25.5t28.5 -37.5t15 -45.5t4.5 -50.5q0 -25 -4.5 -53.5t-13.5 -57t-23.5 -55t-34.5 -46.5q-21 -21 -47 -35t-53.5 -22.5t-56 -12t-54.5 -4.5l17 136q26 0 43.5 13t28 33t15 43.5t4.5 45.5
q0 45 -18 61.5t-61 16.5l-16 -134h-172z" />
    <glyph glyph-name="uni04C7" unicode="&#x4c7;" horiz-adv-x="532" 
d="M18 0l82 667h177l-29 -236h86l29 236h177l-87 -710q-5 -44 -17 -76.5t-34 -53.5t-54 -31.5t-78 -10.5q-21 0 -40 2.5t-41 9.5l17 139q9 -8 17.5 -10t12.5 -2q18 0 28 12q9 10 11.5 25.5t4.5 32.5l34 274h-86l-33 -268h-177z" />
    <glyph glyph-name="uni04C8" unicode="&#x4c8;" horiz-adv-x="486" 
d="M68 467h172l-19 -159h64l19 159h172l-55 -460q-6 -47 -17.5 -87.5t-33.5 -70.5t-57 -47t-88 -17q-17 0 -36 2.5t-38 7.5l18 145q8 -10 17 -12.5t14 -2.5q14 0 22.5 6t13 15t7 20t3.5 22l22 180h-64l-21 -168h-172z" />
    <glyph glyph-name="uni04D0" unicode="&#x4d0;" horiz-adv-x="524" 
d="M329 711q-33 0 -64 6.5t-56 21t-43.5 38.5t-27.5 59l127 38q4 -28 21.5 -42t45.5 -14q56 0 65 56l125 -37q-9 -36 -27.5 -60t-44 -38.5t-56.5 -21t-65 -6.5zM-23 0l240 667h217l57 -667h-183l-3 85h-119l-25 -85h-184zM302 227q-1 20 -1.5 39t-0.5 39v87q0 29 1 57.5
t2 57.5q-6 -23 -11 -47t-12 -47q-14 -47 -26.5 -93t-26.5 -93h75z" />
    <glyph glyph-name="uni04D1" unicode="&#x4d1;" horiz-adv-x="489" 
d="M294 524q-63 0 -107.5 30.5t-55.5 96.5l118 26q-1 -11 2 -22.5t10 -19.5q8 -8 17 -10.5t17 -2.5q26 0 40.5 15.5t19.5 39.5l111 -26q-18 -64 -62.5 -95.5t-109.5 -31.5zM136 -10q-34 0 -56 17.5t-35 43.5t-17.5 57.5t-4.5 58.5q0 28 3.5 61.5t12 68t22 67t33.5 57.5
t46.5 40.5t61.5 15.5q43 0 64 -24t35 -60q0 5 0.5 9.5t0.5 9.5l2 36q0 5 0.5 9.5t0.5 9.5h174l-57 -467h-171l15 79q-23 -38 -53 -63.5t-77 -25.5zM254 334q-18 0 -29.5 -18t-18 -42t-9 -48.5t-2.5 -37.5q0 -8 1 -17.5t4 -18t9 -14t17 -5.5q18 0 29 19.5t17 45.5t8 51.5
t2 38.5q0 14 -4.5 30t-23.5 16z" />
    <glyph glyph-name="uni04D2" unicode="&#x4d2;" horiz-adv-x="524" 
d="M159 784q0 16 6.5 30.5t18 25.5t26 17.5t30.5 6.5q32 0 47.5 -21t15.5 -51q0 -14 -7.5 -27t-19.5 -23t-26 -16t-27 -6q-28 0 -46 18t-18 46zM412 720q-27 0 -45 18.5t-18 45.5q0 16 6.5 30.5t17.5 25.5t25.5 17.5t30.5 6.5q28 0 46 -18t18 -46q0 -16 -6.5 -30.5
t-18 -25.5t-26 -17.5t-30.5 -6.5zM217 667h217l57 -667h-183l-3 85h-119l-25 -85h-184zM280 413q-14 -47 -26.5 -93t-26.5 -93h75q-1 20 -1.5 39t-0.5 39v87q0 29 1 57.5t2 57.5q-6 -23 -11 -47t-12 -47z" />
    <glyph glyph-name="uni04D3" unicode="&#x4d3;" horiz-adv-x="489" 
d="M203 530q-28 0 -46 18t-18 46q0 16 6.5 30.5t18 25.5t26 17.5t30.5 6.5q32 0 47.5 -21t15.5 -51q0 -14 -7.5 -27t-19.5 -23t-26 -16t-27 -6zM392 530q-27 0 -45 18.5t-18 45.5q0 16 6.5 30.5t17.5 25.5t25.5 17.5t30.5 6.5q28 0 46 -18t18 -46q0 -16 -6.5 -30.5
t-18 -25.5t-26 -17.5t-30.5 -6.5zM23 167q0 28 3.5 61.5t12 68t22 67t33.5 57.5t46.5 40.5t61.5 15.5q43 0 64 -24t35 -60q0 5 0.5 9.5t0.5 9.5l2 36q0 5 0.5 9.5t0.5 9.5h174l-57 -467h-171l15 79q-23 -38 -53 -63.5t-77 -25.5q-34 0 -56 17.5t-35 43.5t-17.5 57.5
t-4.5 58.5zM254 334q-18 0 -29.5 -18t-18 -42t-9 -48.5t-2.5 -37.5q0 -8 1 -17.5t4 -18t9 -14t17 -5.5q18 0 29 19.5t17 45.5t8 51.5t2 38.5q0 14 -4.5 30t-23.5 16z" />
    <glyph glyph-name="uni04D4" unicode="&#x4d4;" horiz-adv-x="606" 
d="M-28 0l234 667h424l-19 -157h-177l3 -97h148l-18 -151h-122l4 -102h119l-20 -160h-252l-2 85h-114l-24 -85h-184zM293 223q-1 46 -1.5 91.5t-0.5 92.5q0 25 0.5 49.5t1.5 49.5q-16 -72 -35 -142t-39 -141h74z" />
    <glyph glyph-name="uni04D5" unicode="&#x4d5;" horiz-adv-x="724" 
d="M16 131q0 41 14.5 72.5t40 53t59 33t72.5 11.5q22 0 43.5 -2.5t42.5 -7.5q0 18 -7.5 29t-19.5 17.5t-26.5 8.5t-29.5 2q-32 0 -60 -6.5t-57 -20.5l17 135q35 9 70 15t70 6q40 0 72.5 -8.5t62.5 -37.5q32 22 65 34t73 12q45 0 79.5 -15.5t57.5 -42.5t34.5 -63.5
t11.5 -79.5q0 -20 -2.5 -39t-5.5 -39h-252v-4l-1 -9q0 -9 1 -21t5 -22t11 -17t20 -7q16 0 26.5 11t16.5 24l161 -3q-15 -40 -34 -70t-56 -54q-32 -20 -65 -28t-70 -8q-39 0 -70 11t-60 37q-34 -22 -73.5 -35t-80.5 -13q-32 0 -60.5 9.5t-49.5 27.5t-33.5 44t-12.5 60z
M539 291q0 9 -1 20.5t-4.5 21t-11 16.5t-19.5 7q-13 0 -21.5 -6.5t-14 -16t-9 -21t-5.5 -21.5h86zM232 191q-20 0 -35 -13.5t-15 -33.5q0 -19 12 -27t29 -8q21 0 35.5 12.5t14.5 34.5q0 18 -12 26.5t-29 8.5z" />
    <glyph glyph-name="uni04D6" unicode="&#x4d6;" horiz-adv-x="405" 
d="M274 711q-33 0 -64 6.5t-56 21t-43.5 38.5t-27.5 59l127 38q4 -28 21.5 -42t45.5 -14q56 0 65 56l125 -37q-9 -36 -27.5 -60t-44 -38.5t-56.5 -21t-65 -6.5zM18 0l82 667h330l-20 -157h-152l-12 -97h137l-19 -151h-136l-13 -102h152l-19 -160h-330z" />
    <glyph glyph-name="uni04D7" unicode="&#x4d7;" horiz-adv-x="474" 
d="M274 524q-63 0 -107.5 30.5t-55.5 96.5l118 26q-1 -11 2 -22.5t10 -19.5q8 -8 17 -10.5t17 -2.5q26 0 40.5 15.5t19.5 39.5l111 -26q-18 -64 -62.5 -95.5t-109.5 -31.5zM23 181q0 54 16.5 107t48 94.5t78 67.5t105.5 26q45 0 79 -15.5t56.5 -42.5t33.5 -63.5t11 -78.5
q0 -20 -2.5 -39.5t-5.5 -39.5h-250q-1 -5 -1 -9.5v-9.5q0 -8 1 -17.5t4 -17.5t9.5 -13t17.5 -5q15 0 26 9.5t16 22.5h166q-26 -80 -83.5 -123.5t-141.5 -43.5q-91 0 -137.5 51.5t-46.5 139.5zM253 349q-22 0 -33 -20t-13 -39h79v3l1 6q0 17 -6.5 33.5t-27.5 16.5z" />
    <glyph glyph-name="uni04D8" unicode="&#x4d8;" horiz-adv-x="554" 
d="M38 266q0 26 2 49.5t4 42.5l3 27h310q2 56 -4.5 81t-13.5 34q-5 7 -14.5 12.5t-23.5 5.5q-29 0 -44.5 -21.5t-23.5 -46.5l-168 55q36 78 99 126t151 48q60 0 103 -21.5t70.5 -58t40.5 -85.5t13 -104q0 -43 -6.5 -91t-21.5 -95.5t-38.5 -91t-58.5 -78.5
q-20 -20 -39.5 -32.5t-39.5 -20t-42 -10.5t-48 -3q-40 0 -74.5 10t-65.5 42q-21 22 -34.5 49t-21.5 57t-11 60.5t-3 59.5zM212 253q-2 -25 -0.5 -41.5t4.5 -27t7 -15.5t5 -7q13 -13 34 -13q19 0 32.5 10.5t23 26.5t15 34t8.5 33h-129z" />
    <glyph glyph-name="uni04D9" unicode="&#x4d9;" horiz-adv-x="482" 
d="M213 -10q-49 0 -84.5 16.5t-58.5 45t-34.5 68t-11.5 85.5q0 17 2.5 33.5t4.5 30.5h254q1 6 1 14t-0.5 16.5t-3.5 16.5t-8 14q-7 8 -15 9.5t-13 1.5q-34 0 -45 -33l-154 38q32 64 88.5 97.5t127.5 33.5q95 0 145 -54.5t50 -148.5q0 -65 -21 -125.5t-63 -100.5
q-38 -36 -78.5 -47t-82.5 -11zM191 176q-1 -14 1 -28t10 -22q3 -3 9 -6t15 -3q11 0 19 6t13.5 14.5t9 19t4.5 19.5h-81z" />
    <glyph glyph-name="uni04DA" unicode="&#x4da;" horiz-adv-x="554" 
d="M156 784q0 16 6.5 30.5t18 25.5t26 17.5t30.5 6.5q32 0 47.5 -21t15.5 -51q0 -14 -7.5 -27t-19.5 -23t-26 -16t-27 -6q-28 0 -46 18t-18 46zM346 784q0 16 6.5 30.5t17.5 25.5t25.5 17.5t30.5 6.5q28 0 46 -18t18 -46q0 -16 -6.5 -30.5t-18 -25.5t-26 -17.5t-30.5 -6.5
q-27 0 -45 18.5t-18 45.5zM38 266q0 26 2 49.5t4 42.5l3 27h310q2 56 -4.5 81t-13.5 34q-5 7 -14.5 12.5t-23.5 5.5q-29 0 -44.5 -21.5t-23.5 -46.5l-168 55q36 78 99 126t151 48q60 0 103 -21.5t70.5 -58t40.5 -85.5t13 -104q0 -43 -6.5 -91t-21.5 -95.5t-38.5 -91
t-58.5 -78.5q-20 -20 -39.5 -32.5t-39.5 -20t-42 -10.5t-48 -3q-40 0 -74.5 10t-65.5 42q-21 22 -34.5 49t-21.5 57t-11 60.5t-3 59.5zM212 253q-2 -25 -0.5 -41.5t4.5 -27t7 -15.5t5 -7q13 -13 34 -13q19 0 32.5 10.5t23 26.5t15 34t8.5 33h-129z" />
    <glyph glyph-name="uni04DB" unicode="&#x4db;" horiz-adv-x="482" 
d="M104 594q0 16 6.5 30.5t18 25.5t26 17.5t30.5 6.5q32 0 47.5 -21t15.5 -51q0 -14 -7.5 -27t-19.5 -23t-26 -16t-27 -6q-28 0 -46 18t-18 46zM294 594q0 16 6.5 30.5t17.5 25.5t25.5 17.5t30.5 6.5q28 0 46 -18t18 -46q0 -16 -6.5 -30.5t-18 -25.5t-26 -17.5t-30.5 -6.5
q-27 0 -45 18.5t-18 45.5zM213 -10q-49 0 -84.5 16.5t-58.5 45t-34.5 68t-11.5 85.5q0 17 2.5 33.5t4.5 30.5h254q1 6 1 14t-0.5 16.5t-3.5 16.5t-8 14q-7 8 -15 9.5t-13 1.5q-34 0 -45 -33l-154 38q32 64 88.5 97.5t127.5 33.5q95 0 145 -54.5t50 -148.5q0 -65 -21 -125.5
t-63 -100.5q-38 -36 -78.5 -47t-82.5 -11zM191 176q-1 -14 1 -28t10 -22q3 -3 9 -6t15 -3q11 0 19 6t13.5 14.5t9 19t4.5 19.5h-81z" />
    <glyph glyph-name="uni04DC" unicode="&#x4dc;" horiz-adv-x="777" 
d="M267 784q0 16 6.5 30.5t18 25.5t26 17.5t30.5 6.5q32 0 47.5 -21t15.5 -51q0 -14 -7.5 -27t-19.5 -23t-26 -16t-27 -6q-28 0 -46 18t-18 46zM520 720q-27 0 -45 18.5t-18 45.5q0 16 6.5 30.5t17.5 25.5t25.5 17.5t30.5 6.5q28 0 46 -18t18 -46q0 -16 -6.5 -30.5
t-18 -25.5t-26 -17.5t-30.5 -6.5zM-15 0l177 349l-98 318h180l69 -300l31 300h170l-42 -300l142 300h178l-176 -324l93 -343h-182l-61 321l-34 -321h-170l45 321l-140 -321h-182z" />
    <glyph glyph-name="uni04DD" unicode="&#x4dd;" horiz-adv-x="723" 
d="M234 594q0 16 6.5 30.5t18 25.5t26 17.5t30.5 6.5q32 0 47.5 -21t15.5 -51q0 -14 -7.5 -27t-19.5 -23t-26 -16t-27 -6q-28 0 -46 18t-18 46zM424 594q0 16 6.5 30.5t17.5 25.5t25.5 17.5t30.5 6.5q28 0 46 -18t18 -46q0 -16 -6.5 -30.5t-18 -25.5t-26 -17.5t-30.5 -6.5
q-27 0 -45 18.5t-18 45.5zM128 239l-79 228h178l30 -104q4 -14 11.5 -45t14.5 -73l27 222h168l-27 -222q8 20 15.5 36t14 30t13 26.5t13.5 25.5l54 104h180l-137 -228l82 -239h-187l-26 96q-8 31 -14 58.5t-11 61.5l-27 -216h-168l27 216q-14 -33 -27.5 -63t-27.5 -57
l-50 -96h-192z" />
    <glyph glyph-name="uni04DE" unicode="&#x4de;" horiz-adv-x="452" 
d="M153 720q-28 0 -46 18t-18 46q0 16 6.5 30.5t18 25.5t26 17.5t30.5 6.5q32 0 47.5 -21t15.5 -51q0 -14 -7.5 -27t-19.5 -23t-26 -16t-27 -6zM279 784q0 16 6.5 30.5t17.5 25.5t25.5 17.5t30.5 6.5q28 0 46 -18t18 -46q0 -16 -6.5 -30.5t-18 -25.5t-26 -17.5t-30.5 -6.5
q-27 0 -45 18.5t-18 45.5zM45 232q20 -33 48.5 -56.5t69.5 -23.5q29 0 49.5 14t20.5 45q0 17 -7.5 28t-19.5 17t-26.5 8t-28.5 2h-26l17 148h24q14 0 29.5 1.5t29.5 7t23 16t9 28.5q0 14 -7 23.5t-18 15.5t-23.5 8.5t-24.5 2.5q-35 0 -63 -20t-51 -44l24 190
q39 23 74.5 29.5t64.5 6.5q44 0 82 -11t66 -33t44.5 -56t16.5 -81q0 -66 -35 -108t-101 -51q56 0 88 -36t32 -90q0 -44 -18 -88t-51 -75q-34 -32 -81 -47t-99 -15q-35 0 -73 9.5t-84 33.5z" />
    <glyph glyph-name="uni04DF" unicode="&#x4df;" horiz-adv-x="435" 
d="M79 594q0 16 6.5 30.5t18 25.5t26 17.5t30.5 6.5q32 0 47.5 -21t15.5 -51q0 -14 -7.5 -27t-19.5 -23t-26 -16t-27 -6q-28 0 -46 18t-18 46zM269 594q0 16 6.5 30.5t17.5 25.5t25.5 17.5t30.5 6.5q28 0 46 -18t18 -46q0 -16 -6.5 -30.5t-18 -25.5t-26 -17.5t-30.5 -6.5
q-27 0 -45 18.5t-18 45.5zM92 174q13 -23 36.5 -37.5t49.5 -14.5q15 0 29.5 6.5t14.5 24.5q0 7 -4 14.5t-16 11.5q-9 3 -23.5 4t-25.5 1h-20l13 109h30q8 0 19 0.5t20.5 3t16.5 8.5t7 17q0 8 -5 13.5t-12 8.5t-15 4t-14 1q-25 0 -46 -12q-16 -9 -26.5 -20.5t-12.5 -13.5
l-55 127q44 23 84 35t91 12q32 0 64.5 -6.5t58.5 -22.5t42 -41t16 -63q0 -48 -28.5 -75t-74.5 -30q41 -3 67 -27t26 -66q0 -26 -9.5 -51t-31.5 -48q-34 -37 -74.5 -47t-82.5 -10q-56 0 -101 15t-90 48z" />
    <glyph glyph-name="uni04E2" unicode="&#x4e2;" horiz-adv-x="557" 
d="M184 837h335l-12 -94h-335zM18 0l82 667h170l-23 -185q-11 -87 -25 -142.5t-22 -82.5q21 50 45.5 101.5t46.5 93.5l115 215h158l-82 -667h-170l22 178q5 38 14.5 97t22.5 117q-8 -24 -17 -45.5t-19 -44t-22.5 -47t-28.5 -53.5l-109 -202h-158z" />
    <glyph glyph-name="uni04E3" unicode="&#x4e3;" horiz-adv-x="504" 
d="M129 647h335l-12 -94h-335zM11 0l57 467h166l-16 -131q-3 -26 -8.5 -58.5t-13.5 -64.5q2 4 7.5 15.5t12.5 25.5t14 27.5t12 21.5l94 164h158l-57 -467h-166l15 125q2 13 5 31.5t6 37.5t6.5 35.5t4.5 24.5q-8 -20 -21.5 -48t-24.5 -46l-93 -160h-158z" />
    <glyph glyph-name="uni04E4" unicode="&#x4e4;" horiz-adv-x="557" 
d="M179 784q0 16 6.5 30.5t18 25.5t26 17.5t30.5 6.5q32 0 47.5 -21t15.5 -51q0 -14 -7.5 -27t-19.5 -23t-26 -16t-27 -6q-28 0 -46 18t-18 46zM369 784q0 16 6.5 30.5t17.5 25.5t25.5 17.5t30.5 6.5q28 0 46 -18t18 -46q0 -16 -6.5 -30.5t-18 -25.5t-26 -17.5t-30.5 -6.5
q-27 0 -45 18.5t-18 45.5zM100 667h170l-23 -185q-11 -87 -25 -142.5t-22 -82.5q21 50 45.5 101.5t46.5 93.5l115 215h158l-82 -667h-170l22 178q5 38 14.5 97t22.5 117q-8 -24 -17 -45.5t-19 -44t-22.5 -47t-28.5 -53.5l-109 -202h-158z" />
    <glyph glyph-name="uni04E5" unicode="&#x4e5;" horiz-adv-x="504" 
d="M131 594q0 16 6.5 30.5t18 25.5t26 17.5t30.5 6.5q32 0 47.5 -21t15.5 -51q0 -14 -7.5 -27t-19.5 -23t-26 -16t-27 -6q-28 0 -46 18t-18 46zM384 530q-27 0 -45 18.5t-18 45.5q0 16 6.5 30.5t17.5 25.5t25.5 17.5t30.5 6.5q28 0 46 -18t18 -46q0 -16 -6.5 -30.5
t-18 -25.5t-26 -17.5t-30.5 -6.5zM11 0l57 467h166l-16 -131q-3 -26 -8.5 -58.5t-13.5 -64.5q2 4 7.5 15.5t12.5 25.5t14 27.5t12 21.5l94 164h158l-57 -467h-166l15 125q2 13 5 31.5t6 37.5t6.5 35.5t4.5 24.5q-8 -20 -21.5 -48t-24.5 -46l-93 -160h-158z" />
    <glyph glyph-name="uni04E6" unicode="&#x4e6;" horiz-adv-x="558" 
d="M248 720q-28 0 -46 18t-18 46q0 16 6.5 30.5t18 25.5t26 17.5t30.5 6.5q32 0 47.5 -21t15.5 -51q0 -14 -7.5 -27t-19.5 -23t-26 -16t-27 -6zM374 784q0 16 6.5 30.5t17.5 25.5t25.5 17.5t30.5 6.5q28 0 46 -18t18 -46q0 -16 -6.5 -30.5t-18 -25.5t-26 -17.5t-30.5 -6.5
q-27 0 -45 18.5t-18 45.5zM108 50q-24 24 -37.5 51t-21 55t-9.5 55t-2 52q0 62 10 114.5t27 95t39.5 75.5t46.5 57q24 23 48 37.5t46.5 22.5t43.5 11t38 3q56 0 96 -22.5t65 -60t36.5 -85t11.5 -97.5q0 -43 -7 -91.5t-22 -96t-38.5 -90.5t-55.5 -76t-74 -52.5t-95 -19.5
q-32 0 -71.5 12.5t-74.5 49.5zM315 511q-18 0 -32.5 -15t-24.5 -38.5t-17 -52.5t-11 -56.5t-6 -50.5t-2 -36q0 -12 1 -29.5t5.5 -34.5t14.5 -29t27 -12q19 0 33 15t24 38.5t17 52t11 56t5.5 51t1.5 36.5q0 26 -2.5 43t-5.5 28t-7 16.5t-7 8.5q-10 9 -25 9z" />
    <glyph glyph-name="uni04E7" unicode="&#x4e7;" horiz-adv-x="480" 
d="M119 594q0 16 6.5 30.5t18 25.5t26 17.5t30.5 6.5q32 0 47.5 -21t15.5 -51q0 -14 -7.5 -27t-19.5 -23t-26 -16t-27 -6q-28 0 -46 18t-18 46zM372 530q-27 0 -45 18.5t-18 45.5q0 16 6.5 30.5t17.5 25.5t25.5 17.5t30.5 6.5q28 0 46 -18t18 -46q0 -16 -6.5 -30.5
t-18 -25.5t-26 -17.5t-30.5 -6.5zM24 190q0 55 16 106.5t47.5 91.5t77.5 64.5t105 24.5q46 0 80.5 -14.5t58 -40.5t35.5 -63t12 -81q0 -57 -15.5 -109.5t-47 -92t-77.5 -63t-108 -23.5q-46 0 -81 14.5t-57.5 41t-34 63t-11.5 81.5zM254 346q-18 0 -30.5 -19t-20 -44
t-10.5 -50.5t-3 -37.5q0 -9 1 -21.5t5 -24.5t11.5 -20t19.5 -8q18 0 30.5 19t20 44.5t10.5 51t3 37.5q0 9 -1.5 21.5t-5 24t-11 19.5t-19.5 8z" />
    <glyph glyph-name="uni04E8" unicode="&#x4e8;" horiz-adv-x="558" 
d="M38 263q0 62 10 114.5t27 95t39.5 75.5t46.5 57q24 23 48 37.5t46.5 22.5t43.5 11t38 3q56 0 96 -22.5t65 -60t36.5 -85t11.5 -97.5q0 -43 -7 -91.5t-22 -96t-38.5 -90.5t-55.5 -76t-74 -52.5t-95 -19.5q-32 0 -71.5 12.5t-74.5 49.5q-24 24 -37.5 51t-21 55t-9.5 55
t-2 52zM315 515q-16 0 -28.5 -12.5t-22.5 -29.5t-16 -35.5t-8 -30.5h122q1 11 0.5 24.5t-3 28t-7 27t-12.5 19.5q-9 9 -25 9zM222 276q0 -16 1 -33t3.5 -32.5t7 -28t11.5 -19.5q10 -10 25 -10q18 0 32 14t24 33.5t15.5 40.5t6.5 35h-126z" />
    <glyph glyph-name="uni04E9" unicode="&#x4e9;" horiz-adv-x="480" 
d="M24 190q0 55 16 106.5t47.5 91.5t77.5 64.5t105 24.5q46 0 80.5 -14.5t58 -40.5t35.5 -63t12 -81q0 -57 -15.5 -109.5t-47 -92t-77.5 -63t-108 -23.5q-46 0 -81 14.5t-57.5 41t-34 63t-11.5 81.5zM253 354q-11 0 -20 -6.5t-15.5 -16t-10.5 -20.5t-6 -20h92q-1 10 -2.5 21
t-6 20.5t-12 15.5t-19.5 6zM188 185q0 -9 1.5 -21.5t5.5 -24t11.5 -19t20.5 -7.5t22.5 7t16.5 18t11 23.5t5 23.5h-94z" />
    <glyph glyph-name="uni04EA" unicode="&#x4ea;" horiz-adv-x="558" 
d="M184 784q0 16 6.5 30.5t18 25.5t26 17.5t30.5 6.5q32 0 47.5 -21t15.5 -51q0 -14 -7.5 -27t-19.5 -23t-26 -16t-27 -6q-28 0 -46 18t-18 46zM437 720q-27 0 -45 18.5t-18 45.5q0 16 6.5 30.5t17.5 25.5t25.5 17.5t30.5 6.5q28 0 46 -18t18 -46q0 -16 -6.5 -30.5
t-18 -25.5t-26 -17.5t-30.5 -6.5zM38 263q0 62 10 114.5t27 95t39.5 75.5t46.5 57q24 23 48 37.5t46.5 22.5t43.5 11t38 3q56 0 96 -22.5t65 -60t36.5 -85t11.5 -97.5q0 -43 -7 -91.5t-22 -96t-38.5 -90.5t-55.5 -76t-74 -52.5t-95 -19.5q-32 0 -71.5 12.5t-74.5 49.5
q-24 24 -37.5 51t-21 55t-9.5 55t-2 52zM315 515q-16 0 -28.5 -12.5t-22.5 -29.5t-16 -35.5t-8 -30.5h122q1 11 0.5 24.5t-3 28t-7 27t-12.5 19.5q-9 9 -25 9zM222 276q0 -16 1 -33t3.5 -32.5t7 -28t11.5 -19.5q10 -10 25 -10q18 0 32 14t24 33.5t15.5 40.5t6.5 35h-126z
" />
    <glyph glyph-name="uni04EB" unicode="&#x4eb;" horiz-adv-x="480" 
d="M183 530q-28 0 -46 18t-18 46q0 16 6.5 30.5t18 25.5t26 17.5t30.5 6.5q32 0 47.5 -21t15.5 -51q0 -14 -7.5 -27t-19.5 -23t-26 -16t-27 -6zM372 530q-27 0 -45 18.5t-18 45.5q0 16 6.5 30.5t17.5 25.5t25.5 17.5t30.5 6.5q28 0 46 -18t18 -46q0 -16 -6.5 -30.5
t-18 -25.5t-26 -17.5t-30.5 -6.5zM24 190q0 55 16 106.5t47.5 91.5t77.5 64.5t105 24.5q46 0 80.5 -14.5t58 -40.5t35.5 -63t12 -81q0 -57 -15.5 -109.5t-47 -92t-77.5 -63t-108 -23.5q-46 0 -81 14.5t-57.5 41t-34 63t-11.5 81.5zM253 354q-11 0 -20 -6.5t-15.5 -16
t-10.5 -20.5t-6 -20h92q-1 10 -2.5 21t-6 20.5t-12 15.5t-19.5 6zM188 185q0 -9 1.5 -21.5t5.5 -24t11.5 -19t20.5 -7.5t22.5 7t16.5 18t11 23.5t5 23.5h-94z" />
    <glyph glyph-name="uni04EE" unicode="&#x4ee;" 
d="M137 743l12 94h335l-12 -94h-335zM54 667h184l23 -109q8 -38 12 -72t5 -69q11 38 22.5 73t26.5 73l41 104h186l-318 -667h-177l108 230z" />
    <glyph glyph-name="uni04EF" unicode="&#x4ef;" horiz-adv-x="458" 
d="M99 647h335l-12 -94h-335zM10 -215l110 234l-82 448h172q7 -59 14.5 -117t7.5 -118v-7l-1 -15v-8q11 42 22 83t26 81l38 101h170l-301 -682h-176z" />
    <glyph glyph-name="uni04F0" unicode="&#x4f0;" 
d="M213 720q-28 0 -46 18t-18 46q0 16 6.5 30.5t18 25.5t26 17.5t30.5 6.5q32 0 47.5 -21t15.5 -51q0 -14 -7.5 -27t-19.5 -23t-26 -16t-27 -6zM339 784q0 16 6.5 30.5t17.5 25.5t25.5 17.5t30.5 6.5q28 0 46 -18t18 -46q0 -16 -6.5 -30.5t-18 -25.5t-26 -17.5t-30.5 -6.5
q-27 0 -45 18.5t-18 45.5zM54 667h184l23 -109q8 -38 12 -72t5 -69q11 38 22.5 73t26.5 73l41 104h186l-318 -667h-177l108 230z" />
    <glyph glyph-name="uni04F1" unicode="&#x4f1;" horiz-adv-x="458" 
d="M168 530q-28 0 -46 18t-18 46q0 16 6.5 30.5t18 25.5t26 17.5t30.5 6.5q32 0 47.5 -21t15.5 -51q0 -14 -7.5 -27t-19.5 -23t-26 -16t-27 -6zM357 530q-27 0 -45 18.5t-18 45.5q0 16 6.5 30.5t17.5 25.5t25.5 17.5t30.5 6.5q28 0 46 -18t18 -46q0 -16 -6.5 -30.5
t-18 -25.5t-26 -17.5t-30.5 -6.5zM10 -215l110 234l-82 448h172q7 -59 14.5 -117t7.5 -118v-7l-1 -15v-8q11 42 22 83t26 81l38 101h170l-301 -682h-176z" />
    <glyph glyph-name="uni04F2" unicode="&#x4f2;" 
d="M323 720l65 148h128l-105 -148h-88zM159 720l65 148h127l-104 -148h-88zM54 667h184l23 -109q8 -38 12 -72t5 -69q11 38 22.5 73t26.5 73l41 104h186l-318 -667h-177l108 230z" />
    <glyph glyph-name="uni04F3" unicode="&#x4f3;" horiz-adv-x="458" 
d="M343 678h128l-105 -148h-88zM114 530l65 148h127l-104 -148h-88zM120 19l-82 448h172q7 -59 14.5 -117t7.5 -118v-7l-1 -15v-8q11 42 22 83t26 81l38 101h170l-301 -682h-176z" />
    <glyph glyph-name="uni04F4" unicode="&#x4f4;" horiz-adv-x="521" 
d="M159 784q0 16 6.5 30.5t18 25.5t26 17.5t30.5 6.5q32 0 47.5 -21t15.5 -51q0 -14 -7.5 -27t-19.5 -23t-26 -16t-27 -6q-28 0 -46 18t-18 46zM349 784q0 16 6.5 30.5t17.5 25.5t25.5 17.5t30.5 6.5q28 0 46 -18t18 -46q0 -16 -6.5 -30.5t-18 -25.5t-26 -17.5t-30.5 -6.5
q-27 0 -45 18.5t-18 45.5zM224 258q-34 0 -64 9t-52 27t-35 45t-13 64q0 7 0.5 17t1.5 21t2 20.5t2 15.5l24 190h176l-22 -178q-2 -14 -2.5 -20t-0.5 -10q0 -22 14 -32.5t34 -10.5q6 0 14.5 1t18.5 6l30 244h177l-82 -667h-177l33 269q-21 -6 -40 -8.5t-39 -2.5z" />
    <glyph glyph-name="uni04F5" unicode="&#x4f5;" horiz-adv-x="476" 
d="M109 594q0 16 6.5 30.5t18 25.5t26 17.5t30.5 6.5q32 0 47.5 -21t15.5 -51q0 -14 -7.5 -27t-19.5 -23t-26 -16t-27 -6q-28 0 -46 18t-18 46zM362 530q-27 0 -45 18.5t-18 45.5q0 16 6.5 30.5t17.5 25.5t25.5 17.5t30.5 6.5q28 0 46 -18t18 -46q0 -16 -6.5 -30.5
t-18 -25.5t-26 -17.5t-30.5 -6.5zM186 151q-63 0 -104.5 30.5t-41.5 97.5q0 5 0.5 13.5t1.5 18t1.5 18.5t1.5 15l15 123h170l-15 -122q-1 -5 -1.5 -13.5t-0.5 -12.5q0 -16 9 -23t24 -7t27 8l21 170h172l-57 -467h-172l20 161q-34 -10 -71 -10z" />
    <glyph glyph-name="uni04F8" unicode="&#x4f8;" horiz-adv-x="751" 
d="M328 720q-28 0 -46 18t-18 46q0 16 6.5 30.5t18 25.5t26 17.5t30.5 6.5q32 0 47.5 -21t15.5 -51q0 -14 -7.5 -27t-19.5 -23t-26 -16t-27 -6zM517 720q-27 0 -45 18.5t-18 45.5q0 16 6.5 30.5t17.5 25.5t25.5 17.5t30.5 6.5q28 0 46 -18t18 -46q0 -16 -6.5 -30.5
t-18 -25.5t-26 -17.5t-30.5 -6.5zM100 667h177l-30 -245h8q46 0 87 -10t72 -32.5t49 -57.5t18 -86t-17.5 -95.5t-47.5 -74.5q-22 -22 -46.5 -35t-50 -20t-51 -9t-48.5 -2h-202zM497 0l79 667h183l-85 -667h-177zM213 145q4 -1 12 -1q35 0 57 20.5t22 55.5q0 29 -18 44
t-46 15q-7 0 -11 -1z" />
    <glyph glyph-name="uni04F9" unicode="&#x4f9;" horiz-adv-x="694" 
d="M288 530q-28 0 -46 18t-18 46q0 16 6.5 30.5t18 25.5t26 17.5t30.5 6.5q32 0 47.5 -21t15.5 -51q0 -14 -7.5 -27t-19.5 -23t-26 -16t-27 -6zM477 530q-27 0 -45 18.5t-18 45.5q0 16 6.5 30.5t17.5 25.5t25.5 17.5t30.5 6.5q28 0 46 -18t18 -46q0 -16 -6.5 -30.5
t-18 -25.5t-26 -17.5t-30.5 -6.5zM67 467h172l-20 -166h49q34 0 65.5 -6.5t55.5 -22.5t38.5 -42t14.5 -65q0 -42 -14 -73.5t-38.5 -51.5t-58 -30t-73.5 -10h-248zM511 467h172l-57 -467h-172zM196 110h5q12 0 25 1t23 5.5t16.5 13.5t6.5 25q0 13 -5.5 20.5t-14.5 11.5
t-19.5 5t-20.5 1h-6z" />
    <glyph glyph-name="Germandbls" unicode="&#x1e9e;" horiz-adv-x="521" 
d="M18 0l54 439q6 53 24.5 97t48.5 76t73 49.5t99 17.5q33 0 68 -7t67 -34q32 -26 46.5 -65t11.5 -83l-91 -99q24 -6 39 -20t23.5 -33t12 -41t3.5 -43q0 -54 -21.5 -107t-69.5 -92q-35 -29 -74 -42t-93 -13l18 145q17 1 27.5 12t16.5 26t8.5 31.5t2.5 29.5q0 18 -7 36
t-29 20l14 118l45 59q2 10 2 20q0 16 -9 27t-26 11q-26 0 -36 -19.5t-13 -41.5l-58 -474h-177z" />
    <glyph glyph-name="uni1EA0" unicode="&#x1ea0;" horiz-adv-x="524" 
d="M-23 0l240 667h217l57 -667h-183l-3 85h-119l-25 -85h-184zM302 227q-1 20 -1.5 39t-0.5 39v87q0 29 1 57.5t2 57.5q-6 -23 -11 -47t-12 -47q-14 -47 -26.5 -93t-26.5 -93h75zM157 -113q0 27 19 45.5t44 18.5q27 0 46.5 -18.5t19.5 -45.5q0 -26 -19 -44.5t-47 -18.5
q-26 0 -44.5 19t-18.5 44z" />
    <glyph glyph-name="uni1EA1" unicode="&#x1ea1;" horiz-adv-x="489" 
d="M23 167q0 28 3.5 61.5t12 68t22 67t33.5 57.5t46.5 40.5t61.5 15.5q43 0 64 -24t35 -60q0 5 0.5 9.5t0.5 9.5l2 36q0 5 0.5 9.5t0.5 9.5h174l-57 -467h-171l15 79q-23 -38 -53 -63.5t-77 -25.5q-34 0 -56 17.5t-35 43.5t-17.5 57.5t-4.5 58.5zM254 334q-18 0 -29.5 -18
t-18 -42t-9 -48.5t-2.5 -37.5q0 -8 1 -17.5t4 -18t9 -14t17 -5.5q18 0 29 19.5t17 45.5t8 51.5t2 38.5q0 14 -4.5 30t-23.5 16zM186 -176q-26 0 -44.5 19t-18.5 44q0 27 19 45.5t44 18.5q27 0 46.5 -18.5t19.5 -45.5q0 -26 -19 -44.5t-47 -18.5z" />
    <glyph glyph-name="uni1EA2" unicode="&#x1ea2;" horiz-adv-x="524" 
d="M260 798q2 6 8 14.5t16 16t24.5 12.5t33.5 5q42 0 59.5 -19.5t13.5 -51.5q-2 -19 -10 -31t-17 -19t-17.5 -10t-12.5 -4l-1 -10h-60l6 49q5 0 11.5 0.5t13 3t11.5 6.5t6 10q1 8 -3 12.5t-8 4.5q-5 0 -11 -2t-12 -12zM-23 0l240 667h217l57 -667h-183l-3 85h-119l-25 -85
h-184zM280 413q-14 -47 -26.5 -93t-26.5 -93h75q-1 20 -1.5 39t-0.5 39v87q0 29 1 57.5t2 57.5q-6 -23 -11 -47t-12 -47z" />
    <glyph glyph-name="uni1EA3" unicode="&#x1ea3;" horiz-adv-x="489" 
d="M199 597q2 6 8 14.5t16 16t24.5 12.5t33.5 5q42 0 59.5 -19.5t13.5 -51.5q-2 -19 -10 -31t-17 -19t-17.5 -10t-12.5 -4l-1 -10h-60l6 49q5 0 11.5 0.5t13 3t11.5 6.5t6 10q1 8 -3 12.5t-8 4.5q-5 0 -11 -2t-12 -12zM136 -10q-34 0 -56 17.5t-35 43.5t-17.5 57.5
t-4.5 58.5q0 28 3.5 61.5t12 68t22 67t33.5 57.5t46.5 40.5t61.5 15.5q43 0 64 -24t35 -60q0 5 0.5 9.5t0.5 9.5l2 36q0 5 0.5 9.5t0.5 9.5h174l-57 -467h-171l15 79q-23 -38 -53 -63.5t-77 -25.5zM254 334q-18 0 -29.5 -18t-18 -42t-9 -48.5t-2.5 -37.5q0 -8 1 -17.5t4 -18
t9 -14t17 -5.5q18 0 29 19.5t17 45.5t8 51.5t2 38.5q0 14 -4.5 30t-23.5 16z" />
    <glyph glyph-name="uni1EA4" unicode="&#x1ea4;" horiz-adv-x="524" 
d="M386 842l127 94l48 -67l-134 -82zM350 841l96 -91l-62 -49l-47 38l-56 -38l-50 49zM-23 0l240 667h217l57 -667h-183l-3 85h-119l-25 -85h-184zM302 227q-1 20 -1.5 39t-0.5 39v87q0 29 1 57.5t2 57.5q-6 -23 -11 -47t-12 -47q-14 -47 -26.5 -93t-26.5 -93h75z" />
    <glyph glyph-name="uni1EA5" unicode="&#x1ea5;" horiz-adv-x="489" 
d="M324 640l127 94l48 -67l-134 -82zM169 548l119 91l96 -91l-62 -49l-47 38l-56 -38zM23 167q0 28 3.5 61.5t12 68t22 67t33.5 57.5t46.5 40.5t61.5 15.5q43 0 64 -24t35 -60q0 5 0.5 9.5t0.5 9.5l2 36q0 5 0.5 9.5t0.5 9.5h174l-57 -467h-171l15 79q-23 -38 -53 -63.5
t-77 -25.5q-34 0 -56 17.5t-35 43.5t-17.5 57.5t-4.5 58.5zM195 188q0 -8 1 -17.5t4 -18t9 -14t17 -5.5q18 0 29 19.5t17 45.5t8 51.5t2 38.5q0 14 -4.5 30t-23.5 16q-18 0 -29.5 -18t-18 -42t-9 -48.5t-2.5 -37.5z" />
    <glyph glyph-name="uni1EA6" unicode="&#x1ea6;" horiz-adv-x="524" 
d="M339 869l65 67l101 -94l-55 -55zM350 841l96 -91l-62 -49l-47 38l-56 -38l-50 49zM-23 0l240 667h217l57 -667h-183l-3 85h-119l-25 -85h-184zM302 227q-1 20 -1.5 39t-0.5 39v87q0 29 1 57.5t2 57.5q-6 -23 -11 -47t-12 -47q-14 -47 -26.5 -93t-26.5 -93h75z" />
    <glyph glyph-name="uni1EA7" unicode="&#x1ea7;" horiz-adv-x="489" 
d="M277 667l65 67l101 -94l-55 -55zM288 639l96 -91l-62 -49l-47 38l-56 -38l-50 49zM23 167q0 28 3.5 61.5t12 68t22 67t33.5 57.5t46.5 40.5t61.5 15.5q43 0 64 -24t35 -60q0 5 0.5 9.5t0.5 9.5l2 36q0 5 0.5 9.5t0.5 9.5h174l-57 -467h-171l15 79q-23 -38 -53 -63.5
t-77 -25.5q-34 0 -56 17.5t-35 43.5t-17.5 57.5t-4.5 58.5zM254 334q-18 0 -29.5 -18t-18 -42t-9 -48.5t-2.5 -37.5q0 -8 1 -17.5t4 -18t9 -14t17 -5.5q18 0 29 19.5t17 45.5t8 51.5t2 38.5q0 14 -4.5 30t-23.5 16z" />
    <glyph glyph-name="uni1EA8" unicode="&#x1ea8;" horiz-adv-x="524" 
d="M384 888q2 6 8 14.5t16 16t24.5 12.5t33.5 5q42 0 59.5 -19.5t13.5 -51.5q-2 -19 -10 -31t-17 -19t-17.5 -10t-12.5 -4l-1 -10h-60l6 49q5 0 11.5 0.5t13 3t11.5 6.5t6 10q1 8 -3 12.5t-8 4.5q-5 0 -11 -2t-12 -12zM231 750l119 91l96 -91l-62 -49l-47 38l-56 -38z
M217 667h217l57 -667h-183l-3 85h-119l-25 -85h-184zM280 413q-14 -47 -26.5 -93t-26.5 -93h75q-1 20 -1.5 39t-0.5 39v87q0 29 1 57.5t2 57.5q-6 -23 -11 -47t-12 -47z" />
    <glyph glyph-name="uni1EA9" unicode="&#x1ea9;" horiz-adv-x="489" 
d="M322 686q2 6 8 14.5t16 16t24.5 12.5t33.5 5q42 0 59.5 -19.5t13.5 -51.5q-2 -19 -10 -31t-17 -19t-17.5 -10t-12.5 -4l-1 -10h-60l6 49q5 0 11.5 0.5t13 3t11.5 6.5t6 10q1 8 -3 12.5t-8 4.5q-5 0 -11 -2t-12 -12zM288 639l96 -91l-62 -49l-47 38l-56 -38l-50 49z
M136 -10q-34 0 -56 17.5t-35 43.5t-17.5 57.5t-4.5 58.5q0 28 3.5 61.5t12 68t22 67t33.5 57.5t46.5 40.5t61.5 15.5q43 0 64 -24t35 -60q0 5 0.5 9.5t0.5 9.5l2 36q0 5 0.5 9.5t0.5 9.5h174l-57 -467h-171l15 79q-23 -38 -53 -63.5t-77 -25.5zM254 334q-18 0 -29.5 -18
t-18 -42t-9 -48.5t-2.5 -37.5q0 -8 1 -17.5t4 -18t9 -14t17 -5.5q18 0 29 19.5t17 45.5t8 51.5t2 38.5q0 14 -4.5 30t-23.5 16z" />
    <glyph glyph-name="uni1EAA" unicode="&#x1eaa;" horiz-adv-x="524" 
d="M248 882q7 24 26 45t46 21q18 0 28.5 -5t18.5 -10.5t14.5 -10.5t16.5 -5q7 0 15 9t13 21l39 -37q-4 -26 -24 -46t-47 -20q-15 0 -25.5 5t-18.5 10.5t-14 10.5t-13 5q-8 0 -17.5 -6.5t-18.5 -23.5zM231 750l119 91l96 -91l-62 -49l-47 38l-56 -38zM217 667h217l57 -667
h-183l-3 85h-119l-25 -85h-184zM280 413q-14 -47 -26.5 -93t-26.5 -93h75q-1 20 -1.5 39t-0.5 39v87q0 29 1 57.5t2 57.5q-6 -23 -11 -47t-12 -47z" />
    <glyph glyph-name="uni1EAB" unicode="&#x1eab;" horiz-adv-x="489" 
d="M186 680q7 24 26 45t46 21q18 0 28.5 -5t18.5 -10.5t14.5 -10.5t16.5 -5q7 0 15 9t13 21l39 -37q-4 -26 -24 -46t-47 -20q-15 0 -25.5 5t-18.5 10.5t-14 10.5t-13 5q-8 0 -17.5 -6.5t-18.5 -23.5zM169 548l119 91l96 -91l-62 -49l-47 38l-56 -38zM23 167q0 28 3.5 61.5
t12 68t22 67t33.5 57.5t46.5 40.5t61.5 15.5q43 0 64 -24t35 -60q0 5 0.5 9.5t0.5 9.5l2 36q0 5 0.5 9.5t0.5 9.5h174l-57 -467h-171l15 79q-23 -38 -53 -63.5t-77 -25.5q-34 0 -56 17.5t-35 43.5t-17.5 57.5t-4.5 58.5zM195 188q0 -8 1 -17.5t4 -18t9 -14t17 -5.5
q18 0 29 19.5t17 45.5t8 51.5t2 38.5q0 14 -4.5 30t-23.5 16q-18 0 -29.5 -18t-18 -42t-9 -48.5t-2.5 -37.5z" />
    <glyph glyph-name="uni1EAC" unicode="&#x1eac;" horiz-adv-x="524" 
d="M350 841l96 -91l-62 -49l-47 38l-56 -38l-50 49zM217 667h217l57 -667h-183l-3 85h-119l-25 -85h-184zM302 227q-1 20 -1.5 39t-0.5 39v87q0 29 1 57.5t2 57.5q-6 -23 -11 -47t-12 -47q-14 -47 -26.5 -93t-26.5 -93h75zM220 -176q-26 0 -44.5 19t-18.5 44q0 27 19 45.5
t44 18.5q27 0 46.5 -18.5t19.5 -45.5q0 -26 -19 -44.5t-47 -18.5z" />
    <glyph glyph-name="uni1EAD" unicode="&#x1ead;" horiz-adv-x="489" 
d="M169 548l119 91l96 -91l-62 -49l-47 38l-56 -38zM136 -10q-34 0 -56 17.5t-35 43.5t-17.5 57.5t-4.5 58.5q0 28 3.5 61.5t12 68t22 67t33.5 57.5t46.5 40.5t61.5 15.5q43 0 64 -24t35 -60q0 5 0.5 9.5t0.5 9.5l2 36q0 5 0.5 9.5t0.5 9.5h174l-57 -467h-171l15 79
q-23 -38 -53 -63.5t-77 -25.5zM254 334q-18 0 -29.5 -18t-18 -42t-9 -48.5t-2.5 -37.5q0 -8 1 -17.5t4 -18t9 -14t17 -5.5q18 0 29 19.5t17 45.5t8 51.5t2 38.5q0 14 -4.5 30t-23.5 16zM123 -113q0 27 19 45.5t44 18.5q27 0 46.5 -18.5t19.5 -45.5q0 -26 -19 -44.5
t-47 -18.5q-26 0 -44.5 19t-18.5 44z" />
    <glyph glyph-name="uni1EAE" unicode="&#x1eae;" horiz-adv-x="524" 
d="M421 964l48 -67l-134 -82l-41 55zM329 701q-31 0 -49.5 9.5t-27.5 24.5t-10.5 33.5t1.5 36.5h80q-5 -32 17 -32q9 0 17.5 8t12.5 24h81q-3 -17 -10.5 -35.5t-21.5 -33.5t-36 -25t-54 -10zM217 667h217l57 -667h-183l-3 85h-119l-25 -85h-184zM302 227q-1 20 -1.5 39
t-0.5 39v87q0 29 1 57.5t2 57.5q-6 -23 -11 -47t-12 -47q-14 -47 -26.5 -93t-26.5 -93h75z" />
    <glyph glyph-name="uni1EAF" unicode="&#x1eaf;" horiz-adv-x="489" 
d="M365 762l48 -67l-134 -82l-41 55zM273 499q-31 0 -49.5 9.5t-27.5 24.5t-10.5 33.5t1.5 36.5h80q-5 -32 17 -32q9 0 17.5 8t12.5 24h81q-3 -17 -10.5 -35.5t-21.5 -33.5t-36 -25t-54 -10zM23 167q0 28 3.5 61.5t12 68t22 67t33.5 57.5t46.5 40.5t61.5 15.5q43 0 64 -24
t35 -60q0 5 0.5 9.5t0.5 9.5l2 36q0 5 0.5 9.5t0.5 9.5h174l-57 -467h-171l15 79q-23 -38 -53 -63.5t-77 -25.5q-34 0 -56 17.5t-35 43.5t-17.5 57.5t-4.5 58.5zM254 334q-18 0 -29.5 -18t-18 -42t-9 -48.5t-2.5 -37.5q0 -8 1 -17.5t4 -18t9 -14t17 -5.5q18 0 29 19.5
t17 45.5t8 51.5t2 38.5q0 14 -4.5 30t-23.5 16z" />
    <glyph glyph-name="uni1EB0" unicode="&#x1eb0;" horiz-adv-x="524" 
d="M246 897l65 67l101 -94l-55 -55zM329 701q-31 0 -49.5 9.5t-27.5 24.5t-10.5 33.5t1.5 36.5h80q-5 -32 17 -32q9 0 17.5 8t12.5 24h81q-3 -17 -10.5 -35.5t-21.5 -33.5t-36 -25t-54 -10zM217 667h217l57 -667h-183l-3 85h-119l-25 -85h-184zM302 227q-1 20 -1.5 39
t-0.5 39v87q0 29 1 57.5t2 57.5q-6 -23 -11 -47t-12 -47q-14 -47 -26.5 -93t-26.5 -93h75z" />
    <glyph glyph-name="uni1EB1" unicode="&#x1eb1;" horiz-adv-x="489" 
d="M255 762l101 -94l-55 -55l-111 82zM273 499q-31 0 -49.5 9.5t-27.5 24.5t-10.5 33.5t1.5 36.5h80q-5 -32 17 -32q9 0 17.5 8t12.5 24h81q-3 -17 -10.5 -35.5t-21.5 -33.5t-36 -25t-54 -10zM136 -10q-34 0 -56 17.5t-35 43.5t-17.5 57.5t-4.5 58.5q0 28 3.5 61.5t12 68
t22 67t33.5 57.5t46.5 40.5t61.5 15.5q43 0 64 -24t35 -60q0 5 0.5 9.5t0.5 9.5l2 36q0 5 0.5 9.5t0.5 9.5h174l-57 -467h-171l15 79q-23 -38 -53 -63.5t-77 -25.5zM254 334q-18 0 -29.5 -18t-18 -42t-9 -48.5t-2.5 -37.5q0 -8 1 -17.5t4 -18t9 -14t17 -5.5q18 0 29 19.5
t17 45.5t8 51.5t2 38.5q0 14 -4.5 30t-23.5 16z" />
    <glyph glyph-name="uni1EB2" unicode="&#x1eb2;" horiz-adv-x="524" 
d="M281 917q2 6 8 14.5t16 16t24.5 12.5t33.5 5q42 0 59.5 -19.5t13.5 -51.5q-2 -19 -10 -31t-17 -19t-17.5 -10t-12.5 -4l-1 -10h-60l6 49q5 0 11.5 0.5t13 3t11.5 6.5t6 10q1 8 -3 12.5t-8 4.5q-5 0 -11 -2t-12 -12zM329 701q-31 0 -49.5 9.5t-27.5 24.5t-10.5 33.5
t1.5 36.5h80q-5 -32 17 -32q9 0 17.5 8t12.5 24h81q-3 -17 -10.5 -35.5t-21.5 -33.5t-36 -25t-54 -10zM217 667h217l57 -667h-183l-3 85h-119l-25 -85h-184zM302 227q-1 20 -1.5 39t-0.5 39v87q0 29 1 57.5t2 57.5q-6 -23 -11 -47t-12 -47q-14 -47 -26.5 -93t-26.5 -93h75z
" />
    <glyph glyph-name="uni1EB3" unicode="&#x1eb3;" horiz-adv-x="489" 
d="M225 714q2 6 8 14.5t16 16t24.5 12.5t33.5 5q42 0 59.5 -19.5t13.5 -51.5q-2 -19 -10 -31t-17 -19t-17.5 -10t-12.5 -4l-1 -10h-60l6 49q5 0 11.5 0.5t13 3t11.5 6.5t6 10q1 8 -3 12.5t-8 4.5q-5 0 -11 -2t-12 -12zM273 499q-31 0 -49.5 9.5t-27.5 24.5t-10.5 33.5
t1.5 36.5h80q-5 -32 17 -32q9 0 17.5 8t12.5 24h81q-3 -17 -10.5 -35.5t-21.5 -33.5t-36 -25t-54 -10zM23 167q0 28 3.5 61.5t12 68t22 67t33.5 57.5t46.5 40.5t61.5 15.5q43 0 64 -24t35 -60q0 5 0.5 9.5t0.5 9.5l2 36q0 5 0.5 9.5t0.5 9.5h174l-57 -467h-171l15 79
q-23 -38 -53 -63.5t-77 -25.5q-34 0 -56 17.5t-35 43.5t-17.5 57.5t-4.5 58.5zM254 334q-18 0 -29.5 -18t-18 -42t-9 -48.5t-2.5 -37.5q0 -8 1 -17.5t4 -18t9 -14t17 -5.5q18 0 29 19.5t17 45.5t8 51.5t2 38.5q0 14 -4.5 30t-23.5 16z" />
    <glyph glyph-name="uni1EB4" unicode="&#x1eb4;" horiz-adv-x="524" 
d="M247 858q7 24 26 45t46 21q18 0 28.5 -5t18.5 -10.5t14.5 -10.5t16.5 -5q7 0 15 9t13 21l39 -37q-4 -26 -24 -46t-47 -20q-15 0 -25.5 5t-18.5 10.5t-14 10.5t-13 5q-8 0 -17.5 -6.5t-18.5 -23.5zM329 701q-31 0 -49.5 9.5t-27.5 24.5t-10.5 33.5t1.5 36.5h80
q-5 -32 17 -32q9 0 17.5 8t12.5 24h81q-3 -17 -10.5 -35.5t-21.5 -33.5t-36 -25t-54 -10zM-23 0l240 667h217l57 -667h-183l-3 85h-119l-25 -85h-184zM280 413q-14 -47 -26.5 -93t-26.5 -93h75q-1 20 -1.5 39t-0.5 39v87q0 29 1 57.5t2 57.5q-6 -23 -11 -47t-12 -47z" />
    <glyph glyph-name="uni1EB5" unicode="&#x1eb5;" horiz-adv-x="489" 
d="M191 656q7 24 26 45t46 21q18 0 28.5 -5t18.5 -10.5t14.5 -10.5t16.5 -5q7 0 15 9t13 21l39 -37q-4 -26 -24 -46t-47 -20q-15 0 -25.5 5t-18.5 10.5t-14 10.5t-13 5q-8 0 -17.5 -6.5t-18.5 -23.5zM273 499q-31 0 -49.5 9.5t-27.5 24.5t-10.5 33.5t1.5 36.5h80
q-5 -32 17 -32q9 0 17.5 8t12.5 24h81q-3 -17 -10.5 -35.5t-21.5 -33.5t-36 -25t-54 -10zM136 -10q-34 0 -56 17.5t-35 43.5t-17.5 57.5t-4.5 58.5q0 28 3.5 61.5t12 68t22 67t33.5 57.5t46.5 40.5t61.5 15.5q43 0 64 -24t35 -60q0 5 0.5 9.5t0.5 9.5l2 36q0 5 0.5 9.5
t0.5 9.5h174l-57 -467h-171l15 79q-23 -38 -53 -63.5t-77 -25.5zM195 188q0 -8 1 -17.5t4 -18t9 -14t17 -5.5q18 0 29 19.5t17 45.5t8 51.5t2 38.5q0 14 -4.5 30t-23.5 16q-18 0 -29.5 -18t-18 -42t-9 -48.5t-2.5 -37.5z" />
    <glyph glyph-name="uni1EB6" unicode="&#x1eb6;" horiz-adv-x="524" 
d="M329 701q-31 0 -49.5 9.5t-27.5 24.5t-10.5 33.5t1.5 36.5h80q-5 -32 17 -32q9 0 17.5 8t12.5 24h81q-3 -17 -10.5 -35.5t-21.5 -33.5t-36 -25t-54 -10zM-23 0l240 667h217l57 -667h-183l-3 85h-119l-25 -85h-184zM280 413q-14 -47 -26.5 -93t-26.5 -93h75q-1 20 -1.5 39
t-0.5 39v87q0 29 1 57.5t2 57.5q-6 -23 -11 -47t-12 -47zM220 -176q-26 0 -44.5 19t-18.5 44q0 27 19 45.5t44 18.5q27 0 46.5 -18.5t19.5 -45.5q0 -26 -19 -44.5t-47 -18.5z" />
    <glyph glyph-name="uni1EB7" unicode="&#x1eb7;" horiz-adv-x="489" 
d="M273 499q-31 0 -49.5 9.5t-27.5 24.5t-10.5 33.5t1.5 36.5h80q-5 -32 17 -32q9 0 17.5 8t12.5 24h81q-3 -17 -10.5 -35.5t-21.5 -33.5t-36 -25t-54 -10zM136 -10q-34 0 -56 17.5t-35 43.5t-17.5 57.5t-4.5 58.5q0 28 3.5 61.5t12 68t22 67t33.5 57.5t46.5 40.5t61.5 15.5
q43 0 64 -24t35 -60q0 5 0.5 9.5t0.5 9.5l2 36q0 5 0.5 9.5t0.5 9.5h174l-57 -467h-171l15 79q-23 -38 -53 -63.5t-77 -25.5zM254 334q-18 0 -29.5 -18t-18 -42t-9 -48.5t-2.5 -37.5q0 -8 1 -17.5t4 -18t9 -14t17 -5.5q18 0 29 19.5t17 45.5t8 51.5t2 38.5q0 14 -4.5 30
t-23.5 16zM123 -113q0 27 19 45.5t44 18.5q27 0 46.5 -18.5t19.5 -45.5q0 -26 -19 -44.5t-47 -18.5q-26 0 -44.5 19t-18.5 44z" />
    <glyph glyph-name="uni1EB8" unicode="&#x1eb8;" horiz-adv-x="405" 
d="M100 667h330l-20 -157h-152l-12 -97h137l-19 -151h-136l-13 -102h152l-19 -160h-330zM164 -176q-26 0 -44.5 19t-18.5 44q0 27 19 45.5t44 18.5q27 0 46.5 -18.5t19.5 -45.5q0 -26 -19 -44.5t-47 -18.5z" />
    <glyph glyph-name="uni1EB9" unicode="&#x1eb9;" horiz-adv-x="474" 
d="M23 181q0 54 16.5 107t48 94.5t78 67.5t105.5 26q45 0 79 -15.5t56.5 -42.5t33.5 -63.5t11 -78.5q0 -20 -2.5 -39.5t-5.5 -39.5h-250q-1 -5 -1 -9.5v-9.5q0 -8 1 -17.5t4 -17.5t9.5 -13t17.5 -5q15 0 26 9.5t16 22.5h166q-26 -80 -83.5 -123.5t-141.5 -43.5
q-91 0 -137.5 51.5t-46.5 139.5zM286 290v3l1 6q0 17 -6.5 33.5t-27.5 16.5q-22 0 -33 -20t-13 -39h79zM185 -176q-26 0 -44.5 19t-18.5 44q0 27 19 45.5t44 18.5q27 0 46.5 -18.5t19.5 -45.5q0 -26 -19 -44.5t-47 -18.5z" />
    <glyph glyph-name="uni1EBA" unicode="&#x1eba;" horiz-adv-x="405" 
d="M209 798q2 6 8 14.5t16 16t24.5 12.5t33.5 5q42 0 59.5 -19.5t13.5 -51.5q-2 -19 -10 -31t-17 -19t-17.5 -10t-12.5 -4l-1 -10h-60l6 49q5 0 11.5 0.5t13 3t11.5 6.5t6 10q1 8 -3 12.5t-8 4.5q-5 0 -11 -2t-12 -12zM18 0l82 667h330l-20 -157h-152l-12 -97h137l-19 -151
h-136l-13 -102h152l-19 -160h-330z" />
    <glyph glyph-name="uni1EBB" unicode="&#x1ebb;" horiz-adv-x="474" 
d="M208 597q2 6 8 14.5t16 16t24.5 12.5t33.5 5q42 0 59.5 -19.5t13.5 -51.5q-2 -19 -10 -31t-17 -19t-17.5 -10t-12.5 -4l-1 -10h-60l6 49q5 0 11.5 0.5t13 3t11.5 6.5t6 10q1 8 -3 12.5t-8 4.5q-5 0 -11 -2t-12 -12zM23 181q0 54 16.5 107t48 94.5t78 67.5t105.5 26
q45 0 79 -15.5t56.5 -42.5t33.5 -63.5t11 -78.5q0 -20 -2.5 -39.5t-5.5 -39.5h-250q-1 -5 -1 -9.5v-9.5q0 -8 1 -17.5t4 -17.5t9.5 -13t17.5 -5q15 0 26 9.5t16 22.5h166q-26 -80 -83.5 -123.5t-141.5 -43.5q-91 0 -137.5 51.5t-46.5 139.5zM253 349q-22 0 -33 -20t-13 -39
h79v3l1 6q0 17 -6.5 33.5t-27.5 16.5z" />
    <glyph glyph-name="uni1EBC" unicode="&#x1ebc;" horiz-adv-x="405" 
d="M173 749q7 24 26 45t46 21q18 0 28.5 -5t18.5 -10.5t14.5 -10.5t16.5 -5q7 0 15 9t13 21l39 -37q-4 -26 -24 -46t-47 -20q-15 0 -25.5 5t-18.5 10.5t-14 10.5t-13 5q-8 0 -17.5 -6.5t-18.5 -23.5zM100 667h330l-20 -157h-152l-12 -97h137l-19 -151h-136l-13 -102h152
l-19 -160h-330z" />
    <glyph glyph-name="uni1EBD" unicode="&#x1ebd;" horiz-adv-x="474" 
d="M183 547q7 24 26 45t46 21q18 0 28.5 -5t18.5 -10.5t14.5 -10.5t16.5 -5q7 0 15 9t13 21l39 -37q-4 -26 -24 -46t-47 -20q-15 0 -25.5 5t-18.5 10.5t-14 10.5t-13 5q-8 0 -17.5 -6.5t-18.5 -23.5zM23 181q0 54 16.5 107t48 94.5t78 67.5t105.5 26q45 0 79 -15.5
t56.5 -42.5t33.5 -63.5t11 -78.5q0 -20 -2.5 -39.5t-5.5 -39.5h-250q-1 -5 -1 -9.5v-9.5q0 -8 1 -17.5t4 -17.5t9.5 -13t17.5 -5q15 0 26 9.5t16 22.5h166q-26 -80 -83.5 -123.5t-141.5 -43.5q-91 0 -137.5 51.5t-46.5 139.5zM253 349q-22 0 -33 -20t-13 -39h79v3l1 6
q0 17 -6.5 33.5t-27.5 16.5z" />
    <glyph glyph-name="uni1EBE" unicode="&#x1ebe;" horiz-adv-x="405" 
d="M324 842l127 94l48 -67l-134 -82zM219 701l-50 49l119 91l96 -91l-62 -49l-47 38zM410 510h-152l-12 -97h137l-19 -151h-136l-13 -102h152l-19 -160h-330l82 667h330z" />
    <glyph glyph-name="uni1EBF" unicode="&#x1ebf;" horiz-adv-x="474" 
d="M329 640l127 94l48 -67l-134 -82zM293 639l96 -91l-62 -49l-47 38l-56 -38l-50 49zM23 181q0 54 16.5 107t48 94.5t78 67.5t105.5 26q45 0 79 -15.5t56.5 -42.5t33.5 -63.5t11 -78.5q0 -20 -2.5 -39.5t-5.5 -39.5h-250q-1 -5 -1 -9.5v-9.5q0 -8 1 -17.5t4 -17.5t9.5 -13
t17.5 -5q15 0 26 9.5t16 22.5h166q-26 -80 -83.5 -123.5t-141.5 -43.5q-91 0 -137.5 51.5t-46.5 139.5zM253 349q-22 0 -33 -20t-13 -39h79v3l1 6q0 17 -6.5 33.5t-27.5 16.5z" />
    <glyph glyph-name="uni1EC0" unicode="&#x1ec0;" horiz-adv-x="405" 
d="M388 787l-111 82l65 67l101 -94zM219 701l-50 49l119 91l96 -91l-62 -49l-47 38zM410 510h-152l-12 -97h137l-19 -151h-136l-13 -102h152l-19 -160h-330l82 667h330z" />
    <glyph glyph-name="uni1EC1" unicode="&#x1ec1;" horiz-adv-x="474" 
d="M347 734l101 -94l-55 -55l-111 82zM293 639l96 -91l-62 -49l-47 38l-56 -38l-50 49zM23 181q0 54 16.5 107t48 94.5t78 67.5t105.5 26q45 0 79 -15.5t56.5 -42.5t33.5 -63.5t11 -78.5q0 -20 -2.5 -39.5t-5.5 -39.5h-250q-1 -5 -1 -9.5v-9.5q0 -8 1 -17.5t4 -17.5t9.5 -13
t17.5 -5q15 0 26 9.5t16 22.5h166q-26 -80 -83.5 -123.5t-141.5 -43.5q-91 0 -137.5 51.5t-46.5 139.5zM253 349q-22 0 -33 -20t-13 -39h79v3l1 6q0 17 -6.5 33.5t-27.5 16.5z" />
    <glyph glyph-name="uni1EC2" unicode="&#x1ec2;" horiz-adv-x="405" 
d="M322 888q2 6 8 14.5t16 16t24.5 12.5t33.5 5q42 0 59.5 -19.5t13.5 -51.5q-2 -19 -10 -31t-17 -19t-17.5 -10t-12.5 -4l-1 -10h-60l6 49q5 0 11.5 0.5t13 3t11.5 6.5t6 10q1 8 -3 12.5t-8 4.5q-5 0 -11 -2t-12 -12zM169 750l119 91l96 -91l-62 -49l-47 38l-56 -38zM18 0
l82 667h330l-20 -157h-152l-12 -97h137l-19 -151h-136l-13 -102h152l-19 -160h-330z" />
    <glyph glyph-name="uni1EC3" unicode="&#x1ec3;" horiz-adv-x="474" 
d="M327 686q2 6 8 14.5t16 16t24.5 12.5t33.5 5q42 0 59.5 -19.5t13.5 -51.5q-2 -19 -10 -31t-17 -19t-17.5 -10t-12.5 -4l-1 -10h-60l6 49q5 0 11.5 0.5t13 3t11.5 6.5t6 10q1 8 -3 12.5t-8 4.5q-5 0 -11 -2t-12 -12zM174 548l119 91l96 -91l-62 -49l-47 38l-56 -38z
M207 -10q-91 0 -137.5 51.5t-46.5 139.5q0 54 16.5 107t48 94.5t78 67.5t105.5 26q45 0 79 -15.5t56.5 -42.5t33.5 -63.5t11 -78.5q0 -20 -2.5 -39.5t-5.5 -39.5h-250q-1 -5 -1 -9.5v-9.5q0 -8 1 -17.5t4 -17.5t9.5 -13t17.5 -5q15 0 26 9.5t16 22.5h166
q-26 -80 -83.5 -123.5t-141.5 -43.5zM253 349q-22 0 -33 -20t-13 -39h79v3l1 6q0 17 -6.5 33.5t-27.5 16.5z" />
    <glyph glyph-name="uni1EC4" unicode="&#x1ec4;" horiz-adv-x="405" 
d="M186 882q7 24 26 45t46 21q18 0 28.5 -5t18.5 -10.5t14.5 -10.5t16.5 -5q7 0 15 9t13 21l39 -37q-4 -26 -24 -46t-47 -20q-15 0 -25.5 5t-18.5 10.5t-14 10.5t-13 5q-8 0 -17.5 -6.5t-18.5 -23.5zM169 750l119 91l96 -91l-62 -49l-47 38l-56 -38zM18 0l82 667h330
l-20 -157h-152l-12 -97h137l-19 -151h-136l-13 -102h152l-19 -160h-330z" />
    <glyph glyph-name="uni1EC5" unicode="&#x1ec5;" horiz-adv-x="474" 
d="M191 680q7 24 26 45t46 21q18 0 28.5 -5t18.5 -10.5t14.5 -10.5t16.5 -5q7 0 15 9t13 21l39 -37q-4 -26 -24 -46t-47 -20q-15 0 -25.5 5t-18.5 10.5t-14 10.5t-13 5q-8 0 -17.5 -6.5t-18.5 -23.5zM174 548l119 91l96 -91l-62 -49l-47 38l-56 -38zM207 -10
q-91 0 -137.5 51.5t-46.5 139.5q0 54 16.5 107t48 94.5t78 67.5t105.5 26q45 0 79 -15.5t56.5 -42.5t33.5 -63.5t11 -78.5q0 -20 -2.5 -39.5t-5.5 -39.5h-250q-1 -5 -1 -9.5v-9.5q0 -8 1 -17.5t4 -17.5t9.5 -13t17.5 -5q15 0 26 9.5t16 22.5h166q-26 -80 -83.5 -123.5
t-141.5 -43.5zM286 290v3l1 6q0 17 -6.5 33.5t-27.5 16.5q-22 0 -33 -20t-13 -39h79z" />
    <glyph glyph-name="uni1EC6" unicode="&#x1ec6;" horiz-adv-x="405" 
d="M169 750l119 91l96 -91l-62 -49l-47 38l-56 -38zM18 0l82 667h330l-20 -157h-152l-12 -97h137l-19 -151h-136l-13 -102h152l-19 -160h-330zM101 -113q0 27 19 45.5t44 18.5q27 0 46.5 -18.5t19.5 -45.5q0 -26 -19 -44.5t-47 -18.5q-26 0 -44.5 19t-18.5 44z" />
    <glyph glyph-name="uni1EC7" unicode="&#x1ec7;" horiz-adv-x="474" 
d="M293 639l96 -91l-62 -49l-47 38l-56 -38l-50 49zM23 181q0 54 16.5 107t48 94.5t78 67.5t105.5 26q45 0 79 -15.5t56.5 -42.5t33.5 -63.5t11 -78.5q0 -20 -2.5 -39.5t-5.5 -39.5h-250q-1 -5 -1 -9.5v-9.5q0 -8 1 -17.5t4 -17.5t9.5 -13t17.5 -5q15 0 26 9.5t16 22.5h166
q-26 -80 -83.5 -123.5t-141.5 -43.5q-91 0 -137.5 51.5t-46.5 139.5zM286 290v3l1 6q0 17 -6.5 33.5t-27.5 16.5q-22 0 -33 -20t-13 -39h79zM122 -113q0 27 19 45.5t44 18.5q27 0 46.5 -18.5t19.5 -45.5q0 -26 -19 -44.5t-47 -18.5q-26 0 -44.5 19t-18.5 44z" />
    <glyph glyph-name="uni1EC8" unicode="&#x1ec8;" horiz-adv-x="269" 
d="M128 806q2 6 8 14.5t16.5 16t25 12.5t33.5 5q42 0 59 -19.5t13 -51.5q-2 -19 -9.5 -31t-16.5 -19t-17.5 -10t-12.5 -4l-3 -18h-60l7 57q5 0 12 0.5t13.5 3t11.5 6.5t6 10q1 8 -3 12.5t-8 4.5q-5 0 -11 -2t-13 -12zM100 667h177l-82 -667h-177z" />
    <glyph glyph-name="uni1EC9" unicode="&#x1ec9;" horiz-adv-x="249" 
d="M92 597q2 6 8 14.5t16 16t24.5 12.5t33.5 5q42 0 59.5 -19.5t13.5 -51.5q-2 -19 -10 -31t-17 -19t-17.5 -10t-12.5 -4l-1 -10h-60l6 49q5 0 11.5 0.5t13 3t11.5 6.5t6 10q1 8 -3 12.5t-8 4.5q-5 0 -11 -2t-12 -12zM69 467h170l-57 -467h-171z" />
    <glyph glyph-name="uni1ECA" unicode="&#x1eca;" horiz-adv-x="269" 
d="M18 0l82 667h177l-82 -667h-177zM33 -113q0 27 19 45.5t44 18.5q27 0 46.5 -18.5t19.5 -45.5q0 -26 -19 -44.5t-47 -18.5q-26 0 -44.5 19t-18.5 44z" />
    <glyph glyph-name="uni1ECB" unicode="&#x1ecb;" horiz-adv-x="249" 
d="M86 572q0 30 22.5 50t52.5 20q32 0 55 -20t23 -50q0 -28 -22.5 -48.5t-55.5 -20.5q-31 0 -53 21t-22 48zM11 0l58 467h170l-57 -467h-171zM20 -113q0 27 19 45.5t44 18.5q27 0 46.5 -18.5t19.5 -45.5q0 -26 -19 -44.5t-47 -18.5q-26 0 -44.5 19t-18.5 44z" />
    <glyph glyph-name="uni1ECC" unicode="&#x1ecc;" horiz-adv-x="558" 
d="M85 77q-28 41 -37.5 89.5t-9.5 96.5t7 95t22 92t40 86t59 73t77 51t94 19q54 0 93.5 -22t65 -58t38 -82.5t12.5 -94.5t-6 -96t-20 -95q-13 -46 -36.5 -90t-57 -78t-76.5 -54.5t-96 -20.5q-51 0 -95.5 23.5t-73.5 65.5zM315 511q-27 0 -44.5 -29.5t-28.5 -70t-15.5 -81.5
t-4.5 -64q0 -12 1 -31t5.5 -36t14 -29.5t27.5 -12.5q19 0 33 14.5t24 37t17 50.5t11 56t5.5 52.5t1.5 40.5q0 12 -1 29.5t-5.5 34t-14 28t-26.5 11.5zM158 -113q0 27 19 45.5t44 18.5q27 0 46.5 -18.5t19.5 -45.5q0 -26 -19 -44.5t-47 -18.5q-26 0 -44.5 19t-18.5 44z" />
    <glyph glyph-name="uni1ECD" unicode="&#x1ecd;" horiz-adv-x="480" 
d="M208 -10q-46 0 -81 14.5t-57.5 41t-34 63.5t-11.5 81q0 54 16 106t47.5 92t77.5 64.5t105 24.5q91 0 138.5 -54.5t47.5 -142.5q0 -57 -15.5 -109.5t-46 -92.5t-77 -64t-109.5 -24zM254 346q-18 0 -30.5 -18t-20 -42.5t-10.5 -49t-3 -38.5q0 -9 1 -22t5 -25.5t11.5 -21
t19.5 -8.5q18 0 30.5 18t20 42.5t10.5 49.5t3 38q0 9 -1 22t-4.5 25.5t-11 21t-20.5 8.5zM179 -176q-26 0 -44.5 19t-18.5 44q0 27 19 45.5t44 18.5q27 0 46.5 -18.5t19.5 -45.5q0 -26 -19 -44.5t-47 -18.5z" />
    <glyph glyph-name="uni1ECE" unicode="&#x1ece;" horiz-adv-x="558" 
d="M273 798q2 6 8 14.5t16 16t24.5 12.5t33.5 5q42 0 59.5 -19.5t13.5 -51.5q-2 -19 -10 -31t-17 -19t-17.5 -10t-12.5 -4l-1 -10h-60l6 49q5 0 11.5 0.5t13 3t11.5 6.5t6 10q1 8 -3 12.5t-8 4.5q-5 0 -11 -2t-12 -12zM85 77q-28 41 -37.5 89.5t-9.5 96.5t7 95t22 92t40 86
t59 73t77 51t94 19q54 0 93.5 -22t65 -58t38 -82.5t12.5 -94.5t-6 -96t-20 -95q-13 -46 -36.5 -90t-57 -78t-76.5 -54.5t-96 -20.5q-51 0 -95.5 23.5t-73.5 65.5zM315 511q-27 0 -45 -29.5t-28.5 -70t-15 -81.5t-4.5 -64q0 -12 1 -31t5.5 -36t14 -29.5t27.5 -12.5
q19 0 33 14.5t24 37t17 50.5t11 56t5.5 52.5t1.5 40.5q0 12 -1 29.5t-5.5 34t-14 28t-26.5 11.5z" />
    </font>
</defs>
</svg>
