<?xml version="1.0" standalone="no"?>
<!DOCTYPE svg PUBLIC "-//W3C//DTD SVG 1.1//EN" "http://www.w3.org/Graphics/SVG/1.1/DTD/svg11.dtd" >
<svg xmlns="http://www.w3.org/2000/svg" xmlns:xlink="http://www.w3.org/1999/xlink" version="1.1">
<metadata>
Created by FontForge 20170731 at Thu Oct 21 07:49:55 2021
 By Aleksey,,,
Copyright (c) 1995 ParaGraph Intl., (c) 1998 ParaType Inc., ParaType Ltd. All rights reserved.
</metadata>
<defs>
<font id="SVN-FuturaCondensed-Book" horiz-adv-x="500" >
  <font-face 
    font-family="SVN-Futura Cond Book"
    font-weight="400"
    font-stretch="condensed"
    units-per-em="1000"
    panose-1="0 0 0 0 0 0 0 0 0 0"
    ascent="800"
    descent="-200"
    x-height="447"
    cap-height="667"
    bbox="-219 -250 750 937"
    underline-thickness="50"
    underline-position="-150"
    unicode-range="U+000D-FB02"
  />
<missing-glyph horiz-adv-x="233" 
 />
    <glyph glyph-name="fi" unicode="fi" horiz-adv-x="350" 
d="M67 447v179q0 21 3.5 41.5t12.5 36.5t25.5 26t41.5 10q27 0 50 -10v-62q-9 8 -19 14t-22 6t-19.5 -5t-11 -13t-4.5 -18t-1 -19v-186h77v-52h-77v-395h-56v395h-51v52h51zM228 587q0 18 12 30.5t30 12.5q17 0 29 -13t12 -30t-12 -29t-29 -12t-29.5 12t-12.5 29zM241 447
h57v-447h-57v447z" />
    <glyph glyph-name="fl" unicode="fl" horiz-adv-x="349" 
d="M16 395v52h51v179q0 21 3.5 41.5t12.5 36.5t25.5 26t41.5 10q27 0 50 -10v-62q-9 8 -19 14t-22 6t-19.5 -5t-11 -13t-4.5 -18t-1 -19v-186h77v-52h-77v-395h-56v395h-51zM241 729h57v-729h-57v729z" />
    <glyph glyph-name=".notdef" horiz-adv-x="233" 
 />
    <glyph glyph-name="uni0000" horiz-adv-x="0" 
 />
    <glyph glyph-name="uni0000" horiz-adv-x="0" 
 />
    <glyph glyph-name="uni000D" unicode="&#xd;" horiz-adv-x="250" 
 />
    <glyph glyph-name="space" unicode=" " horiz-adv-x="233" 
 />
    <glyph glyph-name="exclam" unicode="!" horiz-adv-x="237" 
d="M148 667v-500h-60v500h60zM73 38q0 19 13 32t32 13t32 -13t13 -32t-13 -32t-32 -13q-18 0 -31.5 13.5t-13.5 31.5z" />
    <glyph glyph-name="quotedbl" unicode="&#x22;" horiz-adv-x="305" 
d="M248 667l-10 -269h-42l-10 269h62zM119 667l-10 -269h-42l-10 269h62z" />
    <glyph glyph-name="numbersign" unicode="#" horiz-adv-x="600" 
d="M40 214l8 52h114l23 148h-114l7 52h115l30 201h58l-31 -201h149l31 201h58l-30 -201h111l-8 -52h-111l-23 -148h112l-8 -52h-112l-32 -214h-59l33 214h-149l-32 -214h-58l32 214h-114zM220 266h149l22 148h-149z" />
    <glyph glyph-name="dollar" unicode="$" horiz-adv-x="366" 
d="M276 173q0 40 -18 65.5t-45.5 45.5t-59 38.5t-59 43t-45.5 59.5t-18 88q0 63 30.5 104t91.5 56v78h49v-76q29 -2 55 -12.5t49 -26.5l-31 -47q-20 13 -42 21.5t-46 8.5q-45 0 -71.5 -28.5t-26.5 -73.5q0 -44 18 -72.5t45.5 -49t59 -38t59 -41t45.5 -56.5t18 -84
q0 -34 -9 -64.5t-26 -55t-41.5 -40.5t-55.5 -22v-85h-49v83q-37 6 -61 18.5t-51 38.5l36 43q21 -17 45 -30.5t52 -13.5q48 0 75 36.5t27 88.5z" />
    <glyph glyph-name="percent" unicode="%" horiz-adv-x="514" 
d="M40 500q0 48 4.5 88t27.5 63q14 14 28 17t27 3t27.5 -3t28.5 -17q23 -23 27.5 -63t4.5 -88t-4.5 -88t-27.5 -63q-14 -14 -28.5 -17t-27.5 -3t-27 3t-28 17q-23 23 -27.5 63t-4.5 88zM379 667h46l-289 -667h-46zM86 501q0 -57 3.5 -83t13.5 -37q9 -10 24 -10t24 10
q10 11 13.5 37t3.5 83q0 56 -3.5 82t-13.5 37q-9 10 -24 10t-24 -10q-10 -11 -13.5 -37t-3.5 -82zM299 166q0 48 4.5 88t27.5 63q14 14 28 17t27 3t27.5 -3t28.5 -17q23 -23 27.5 -63t4.5 -88t-4.5 -88t-27.5 -63q-14 -14 -28.5 -17t-27.5 -3t-27 3t-28 17q-23 23 -27.5 63
t-4.5 88zM345 167q0 -57 3.5 -83t13.5 -37q9 -10 24 -10t24 10q10 11 13.5 37t3.5 83q0 56 -3.5 82t-13.5 37q-9 10 -24 10t-24 -10q-9 -11 -13 -37t-4 -82z" />
    <glyph glyph-name="ampersand" unicode="&#x26;" horiz-adv-x="444" 
d="M53 172q0 62 27.5 107t71.5 85q-10 18 -21 38.5t-20 43.5t-14.5 47.5t-5.5 50.5q0 28 10 52t28 42t42 28t52 10q26 0 48 -9.5t38 -26.5t25 -39.5t9 -48.5q0 -34 -10.5 -62.5t-27.5 -52.5t-38 -44.5t-42 -38.5l115 -218q26 28 46 56l41 -42q-14 -18 -28.5 -35t-30.5 -34
l41 -81h-65l-20 37q-24 -22 -50.5 -34t-59.5 -12q-37 0 -66.5 15.5t-50.5 40.5t-32.5 58t-11.5 67zM148 546q0 -46 16 -80.5t33 -64.5q16 13 31.5 28.5t27.5 34.5t19.5 41.5t7.5 48.5q0 27 -17.5 47.5t-45.5 20.5q-32 0 -52 -22.5t-20 -53.5zM111 171q0 -21 7 -42.5
t20 -38.5t31.5 -28t41.5 -11q25 0 46 11.5t39 27.5l-117 220q-27 -29 -47.5 -63.5t-20.5 -75.5z" />
    <glyph glyph-name="quotesingle" unicode="'" horiz-adv-x="175" 
d="M109 398h-42l-10 269h62z" />
    <glyph glyph-name="parenleft" unicode="(" horiz-adv-x="260" 
d="M172 -181q-28 49 -50 106t-37.5 116.5t-23.5 119.5t-8 117t8 117t23.5 119.5t37.5 116.5t50 106l48 -23q-45 -104 -77.5 -212.5t-32.5 -223.5t32.5 -223.5t77.5 -212.5z" />
    <glyph glyph-name="parenright" unicode=")" horiz-adv-x="260" 
d="M89 737q29 -50 51 -106.5t37 -115.5t22.5 -119t7.5 -118t-7.5 -118t-22.5 -119t-37 -115.5t-51 -106.5l-49 23q53 103 81.5 211t28.5 225t-28.5 225t-81.5 211z" />
    <glyph glyph-name="asterisk" unicode="*" horiz-adv-x="367" 
d="M212 576l70 -97l-29 -21l-70 97l-70 -97l-29 21l71 97l-114 37l11 34l114 -37v119h35v-119l114 37l11 -34z" />
    <glyph glyph-name="plus" unicode="+" 
d="M222 358v175h56v-175h189v-53h-189v-176h-56v176h-189v53h189z" />
    <glyph glyph-name="comma" unicode="," horiz-adv-x="177" 
d="M49 -142l-43 20l69 205l62 -28z" />
    <glyph glyph-name="hyphen" unicode="-" horiz-adv-x="238" 
d="M50 233v58h138v-58h-138z" />
    <glyph glyph-name="period" unicode="." horiz-adv-x="177" 
d="M43 38q0 19 13 32t32 13t32 -13t13 -32t-13 -32t-32 -13q-18 0 -31.5 13.5t-13.5 31.5z" />
    <glyph glyph-name="slash" unicode="/" horiz-adv-x="408" 
d="M19 -173h-58l391 902h57z" />
    <glyph glyph-name="zero" unicode="0" horiz-adv-x="366" 
d="M182 -9q-35 0 -59.5 17.5t-41 46t-26 64t-14.5 72t-6.5 70.5t-1.5 58q0 27 1.5 63.5t7 76t16 78.5t28.5 70t44.5 50t63.5 19q35 0 58.5 -17t39 -44.5t24 -62.5t12.5 -70.5t4.5 -68.5t0.5 -57q0 -25 -1 -62t-5.5 -78t-13.5 -81t-26 -72t-42.5 -52t-62.5 -20zM191 619
q-23 0 -39 -17.5t-27 -45t-17.5 -61.5t-9.5 -67t-4 -61t-1 -44q0 -15 0.5 -41t3 -56.5t8.5 -62t16 -57t26 -42t39 -16.5q24 0 36.5 15t20.5 35q11 27 17 63t9 74.5t3.5 75.5t0.5 67q0 21 -1.5 61t-9 80t-24.5 70t-47 30z" />
    <glyph glyph-name="one" unicode="1" horiz-adv-x="366" 
d="M162 0v609h-86v58h148v-667h-62z" />
    <glyph glyph-name="two" unicode="2" horiz-adv-x="366" 
d="M37 0l137 282q14 29 28.5 58.5t26 60.5t19 62.5t7.5 64.5q0 17 -3.5 33.5t-12 29t-21.5 20.5t-33 8q-26 0 -41 -11.5t-23 -29t-10.5 -39t-2.5 -42.5v-12h-61q0 36 5 70.5t19.5 61t41 43t69.5 16.5q66 0 101 -42.5t35 -105.5q0 -37 -7.5 -71.5t-20 -67.5t-28.5 -65
l-32 -64l-102 -201h182v-59h-273z" />
    <glyph glyph-name="three" unicode="3" horiz-adv-x="366" 
d="M103 183q0 -21 1.5 -44.5t9 -43t23.5 -32t44 -12.5q27 0 43 14.5t23.5 35.5t9.5 45.5t2 44.5q0 29 -5 55.5t-17.5 47t-34 32.5t-55.5 12h-30v55h26q26 0 45.5 4.5t36.5 24.5q16 19 20.5 45.5t4.5 50.5q0 18 -3 36t-11.5 31.5t-22.5 22t-36 8.5q-24 0 -37.5 -9.5
t-20.5 -24.5t-9.5 -34t-2.5 -37h-57q0 31 6.5 60.5t21.5 53t39 37.5t60 14t61 -12t41 -32.5t23.5 -48.5t7.5 -61q0 -24 -3 -46.5t-11.5 -42.5t-23 -36.5t-38.5 -27.5q29 -12 46 -33t25.5 -47t11 -54.5t2.5 -55.5q0 -36 -6 -69.5t-21.5 -60t-42.5 -42.5t-69 -16
q-39 0 -65 12.5t-42.5 35t-23.5 52.5t-7 65v27h61z" />
    <glyph glyph-name="four" unicode="4" horiz-adv-x="366" 
d="M212 667h61v-431h50v-57h-50v-179h-61v179h-175v63zM95 236h117v34l-1 67q0 59 1.5 116.5t6.5 115.5q-8 -29 -17.5 -57.5t-20.5 -57.5z" />
    <glyph glyph-name="five" unicode="5" horiz-adv-x="366" 
d="M152 -9q-59 0 -104 33l17 61q20 -15 42.5 -24.5t47.5 -9.5q30 0 49 15t30.5 37t16 47.5t4.5 47.5q0 26 -5 52.5t-17.5 48.5t-34.5 35.5t-55 13.5q-24 0 -44.5 -4t-37.5 -8l39 331h199v-58h-144l-24 -204q18 3 35 3q42 0 71 -19.5t47 -50.5t26 -68t8 -73q0 -37 -9 -73.5
t-28.5 -66t-51 -48t-77.5 -18.5z" />
    <glyph glyph-name="six" unicode="6" horiz-adv-x="366" 
d="M185 -9q-43 0 -70 19t-42.5 49t-21 67t-5.5 73q0 35 4 65.5t11.5 59t18.5 57.5t24 60l95 226h65l-87 -205q-6 -14 -10.5 -23t-9 -19.5t-11 -25t-15.5 -39.5q20 14 35.5 18.5t29.5 4.5q40 0 64 -19t37.5 -48t18 -64t4.5 -67q0 -35 -6 -69t-21 -60.5t-41 -43t-67 -16.5z
M106 185q0 -20 3 -44.5t12 -45.5t25 -35.5t42 -14.5t40.5 14.5t21.5 36t8.5 45.5t1.5 43q0 20 -2 44t-10 46t-23 36.5t-42 14.5q-25 0 -40.5 -15t-23.5 -36.5t-10.5 -45.5t-2.5 -43z" />
    <glyph glyph-name="seven" unicode="7" horiz-adv-x="366" 
d="M124 0h-65l188 609h-192v58h274z" />
    <glyph glyph-name="eight" unicode="8" horiz-adv-x="366" 
d="M179 -9q-42 0 -68.5 18.5t-41.5 47.5t-21 64t-6 69q0 25 3.5 52t13 52t26 45t42.5 30q-41 26 -55.5 61.5t-14.5 81.5q0 32 7.5 61.5t24 52.5t41.5 36.5t61 13.5q35 0 59 -14.5t39 -37.5t21.5 -53t6.5 -60q0 -45 -14.5 -82t-55.5 -60q25 -14 40 -34t23 -44t10.5 -50.5
t2.5 -52.5q0 -36 -6.5 -71t-23 -63t-44 -45.5t-70.5 -17.5zM186 619q-21 0 -34.5 -9.5t-21 -24.5t-10.5 -33.5t-3 -35.5q0 -18 2.5 -38.5t10 -38.5t21.5 -30t37 -12q22 0 35.5 10.5t21 27t10 36t2.5 36.5q0 18 -3 37.5t-10.5 36t-21.5 27.5t-36 11zM183 341q-26 0 -42 -16
t-24.5 -39.5t-11 -49t-2.5 -45.5q0 -19 2.5 -44t11 -47t24 -37t41.5 -15q29 0 45 15.5t24 38t10 48.5t2 47q0 20 -2.5 45t-11 47t-24.5 37t-42 15z" />
    <glyph glyph-name="nine" unicode="9" horiz-adv-x="366" 
d="M46 489q0 33 5.5 66.5t20.5 60.5t41 43.5t66 16.5q41 0 68.5 -17t43.5 -45t22.5 -62t6.5 -69q0 -63 -14.5 -123.5t-38.5 -117.5l-101 -242h-64l130 312q-15 -11 -31 -17t-35 -6q-38 0 -61.5 20.5t-36.5 50.5t-17.5 65t-4.5 64zM178 623q-24 0 -38 -16t-22 -39
t-10.5 -47.5t-2.5 -42.5q0 -19 2.5 -42.5t11 -44.5t24 -35t40.5 -14q26 0 41 14.5t23 36t10.5 46t2.5 43.5q0 20 -3 44.5t-12 46t-25 36t-42 14.5z" />
    <glyph glyph-name="colon" unicode=":" horiz-adv-x="177" 
d="M88 364q-18 0 -31.5 13.5t-13.5 31.5q0 19 13 32t32 13t32 -13t13 -32t-13 -32t-32 -13zM88 -7q-18 0 -31.5 13.5t-13.5 31.5q0 19 13 32t32 13t32 -13t13 -32t-13 -32t-32 -13z" />
    <glyph glyph-name="semicolon" unicode=";" horiz-adv-x="177" 
d="M92 364q-19 0 -32 13t-13 32t13 32t32 13t32 -13t13 -32t-13 -32t-32 -13zM6 -122l69 205l62 -28l-88 -197z" />
    <glyph glyph-name="less" unicode="&#x3c;" 
d="M33 304v50l434 198v-57l-372 -166l372 -166v-57z" />
    <glyph glyph-name="equal" unicode="=" 
d="M33 390v51h434v-51h-434zM33 243v51h434v-51h-434z" />
    <glyph glyph-name="greater" unicode="&#x3e;" 
d="M33 495v57l434 -198v-50l-434 -198v57l372 166z" />
    <glyph glyph-name="question" unicode="?" horiz-adv-x="332" 
d="M53 545q0 57 26.5 94t88.5 37q38 0 60 -13t33 -34.5t14.5 -49.5t3.5 -58q0 -33 -2 -67t-13 -61.5t-34.5 -45.5t-66.5 -20v-160h-59v214h8l17 -1h8q11 0 25.5 1.5t25.5 7.5q13 8 19.5 25.5t8.5 38.5t2 42v34q0 14 -1 30t-6.5 30t-16 23.5t-28.5 9.5q-23 0 -34.5 -13.5
t-15.5 -33t-3.5 -40.5t0.5 -37h-60v47zM136 -7q-18 0 -31.5 13.5t-13.5 31.5q0 19 13 32t32 13t32 -13t13 -32t-13 -32t-32 -13z" />
    <glyph glyph-name="at" unicode="@" horiz-adv-x="733" 
d="M391 -13q-76 0 -141.5 24.5t-113.5 70t-75.5 109t-27.5 141.5q0 73 27 135.5t73.5 108.5t110 72.5t135.5 26.5q65 0 122 -21t100.5 -60t68.5 -93.5t25 -121.5q0 -34 -10.5 -75.5t-31 -77.5t-51 -60t-70.5 -24q-32 0 -51 19.5t-21 50.5q-21 -34 -52.5 -53.5t-72.5 -19.5
q-34 0 -60 13.5t-44 36t-27 51.5t-9 60q0 38 12 74.5t35 65t55.5 46.5t72.5 18q87 0 114 -84l14 71h42l-41 -216q-2 -12 -4.5 -23.5t-2.5 -23.5q0 -20 10.5 -35t32.5 -15q21 0 39 12t31.5 30t23.5 39t15 39q6 20 8.5 40t2.5 40q0 59 -21.5 106.5t-59 81t-88 51.5t-107.5 18
q-64 0 -119.5 -23.5t-96.5 -64.5t-64.5 -96.5t-23.5 -119.5q0 -59 21 -115t62 -99q48 -51 106 -71t126 -20q60 0 111.5 13t105.5 38l13 -38q-108 -52 -229 -52zM374 461q-31 0 -55 -14.5t-41 -37.5t-26 -51t-9 -56q0 -23 6 -44.5t18.5 -38.5t31.5 -27t44 -10q33 0 56.5 17
t38 42.5t21.5 56.5t7 58q0 43 -22.5 74t-69.5 31z" />
    <glyph glyph-name="A" unicode="A" horiz-adv-x="325" 
d="M1 0l132 667h58l133 -667h-66l-25 137h-141l-25 -137h-66zM223 191l-44 235q-8 39 -12.5 78t-6.5 79q-7 -100 -24 -197t-34 -195h121z" />
    <glyph glyph-name="B" unicode="B" horiz-adv-x="351" 
d="M55 0v667h97q26 0 51.5 -3.5t46.5 -19.5q15 -11 25 -29t15.5 -38t8 -41t2.5 -39q0 -25 -3.5 -48.5t-12.5 -43t-25 -35.5t-41 -28q32 -9 51.5 -24.5t30 -36.5t13.5 -47t3 -56q0 -87 -36 -132.5t-124 -45.5h-102zM117 613v-241h33q30 0 47.5 10t26.5 26.5t11.5 38.5t2.5 47
q0 24 -1.5 45.5t-9.5 38t-24.5 26t-46.5 9.5h-39zM117 317v-264h33q32 0 52 9.5t31.5 26t15.5 40t4 51.5q0 25 -4.5 49.5t-15.5 44t-30.5 31.5t-49.5 12h-36z" />
    <glyph glyph-name="C" unicode="C" horiz-adv-x="320" 
d="M38 316q0 31 2 69.5t8 78.5t18 78t32.5 68t51 48t72.5 18q21 0 41.5 -5t38.5 -16v-68q-17 11 -36 20t-41 9q-30 0 -51 -15t-34.5 -39t-21.5 -54.5t-11.5 -61.5t-4.5 -60t-1 -50q0 -24 1.5 -58t6.5 -68.5t13.5 -66t22.5 -51.5q28 -41 75 -41q23 0 43.5 9t38.5 21v-62
q-20 -13 -42 -20.5t-45 -7.5q-36 0 -67.5 18t-52.5 47q-19 26 -30.5 58.5t-17.5 67t-7.5 69t-1.5 65.5z" />
    <glyph glyph-name="D" unicode="D" horiz-adv-x="371" 
d="M55 0v667h78q48 0 81 -10t55 -31t35 -54t20 -79q7 -42 8 -84.5t1 -85.5q0 -30 -1 -67t-6 -74t-16.5 -71t-31.5 -58q-28 -33 -63.5 -43t-77.5 -10h-82zM146 57q45 0 70 22.5t36.5 56t14 72.5t2.5 73q0 42 -0.5 85t-4.5 88q-3 30 -8.5 58t-18 50t-35 35t-59.5 13h-26v-553
h29z" />
    <glyph glyph-name="E" unicode="E" horiz-adv-x="301" 
d="M55 0v667h208v-57h-146v-235h142v-57h-142v-261h146v-57h-208z" />
    <glyph glyph-name="F" unicode="F" horiz-adv-x="295" 
d="M267 667v-57h-150v-235h142v-57h-142v-318h-62v667h212z" />
    <glyph glyph-name="G" unicode="G" horiz-adv-x="374" 
d="M79 55q-14 25 -22.5 63t-12.5 80t-5 82.5t-1 69.5t1 64t5.5 71t14.5 70.5t28 61.5t45.5 43t67.5 16q31 0 53 -9.5t38 -26.5t26.5 -40t17.5 -50l-61 -24q-3 16 -8 32t-13 29t-21 21t-32 8q-24 0 -41 -13.5t-28 -34.5t-17 -48t-9 -54t-3.5 -51.5t-0.5 -41.5v-60.5t2 -70
t6.5 -69t12.5 -57.5q10 -29 27 -47t49 -18q27 0 42.5 14t23 35t9 45t1.5 44v106h-91v57h153v-134q0 -37 -3.5 -77.5t-17.5 -73.5t-42.5 -54.5t-78.5 -21.5q-38 0 -67 16t-48 48z" />
    <glyph glyph-name="H" unicode="H" horiz-adv-x="385" 
d="M117 667v-266h152v266h62v-667h-62v344h-152v-344h-62v667h62z" />
    <glyph glyph-name="I" unicode="I" horiz-adv-x="171" 
d="M55 0v667h62v-667h-62z" />
    <glyph glyph-name="J" unicode="J" horiz-adv-x="224" 
d="M1 72q14 -12 28.5 -20t33.5 -8q16 0 25 6t13 15.5t5 21.5t1 24v556h62v-571q0 -24 -4.5 -44t-15.5 -33.5t-29.5 -21t-46.5 -7.5q-20 0 -37.5 5t-34.5 13v64z" />
    <glyph glyph-name="K" unicode="K" horiz-adv-x="329" 
d="M117 667v-303l134 303h69l-144 -318l145 -349h-70l-134 336v-336h-62v667h62z" />
    <glyph glyph-name="L" unicode="L" horiz-adv-x="263" 
d="M55 0v667h62v-610h144v-57h-206z" />
    <glyph glyph-name="M" unicode="M" horiz-adv-x="499" 
d="M21 0l94 667h53l72 -458q4 -26 7.5 -52.5t5.5 -52.5q3 52 12 103l78 460h53l82 -667h-61l-47 433q-3 30 -3.5 60.5t-2.5 60.5q-2 -31 -5.5 -61t-8.5 -60l-74 -433h-51q-20 125 -42.5 248.5t-36.5 249.5q0 4 -0.5 7t-0.5 7l-2 28q0 9 -1 14v-23q0 -49 -6 -97l-54 -434h-61
z" />
    <glyph glyph-name="N" unicode="N" horiz-adv-x="387" 
d="M55 667h54l151 -453q7 -20 12.5 -39.5t11.5 -39.5q-6 41 -6 82v450h54v-667h-54l-148 440q-16 48 -27 94q6 -52 6 -105v-429h-54v667z" />
    <glyph glyph-name="O" unicode="O" horiz-adv-x="404" 
d="M203 -9q-39 0 -66.5 17.5t-45.5 46.5t-29 65.5t-16 74.5t-6.5 74t-1.5 64t1.5 64t7 74t16 75t28.5 65.5t45.5 46.5t65.5 18q39 0 66.5 -17.5t46 -46t28.5 -64.5t15.5 -74t6.5 -74t1 -64t-1 -64.5t-6 -75t-15 -75t-28 -65.5t-45.5 -47t-67.5 -18zM203 616q-26 0 -43.5 -16
t-29 -41.5t-17.5 -57t-8.5 -63t-3 -59t-0.5 -45.5q0 -17 0.5 -45t3 -59.5t8.5 -63.5t17.5 -57.5t29 -41.5t43.5 -16q28 0 45.5 16t27.5 40t14.5 51t6.5 48q6 75 6 152q0 17 -0.5 42.5t-3.5 54.5t-9 57.5t-17 51.5t-28 37.5t-42 14.5z" />
    <glyph glyph-name="P" unicode="P" horiz-adv-x="329" 
d="M55 667h80q50 0 83 -11t52 -34t26.5 -58t7.5 -82q0 -88 -37 -125.5t-125 -37.5h-25v-319h-62v667zM117 610v-234h41q29 0 46 9.5t25 26t10 37.5t2 45q0 26 -3.5 47.5t-13.5 36.5t-28.5 23.5t-48.5 8.5h-30z" />
    <glyph glyph-name="Q" unicode="Q" horiz-adv-x="404" 
d="M38 333q0 28 1.5 64t7 74t16 75t28.5 65.5t45.5 46.5t65.5 18q39 0 66 -17t45.5 -45.5t29 -64t15.5 -73t6.5 -73t1.5 -63.5q0 -31 -1.5 -69t-6.5 -76t-14.5 -74t-26.5 -63l49 -76l-49 -31l-40 62q-17 -12 -36 -17t-40 -5q-38 0 -65 18t-45 46.5t-28.5 65.5t-16 75t-7 74
t-1.5 63zM101 334q0 -18 0.5 -46t3 -59.5t8.5 -63t17.5 -57t29.5 -41.5t44 -16q24 0 40 13l-59 92l49 32l46 -72q15 51 19 105t4 108q0 32 -1 63t-4 63q-2 21 -6.5 49t-14.5 53t-27.5 42t-46.5 17q-26 0 -43.5 -16t-29 -41.5t-17.5 -57t-8.5 -63t-3 -59t-0.5 -45.5z" />
    <glyph glyph-name="R" unicode="R" horiz-adv-x="376" 
d="M143 667q29 0 59 -2.5t56 -16.5q23 -12 37 -30t21.5 -39t10.5 -44.5t3 -46.5q0 -34 -6.5 -63.5t-21.5 -52t-40.5 -36t-63.5 -16.5l155 -320h-71l-155 326v-326h-68v667h84zM168 375q30 0 48.5 8.5t28 24t13 37t3.5 47.5q0 29 -4 51t-15 37t-30.5 22.5t-51.5 7.5h-33v-235
h41z" />
    <glyph glyph-name="S" unicode="S" horiz-adv-x="326" 
d="M248 170q0 38 -17 64.5t-42 47.5t-55 40t-55 42.5t-42 55.5t-17 79q0 34 10.5 66t30 56.5t48 39.5t65.5 15q30 0 55 -9.5t49 -26.5v-78q-20 24 -43 39t-56 15q-23 0 -41 -9t-30 -24t-18.5 -35t-6.5 -41q0 -38 17 -64.5t42 -48t55 -40.5t55 -42.5t42 -55.5t17 -78
q0 -36 -11.5 -70t-33.5 -60t-53 -42t-69 -16q-29 0 -55.5 9t-49.5 26v80q22 -23 48.5 -38.5t59.5 -15.5q24 0 43 10t32 27t19.5 38.5t6.5 43.5z" />
    <glyph glyph-name="T" unicode="T" horiz-adv-x="265" 
d="M263 667v-57h-100v-610h-62v610h-100v57h262z" />
    <glyph glyph-name="U" unicode="U" horiz-adv-x="390" 
d="M55 667h62v-499q0 -21 2 -42t10 -37.5t23.5 -27t42.5 -10.5q33 0 49 15.5t22.5 38.5t6.5 50v50v462h62v-491q0 -23 -1.5 -46t-7.5 -46q-13 -47 -48 -70t-83 -23t-82.5 23t-48.5 70q-7 23 -8 46.5t-1 46.5v490z" />
    <glyph glyph-name="V" unicode="V" horiz-adv-x="326" 
d="M1 667h64l84 -442q6 -33 9 -66.5t6 -67.5q3 33 7 66t10 66l80 444h64l-135 -667h-55z" />
    <glyph glyph-name="W" unicode="W" horiz-adv-x="506" 
d="M1 667h64l60 -420q3 -19 5 -37.5t3 -37.5q1 -13 1.5 -25t2.5 -25q3 33 8.5 65.5t10.5 64.5l71 415h54l62 -422q3 -18 5 -36.5t4 -36.5q2 -13 3.5 -25t3.5 -25q4 32 8 63t9 63l65 419h63l-117 -667h-57l-65 433q-9 61 -12 124q-2 -10 -2 -19t-1 -19q-2 -23 -4.5 -44.5
t-6.5 -43.5l-75 -431h-56z" />
    <glyph glyph-name="X" unicode="X" horiz-adv-x="318" 
d="M1 0l130 339l-130 328h67l59 -165q11 -29 19 -58t13 -59q5 29 13.5 57t18.5 56l60 169h66l-127 -328l127 -339h-66l-66 189q-17 49 -26 95q-5 -25 -12.5 -49t-15.5 -48l-63 -187h-67z" />
    <glyph glyph-name="Y" unicode="Y" horiz-adv-x="316" 
d="M68 667l62 -191q6 -18 15.5 -53.5t16.5 -69.5q3 20 9 47t20 75l57 192h67l-122 -378v-289h-62v289l-130 378h67z" />
    <glyph glyph-name="Z" unicode="Z" horiz-adv-x="279" 
d="M84 57h169v-57h-245l185 610h-167v57h245z" />
    <glyph glyph-name="bracketleft" unicode="[" horiz-adv-x="267" 
d="M73 -173v902h161v-46h-102v-810h102v-46h-161z" />
    <glyph glyph-name="backslash" unicode="\" horiz-adv-x="408" 
d="M56 729l391 -902h-58l-390 902h57z" />
    <glyph glyph-name="bracketright" unicode="]" horiz-adv-x="267" 
d="M33 683v46h161v-902h-161v46h102v810h-102z" />
    <glyph glyph-name="asciicircum" unicode="^" 
d="M213 667h74l182 -295h-64l-156 250l-155 -250h-63z" />
    <glyph glyph-name="underscore" unicode="_" 
d="M0 -124v50h500v-50h-500z" />
    <glyph glyph-name="grave" unicode="`" 
d="M250 507l-115 103l54 43l96 -120z" />
    <glyph glyph-name="a" unicode="a" horiz-adv-x="327" 
d="M39 215q0 34 2 75.5t12.5 78t33 61t62.5 24.5q24 0 40 -9t31 -28v30h57v-447h-57v36q-15 -20 -32.5 -31.5t-43.5 -11.5q-38 0 -59.5 23.5t-31.5 58t-12 72.5t-2 68zM163 409q-24 0 -37.5 -18.5t-20 -44t-7.5 -52.5t-1 -44q0 -28 0.5 -54.5t2.5 -53.5q1 -15 3.5 -32.5
t9 -33.5t18.5 -26.5t31 -10.5q22 0 36 15q10 11 15.5 33.5t8.5 48.5t3.5 50.5t0.5 39.5q0 33 -1.5 66t-8 59t-19 42t-34.5 16z" />
    <glyph glyph-name="b" unicode="b" horiz-adv-x="321" 
d="M50 729h56v-312q15 19 31 28t41 9q41 0 63 -23.5t32.5 -57.5t12.5 -72.5t2 -68.5q0 -36 -2 -78t-12 -77.5t-31.5 -59.5t-59.5 -24q-26 0 -43.5 11.5t-33.5 31.5v-36h-56v729zM101 226q0 -15 0.5 -39.5t3 -50.5t8.5 -48.5t16 -33.5q15 -15 36 -15q20 0 31.5 10.5
t17.5 26.5t9 33.5t4 32.5q3 26 3 52.5v52.5q0 17 -1 44.5t-7.5 53.5t-20 45t-37.5 19q-22 0 -34.5 -16t-19 -42t-8 -59t-1.5 -66z" />
    <glyph glyph-name="c" unicode="c" horiz-adv-x="246" 
d="M33 216q0 32 4.5 73t18.5 78t40 62t69 25q32 0 61 -17v-66q-11 12 -25 21.5t-31 9.5q-27 0 -42.5 -21t-23.5 -50.5t-10 -60t-2 -49.5q0 -18 2.5 -47.5t10.5 -58t23.5 -49t40.5 -20.5q19 0 33 13t24 27v-70q-14 -11 -30.5 -17t-33.5 -6q-39 0 -64.5 23.5t-39.5 58
t-19.5 73t-5.5 68.5z" />
    <glyph glyph-name="d" unicode="d" horiz-adv-x="321" 
d="M33 220q0 33 1.5 73.5t12 76t33 60t64.5 24.5q24 0 40 -9t31 -28v312h56v-729h-56v36q-15 -20 -33 -31.5t-44 -11.5q-39 0 -60 24.5t-31 60t-12 74.5t-2 68zM157 409q-24 0 -37 -18.5t-19.5 -44.5t-7.5 -52.5t-1 -43.5q0 -28 0.5 -54.5t2.5 -53.5q1 -15 3.5 -32.5
t8.5 -33.5t18 -26.5t31 -10.5q23 0 37 15q10 11 15.5 33.5t8 48t3 49.5t0.5 38q0 35 -1.5 68.5t-8 59.5t-19 42t-34.5 16z" />
    <glyph glyph-name="e" unicode="e" horiz-adv-x="313" 
d="M33 222q0 30 4.5 70t18 76t38 61t65.5 25t64.5 -23.5t36.5 -57t16.5 -72t3.5 -68.5l-1 -14v-7h-189v-10q0 -17 2 -43.5t9.5 -51.5t21.5 -43t38 -18q19 0 30 11t17 27.5t8.5 35t2.5 32.5h57q-1 -27 -6.5 -55t-18 -51.5t-34 -38t-54.5 -14.5q-43 0 -69 23.5t-39.5 58.5
t-17.5 75t-4 72zM160 402q-22 0 -35 -16.5t-20.5 -39t-10 -47t-3.5 -39.5h133q-1 15 -3 39t-8.5 47t-19 39.5t-33.5 16.5z" />
    <glyph glyph-name="f" unicode="f" horiz-adv-x="204" 
d="M16 395v52h51v179q0 21 3.5 41.5t12.5 36.5t25.5 26t41.5 10q27 0 50 -10v-62q-9 8 -19 14t-22 6t-19.5 -5t-11 -13t-4.5 -18t-1 -19v-186h77v-52h-77v-395h-56v395h-51z" />
    <glyph glyph-name="g" unicode="g" horiz-adv-x="331" 
d="M153 0q-42 0 -65.5 25t-34 61t-12.5 76.5t-2 70.5q0 28 3 66t14 72.5t33 58.5t61 24q24 0 41.5 -9.5t32.5 -28.5v31h57v-496q0 -61 -26 -96t-91 -35q-59 0 -87.5 33.5t-28.5 90.5v9t1 8h57q0 -17 1.5 -33t8 -28t18.5 -19.5t33 -7.5t32.5 7.5t17 20t6.5 28t1 31.5v72
q-15 -17 -31.5 -24.5t-39.5 -7.5zM97 212q0 -18 1 -46t8 -55t21 -46t40 -19q19 0 30 10t17.5 24.5t9 31t3.5 30.5q2 28 2.5 54.5t0.5 53.5q0 18 -1 44.5t-7.5 52t-20 43.5t-39.5 18q-22 0 -35 -17.5t-20 -45.5t-8.5 -63t-1.5 -70z" />
    <glyph glyph-name="h" unicode="h" horiz-adv-x="330" 
d="M106 729v-318q17 19 39 31t48 12q27 0 44 -9t26.5 -25t13 -36.5t3.5 -44.5v-339h-56v325q0 14 -1 28.5t-5.5 26.5t-15 20t-28.5 8q-22 0 -35.5 -10t-21 -26t-9.5 -35t-2 -36v-301h-56v729h56z" />
    <glyph glyph-name="i" unicode="i" horiz-adv-x="155" 
d="M40 540q0 17 10.5 28t27.5 11q16 0 26.5 -11.5t10.5 -27.5q0 -15 -10.5 -26t-26.5 -11t-27 11t-11 26zM106 447v-447h-57v447h57z" />
    <glyph glyph-name="j" unicode="j" horiz-adv-x="159" 
d="M42 540q0 17 10.5 28t27.5 11q16 0 26.5 -11.5t10.5 -27.5q0 -15 -10.5 -26t-26.5 -11t-27 11t-11 26zM110 447v-627h-58v627h58z" />
    <glyph glyph-name="k" unicode="k" horiz-adv-x="300" 
d="M106 729v-464l112 182h63l-128 -200l163 -247h-71l-139 214v-214h-56v729h56z" />
    <glyph glyph-name="l" unicode="l" horiz-adv-x="157" 
d="M50 0v729h57v-729h-57z" />
    <glyph glyph-name="m" unicode="m" horiz-adv-x="508" 
d="M106 447v-37q18 19 39 31.5t48 12.5q29 0 49 -13.5t33 -38.5q18 24 39 38t53 14q27 0 44.5 -8.5t28 -23t14.5 -35t4 -44.5v-343h-56v331q0 14 -1.5 27.5t-7 24.5t-16 18t-27.5 7q-24 0 -38 -12t-20.5 -30.5t-8 -40t-1.5 -39.5v-286h-57v330q0 12 -1 26t-6 25.5t-14 19
t-26 7.5q-26 0 -40.5 -13t-21.5 -33t-8.5 -42.5t-1.5 -42.5v-277h-56v447h56z" />
    <glyph glyph-name="n" unicode="n" horiz-adv-x="330" 
d="M106 447v-36q17 19 39 31t48 12q28 0 45 -10.5t26.5 -28t12.5 -39.5t3 -45v-331h-56v325q0 14 -1 28.5t-5.5 26.5t-15 20t-28.5 8q-22 0 -35.5 -10t-21 -26t-9.5 -35t-2 -36v-301h-56v447h56z" />
    <glyph glyph-name="o" unicode="o" horiz-adv-x="323" 
d="M33 224q0 33 4.5 73t18 75t39.5 58.5t69 23.5q44 0 68.5 -24.5t37.5 -60t16 -76t3 -72.5t-3.5 -71.5t-16 -74.5t-37.5 -58.5t-68 -23.5t-69 24t-39.5 59t-18 75t-4.5 73zM163 402q-26 0 -40.5 -22t-21 -52t-8 -60.5t-1.5 -48.5t1.5 -47t8.5 -57t21.5 -48.5t39.5 -20.5
t38.5 21.5t20 50.5t8 59t1.5 47t-1.5 47t-8 59t-20 50.5t-38.5 21.5z" />
    <glyph glyph-name="p" unicode="p" horiz-adv-x="321" 
d="M50 447h56v-30q14 19 30.5 28t40.5 9q41 0 63.5 -23.5t33 -57.5t12.5 -72.5t2 -68.5q0 -36 -2 -78t-12 -77.5t-31.5 -59.5t-59.5 -24q-26 0 -43.5 11.5t-33.5 31.5v-216h-56v627zM101 226q0 -15 0.5 -39.5t3 -50.5t8.5 -48.5t16 -33.5q15 -15 36 -15q20 0 31.5 10.5
t17.5 26.5t9 33.5t4 32.5q3 26 3 52.5v52.5q0 17 -1 44.5t-7.5 53.5t-20 45t-37.5 19q-22 0 -34.5 -16t-19 -42t-8 -59t-1.5 -66z" />
    <glyph glyph-name="q" unicode="q" horiz-adv-x="327" 
d="M39 215q0 35 1.5 76.5t12 77.5t33 60.5t63.5 24.5q24 0 40 -9t31 -28v30h57v-627h-57v216q-15 -20 -32.5 -31.5t-43.5 -11.5q-38 0 -59.5 23.5t-31.5 58t-12 72.5t-2 68zM163 409q-24 0 -37.5 -18.5t-20 -44t-7.5 -52.5t-1 -44q0 -28 0.5 -54.5t2.5 -53.5
q1 -15 3.5 -32.5t9 -33.5t18.5 -26.5t31 -10.5q22 0 36 15q10 11 15.5 33.5t8.5 48.5t3.5 50.5t0.5 39.5q0 35 -2 68t-8.5 58.5t-19 41t-33.5 15.5z" />
    <glyph glyph-name="r" unicode="r" horiz-adv-x="195" 
d="M50 0v447h56v-58q11 25 29 44t47 21v-65q-28 0 -43.5 -10.5t-22.5 -27t-8.5 -37.5t-1.5 -43v-271h-56z" />
    <glyph glyph-name="s" unicode="s" horiz-adv-x="249" 
d="M28 90q17 -17 36 -30.5t43 -13.5q30 0 47.5 20.5t17.5 48.5q0 22 -10.5 40t-26.5 34t-35 31.5t-35 33.5t-26.5 39t-10.5 48q0 49 31 81t80 32q23 0 42 -7.5t38 -21.5v-69q-15 18 -34 32t-43 14q-25 0 -40 -17.5t-15 -41.5q0 -22 10.5 -38.5t26.5 -31.5t35 -29.5t35 -32
t26.5 -40t10.5 -52.5q0 -26 -9 -49t-24.5 -40t-37.5 -27t-49 -10q-23 0 -44 8.5t-39 22.5v66z" />
    <glyph glyph-name="t" unicode="t" horiz-adv-x="199" 
d="M67 447v127h56v-127h75v-52h-75v-395h-56v395h-48v52h48z" />
    <glyph glyph-name="u" unicode="u" horiz-adv-x="332" 
d="M106 447v-303q0 -17 1.5 -34.5t7.5 -31.5t18.5 -23t34.5 -9t33.5 10t17 25.5t6.5 34t1 34.5v297h56v-338q0 -54 -31 -85t-85 -31t-85 31t-31 85v338h56z" />
    <glyph glyph-name="v" unicode="v" horiz-adv-x="276" 
d="M7 447h58l59 -267q5 -24 9 -48t7 -48q4 23 7.5 47t8.5 47l55 269h58l-99 -447h-61z" />
    <glyph glyph-name="w" unicode="w" horiz-adv-x="439" 
d="M67 447l50 -271q5 -23 8 -47t5 -47q2 23 5.5 46t7.5 46l45 273h58q14 -91 29.5 -182t26.5 -183q4 23 7 47t8 48l55 270h57l-98 -447h-58q-14 94 -29.5 186t-27.5 186l-3 -18l-3 -34l-3 -18l-49 -302h-58l-90 447h57z" />
    <glyph glyph-name="x" unicode="x" horiz-adv-x="279" 
d="M7 0l102 229l-91 218h62q17 -47 34.5 -93.5t28.5 -95.5q10 50 28.5 96t37.5 93h63l-100 -218l100 -229h-63l-49 127q-6 17 -12 33t-10 33q-3 -17 -8.5 -33.5t-11.5 -33.5l-48 -126h-63z" />
    <glyph glyph-name="y" unicode="y" horiz-adv-x="289" 
d="M64 447l56 -248q6 -28 11.5 -56t9.5 -56q3 21 8 41.5t10 42.5l65 276h59l-160 -627h-60l50 192l-106 435h57z" />
    <glyph glyph-name="z" unicode="z" horiz-adv-x="271" 
d="M86 52h151v-52h-232l176 395h-153v52h238z" />
    <glyph glyph-name="braceleft" unicode="{" 
d="M152 301q36 10 47 34t11 58v200q0 41 9.5 67.5t28 41.5t47 21t66.5 6v-48q-52 -1 -73.5 -19.5t-21.5 -72.5v-199q0 -41 -11 -68t-50 -45q38 -19 49.5 -47.5t11.5 -68.5v-190q0 -27 4.5 -45.5t15.5 -30t29 -16t46 -4.5v-48h-17q-40 0 -66 9.5t-41 28t-21 46.5t-6 65v185
q0 17 -2 32.5t-8 27.5t-17.5 21t-30.5 14v45z" />
    <glyph glyph-name="bar" unicode="|" 
d="M222 -250v1000h56v-1000h-56z" />
    <glyph glyph-name="braceright" unicode="}" horiz-adv-x="501" 
d="M147 729q38 0 66.5 -6t47.5 -21t28 -41.5t9 -67.5v-200q0 -34 11 -58t47 -34v-45q-37 -10 -47.5 -35t-10.5 -60v-185q0 -37 -6 -65t-21 -46.5t-41 -28t-66 -9.5h-17v48q28 0 46 4.5t29 16t15.5 30t4.5 45.5v190q0 40 11.5 68.5t49.5 47.5q-39 18 -50 45t-11 68v199
q0 27 -5 44.5t-16 28t-29.5 15t-44.5 4.5v48z" />
    <glyph glyph-name="asciitilde" unicode="~" horiz-adv-x="667" 
d="M94 611q11 21 23 40.5t28 34.5t36 24t46 9q29 0 56.5 -11t54 -24t52.5 -24t51 -11q36 0 57.5 21.5t38.5 50.5l36 -21q-10 -21 -23.5 -40t-30.5 -34t-37.5 -23.5t-46.5 -8.5q-28 0 -55 11t-53 24t-52 24t-52 11q-34 0 -56.5 -24t-37.5 -51z" />
    <glyph glyph-name="uni00A0" unicode="&#xa0;" horiz-adv-x="233" 
 />
    <glyph glyph-name="exclamdown" unicode="&#xa1;" horiz-adv-x="237" 
d="M73 409q0 19 13 32t32 13t32 -13t13 -32t-13 -32t-32 -13q-18 0 -31.5 13.5t-13.5 31.5zM148 280v-500h-60v500h60z" />
    <glyph glyph-name="cent" unicode="&#xa2;" horiz-adv-x="366" 
d="M84 336q0 45 8 95t32 89q14 22 27.5 32t36.5 18v83h49v-82q19 -3 41 -13v-67q-11 12 -25.5 21t-31.5 9q-27 0 -42 -21t-23 -50.5t-10 -60t-2 -49.5q0 -18 2.5 -47.5t10.5 -57.5t23 -48.5t40 -20.5q20 0 33.5 13t24.5 27v-70q-17 -14 -41 -19v-92h-49v92
q-33 12 -53.5 36.5t-31.5 54.5t-15 63.5t-4 64.5z" />
    <glyph glyph-name="sterling" unicode="&#xa3;" horiz-adv-x="366" 
d="M29 30q12 25 34 47t52 22q6 0 16 -2q18 27 22 49.5t4 30.5q0 30 -13 61t-35 60h-79v42h59q-20 39 -33 79.5t-13 85.5q0 36 10 67t29 54t48 36.5t66 13.5q31 0 56 -11.5t43 -31t28 -46t11 -56.5l-58 -12q-1 19 -6 36.5t-15 31t-25.5 21.5t-36.5 8q-24 0 -40.5 -9t-27 -24
t-15 -34.5t-4.5 -40.5q0 -44 16.5 -87t36.5 -81h105v-42h-84q22 -32 29.5 -59t7.5 -49q0 -32 -9 -57.5t-28 -51.5l43 -30q10 -7 18 -9t16 -2q19 0 26 16.5t9 32.5l52 -17q-3 -36 -25.5 -63.5t-60.5 -27.5q-14 0 -28.5 5t-27.5 13l-34 22q-19 12 -29 15.5t-16 3.5
q-16 0 -27 -13t-15 -27z" />
    <glyph glyph-name="currency" unicode="&#xa4;" horiz-adv-x="667" 
d="M62 590l33 33l93 -93q33 26 67.5 40t77.5 14q42 0 77.5 -13.5t67.5 -39.5l92 91l33 -32l-92 -92q25 -33 38.5 -67.5t13.5 -76.5t-13.5 -76t-38.5 -66l93 -93l-32 -33l-93 93q-32 -25 -67.5 -39t-77.5 -14q-41 0 -76.5 14t-67.5 38l-92 -92l-33 33l92 92q-26 32 -40 67.5
t-14 76.5q0 42 13.5 76t38.5 66zM156 355q0 -36 14 -68.5t38 -57t56.5 -38.5t68.5 -14q37 0 69.5 14t56.5 38t38 56.5t14 69.5t-14 69.5t-38 56.5t-56.5 38t-69.5 14q-36 0 -68.5 -14t-56.5 -38.5t-38 -57t-14 -68.5z" />
    <glyph glyph-name="yen" unicode="&#xa5;" horiz-adv-x="366" 
d="M115 418l-86 249h64l63 -195q19 -58 30 -119q5 31 13 61.5t17 60.5l57 192h64l-81 -249h94v-42h-108l-21 -65h129v-42h-135v-269h-57v269h-142v42h136l-23 65h-113v42h99z" />
    <glyph glyph-name="brokenbar" unicode="&#xa6;" 
d="M222 345v405h56v-405h-56zM222 -250v405h56v-405h-56z" />
    <glyph glyph-name="section" unicode="&#xa7;" horiz-adv-x="367" 
d="M42 283q0 27 5 54.5t16.5 51.5t31 42t48.5 26q-40 26 -61.5 61t-21.5 85q0 28 8.5 53t25 43.5t40 29.5t52.5 11q31 0 54 -11t38.5 -29.5t23.5 -43.5t10 -53h-60q-1 15 -5 30t-12 27t-20 19.5t-30 7.5t-30.5 -8t-21 -20.5t-12.5 -28.5t-4 -31q0 -27 10 -47t26 -35
t35.5 -27.5t39.5 -25t38 -26.5t30 -33q17 -27 23 -61.5t6 -66.5q0 -25 -4 -52t-14.5 -51t-28 -42.5t-45.5 -27.5q39 -24 57 -59.5t18 -83.5q0 -28 -8 -53.5t-24 -45t-39 -31t-53 -11.5q-38 0 -67.5 19.5t-44.5 54.5q-8 17 -10.5 36t-4.5 38h58q1 -17 4 -33.5t10.5 -30
t20.5 -22t33 -8.5q18 0 31.5 8t21.5 21t12 29t4 32q0 39 -15.5 61t-39 37t-50.5 28.5t-50.5 36t-39 59t-15.5 97.5zM183 420q-26 0 -42.5 -14t-25.5 -35t-12.5 -45.5t-3.5 -44.5q0 -21 3 -45.5t12 -45.5t25.5 -35t43.5 -14t43.5 12t26 30.5t12.5 41t3 44.5t-2.5 48t-11 49
t-25.5 38.5t-46 15.5z" />
    <glyph glyph-name="dieresis" unicode="&#xa8;" 
d="M271 557q0 18 12.5 30.5t30.5 12.5t30.5 -12.5t12.5 -30.5t-12.5 -31t-30.5 -13t-30.5 13t-12.5 31zM186 513q-18 0 -30.5 13t-12.5 31t12.5 30.5t30.5 12.5t30.5 -12.5t12.5 -30.5t-12.5 -31t-30.5 -13z" />
    <glyph glyph-name="copyright" unicode="&#xa9;" horiz-adv-x="756" 
d="M378 -12q-71 0 -134 27t-110 74t-74 110t-27 134q0 72 27 135t74 110t110 74t135 27q71 0 134 -27.5t109.5 -74.5t73.5 -110t27 -134t-27 -134t-74 -110t-110 -74t-134 -27zM379 643q-64 0 -120 -24.5t-97 -66.5t-65 -98.5t-24 -120.5q0 -63 24 -119t65 -98.5t97 -67
t119 -24.5q64 0 119.5 24.5t97 66.5t65 98.5t23.5 119.5t-23.5 119.5t-64.5 98.5t-96.5 67t-119.5 25zM292 169q-25 32 -31 76t-6 84q0 30 4 67t17 68.5t37 53t64 21.5q19 0 28 -4.5t26 -9.5l3 -1v-55q-12 8 -25.5 15t-28.5 7q-26 0 -40.5 -17.5t-21.5 -42t-8.5 -51.5
t-1.5 -45q0 -17 1 -44t7.5 -52.5t20.5 -44t39 -18.5q16 0 30.5 7.5t27.5 15.5v-52q-28 -19 -61 -19q-24 0 -45 11t-36 30z" />
    <glyph glyph-name="ordfeminine" unicode="&#xaa;" horiz-adv-x="240" 
d="M103 368q-27 0 -41.5 17t-21.5 41t-8 50.5t-1 45.5q0 20 1 46t8.5 49t23 38.5t43.5 15.5q27 0 43 -19v15h43v-295h-43v18q-19 -22 -47 -22zM115 636q-15 0 -23 -13t-12 -32t-4.5 -39t-0.5 -35q0 -14 1 -33.5t4.5 -37.5t11.5 -30.5t22 -12.5q13 0 23 9q7 6 10 20t4.5 30.5
t1.5 32v24.5q0 19 -0.5 39.5t-4.5 38t-11.5 28.5t-21.5 11zM35 330h158v-33h-158v33z" />
    <glyph glyph-name="guillemotleft" unicode="&#xab;" horiz-adv-x="325" 
d="M253 43l-108 194l108 188l39 -21l-95 -167l95 -171zM142 43l-109 194l109 188l38 -21l-95 -167l95 -171z" />
    <glyph glyph-name="logicalnot" unicode="&#xac;" 
d="M410 0v215h-377v52h434v-267h-57z" />
    <glyph glyph-name="uni00AD" unicode="&#xad;" horiz-adv-x="238" 
d="M50 233v58h138v-58h-138z" />
    <glyph glyph-name="registered" unicode="&#xae;" horiz-adv-x="756" 
d="M33 333q0 72 27 135t74 110t110 74t135 27q71 0 134 -27.5t109.5 -74.5t73.5 -110t27 -134t-27 -134t-74 -110t-110 -74t-134 -27t-134 27t-110 74t-74 110t-27 134zM379 643q-64 0 -120 -24.5t-97 -66.5t-65 -98.5t-24 -120.5q0 -63 24 -119t65 -98.5t97 -67t119 -24.5
q64 0 119.5 24.5t97 66.5t65 98.5t23.5 119.5t-23.5 119.5t-64.5 98.5t-96.5 67t-119.5 25zM350 536q63 0 90 -24t27 -88q0 -19 -4 -37t-13 -32.5t-23.5 -23.5t-35.5 -11l91 -189h-51l-85 176v-176h-49v405h53zM346 363h21q33 0 41 17.5t8 46.5q0 32 -9.5 48.5t-45.5 16.5
h-15v-129z" />
    <glyph glyph-name="macron" unicode="&#xaf;" 
d="M138 520v55h224v-55h-224z" />
    <glyph glyph-name="degree" unicode="&#xb0;" 
d="M112 537q0 29 11 53.5t30 42.5t44 28.5t53 10.5t53 -10.5t44 -28.5t30 -42.5t11 -53.5q0 -28 -11 -52.5t-30 -43t-44 -29t-53 -10.5t-53 10.5t-44 29t-30 43t-11 52.5zM250 634q-41 0 -70 -27.5t-29 -69.5q0 -20 8 -38t21.5 -31t31.5 -20.5t38 -7.5t38 7.5t31.5 20.5
t21.5 31t8 38q0 42 -29 69.5t-70 27.5z" />
    <glyph glyph-name="plusminus" unicode="&#xb1;" 
d="M33 342v53h189v176h56v-176h189v-53h-189v-176h-56v176h-189zM33 124h434v-53h-434v53z" />
    <glyph glyph-name="twosuperior" unicode="&#xb2;" horiz-adv-x="252" 
d="M30 266l88 172q17 32 34 68.5t17 74.5q0 21 -9.5 36.5t-32.5 15.5q-15 0 -24 -6.5t-13.5 -17t-6 -23.5t-1.5 -25q0 -5 1 -8h-44q0 23 3 44.5t12 38t26 27t45 10.5q44 0 66.5 -26t22.5 -68t-17.5 -81.5t-37.5 -75.5l-62 -115h112v-41h-179z" />
    <glyph glyph-name="threesuperior" unicode="&#xb3;" horiz-adv-x="252" 
d="M79 381q0 -13 0.5 -26.5t5 -25t13.5 -19t25 -7.5t25 7.5t14 18.5t6.5 25t1.5 26q0 36 -13 61.5t-54 25.5h-21v38q21 0 36.5 2t26 8.5t15.5 20.5t5 38q0 23 -8 40t-34 17q-15 0 -23 -5t-12 -14t-5 -20t-1 -23h-42q0 20 4 39t13.5 33.5t25.5 23t39 8.5q44 0 65.5 -25.5
t21.5 -67.5q0 -32 -8 -53t-35 -39q32 -18 40 -46t8 -62q0 -24 -4 -45.5t-14 -37.5t-27.5 -25.5t-45.5 -9.5t-45.5 9.5t-27 26t-12.5 38t-3 45.5h44z" />
    <glyph glyph-name="acute" unicode="&#xb4;" 
d="M250 507l-35 26l96 120l54 -43z" />
    <glyph glyph-name="uni00B5" unicode="&#xb5;" 
d="M52 447h56v-244q0 -28 2.5 -54.5t16.5 -51.5q17 -32 49.5 -48.5t67.5 -16.5q38 0 67.5 18t49.5 50q18 28 23 55t5 59v233h56v-447h-56v94q-23 -50 -56.5 -78.5t-90.5 -28.5q-45 0 -78 19.5t-56 57.5v-244h-56v627z" />
    <glyph glyph-name="uni00B5" unicode="&#x3bc;" 
d="M52 447h56v-244q0 -28 2.5 -54.5t16.5 -51.5q17 -32 49.5 -48.5t67.5 -16.5q38 0 67.5 18t49.5 50q18 28 23 55t5 59v233h56v-447h-56v94q-23 -50 -56.5 -78.5t-90.5 -28.5q-45 0 -78 19.5t-56 57.5v-244h-56v627z" />
    <glyph glyph-name="paragraph" unicode="&#xb6;" horiz-adv-x="556" 
d="M203 313q-39 0 -72.5 12.5t-58 35.5t-39 55t-14.5 72q0 49 17.5 83t47.5 55.5t69.5 31t83.5 9.5h250v-46h-56v-721h-50v721h-111v-721h-51v413h-16z" />
    <glyph glyph-name="periodcentered" unicode="&#xb7;" horiz-adv-x="204" 
d="M43 343q0 25 17 42t42 17q24 0 41 -17.5t17 -41.5t-17 -41t-41 -17t-41.5 17t-17.5 41z" />
    <glyph glyph-name="cedilla" unicode="&#xb8;" horiz-adv-x="493" 
d="M226 -185l-36 21l67 127l46 -25z" />
    <glyph glyph-name="onesuperior" unicode="&#xb9;" horiz-adv-x="253" 
d="M110 267v359h-55v41h100v-400h-45z" />
    <glyph glyph-name="ordmasculine" unicode="&#xba;" horiz-adv-x="240" 
d="M122 368q-29 0 -46.5 15.5t-26.5 38.5t-12 49.5t-3 48.5t3 48t12.5 49t27 38.5t45.5 15.5q29 0 46 -15.5t25.5 -39t11 -50t2.5 -48.5t-2.5 -48t-11 -48.5t-25.5 -38t-46 -15.5zM121 631q-16 0 -25 -13.5t-13 -32.5t-5 -38.5t-1 -30.5t1 -29.5t5.5 -36t13 -30.5t24.5 -13
q15 0 23.5 13.5t12.5 32t5 37.5t1 29q0 11 -1 29.5t-5 37t-12.5 32t-23.5 13.5zM37 297v33h167v-33h-167z" />
    <glyph glyph-name="guillemotright" unicode="&#xbb;" horiz-adv-x="325" 
d="M184 43l-39 23l95 171l-95 167l39 21l108 -188zM72 43l-39 23l95 171l-95 167l39 21l108 -188z" />
    <glyph glyph-name="onequarter" unicode="&#xbc;" horiz-adv-x="622" 
d="M145 0l289 667h46l-289 -667h-46zM56 626v41h100v-400h-45v359h-55zM512 400h44v-255h31v-39h-31v-106h-45v106h-109v40zM513 310q-15 -42 -32.5 -82.5t-34.5 -82.5h65v81.5t2 83.5z" />
    <glyph glyph-name="onehalf" unicode="&#xbd;" horiz-adv-x="622" 
d="M434 667h46l-289 -667h-46zM156 667v-400h-45v359h-55v41h100zM399 0l88 172q17 32 34 68.5t17 74.5q0 21 -9.5 36.5t-32.5 15.5q-15 0 -24 -6.5t-13.5 -17t-6 -23.5t-1.5 -25q0 -5 1 -8h-44q0 23 3 44t12 38t26 27t45 10q44 0 66.5 -26t22.5 -68q0 -38 -16 -75t-36 -75
l-65 -121h112v-41h-179z" />
    <glyph glyph-name="threequarters" unicode="&#xbe;" horiz-adv-x="621" 
d="M123 262q-28 0 -45.5 9.5t-27 26t-12.5 38t-3 45.5h44q0 -13 0.5 -26.5t5 -25t13.5 -19t25 -7.5t25 7.5t14 18.5t6.5 25t1.5 26q0 36 -13 61.5t-54 25.5h-21v38q21 0 36.5 2t26 8.5t15.5 20.5t5 38q0 23 -8 40t-34 17q-15 0 -23 -5t-12 -14t-5 -20t-1 -23h-42q0 20 4 39
t13.5 33.5t25.5 23t39 8.5q44 0 65.5 -25.5t21.5 -67.5q0 -32 -8 -53t-35 -39q32 -18 40 -46t8 -62q0 -24 -4 -45.5t-14 -37.5t-27.5 -25.5t-45.5 -9.5zM145 0l289 667h46l-289 -667h-46zM511 400h44v-255h30v-39h-30v-106h-45v106h-110v40zM510 145v82.5t2 82.5
q-16 -42 -33.5 -82.5t-34.5 -82.5h66z" />
    <glyph glyph-name="questiondown" unicode="&#xbf;" horiz-adv-x="331" 
d="M150 409q0 19 13 32t32 13t32 -13t13 -32t-13 -32t-32 -13t-32 13t-13 32zM76 -190q-18 25 -20.5 56t-2.5 60q0 33 2 67t13 61.5t34 46t66 19.5v161h59v-215h-8l-17 1h-8q-11 0 -25.5 -1.5t-25.5 -7.5q-13 -7 -19 -25t-8.5 -38.5t-2.5 -41.5v-34q0 -14 1.5 -30.5
t6.5 -30.5t15.5 -23.5t29.5 -9.5q18 0 28.5 8.5t16 21.5t7 29t1.5 32v33h59v-47q0 -57 -26.5 -94t-88.5 -37q-25 0 -48.5 9.5t-38.5 29.5z" />
    <glyph glyph-name="Agrave" unicode="&#xc0;" horiz-adv-x="325" 
d="M89 789l35 34l85 -96l-27 -26zM133 667h58l133 -667h-66l-25 137h-141l-25 -137h-66zM223 191l-44 235q-8 39 -12.5 78t-6.5 79q-7 -100 -24 -197t-34 -195h121z" />
    <glyph glyph-name="Aacute" unicode="&#xc1;" horiz-adv-x="325" 
d="M212 823l35 -34l-93 -88l-27 26zM1 0l132 667h58l133 -667h-66l-25 137h-141l-25 -137h-66zM223 191l-44 235q-8 39 -12.5 78t-6.5 79q-7 -100 -24 -197t-34 -195h121z" />
    <glyph glyph-name="Acircumflex" unicode="&#xc2;" horiz-adv-x="325" 
d="M77 728l85 95l87 -95l-34 -27l-53 58l-53 -58zM1 0l132 667h58l133 -667h-66l-25 137h-141l-25 -137h-66zM160 583q-7 -100 -24 -197t-34 -195h121l-44 235q-8 39 -12.5 78t-6.5 79z" />
    <glyph glyph-name="Atilde" unicode="&#xc3;" horiz-adv-x="325" 
d="M75 731q2 8 7 17.5t12.5 18t16.5 14t18 5.5q17 0 27 -5t17 -10.5t13 -10.5t15 -5q10 0 15.5 10.5t8.5 19.5l28 -20q-1 -9 -6 -18.5t-12.5 -17.5t-17 -13t-19.5 -5q-14 0 -23.5 5t-17 10.5t-13.5 10.5t-12 5q-8 0 -15 -9t-14 -21zM1 0l132 667h58l133 -667h-66l-25 137
h-141l-25 -137h-66zM160 583q-7 -100 -24 -197t-34 -195h121l-44 235q-8 39 -12.5 78t-6.5 79z" />
    <glyph glyph-name="Adieresis" unicode="&#xc4;" horiz-adv-x="325" 
d="M181 764q0 18 12.5 30.5t30.5 12.5t30.5 -12.5t12.5 -30.5t-12.5 -31t-30.5 -13t-30.5 13t-12.5 31zM96 720q-18 0 -30.5 13t-12.5 31t12.5 30.5t30.5 12.5t30.5 -12.5t12.5 -30.5t-12.5 -31t-30.5 -13zM1 0l132 667h58l133 -667h-66l-25 137h-141l-25 -137h-66zM223 191
l-44 235q-8 39 -12.5 78t-6.5 79q-7 -100 -24 -197t-34 -195h121z" />
    <glyph glyph-name="Aring" unicode="&#xc5;" horiz-adv-x="325" 
d="M163 714q-33 0 -56.5 23.5t-23.5 56.5t23.5 56.5t56.5 23.5t56.5 -23.5t23.5 -56.5t-23.5 -56.5t-56.5 -23.5zM123 794q0 -17 11.5 -28.5t28.5 -11.5t28.5 11.5t11.5 28.5t-11.5 28.5t-28.5 11.5t-28.5 -11.5t-11.5 -28.5zM1 0l132 667h58l133 -667h-66l-25 137h-141
l-25 -137h-66zM223 191l-44 235q-8 39 -12.5 78t-6.5 79q-7 -100 -24 -197t-34 -195h121z" />
    <glyph glyph-name="AE" unicode="&#xc6;" horiz-adv-x="462" 
d="M132 667h222l11 -57h-143l42 -235h135l11 -57h-136l47 -261h141l9 -57h-207l-22 137h-151l-24 -137h-66zM101 190h132l-47 282q-5 31 -9 61.5t-6 61.5q-2 -8 -2.5 -15.5t-2.5 -15.5l-9 -60q-2 -8 -2.5 -15.5t-2.5 -15.5z" />
    <glyph glyph-name="Ccedilla" unicode="&#xc7;" horiz-adv-x="320" 
d="M38 316q0 31 2 69.5t8 78.5t18 78t32.5 68t51 48t72.5 18q21 0 41.5 -5t38.5 -16v-68q-17 11 -36 20t-41 9q-30 0 -51 -15t-34.5 -39t-21.5 -54.5t-11.5 -61.5t-4.5 -60t-1 -50q0 -24 1.5 -58t6.5 -68.5t13.5 -66t22.5 -51.5q28 -41 75 -41q23 0 43.5 9t38.5 21v-62
q-20 -13 -42 -20.5t-45 -7.5q-36 0 -67.5 18t-52.5 47q-19 26 -30.5 58.5t-17.5 67t-7.5 69t-1.5 65.5zM216 -37l46 -25l-77 -123l-36 21z" />
    <glyph glyph-name="Egrave" unicode="&#xc8;" horiz-adv-x="301" 
d="M124 823l85 -96l-27 -26l-93 88zM55 667h208v-57h-146v-235h142v-57h-142v-261h146v-57h-208v667z" />
    <glyph glyph-name="Eacute" unicode="&#xc9;" horiz-adv-x="301" 
d="M122 727l85 96l35 -34l-93 -88zM55 0v667h208v-57h-146v-235h142v-57h-142v-261h146v-57h-208z" />
    <glyph glyph-name="Ecircumflex" unicode="&#xca;" horiz-adv-x="301" 
d="M158 823l87 -95l-34 -27l-53 58l-53 -58l-32 27zM55 667h208v-57h-146v-235h142v-57h-142v-261h146v-57h-208v667z" />
    <glyph glyph-name="Edieresis" unicode="&#xcb;" horiz-adv-x="301" 
d="M229 720q-18 0 -30.5 13t-12.5 31t12.5 30.5t30.5 12.5t30.5 -12.5t12.5 -30.5t-12.5 -31t-30.5 -13zM58 764q0 18 12.5 30.5t30.5 12.5t30.5 -12.5t12.5 -30.5t-12.5 -31t-30.5 -13t-30.5 13t-12.5 31zM263 667v-57h-146v-235h142v-57h-142v-261h146v-57h-208v667h208z
" />
    <glyph glyph-name="Igrave" unicode="&#xcc;" horiz-adv-x="171" 
d="M102 701l-93 88l35 34l85 -96zM55 0v667h62v-667h-62z" />
    <glyph glyph-name="Iacute" unicode="&#xcd;" horiz-adv-x="171" 
d="M46 727l85 96l35 -34l-93 -88zM55 0v667h62v-667h-62z" />
    <glyph glyph-name="Icircumflex" unicode="&#xce;" horiz-adv-x="171" 
d="M159 714l-74 69l-74 -69l-38 38l112 107l114 -107zM55 0v667h62v-667h-62z" />
    <glyph glyph-name="Idieresis" unicode="&#xcf;" horiz-adv-x="171" 
d="M150 720q-18 0 -30.5 13t-12.5 31t12.5 30.5t30.5 12.5t30.5 -12.5t12.5 -30.5t-12.5 -31t-30.5 -13zM-21 764q0 18 12.5 30.5t30.5 12.5t30.5 -12.5t12.5 -30.5t-12.5 -31t-30.5 -13t-30.5 13t-12.5 31zM55 0v667h62v-667h-62z" />
    <glyph glyph-name="Eth" unicode="&#xd0;" horiz-adv-x="371" 
d="M55 371v296h78q45 0 77.5 -9t55 -29t36.5 -51.5t21 -76.5q7 -41 8.5 -82.5t1.5 -83.5q0 -21 -0.5 -49t-2.5 -57t-5.5 -56.5t-9.5 -47.5q-21 -69 -63.5 -97t-114.5 -28h-82v321h-47v50h47zM117 610v-239h90v-50h-90v-264h29q22 0 41.5 5.5t35.5 22.5q17 18 26.5 43.5
t14 55t5.5 59.5t1 57q0 20 -0.5 51.5t-2.5 64.5t-5.5 63.5t-9.5 49.5q-13 43 -37.5 62t-70.5 19h-27z" />
    <glyph glyph-name="Ntilde" unicode="&#xd1;" horiz-adv-x="387" 
d="M79 729q3 30 20 53.5t50 23.5q12 0 24 -5t23 -11t21 -11t18 -5q12 0 14.5 9.5t2.5 18.5h57q-1 -15 -5.5 -29.5t-12.5 -26t-20.5 -19t-29.5 -7.5q-13 0 -25.5 5.5t-24 11.5t-21.5 11.5t-19 5.5q-11 0 -13.5 -8.5t-2.5 -16.5h-56zM109 667l151 -453q7 -20 12.5 -39.5
t11.5 -39.5q-6 41 -6 82v450h54v-667h-54l-148 440q-16 48 -27 94q6 -52 6 -105v-429h-54v667h54z" />
    <glyph glyph-name="Ograve" unicode="&#xd2;" horiz-adv-x="404" 
d="M118 789l35 34l85 -96l-27 -26zM38 333q0 28 1.5 64t7 74t16 75t28.5 65.5t45.5 46.5t65.5 18q39 0 66.5 -17.5t46 -46t28.5 -64.5t15.5 -74t6.5 -74t1 -64t-1 -64.5t-6 -75t-15 -75t-28 -65.5t-45.5 -47t-67.5 -18q-39 0 -66.5 17.5t-45.5 46.5t-29 65.5t-16 74.5
t-6.5 74t-1.5 64zM203 616q-26 0 -43.5 -16t-29 -41.5t-17.5 -57t-8.5 -63t-3 -59t-0.5 -45.5q0 -17 0.5 -45t3 -59.5t8.5 -63.5t17.5 -57.5t29 -41.5t43.5 -16q28 0 45.5 16t27.5 40t14.5 51t6.5 48q6 75 6 152q0 17 -0.5 42.5t-3.5 54.5t-9 57.5t-17 51.5t-28 37.5
t-42 14.5z" />
    <glyph glyph-name="Oacute" unicode="&#xd3;" horiz-adv-x="404" 
d="M167 727l85 96l35 -34l-93 -88zM38 333q0 28 1.5 64t7 74t16 75t28.5 65.5t45.5 46.5t65.5 18q39 0 66.5 -17.5t46 -46t28.5 -64.5t15.5 -74t6.5 -74t1 -64t-1 -64.5t-6 -75t-15 -75t-28 -65.5t-45.5 -47t-67.5 -18q-39 0 -66.5 17.5t-45.5 46.5t-29 65.5t-16 74.5
t-6.5 74t-1.5 64zM203 616q-26 0 -43.5 -16t-29 -41.5t-17.5 -57t-8.5 -63t-3 -59t-0.5 -45.5q0 -17 0.5 -45t3 -59.5t8.5 -63.5t17.5 -57.5t29 -41.5t43.5 -16q28 0 45.5 16t27.5 40t14.5 51t6.5 48q6 75 6 152q0 17 -0.5 42.5t-3.5 54.5t-9 57.5t-17 51.5t-28 37.5
t-42 14.5z" />
    <glyph glyph-name="Ocircumflex" unicode="&#xd4;" horiz-adv-x="404" 
d="M116 728l85 95l87 -95l-34 -27l-53 58l-53 -58zM38 333q0 28 1.5 64t7 74t16 75t28.5 65.5t45.5 46.5t65.5 18q39 0 66.5 -17.5t46 -46t28.5 -64.5t15.5 -74t6.5 -74t1 -64t-1 -64.5t-6 -75t-15 -75t-28 -65.5t-45.5 -47t-67.5 -18q-39 0 -66.5 17.5t-45.5 46.5t-29 65.5
t-16 74.5t-6.5 74t-1.5 64zM203 616q-26 0 -43.5 -16t-29 -41.5t-17.5 -57t-8.5 -63t-3 -59t-0.5 -45.5q0 -17 0.5 -45t3 -59.5t8.5 -63.5t17.5 -57.5t29 -41.5t43.5 -16q28 0 45.5 16t27.5 40t14.5 51t6.5 48q6 75 6 152q0 17 -0.5 42.5t-3.5 54.5t-9 57.5t-17 51.5
t-28 37.5t-42 14.5z" />
    <glyph glyph-name="Otilde" unicode="&#xd5;" horiz-adv-x="404" 
d="M114 731q2 8 7 17.5t12.5 18t16.5 14t18 5.5q17 0 27 -5t17 -10.5t13 -10.5t15 -5q10 0 15.5 10.5t8.5 19.5l28 -20q-1 -9 -6 -18.5t-12.5 -17.5t-17 -13t-19.5 -5q-14 0 -23.5 5t-17 10.5t-13.5 10.5t-12 5q-8 0 -15 -9t-14 -21zM38 333q0 28 1.5 64t7 74t16 75
t28.5 65.5t45.5 46.5t65.5 18q39 0 66.5 -17.5t46 -46t28.5 -64.5t15.5 -74t6.5 -74t1 -64t-1 -64.5t-6 -75t-15 -75t-28 -65.5t-45.5 -47t-67.5 -18q-39 0 -66.5 17.5t-45.5 46.5t-29 65.5t-16 74.5t-6.5 74t-1.5 64zM203 616q-26 0 -43.5 -16t-29 -41.5t-17.5 -57
t-8.5 -63t-3 -59t-0.5 -45.5q0 -17 0.5 -45t3 -59.5t8.5 -63.5t17.5 -57.5t29 -41.5t43.5 -16q28 0 45.5 16t27.5 40t14.5 51t6.5 48q6 75 6 152q0 17 -0.5 42.5t-3.5 54.5t-9 57.5t-17 51.5t-28 37.5t-42 14.5z" />
    <glyph glyph-name="Odieresis" unicode="&#xd6;" horiz-adv-x="404" 
d="M223 764q0 18 12.5 30.5t30.5 12.5t30.5 -12.5t12.5 -30.5t-12.5 -31t-30.5 -13t-30.5 13t-12.5 31zM95 764q0 18 12.5 30.5t30.5 12.5t30.5 -12.5t12.5 -30.5t-12.5 -31t-30.5 -13t-30.5 13t-12.5 31zM38 333q0 28 1.5 64t7 74t16 75t28.5 65.5t45.5 46.5t65.5 18
q39 0 66.5 -17.5t46 -46t28.5 -64.5t15.5 -74t6.5 -74t1 -64t-1 -64.5t-6 -75t-15 -75t-28 -65.5t-45.5 -47t-67.5 -18q-39 0 -66.5 17.5t-45.5 46.5t-29 65.5t-16 74.5t-6.5 74t-1.5 64zM203 616q-26 0 -43.5 -16t-29 -41.5t-17.5 -57t-8.5 -63t-3 -59t-0.5 -45.5
q0 -17 0.5 -45t3 -59.5t8.5 -63.5t17.5 -57.5t29 -41.5t43.5 -16q28 0 45.5 16t27.5 40t14.5 51t6.5 48q6 75 6 152q0 17 -0.5 42.5t-3.5 54.5t-9 57.5t-17 51.5t-28 37.5t-42 14.5z" />
    <glyph glyph-name="multiply" unicode="&#xd7;" 
d="M115 504l135 -135l135 135l37 -38l-135 -135l135 -134l-37 -38l-135 135l-135 -135l-37 38l135 134l-135 135z" />
    <glyph glyph-name="Oslash" unicode="&#xd8;" horiz-adv-x="428" 
d="M81 100q-20 54 -25.5 116.5t-5.5 119.5q0 27 1.5 63t7 73.5t16 74t28.5 65.5t45 46.5t65 17.5q35 0 63.5 -15t46.5 -45l28 59l39 -19l-42 -89q10 -26 16 -55.5t9 -60t4 -61t1 -58.5t-1 -64t-6 -74t-15.5 -74.5t-28.5 -65t-45.5 -46t-66.5 -17.5q-70 0 -109 60l-29 -59
l-39 19zM215 616q-25 0 -42.5 -15t-29 -39.5t-17.5 -55t-9 -60.5t-3.5 -57t-0.5 -44q0 -42 2 -82.5t8 -82.5l167 373q-9 26 -27 44.5t-48 18.5zM140 114q10 -26 27 -44.5t47 -18.5t48 18t28.5 44t14.5 55t6 51q2 29 3 59t1 60q0 75 -9 148z" />
    <glyph glyph-name="Ugrave" unicode="&#xd9;" horiz-adv-x="390" 
d="M116 789l35 34l85 -96l-27 -26zM117 667v-499q0 -21 2 -42t10 -37.5t23.5 -27t42.5 -10.5q33 0 49 15.5t22.5 38.5t6.5 50v50v462h62v-491q0 -23 -1.5 -46t-7.5 -46q-13 -47 -48 -70t-83 -23t-82.5 23t-48.5 70q-7 23 -8 46.5t-1 46.5v490h62z" />
    <glyph glyph-name="Uacute" unicode="&#xda;" horiz-adv-x="390" 
d="M168 727l85 96l35 -34l-93 -88zM55 667h62v-499q0 -21 2 -42t10 -37.5t23.5 -27t42.5 -10.5q33 0 49 15.5t22.5 38.5t6.5 50v50v462h62v-491q0 -23 -1.5 -46t-7.5 -46q-13 -47 -48 -70t-83 -23t-82.5 23t-48.5 70q-7 23 -8 46.5t-1 46.5v490z" />
    <glyph glyph-name="Ucircumflex" unicode="&#xdb;" horiz-adv-x="390" 
d="M82 752l112 107l114 -107l-40 -38l-74 69l-74 -69zM55 667h62v-499q0 -21 2 -42t10 -37.5t23.5 -27t42.5 -10.5q33 0 49 15.5t22.5 38.5t6.5 50v50v462h62v-491q0 -23 -1.5 -46t-7.5 -46q-13 -47 -48 -70t-83 -23t-82.5 23t-48.5 70q-7 23 -8 46.5t-1 46.5v490z" />
    <glyph glyph-name="Udieresis" unicode="&#xdc;" horiz-adv-x="390" 
d="M216 764q0 18 12.5 30.5t30.5 12.5t30.5 -12.5t12.5 -30.5t-12.5 -31t-30.5 -13t-30.5 13t-12.5 31zM131 720q-18 0 -30.5 13t-12.5 31t12.5 30.5t30.5 12.5t30.5 -12.5t12.5 -30.5t-12.5 -31t-30.5 -13zM117 667v-499q0 -21 2 -42t10 -37.5t23.5 -27t42.5 -10.5
q33 0 49 15.5t22.5 38.5t6.5 50v50v462h62v-491q0 -23 -1.5 -46t-7.5 -46q-13 -47 -48 -70t-83 -23t-82.5 23t-48.5 70q-7 23 -8 46.5t-1 46.5v490h62z" />
    <glyph glyph-name="Yacute" unicode="&#xdd;" horiz-adv-x="316" 
d="M213 823l35 -34l-93 -88l-27 26zM1 667h67l62 -191q6 -18 15.5 -53.5t16.5 -69.5q3 20 9 47t20 75l57 192h67l-122 -378v-289h-62v289z" />
    <glyph glyph-name="Thorn" unicode="&#xde;" horiz-adv-x="329" 
d="M55 667h62v-117q51 0 86.5 -8t58 -28t32.5 -55t10 -88q0 -45 -8 -76.5t-26.5 -52t-49.5 -30t-77 -9.5h-26v-203h-62v667zM158 260q27 0 43.5 8.5t25.5 23.5t11.5 35t2.5 44q0 27 -3 49.5t-12.5 38.5t-28 25t-49.5 9h-31v-233h41z" />
    <glyph glyph-name="germandbls" unicode="&#xdf;" horiz-adv-x="336" 
d="M4 389v58h51v117q0 31 3.5 62.5t15.5 56.5t35.5 41t63.5 16q35 0 58.5 -13t37.5 -36.5t19.5 -55t5.5 -67.5q0 -25 -2.5 -48.5t-9.5 -43t-19.5 -34.5t-32.5 -24q16 -6 27 -16q17 -14 26 -39.5t13 -54t5 -57t1 -48.5q0 -27 -3 -62.5t-16 -66.5t-38 -52.5t-69 -21.5h-21v56
h17q21 0 34 9.5t20 24t10.5 32.5t4.5 34q2 24 2.5 47t0.5 37q0 18 -1 44t-8 49t-21.5 39.5t-40.5 16.5h-18v58h17q22 0 34.5 9t19 24t8.5 35.5t2 42.5t-2 45t-8.5 42t-19 31t-34.5 12t-34 -12.5t-17.5 -30.5t-6.5 -38t-1 -36v-571h-58v389h-51z" />
    <glyph glyph-name="agrave" unicode="&#xe0;" horiz-adv-x="327" 
d="M85 569l35 34l85 -96l-27 -26zM39 215q0 34 2 75.5t12.5 78t33 61t62.5 24.5q24 0 40 -9t31 -28v30h57v-447h-57v36q-15 -20 -32.5 -31.5t-43.5 -11.5q-38 0 -59.5 23.5t-31.5 58t-12 72.5t-2 68zM97 250q0 -28 0.5 -54.5t2.5 -53.5q1 -15 3.5 -32.5t9 -33.5t18.5 -26.5
t31 -10.5q22 0 36 15q10 11 15.5 33.5t8.5 48.5t3.5 50.5t0.5 39.5q0 33 -1.5 66t-8 59t-19 42t-34.5 16q-24 0 -37.5 -18.5t-20 -44t-7.5 -52.5t-1 -44z" />
    <glyph glyph-name="aacute" unicode="&#xe1;" horiz-adv-x="327" 
d="M130 507l85 96l35 -34l-93 -88zM144 -7q-38 0 -59.5 23.5t-31.5 58t-12 72.5t-2 68q0 34 2 75.5t12.5 78t33 61t62.5 24.5q24 0 40 -9t31 -28v30h57v-447h-57v36q-15 -20 -32.5 -31.5t-43.5 -11.5zM163 409q-24 0 -37.5 -18.5t-20 -44t-7.5 -52.5t-1 -44q0 -28 0.5 -54.5
t2.5 -53.5q1 -15 3.5 -32.5t9 -33.5t18.5 -26.5t31 -10.5q22 0 36 15q10 11 15.5 33.5t8.5 48.5t3.5 50.5t0.5 39.5q0 33 -1.5 66t-8 59t-19 42t-34.5 16z" />
    <glyph glyph-name="acircumflex" unicode="&#xe2;" horiz-adv-x="327" 
d="M167 603l87 -95l-34 -27l-53 58l-53 -58l-32 27zM39 215q0 34 2 75.5t12.5 78t33 61t62.5 24.5q24 0 40 -9t31 -28v30h57v-447h-57v36q-15 -20 -32.5 -31.5t-43.5 -11.5q-38 0 -59.5 23.5t-31.5 58t-12 72.5t-2 68zM97 250q0 -28 0.5 -54.5t2.5 -53.5q1 -15 3.5 -32.5
t9 -33.5t18.5 -26.5t31 -10.5q22 0 36 15q10 11 15.5 33.5t8.5 48.5t3.5 50.5t0.5 39.5q0 33 -1.5 66t-8 59t-19 42t-34.5 16q-24 0 -37.5 -18.5t-20 -44t-7.5 -52.5t-1 -44z" />
    <glyph glyph-name="atilde" unicode="&#xe3;" horiz-adv-x="327" 
d="M79 511q2 8 7 17.5t12.5 18t16.5 14t18 5.5q17 0 27 -5t17 -10.5t13 -10.5t15 -5q10 0 15.5 10.5t8.5 19.5l28 -20q-1 -9 -6 -18.5t-12.5 -17.5t-17 -13t-19.5 -5q-14 0 -23.5 5t-17 10.5t-13.5 10.5t-12 5q-8 0 -15 -9t-14 -21zM39 215q0 34 2 75.5t12.5 78t33 61
t62.5 24.5q24 0 40 -9t31 -28v30h57v-447h-57v36q-15 -20 -32.5 -31.5t-43.5 -11.5q-38 0 -59.5 23.5t-31.5 58t-12 72.5t-2 68zM97 250q0 -28 0.5 -54.5t2.5 -53.5q1 -15 3.5 -32.5t9 -33.5t18.5 -26.5t31 -10.5q22 0 36 15q10 11 15.5 33.5t8.5 48.5t3.5 50.5t0.5 39.5
q0 33 -1.5 66t-8 59t-19 42t-34.5 16q-24 0 -37.5 -18.5t-20 -44t-7.5 -52.5t-1 -44z" />
    <glyph glyph-name="adieresis" unicode="&#xe4;" horiz-adv-x="327" 
d="M224 513q-18 0 -30.5 13t-12.5 31t12.5 30.5t30.5 12.5t30.5 -12.5t12.5 -30.5t-12.5 -31t-30.5 -13zM96 513q-18 0 -30.5 13t-12.5 31t12.5 30.5t30.5 12.5t30.5 -12.5t12.5 -30.5t-12.5 -31t-30.5 -13zM144 -7q-38 0 -59.5 23.5t-31.5 58t-12 72.5t-2 68q0 34 2 75.5
t12.5 78t33 61t62.5 24.5q24 0 40 -9t31 -28v30h57v-447h-57v36q-15 -20 -32.5 -31.5t-43.5 -11.5zM97 250q0 -28 0.5 -54.5t2.5 -53.5q1 -15 3.5 -32.5t9 -33.5t18.5 -26.5t31 -10.5q22 0 36 15q10 11 15.5 33.5t8.5 48.5t3.5 50.5t0.5 39.5q0 33 -1.5 66t-8 59t-19 42
t-34.5 16q-24 0 -37.5 -18.5t-20 -44t-7.5 -52.5t-1 -44z" />
    <glyph glyph-name="aring" unicode="&#xe5;" horiz-adv-x="327" 
d="M75 587q0 33 23.5 56.5t56.5 23.5t56.5 -23.5t23.5 -56.5t-23.5 -56.5t-56.5 -23.5t-56.5 23.5t-23.5 56.5zM115 587q0 -17 11.5 -28.5t28.5 -11.5t28.5 11.5t11.5 28.5t-11.5 28.5t-28.5 11.5t-28.5 -11.5t-11.5 -28.5zM39 215q0 34 2 75.5t12.5 78t33 61t62.5 24.5
q24 0 40 -9t31 -28v30h57v-447h-57v36q-15 -20 -32.5 -31.5t-43.5 -11.5q-38 0 -59.5 23.5t-31.5 58t-12 72.5t-2 68zM163 409q-24 0 -37.5 -18.5t-20 -44t-7.5 -52.5t-1 -44q0 -28 0.5 -54.5t2.5 -53.5q1 -15 3.5 -32.5t9 -33.5t18.5 -26.5t31 -10.5q22 0 36 15
q10 11 15.5 33.5t8.5 48.5t3.5 50.5t0.5 39.5q0 33 -1.5 66t-8 59t-19 42t-34.5 16z" />
    <glyph glyph-name="ae" unicode="&#xe6;" horiz-adv-x="508" 
d="M33 150q0 27 6 53.5t19 47.5t34.5 34t52.5 13q23 0 44.5 -9.5t35.5 -27.5v13q0 22 -3.5 45t-13 41.5t-26.5 30t-44 11.5q-23 0 -42 -11t-36 -25v62q37 26 81 26q40 0 68.5 -19.5t45.5 -55.5q12 29 37 52t59 23q42 0 66.5 -26t37 -63.5t16 -78.5t3.5 -72h-197
q0 -18 2.5 -47t10.5 -56t23.5 -46.5t41.5 -19.5q20 0 31.5 11.5t17.5 28.5t8.5 36t2.5 34h53q-1 -26 -7.5 -54.5t-20 -52.5t-35.5 -39.5t-53 -15.5q-37 0 -60 22t-37 52q-14 -33 -42.5 -53.5t-65.5 -20.5q-32 0 -53.5 14.5t-35 37t-19.5 50.5t-6 55zM418 261q0 17 -3 41
t-10.5 46t-21.5 38t-36 16q-21 0 -34 -16.5t-20.5 -39t-10.5 -46.5t-3 -39h139zM155 252q-21 0 -34 -9.5t-20.5 -24.5t-10 -33t-2.5 -35q0 -16 2.5 -34.5t10 -34t20.5 -25.5t34 -10q20 0 34 9.5t22 23.5t11.5 32t3.5 34q0 17 -3 36t-11 34.5t-22 26t-35 10.5z" />
    <glyph glyph-name="ccedilla" unicode="&#xe7;" horiz-adv-x="246" 
d="M33 216q0 32 4.5 73t18.5 78t40 62t69 25q32 0 61 -17v-66q-11 12 -25 21.5t-31 9.5q-27 0 -42.5 -21t-23.5 -50.5t-10 -60t-2 -49.5q0 -18 2.5 -47.5t10.5 -58t23.5 -49t40.5 -20.5q19 0 33 13t24 27v-70q-14 -11 -30.5 -17t-33.5 -6q-39 0 -64.5 23.5t-39.5 58
t-19.5 73t-5.5 68.5zM164 -37l46 -25l-77 -123l-36 21z" />
    <glyph glyph-name="egrave" unicode="&#xe8;" horiz-adv-x="313" 
d="M114 603l85 -96l-27 -26l-93 88zM163 -7q-43 0 -69 23.5t-39.5 58.5t-17.5 75t-4 72q0 30 4.5 70t18 76t38 61t65.5 25t64.5 -23.5t36.5 -57t16.5 -72t3.5 -68.5l-1 -14v-7h-189v-10q0 -17 2 -43.5t9.5 -51.5t21.5 -43t38 -18q19 0 30 11t17 27.5t8.5 35t2.5 32.5h57
q-1 -27 -6.5 -55t-18 -51.5t-34 -38t-54.5 -14.5zM224 260q-1 15 -3 39t-8.5 47t-19 39.5t-33.5 16.5q-22 0 -35 -16.5t-20.5 -39t-10 -47t-3.5 -39.5h133z" />
    <glyph glyph-name="eacute" unicode="&#xe9;" horiz-adv-x="313" 
d="M122 507l85 96l35 -34l-93 -88zM163 -7q-43 0 -69 23.5t-39.5 58.5t-17.5 75t-4 72q0 30 4.5 70t18 76t38 61t65.5 25t64.5 -23.5t36.5 -57t16.5 -72t3.5 -68.5l-1 -14v-7h-189v-10q0 -17 2 -43.5t9.5 -51.5t21.5 -43t38 -18q19 0 30 11t17 27.5t8.5 35t2.5 32.5h57
q-1 -27 -6.5 -55t-18 -51.5t-34 -38t-54.5 -14.5zM224 260q-1 15 -3 39t-8.5 47t-19 39.5t-33.5 16.5q-22 0 -35 -16.5t-20.5 -39t-10 -47t-3.5 -39.5h133z" />
    <glyph glyph-name="ecircumflex" unicode="&#xea;" horiz-adv-x="313" 
d="M74 508l85 95l87 -95l-34 -27l-53 58l-53 -58zM163 -7q-43 0 -69 23.5t-39.5 58.5t-17.5 75t-4 72q0 30 4.5 70t18 76t38 61t65.5 25t64.5 -23.5t36.5 -57t16.5 -72t3.5 -68.5l-1 -14v-7h-189v-10q0 -17 2 -43.5t9.5 -51.5t21.5 -43t38 -18q19 0 30 11t17 27.5t8.5 35
t2.5 32.5h57q-1 -27 -6.5 -55t-18 -51.5t-34 -38t-54.5 -14.5zM160 402q-22 0 -35 -16.5t-20.5 -39t-10 -47t-3.5 -39.5h133q-1 15 -3 39t-8.5 47t-19 39.5t-33.5 16.5z" />
    <glyph glyph-name="edieresis" unicode="&#xeb;" horiz-adv-x="313" 
d="M223 513q-18 0 -30.5 13t-12.5 31t12.5 30.5t30.5 12.5t30.5 -12.5t12.5 -30.5t-12.5 -31t-30.5 -13zM95 513q-18 0 -30.5 13t-12.5 31t12.5 30.5t30.5 12.5t30.5 -12.5t12.5 -30.5t-12.5 -31t-30.5 -13zM163 -7q-43 0 -69 23.5t-39.5 58.5t-17.5 75t-4 72q0 30 4.5 70
t18 76t38 61t65.5 25t64.5 -23.5t36.5 -57t16.5 -72t3.5 -68.5l-1 -14v-7h-189v-10q0 -17 2 -43.5t9.5 -51.5t21.5 -43t38 -18q19 0 30 11t17 27.5t8.5 35t2.5 32.5h57q-1 -27 -6.5 -55t-18 -51.5t-34 -38t-54.5 -14.5zM160 402q-22 0 -35 -16.5t-20.5 -39t-10 -47
t-3.5 -39.5h133q-1 15 -3 39t-8.5 47t-19 39.5t-33.5 16.5z" />
    <glyph glyph-name="igrave" unicode="&#xec;" horiz-adv-x="155" 
d="M95 481l-93 88l35 34l85 -96zM49 0v447h57v-447h-57z" />
    <glyph glyph-name="iacute" unicode="&#xed;" horiz-adv-x="155" 
d="M39 507l85 96l35 -34l-93 -88zM49 0v447h57v-447h-57z" />
    <glyph glyph-name="icircumflex" unicode="&#xee;" horiz-adv-x="155" 
d="M152 507l-74 69l-74 -69l-38 38l112 107l114 -107zM49 0v447h57v-447h-57z" />
    <glyph glyph-name="idieresis" unicode="&#xef;" horiz-adv-x="155" 
d="M143 513q-18 0 -30.5 13t-12.5 31t12.5 30.5t30.5 12.5t30.5 -12.5t12.5 -30.5t-12.5 -31t-30.5 -13zM-28 557q0 18 12.5 30.5t30.5 12.5t30.5 -12.5t12.5 -30.5t-12.5 -31t-30.5 -13t-30.5 13t-12.5 31zM49 0v447h57v-447h-57z" />
    <glyph glyph-name="eth" unicode="&#xf0;" horiz-adv-x="323" 
d="M33 224q0 31 4.5 71t18 75t38.5 59.5t67 24.5t62 -34q-4 66 -13.5 115t-41.5 90l-65 -44l-24 38l56 37q-36 30 -85 49l23 35q32 -11 54.5 -23.5t49.5 -32.5l66 41l24 -37l-57 -35q22 -27 35 -53.5t22 -59.5q8 -37 12 -79.5t6.5 -85t3 -82t0.5 -69.5q0 -31 -3.5 -71
t-16 -75.5t-37 -60t-67.5 -24.5t-69.5 23.5t-40 59t-18 75.5t-4.5 73zM161 402q-25 0 -39 -22t-21 -51t-8.5 -59t-1.5 -46q0 -17 1.5 -47t8 -59.5t21 -51t41.5 -21.5q25 0 38.5 22t20 51.5t8 59.5t1.5 46q0 17 -1.5 47t-8 59t-20.5 50.5t-40 21.5z" />
    <glyph glyph-name="ntilde" unicode="&#xf1;" horiz-adv-x="330" 
d="M60 522q3 30 20 53.5t50 23.5q12 0 24 -5t23 -11t21 -11t18 -5q12 0 14.5 9.5t2.5 18.5h57q-1 -15 -5.5 -29.5t-12.5 -26t-20.5 -19t-29.5 -7.5q-13 0 -25.5 5.5t-24 11.5t-21.5 11.5t-19 5.5q-11 0 -13.5 -8.5t-2.5 -16.5h-56zM50 447h56v-36q17 19 39 31t48 12
q28 0 45 -10.5t26.5 -28t12.5 -39.5t3 -45v-331h-56v325q0 14 -1 28.5t-5.5 26.5t-15 20t-28.5 8q-22 0 -35.5 -10t-21 -26t-9.5 -35t-2 -36v-301h-56v447z" />
    <glyph glyph-name="ograve" unicode="&#xf2;" horiz-adv-x="323" 
d="M82 569l35 34l85 -96l-27 -26zM33 224q0 33 4.5 73t18 75t39.5 58.5t69 23.5q44 0 68.5 -24.5t37.5 -60t16 -76t3 -72.5t-3.5 -71.5t-16 -74.5t-37.5 -58.5t-68 -23.5t-69 24t-39.5 59t-18 75t-4.5 73zM163 402q-26 0 -40.5 -22t-21 -52t-8 -60.5t-1.5 -48.5t1.5 -47
t8.5 -57t21.5 -48.5t39.5 -20.5t38.5 21.5t20 50.5t8 59t1.5 47t-1.5 47t-8 59t-20 50.5t-38.5 21.5z" />
    <glyph glyph-name="oacute" unicode="&#xf3;" horiz-adv-x="323" 
d="M129 507l85 96l35 -34l-93 -88zM33 224q0 33 4.5 73t18 75t39.5 58.5t69 23.5q44 0 68.5 -24.5t37.5 -60t16 -76t3 -72.5t-3.5 -71.5t-16 -74.5t-37.5 -58.5t-68 -23.5t-69 24t-39.5 59t-18 75t-4.5 73zM92 219q0 -18 1.5 -47t8.5 -57t21.5 -48.5t39.5 -20.5t38.5 21.5
t20 50.5t8 59t1.5 47t-1.5 47t-8 59t-20 50.5t-38.5 21.5q-26 0 -40.5 -22t-21 -52t-8 -60.5t-1.5 -48.5z" />
    <glyph glyph-name="ocircumflex" unicode="&#xf4;" horiz-adv-x="323" 
d="M162 603l87 -95l-34 -27l-53 58l-53 -58l-32 27zM33 224q0 33 4.5 73t18 75t39.5 58.5t69 23.5q44 0 68.5 -24.5t37.5 -60t16 -76t3 -72.5t-3.5 -71.5t-16 -74.5t-37.5 -58.5t-68 -23.5t-69 24t-39.5 59t-18 75t-4.5 73zM92 219q0 -18 1.5 -47t8.5 -57t21.5 -48.5
t39.5 -20.5t38.5 21.5t20 50.5t8 59t1.5 47t-1.5 47t-8 59t-20 50.5t-38.5 21.5q-26 0 -40.5 -22t-21 -52t-8 -60.5t-1.5 -48.5z" />
    <glyph glyph-name="otilde" unicode="&#xf5;" horiz-adv-x="323" 
d="M73 511q2 8 7 17.5t12.5 18t16.5 14t18 5.5q17 0 27 -5t17 -10.5t13 -10.5t15 -5q10 0 15.5 10.5t8.5 19.5l28 -20q-1 -9 -6 -18.5t-12.5 -17.5t-17 -13t-19.5 -5q-14 0 -23.5 5t-17 10.5t-13.5 10.5t-12 5q-8 0 -15 -9t-14 -21zM33 224q0 33 4.5 73t18 75t39.5 58.5
t69 23.5q44 0 68.5 -24.5t37.5 -60t16 -76t3 -72.5t-3.5 -71.5t-16 -74.5t-37.5 -58.5t-68 -23.5t-69 24t-39.5 59t-18 75t-4.5 73zM163 402q-26 0 -40.5 -22t-21 -52t-8 -60.5t-1.5 -48.5t1.5 -47t8.5 -57t21.5 -48.5t39.5 -20.5t38.5 21.5t20 50.5t8 59t1.5 47t-1.5 47
t-8 59t-20 50.5t-38.5 21.5z" />
    <glyph glyph-name="odieresis" unicode="&#xf6;" horiz-adv-x="323" 
d="M228 513q-18 0 -30.5 13t-12.5 31t12.5 30.5t30.5 12.5t30.5 -12.5t12.5 -30.5t-12.5 -31t-30.5 -13zM100 513q-18 0 -30.5 13t-12.5 31t12.5 30.5t30.5 12.5t30.5 -12.5t12.5 -30.5t-12.5 -31t-30.5 -13zM164 -7q-43 0 -69 24t-39.5 59t-18 75t-4.5 73t4.5 73t18 75
t39.5 58.5t69 23.5q44 0 68.5 -24.5t37.5 -60t16 -76t3 -72.5t-3.5 -71.5t-16 -74.5t-37.5 -58.5t-68 -23.5zM92 219q0 -18 1.5 -47t8.5 -57t21.5 -48.5t39.5 -20.5t38.5 21.5t20 50.5t8 59t1.5 47t-1.5 47t-8 59t-20 50.5t-38.5 21.5q-26 0 -40.5 -22t-21 -52t-8 -60.5
t-1.5 -48.5z" />
    <glyph glyph-name="divide" unicode="&#xf7;" 
d="M250 474q-17 0 -29.5 13t-12.5 30t12.5 29.5t29.5 12.5t29.5 -12.5t12.5 -29.5t-12.5 -30t-29.5 -13zM467 358v-53h-434v53h434zM208 146q0 17 12.5 29.5t29.5 12.5t29.5 -12.5t12.5 -29.5t-12.5 -30t-29.5 -13t-29.5 13t-12.5 30z" />
    <glyph glyph-name="oslash" unicode="&#xf8;" horiz-adv-x="351" 
d="M69 77q-12 35 -16.5 72t-4.5 74q0 32 4.5 72.5t18 75.5t39 59t68.5 24q52 0 85 -42l24 42l31 -19l-35 -60q14 -37 17.5 -76t3.5 -78q0 -32 -3.5 -71.5t-16 -74.5t-37.5 -58.5t-68 -23.5q-57 0 -90 44l-25 -40l-31 18zM177 402q-25 0 -39.5 -21.5t-21.5 -51t-8.5 -59.5
t-1.5 -48q0 -20 1.5 -40.5t3.5 -40.5l116 218q-7 17 -18.5 30t-31.5 13zM124 90q7 -17 20 -30.5t33 -13.5q24 0 38 21t21 49.5t8.5 57.5t1.5 46q0 21 -2 42l-4 42z" />
    <glyph glyph-name="ugrave" unicode="&#xf9;" horiz-adv-x="332" 
d="M84 569l35 34l85 -96l-27 -26zM106 447v-303q0 -17 1.5 -34.5t7.5 -31.5t18.5 -23t34.5 -9t33.5 10t17 25.5t6.5 34t1 34.5v297h56v-338q0 -54 -31 -85t-85 -31t-85 31t-31 85v338h56z" />
    <glyph glyph-name="uacute" unicode="&#xfa;" horiz-adv-x="332" 
d="M225 603l35 -34l-93 -88l-27 26zM106 447v-303q0 -17 1.5 -34.5t7.5 -31.5t18.5 -23t34.5 -9t33.5 10t17 25.5t6.5 34t1 34.5v297h56v-338q0 -54 -31 -85t-85 -31t-85 31t-31 85v338h56z" />
    <glyph glyph-name="ucircumflex" unicode="&#xfb;" horiz-adv-x="332" 
d="M55 545l112 107l114 -107l-40 -38l-74 69l-74 -69zM106 447v-303q0 -17 1.5 -34.5t7.5 -31.5t18.5 -23t34.5 -9t33.5 10t17 25.5t6.5 34t1 34.5v297h56v-338q0 -54 -31 -85t-85 -31t-85 31t-31 85v338h56z" />
    <glyph glyph-name="udieresis" unicode="&#xfc;" horiz-adv-x="332" 
d="M189 557q0 18 12.5 30.5t30.5 12.5t30.5 -12.5t12.5 -30.5t-12.5 -31t-30.5 -13t-30.5 13t-12.5 31zM61 557q0 18 12.5 30.5t30.5 12.5t30.5 -12.5t12.5 -30.5t-12.5 -31t-30.5 -13t-30.5 13t-12.5 31zM106 447v-303q0 -17 1.5 -34.5t7.5 -31.5t18.5 -23t34.5 -9t33.5 10
t17 25.5t6.5 34t1 34.5v297h56v-338q0 -54 -31 -85t-85 -31t-85 31t-31 85v338h56z" />
    <glyph glyph-name="yacute" unicode="&#xfd;" horiz-adv-x="289" 
d="M114 507l85 96l35 -34l-93 -88zM64 447l56 -248q6 -28 11.5 -56t9.5 -56q3 21 8 41.5t10 42.5l65 276h59l-160 -627h-60l50 192l-106 435h57z" />
    <glyph glyph-name="thorn" unicode="&#xfe;" horiz-adv-x="324" 
d="M50 729h56v-312q14 19 30.5 28t40.5 9q41 0 63.5 -23.5t33 -57.5t12.5 -72.5t2 -68.5q0 -36 -2 -78t-12 -77.5t-31.5 -59.5t-59.5 -24q-26 0 -43.5 11.5t-33.5 31.5v-216h-56v909zM101 226q0 -15 0.5 -39.5t3 -50.5t8.5 -48.5t16 -33.5q15 -15 36 -15q20 0 31.5 10.5
t17.5 26.5t9 33.5t4 32.5q3 26 3 52.5v52.5q0 17 -1 44.5t-7.5 53.5t-20 45t-37.5 19q-21 0 -33.5 -15.5t-19 -41t-8.5 -58.5t-2 -68z" />
    <glyph glyph-name="ydieresis" unicode="&#xff;" horiz-adv-x="289" 
d="M218 513q-18 0 -30.5 13t-12.5 31t12.5 30.5t30.5 12.5t30.5 -12.5t12.5 -30.5t-12.5 -31t-30.5 -13zM90 513q-18 0 -30.5 13t-12.5 31t12.5 30.5t30.5 12.5t30.5 -12.5t12.5 -30.5t-12.5 -31t-30.5 -13zM7 447h57l56 -248q6 -28 11.5 -56t9.5 -56q3 21 8 41.5t10 42.5
l65 276h59l-160 -627h-60l50 192z" />
    <glyph glyph-name="Amacron" unicode="&#x100;" horiz-adv-x="325" 
d="M51 727v55h224v-55h-224zM133 667h58l133 -667h-66l-25 137h-141l-25 -137h-66zM223 191l-44 235q-8 39 -12.5 78t-6.5 79q-7 -100 -24 -197t-34 -195h121z" />
    <glyph glyph-name="amacron" unicode="&#x101;" horiz-adv-x="327" 
d="M54 575h224v-55h-224v55zM144 -7q-38 0 -59.5 23.5t-31.5 58t-12 72.5t-2 68q0 34 2 75.5t12.5 78t33 61t62.5 24.5q24 0 40 -9t31 -28v30h57v-447h-57v36q-15 -20 -32.5 -31.5t-43.5 -11.5zM97 250q0 -28 0.5 -54.5t2.5 -53.5q1 -15 3.5 -32.5t9 -33.5t18.5 -26.5
t31 -10.5q22 0 36 15q10 11 15.5 33.5t8.5 48.5t3.5 50.5t0.5 39.5q0 33 -1.5 66t-8 59t-19 42t-34.5 16q-24 0 -37.5 -18.5t-20 -44t-7.5 -52.5t-1 -44z" />
    <glyph glyph-name="Abreve" unicode="&#x102;" horiz-adv-x="325" 
d="M130 789q1 -53 33 -53q30 0 31 53h41q0 -17 -3 -33.5t-11 -29t-22 -20.5t-37 -8q-22 0 -36 7.5t-22.5 20.5t-11.5 29t-3 34h41zM1 0l132 667h58l133 -667h-66l-25 137h-141l-25 -137h-66zM223 191l-44 235q-8 39 -12.5 78t-6.5 79q-7 -100 -24 -197t-34 -195h121z" />
    <glyph glyph-name="abreve" unicode="&#x103;" horiz-adv-x="327" 
d="M137 572q1 -53 33 -53q30 0 31 53h41q0 -17 -3 -33.5t-11 -29t-22 -20.5t-37 -8q-22 0 -36 7.5t-22.5 20.5t-11.5 29t-3 34h41zM39 215q0 34 2 75.5t12.5 78t33 61t62.5 24.5q24 0 40 -9t31 -28v30h57v-447h-57v36q-15 -20 -32.5 -31.5t-43.5 -11.5q-38 0 -59.5 23.5
t-31.5 58t-12 72.5t-2 68zM97 250q0 -28 0.5 -54.5t2.5 -53.5q1 -15 3.5 -32.5t9 -33.5t18.5 -26.5t31 -10.5q22 0 36 15q10 11 15.5 33.5t8.5 48.5t3.5 50.5t0.5 39.5q0 33 -1.5 66t-8 59t-19 42t-34.5 16q-24 0 -37.5 -18.5t-20 -44t-7.5 -52.5t-1 -44z" />
    <glyph glyph-name="Aogonek" unicode="&#x104;" horiz-adv-x="325" 
d="M133 667h58l133 -667h-20q-6 -6 -14.5 -15t-16 -19t-12.5 -20.5t-5 -20.5q0 -14 9 -21t23 -7q6 0 14 1.5t16 6.5v-48q-19 -9 -40 -9q-30 0 -50.5 16.5t-20.5 48.5q0 26 17 48t34 39l-25 137h-141l-25 -137h-66zM223 191l-44 235q-5 27 -10 65t-9 92q-3 -39 -11 -108
t-25 -163l-22 -121h121z" />
    <glyph glyph-name="aogonek" unicode="&#x105;" horiz-adv-x="327" 
d="M36 228q0 20 0.5 44.5t3.5 49.5t10 48.5t19 42t31 30t47 11.5q23 0 41 -10t29 -27v30h58v-447h-13q-1 -2 -12.5 -12t-19.5 -24q-2 -4 -7.5 -13.5t-5.5 -21.5q0 -14 9.5 -22.5t23.5 -8.5q17 0 35 10v-47q-21 -11 -44 -11q-29 0 -50.5 15t-21.5 47q0 24 16.5 47.5
t31.5 40.5v36q-13 -22 -33 -32.5t-43 -10.5q-20 0 -38 8t-32 28q-20 26 -27.5 73.5t-7.5 119.5v6zM160 409q-24 0 -37.5 -19t-20 -44.5t-7.5 -52.5t-1 -43v-39q0 -72 8 -107t22 -50q7 -8 15 -11.5t20 -3.5q14 0 23 4.5t14 10.5t10 16.5t9 30t6 49.5t2 76v12q0 25 -0.5 49
t-3 44.5t-9 37.5t-18.5 27q-14 13 -32 13z" />
    <glyph glyph-name="Cacute" unicode="&#x106;" horiz-adv-x="320" 
d="M281 860l54 -43l-115 -103l-35 26zM38 316q0 31 2 69.5t8 78.5t18 78t32.5 68t51 48t72.5 18q21 0 41.5 -5t38.5 -16v-68q-17 11 -36 20t-41 9q-30 0 -51 -15t-34.5 -39t-21.5 -54.5t-11.5 -61.5t-4.5 -60t-1 -50q0 -24 1.5 -58t6.5 -68.5t13.5 -66t22.5 -51.5
q28 -41 75 -41q23 0 43.5 9t38.5 21v-62q-20 -13 -42 -20.5t-45 -7.5q-36 0 -67.5 18t-52.5 47q-19 26 -30.5 58.5t-17.5 67t-7.5 69t-1.5 65.5z" />
    <glyph glyph-name="cacute" unicode="&#x107;" horiz-adv-x="246" 
d="M221 653l54 -43l-115 -103l-35 26zM33 216q0 32 4.5 73t18.5 78t40 62t69 25q32 0 61 -17v-66q-11 12 -25 21.5t-31 9.5q-27 0 -42.5 -21t-23.5 -50.5t-10 -60t-2 -49.5q0 -18 2.5 -47.5t10.5 -58t23.5 -49t40.5 -20.5q19 0 33 13t24 27v-70q-14 -11 -30.5 -17t-33.5 -6
q-39 0 -64.5 23.5t-39.5 58t-19.5 73t-5.5 68.5z" />
    <glyph glyph-name="Ccircumflex" unicode="&#x108;" horiz-adv-x="320" 
d="M219 859l114 -107l-40 -38l-74 69l-74 -69l-38 38zM38 316q0 31 2 69.5t8 78.5t18 78t32.5 68t51 48t72.5 18q21 0 41.5 -5t38.5 -16v-68q-17 11 -36 20t-41 9q-30 0 -51 -15t-34.5 -39t-21.5 -54.5t-11.5 -61.5t-4.5 -60t-1 -50q0 -24 1.5 -58t6.5 -68.5t13.5 -66
t22.5 -51.5q28 -41 75 -41q23 0 43.5 9t38.5 21v-62q-20 -13 -42 -20.5t-45 -7.5q-36 0 -67.5 18t-52.5 47q-19 26 -30.5 58.5t-17.5 67t-7.5 69t-1.5 65.5z" />
    <glyph glyph-name="ccircumflex" unicode="&#x109;" horiz-adv-x="246" 
d="M47 545l112 107l114 -107l-40 -38l-74 69l-74 -69zM162 -7q-39 0 -64.5 23.5t-39.5 58t-19.5 73t-5.5 68.5q0 32 4.5 73t18.5 78t40 62t69 25q32 0 61 -17v-66q-11 12 -25 21.5t-31 9.5q-27 0 -42.5 -21t-23.5 -50.5t-10 -60t-2 -49.5q0 -18 2.5 -47.5t10.5 -58t23.5 -49
t40.5 -20.5q19 0 33 13t24 27v-70q-14 -11 -30.5 -17t-33.5 -6z" />
    <glyph glyph-name="Cdotaccent" unicode="&#x10a;" horiz-adv-x="320" 
d="M212 720q-19 0 -32 13.5t-13 32.5t13 32t32 13t32.5 -13t13.5 -32t-13.5 -32.5t-32.5 -13.5zM38 316q0 31 2 69.5t8 78.5t18 78t32.5 68t51 48t72.5 18q21 0 41.5 -5t38.5 -16v-68q-17 11 -36 20t-41 9q-30 0 -51 -15t-34.5 -39t-21.5 -54.5t-11.5 -61.5t-4.5 -60t-1 -50
q0 -24 1.5 -58t6.5 -68.5t13.5 -66t22.5 -51.5q28 -41 75 -41q23 0 43.5 9t38.5 21v-62q-20 -13 -42 -20.5t-45 -7.5q-36 0 -67.5 18t-52.5 47q-19 26 -30.5 58.5t-17.5 67t-7.5 69t-1.5 65.5z" />
    <glyph glyph-name="cdotaccent" unicode="&#x10b;" horiz-adv-x="246" 
d="M112 559q0 19 13 32t32 13t32.5 -13t13.5 -32t-13.5 -32.5t-32.5 -13.5t-32 13.5t-13 32.5zM162 -7q-39 0 -64.5 23.5t-39.5 58t-19.5 73t-5.5 68.5q0 32 4.5 73t18.5 78t40 62t69 25q32 0 61 -17v-66q-11 12 -25 21.5t-31 9.5q-27 0 -42.5 -21t-23.5 -50.5t-10 -60
t-2 -49.5q0 -18 2.5 -47.5t10.5 -58t23.5 -49t40.5 -20.5q19 0 33 13t24 27v-70q-14 -11 -30.5 -17t-33.5 -6z" />
    <glyph glyph-name="Ccaron" unicode="&#x10c;" horiz-adv-x="320" 
d="M107 821l38 38l74 -69l74 69l40 -38l-114 -107zM38 316q0 31 2 69.5t8 78.5t18 78t32.5 68t51 48t72.5 18q21 0 41.5 -5t38.5 -16v-68q-17 11 -36 20t-41 9q-30 0 -51 -15t-34.5 -39t-21.5 -54.5t-11.5 -61.5t-4.5 -60t-1 -50q0 -24 1.5 -58t6.5 -68.5t13.5 -66
t22.5 -51.5q28 -41 75 -41q23 0 43.5 9t38.5 21v-62q-20 -13 -42 -20.5t-45 -7.5q-36 0 -67.5 18t-52.5 47q-19 26 -30.5 58.5t-17.5 67t-7.5 69t-1.5 65.5z" />
    <glyph glyph-name="ccaron" unicode="&#x10d;" horiz-adv-x="246" 
d="M47 614l38 38l74 -69l74 69l40 -38l-114 -107zM162 -7q-39 0 -64.5 23.5t-39.5 58t-19.5 73t-5.5 68.5q0 32 4.5 73t18.5 78t40 62t69 25q32 0 61 -17v-66q-11 12 -25 21.5t-31 9.5q-27 0 -42.5 -21t-23.5 -50.5t-10 -60t-2 -49.5q0 -18 2.5 -47.5t10.5 -58t23.5 -49
t40.5 -20.5q19 0 33 13t24 27v-70q-14 -11 -30.5 -17t-33.5 -6z" />
    <glyph glyph-name="Dcaron" unicode="&#x10e;" horiz-adv-x="371" 
d="M85 859l74 -69l74 69l40 -38l-114 -107l-112 107zM133 667q48 0 81 -10t55 -31t35 -54t20 -79q7 -42 8 -84.5t1 -85.5q0 -30 -1 -67t-6 -74t-16.5 -71t-31.5 -58q-28 -33 -63.5 -43t-77.5 -10h-82v667h78zM117 57h29q45 0 70 22.5t36.5 56t14 72.5t2.5 73q0 42 -0.5 85
t-4.5 88q-3 30 -8.5 58t-18 50t-35 35t-59.5 13h-26v-553z" />
    <glyph glyph-name="dcaron" unicode="&#x10f;" horiz-adv-x="422" 
d="M33 220q0 33 1.5 73.5t12 76t33 60t64.5 24.5q24 0 40 -9t31 -28v312h56v-729h-56v36q-15 -20 -33 -31.5t-44 -11.5q-39 0 -60 24.5t-31 60t-12 74.5t-2 68zM374 676l58 -28l-74 -164l-39 19zM157 409q-24 0 -37 -18.5t-19.5 -44.5t-7.5 -52.5t-1 -43.5q0 -28 0.5 -54.5
t2.5 -53.5q1 -15 3.5 -32.5t8.5 -33.5t18 -26.5t31 -10.5q23 0 37 15q10 11 15.5 33.5t8 48t3 49.5t0.5 38q0 35 -1.5 68.5t-8 59.5t-19 42t-34.5 16z" />
    <glyph glyph-name="Dcroat" unicode="&#x110;" horiz-adv-x="371" 
d="M55 351v316h78q45 0 77.5 -9t55 -29t36.5 -51.5t21 -76.5q7 -41 8.5 -82.5t1.5 -83.5q0 -21 -0.5 -49t-2.5 -57t-5.5 -56.5t-9.5 -47.5q-21 -69 -63.5 -97t-114.5 -28h-82v299h-36v52h36zM117 610v-259h77v-52h-77v-242h29q22 0 41.5 5.5t35.5 22.5q17 18 26.5 43.5
t14 55t5.5 59.5t1 57q0 20 -0.5 51.5t-2.5 64.5t-5.5 63.5t-9.5 49.5q-13 43 -37.5 62t-70.5 19h-27z" />
    <glyph glyph-name="dcroat" unicode="&#x111;" horiz-adv-x="321" 
d="M33 220q0 24 1.5 59.5t12 69t33 57.5t64.5 24q24 0 40.5 -9t30.5 -28v139h-103v48h103v149h57v-149h49v-48h-49v-532h-57v36q-14 -20 -32 -31.5t-44 -11.5q-39 0 -60.5 24.5t-31.5 60t-12 74.5t-2 68zM157 385q-24 0 -37 -18.5t-19.5 -43.5t-7.5 -51t-1 -40
q0 -17 0.5 -40t2.5 -50q1 -15 3.5 -32.5t8.5 -33.5t18 -26.5t31 -10.5q23 0 38 15q10 10 15.5 32.5t7.5 48t2.5 50t0.5 38.5q0 23 -1 51.5t-7 53t-18.5 41t-36.5 16.5z" />
    <glyph glyph-name="Emacron" unicode="&#x112;" horiz-adv-x="301" 
d="M274 782v-55h-224v55h224zM263 667v-57h-146v-235h142v-57h-142v-261h146v-57h-208v667h208z" />
    <glyph glyph-name="emacron" unicode="&#x113;" horiz-adv-x="313" 
d="M271 575v-55h-224v55h224zM33 222q0 30 4.5 70t18 76t38 61t65.5 25t64.5 -23.5t36.5 -57t16.5 -72t3.5 -68.5l-1 -14v-7h-189v-10q0 -17 2 -43.5t9.5 -51.5t21.5 -43t38 -18q19 0 30 11t17 27.5t8.5 35t2.5 32.5h57q-1 -27 -6.5 -55t-18 -51.5t-34 -38t-54.5 -14.5
q-43 0 -69 23.5t-39.5 58.5t-17.5 75t-4 72zM224 260q-1 15 -3 39t-8.5 47t-19 39.5t-33.5 16.5q-22 0 -35 -16.5t-20.5 -39t-10 -47t-3.5 -39.5h133z" />
    <glyph glyph-name="Edotaccent" unicode="&#x116;" horiz-adv-x="301" 
d="M162 720q-19 0 -32 13.5t-13 32.5t13 32t32 13t32.5 -13t13.5 -32t-13.5 -32.5t-32.5 -13.5zM263 667v-57h-146v-235h142v-57h-142v-261h146v-57h-208v667h208z" />
    <glyph glyph-name="edotaccent" unicode="&#x117;" horiz-adv-x="313" 
d="M159 513q-19 0 -32 13.5t-13 32.5t13 32t32 13t32.5 -13t13.5 -32t-13.5 -32.5t-32.5 -13.5zM33 222q0 30 4.5 70t18 76t38 61t65.5 25t64.5 -23.5t36.5 -57t16.5 -72t3.5 -68.5l-1 -14v-7h-189v-10q0 -17 2 -43.5t9.5 -51.5t21.5 -43t38 -18q19 0 30 11t17 27.5t8.5 35
t2.5 32.5h57q-1 -27 -6.5 -55t-18 -51.5t-34 -38t-54.5 -14.5q-43 0 -69 23.5t-39.5 58.5t-17.5 75t-4 72zM160 402q-22 0 -35 -16.5t-20.5 -39t-10 -47t-3.5 -39.5h133q-1 15 -3 39t-8.5 47t-19 39.5t-33.5 16.5z" />
    <glyph glyph-name="Eogonek" unicode="&#x118;" horiz-adv-x="301" 
d="M263 667v-57h-146v-235h142v-57h-142v-261h146v-57h-14q-9 -8 -19 -17.5t-16 -15.5q-7 -7 -12 -16t-5 -22q0 -16 10 -24t25 -8q2 0 11 1t20 7v-48q-19 -9 -44 -9q-29 0 -50 16.5t-21 47.5q0 29 17 50t38 38h-148v667h208z" />
    <glyph glyph-name="eogonek" unicode="&#x119;" horiz-adv-x="313" 
d="M33 217q0 32 4 72.5t17.5 77.5t39 62t67.5 25q36 0 59.5 -20.5t37 -51t18.5 -65.5t5 -63q0 -11 -0.5 -21.5t-1.5 -20.5h-189v-4q0 -19 1.5 -46.5t9 -53t22 -44t40.5 -18.5q18 0 29 11.5t17 28t8 35t2 31.5h57q-1 -50 -12.5 -78.5t-19.5 -40.5q-11 -17 -21.5 -28.5
t-25.5 -31.5q-7 -9 -13 -20t-6 -23q0 -14 9.5 -23t23.5 -9q17 0 35 10v-47q-20 -11 -46 -11q-28 0 -49 15.5t-21 45.5q0 23 15 46q5 8 15 20t12 16q-45 0 -72.5 21.5t-42.5 54.5t-19.5 72.5t-4.5 75.5zM160 402q-21 0 -34.5 -16.5t-21 -39.5t-10.5 -47t-3 -39h133
q0 15 -2.5 39t-9 47t-19 39.5t-33.5 16.5z" />
    <glyph glyph-name="Ecaron" unicode="&#x11a;" horiz-adv-x="301" 
d="M90 859l74 -69l74 69l40 -38l-114 -107l-112 107zM55 0v667h208v-57h-146v-235h142v-57h-142v-261h146v-57h-208z" />
    <glyph glyph-name="ecaron" unicode="&#x11b;" horiz-adv-x="313" 
d="M46 614l38 38l74 -69l74 69l40 -38l-114 -107zM163 -7q-43 0 -69 23.5t-39.5 58.5t-17.5 75t-4 72q0 30 4.5 70t18 76t38 61t65.5 25t64.5 -23.5t36.5 -57t16.5 -72t3.5 -68.5l-1 -14v-7h-189v-10q0 -17 2 -43.5t9.5 -51.5t21.5 -43t38 -18q19 0 30 11t17 27.5t8.5 35
t2.5 32.5h57q-1 -27 -6.5 -55t-18 -51.5t-34 -38t-54.5 -14.5zM160 402q-22 0 -35 -16.5t-20.5 -39t-10 -47t-3.5 -39.5h133q-1 15 -3 39t-8.5 47t-19 39.5t-33.5 16.5z" />
    <glyph glyph-name="Gcircumflex" unicode="&#x11c;" horiz-adv-x="374" 
d="M87 752l112 107l114 -107l-40 -38l-74 69l-74 -69zM79 55q-14 25 -22.5 63t-12.5 80t-5 82.5t-1 69.5t1 64t5.5 71t14.5 70.5t28 61.5t45.5 43t67.5 16q31 0 53 -9.5t38 -26.5t26.5 -40t17.5 -50l-61 -24q-3 16 -8 32t-13 29t-21 21t-32 8q-24 0 -41 -13.5t-28 -34.5
t-17 -48t-9 -54t-3.5 -51.5t-0.5 -41.5v-60.5t2 -70t6.5 -69t12.5 -57.5q10 -29 27 -47t49 -18q27 0 42.5 14t23 35t9 45t1.5 44v106h-91v57h153v-134q0 -37 -3.5 -77.5t-17.5 -73.5t-42.5 -54.5t-78.5 -21.5q-38 0 -67 16t-48 48z" />
    <glyph glyph-name="gcircumflex" unicode="&#x11d;" horiz-adv-x="331" 
d="M167 652l114 -107l-40 -38l-74 69l-74 -69l-38 38zM153 0q-42 0 -65.5 25t-34 61t-12.5 76.5t-2 70.5q0 28 3 66t14 72.5t33 58.5t61 24q24 0 41.5 -9.5t32.5 -28.5v31h57v-496q0 -61 -26 -96t-91 -35q-59 0 -87.5 33.5t-28.5 90.5v9t1 8h57q0 -17 1.5 -33t8 -28
t18.5 -19.5t33 -7.5t32.5 7.5t17 20t6.5 28t1 31.5v72q-15 -17 -31.5 -24.5t-39.5 -7.5zM162 408q-22 0 -35 -17.5t-20 -45.5t-8.5 -63t-1.5 -70q0 -18 1 -46t8 -55t21 -46t40 -19q19 0 30 10t17.5 24.5t9 31t3.5 30.5q2 28 2.5 54.5t0.5 53.5q0 18 -1 44.5t-7.5 52
t-20 43.5t-39.5 18z" />
    <glyph glyph-name="Gbreve" unicode="&#x11e;" horiz-adv-x="374" 
d="M200 718q-22 0 -43 5t-38 16.5t-28 29t-14 41.5h48q10 -23 31 -32t44 -9t44 9t31 32h48q-3 -24 -14 -41.5t-28 -29t-38 -16.5t-43 -5zM79 55q-14 25 -22.5 63t-12.5 80t-5 82.5t-1 69.5t1 64t5.5 71t14.5 70.5t28 61.5t45.5 43t67.5 16q31 0 53 -9.5t38 -26.5t26.5 -40
t17.5 -50l-61 -24q-3 16 -8 32t-13 29t-21 21t-32 8q-24 0 -41 -13.5t-28 -34.5t-17 -48t-9 -54t-3.5 -51.5t-0.5 -41.5v-60.5t2 -70t6.5 -69t12.5 -57.5q10 -29 27 -47t49 -18q27 0 42.5 14t23 35t9 45t1.5 44v106h-91v57h153v-134q0 -37 -3.5 -77.5t-17.5 -73.5
t-42.5 -54.5t-78.5 -21.5q-38 0 -67 16t-48 48z" />
    <glyph glyph-name="gbreve" unicode="&#x11f;" horiz-adv-x="331" 
d="M168 507q-22 0 -43 5t-38 16.5t-28 29t-14 41.5h48q10 -23 31 -32t44 -9t44 9t31 32h48q-3 -24 -14 -41.5t-28 -29t-38 -16.5t-43 -5zM153 0q-42 0 -65.5 25t-34 61t-12.5 76.5t-2 70.5q0 28 3 66t14 72.5t33 58.5t61 24q24 0 41.5 -9.5t32.5 -28.5v31h57v-496
q0 -61 -26 -96t-91 -35q-59 0 -87.5 33.5t-28.5 90.5v9t1 8h57q0 -17 1.5 -33t8 -28t18.5 -19.5t33 -7.5t32.5 7.5t17 20t6.5 28t1 31.5v72q-15 -17 -31.5 -24.5t-39.5 -7.5zM162 408q-22 0 -35 -17.5t-20 -45.5t-8.5 -63t-1.5 -70q0 -18 1 -46t8 -55t21 -46t40 -19
q19 0 30 10t17.5 24.5t9 31t3.5 30.5q2 28 2.5 54.5t0.5 53.5q0 18 -1 44.5t-7.5 52t-20 43.5t-39.5 18z" />
    <glyph glyph-name="Gdotaccent" unicode="&#x120;" horiz-adv-x="374" 
d="M149 766q0 19 13 32t32 13t32.5 -13t13.5 -32t-13.5 -32.5t-32.5 -13.5t-32 13.5t-13 32.5zM38 350q0 29 1 64t5.5 71t14.5 70.5t28 61.5t45.5 43t67.5 16q31 0 53 -9.5t38 -26.5t26.5 -40t17.5 -50l-61 -24q-3 16 -8 32t-13 29t-21 21t-32 8q-24 0 -41 -13.5t-28 -34.5
t-17 -48t-9 -54t-3.5 -51.5t-0.5 -41.5v-60.5t2 -70t6.5 -69t12.5 -57.5q10 -29 27 -47t49 -18q27 0 42.5 14t23 35t9 45t1.5 44v106h-91v57h153v-134q0 -37 -3.5 -77.5t-17.5 -73.5t-42.5 -54.5t-78.5 -21.5q-38 0 -67 16t-48 48q-14 25 -22.5 63t-12.5 80t-5 82.5t-1 69.5
z" />
    <glyph glyph-name="gdotaccent" unicode="&#x121;" horiz-adv-x="331" 
d="M154 513q-19 0 -32 13.5t-13 32.5t13 32t32 13t32.5 -13t13.5 -32t-13.5 -32.5t-32.5 -13.5zM39 233q0 28 3 66t14 72.5t33 58.5t61 24q24 0 41.5 -9.5t32.5 -28.5v31h57v-496q0 -61 -26 -96t-91 -35q-59 0 -87.5 33.5t-28.5 90.5v9t1 8h57q0 -17 1.5 -33t8 -28
t18.5 -19.5t33 -7.5t32.5 7.5t17 20t6.5 28t1 31.5v72q-15 -17 -31.5 -24.5t-39.5 -7.5q-42 0 -65.5 25t-34 61t-12.5 76.5t-2 70.5zM162 408q-22 0 -35 -17.5t-20 -45.5t-8.5 -63t-1.5 -70q0 -18 1 -46t8 -55t21 -46t40 -19q19 0 30 10t17.5 24.5t9 31t3.5 30.5
q2 28 2.5 54.5t0.5 53.5q0 18 -1 44.5t-7.5 52t-20 43.5t-39.5 18z" />
    <glyph glyph-name="uni0122" unicode="&#x122;" horiz-adv-x="374" 
d="M38 350q0 29 1 64t5.5 71t14.5 70.5t28 61.5t45.5 43t67.5 16q31 0 53 -9.5t38 -26.5t26.5 -40t17.5 -50l-61 -24q-3 16 -8 32t-13 29t-21 21t-32 8q-24 0 -41 -13.5t-28 -34.5t-17 -48t-9 -54t-3.5 -51.5t-0.5 -41.5v-60.5t2 -70t6.5 -69t12.5 -57.5q10 -29 27 -47
t49 -18q27 0 42.5 14t23 35t9 45t1.5 44v106h-91v57h153v-134q0 -37 -3.5 -77.5t-17.5 -73.5t-42.5 -54.5t-78.5 -21.5q-38 0 -67 16t-48 48q-14 25 -22.5 63t-12.5 80t-5 82.5t-1 69.5zM134 -212l53 163l58 -28l-72 -154z" />
    <glyph glyph-name="uni0123" unicode="&#x123;" horiz-adv-x="331" 
d="M181 684l39 -19l-53 -163l-58 28zM39 233q0 28 3 66t14 72.5t33 58.5t61 24q24 0 41.5 -9.5t32.5 -28.5v31h57v-496q0 -61 -26 -96t-91 -35q-59 0 -87.5 33.5t-28.5 90.5v9t1 8h57q0 -17 1.5 -33t8 -28t18.5 -19.5t33 -7.5t32.5 7.5t17 20t6.5 28t1 31.5v72
q-15 -17 -31.5 -24.5t-39.5 -7.5q-42 0 -65.5 25t-34 61t-12.5 76.5t-2 70.5zM162 408q-22 0 -35 -17.5t-20 -45.5t-8.5 -63t-1.5 -70q0 -18 1 -46t8 -55t21 -46t40 -19q19 0 30 10t17.5 24.5t9 31t3.5 30.5q2 28 2.5 54.5t0.5 53.5q0 18 -1 44.5t-7.5 52t-20 43.5t-39.5 18
z" />
    <glyph glyph-name="Hcircumflex" unicode="&#x124;" horiz-adv-x="385" 
d="M80 752l112 107l114 -107l-40 -38l-74 69l-74 -69zM55 0v667h62v-266h152v266h62v-667h-62v344h-152v-344h-62z" />
    <glyph glyph-name="hcircumflex" unicode="&#x125;" horiz-adv-x="330" 
d="M-33 775l112 107l114 -107l-40 -38l-74 69l-74 -69zM50 729h56v-318q17 19 39 31t48 12q27 0 44 -9t26.5 -25t13 -36.5t3.5 -44.5v-339h-56v325q0 14 -1 28.5t-5.5 26.5t-15 20t-28.5 8q-22 0 -35.5 -10t-21 -26t-9.5 -35t-2 -36v-301h-56v729z" />
    <glyph glyph-name="Hbar" unicode="&#x126;" horiz-adv-x="385" 
d="M5 609h50v58h62v-58h152v58h62v-58h50v-47h-50v-562h-62v344h-152v-344h-62v562h-50v47zM269 401v161h-152v-161h152z" />
    <glyph glyph-name="hbar" unicode="&#x127;" horiz-adv-x="340" 
d="M10 532v52h49v145h56v-145h104v-52h-104v-145q17 19 39 31t48 12q27 0 44.5 -9t27 -25t13 -36.5t3.5 -44.5v-315h-56v297q0 14 -0.5 29.5t-5 28t-15 21t-29.5 8.5q-23 0 -36.5 -10t-21 -26t-9.5 -34.5t-2 -36.5v-277h-56v532h-49z" />
    <glyph glyph-name="Itilde" unicode="&#x128;" horiz-adv-x="171" 
d="M-3 731q2 8 7 17.5t12.5 18t16.5 14t18 5.5q17 0 27 -5t17 -10.5t13 -10.5t15 -5q10 0 15.5 10.5t8.5 19.5l28 -20q-1 -9 -6 -18.5t-12.5 -17.5t-17 -13t-19.5 -5q-14 0 -23.5 5t-17 10.5t-13.5 10.5t-12 5q-8 0 -15 -9t-14 -21zM117 667v-667h-62v667h62z" />
    <glyph glyph-name="itilde" unicode="&#x129;" horiz-adv-x="155" 
d="M-11 511q2 8 7 17.5t12.5 18t16.5 14t18 5.5q17 0 27 -5t17 -10.5t13 -10.5t15 -5q10 0 15.5 10.5t8.5 19.5l28 -20q-1 -9 -6 -18.5t-12.5 -17.5t-17 -13t-19.5 -5q-14 0 -23.5 5t-17 10.5t-13.5 10.5t-12 5q-8 0 -15 -9t-14 -21zM49 0v447h57v-447h-57z" />
    <glyph glyph-name="Imacron" unicode="&#x12a;" horiz-adv-x="171" 
d="M-28 727v55h224v-55h-224zM55 0v667h62v-667h-62z" />
    <glyph glyph-name="imacron" unicode="&#x12b;" horiz-adv-x="155" 
d="M-33 520v55h224v-55h-224zM49 0v447h57v-447h-57z" />
    <glyph glyph-name="Iogonek" unicode="&#x12e;" horiz-adv-x="171" 
d="M16 -88q0 29 17 50t38 38h-16v667h62v-667q-9 -8 -19 -17.5t-16 -15.5q-7 -7 -12 -16t-5 -22q0 -16 10 -24t25 -8q2 0 11 1t20 7v-48q-19 -9 -44 -9q-29 0 -50 16.5t-21 47.5z" />
    <glyph glyph-name="iogonek" unicode="&#x12f;" horiz-adv-x="155" 
d="M77 546q-18 0 -29.5 13t-11.5 29t11.5 29t29.5 13t30.5 -12.5t12.5 -29.5t-12.5 -29.5t-30.5 -12.5zM13 -88q0 24 16.5 47.5t31.5 40.5h-11v447h56v-447q-14 -12 -29.5 -32t-15.5 -40q0 -14 9.5 -22t23.5 -8q17 0 35 10v-47q-21 -11 -44 -11q-29 0 -50.5 15t-21.5 47z
" />
    <glyph glyph-name="Idotaccent" unicode="&#x130;" horiz-adv-x="171" 
d="M41 766q0 19 13 32t32 13t32.5 -13t13.5 -32t-13.5 -32.5t-32.5 -13.5t-32 13.5t-13 32.5zM117 667v-667h-62v667h62z" />
    <glyph glyph-name="dotlessi" unicode="&#x131;" horiz-adv-x="155" 
d="M49 0v447h57v-447h-57z" />
    <glyph glyph-name="Jcircumflex" unicode="&#x134;" horiz-adv-x="224" 
d="M132 859l114 -107l-40 -38l-74 69l-74 -69l-38 38zM1 72q14 -12 28.5 -20t33.5 -8q16 0 25 6t13 15.5t5 21.5t1 24v556h62v-571q0 -24 -4.5 -44t-15.5 -33.5t-29.5 -21t-46.5 -7.5q-20 0 -37.5 5t-34.5 13v64z" />
    <glyph glyph-name="jcircumflex" unicode="&#x135;" horiz-adv-x="159" 
d="M154 507l-74 69l-74 -69l-38 38l112 107l114 -107zM52 -180v627h58v-627h-58z" />
    <glyph glyph-name="uni0136" unicode="&#x136;" horiz-adv-x="329" 
d="M55 0v667h62v-303l134 303h69l-144 -318l145 -349h-70l-134 336v-336h-62zM120 -212l53 163l58 -28l-72 -154z" />
    <glyph glyph-name="uni0137" unicode="&#x137;" horiz-adv-x="300" 
d="M50 0v729h56v-464l112 182h63l-128 -200l163 -247h-71l-139 214v-214h-56zM110 -212l53 163l58 -28l-72 -154z" />
    <glyph glyph-name="Lacute" unicode="&#x139;" horiz-adv-x="263" 
d="M100 714l-35 26l96 120l54 -43zM55 0v667h62v-610h144v-57h-206z" />
    <glyph glyph-name="lacute" unicode="&#x13a;" horiz-adv-x="157" 
d="M79 767l-35 26l96 120l54 -43zM50 0v729h57v-729h-57z" />
    <glyph glyph-name="uni013B" unicode="&#x13b;" horiz-adv-x="263" 
d="M55 0v667h62v-610h144v-57h-206zM134 -231l-39 19l53 163l58 -28z" />
    <glyph glyph-name="uni013C" unicode="&#x13c;" horiz-adv-x="157" 
d="M50 0v729h57v-729h-57zM55 -231l-39 19l53 163l58 -28z" />
    <glyph glyph-name="Lcaron" unicode="&#x13d;" horiz-adv-x="263" 
d="M199 462l-39 19l64 195l58 -28zM55 0v667h62v-610h144v-57h-206z" />
    <glyph glyph-name="lcaron" unicode="&#x13e;" horiz-adv-x="242" 
d="M50 0v729h57v-729h-57zM178 484l-39 19l55 173l58 -28z" />
    <glyph glyph-name="Ldot" unicode="&#x13f;" horiz-adv-x="263" 
d="M117 667v-610h144v-57h-206v667h62zM167 334q0 19 13 32t32 13t32.5 -13t13.5 -32t-13.5 -32.5t-32.5 -13.5t-32 13.5t-13 32.5z" />
    <glyph glyph-name="ldot" unicode="&#x140;" horiz-adv-x="228" 
d="M50 0v729h57v-729h-57zM147 365q0 19 13 32t32 13t32.5 -13t13.5 -32t-13.5 -32.5t-32.5 -13.5t-32 13.5t-13 32.5z" />
    <glyph glyph-name="Lslash" unicode="&#x141;" horiz-adv-x="263" 
d="M56 344v323h62v-273l86 104v-64l-86 -104v-273h144v-57h-206v280l-49 -70v64z" />
    <glyph glyph-name="lslash" unicode="&#x142;" horiz-adv-x="170" 
d="M114 389v-389h-57v335l-50 -70v66l50 69v329h57v-275l50 69v-65z" />
    <glyph glyph-name="Nacute" unicode="&#x143;" horiz-adv-x="387" 
d="M149 740l96 120l54 -43l-115 -103zM55 667h54l151 -453q7 -20 12.5 -39.5t11.5 -39.5q-6 41 -6 82v450h54v-667h-54l-148 440q-16 48 -27 94q6 -52 6 -105v-429h-54v667z" />
    <glyph glyph-name="nacute" unicode="&#x144;" horiz-adv-x="330" 
d="M228 653l54 -43l-115 -103l-35 26zM106 447v-36q17 19 39 31t48 12q28 0 45 -10.5t26.5 -28t12.5 -39.5t3 -45v-331h-56v325q0 14 -1 28.5t-5.5 26.5t-15 20t-28.5 8q-22 0 -35.5 -10t-21 -26t-9.5 -35t-2 -36v-301h-56v447h56z" />
    <glyph glyph-name="uni0145" unicode="&#x145;" horiz-adv-x="387" 
d="M55 667h54l151 -453q7 -20 12.5 -39.5t11.5 -39.5q-6 41 -6 82v450h54v-667h-54l-148 440q-16 48 -27 94q6 -52 6 -105v-429h-54v667zM130 -212l53 163l58 -28l-72 -154z" />
    <glyph glyph-name="uni0146" unicode="&#x146;" horiz-adv-x="330" 
d="M106 447v-36q17 19 39 31t48 12q28 0 45 -10.5t26.5 -28t12.5 -39.5t3 -45v-331h-56v325q0 14 -1 28.5t-5.5 26.5t-15 20t-28.5 8q-22 0 -35.5 -10t-21 -26t-9.5 -35t-2 -36v-301h-56v447h56zM157 -49l58 -28l-72 -154l-39 19z" />
    <glyph glyph-name="Ncaron" unicode="&#x147;" horiz-adv-x="387" 
d="M119 859l74 -69l74 69l40 -38l-114 -107l-112 107zM55 0v667h54l151 -453q7 -20 12.5 -39.5t11.5 -39.5q-6 41 -6 82v450h54v-667h-54l-148 440q-16 48 -27 94q6 -52 6 -105v-429h-54z" />
    <glyph glyph-name="ncaron" unicode="&#x148;" horiz-adv-x="330" 
d="M62 614l38 38l74 -69l74 69l40 -38l-114 -107zM106 447v-36q17 19 39 31t48 12q28 0 45 -10.5t26.5 -28t12.5 -39.5t3 -45v-331h-56v325q0 14 -1 28.5t-5.5 26.5t-15 20t-28.5 8q-22 0 -35.5 -10t-21 -26t-9.5 -35t-2 -36v-301h-56v447h56z" />
    <glyph glyph-name="Omacron" unicode="&#x14c;" horiz-adv-x="404" 
d="M90 782h224v-55h-224v55zM38 333q0 28 1.5 64t7 74t16 75t28.5 65.5t45.5 46.5t65.5 18q39 0 66.5 -17.5t46 -46t28.5 -64.5t15.5 -74t6.5 -74t1 -64t-1 -64.5t-6 -75t-15 -75t-28 -65.5t-45.5 -47t-67.5 -18q-39 0 -66.5 17.5t-45.5 46.5t-29 65.5t-16 74.5t-6.5 74
t-1.5 64zM203 616q-26 0 -43.5 -16t-29 -41.5t-17.5 -57t-8.5 -63t-3 -59t-0.5 -45.5q0 -17 0.5 -45t3 -59.5t8.5 -63.5t17.5 -57.5t29 -41.5t43.5 -16q28 0 45.5 16t27.5 40t14.5 51t6.5 48q6 75 6 152q0 17 -0.5 42.5t-3.5 54.5t-9 57.5t-17 51.5t-28 37.5t-42 14.5z" />
    <glyph glyph-name="omacron" unicode="&#x14d;" horiz-adv-x="323" 
d="M52 520v55h224v-55h-224zM164 -7q-43 0 -69 24t-39.5 59t-18 75t-4.5 73t4.5 73t18 75t39.5 58.5t69 23.5q44 0 68.5 -24.5t37.5 -60t16 -76t3 -72.5t-3.5 -71.5t-16 -74.5t-37.5 -58.5t-68 -23.5zM163 402q-26 0 -40.5 -22t-21 -52t-8 -60.5t-1.5 -48.5t1.5 -47t8.5 -57
t21.5 -48.5t39.5 -20.5t38.5 21.5t20 50.5t8 59t1.5 47t-1.5 47t-8 59t-20 50.5t-38.5 21.5z" />
    <glyph glyph-name="Obreve" unicode="&#x14e;" horiz-adv-x="404" 
d="M127 810q10 -23 31 -32t44 -9t44 9t31 32h48q-3 -24 -14 -41.5t-28 -29t-38 -16.5t-43 -5t-43 5t-38 16.5t-28 29t-14 41.5h48zM38 333q0 28 1.5 64t7 74t16 75t28.5 65.5t45.5 46.5t65.5 18q39 0 66.5 -17.5t46 -46t28.5 -64.5t15.5 -74t6.5 -74t1 -64t-1 -64.5t-6 -75
t-15 -75t-28 -65.5t-45.5 -47t-67.5 -18q-39 0 -66.5 17.5t-45.5 46.5t-29 65.5t-16 74.5t-6.5 74t-1.5 64zM203 616q-26 0 -43.5 -16t-29 -41.5t-17.5 -57t-8.5 -63t-3 -59t-0.5 -45.5q0 -17 0.5 -45t3 -59.5t8.5 -63.5t17.5 -57.5t29 -41.5t43.5 -16q28 0 45.5 16t27.5 40
t14.5 51t6.5 48q6 75 6 152q0 17 -0.5 42.5t-3.5 54.5t-9 57.5t-17 51.5t-28 37.5t-42 14.5z" />
    <glyph glyph-name="obreve" unicode="&#x14f;" horiz-adv-x="323" 
d="M89 599q10 -23 31 -32t44 -9t44 9t31 32h48q-3 -24 -14 -41.5t-28 -29t-38 -16.5t-43 -5t-43 5t-38 16.5t-28 29t-14 41.5h48zM33 224q0 33 4.5 73t18 75t39.5 58.5t69 23.5q44 0 68.5 -24.5t37.5 -60t16 -76t3 -72.5t-3.5 -71.5t-16 -74.5t-37.5 -58.5t-68 -23.5t-69 24
t-39.5 59t-18 75t-4.5 73zM92 219q0 -18 1.5 -47t8.5 -57t21.5 -48.5t39.5 -20.5t38.5 21.5t20 50.5t8 59t1.5 47t-1.5 47t-8 59t-20 50.5t-38.5 21.5q-26 0 -40.5 -22t-21 -52t-8 -60.5t-1.5 -48.5z" />
    <glyph glyph-name="Ohungarumlaut" unicode="&#x150;" horiz-adv-x="404" 
d="M277 852l56 -22l-70 -116l-37 13zM124 727l50 125l56 -22l-69 -116zM38 333q0 28 1.5 64t7 74t16 75t28.5 65.5t45.5 46.5t65.5 18q39 0 66.5 -17.5t46 -46t28.5 -64.5t15.5 -74t6.5 -74t1 -64t-1 -64.5t-6 -75t-15 -75t-28 -65.5t-45.5 -47t-67.5 -18q-39 0 -66.5 17.5
t-45.5 46.5t-29 65.5t-16 74.5t-6.5 74t-1.5 64zM203 616q-26 0 -43.5 -16t-29 -41.5t-17.5 -57t-8.5 -63t-3 -59t-0.5 -45.5q0 -17 0.5 -45t3 -59.5t8.5 -63.5t17.5 -57.5t29 -41.5t43.5 -16q28 0 45.5 16t27.5 40t14.5 51t6.5 48q6 75 6 152q0 17 -0.5 42.5t-3.5 54.5
t-9 57.5t-17 51.5t-28 37.5t-42 14.5z" />
    <glyph glyph-name="ohungarumlaut" unicode="&#x151;" horiz-adv-x="323" 
d="M181 520l51 125l56 -22l-70 -116zM79 520l50 125l56 -22l-69 -116zM164 -7q-43 0 -69 24t-39.5 59t-18 75t-4.5 73t4.5 73t18 75t39.5 58.5t69 23.5q44 0 68.5 -24.5t37.5 -60t16 -76t3 -72.5t-3.5 -71.5t-16 -74.5t-37.5 -58.5t-68 -23.5zM163 402q-26 0 -40.5 -22
t-21 -52t-8 -60.5t-1.5 -48.5t1.5 -47t8.5 -57t21.5 -48.5t39.5 -20.5t38.5 21.5t20 50.5t8 59t1.5 47t-1.5 47t-8 59t-20 50.5t-38.5 21.5z" />
    <glyph glyph-name="OE" unicode="&#x152;" horiz-adv-x="541" 
d="M38 340q0 26 1.5 61t6.5 72.5t15.5 74t28 65t43.5 46t63 17.5q35 0 60 -20t41 -49v60h206v-57h-147v-235h143v-57h-143v-261h147v-57h-206v69q-15 -36 -40 -57.5t-66 -21.5q-37 0 -62.5 19t-42.5 49t-26.5 68.5t-14.5 77t-6 74.5t-1 62zM137 573q-12 -22 -19 -57
t-10.5 -73t-5 -75t-1.5 -63q0 -16 0.5 -41.5t3.5 -53.5t8.5 -56.5t16.5 -51.5t27.5 -37t40.5 -14t40.5 14t27.5 36.5t16.5 50.5t8.5 55.5t3.5 53t0.5 41.5q0 44 -2 87t-7 87q-2 19 -6.5 43.5t-14 46t-25.5 36t-41 14.5q-24 0 -37.5 -11.5t-24.5 -31.5z" />
    <glyph glyph-name="oe" unicode="&#x153;" horiz-adv-x="502" 
d="M155 -7q-40 0 -64 25.5t-37 62t-17 76.5t-4 70q0 29 4.5 68.5t17.5 74.5t37 59.5t63 24.5q20 0 36 -8t27.5 -21t19.5 -30t12 -35q8 38 34.5 66t67.5 28t64.5 -26t35 -63.5t14.5 -79t3 -71.5h-192q0 -19 2.5 -47.5t10 -55.5t22.5 -46t42 -19q19 0 29.5 12t16 28.5
t6.5 35.5t1 32h52q1 -7 1 -13.5v-13.5q0 -24 -7 -48t-21 -43t-34 -31t-47 -12q-42 0 -66.5 28.5t-34.5 66.5q-4 -18 -11.5 -35t-19.5 -30.5t-27.5 -21.5t-36.5 -8zM87 230q0 -16 2 -47t9 -61.5t21 -53t38 -22.5q23 0 36 21.5t20 50t9 57.5t2 45q0 11 -0.5 29t-3 38
t-6.5 40.5t-11.5 37t-19 27t-27.5 10.5q-23 0 -37 -21t-21 -49t-9 -57t-2 -45zM415 261v8q0 15 -3 38t-10.5 44t-20.5 36t-34 15q-22 0 -35.5 -16t-21 -38.5t-10 -46.5t-2.5 -40h137z" />
    <glyph glyph-name="Racute" unicode="&#x154;" horiz-adv-x="376" 
d="M135 740l96 120l54 -43l-115 -103zM59 667h84q29 0 59 -2.5t56 -16.5q23 -12 37 -30t21.5 -39t10.5 -44.5t3 -46.5q0 -34 -6.5 -63.5t-21.5 -52t-40.5 -36t-63.5 -16.5l155 -320h-71l-155 326v-326h-68v667zM168 375q30 0 48.5 8.5t28 24t13 37t3.5 47.5q0 29 -4 51
t-15 37t-30.5 22.5t-51.5 7.5h-33v-235h41z" />
    <glyph glyph-name="racute" unicode="&#x155;" horiz-adv-x="195" 
d="M75 533l96 120l54 -43l-115 -103zM50 447h56v-58q11 25 29 44t47 21v-65q-28 0 -43.5 -10.5t-22.5 -27t-8.5 -37.5t-1.5 -43v-271h-56v447z" />
    <glyph glyph-name="uni0156" unicode="&#x156;" horiz-adv-x="376" 
d="M143 667q29 0 59 -2.5t56 -16.5q23 -12 37 -30t21.5 -39t10.5 -44.5t3 -46.5q0 -34 -6.5 -63.5t-21.5 -52t-40.5 -36t-63.5 -16.5l155 -320h-71l-155 326v-326h-68v667h84zM168 375q30 0 48.5 8.5t28 24t13 37t3.5 47.5q0 29 -4 51t-15 37t-30.5 22.5t-51.5 7.5h-33v-235
h41zM140 -212l53 163l58 -28l-72 -154z" />
    <glyph glyph-name="uni0157" unicode="&#x157;" horiz-adv-x="195" 
d="M50 447h56v-58q11 25 29 44t47 21v-65q-28 0 -43.5 -10.5t-22.5 -27t-8.5 -37.5t-1.5 -43v-271h-56v447zM83 -49l58 -28l-72 -154l-39 19z" />
    <glyph glyph-name="Rcaron" unicode="&#x158;" horiz-adv-x="376" 
d="M95 859l74 -69l74 69l40 -38l-114 -107l-112 107zM59 0v667h84q29 0 59 -2.5t56 -16.5q23 -12 37 -30t21.5 -39t10.5 -44.5t3 -46.5q0 -34 -6.5 -63.5t-21.5 -52t-40.5 -36t-63.5 -16.5l155 -320h-71l-155 326v-326h-68zM127 610v-235h41q30 0 48.5 8.5t28 24t13 37
t3.5 47.5q0 29 -4 51t-15 37t-30.5 22.5t-51.5 7.5h-33z" />
    <glyph glyph-name="rcaron" unicode="&#x159;" horiz-adv-x="195" 
d="M-3 614l38 38l74 -69l74 69l40 -38l-114 -107zM50 447h56v-58q11 25 29 44t47 21v-65q-28 0 -43.5 -10.5t-22.5 -27t-8.5 -37.5t-1.5 -43v-271h-56v447z" />
    <glyph glyph-name="Sacute" unicode="&#x15a;" horiz-adv-x="326" 
d="M140 740l96 120l54 -43l-115 -103zM248 170q0 38 -17 64.5t-42 47.5t-55 40t-55 42.5t-42 55.5t-17 79q0 34 10.5 66t30 56.5t48 39.5t65.5 15q30 0 55 -9.5t49 -26.5v-78q-20 24 -43 39t-56 15q-23 0 -41 -9t-30 -24t-18.5 -35t-6.5 -41q0 -38 17 -64.5t42 -48t55 -40.5
t55 -42.5t42 -55.5t17 -78q0 -36 -11.5 -70t-33.5 -60t-53 -42t-69 -16q-29 0 -55.5 9t-49.5 26v80q22 -23 48.5 -38.5t59.5 -15.5q24 0 43 10t32 27t19.5 38.5t6.5 43.5z" />
    <glyph glyph-name="sacute" unicode="&#x15b;" horiz-adv-x="249" 
d="M91 533l96 120l54 -43l-115 -103zM28 341q0 49 31 81t80 32q23 0 42 -7.5t38 -21.5v-69q-15 18 -34 32t-43 14q-25 0 -40 -17.5t-15 -41.5q0 -22 10.5 -38.5t26.5 -31.5t35 -29.5t35 -32t26.5 -40t10.5 -52.5q0 -26 -9 -49t-24.5 -40t-37.5 -27t-49 -10q-23 0 -44 8.5
t-39 22.5v66q17 -17 36 -30.5t43 -13.5q30 0 47.5 20.5t17.5 48.5q0 22 -10.5 40t-26.5 34t-35 31.5t-35 33.5t-26.5 39t-10.5 48z" />
    <glyph glyph-name="Scircumflex" unicode="&#x15c;" horiz-adv-x="326" 
d="M172 859l114 -107l-40 -38l-74 69l-74 -69l-38 38zM20 499q0 34 10.5 66t30 56.5t48 39.5t65.5 15q30 0 55 -9.5t49 -26.5v-78q-20 24 -43 39t-56 15q-23 0 -41 -9t-30 -24t-18.5 -35t-6.5 -41q0 -38 17 -64.5t42 -48t55 -40.5t55 -42.5t42 -55.5t17 -78q0 -36 -11.5 -70
t-33.5 -60t-53 -42t-69 -16q-29 0 -55.5 9t-49.5 26v80q22 -23 48.5 -38.5t59.5 -15.5q24 0 43 10t32 27t19.5 38.5t6.5 43.5q0 38 -17 64.5t-42 47.5t-55 40t-55 42.5t-42 55.5t-17 79z" />
    <glyph glyph-name="scircumflex" unicode="&#x15d;" horiz-adv-x="249" 
d="M139 652l114 -107l-40 -38l-74 69l-74 -69l-38 38zM172 115q0 22 -10.5 40t-26.5 34t-35 31.5t-35 33.5t-26.5 39t-10.5 48q0 49 31 81t80 32q23 0 42 -7.5t38 -21.5v-69q-15 18 -34 32t-43 14q-25 0 -40 -17.5t-15 -41.5q0 -22 10.5 -38.5t26.5 -31.5t35 -29.5t35 -32
t26.5 -40t10.5 -52.5q0 -26 -9 -49t-24.5 -40t-37.5 -27t-49 -10q-23 0 -44 8.5t-39 22.5v66q17 -17 36 -30.5t43 -13.5q30 0 47.5 20.5t17.5 48.5z" />
    <glyph glyph-name="Scedilla" unicode="&#x15e;" horiz-adv-x="326" 
d="M248 170q0 38 -17 64.5t-42 47.5t-55 40t-55 42.5t-42 55.5t-17 79q0 34 10.5 66t30 56.5t48 39.5t65.5 15q30 0 55 -9.5t49 -26.5v-78q-20 24 -43 39t-56 15q-23 0 -41 -9t-30 -24t-18.5 -35t-6.5 -41q0 -38 17 -64.5t42 -48t55 -40.5t55 -42.5t42 -55.5t17 -78
q0 -36 -11.5 -70t-33.5 -60t-53 -42t-69 -16q-29 0 -55.5 9t-49.5 26v80q22 -23 48.5 -38.5t59.5 -15.5q24 0 43 10t32 27t19.5 38.5t6.5 43.5zM77 -164l67 127l46 -25l-77 -123z" />
    <glyph glyph-name="scedilla" unicode="&#x15f;" horiz-adv-x="249" 
d="M172 115q0 22 -10.5 40t-26.5 34t-35 31.5t-35 33.5t-26.5 39t-10.5 48q0 49 31 81t80 32q23 0 42 -7.5t38 -21.5v-69q-15 18 -34 32t-43 14q-25 0 -40 -17.5t-15 -41.5q0 -22 10.5 -38.5t26.5 -31.5t35 -29.5t35 -32t26.5 -40t10.5 -52.5q0 -26 -9 -49t-24.5 -40
t-37.5 -27t-49 -10q-23 0 -44 8.5t-39 22.5v66q17 -17 36 -30.5t43 -13.5q30 0 47.5 20.5t17.5 48.5zM46 -164l67 127l46 -25l-77 -123z" />
    <glyph glyph-name="Scaron" unicode="&#x160;" horiz-adv-x="326" 
d="M98 859l74 -69l74 69l40 -38l-114 -107l-112 107zM20 499q0 34 10.5 66t30 56.5t48 39.5t65.5 15q30 0 55 -9.5t49 -26.5v-78q-20 24 -43 39t-56 15q-23 0 -41 -9t-30 -24t-18.5 -35t-6.5 -41q0 -38 17 -64.5t42 -48t55 -40.5t55 -42.5t42 -55.5t17 -78q0 -36 -11.5 -70
t-33.5 -60t-53 -42t-69 -16q-29 0 -55.5 9t-49.5 26v80q22 -23 48.5 -38.5t59.5 -15.5q24 0 43 10t32 27t19.5 38.5t6.5 43.5q0 38 -17 64.5t-42 47.5t-55 40t-55 42.5t-42 55.5t-17 79z" />
    <glyph glyph-name="scaron" unicode="&#x161;" horiz-adv-x="249" 
d="M27 614l38 38l74 -69l74 69l40 -38l-114 -107zM172 115q0 22 -10.5 40t-26.5 34t-35 31.5t-35 33.5t-26.5 39t-10.5 48q0 49 31 81t80 32q23 0 42 -7.5t38 -21.5v-69q-15 18 -34 32t-43 14q-25 0 -40 -17.5t-15 -41.5q0 -22 10.5 -38.5t26.5 -31.5t35 -29.5t35 -32
t26.5 -40t10.5 -52.5q0 -26 -9 -49t-24.5 -40t-37.5 -27t-49 -10q-23 0 -44 8.5t-39 22.5v66q17 -17 36 -30.5t43 -13.5q30 0 47.5 20.5t17.5 48.5z" />
    <glyph glyph-name="uni0162" unicode="&#x162;" horiz-adv-x="265" 
d="M1 610v57h262v-57h-100v-610h-62v610h-100zM136 -37l46 -25l-77 -123l-36 21z" />
    <glyph glyph-name="uni0163" unicode="&#x163;" horiz-adv-x="199" 
d="M19 395v52h48v127h56v-127h75v-52h-75v-395h-56v395h-48zM96 -37l46 -25l-77 -123l-36 21z" />
    <glyph glyph-name="Tcaron" unicode="&#x164;" horiz-adv-x="265" 
d="M58 859l74 -69l74 69l40 -38l-114 -107l-112 107zM1 610v57h262v-57h-100v-610h-62v610h-100z" />
    <glyph glyph-name="tcaron" unicode="&#x165;" horiz-adv-x="262" 
d="M159 503l55 173l58 -28l-74 -164zM19 395v52h48v127h56v-127h75v-52h-75v-395h-56v395h-48z" />
    <glyph glyph-name="Utilde" unicode="&#x168;" horiz-adv-x="390" 
d="M107 731q2 8 7 17.5t12.5 18t16.5 14t18 5.5q17 0 27 -5t17 -10.5t13 -10.5t15 -5q10 0 15.5 10.5t8.5 19.5l28 -20q-1 -9 -6 -18.5t-12.5 -17.5t-17 -13t-19.5 -5q-14 0 -23.5 5t-17 10.5t-13.5 10.5t-12 5q-8 0 -15 -9t-14 -21zM55 667h62v-499q0 -21 2 -42t10 -37.5
t23.5 -27t42.5 -10.5q33 0 49 15.5t22.5 38.5t6.5 50v50v462h62v-491q0 -23 -1.5 -46t-7.5 -46q-13 -47 -48 -70t-83 -23t-82.5 23t-48.5 70q-7 23 -8 46.5t-1 46.5v490z" />
    <glyph glyph-name="utilde" unicode="&#x169;" horiz-adv-x="332" 
d="M78 511q2 8 7 17.5t12 18t16 14t19 5.5q17 0 27 -5t17 -10.5t13 -10.5t15 -5q10 0 15.5 10.5t8.5 19.5l28 -20q-1 -9 -6 -18.5t-12.5 -17.5t-17 -13t-19.5 -5q-14 0 -23.5 5t-17 10.5t-13.5 10.5t-12 5q-8 0 -15 -9t-14 -21zM106 447v-303q0 -17 1.5 -34.5t7.5 -31.5
t18.5 -23t34.5 -9t33.5 10t17 25.5t6.5 34t1 34.5v297h56v-338q0 -54 -31 -85t-85 -31t-85 31t-31 85v338h56z" />
    <glyph glyph-name="Umacron" unicode="&#x16a;" horiz-adv-x="390" 
d="M307 782v-55h-224v55h224zM55 667h62v-499q0 -21 2 -42t10 -37.5t23.5 -27t42.5 -10.5q33 0 49 15.5t22.5 38.5t6.5 50v50v462h62v-491q0 -23 -1.5 -46t-7.5 -46q-13 -47 -48 -70t-83 -23t-82.5 23t-48.5 70q-7 23 -8 46.5t-1 46.5v490z" />
    <glyph glyph-name="umacron" unicode="&#x16b;" horiz-adv-x="332" 
d="M56 575h224v-55h-224v55zM106 447v-303q0 -17 1.5 -34.5t7.5 -31.5t18.5 -23t34.5 -9t33.5 10t17 25.5t6.5 34t1 34.5v297h56v-338q0 -54 -31 -85t-85 -31t-85 31t-31 85v338h56z" />
    <glyph glyph-name="Ubreve" unicode="&#x16c;" horiz-adv-x="390" 
d="M195 718q-22 0 -43 5t-38 16.5t-28 29t-14 41.5h48q10 -23 31 -32t44 -9t44 9t31 32h48q-3 -24 -14 -41.5t-28 -29t-38 -16.5t-43 -5zM55 667h62v-499q0 -21 2 -42t10 -37.5t23.5 -27t42.5 -10.5q33 0 49 15.5t22.5 38.5t6.5 50v50v462h62v-491q0 -23 -1.5 -46t-7.5 -46
q-13 -47 -48 -70t-83 -23t-82.5 23t-48.5 70q-7 23 -8 46.5t-1 46.5v490z" />
    <glyph glyph-name="ubreve" unicode="&#x16d;" horiz-adv-x="332" 
d="M168 507q-22 0 -43 5t-38 16.5t-28 29t-14 41.5h48q10 -23 31 -32t44 -9t44 9t31 32h48q-3 -24 -14 -41.5t-28 -29t-38 -16.5t-43 -5zM106 447v-303q0 -17 1.5 -34.5t7.5 -31.5t18.5 -23t34.5 -9t33.5 10t17 25.5t6.5 34t1 34.5v297h56v-338q0 -54 -31 -85t-85 -31
t-85 31t-31 85v338h56z" />
    <glyph glyph-name="Uring" unicode="&#x16e;" horiz-adv-x="390" 
d="M116 794q0 33 23.5 56.5t56.5 23.5t56.5 -23.5t23.5 -56.5t-23.5 -56.5t-56.5 -23.5t-56.5 23.5t-23.5 56.5zM196 834q-17 0 -28.5 -11.5t-11.5 -28.5t11.5 -28.5t28.5 -11.5t28.5 11.5t11.5 28.5t-11.5 28.5t-28.5 11.5zM117 667v-499q0 -21 2 -42t10 -37.5t23.5 -27
t42.5 -10.5q33 0 49 15.5t22.5 38.5t6.5 50v50v462h62v-491q0 -23 -1.5 -46t-7.5 -46q-13 -47 -48 -70t-83 -23t-82.5 23t-48.5 70q-7 23 -8 46.5t-1 46.5v490h62z" />
    <glyph glyph-name="uring" unicode="&#x16f;" horiz-adv-x="332" 
d="M89 587q0 33 23.5 56.5t56.5 23.5t56.5 -23.5t23.5 -56.5t-23.5 -56.5t-56.5 -23.5t-56.5 23.5t-23.5 56.5zM129 587q0 -17 11.5 -28.5t28.5 -11.5t28.5 11.5t11.5 28.5t-11.5 28.5t-28.5 11.5t-28.5 -11.5t-11.5 -28.5zM106 447v-303q0 -17 1.5 -34.5t7.5 -31.5
t18.5 -23t34.5 -9t33.5 10t17 25.5t6.5 34t1 34.5v297h56v-338q0 -54 -31 -85t-85 -31t-85 31t-31 85v338h56z" />
    <glyph glyph-name="Uhungarumlaut" unicode="&#x170;" horiz-adv-x="390" 
d="M216 727l51 125l56 -22l-70 -116zM114 727l50 125l56 -22l-69 -116zM117 667v-499q0 -21 2 -42t10 -37.5t23.5 -27t42.5 -10.5q33 0 49 15.5t22.5 38.5t6.5 50v50v462h62v-491q0 -23 -1.5 -46t-7.5 -46q-13 -47 -48 -70t-83 -23t-82.5 23t-48.5 70q-7 23 -8 46.5t-1 46.5
v490h62z" />
    <glyph glyph-name="uhungarumlaut" unicode="&#x171;" horiz-adv-x="332" 
d="M238 645l56 -22l-70 -116l-37 13zM85 520l50 125l56 -22l-69 -116zM106 447v-303q0 -17 1.5 -34.5t7.5 -31.5t18.5 -23t34.5 -9t33.5 10t17 25.5t6.5 34t1 34.5v297h56v-338q0 -54 -31 -85t-85 -31t-85 31t-31 85v338h56z" />
    <glyph glyph-name="Uogonek" unicode="&#x172;" horiz-adv-x="390" 
d="M55 667h62v-488q0 -22 1.5 -45t9 -41.5t23.5 -30t44 -11.5t44 11.5t23.5 30t9 41.5t1.5 45v488h62v-491q0 -30 -1.5 -54t-8.5 -44.5t-21 -39t-38 -38.5q-12 -10 -20.5 -17.5t-15.5 -15.5q-5 -6 -10.5 -15.5t-5.5 -22.5q0 -16 10 -24t25 -8q2 0 11 1t20 7v-48
q-19 -9 -44 -9q-29 0 -50 16.5t-21 47.5q0 13 3.5 26.5t14.5 24.5q2 2 6.5 8t18.5 20q-47 0 -76.5 13t-46.5 37t-23.5 58t-6.5 77v491z" />
    <glyph glyph-name="uogonek" unicode="&#x173;" horiz-adv-x="332" 
d="M106 447v-306q0 -17 1.5 -34t7.5 -30.5t18 -22t33 -8.5t33 8.5t18 22t7.5 30.5t1.5 34v306h56v-332q0 -23 -4.5 -42.5t-18.5 -39.5q-10 -15 -20.5 -25t-31.5 -33q-6 -7 -14 -19t-8 -26t9.5 -23t23.5 -9q17 0 35 10v-47q-20 -11 -46 -11q-28 0 -49 15.5t-21 45.5
q0 23 14 44t28 38q-26 0 -51.5 5.5t-47.5 27.5t-26 45.5t-4 49.5v326h56z" />
    <glyph glyph-name="Ydieresis" unicode="&#x178;" horiz-adv-x="316" 
d="M183 764q0 18 12.5 30.5t30.5 12.5t30.5 -12.5t12.5 -30.5t-12.5 -31t-30.5 -13t-30.5 13t-12.5 31zM98 720q-18 0 -30.5 13t-12.5 31t12.5 30.5t30.5 12.5t30.5 -12.5t12.5 -30.5t-12.5 -31t-30.5 -13zM1 667h67l62 -191q6 -18 15.5 -53.5t16.5 -69.5q3 20 9 47t20 75
l57 192h67l-122 -378v-289h-62v289z" />
    <glyph glyph-name="Zacute" unicode="&#x179;" horiz-adv-x="279" 
d="M140 714l-35 26l96 120l54 -43zM84 57h169v-57h-245l185 610h-167v57h245z" />
    <glyph glyph-name="zacute" unicode="&#x17a;" horiz-adv-x="271" 
d="M138 507l-35 26l96 120l54 -43zM86 52h151v-52h-232l176 395h-153v52h238z" />
    <glyph glyph-name="Zdotaccent" unicode="&#x17b;" horiz-adv-x="279" 
d="M140 720q-19 0 -32 13.5t-13 32.5t13 32t32 13t32.5 -13t13.5 -32t-13.5 -32.5t-32.5 -13.5zM193 610h-167v57h245l-187 -610h169v-57h-245z" />
    <glyph glyph-name="zdotaccent" unicode="&#x17c;" horiz-adv-x="271" 
d="M146 513q-19 0 -32 13.5t-13 32.5t13 32t32 13t32.5 -13t13.5 -32t-13.5 -32.5t-32.5 -13.5zM181 395h-153v52h238l-180 -395h151v-52h-232z" />
    <glyph glyph-name="Zcaron" unicode="&#x17d;" horiz-adv-x="279" 
d="M149 714l-112 107l38 38l74 -69l74 69l40 -38zM84 57h169v-57h-245l185 610h-167v57h245z" />
    <glyph glyph-name="zcaron" unicode="&#x17e;" horiz-adv-x="271" 
d="M149 507l-112 107l38 38l74 -69l74 69l40 -38zM86 52h151v-52h-232l176 395h-153v52h238z" />
    <glyph glyph-name="uni018F" unicode="&#x18f;" horiz-adv-x="374" 
d="M38 545q6 27 20 54.5t31 44.5q21 21 42.5 26.5t42.5 5.5q40 0 68 -16t46 -42.5t27.5 -61t14 -70.5t5.5 -71.5t1 -64.5q0 -50 -1.5 -92t-6.5 -87q-4 -35 -12.5 -67.5t-25 -57.5t-43 -40t-67.5 -15q-49 0 -77.5 22t-42.5 56t-18 75t-4 80v128h235v21q0 24 -1.5 65t-11 80.5
t-29.5 68.5t-57 29q-19 0 -32 -9t-22 -23t-14 -30.5t-7 -32.5zM100 295v-85q0 -45 5 -82t25 -57t50 -20q31 0 51 18q15 14 23.5 43.5t12.5 63.5t4.5 66.5t0.5 52.5h-172z" />
    <glyph glyph-name="florin" unicode="&#x192;" horiz-adv-x="366" 
d="M38 -133q-14 0 -26 3t-24 8l11 59q8 -8 18 -12.5t21 -4.5q12 0 20 5.5t13.5 14t8 19t4.5 20.5l84 426h-73l8 42h73q11 56 17 90.5t11 54.5q4 23 7 34q6 23 12.5 43.5t17.5 36t28.5 25t44.5 9.5q29 0 50 -11l-10 -59q-8 8 -17 12.5t-21 4.5q-13 0 -21 -5.5t-13 -13.5
t-8 -18.5t-5 -21.5l-36 -181h77l-9 -42h-76l-83 -424q-4 -23 -11 -43.5t-18.5 -36.5t-29.5 -25t-45 -9z" />
    <glyph glyph-name="Ohorn" unicode="&#x1a0;" horiz-adv-x="404" 
d="M38 333q0 28 1.5 64t7 74t16 75t28.5 65.5t45.5 46.5t65.5 18q22 0 37.5 -4.5t22.5 -4.5q17 0 22.5 11t5.5 42h52q0 -32 -9.5 -55t-32.5 -33q23 -27 36.5 -65t20 -79.5t8 -81.5t1.5 -70q0 -28 -1 -64.5t-6 -75t-15 -75t-28 -65.5t-45.5 -47t-67.5 -18q-39 0 -66.5 17.5
t-45.5 46.5t-29 65.5t-16 74.5t-6.5 74t-1.5 64zM203 616q-26 0 -43.5 -16t-29 -41.5t-17.5 -57t-8.5 -63t-3 -59t-0.5 -45.5q0 -17 0.5 -45t3 -59.5t8.5 -63.5t17.5 -57.5t29 -41.5t43.5 -16q28 0 45.5 16t27.5 40t14.5 51t6.5 48q6 75 6 152q0 17 -0.5 42.5t-3.5 54.5
t-9 57.5t-17 51.5t-28 37.5t-42 14.5z" />
    <glyph glyph-name="ohorn" unicode="&#x1a1;" horiz-adv-x="323" 
d="M33 224q0 33 4.5 73t18 75t39.5 58.5t69 23.5q19 0 30.5 -3.5t18.5 -3.5q17 0 22.5 11t5.5 42h52q0 -33 -10 -56.5t-35 -32.5q14 -19 22 -43t12.5 -49.5t5.5 -51t1 -46.5q0 -32 -3.5 -71.5t-16 -74.5t-37.5 -58.5t-68 -23.5t-69 24t-39.5 59t-18 75t-4.5 73zM163 402
q-26 0 -40.5 -22t-21 -52t-8 -60.5t-1.5 -48.5t1.5 -47t8.5 -57t21.5 -48.5t39.5 -20.5t38.5 21.5t20 50.5t8 59t1.5 47t-1.5 47t-8 59t-20 50.5t-38.5 21.5z" />
    <glyph glyph-name="Uhorn" unicode="&#x1af;" horiz-adv-x="390" 
d="M117 667v-499q0 -21 2 -42t10 -37.5t23.5 -27t42.5 -10.5q33 0 49 15.5t22.5 38.5t6.5 50v50v462h33q17 0 22.5 11t5.5 42h52q0 -35 -11 -59t-40 -32v-453q0 -23 -1.5 -46t-7.5 -46q-13 -47 -48 -70t-83 -23t-82.5 23t-48.5 70q-7 23 -8 46.5t-1 46.5v490h62z" />
    <glyph glyph-name="uhorn" unicode="&#x1b0;" horiz-adv-x="332" 
d="M166 -7q-54 0 -85 31t-31 85v338h56v-303q0 -17 1.5 -34.5t7.5 -31.5t18.5 -23t34.5 -9t33.5 10t17 25.5t6.5 34t1 34.5v297h33q14 2 18.5 13t4.5 40h52q0 -36 -11.5 -59.5t-40.5 -31.5v-300q0 -54 -31 -85t-85 -31z" />
    <glyph glyph-name="uni01CF" unicode="&#x1cf;" horiz-adv-x="171" 
d="M85 714l-112 107l38 38l74 -69l74 69l40 -38zM55 0v667h62v-667h-62z" />
    <glyph glyph-name="uni01D0" unicode="&#x1d0;" horiz-adv-x="155" 
d="M78 507l-112 107l38 38l74 -69l74 69l40 -38zM49 0v447h57v-447h-57z" />
    <glyph glyph-name="uni01DD" unicode="&#x1dd;" horiz-adv-x="315" 
d="M86 22q-16 17 -27 42t-16.5 54.5t-7 59.5t0.5 57h189v10q0 18 -2 45t-9 51.5t-21.5 42t-40.5 17.5q-18 0 -29.5 -10t-19 -24t-11 -30.5t-5.5 -30.5l-54 22q4 24 13 46.5t23.5 40t35 28.5t46.5 11q42 0 68 -22.5t40 -56.5t18.5 -72.5t4.5 -71.5q0 -31 -4 -72.5t-17.5 -78
t-38.5 -62t-68 -25.5q-24 0 -40.5 9t-27.5 20zM91 187q0 -15 2.5 -39t9 -47t19 -39.5t33.5 -16.5q22 0 35 16.5t20.5 39t10.5 47t3 39.5h-133z" />
    <glyph glyph-name="Gcaron" unicode="&#x1e6;" horiz-adv-x="374" 
d="M125 859l74 -69l74 69l40 -38l-114 -107l-112 107zM79 55q-14 25 -22.5 63t-12.5 80t-5 82.5t-1 69.5t1 64t5.5 71t14.5 70.5t28 61.5t45.5 43t67.5 16q31 0 53 -9.5t38 -26.5t26.5 -40t17.5 -50l-61 -24q-3 16 -8 32t-13 29t-21 21t-32 8q-24 0 -41 -13.5t-28 -34.5
t-17 -48t-9 -54t-3.5 -51.5t-0.5 -41.5v-60.5t2 -70t6.5 -69t12.5 -57.5q10 -29 27 -47t49 -18q27 0 42.5 14t23 35t9 45t1.5 44v106h-91v57h153v-134q0 -37 -3.5 -77.5t-17.5 -73.5t-42.5 -54.5t-78.5 -21.5q-38 0 -67 16t-48 48z" />
    <glyph glyph-name="gcaron" unicode="&#x1e7;" horiz-adv-x="331" 
d="M93 652l74 -69l74 69l40 -38l-114 -107l-112 107zM153 0q-42 0 -65.5 25t-34 61t-12.5 76.5t-2 70.5q0 28 3 66t14 72.5t33 58.5t61 24q24 0 41.5 -9.5t32.5 -28.5v31h57v-496q0 -61 -26 -96t-91 -35q-59 0 -87.5 33.5t-28.5 90.5v9t1 8h57q0 -17 1.5 -33t8 -28
t18.5 -19.5t33 -7.5t32.5 7.5t17 20t6.5 28t1 31.5v72q-15 -17 -31.5 -24.5t-39.5 -7.5zM162 408q-22 0 -35 -17.5t-20 -45.5t-8.5 -63t-1.5 -70q0 -18 1 -46t8 -55t21 -46t40 -19q19 0 30 10t17.5 24.5t9 31t3.5 30.5q2 28 2.5 54.5t0.5 53.5q0 18 -1 44.5t-7.5 52
t-20 43.5t-39.5 18z" />
    <glyph glyph-name="AEacute" unicode="&#x1fc;" horiz-adv-x="462" 
d="M196 740l96 120l54 -43l-115 -103zM1 0l131 667h222l11 -57h-143l42 -235h135l11 -57h-136l47 -261h141l9 -57h-207l-22 137h-151l-24 -137h-66zM101 190h132l-47 282q-5 31 -9 61.5t-6 61.5q-2 -8 -2.5 -15.5t-2.5 -15.5l-9 -60q-2 -8 -2.5 -15.5t-2.5 -15.5z" />
    <glyph glyph-name="aeacute" unicode="&#x1fd;" horiz-adv-x="508" 
d="M315 653l54 -43l-115 -103l-35 26zM33 150q0 27 6 53.5t19 47.5t34.5 34t52.5 13q23 0 44.5 -9.5t35.5 -27.5v13q0 22 -3.5 45t-13 41.5t-26.5 30t-44 11.5q-23 0 -42 -11t-36 -25v62q37 26 81 26q40 0 68.5 -19.5t45.5 -55.5q12 29 37 52t59 23q42 0 66.5 -26t37 -63.5
t16 -78.5t3.5 -72h-197q0 -18 2.5 -47t10.5 -56t23.5 -46.5t41.5 -19.5q20 0 31.5 11.5t17.5 28.5t8.5 36t2.5 34h53q-1 -26 -7.5 -54.5t-20 -52.5t-35.5 -39.5t-53 -15.5q-37 0 -60 22t-37 52q-14 -33 -42.5 -53.5t-65.5 -20.5q-32 0 -53.5 14.5t-35 37t-19.5 50.5t-6 55z
M418 261q0 17 -3 41t-10.5 46t-21.5 38t-36 16q-21 0 -34 -16.5t-20.5 -39t-10.5 -46.5t-3 -39h139zM88 150q0 -16 2.5 -34.5t10 -34t20.5 -25.5t34 -10q20 0 34 9.5t22 23.5t11.5 32t3.5 34q0 17 -3 36t-11 34.5t-22 26t-35 10.5t-34 -9.5t-20.5 -24.5t-10 -33t-2.5 -35z
" />
    <glyph glyph-name="uni0218" unicode="&#x218;" horiz-adv-x="326" 
d="M248 170q0 38 -17 64.5t-42 47.5t-55 40t-55 42.5t-42 55.5t-17 79q0 34 10.5 66t30 56.5t48 39.5t65.5 15q30 0 55 -9.5t49 -26.5v-78q-20 24 -43 39t-56 15q-23 0 -41 -9t-30 -24t-18.5 -35t-6.5 -41q0 -38 17 -64.5t42 -48t55 -40.5t55 -42.5t42 -55.5t17 -78
q0 -36 -11.5 -70t-33.5 -60t-53 -42t-69 -16q-29 0 -55.5 9t-49.5 26v80q22 -23 48.5 -38.5t59.5 -15.5q24 0 43 10t32 27t19.5 38.5t6.5 43.5zM99 -212l53 163l58 -28l-72 -154z" />
    <glyph glyph-name="uni0219" unicode="&#x219;" horiz-adv-x="249" 
d="M172 115q0 22 -10.5 40t-26.5 34t-35 31.5t-35 33.5t-26.5 39t-10.5 48q0 49 31 81t80 32q23 0 42 -7.5t38 -21.5v-69q-15 18 -34 32t-43 14q-25 0 -40 -17.5t-15 -41.5q0 -22 10.5 -38.5t26.5 -31.5t35 -29.5t35 -32t26.5 -40t10.5 -52.5q0 -26 -9 -49t-24.5 -40
t-37.5 -27t-49 -10q-23 0 -44 8.5t-39 22.5v66q17 -17 36 -30.5t43 -13.5q30 0 47.5 20.5t17.5 48.5zM73 -212l53 163l58 -28l-72 -154z" />
    <glyph glyph-name="uni021A" unicode="&#x21a;" horiz-adv-x="265" 
d="M1 610v57h262v-57h-100v-610h-62v610h-100zM123 -49l58 -28l-72 -154l-39 19z" />
    <glyph glyph-name="uni021B" unicode="&#x21b;" horiz-adv-x="199" 
d="M19 395v52h48v127h56v-127h75v-52h-75v-395h-56v395h-48zM88 -49l58 -28l-72 -154l-39 19z" />
    <glyph glyph-name="uni0228" unicode="&#x228;" horiz-adv-x="301" 
d="M55 0v667h208v-57h-146v-235h142v-57h-142v-261h146v-57h-208zM158 -37l46 -25l-77 -123l-36 21z" />
    <glyph glyph-name="uni0229" unicode="&#x229;" horiz-adv-x="313" 
d="M163 -7q-43 0 -69 23.5t-39.5 58.5t-17.5 75t-4 72q0 30 4.5 70t18 76t38 61t65.5 25t64.5 -23.5t36.5 -57t16.5 -72t3.5 -68.5l-1 -14v-7h-189v-10q0 -17 2 -43.5t9.5 -51.5t21.5 -43t38 -18q19 0 30 11t17 27.5t8.5 35t2.5 32.5h57q-1 -27 -6.5 -55t-18 -51.5t-34 -38
t-54.5 -14.5zM224 260q-1 15 -3 39t-8.5 47t-19 39.5t-33.5 16.5q-22 0 -35 -16.5t-20.5 -39t-10 -47t-3.5 -39.5h133zM165 -37l46 -25l-77 -123l-36 21z" />
    <glyph glyph-name="uni0237" unicode="&#x237;" horiz-adv-x="159" 
d="M52 -180v627h58v-627h-58z" />
    <glyph glyph-name="uni0259" unicode="&#x259;" horiz-adv-x="315" 
d="M86 22q-16 17 -27 42t-16.5 54.5t-7 59.5t0.5 57h189v10q0 18 -2 45t-9 51.5t-21.5 42t-40.5 17.5q-18 0 -29.5 -10t-19 -24t-11 -30.5t-5.5 -30.5l-54 22q4 24 13 46.5t23.5 40t35 28.5t46.5 11q42 0 68 -22.5t40 -56.5t18.5 -72.5t4.5 -71.5q0 -31 -4 -72.5t-17.5 -78
t-38.5 -62t-68 -25.5q-24 0 -40.5 9t-27.5 20zM91 187q0 -15 2.5 -39t9 -47t19 -39.5t33.5 -16.5q22 0 35 16.5t20.5 39t10.5 47t3 39.5h-133z" />
    <glyph glyph-name="uni02BC" unicode="&#x2bc;" horiz-adv-x="196" 
d="M88 484l-39 19l55 173l58 -28z" />
    <glyph glyph-name="circumflex" unicode="&#x2c6;" 
d="M323 507l-74 69l-74 -69l-38 38l112 107l114 -107z" />
    <glyph glyph-name="caron" unicode="&#x2c7;" 
d="M249 507l-112 107l38 38l74 -69l74 69l40 -38z" />
    <glyph glyph-name="uni02C9" unicode="&#x2c9;" 
d="M138 520v55h224v-55h-224z" />
    <glyph glyph-name="breve" unicode="&#x2d8;" 
d="M175 599q10 -23 31 -32t44 -9t44 9t31 32h48q-3 -24 -14 -41.5t-28 -29t-38 -16.5t-43 -5t-43 5t-38 16.5t-28 29t-14 41.5h48z" />
    <glyph glyph-name="dotaccent" unicode="&#x2d9;" 
d="M205 559q0 19 13 32t32 13t32.5 -13t13.5 -32t-13.5 -32.5t-32.5 -13.5t-32 13.5t-13 32.5z" />
    <glyph glyph-name="ring" unicode="&#x2da;" horiz-adv-x="499" 
d="M170 587q0 33 23.5 56.5t56.5 23.5t56.5 -23.5t23.5 -56.5t-23.5 -56.5t-56.5 -23.5t-56.5 23.5t-23.5 56.5zM250 627q-17 0 -28.5 -11.5t-11.5 -28.5t11.5 -28.5t28.5 -11.5t28.5 11.5t11.5 28.5t-11.5 28.5t-28.5 11.5z" />
    <glyph glyph-name="ogonek" unicode="&#x2db;" horiz-adv-x="497" 
d="M285 -152q-30 0 -54 17t-24 49q0 23 10.5 45.5t24.5 40.5h45q-11 -16 -21 -33.5t-10 -37.5q0 -17 10 -24.5t26 -7.5t25.5 3t12.5 5v-48q-12 -5 -23 -7t-22 -2z" />
    <glyph glyph-name="tilde" unicode="&#x2dc;" 
d="M135 522q3 30 20 53.5t50 23.5q12 0 24 -5t23 -11t21 -11t18 -5q12 0 14.5 9.5t2.5 18.5h57q-1 -15 -5.5 -29.5t-12.5 -26t-20.5 -19t-29.5 -7.5q-13 0 -25.5 5.5t-24 11.5t-21.5 11.5t-19 5.5q-11 0 -13.5 -8.5t-2.5 -16.5h-56z" />
    <glyph glyph-name="hungarumlaut" unicode="&#x2dd;" 
d="M318 507l-37 13l51 125l56 -22zM216 507l-37 13l50 125l56 -22z" />
    <glyph glyph-name="acutecomb" unicode="&#x301;" horiz-adv-x="2" 
d="M-174 507l-35 26l96 120l54 -43z" />
    <glyph glyph-name="uni0394" unicode="&#x394;" horiz-adv-x="667" 
d="M31 0l271 667h61l273 -667h-605zM333 598l-221 -546h442z" />
    <glyph glyph-name="uni0394" unicode="&#x2206;" horiz-adv-x="667" 
d="M31 0l271 667h61l273 -667h-605zM333 598l-221 -546h442z" />
    <glyph glyph-name="uni03A9" unicode="&#x3a9;" horiz-adv-x="667" 
d="M219 51q-90 52 -140.5 128t-50.5 182q0 65 22.5 123.5t63 102.5t96.5 70t123 26t123 -26t96.5 -70t63 -102.5t22.5 -123.5q0 -105 -50.5 -182t-140.5 -128h191v-51h-258v47q91 50 145.5 126t54.5 183q0 52 -17.5 101.5t-49.5 88.5t-77 62.5t-101 23.5q-57 0 -103 -23
t-78.5 -61.5t-49.5 -88.5t-17 -104q0 -107 54.5 -182.5t145.5 -125.5v-47h-259v51h191z" />
    <glyph glyph-name="uni03A9" unicode="&#x2126;" horiz-adv-x="667" 
d="M219 51q-90 52 -140.5 128t-50.5 182q0 65 22.5 123.5t63 102.5t96.5 70t123 26t123 -26t96.5 -70t63 -102.5t22.5 -123.5q0 -105 -50.5 -182t-140.5 -128h191v-51h-258v47q91 50 145.5 126t54.5 183q0 52 -17.5 101.5t-49.5 88.5t-77 62.5t-101 23.5q-57 0 -103 -23
t-78.5 -61.5t-49.5 -88.5t-17 -104q0 -107 54.5 -182.5t145.5 -125.5v-47h-259v51h191z" />
    <glyph glyph-name="pi" unicode="&#x3c0;" horiz-adv-x="556" 
d="M25 396v51h506v-51h-72v-396h-57v396h-246v-396h-57v396h-74z" />
    <glyph glyph-name="uni0401" unicode="&#x401;" horiz-adv-x="299" 
d="M216 710q-17 0 -29.5 12.5t-12.5 30.5q0 17 12.5 29t29.5 12t29.5 -12t12.5 -29q0 -18 -12.5 -30.5t-29.5 -12.5zM54 753q0 17 12.5 29t29.5 12t29.5 -12t12.5 -29q0 -18 -12.5 -30.5t-29.5 -12.5t-29.5 12.5t-12.5 30.5zM261 667v-57h-146v-235h142v-57h-142v-261h146
v-57h-208v667h208z" />
    <glyph glyph-name="uni0402" unicode="&#x402;" horiz-adv-x="439" 
d="M340 667v-57h-158v-219q17 6 36 10t39 4q47 0 76.5 -18t47 -47.5t24 -67.5t6.5 -77q0 -34 -4.5 -70.5t-19 -67t-40.5 -50t-68 -19.5q-21 0 -38 5t-32 13l19 59q8 -6 19 -11.5t27 -5.5q26 0 41 14.5t22.5 36t9 46t1.5 43.5q0 27 -3 55.5t-13 52t-29.5 38t-53.5 14.5
q-8 0 -26 -2.5t-41 -14.5v-331h-62v610h-100v57h320z" />
    <glyph glyph-name="uni0403" unicode="&#x403;" horiz-adv-x="295" 
d="M155 714l-35 26l96 120l54 -43zM117 610v-610h-62v667h212v-57h-150z" />
    <glyph glyph-name="uni0404" unicode="&#x404;" horiz-adv-x="338" 
d="M38 349q0 39 2.5 79t10.5 76.5t23 69t39 57.5q22 23 47 34t59 11q21 0 43.5 -6t51.5 -26v-77q-5 7 -13 15.5t-18.5 16t-24 12.5t-29.5 5q-40 0 -65 -26.5t-38.5 -64.5t-18 -79t-4.5 -71h168v-57h-169q1 -30 5 -75t16.5 -88t36 -73.5t63.5 -30.5q18 0 42 9t49 40v-76
q-24 -20 -47.5 -26.5t-44.5 -6.5q-29 0 -53 7.5t-47 28.5q-27 26 -43.5 66.5t-25.5 85.5t-12 90t-3 80z" />
    <glyph glyph-name="uni0405" unicode="&#x405;" horiz-adv-x="326" 
d="M248 170q0 38 -17 64.5t-42 47.5t-55 40t-55 42.5t-42 55.5t-17 79q0 34 10.5 66t30 56.5t48 39.5t65.5 15q30 0 55 -9.5t49 -26.5v-78q-20 24 -43 39t-56 15q-23 0 -41 -9t-30 -24t-18.5 -35t-6.5 -41q0 -38 17 -64.5t42 -48t55 -40.5t55 -42.5t42 -55.5t17 -78
q0 -36 -11.5 -70t-33.5 -60t-53 -42t-69 -16q-29 0 -55.5 9t-49.5 26v80q22 -23 48.5 -38.5t59.5 -15.5q24 0 43 10t32 27t19.5 38.5t6.5 43.5z" />
    <glyph glyph-name="uni0406" unicode="&#x406;" horiz-adv-x="171" 
d="M55 0v667h62v-667h-62z" />
    <glyph glyph-name="uni0407" unicode="&#x407;" horiz-adv-x="171" 
d="M11 764q0 18 9.5 30.5t22.5 12.5t22 -12.5t9 -30.5t-9 -31t-22 -13t-22.5 13t-9.5 31zM98 764q0 18 8.5 30.5t21.5 12.5t22.5 -12.5t9.5 -30.5t-9.5 -31t-22.5 -13t-21.5 13t-8.5 31zM55 0v667h62v-667h-62z" />
    <glyph glyph-name="uni0408" unicode="&#x408;" horiz-adv-x="224" 
d="M1 72q14 -12 28.5 -20t33.5 -8q16 0 25 6t13 15.5t5 21.5t1 24v556h62v-571q0 -24 -4.5 -44t-15.5 -33.5t-29.5 -21t-46.5 -7.5q-20 0 -37.5 5t-34.5 13v64z" />
    <glyph glyph-name="uni0409" unicode="&#x409;" horiz-adv-x="582" 
d="M4 69q10 -9 18.5 -12t17.5 -3q17 0 27 8.5t15.5 21.5t8 27.5t3.5 27.5q2 29 3 51.5t1 49.5v427h254v-289h37q44 0 75 -14t50.5 -39t28.5 -60t9 -76q0 -46 -11 -90t-45 -71q-26 -20 -53 -24t-54 -4h-99v610h-134v-344q0 -38 -0.5 -74t-5.5 -73q-3 -24 -9.5 -46.5t-18 -40
t-30 -28t-46.5 -10.5q-12 0 -21.5 2t-20.5 8v65zM352 321v-268h33q31 0 51 9t31.5 25.5t16 40t4.5 51.5q0 29 -4 54.5t-16 45t-32.5 31t-53.5 11.5h-30z" />
    <glyph glyph-name="uni040A" unicode="&#x40a;" horiz-adv-x="557" 
d="M117 667v-284h148v284h62v-284h37q44 0 75 -14t50.5 -39t28.5 -60t9 -76q0 -50 -11 -95t-45 -71q-26 -20 -53 -24t-54 -4h-99v326h-148v-326h-62v667h62zM327 53h33q32 0 52.5 9.5t31.5 27t15 41.5t4 53t-4 54.5t-16 45t-32.5 31t-53.5 11.5h-30v-273z" />
    <glyph glyph-name="uni040B" unicode="&#x40b;" horiz-adv-x="439" 
d="M340 667v-57h-158v-219q27 9 48 11.5t30 2.5q25 0 52.5 -6.5t46.5 -21.5q28 -22 34 -56.5t6 -77.5v-243h-63v240q0 25 -2.5 45t-11.5 34t-25.5 21.5t-45.5 7.5q-21 0 -38 -4.5t-31 -12.5v-331h-62v610h-100v57h320z" />
    <glyph glyph-name="uni040C" unicode="&#x40c;" horiz-adv-x="329" 
d="M130 740l96 120l54 -43l-115 -103zM55 0v667h62v-303l134 303h69l-144 -318l145 -349h-70l-134 336v-336h-62z" />
    <glyph glyph-name="uni040E" unicode="&#x40e;" horiz-adv-x="341" 
d="M174 703q-40 0 -74 19.5t-45 61.5l53 22q7 -25 24 -37t42 -12q51 0 66 49l53 -22q-13 -42 -45 -61.5t-74 -19.5zM76 667l64 -211q6 -18 10.5 -34t9 -32.5t9.5 -35t10 -41.5q8 44 16 76.5t18 68.5l56 209h64l-188 -667h-62l64 224l-139 443h68z" />
    <glyph glyph-name="uni040F" unicode="&#x40f;" horiz-adv-x="382" 
d="M55 0v667h62v-610h148v610h62v-667h-105v-130h-62v130h-105z" />
    <glyph glyph-name="uni0410" unicode="&#x410;" horiz-adv-x="325" 
d="M1 0l132 667h58l133 -667h-66l-25 137h-141l-25 -137h-66zM223 191l-44 235q-8 39 -12.5 78t-6.5 79q-7 -100 -24 -197t-34 -195h121z" />
    <glyph glyph-name="uni0411" unicode="&#x411;" horiz-adv-x="344" 
d="M279 667v-57h-162v-232h40q44 0 74 -14.5t48.5 -40t26.5 -60t8 -74.5q0 -66 -16 -104t-40 -57q-27 -21 -55.5 -24.5t-51.5 -3.5h-96v667h224zM117 53h30q32 0 52 9.5t31.5 26.5t15.5 40.5t4 52.5t-4 54.5t-15.5 44.5t-32 29.5t-53.5 10.5h-28v-268z" />
    <glyph glyph-name="uni0412" unicode="&#x412;" horiz-adv-x="351" 
d="M55 0v667h97q26 0 51.5 -3.5t46.5 -19.5q15 -11 25 -29t15.5 -38t8 -41t2.5 -39q0 -25 -3.5 -48.5t-12.5 -43t-25 -35.5t-41 -28q32 -9 51.5 -24.5t30 -36.5t13.5 -47t3 -56q0 -87 -36 -132.5t-124 -45.5h-102zM117 613v-241h33q30 0 47.5 10t26.5 26.5t11.5 38.5t2.5 47
q0 24 -1.5 45.5t-9.5 38t-24.5 26t-46.5 9.5h-39zM117 317v-264h33q32 0 52 9.5t31.5 26t15.5 40t4 51.5q0 25 -4.5 49.5t-15.5 44t-30.5 31.5t-49.5 12h-36z" />
    <glyph glyph-name="uni0413" unicode="&#x413;" horiz-adv-x="295" 
d="M117 610v-610h-62v667h212v-57h-150z" />
    <glyph glyph-name="uni0414" unicode="&#x414;" horiz-adv-x="407" 
d="M4 57q34 21 52.5 49t27.5 61t10.5 69t1.5 72v359h249v-610h52v-187h-62v130h-273v-130h-58v187zM283 57v553h-129v-259q0 -42 -1 -73.5t-3.5 -55.5t-5.5 -41.5t-7 -31.5q-8 -29 -22 -51.5t-31 -40.5h199z" />
    <glyph glyph-name="uni0415" unicode="&#x415;" horiz-adv-x="301" 
d="M55 0v667h208v-57h-146v-235h142v-57h-142v-261h146v-57h-208z" />
    <glyph glyph-name="uni0416" unicode="&#x416;" horiz-adv-x="466" 
d="M4 0l143 349l-138 318h65l128 -303v303h62v-303l128 303h65l-138 -318l143 -349h-66l-132 336v-336h-62v336l-132 -336h-66z" />
    <glyph glyph-name="uni0417" unicode="&#x417;" horiz-adv-x="349" 
d="M30 115q16 -24 43.5 -43t65.5 -19q29 0 49.5 11.5t33.5 30t19 43t6 50.5q0 125 -126 125h-20v57h17q57 0 83 31.5t26 86.5q0 24 -4.5 46.5t-15.5 40t-29.5 28.5t-45.5 11q-32 0 -54.5 -16t-39.5 -41v85q12 9 38 21.5t66 12.5q39 0 67 -13.5t46.5 -37.5t27.5 -55.5
t9 -67.5q0 -25 -3.5 -48.5t-12.5 -43.5t-25 -36.5t-41 -26.5q28 -4 48 -18t32.5 -34t18.5 -44.5t6 -50.5q0 -41 -9.5 -79t-29.5 -67t-52.5 -46t-77.5 -17q-26 0 -56 7t-60 30v87z" />
    <glyph glyph-name="uni0418" unicode="&#x418;" horiz-adv-x="393" 
d="M55 0v667h62v-452q0 -17 -1.5 -36.5t-4.5 -47.5q5 18 8.5 29.5t6 20.5t4.5 16t5 15l142 455h62v-667h-62v431q0 26 2 55.5t4 49.5q-6 -24 -10 -39t-7 -24.5t-5 -16t-5 -14.5l-139 -442h-62z" />
    <glyph glyph-name="uni0419" unicode="&#x419;" horiz-adv-x="393" 
d="M131 807q7 -25 24 -37t42 -12q51 0 66 49l53 -22q-13 -42 -45 -61.5t-74 -19.5q-40 0 -74 19.5t-45 61.5zM55 667h62v-452q0 -17 -1.5 -36.5t-4.5 -47.5q5 18 8.5 29.5t6 20.5t4.5 16t5 15l142 455h62v-667h-62v431q0 26 2 55.5t4 49.5q-6 -24 -10 -39t-7 -24.5t-5 -16
t-5 -14.5l-139 -442h-62v667z" />
    <glyph glyph-name="uni041A" unicode="&#x41a;" horiz-adv-x="329" 
d="M117 667v-303l134 303h69l-144 -318l145 -349h-70l-134 336v-336h-62v667h62z" />
    <glyph glyph-name="uni041B" unicode="&#x41b;" horiz-adv-x="408" 
d="M4 69q10 -9 18.5 -12t17.5 -3q17 0 27 8.5t15.5 21.5t8 27.5t3.5 27.5q2 29 3 51.5t1 49.5v427h256v-667h-62v610h-136v-344q0 -38 -0.5 -74t-5.5 -73q-3 -24 -9.5 -46.5t-18 -40t-30 -28t-46.5 -10.5q-12 0 -21.5 2t-20.5 8v65z" />
    <glyph glyph-name="uni041C" unicode="&#x41c;" horiz-adv-x="499" 
d="M21 0l94 667h53l72 -458q4 -26 7.5 -52.5t5.5 -52.5q3 52 12 103l78 460h53l82 -667h-61l-47 433q-3 30 -3.5 60.5t-2.5 60.5q-2 -31 -5.5 -61t-8.5 -60l-74 -433h-51q-20 125 -42.5 248.5t-36.5 249.5q0 4 -0.5 7t-0.5 7l-2 28q0 9 -1 14v-23q0 -49 -6 -97l-54 -434h-61
z" />
    <glyph glyph-name="uni041D" unicode="&#x41d;" horiz-adv-x="385" 
d="M117 667v-266h152v266h62v-667h-62v344h-152v-344h-62v667h62z" />
    <glyph glyph-name="uni041E" unicode="&#x41e;" horiz-adv-x="404" 
d="M203 -9q-39 0 -66.5 17.5t-45.5 46.5t-29 65.5t-16 74.5t-6.5 74t-1.5 64t1.5 64t7 74t16 75t28.5 65.5t45.5 46.5t65.5 18q39 0 66.5 -17.5t46 -46t28.5 -64.5t15.5 -74t6.5 -74t1 -64t-1 -64.5t-6 -75t-15 -75t-28 -65.5t-45.5 -47t-67.5 -18zM203 616q-26 0 -43.5 -16
t-29 -41.5t-17.5 -57t-8.5 -63t-3 -59t-0.5 -45.5q0 -17 0.5 -45t3 -59.5t8.5 -63.5t17.5 -57.5t29 -41.5t43.5 -16q28 0 45.5 16t27.5 40t14.5 51t6.5 48q6 75 6 152q0 17 -0.5 42.5t-3.5 54.5t-9 57.5t-17 51.5t-28 37.5t-42 14.5z" />
    <glyph glyph-name="uni041F" unicode="&#x41f;" horiz-adv-x="379" 
d="M325 667v-667h-62v610h-146v-610h-62v667h270z" />
    <glyph glyph-name="uni0420" unicode="&#x420;" horiz-adv-x="329" 
d="M55 667h80q50 0 83 -11t52 -34t26.5 -58t7.5 -82q0 -88 -37 -125.5t-125 -37.5h-25v-319h-62v667zM117 610v-234h41q29 0 46 9.5t25 26t10 37.5t2 45q0 26 -3.5 47.5t-13.5 36.5t-28.5 23.5t-48.5 8.5h-30z" />
    <glyph glyph-name="uni0421" unicode="&#x421;" horiz-adv-x="320" 
d="M38 316q0 31 2 69.5t8 78.5t18 78t32.5 68t51 48t72.5 18q21 0 41.5 -5t38.5 -16v-68q-17 11 -36 20t-41 9q-30 0 -51 -15t-34.5 -39t-21.5 -54.5t-11.5 -61.5t-4.5 -60t-1 -50q0 -24 1.5 -58t6.5 -68.5t13.5 -66t22.5 -51.5q28 -41 75 -41q23 0 43.5 9t38.5 21v-62
q-20 -13 -42 -20.5t-45 -7.5q-36 0 -67.5 18t-52.5 47q-19 26 -30.5 58.5t-17.5 67t-7.5 69t-1.5 65.5z" />
    <glyph glyph-name="uni0422" unicode="&#x422;" horiz-adv-x="265" 
d="M263 667v-57h-100v-610h-62v610h-100v57h262z" />
    <glyph glyph-name="uni0423" unicode="&#x423;" horiz-adv-x="341" 
d="M76 667l64 -211q6 -18 10.5 -34t9 -32.5t9.5 -35t10 -41.5q8 44 16 76.5t18 68.5l56 209h64l-188 -667h-62l64 224l-139 443h68z" />
    <glyph glyph-name="uni0424" unicode="&#x424;" horiz-adv-x="510" 
d="M30 357q0 50 9.5 96.5t32 83t60 60.5t92.5 27v70h62v-70q54 -3 91.5 -26t60 -59t32.5 -81.5t10 -94.5q0 -51 -9 -99t-31 -86t-59.5 -63.5t-94.5 -30.5v-84h-62v84q-57 3 -94 27.5t-59.5 62.5t-31.5 85.5t-9 97.5zM420 359q0 36 -5.5 72t-20.5 65.5t-41.5 49t-68.5 21.5
v-426q44 1 70.5 22t41 52.5t19.5 69.5t5 74zM226 567q-42 -2 -68.5 -21.5t-41.5 -49.5t-20.5 -66t-5.5 -72q0 -35 5 -73t20 -69.5t41.5 -52.5t69.5 -22v426z" />
    <glyph glyph-name="uni0425" unicode="&#x425;" horiz-adv-x="318" 
d="M1 0l130 339l-130 328h67l59 -165q11 -29 19 -58t13 -59q5 29 13.5 57t18.5 56l60 169h66l-127 -328l127 -339h-66l-66 189q-17 49 -26 95q-5 -25 -12.5 -49t-15.5 -48l-63 -187h-67z" />
    <glyph glyph-name="uni0426" unicode="&#x426;" horiz-adv-x="395" 
d="M55 0v667h62v-610h148v610h62v-610h54v-187h-62v130h-264z" />
    <glyph glyph-name="uni0427" unicode="&#x427;" horiz-adv-x="374" 
d="M184 329q-43 0 -70 10.5t-42.5 31t-21 51t-5.5 69.5v176h63v-169q0 -28 2 -49t11 -35t26.5 -21t48.5 -7q33 0 62 7v274h62v-667h-62v337q-17 -4 -35 -6t-39 -2z" />
    <glyph glyph-name="uni0428" unicode="&#x428;" horiz-adv-x="584" 
d="M55 667h62v-610h144v610h62v-610h144v610h62v-667h-474v667z" />
    <glyph glyph-name="uni0429" unicode="&#x429;" horiz-adv-x="603" 
d="M55 0v667h62v-610h144v610h62v-610h144v610h62v-610h60v-187h-62v130h-472z" />
    <glyph glyph-name="uni042A" unicode="&#x42a;" horiz-adv-x="380" 
d="M2 667h148v-289h37q44 0 75 -14t50.5 -39t28.5 -60t9 -76q0 -46 -11 -90t-45 -71q-26 -20 -53 -24t-54 -4h-99v610h-86v57zM150 321v-268h33q31 0 51 9t31.5 25.5t16 40t4.5 51.5q0 29 -4 54.5t-16 45t-32.5 31t-53.5 11.5h-30z" />
    <glyph glyph-name="uni042B" unicode="&#x42b;" horiz-adv-x="483" 
d="M55 667h62v-289h37q44 0 75 -14t50.5 -39t28.5 -60t9 -76q0 -46 -11 -90t-45 -71q-26 -20 -53 -24t-54 -4h-99v667zM367 0v667h62v-667h-62zM150 53q31 0 51 9t31.5 25.5t16 40t4.5 51.5q0 29 -4 54.5t-16 45t-32.5 31t-53.5 11.5h-30v-268h33z" />
    <glyph glyph-name="uni042C" unicode="&#x42c;" horiz-adv-x="347" 
d="M55 667h62v-289h37q44 0 75 -14t50.5 -39t28.5 -60t9 -76q0 -46 -11 -90t-45 -71q-26 -20 -53 -24t-54 -4h-99v667zM150 53q31 0 51 9t31.5 25.5t16 40t4.5 51.5q0 29 -4 54.5t-16 45t-32.5 31t-53.5 11.5h-30v-268h33z" />
    <glyph glyph-name="uni042D" unicode="&#x42d;" horiz-adv-x="332" 
d="M18 644q29 20 51.5 26t43.5 6q34 0 59 -11t47 -34q23 -24 38 -55t23 -67t11 -76t3 -82q0 -48 -4 -94t-13 -88q-7 -35 -19 -67.5t-31.5 -57t-48 -39t-68.5 -14.5q-21 0 -44.5 6.5t-47.5 26.5v76q25 -31 49 -40t42 -9q27 0 46.5 14.5t33 38t21.5 52.5t12 59t6 57t2 46h-169
v57h168q0 30 -5 71.5t-18.5 79t-38 64t-64.5 26.5q-16 0 -29.5 -5t-24 -12.5t-18.5 -16t-13 -15.5v77z" />
    <glyph glyph-name="uni042E" unicode="&#x42e;" horiz-adv-x="568" 
d="M117 667v-266h87q0 39 6.5 86.5t24.5 89.5t49.5 70.5t81.5 28.5q40 0 67.5 -17.5t45.5 -46.5t28.5 -65.5t15.5 -74.5t6 -74t1 -64t-1 -64t-6 -74t-15.5 -75t-28.5 -66t-45.5 -46.5t-67.5 -17.5q-39 0 -67 17.5t-46 46.5t-28.5 66t-15.5 75t-6 74t-1 64v10h-85v-344h-62
v667h62zM315 594q-19 -19 -29 -50t-14.5 -67t-5.5 -73.5t-1 -70.5q0 -32 1 -69.5t5.5 -73.5t14.5 -67t29 -50q10 -10 22 -16t29 -6t29 6t22 16q17 17 26.5 43.5t15 60.5t7 74t1.5 82q0 60 -3.5 104t-9.5 74.5t-15.5 50.5t-21.5 32q-10 10 -22 16t-29 6t-29 -6t-22 -16z" />
    <glyph glyph-name="uni042F" unicode="&#x42f;" horiz-adv-x="357" 
d="M16 0l148 314q-2 0 -11.5 1t-23 4.5t-28 11t-27.5 19.5q-17 16 -29.5 47.5t-12.5 85.5q0 93 38 138.5t133 45.5h100v-667h-68v320l-148 -320h-71zM98 485q0 -25 4 -46.5t14.5 -37t28.5 -24t46 -8.5h44v241h-36q-32 0 -52 -8.5t-31 -24.5t-14.5 -39t-3.5 -53z" />
    <glyph glyph-name="uni0430" unicode="&#x430;" horiz-adv-x="327" 
d="M39 215q0 34 2 75.5t12.5 78t33 61t62.5 24.5q24 0 40 -9t31 -28v30h57v-447h-57v36q-15 -20 -32.5 -31.5t-43.5 -11.5q-38 0 -59.5 23.5t-31.5 58t-12 72.5t-2 68zM163 409q-24 0 -37.5 -18.5t-20 -44t-7.5 -52.5t-1 -44q0 -28 0.5 -54.5t2.5 -53.5q1 -15 3.5 -32.5
t9 -33.5t18.5 -26.5t31 -10.5q22 0 36 15q10 11 15.5 33.5t8.5 48.5t3.5 50.5t0.5 39.5q0 33 -1.5 66t-8 59t-19 42t-34.5 16z" />
    <glyph glyph-name="uni0431" unicode="&#x431;" horiz-adv-x="334" 
d="M95 21q-19 18 -30 43.5t-16.5 56.5t-7 67t-1.5 74q0 42 1.5 88.5t6.5 86.5q4 37 10.5 67t19.5 54t35.5 43t58.5 34q26 11 39 16t21 13q5 4 10 13t5 23h53q0 -26 -7 -44t-19.5 -31t-30 -22.5t-39.5 -18.5q-19 -8 -35 -16.5t-27 -20.5q-23 -26 -33.5 -68.5t-10.5 -80.5
q11 26 33 41t49 15q20 0 37 -8t30 -20q18 -17 28 -41.5t15.5 -52.5t6.5 -57t1 -55q0 -34 -3.5 -73.5t-16.5 -73.5t-38.5 -57t-69.5 -23q-22 0 -40 5.5t-35 22.5zM100 223q0 -17 1.5 -47t8.5 -59t21 -50t39 -21t39 21t21 50t8.5 59t1.5 47q0 18 -1 48t-7.5 59t-21 50
t-40.5 21q-25 0 -39.5 -21.5t-21 -50.5t-8 -59t-1.5 -47z" />
    <glyph glyph-name="uni0432" unicode="&#x432;" horiz-adv-x="304" 
d="M50 0v447h89q58 0 89.5 -27.5t31.5 -87.5q0 -36 -15 -59.5t-47 -38.5q43 -10 59.5 -38.5t16.5 -70.5q0 -61 -29 -93t-92 -32h-103zM106 395v-136h23q40 0 56.5 14t16.5 55q0 35 -13.5 51t-50.5 16h-32zM106 206v-154h27q40 0 60.5 15t20.5 57q0 82 -81 82h-27z" />
    <glyph glyph-name="uni0433" unicode="&#x433;" horiz-adv-x="246" 
d="M50 447h181v-52h-125v-395h-56v447z" />
    <glyph glyph-name="uni0434" unicode="&#x434;" horiz-adv-x="332" 
d="M2 52q25 12 39 31t21.5 41.5t9.5 47.5t2 50v225h209v-395h41v-156h-53v104h-216v-104h-53v156zM227 52v343h-101v-169q0 -25 -1 -48.5t-6 -45t-15.5 -41.5t-29.5 -39h153z" />
    <glyph glyph-name="uni0435" unicode="&#x435;" horiz-adv-x="313" 
d="M33 222q0 30 4.5 70t18 76t38 61t65.5 25t64.5 -23.5t36.5 -57t16.5 -72t3.5 -68.5l-1 -14v-7h-189v-10q0 -17 2 -43.5t9.5 -51.5t21.5 -43t38 -18q19 0 30 11t17 27.5t8.5 35t2.5 32.5h57q-1 -27 -6.5 -55t-18 -51.5t-34 -38t-54.5 -14.5q-43 0 -69 23.5t-39.5 58.5
t-17.5 75t-4 72zM160 402q-22 0 -35 -16.5t-20.5 -39t-10 -47t-3.5 -39.5h133q-1 15 -3 39t-8.5 47t-19 39.5t-33.5 16.5z" />
    <glyph glyph-name="uni0436" unicode="&#x436;" horiz-adv-x="421" 
d="M354 0l-115 205v-205h-57v205l-115 -205h-65l135 233l-127 214h61l111 -195v195h57v-195l111 195h61l-127 -214l135 -233h-65z" />
    <glyph glyph-name="uni0437" unicode="&#x437;" horiz-adv-x="279" 
d="M124 -7q-22 0 -45.5 6.5t-48.5 28.5v72q16 -22 36.5 -38t49.5 -16q35 0 55.5 20.5t20.5 55.5q0 45 -24 61.5t-66 16.5h-17v54h19q36 0 56.5 16.5t20.5 54.5q0 32 -15.5 54t-50.5 22q-27 0 -46.5 -17t-33.5 -38v72q23 23 45.5 29.5t41.5 6.5q56 0 86 -33.5t30 -87.5
q0 -36 -14 -61.5t-48 -40.5q39 -11 58.5 -39t19.5 -69q0 -58 -36.5 -94t-93.5 -36z" />
    <glyph glyph-name="uni0438" unicode="&#x438;" horiz-adv-x="336" 
d="M106 447v-276v-31t-2 -38q4 15 7 25t5 16.5t4 12t5 12.5l105 279h56v-447h-56v278v18t2 46q-5 -21 -10 -36.5t-11 -30.5l-105 -275h-56v447h56z" />
    <glyph glyph-name="uni0439" unicode="&#x439;" horiz-adv-x="336" 
d="M168 500q-38 0 -66 18.5t-41 55.5l47 23q4 -25 21 -36t40 -11q48 0 59 47l47 -23q-13 -37 -41 -55.5t-66 -18.5zM50 447h56v-276v-31t-2 -38q4 15 7 25t5 16.5t4 12t5 12.5l105 279h56v-447h-56v278v18t2 46q-5 -21 -10 -36.5t-11 -30.5l-105 -275h-56v447z" />
    <glyph glyph-name="uni043A" unicode="&#x43a;" horiz-adv-x="306" 
d="M106 447v-195l119 195h65l-135 -215l149 -232h-69l-129 205v-205h-56v447h56z" />
    <glyph glyph-name="uni043B" unicode="&#x43b;" horiz-adv-x="340" 
d="M4 58q9 -9 24 -9q16 0 27 11q9 9 13.5 23t7 30.5t2.5 34.5v35v264h212v-447h-56v395h-103v-190q0 -31 -1 -53.5t-3 -39.5q-2 -22 -7.5 -42.5t-16.5 -37t-28 -26.5t-42 -10q-9 0 -16 1t-13 3v58z" />
    <glyph glyph-name="uni043C" unicode="&#x43c;" horiz-adv-x="408" 
d="M80 447h50l61 -283q6 -26 9 -48t4 -32q1 10 4 32t9 48l61 283h50l62 -447h-53l-31 268q-2 20 -3.5 33.5t-3.5 38.5q-2 -22 -5 -37.5t-7 -32.5l-58 -270h-50l-58 270q-5 20 -7.5 36.5t-4.5 33.5q-2 -25 -3.5 -38.5t-3.5 -33.5l-31 -268h-53z" />
    <glyph glyph-name="uni043D" unicode="&#x43d;" horiz-adv-x="330" 
d="M50 0v447h56v-186h118v186h56v-447h-56v209h-118v-209h-56z" />
    <glyph glyph-name="uni043E" unicode="&#x43e;" horiz-adv-x="323" 
d="M33 224q0 33 4.5 73t18 75t39.5 58.5t69 23.5q44 0 68.5 -24.5t37.5 -60t16 -76t3 -72.5t-3.5 -71.5t-16 -74.5t-37.5 -58.5t-68 -23.5t-69 24t-39.5 59t-18 75t-4.5 73zM163 402q-26 0 -40.5 -22t-21 -52t-8 -60.5t-1.5 -48.5t1.5 -47t8.5 -57t21.5 -48.5t39.5 -20.5
t38.5 21.5t20 50.5t8 59t1.5 47t-1.5 47t-8 59t-20 50.5t-38.5 21.5z" />
    <glyph glyph-name="uni043F" unicode="&#x43f;" horiz-adv-x="326" 
d="M276 447v-447h-56v395h-114v-395h-56v447h226z" />
    <glyph glyph-name="uni0440" unicode="&#x440;" horiz-adv-x="321" 
d="M50 447h56v-30q14 19 30.5 28t40.5 9q41 0 63.5 -23.5t33 -57.5t12.5 -72.5t2 -68.5q0 -36 -2 -78t-12 -77.5t-31.5 -59.5t-59.5 -24q-26 0 -43.5 11.5t-33.5 31.5v-216h-56v627zM101 226q0 -15 0.5 -39.5t3 -50.5t8.5 -48.5t16 -33.5q15 -15 36 -15q20 0 31.5 10.5
t17.5 26.5t9 33.5t4 32.5q3 26 3 52.5v52.5q0 17 -1 44.5t-7.5 53.5t-20 45t-37.5 19q-22 0 -34.5 -16t-19 -42t-8 -59t-1.5 -66z" />
    <glyph glyph-name="uni0441" unicode="&#x441;" horiz-adv-x="246" 
d="M33 216q0 32 4.5 73t18.5 78t40 62t69 25q32 0 61 -17v-66q-11 12 -25 21.5t-31 9.5q-27 0 -42.5 -21t-23.5 -50.5t-10 -60t-2 -49.5q0 -18 2.5 -47.5t10.5 -58t23.5 -49t40.5 -20.5q19 0 33 13t24 27v-70q-14 -11 -30.5 -17t-33.5 -6q-39 0 -64.5 23.5t-39.5 58
t-19.5 73t-5.5 68.5z" />
    <glyph glyph-name="uni0442" unicode="&#x442;" horiz-adv-x="245" 
d="M237 447v-52h-86v-395h-57v395h-86v52h229z" />
    <glyph glyph-name="uni0443" unicode="&#x443;" horiz-adv-x="289" 
d="M64 447l56 -248q6 -28 11.5 -56t9.5 -56q3 21 8 41.5t10 42.5l65 276h59l-160 -627h-60l50 192l-106 435h57z" />
    <glyph glyph-name="uni0444" unicode="&#x444;" horiz-adv-x="413" 
d="M178 -7q-45 2 -74.5 25t-46 57.5t-23 75t-6.5 77.5q0 39 6.5 78t23 70.5t46 52.5t74.5 25v213h57v-213q21 -2 46 -10.5t49 -32.5q36 -36 45.5 -83t9.5 -100q0 -66 -12 -111.5t-47 -80.5q-20 -20 -41 -30.5t-50 -12.5v-173h-57v173zM82 227q0 -24 3 -55.5t13 -59.5
t29.5 -47t52.5 -19v356q-34 -1 -53.5 -18.5t-29.5 -43.5t-12.5 -56.5t-2.5 -56.5zM233 46q34 1 53.5 20.5t29.5 47.5t12.5 60t2.5 57q0 26 -3 55.5t-13 55t-29.5 42.5t-52.5 18v-356z" />
    <glyph glyph-name="uni0445" unicode="&#x445;" horiz-adv-x="279" 
d="M7 0l102 229l-91 218h62q17 -47 34.5 -93.5t28.5 -95.5q10 50 28.5 96t37.5 93h63l-100 -218l100 -229h-63l-49 127q-6 17 -12 33t-10 33q-3 -17 -8.5 -33.5t-11.5 -33.5l-48 -126h-63z" />
    <glyph glyph-name="uni0446" unicode="&#x446;" horiz-adv-x="337" 
d="M50 0v447h56v-395h115v395h56v-395h50v-156h-56v104h-221z" />
    <glyph glyph-name="uni0447" unicode="&#x447;" horiz-adv-x="308" 
d="M141 202q-66 0 -88.5 33t-22.5 95v117h56v-123q0 -35 12.5 -52t50.5 -17q18 0 33 3t20 5v184h56v-447h-56v211q-27 -9 -61 -9z" />
    <glyph glyph-name="uni0448" unicode="&#x448;" horiz-adv-x="501" 
d="M50 447h56v-395h116v395h57v-395h116v395h56v-447h-401v447z" />
    <glyph glyph-name="uni0449" unicode="&#x449;" horiz-adv-x="512" 
d="M50 0v447h56v-395h117v395h56v-395h116v395h57v-395h54v-156h-56v104h-400z" />
    <glyph glyph-name="uni044A" unicode="&#x44a;" horiz-adv-x="341" 
d="M8 395v52h145v-171h20q72 0 110 -36.5t38 -108.5q0 -131 -128 -131h-96v395h-89zM185 52q44 0 61.5 19t17.5 63q0 43 -20.5 67.5t-65.5 24.5h-25v-174h32z" />
    <glyph glyph-name="uni044B" unicode="&#x44b;" horiz-adv-x="425" 
d="M50 0v447h56v-171h20q148 0 148 -146q0 -130 -128 -130h-96zM375 447v-447h-56v447h56zM106 52h32q45 0 62 19.5t17 64.5q0 42 -21 66t-65 24h-25v-174z" />
    <glyph glyph-name="uni044C" unicode="&#x44c;" horiz-adv-x="293" 
d="M50 447h56v-171h19q148 0 148 -145q0 -66 -30.5 -98.5t-97.5 -32.5h-95v447zM106 226v-174h31q46 0 62.5 20t16.5 65q0 43 -21 66t-65 23h-24z" />
    <glyph glyph-name="uni044D" unicode="&#x44d;" horiz-adv-x="280" 
d="M36 429q21 17 41.5 21t32.5 4q42 0 68.5 -22t41.5 -55.5t20.5 -72t5.5 -71.5q0 -34 -5 -76t-20 -78.5t-42 -61t-71 -24.5q-15 0 -32.5 4.5t-39.5 21.5v72q11 -19 28 -32t40 -13q27 0 43 18.5t24.5 44t11 53.5t2.5 47h-117v52h116q-1 19 -4.5 43.5t-12.5 46t-24.5 36.5
t-40.5 15q-20 0 -37.5 -13t-28.5 -30v70z" />
    <glyph glyph-name="uni044E" unicode="&#x44e;" horiz-adv-x="453" 
d="M50 0v447h57v-186h57q2 31 7.5 65t19.5 62.5t38 47t62 18.5q44 0 69.5 -23.5t38.5 -58.5t16.5 -75t3.5 -73t-3.5 -73t-16 -75.5t-38 -59t-69.5 -23.5q-42 0 -67.5 21.5t-39 54t-18 70.5t-4.5 71h-56v-210h-57zM220 224q0 -15 1.5 -45t8 -59.5t21 -51.5t39.5 -22
q26 0 40 22t21 51.5t8 59t1 45.5t-1 45.5t-8 59t-21 51.5t-40 22q-25 0 -39.5 -22t-21 -51.5t-8 -59.5t-1.5 -45z" />
    <glyph glyph-name="uni044F" unicode="&#x44f;" horiz-adv-x="296" 
d="M130 187q-53 2 -80.5 36t-27.5 85q0 38 12 64t26 40q25 25 53 30t57 5h76v-447h-56v185l-104 -185h-66zM82 310q0 -76 76 -76h32v161h-29q-43 0 -61 -21.5t-18 -63.5z" />
    <glyph glyph-name="uni0451" unicode="&#x451;" horiz-adv-x="313" 
d="M220 514q-18 0 -30 13t-12 31q0 17 12 29.5t30 12.5t30.5 -12.5t12.5 -29.5q0 -18 -12.5 -31t-30.5 -13zM94 514q-18 0 -30.5 13t-12.5 31q0 17 12.5 29.5t30.5 12.5t30 -12.5t12 -29.5q0 -18 -12 -31t-30 -13zM163 -7q-43 0 -69 23.5t-39.5 58.5t-17.5 75t-4 72
q0 30 4.5 70t18 76t38 61t65.5 25t64.5 -23.5t36.5 -57t16.5 -72t3.5 -68.5l-1 -14v-7h-189v-10q0 -17 2 -43.5t9.5 -51.5t21.5 -43t38 -18q19 0 30 11t17 27.5t8.5 35t2.5 32.5h57q-1 -27 -6.5 -55t-18 -51.5t-34 -38t-54.5 -14.5zM160 402q-22 0 -35 -16.5t-20.5 -39
t-10 -47t-3.5 -39.5h133q-1 15 -3 39t-8.5 47t-19 39.5t-33.5 16.5z" />
    <glyph glyph-name="uni0452" unicode="&#x452;" horiz-adv-x="340" 
d="M59 584v145h56v-145h104v-52h-104v-145q19 20 40.5 31.5t49.5 11.5q26 0 42.5 -9.5t26 -25.5t13 -36.5t3.5 -43.5v-357q0 -25 -3.5 -49.5t-14 -44t-28.5 -32t-48 -12.5q-23 0 -43 10v57q9 -7 17.5 -9t15.5 -2q20 0 32 10q11 10 13.5 30t2.5 42v341q0 14 -1 28.5
t-5.5 27.5t-14.5 21t-28 8q-23 0 -37 -10t-21.5 -25.5t-9.5 -34.5t-2 -37v-277h-56v532h-49v52h49z" />
    <glyph glyph-name="uni0453" unicode="&#x453;" horiz-adv-x="246" 
d="M124 507l-35 26l96 120l54 -43zM50 447h181v-52h-125v-395h-56v447z" />
    <glyph glyph-name="uni0454" unicode="&#x454;" horiz-adv-x="280" 
d="M34 225q0 33 5 73t19.5 74.5t41.5 58t70 23.5q12 0 32.5 -4t41.5 -21v-70q-11 17 -28.5 30t-37.5 13q-24 0 -40 -15t-25.5 -36.5t-13 -46t-3.5 -43.5h116v-52h-117q0 -19 3 -47t11.5 -53.5t24.5 -44t42 -18.5q23 0 40 13t28 32v-72q-22 -17 -39.5 -21.5t-32.5 -4.5
q-44 0 -71 23.5t-42 58.5t-20 75.5t-5 74.5z" />
    <glyph glyph-name="uni0455" unicode="&#x455;" horiz-adv-x="249" 
d="M28 90q17 -17 36 -30.5t43 -13.5q30 0 47.5 20.5t17.5 48.5q0 22 -10.5 40t-26.5 34t-35 31.5t-35 33.5t-26.5 39t-10.5 48q0 49 31 81t80 32q23 0 42 -7.5t38 -21.5v-69q-15 18 -34 32t-43 14q-25 0 -40 -17.5t-15 -41.5q0 -22 10.5 -38.5t26.5 -31.5t35 -29.5t35 -32
t26.5 -40t10.5 -52.5q0 -26 -9 -49t-24.5 -40t-37.5 -27t-49 -10q-23 0 -44 8.5t-39 22.5v66z" />
    <glyph glyph-name="uni0456" unicode="&#x456;" horiz-adv-x="155" 
d="M36 587q0 18 12 30.5t30 12.5q17 0 29 -13t12 -30t-12 -29t-29 -12t-29.5 12t-12.5 29zM106 447v-447h-57v447h57z" />
    <glyph glyph-name="uni0457" unicode="&#x457;" horiz-adv-x="155" 
d="M8 588q0 17 8.5 29.5t21.5 12.5q11 0 19.5 -12.5t8.5 -29.5q0 -18 -8.5 -31t-19.5 -13q-13 0 -21.5 13t-8.5 31zM90 588q0 17 8 29.5t20 12.5q13 0 21 -12.5t8 -29.5q0 -18 -8 -31t-21 -13q-12 0 -20 13t-8 31zM49 0v447h57v-447h-57z" />
    <glyph glyph-name="uni0458" unicode="&#x458;" horiz-adv-x="159" 
d="M39 587q0 18 12 30.5t30 12.5t30 -12.5t12 -30.5q0 -17 -12.5 -29t-29.5 -12t-29.5 12t-12.5 29zM110 447v-627h-58v627h58z" />
    <glyph glyph-name="uni0459" unicode="&#x459;" horiz-adv-x="478" 
d="M33 -4q-9 0 -16 1t-13 3v58q9 -9 24 -9q8 0 14.5 2t12.5 9q17 19 20 50.5t3 66.5v270h212v-171h20q72 0 110 -36.5t38 -108.5q0 -131 -128 -131h-96v395h-103v-190q0 -29 -1 -49t-3 -44q-2 -22 -7.5 -42.5t-16 -37t-27.5 -26.5t-43 -10zM290 226v-174h32q45 0 62 20
t17 65q0 42 -21.5 65.5t-64.5 23.5h-25z" />
    <glyph glyph-name="uni045A" unicode="&#x45a;" horiz-adv-x="468" 
d="M50 0v447h56v-174h118v174h57v-174h19q72 0 110 -35.5t38 -108.5q0 -129 -128 -129h-96v221h-118v-221h-56zM281 52h31q41 0 60 18t19 60q0 43 -20 67t-64 24h-26v-169z" />
    <glyph glyph-name="uni045B" unicode="&#x45b;" horiz-adv-x="340" 
d="M10 532v52h49v145h56v-145h104v-52h-104v-145q17 19 39 31t48 12q27 0 44.5 -9t27 -25t13 -36.5t3.5 -44.5v-315h-56v301q0 14 -1 28.5t-5.5 26.5t-15 20t-28.5 8q-23 0 -36.5 -10t-21 -26t-9.5 -34.5t-2 -36.5v-277h-56v532h-49z" />
    <glyph glyph-name="uni045C" unicode="&#x45c;" horiz-adv-x="306" 
d="M221 653l54 -43l-115 -103l-35 26zM50 447h56v-195l119 195h65l-135 -215l149 -232h-69l-129 205v-205h-56v447z" />
    <glyph glyph-name="uni045E" unicode="&#x45e;" horiz-adv-x="289" 
d="M147 500q-38 0 -66 18.5t-41 55.5l47 23q4 -25 21 -36t40 -11q48 0 59 47l47 -23q-13 -37 -41 -55.5t-66 -18.5zM7 447h57l56 -248q6 -28 11.5 -56t9.5 -56q3 21 8 41.5t10 42.5l65 276h59l-160 -627h-60l50 192z" />
    <glyph glyph-name="uni045F" unicode="&#x45f;" horiz-adv-x="326" 
d="M50 0v447h56v-395h114v395h56v-447h-85v-104h-57v104h-84z" />
    <glyph glyph-name="uni0462" unicode="&#x462;" horiz-adv-x="407" 
d="M15 542v57h98v95h64v-95h134v-57h-134v-164h37q44 0 75 -14t50.5 -39t28.5 -60t9 -76q0 -46 -11 -90t-45 -71q-26 -20 -53 -24t-54 -4h-99v542h-100zM177 321v-268h33q31 0 51 9t31.5 25.5t16 40t4.5 51.5q0 29 -4 54.5t-16 45t-32.5 31t-53.5 11.5h-30z" />
    <glyph glyph-name="uni0463" unicode="&#x463;" horiz-adv-x="321" 
d="M10 395v52h67v220h56v-220h105v-52h-105v-119h20q72 0 110 -36t38 -109q0 -131 -128 -131h-96v395h-67zM165 52q45 0 62 20t17 65q0 42 -21.5 65.5t-64.5 23.5h-25v-174h32z" />
    <glyph glyph-name="uni0472" unicode="&#x472;" horiz-adv-x="404" 
d="M202 -9q-39 0 -67 17.5t-46 46.5t-28.5 66t-15.5 75t-6 74t-1 64t1 64t6 74t15.5 74.5t28.5 65.5t46 46.5t67 17.5q40 0 67.5 -17.5t45.5 -46.5t28.5 -65.5t15.5 -74.5t6 -74t1 -64t-1 -64t-6 -74t-15.5 -75t-28.5 -66t-45.5 -46.5t-67.5 -17.5zM303 383q0 16 -1 39.5
t-4.5 49.5t-10 52t-17.5 46.5t-28 33t-40 12.5q-35 0 -55 -27.5t-30.5 -65t-13 -77t-2.5 -63.5h202zM101 326q0 -9 -0.5 -41.5t4 -72.5t15 -79t31.5 -60q10 -10 22 -16t29 -6t29 6t22 16q18 18 28.5 51t16 70t6 72.5t-0.5 59.5h-202z" />
    <glyph glyph-name="uni0473" unicode="&#x473;" horiz-adv-x="323" 
d="M33 224q0 34 3.5 74t16 74.5t38 58t70.5 23.5t70.5 -23.5t38 -58t16 -74.5t3.5 -74t-3 -74t-16 -75t-38.5 -58.5t-70.5 -23.5t-70.5 23.5t-38.5 58.5t-16 75t-3 74zM161 402q-22 0 -35.5 -16t-20.5 -38.5t-9.5 -46.5t-3.5 -40h138q-1 16 -3.5 40t-9.5 46.5t-20.5 38.5
t-35.5 16zM91 209q0 -16 2 -44t9 -54t21 -45.5t38 -19.5t38 19t21 45.5t9 54t2 44.5h-140z" />
    <glyph glyph-name="uni0474" unicode="&#x474;" horiz-adv-x="326" 
d="M1 667h64l84 -442q6 -33 9 -66.5t6 -67.5q3 33 7 66t10 66l80 444h64l-135 -667h-55z" />
    <glyph glyph-name="uni0475" unicode="&#x475;" horiz-adv-x="276" 
d="M7 447h58l59 -267q5 -24 9 -48t7 -48q4 23 7.5 47t8.5 47l55 269h58l-99 -447h-61z" />
    <glyph glyph-name="uni0490" unicode="&#x490;" horiz-adv-x="309" 
d="M55 667h168v121h62v-178h-168v-610h-62v667z" />
    <glyph glyph-name="uni0491" unicode="&#x491;" horiz-adv-x="256" 
d="M50 447h139v99h57v-151h-139v-395h-57v447z" />
    <glyph glyph-name="uni0492" unicode="&#x492;" horiz-adv-x="318" 
d="M20 319v57h58v291h212v-57h-150v-234h116v-57h-116v-319h-62v319h-58z" />
    <glyph glyph-name="uni0493" unicode="&#x493;" horiz-adv-x="262" 
d="M20 193v52h47v202h180v-52h-124v-150h105v-52h-105v-193h-56v193h-47z" />
    <glyph glyph-name="uni0494" unicode="&#x494;" horiz-adv-x="374" 
d="M281 667v-57h-164v-219q17 6 36 10t39 4q47 0 76.5 -18t47 -47.5t24 -67.5t6.5 -77q0 -34 -4.5 -70.5t-19 -67t-40.5 -50t-68 -19.5q-21 0 -38 5t-32 13l19 59q8 -6 19 -11.5t27 -5.5q26 0 41 14.5t22.5 36t9 46t1.5 43.5q0 27 -3 55.5t-13 52t-29.5 38t-53.5 14.5
q-8 0 -26 -2.5t-41 -14.5v-331h-62v667h226z" />
    <glyph glyph-name="uni0495" unicode="&#x495;" horiz-adv-x="293" 
d="M50 447h180v-52h-124v-134h19q45 0 74 -15.5t45.5 -41.5t22.5 -61.5t6 -75.5q0 -38 -6 -77.5t-21.5 -73.5t-42 -59.5t-68.5 -36.5v63q27 4 42.5 25.5t24 50t10.5 58t2 50.5q0 26 -2 50.5t-11 44.5t-27 32t-49 12h-19v-206h-56v447z" />
    <glyph glyph-name="uni0496" unicode="&#x496;" horiz-adv-x="485" 
d="M147 349l-138 318h65l128 -303v303h62v-303l128 303h65l-138 -318l114 -292h48v-187h-62v130h-27l-128 336v-336h-62v336l-132 -336h-66z" />
    <glyph glyph-name="uni0497" unicode="&#x497;" horiz-adv-x="440" 
d="M411 447l-127 -214l101 -181h50v-156h-56v104h-29l-111 205v-205h-57v205l-115 -205h-65l135 233l-127 214h61l111 -195v195h57v-195l111 195h61z" />
    <glyph glyph-name="uni0498" unicode="&#x498;" horiz-adv-x="349" 
d="M116 -6q-12 1 -36 7t-50 27v87q16 -24 43.5 -43t65.5 -19q29 0 49.5 11.5t33.5 30t19 43t6 50.5q0 125 -126 125h-20v57h17q57 0 83 31.5t26 86.5q0 24 -4.5 46.5t-15.5 40t-29.5 28.5t-45.5 11q-32 0 -54.5 -16t-39.5 -41v85q12 9 38 21.5t66 12.5q39 0 67 -13.5
t46.5 -37.5t27.5 -55.5t9 -67.5q0 -25 -3.5 -48.5t-12.5 -43.5t-25 -36.5t-41 -26.5q28 -4 48 -18t32.5 -34t18.5 -44.5t6 -50.5q0 -32 -7.5 -67t-23.5 -65t-42 -50.5t-64 -23.5v-124h-62v124z" />
    <glyph glyph-name="uni0499" unicode="&#x499;" horiz-adv-x="279" 
d="M30 100q16 -22 36.5 -38t49.5 -16q35 0 55.5 20.5t20.5 55.5q0 45 -24 61.5t-66 16.5h-17v54h19q36 0 56.5 16.5t20.5 54.5q0 32 -15.5 54t-50.5 22q-27 0 -46.5 -17t-33.5 -38v72q23 23 45.5 29.5t41.5 6.5q56 0 86 -33.5t30 -87.5q0 -36 -14 -61.5t-48 -40.5
q39 -11 58.5 -39t19.5 -69q0 -45 -26 -81.5t-72 -45.5v-100h-56v100q-14 2 -32 8t-38 24v72z" />
    <glyph glyph-name="uni049A" unicode="&#x49a;" horiz-adv-x="346" 
d="M55 0v667h62v-303l134 303h69l-144 -318l118 -292h48v-187h-62v130h-32l-131 336v-336h-62z" />
    <glyph glyph-name="uni049B" unicode="&#x49b;" horiz-adv-x="322" 
d="M106 447v-195l119 195h66l-136 -215l112 -180h50v-156h-56v104h-30l-125 205v-205h-56v447h56z" />
    <glyph glyph-name="uni049C" unicode="&#x49c;" horiz-adv-x="423" 
d="M55 0v667h62v-288h41v137h56v-152l134 303h66l-144 -318l145 -349h-67l-134 336v-176h-56v161h-41v-321h-62z" />
    <glyph glyph-name="uni049D" unicode="&#x49d;" horiz-adv-x="359" 
d="M50 0v447h56v-195h32v93h47v-93l100 195h62l-113 -210l123 -237h-66l-106 205v-116h-47v113h-32v-202h-56z" />
    <glyph glyph-name="uni04A0" unicode="&#x4a0;" horiz-adv-x="389" 
d="M15 667h162v-303l134 303h69l-144 -318l145 -349h-70l-134 336v-336h-62v610h-100v57z" />
    <glyph glyph-name="uni04A1" unicode="&#x4a1;" horiz-adv-x="362" 
d="M161 447v-195l120 195h65l-135 -215l149 -232h-69l-130 205v-205h-56v395h-95v52h151z" />
    <glyph glyph-name="uni04A2" unicode="&#x4a2;" horiz-adv-x="399" 
d="M55 0v667h62v-266h152v266h62v-610h54v-187h-62v130h-54v344h-152v-344h-62z" />
    <glyph glyph-name="uni04A3" unicode="&#x4a3;" horiz-adv-x="341" 
d="M50 0v447h56v-186h119v186h56v-395h50v-156h-56v104h-50v209h-119v-209h-56z" />
    <glyph glyph-name="uni04A4" unicode="&#x4a4;" horiz-adv-x="467" 
d="M55 0v667h62v-266h152v266h188v-57h-126v-610h-62v344h-152v-344h-62z" />
    <glyph glyph-name="uni04A5" unicode="&#x4a5;" horiz-adv-x="404" 
d="M107 447v-186h118v186h169v-52h-113v-395h-56v209h-118v-209h-57v447h57z" />
    <glyph glyph-name="uni04AA" unicode="&#x4aa;" horiz-adv-x="320" 
d="M189 -5q-35 7 -59.5 25.5t-41.5 45t-27 58.5t-15 65.5t-6.5 66.5t-1.5 61q0 31 2 70t8 79t18.5 77.5t33 67t51 47.5t73.5 18q17 0 37 -4.5t41 -16.5v-68q-18 13 -38.5 21t-38.5 8q-28 0 -48.5 -14t-34.5 -36.5t-22 -51t-12 -58t-5.5 -57t-1.5 -47.5q0 -70 5.5 -118.5
t13.5 -80.5t18.5 -50t19.5 -27q14 -14 30 -19.5t32 -5.5q19 0 40.5 8t41.5 22v-62q-24 -18 -51 -24v-125h-62v125z" />
    <glyph glyph-name="uni04AB" unicode="&#x4ab;" horiz-adv-x="246" 
d="M33 222q0 32 5 72t19.5 75.5t40.5 60t67 24.5q10 0 26 -3t35 -14v-66q-11 13 -26 22t-32 9q-26 0 -41 -22t-23 -51.5t-10 -59.5t-2 -46t2.5 -45.5t10.5 -58.5t23 -51t41 -22q22 0 36.5 15.5t20.5 24.5v-70q-15 -14 -31 -18v-102h-56v100q-34 7 -55 33t-32 60t-15 70
t-4 63z" />
    <glyph glyph-name="uni04AE" unicode="&#x4ae;" horiz-adv-x="316" 
d="M68 667l62 -191q6 -18 15.5 -53.5t16.5 -69.5q3 20 9 47t20 75l57 192h67l-122 -378v-289h-62v289l-130 378h67z" />
    <glyph glyph-name="uni04AF" unicode="&#x4af;" horiz-adv-x="292" 
d="M67 447l47 -172q8 -31 16 -59.5t17 -75.5q8 38 16 71.5t18 68.5l46 167h59l-110 -378v-249h-58v249l-110 378h59z" />
    <glyph glyph-name="uni04B0" unicode="&#x4b0;" horiz-adv-x="316" 
d="M68 667l62 -191q6 -18 15.5 -53.5t16.5 -69.5q3 20 9 47t20 75l57 192h67l-122 -378v-30h102v-54h-102v-205h-62v205h-102v54h102v30l-130 378h67z" />
    <glyph glyph-name="uni04B1" unicode="&#x4b1;" horiz-adv-x="292" 
d="M67 447l47 -172q8 -31 16 -59.5t17 -75.5q8 38 16 71.5t18 68.5l46 167h59l-110 -370v-25h75v-52h-75v-180h-58v180h-75v52h75v25l-110 370h59z" />
    <glyph glyph-name="uni04B2" unicode="&#x4b2;" horiz-adv-x="340" 
d="M1 667h67l59 -165q11 -29 19 -58t13 -59q5 29 13.5 57t18.5 56l60 169h66l-127 -328l104 -282h42v-187h-62v130h-23l-66 189q-17 49 -26 95q-5 -25 -12.5 -49t-15.5 -48l-63 -187h-67l130 339z" />
    <glyph glyph-name="uni04B3" unicode="&#x4b3;" horiz-adv-x="300" 
d="M7 0l103 229l-92 218h62q17 -47 34.5 -93.5t28.5 -95.5q10 50 29 96t37 93h63l-100 -218l77 -177h47v-156h-53v104h-34l-49 127q-6 17 -12 33t-10 33q-3 -17 -8.5 -33.5t-11.5 -33.5l-48 -126h-63z" />
    <glyph glyph-name="uni04B6" unicode="&#x4b6;" horiz-adv-x="388" 
d="M108 667v-169q0 -28 2 -49t11 -35t26.5 -21t48.5 -7q33 0 62 7v274h62v-610h54v-187h-62v130h-54v337q-17 -4 -35 -6t-39 -2q-43 0 -70 10.5t-42.5 31t-21 51t-5.5 69.5v176h63z" />
    <glyph glyph-name="uni04B7" unicode="&#x4b7;" horiz-adv-x="319" 
d="M86 447v-123q0 -35 12.5 -52t50.5 -17q19 0 34 3t20 5v184h56v-395h50v-156h-56v104h-50v211q-27 -9 -62 -9q-65 0 -88 33.5t-23 94.5v117h56z" />
    <glyph glyph-name="uni04B8" unicode="&#x4b8;" horiz-adv-x="389" 
d="M176 330q-41 0 -66.5 11.5t-40 32.5t-19.5 50.5t-5 66.5v176h63v-171q0 -20 1 -39.5t7.5 -35t20.5 -25t39 -9.5v141h56v-141q22 0 41 6v274h62v-667h-62v337q-9 -2 -19.5 -4t-21.5 -2v-152h-56v151z" />
    <glyph glyph-name="uni04B9" unicode="&#x4b9;" horiz-adv-x="316" 
d="M131 204q-56 0 -78.5 32.5t-22.5 84.5v126h56v-123q0 -26 8 -45t37 -21v95h48v-96q15 0 31 6v184h56v-447h-56v211q-12 -5 -31 -7v-105h-48v105z" />
    <glyph glyph-name="uni04BA" unicode="&#x4ba;" horiz-adv-x="374" 
d="M55 667h62v-276q27 9 48 11.5t30 2.5q25 0 52.5 -6.5t46.5 -21.5q28 -22 34 -56.5t6 -77.5v-243h-63v236q0 26 -2 46.5t-10.5 35t-25.5 22.5t-47 8q-21 0 -38 -4.5t-31 -12.5v-331h-62v667z" />
    <glyph glyph-name="uni04BB" unicode="&#x4bb;" horiz-adv-x="330" 
d="M106 729v-318q17 19 39 31t48 12q27 0 44 -9t26.5 -25t13 -36.5t3.5 -44.5v-339h-56v321q0 14 -0.5 29.5t-5 28t-15 21t-29.5 8.5q-22 0 -35.5 -10t-21 -26t-9.5 -35t-2 -36v-301h-56v729h56z" />
    <glyph glyph-name="uni04C0" unicode="&#x4c0;" horiz-adv-x="157" 
d="M50 0v667h57v-667h-57z" />
    <glyph glyph-name="uni04C1" unicode="&#x4c1;" horiz-adv-x="466" 
d="M167 806q7 -25 24 -37t42 -12q51 0 66 49l53 -22q-13 -42 -45 -61.5t-74 -19.5q-40 0 -74 19.5t-45 61.5zM4 0l143 349l-138 318h65l128 -303v303h62v-303l128 303h65l-138 -318l143 -349h-66l-132 336v-336h-62v336l-132 -336h-66z" />
    <glyph glyph-name="uni04C2" unicode="&#x4c2;" horiz-adv-x="421" 
d="M319 574q-13 -37 -41 -55.5t-66 -18.5t-66 18.5t-41 55.5l47 23q4 -25 21 -36t40 -11q48 0 59 47zM354 0l-115 205v-205h-57v205l-115 -205h-65l135 233l-127 214h61l111 -195v195h57v-195l111 195h61l-127 -214l135 -233h-65z" />
    <glyph glyph-name="uni04C3" unicode="&#x4c3;" horiz-adv-x="373" 
d="M117 667v-303l138 303h69l-126 -266q30 0 53.5 -10.5t39.5 -24.5q20 -18 30.5 -41.5t15 -51t5.5 -58t1 -61.5v-83q0 -36 -3 -76.5t-16.5 -75t-39.5 -57t-73 -22.5q-21 0 -38 5t-32 13l19 59q22 -17 46 -17q13 0 24 3.5t21 14.5q20 23 24.5 63.5t4.5 83.5v87
q0 60 -5.5 103t-28.5 66q-7 7 -22.5 15t-42.5 8q-23 0 -40.5 -5.5t-23.5 -7.5v-331h-62v667h62z" />
    <glyph glyph-name="uni04C4" unicode="&#x4c4;" horiz-adv-x="292" 
d="M50 0v447h56v-195l119 195h65l-121 -193q34 -6 54.5 -25t32 -45t15 -56t3.5 -60q0 -38 -6 -77.5t-21.5 -74t-42.5 -60.5t-69 -36v63q25 4 40.5 23.5t24 45.5t11.5 54t3 47q0 34 -3 57.5t-7 38.5t-9 23t-9 12q-9 9 -26 15t-42 6h-12v-205h-56z" />
    <glyph glyph-name="uni04C7" unicode="&#x4c7;" horiz-adv-x="385" 
d="M55 0v667h62v-266h152v266h62v-741q0 -24 -4.5 -44t-15.5 -33.5t-29.5 -21t-46.5 -7.5q-20 0 -37.5 5t-34.5 13v64q14 -12 28.5 -20t33.5 -8q15 0 24 6t13.5 16.5t5.5 25t1 31.5v391h-152v-344h-62z" />
    <glyph glyph-name="uni04C8" unicode="&#x4c8;" horiz-adv-x="330" 
d="M50 0v447h56v-186h118v186h56v-489q0 -24 -3.5 -48.5t-14 -44.5t-29 -32.5t-47.5 -12.5q-11 0 -21 2t-22 8v57q11 -8 19 -9.5t16 -1.5q6 0 14 1.5t15 6.5q13 10 15 33t2 41v251h-118v-209h-56z" />
    <glyph glyph-name="uni04D0" unicode="&#x4d0;" horiz-adv-x="325" 
d="M163 703q-40 0 -74 19.5t-45 61.5l53 22q7 -25 24 -37t42 -12q51 0 66 49l53 -22q-13 -42 -45 -61.5t-74 -19.5zM1 0l132 667h58l133 -667h-66l-25 137h-141l-25 -137h-66zM223 191l-44 235q-8 39 -12.5 78t-6.5 79q-7 -100 -24 -197t-34 -195h121z" />
    <glyph glyph-name="uni04D1" unicode="&#x4d1;" horiz-adv-x="327" 
d="M97 597q4 -25 21 -36t40 -11q48 0 59 47l47 -23q-13 -37 -41 -55.5t-66 -18.5t-66 18.5t-41 55.5zM39 215q0 34 2 75.5t12.5 78t33 61t62.5 24.5q24 0 40 -9t31 -28v30h57v-447h-57v36q-15 -20 -32.5 -31.5t-43.5 -11.5q-38 0 -59.5 23.5t-31.5 58t-12 72.5t-2 68z
M97 250q0 -28 0.5 -54.5t2.5 -53.5q1 -15 3.5 -32.5t9 -33.5t18.5 -26.5t31 -10.5q22 0 36 15q10 11 15.5 33.5t8.5 48.5t3.5 50.5t0.5 39.5q0 33 -1.5 66t-8 59t-19 42t-34.5 16q-24 0 -37.5 -18.5t-20 -44t-7.5 -52.5t-1 -44z" />
    <glyph glyph-name="uni04D2" unicode="&#x4d2;" horiz-adv-x="325" 
d="M184 764q0 18 12.5 30.5t30.5 12.5t30.5 -12.5t12.5 -30.5t-12.5 -31t-30.5 -13t-30.5 13t-12.5 31zM99 720q-18 0 -30.5 13t-12.5 31t12.5 30.5t30.5 12.5t30.5 -12.5t12.5 -30.5t-12.5 -31t-30.5 -13zM1 0l132 667h58l133 -667h-66l-25 137h-141l-25 -137h-66zM223 191
l-44 235q-8 39 -12.5 78t-6.5 79q-7 -100 -24 -197t-34 -195h121z" />
    <glyph glyph-name="uni04D3" unicode="&#x4d3;" horiz-adv-x="327" 
d="M187 557q0 18 12.5 30.5t30.5 12.5t30.5 -12.5t12.5 -30.5t-12.5 -31t-30.5 -13t-30.5 13t-12.5 31zM59 557q0 18 12.5 30.5t30.5 12.5t30.5 -12.5t12.5 -30.5t-12.5 -31t-30.5 -13t-30.5 13t-12.5 31zM39 215q0 34 2 75.5t12.5 78t33 61t62.5 24.5q24 0 40 -9t31 -28v30
h57v-447h-57v36q-15 -20 -32.5 -31.5t-43.5 -11.5q-38 0 -59.5 23.5t-31.5 58t-12 72.5t-2 68zM97 250q0 -28 0.5 -54.5t2.5 -53.5q1 -15 3.5 -32.5t9 -33.5t18.5 -26.5t31 -10.5q22 0 36 15q10 11 15.5 33.5t8.5 48.5t3.5 50.5t0.5 39.5q0 33 -1.5 66t-8 59t-19 42
t-34.5 16q-24 0 -37.5 -18.5t-20 -44t-7.5 -52.5t-1 -44z" />
    <glyph glyph-name="uni04D4" unicode="&#x4d4;" horiz-adv-x="462" 
d="M132 667h222l11 -57h-143l42 -235h135l11 -57h-136l47 -261h141l9 -57h-207l-22 137h-151l-24 -137h-66zM101 190h132l-47 282q-5 31 -9 61.5t-6 61.5q-2 -8 -2.5 -15.5t-2.5 -15.5l-9 -60q-2 -8 -2.5 -15.5t-2.5 -15.5z" />
    <glyph glyph-name="uni04D5" unicode="&#x4d5;" horiz-adv-x="508" 
d="M33 150q0 27 6 53.5t19 47.5t34.5 34t52.5 13q23 0 44.5 -9.5t35.5 -27.5v13q0 22 -3.5 45t-13 41.5t-26.5 30t-44 11.5q-23 0 -42 -11t-36 -25v62q37 26 81 26q40 0 68.5 -19.5t45.5 -55.5q12 29 37 52t59 23q42 0 66.5 -26t37 -63.5t16 -78.5t3.5 -72h-197
q0 -18 2.5 -47t10.5 -56t23.5 -46.5t41.5 -19.5q20 0 31.5 11.5t17.5 28.5t8.5 36t2.5 34h53q-1 -26 -7.5 -54.5t-20 -52.5t-35.5 -39.5t-53 -15.5q-37 0 -60 22t-37 52q-14 -33 -42.5 -53.5t-65.5 -20.5q-32 0 -53.5 14.5t-35 37t-19.5 50.5t-6 55zM418 261q0 17 -3 41
t-10.5 46t-21.5 38t-36 16q-21 0 -34 -16.5t-20.5 -39t-10.5 -46.5t-3 -39h139zM155 252q-21 0 -34 -9.5t-20.5 -24.5t-10 -33t-2.5 -35q0 -16 2.5 -34.5t10 -34t20.5 -25.5t34 -10q20 0 34 9.5t22 23.5t11.5 32t3.5 34q0 17 -3 36t-11 34.5t-22 26t-35 10.5z" />
    <glyph glyph-name="uni04D6" unicode="&#x4d6;" horiz-adv-x="301" 
d="M93 806q7 -25 24 -37t42 -12q51 0 66 49l53 -22q-13 -42 -45 -61.5t-74 -19.5q-40 0 -74 19.5t-45 61.5zM55 667h208v-57h-146v-235h142v-57h-142v-261h146v-57h-208v667z" />
    <glyph glyph-name="uni04D7" unicode="&#x4d7;" horiz-adv-x="313" 
d="M97 597q4 -25 21 -36t40 -11q48 0 59 47l47 -23q-13 -37 -41 -55.5t-66 -18.5t-66 18.5t-41 55.5zM163 -7q-43 0 -69 23.5t-39.5 58.5t-17.5 75t-4 72q0 30 4.5 70t18 76t38 61t65.5 25t64.5 -23.5t36.5 -57t16.5 -72t3.5 -68.5l-1 -14v-7h-189v-10q0 -17 2 -43.5
t9.5 -51.5t21.5 -43t38 -18q19 0 30 11t17 27.5t8.5 35t2.5 32.5h57q-1 -27 -6.5 -55t-18 -51.5t-34 -38t-54.5 -14.5zM160 402q-22 0 -35 -16.5t-20.5 -39t-10 -47t-3.5 -39.5h133q-1 15 -3 39t-8.5 47t-19 39.5t-33.5 16.5z" />
    <glyph glyph-name="uni04D8" unicode="&#x4d8;" horiz-adv-x="374" 
d="M38 545q6 27 20 54.5t31 44.5q21 21 42.5 26.5t42.5 5.5q40 0 68 -16t46 -42.5t27.5 -61t14 -70.5t5.5 -71.5t1 -64.5q0 -50 -1.5 -92t-6.5 -87q-4 -35 -12.5 -67.5t-25 -57.5t-43 -40t-67.5 -15q-49 0 -77.5 22t-42.5 56t-18 75t-4 80v128h235v21q0 24 -1.5 65t-11 80.5
t-29.5 68.5t-57 29q-19 0 -32 -9t-22 -23t-14 -30.5t-7 -32.5zM100 295v-85q0 -45 5 -82t25 -57t50 -20q31 0 51 18q15 14 23.5 43.5t12.5 63.5t4.5 66.5t0.5 52.5h-172z" />
    <glyph glyph-name="uni04D9" unicode="&#x4d9;" horiz-adv-x="315" 
d="M86 22q-16 17 -27 42t-16.5 54.5t-7 59.5t0.5 57h189v10q0 18 -2 45t-9 51.5t-21.5 42t-40.5 17.5q-18 0 -29.5 -10t-19 -24t-11 -30.5t-5.5 -30.5l-54 22q4 24 13 46.5t23.5 40t35 28.5t46.5 11q42 0 68 -22.5t40 -56.5t18.5 -72.5t4.5 -71.5q0 -31 -4 -72.5t-17.5 -78
t-38.5 -62t-68 -25.5q-24 0 -40.5 9t-27.5 20zM91 187q0 -15 2.5 -39t9 -47t19 -39.5t33.5 -16.5q22 0 35 16.5t20.5 39t10.5 47t3 39.5h-133z" />
    <glyph glyph-name="uni04DA" unicode="&#x4da;" horiz-adv-x="374" 
d="M196 764q0 18 12.5 30.5t30.5 12.5t30.5 -12.5t12.5 -30.5t-12.5 -31t-30.5 -13t-30.5 13t-12.5 31zM68 764q0 18 12.5 30.5t30.5 12.5t30.5 -12.5t12.5 -30.5t-12.5 -31t-30.5 -13t-30.5 13t-12.5 31zM38 545q6 27 20 54.5t31 44.5q21 21 42.5 26.5t42.5 5.5
q40 0 68 -16t46 -42.5t27.5 -61t14 -70.5t5.5 -71.5t1 -64.5q0 -50 -1.5 -92t-6.5 -87q-4 -35 -12.5 -67.5t-25 -57.5t-43 -40t-67.5 -15q-49 0 -77.5 22t-42.5 56t-18 75t-4 80v128h235v21q0 24 -1.5 65t-11 80.5t-29.5 68.5t-57 29q-19 0 -32 -9t-22 -23t-14 -30.5
t-7 -32.5zM100 295v-85q0 -45 5 -82t25 -57t50 -20q31 0 51 18q15 14 23.5 43.5t12.5 63.5t4.5 66.5t0.5 52.5h-172z" />
    <glyph glyph-name="uni04DB" unicode="&#x4db;" horiz-adv-x="315" 
d="M219 513q-18 0 -30.5 13t-12.5 31t12.5 30.5t30.5 12.5t30.5 -12.5t12.5 -30.5t-12.5 -31t-30.5 -13zM48 557q0 18 12.5 30.5t30.5 12.5t30.5 -12.5t12.5 -30.5t-12.5 -31t-30.5 -13t-30.5 13t-12.5 31zM86 22q-16 17 -27 42t-16.5 54.5t-7 59.5t0.5 57h189v10
q0 18 -2 45t-9 51.5t-21.5 42t-40.5 17.5q-18 0 -29.5 -10t-19 -24t-11 -30.5t-5.5 -30.5l-54 22q4 24 13 46.5t23.5 40t35 28.5t46.5 11q42 0 68 -22.5t40 -56.5t18.5 -72.5t4.5 -71.5q0 -31 -4 -72.5t-17.5 -78t-38.5 -62t-68 -25.5q-24 0 -40.5 9t-27.5 20zM91 187
q0 -15 2.5 -39t9 -47t19 -39.5t33.5 -16.5q22 0 35 16.5t20.5 39t10.5 47t3 39.5h-133z" />
    <glyph glyph-name="uni04DC" unicode="&#x4dc;" horiz-adv-x="466" 
d="M254 764q0 18 12.5 30.5t30.5 12.5t30.5 -12.5t12.5 -30.5t-12.5 -31t-30.5 -13t-30.5 13t-12.5 31zM126 764q0 18 12.5 30.5t30.5 12.5t30.5 -12.5t12.5 -30.5t-12.5 -31t-30.5 -13t-30.5 13t-12.5 31zM4 0l143 349l-138 318h65l128 -303v303h62v-303l128 303h65
l-138 -318l143 -349h-66l-132 336v-336h-62v336l-132 -336h-66z" />
    <glyph glyph-name="uni04DD" unicode="&#x4dd;" horiz-adv-x="421" 
d="M321 557q0 -18 -12.5 -31t-30.5 -13t-30.5 13t-12.5 31t12.5 30.5t30.5 12.5t30.5 -12.5t12.5 -30.5zM193 557q0 -18 -12.5 -31t-30.5 -13t-30.5 13t-12.5 31t12.5 30.5t30.5 12.5t30.5 -12.5t12.5 -30.5zM354 0l-115 205v-205h-57v205l-115 -205h-65l135 233l-127 214
h61l111 -195v195h57v-195l111 195h61l-127 -214l135 -233h-65z" />
    <glyph glyph-name="uni04DE" unicode="&#x4de;" horiz-adv-x="349" 
d="M214 720q-18 0 -30.5 13t-12.5 31t12.5 30.5t30.5 12.5t30.5 -12.5t12.5 -30.5t-12.5 -31t-30.5 -13zM43 764q0 18 12.5 30.5t30.5 12.5t30.5 -12.5t12.5 -30.5t-12.5 -31t-30.5 -13t-30.5 13t-12.5 31zM146 -9q-26 0 -56 7t-60 30v87q16 -24 43.5 -43t65.5 -19
q29 0 49.5 11.5t33.5 30t19 43t6 50.5q0 125 -126 125h-20v57h17q57 0 83 31.5t26 86.5q0 24 -4.5 46.5t-15.5 40t-29.5 28.5t-45.5 11q-32 0 -54.5 -16t-39.5 -41v85q12 9 38 21.5t66 12.5q39 0 67 -13.5t46.5 -37.5t27.5 -55.5t9 -67.5q0 -25 -3.5 -48.5t-12.5 -43.5
t-25 -36.5t-41 -26.5q28 -4 48 -18t32.5 -34t18.5 -44.5t6 -50.5q0 -41 -9.5 -79t-29.5 -67t-52.5 -46t-77.5 -17z" />
    <glyph glyph-name="uni04DF" unicode="&#x4df;" horiz-adv-x="279" 
d="M194 513q-18 0 -30.5 13t-12.5 31t12.5 30.5t30.5 12.5t30.5 -12.5t12.5 -30.5t-12.5 -31t-30.5 -13zM23 557q0 18 12.5 30.5t30.5 12.5t30.5 -12.5t12.5 -30.5t-12.5 -31t-30.5 -13t-30.5 13t-12.5 31zM30 100q16 -22 36.5 -38t49.5 -16q35 0 55.5 20.5t20.5 55.5
q0 45 -24 61.5t-66 16.5h-17v54h19q36 0 56.5 16.5t20.5 54.5q0 32 -15.5 54t-50.5 22q-27 0 -46.5 -17t-33.5 -38v72q23 23 45.5 29.5t41.5 6.5q56 0 86 -33.5t30 -87.5q0 -36 -14 -61.5t-48 -40.5q39 -11 58.5 -39t19.5 -69q0 -58 -36.5 -94t-93.5 -36q-22 0 -45.5 6.5
t-48.5 28.5v72z" />
    <glyph glyph-name="uni04E2" unicode="&#x4e2;" horiz-adv-x="393" 
d="M85 727v55h224v-55h-224zM55 667h62v-452q0 -17 -1.5 -36.5t-4.5 -47.5q5 18 8.5 29.5t6 20.5t4.5 16t5 15l142 455h62v-667h-62v431q0 26 2 55.5t4 49.5q-6 -24 -10 -39t-7 -24.5t-5 -16t-5 -14.5l-139 -442h-62v667z" />
    <glyph glyph-name="uni04E3" unicode="&#x4e3;" horiz-adv-x="336" 
d="M282 575v-55h-224v55h224zM50 447h56v-276v-31t-2 -38q4 15 7 25t5 16.5t4 12t5 12.5l105 279h56v-447h-56v278v18t2 46q-5 -21 -10 -36.5t-11 -30.5l-105 -275h-56v447z" />
    <glyph glyph-name="uni04E4" unicode="&#x4e4;" horiz-adv-x="393" 
d="M218 764q0 18 12.5 30.5t30.5 12.5t30.5 -12.5t12.5 -30.5t-12.5 -31t-30.5 -13t-30.5 13t-12.5 31zM90 764q0 18 12.5 30.5t30.5 12.5t30.5 -12.5t12.5 -30.5t-12.5 -31t-30.5 -13t-30.5 13t-12.5 31zM117 667v-452q0 -17 -1.5 -36.5t-4.5 -47.5q5 18 8.5 29.5t6 20.5
t4.5 16t5 15l142 455h62v-667h-62v431q0 26 2 55.5t4 49.5q-6 -24 -10 -39t-7 -24.5t-5 -16t-5 -14.5l-139 -442h-62v667h62z" />
    <glyph glyph-name="uni04E5" unicode="&#x4e5;" horiz-adv-x="336" 
d="M191 557q0 18 12.5 30.5t30.5 12.5t30.5 -12.5t12.5 -30.5t-12.5 -31t-30.5 -13t-30.5 13t-12.5 31zM63 557q0 18 12.5 30.5t30.5 12.5t30.5 -12.5t12.5 -30.5t-12.5 -31t-30.5 -13t-30.5 13t-12.5 31zM106 447v-276v-31t-2 -38q4 15 7 25t5 16.5t4 12t5 12.5l105 279h56
v-447h-56v278v18t2 46q-5 -21 -10 -36.5t-11 -30.5l-105 -275h-56v447h56z" />
    <glyph glyph-name="uni04E6" unicode="&#x4e6;" horiz-adv-x="404" 
d="M223 764q0 18 12.5 30.5t30.5 12.5t30.5 -12.5t12.5 -30.5t-12.5 -31t-30.5 -13t-30.5 13t-12.5 31zM95 764q0 18 12.5 30.5t30.5 12.5t30.5 -12.5t12.5 -30.5t-12.5 -31t-30.5 -13t-30.5 13t-12.5 31zM38 333q0 28 1.5 64t7 74t16 75t28.5 65.5t45.5 46.5t65.5 18
q39 0 66.5 -17.5t46 -46t28.5 -64.5t15.5 -74t6.5 -74t1 -64t-1 -64.5t-6 -75t-15 -75t-28 -65.5t-45.5 -47t-67.5 -18q-39 0 -66.5 17.5t-45.5 46.5t-29 65.5t-16 74.5t-6.5 74t-1.5 64zM203 616q-26 0 -43.5 -16t-29 -41.5t-17.5 -57t-8.5 -63t-3 -59t-0.5 -45.5
q0 -17 0.5 -45t3 -59.5t8.5 -63.5t17.5 -57.5t29 -41.5t43.5 -16q28 0 45.5 16t27.5 40t14.5 51t6.5 48q6 75 6 152q0 17 -0.5 42.5t-3.5 54.5t-9 57.5t-17 51.5t-28 37.5t-42 14.5z" />
    <glyph glyph-name="uni04E7" unicode="&#x4e7;" horiz-adv-x="323" 
d="M228 513q-18 0 -30.5 13t-12.5 31t12.5 30.5t30.5 12.5t30.5 -12.5t12.5 -30.5t-12.5 -31t-30.5 -13zM100 513q-18 0 -30.5 13t-12.5 31t12.5 30.5t30.5 12.5t30.5 -12.5t12.5 -30.5t-12.5 -31t-30.5 -13zM164 -7q-43 0 -69 24t-39.5 59t-18 75t-4.5 73t4.5 73t18 75
t39.5 58.5t69 23.5q44 0 68.5 -24.5t37.5 -60t16 -76t3 -72.5t-3.5 -71.5t-16 -74.5t-37.5 -58.5t-68 -23.5zM92 219q0 -18 1.5 -47t8.5 -57t21.5 -48.5t39.5 -20.5t38.5 21.5t20 50.5t8 59t1.5 47t-1.5 47t-8 59t-20 50.5t-38.5 21.5q-26 0 -40.5 -22t-21 -52t-8 -60.5
t-1.5 -48.5z" />
    <glyph glyph-name="uni04E8" unicode="&#x4e8;" horiz-adv-x="404" 
d="M202 -9q-39 0 -67 17.5t-46 46.5t-28.5 66t-15.5 75t-6 74t-1 64t1 64t6 74t15.5 74.5t28.5 65.5t46 46.5t67 17.5q40 0 67.5 -17.5t45.5 -46.5t28.5 -65.5t15.5 -74.5t6 -74t1 -64t-1 -64t-6 -74t-15.5 -75t-28.5 -66t-45.5 -46.5t-67.5 -17.5zM303 383q0 16 -1 39.5
t-4.5 49.5t-10 52t-17.5 46.5t-28 33t-40 12.5q-35 0 -55 -27.5t-30.5 -65t-13 -77t-2.5 -63.5h202zM101 326q0 -9 -0.5 -41.5t4 -72.5t15 -79t31.5 -60q10 -10 22 -16t29 -6t29 6t22 16q18 18 28.5 51t16 70t6 72.5t-0.5 59.5h-202z" />
    <glyph glyph-name="uni04E9" unicode="&#x4e9;" horiz-adv-x="323" 
d="M161 -7q-45 0 -70.5 23.5t-38.5 58.5t-16 75t-3 74t3.5 74t16 74.5t38 58t70.5 23.5t70.5 -23.5t38 -58t16 -74.5t3.5 -74t-3 -74t-16 -75t-38.5 -58.5t-70.5 -23.5zM161 402q-22 0 -35.5 -16t-20.5 -38.5t-9.5 -46.5t-3.5 -40h138q-1 16 -3.5 40t-9.5 46.5t-20.5 38.5
t-35.5 16zM91 209q0 -13 1 -34t5 -42.5t11.5 -41.5t18.5 -31q14 -14 34 -14q24 0 38 19t21 45.5t9 54t2 44.5h-140z" />
    <glyph glyph-name="uni04EA" unicode="&#x4ea;" horiz-adv-x="404" 
d="M223 764q0 18 12.5 30.5t30.5 12.5t30.5 -12.5t12.5 -30.5t-12.5 -31t-30.5 -13t-30.5 13t-12.5 31zM138 720q-18 0 -30.5 13t-12.5 31t12.5 30.5t30.5 12.5t30.5 -12.5t12.5 -30.5t-12.5 -31t-30.5 -13zM38 334q0 28 1 64t6 74t15.5 74.5t28.5 65.5t46 46.5t67 17.5
q40 0 67.5 -17.5t45.5 -46.5t28.5 -65.5t15.5 -74.5t6 -74t1 -64t-1 -64t-6 -74t-15.5 -75t-28.5 -66t-45.5 -46.5t-67.5 -17.5q-39 0 -67 17.5t-46 46.5t-28.5 66t-15.5 75t-6 74t-1 64zM202 616q-35 0 -55 -27.5t-30.5 -65t-13 -77t-2.5 -63.5h202q0 16 -1 39.5t-4.5 49.5
t-10 52t-17.5 46.5t-28 33t-40 12.5zM101 326q0 -9 -0.5 -41.5t4 -72.5t15 -79t31.5 -60q10 -10 22 -16t29 -6t29 6t22 16q18 18 28.5 51t16 70t6 72.5t-0.5 59.5h-202z" />
    <glyph glyph-name="uni04EB" unicode="&#x4eb;" horiz-adv-x="323" 
d="M228 513q-18 0 -30.5 13t-12.5 31t12.5 30.5t30.5 12.5t30.5 -12.5t12.5 -30.5t-12.5 -31t-30.5 -13zM100 513q-18 0 -30.5 13t-12.5 31t12.5 30.5t30.5 12.5t30.5 -12.5t12.5 -30.5t-12.5 -31t-30.5 -13zM33 224q0 34 3.5 74t16 74.5t38 58t70.5 23.5t70.5 -23.5t38 -58
t16 -74.5t3.5 -74t-3 -74t-16 -75t-38.5 -58.5t-70.5 -23.5t-70.5 23.5t-38.5 58.5t-16 75t-3 74zM161 402q-22 0 -35.5 -16t-20.5 -38.5t-9.5 -46.5t-3.5 -40h138q-1 16 -3.5 40t-9.5 46.5t-20.5 38.5t-35.5 16zM91 209q0 -13 1 -34t5 -42.5t11.5 -41.5t18.5 -31
q14 -14 34 -14q24 0 38 19t21 45.5t9 54t2 44.5h-140z" />
    <glyph glyph-name="uni04EE" unicode="&#x4ee;" horiz-adv-x="341" 
d="M287 782v-55h-224v55h224zM76 667l64 -211q6 -18 10.5 -34t9 -32.5t9.5 -35t10 -41.5q8 44 16 76.5t18 68.5l56 209h64l-188 -667h-62l64 224l-139 443h68z" />
    <glyph glyph-name="uni04EF" unicode="&#x4ef;" horiz-adv-x="289" 
d="M35 520v55h224v-55h-224zM7 447h57l56 -248q6 -28 11.5 -56t9.5 -56q3 21 8 41.5t10 42.5l65 276h59l-160 -627h-60l50 192z" />
    <glyph glyph-name="uni04F0" unicode="&#x4f0;" horiz-adv-x="341" 
d="M201 764q0 18 12.5 30.5t30.5 12.5t30.5 -12.5t12.5 -30.5t-12.5 -31t-30.5 -13t-30.5 13t-12.5 31zM73 764q0 18 12.5 30.5t30.5 12.5t30.5 -12.5t12.5 -30.5t-12.5 -31t-30.5 -13t-30.5 13t-12.5 31zM8 667h68l64 -211q6 -18 10.5 -34t9 -32.5t9.5 -35t10 -41.5
q8 44 16 76.5t18 68.5l56 209h64l-188 -667h-62l64 224z" />
    <glyph glyph-name="uni04F1" unicode="&#x4f1;" horiz-adv-x="289" 
d="M218 513q-18 0 -30.5 13t-12.5 31t12.5 30.5t30.5 12.5t30.5 -12.5t12.5 -30.5t-12.5 -31t-30.5 -13zM90 513q-18 0 -30.5 13t-12.5 31t12.5 30.5t30.5 12.5t30.5 -12.5t12.5 -30.5t-12.5 -31t-30.5 -13zM7 447h57l56 -248q6 -28 11.5 -56t9.5 -56q3 21 8 41.5t10 42.5
l65 276h59l-160 -627h-60l50 192z" />
    <glyph glyph-name="uni04F2" unicode="&#x4f2;" horiz-adv-x="341" 
d="M242 852l56 -22l-70 -116l-37 13zM89 727l50 125l56 -22l-69 -116zM76 667l64 -211q6 -18 10.5 -34t9 -32.5t9.5 -35t10 -41.5q8 44 16 76.5t18 68.5l56 209h64l-188 -667h-62l64 224l-139 443h68z" />
    <glyph glyph-name="uni04F3" unicode="&#x4f3;" horiz-adv-x="289" 
d="M218 645l56 -22l-70 -116l-37 13zM115 645l56 -22l-69 -116l-37 13zM64 447l56 -248q6 -28 11.5 -56t9.5 -56q3 21 8 41.5t10 42.5l65 276h59l-160 -627h-60l50 192l-106 435h57z" />
    <glyph glyph-name="uni04F4" unicode="&#x4f4;" horiz-adv-x="374" 
d="M208 764q0 18 12.5 30.5t30.5 12.5t30.5 -12.5t12.5 -30.5t-12.5 -31t-30.5 -13t-30.5 13t-12.5 31zM123 720q-18 0 -30.5 13t-12.5 31t12.5 30.5t30.5 12.5t30.5 -12.5t12.5 -30.5t-12.5 -31t-30.5 -13zM108 667v-169q0 -28 2 -49t11 -35t26.5 -21t48.5 -7q33 0 62 7
v274h62v-667h-62v337q-17 -4 -35 -6t-39 -2q-43 0 -70 10.5t-42.5 31t-21 51t-5.5 69.5v176h63z" />
    <glyph glyph-name="uni04F5" unicode="&#x4f5;" horiz-adv-x="308" 
d="M209 513q-18 0 -30.5 13t-12.5 31t12.5 30.5t30.5 12.5t30.5 -12.5t12.5 -30.5t-12.5 -31t-30.5 -13zM81 513q-18 0 -30.5 13t-12.5 31t12.5 30.5t30.5 12.5t30.5 -12.5t12.5 -30.5t-12.5 -31t-30.5 -13zM86 447v-123q0 -35 12.5 -52t50.5 -17q18 0 33 3t20 5v184h56
v-447h-56v211q-27 -9 -61 -9q-66 0 -88.5 33t-22.5 95v117h56z" />
    <glyph glyph-name="uni04F8" unicode="&#x4f8;" horiz-adv-x="483" 
d="M263 764q0 18 12.5 30.5t30.5 12.5t30.5 -12.5t12.5 -30.5t-12.5 -31t-30.5 -13t-30.5 13t-12.5 31zM178 720q-18 0 -30.5 13t-12.5 31t12.5 30.5t30.5 12.5t30.5 -12.5t12.5 -30.5t-12.5 -31t-30.5 -13zM55 0v667h62v-289h37q44 0 75 -14t50.5 -39t28.5 -60t9 -76
q0 -46 -11 -90t-45 -71q-26 -20 -53 -24t-54 -4h-99zM429 667v-667h-62v667h62zM117 53h33q31 0 51 9t31.5 25.5t16 40t4.5 51.5q0 29 -4 54.5t-16 45t-32.5 31t-53.5 11.5h-30v-268z" />
    <glyph glyph-name="uni04F9" unicode="&#x4f9;" horiz-adv-x="425" 
d="M279 513q-18 0 -30.5 13t-12.5 31t12.5 30.5t30.5 12.5t30.5 -12.5t12.5 -30.5t-12.5 -31t-30.5 -13zM151 513q-18 0 -30.5 13t-12.5 31t12.5 30.5t30.5 12.5t30.5 -12.5t12.5 -30.5t-12.5 -31t-30.5 -13zM50 0v447h56v-171h20q148 0 148 -146q0 -130 -128 -130h-96z
M375 447v-447h-56v447h56zM106 226v-174h32q45 0 62 19.5t17 64.5q0 42 -21 66t-65 24h-25z" />
    <glyph glyph-name="Germandbls" unicode="&#x1e9e;" horiz-adv-x="359" 
d="M55 510q0 31 6.5 61t21.5 53t39.5 37.5t60.5 14.5q33 0 57 -11t39.5 -30t23.5 -45.5t10 -56.5v-26l-86 -113q31 -8 50 -28t29.5 -46t14.5 -55.5t4 -56.5q0 -18 -1 -40.5t-5.5 -45.5t-12 -44t-21.5 -37q-23 -26 -47.5 -33.5t-62.5 -7.5h-6v53h5q20 0 34 3.5t25 15.5
q10 12 15.5 28t8.5 34.5t3.5 38t0.5 37.5q0 21 -1.5 46t-9.5 46t-23.5 35t-44.5 14h-13v45l79 112v24q0 16 -2.5 32t-9.5 29t-19.5 21t-32.5 8q-22 0 -35 -10t-20 -26t-9.5 -34.5t-2.5 -35.5v-516h-62v510z" />
    <glyph glyph-name="uni1EA0" unicode="&#x1ea0;" horiz-adv-x="325" 
d="M133 667h58l133 -667h-66l-25 137h-141l-25 -137h-66zM223 191l-44 235q-8 39 -12.5 78t-6.5 79q-7 -100 -24 -197t-34 -195h121zM123 -88q0 17 10.5 28t27.5 11q16 0 26.5 -11.5t10.5 -27.5q0 -15 -10.5 -26t-26.5 -11t-27 11t-11 26z" />
    <glyph glyph-name="uni1EA1" unicode="&#x1ea1;" horiz-adv-x="327" 
d="M144 -7q-38 0 -59.5 23.5t-31.5 58t-12 72.5t-2 68q0 34 2 75.5t12.5 78t33 61t62.5 24.5q24 0 40 -9t31 -28v30h57v-447h-57v36q-15 -20 -32.5 -31.5t-43.5 -11.5zM97 250q0 -28 0.5 -54.5t2.5 -53.5q1 -15 3.5 -32.5t9 -33.5t18.5 -26.5t31 -10.5q22 0 36 15
q10 11 15.5 33.5t8.5 48.5t3.5 50.5t0.5 39.5q0 33 -1.5 66t-8 59t-19 42t-34.5 16q-24 0 -37.5 -18.5t-20 -44t-7.5 -52.5t-1 -44zM161 -125q-16 0 -27 11t-11 26q0 17 10.5 28t27.5 11q16 0 26.5 -11.5t10.5 -27.5q0 -15 -10.5 -26t-26.5 -11z" />
    <glyph glyph-name="uni1EA2" unicode="&#x1ea2;" horiz-adv-x="325" 
d="M113 792q2 13 15 28.5t39 15.5t41 -17.5t14 -46.5q0 -18 -5 -29t-11.5 -17t-13.5 -8.5t-12 -4.5v-11h-33v45h2l5 -1q13 0 22 6t9 20t-5 20t-12 6q-8 0 -14.5 -4.5t-8.5 -17.5zM133 667h58l133 -667h-66l-25 137h-141l-25 -137h-66zM223 191l-44 235q-8 39 -12.5 78
t-6.5 79q-7 -100 -24 -197t-34 -195h121z" />
    <glyph glyph-name="uni1EA3" unicode="&#x1ea3;" horiz-adv-x="327" 
d="M122 572q2 13 15 28.5t39 15.5t41 -17.5t14 -46.5q0 -18 -5 -29t-11.5 -17t-13.5 -8.5t-12 -4.5v-11h-33v45h2l5 -1q13 0 22 6t9 20t-5 20t-12 6q-8 0 -14.5 -4.5t-8.5 -17.5zM39 215q0 34 2 75.5t12.5 78t33 61t62.5 24.5q24 0 40 -9t31 -28v30h57v-447h-57v36
q-15 -20 -32.5 -31.5t-43.5 -11.5q-38 0 -59.5 23.5t-31.5 58t-12 72.5t-2 68zM163 409q-24 0 -37.5 -18.5t-20 -44t-7.5 -52.5t-1 -44q0 -28 0.5 -54.5t2.5 -53.5q1 -15 3.5 -32.5t9 -33.5t18.5 -26.5t31 -10.5q22 0 36 15q10 11 15.5 33.5t8.5 48.5t3.5 50.5t0.5 39.5
q0 33 -1.5 66t-8 59t-19 42t-34.5 16z" />
    <glyph glyph-name="uni1EA4" unicode="&#x1ea4;" horiz-adv-x="325" 
d="M205 809l85 96l35 -34l-93 -88zM77 728l85 95l87 -95l-34 -27l-53 58l-53 -58zM133 667h58l133 -667h-66l-25 137h-141l-25 -137h-66zM223 191l-44 235q-8 39 -12.5 78t-6.5 79q-7 -100 -24 -197t-34 -195h121z" />
    <glyph glyph-name="uni1EA5" unicode="&#x1ea5;" horiz-adv-x="327" 
d="M210 589l85 96l35 -34l-93 -88zM82 508l85 95l87 -95l-34 -27l-53 58l-53 -58zM144 -7q-38 0 -59.5 23.5t-31.5 58t-12 72.5t-2 68q0 34 2 75.5t12.5 78t33 61t62.5 24.5q24 0 40 -9t31 -28v30h57v-447h-57v36q-15 -20 -32.5 -31.5t-43.5 -11.5zM163 409
q-24 0 -37.5 -18.5t-20 -44t-7.5 -52.5t-1 -44q0 -28 0.5 -54.5t2.5 -53.5q1 -15 3.5 -32.5t9 -33.5t18.5 -26.5t31 -10.5q22 0 36 15q10 11 15.5 33.5t8.5 48.5t3.5 50.5t0.5 39.5q0 33 -1.5 66t-8 59t-19 42t-34.5 16z" />
    <glyph glyph-name="uni1EA6" unicode="&#x1ea6;" horiz-adv-x="325" 
d="M146 871l35 34l85 -96l-27 -26zM77 728l85 95l87 -95l-34 -27l-53 58l-53 -58zM133 667h58l133 -667h-66l-25 137h-141l-25 -137h-66zM223 191l-44 235q-8 39 -12.5 78t-6.5 79q-7 -100 -24 -197t-34 -195h121z" />
    <glyph glyph-name="uni1EA7" unicode="&#x1ea7;" horiz-adv-x="327" 
d="M151 651l35 34l85 -96l-27 -26zM167 603l87 -95l-34 -27l-53 58l-53 -58l-32 27zM39 215q0 34 2 75.5t12.5 78t33 61t62.5 24.5q24 0 40 -9t31 -28v30h57v-447h-57v36q-15 -20 -32.5 -31.5t-43.5 -11.5q-38 0 -59.5 23.5t-31.5 58t-12 72.5t-2 68zM163 409
q-24 0 -37.5 -18.5t-20 -44t-7.5 -52.5t-1 -44q0 -28 0.5 -54.5t2.5 -53.5q1 -15 3.5 -32.5t9 -33.5t18.5 -26.5t31 -10.5q22 0 36 15q10 11 15.5 33.5t8.5 48.5t3.5 50.5t0.5 39.5q0 33 -1.5 66t-8 59t-19 42t-34.5 16z" />
    <glyph glyph-name="uni1EA8" unicode="&#x1ea8;" horiz-adv-x="325" 
d="M187 873q2 13 15 28.5t39 15.5t41 -17.5t14 -46.5q0 -18 -5 -29t-11.5 -17t-13.5 -8.5t-12 -4.5v-11h-33v45h2l5 -1q13 0 22 6t9 20t-5 20t-12 6q-8 0 -14.5 -4.5t-8.5 -17.5zM162 823l87 -95l-34 -27l-53 58l-53 -58l-32 27zM1 0l132 667h58l133 -667h-66l-25 137h-141
l-25 -137h-66zM223 191l-44 235q-8 39 -12.5 78t-6.5 79q-7 -100 -24 -197t-34 -195h121z" />
    <glyph glyph-name="uni1EA9" unicode="&#x1ea9;" horiz-adv-x="327" 
d="M192 653q2 13 15 28.5t39 15.5t41 -17.5t14 -46.5q0 -18 -5 -29t-11.5 -17t-13.5 -8.5t-12 -4.5v-11h-33v45h2l5 -1q13 0 22 6t9 20t-5 20t-12 6q-8 0 -14.5 -4.5t-8.5 -17.5zM167 603l87 -95l-34 -27l-53 58l-53 -58l-32 27zM39 215q0 34 2 75.5t12.5 78t33 61
t62.5 24.5q24 0 40 -9t31 -28v30h57v-447h-57v36q-15 -20 -32.5 -31.5t-43.5 -11.5q-38 0 -59.5 23.5t-31.5 58t-12 72.5t-2 68zM163 409q-24 0 -37.5 -18.5t-20 -44t-7.5 -52.5t-1 -44q0 -28 0.5 -54.5t2.5 -53.5q1 -15 3.5 -32.5t9 -33.5t18.5 -26.5t31 -10.5q22 0 36 15
q10 11 15.5 33.5t8.5 48.5t3.5 50.5t0.5 39.5q0 33 -1.5 66t-8 59t-19 42t-34.5 16z" />
    <glyph glyph-name="uni1EAA" unicode="&#x1eaa;" horiz-adv-x="325" 
d="M75 852q2 8 7 17.5t12.5 18t16.5 14t18 5.5q17 0 27 -5t17 -10.5t13 -10.5t15 -5q10 0 15.5 10.5t8.5 19.5l28 -20q-1 -9 -6 -18.5t-12.5 -17.5t-17 -13t-19.5 -5q-14 0 -23.5 5t-17 10.5t-13.5 10.5t-12 5q-8 0 -15 -9t-14 -21zM162 823l87 -95l-34 -27l-53 58l-53 -58
l-32 27zM1 0l132 667h58l133 -667h-66l-25 137h-141l-25 -137h-66zM223 191l-44 235q-8 39 -12.5 78t-6.5 79q-7 -100 -24 -197t-34 -195h121z" />
    <glyph glyph-name="uni1EAB" unicode="&#x1eab;" horiz-adv-x="327" 
d="M80 632q2 8 7 17.5t12.5 18t16.5 14t18 5.5q17 0 27 -5t17 -10.5t13 -10.5t15 -5q10 0 15.5 10.5t8.5 19.5l28 -20q-1 -9 -6 -18.5t-12.5 -17.5t-17 -13t-19.5 -5q-14 0 -23.5 5t-17 10.5t-13.5 10.5t-12 5q-8 0 -15 -9t-14 -21zM167 603l87 -95l-34 -27l-53 58l-53 -58
l-32 27zM144 -7q-38 0 -59.5 23.5t-31.5 58t-12 72.5t-2 68q0 34 2 75.5t12.5 78t33 61t62.5 24.5q24 0 40 -9t31 -28v30h57v-447h-57v36q-15 -20 -32.5 -31.5t-43.5 -11.5zM163 409q-24 0 -37.5 -18.5t-20 -44t-7.5 -52.5t-1 -44q0 -28 0.5 -54.5t2.5 -53.5
q1 -15 3.5 -32.5t9 -33.5t18.5 -26.5t31 -10.5q22 0 36 15q10 11 15.5 33.5t8.5 48.5t3.5 50.5t0.5 39.5q0 33 -1.5 66t-8 59t-19 42t-34.5 16z" />
    <glyph glyph-name="uni1EAC" unicode="&#x1eac;" horiz-adv-x="325" 
d="M162 823l87 -95l-34 -27l-53 58l-53 -58l-32 27zM133 667h58l133 -667h-66l-25 137h-141l-25 -137h-66zM223 191l-44 235q-8 39 -12.5 78t-6.5 79q-7 -100 -24 -197t-34 -195h121zM161 -125q-16 0 -27 11t-11 26q0 17 10.5 28t27.5 11q16 0 26.5 -11.5t10.5 -27.5
q0 -15 -10.5 -26t-26.5 -11z" />
    <glyph glyph-name="uni1EAD" unicode="&#x1ead;" horiz-adv-x="327" 
d="M82 508l85 95l87 -95l-34 -27l-53 58l-53 -58zM144 -7q-38 0 -59.5 23.5t-31.5 58t-12 72.5t-2 68q0 34 2 75.5t12.5 78t33 61t62.5 24.5q24 0 40 -9t31 -28v30h57v-447h-57v36q-15 -20 -32.5 -31.5t-43.5 -11.5zM97 250q0 -28 0.5 -54.5t2.5 -53.5q1 -15 3.5 -32.5
t9 -33.5t18.5 -26.5t31 -10.5q22 0 36 15q10 11 15.5 33.5t8.5 48.5t3.5 50.5t0.5 39.5q0 33 -1.5 66t-8 59t-19 42t-34.5 16q-24 0 -37.5 -18.5t-20 -44t-7.5 -52.5t-1 -44zM123 -88q0 17 10.5 28t27.5 11q16 0 26.5 -11.5t10.5 -27.5q0 -15 -10.5 -26t-26.5 -11t-27 11
t-11 26z" />
    <glyph glyph-name="uni1EAE" unicode="&#x1eae;" horiz-adv-x="325" 
d="M216 924l35 -34l-93 -88l-27 26zM130 789q1 -53 33 -53q30 0 31 53h41q0 -17 -3 -33.5t-11 -29t-22 -20.5t-37 -8q-22 0 -36 7.5t-22.5 20.5t-11.5 29t-3 34h41zM1 0l132 667h58l133 -667h-66l-25 137h-141l-25 -137h-66zM160 583q-7 -100 -24 -197t-34 -195h121l-44 235
q-8 39 -12.5 78t-6.5 79z" />
    <glyph glyph-name="uni1EAF" unicode="&#x1eaf;" horiz-adv-x="327" 
d="M223 707l35 -34l-93 -88l-27 26zM137 572q1 -53 33 -53q30 0 31 53h41q0 -17 -3 -33.5t-11 -29t-22 -20.5t-37 -8q-22 0 -36 7.5t-22.5 20.5t-11.5 29t-3 34h41zM39 215q0 34 2 75.5t12.5 78t33 61t62.5 24.5q24 0 40 -9t31 -28v30h57v-447h-57v36q-15 -20 -32.5 -31.5
t-43.5 -11.5q-38 0 -59.5 23.5t-31.5 58t-12 72.5t-2 68zM163 409q-24 0 -37.5 -18.5t-20 -44t-7.5 -52.5t-1 -44q0 -28 0.5 -54.5t2.5 -53.5q1 -15 3.5 -32.5t9 -33.5t18.5 -26.5t31 -10.5q22 0 36 15q10 11 15.5 33.5t8.5 48.5t3.5 50.5t0.5 39.5q0 33 -1.5 66t-8 59
t-19 42t-34.5 16z" />
    <glyph glyph-name="uni1EB0" unicode="&#x1eb0;" horiz-adv-x="325" 
d="M109 924l85 -96l-27 -26l-93 88zM130 789q1 -53 33 -53q30 0 31 53h41q0 -17 -3 -33.5t-11 -29t-22 -20.5t-37 -8q-22 0 -36 7.5t-22.5 20.5t-11.5 29t-3 34h41zM133 667h58l133 -667h-66l-25 137h-141l-25 -137h-66zM223 191l-44 235q-8 39 -12.5 78t-6.5 79
q-7 -100 -24 -197t-34 -195h121z" />
    <glyph glyph-name="uni1EB1" unicode="&#x1eb1;" horiz-adv-x="327" 
d="M81 673l35 34l85 -96l-27 -26zM169 481q-22 0 -36 7.5t-22.5 20.5t-11.5 29t-3 34h41q1 -53 33 -53q30 0 31 53h41q0 -17 -3 -33.5t-11 -29t-22 -20.5t-37 -8zM39 215q0 34 2 75.5t12.5 78t33 61t62.5 24.5q24 0 40 -9t31 -28v30h57v-447h-57v36q-15 -20 -32.5 -31.5
t-43.5 -11.5q-38 0 -59.5 23.5t-31.5 58t-12 72.5t-2 68zM97 250q0 -28 0.5 -54.5t2.5 -53.5q1 -15 3.5 -32.5t9 -33.5t18.5 -26.5t31 -10.5q22 0 36 15q10 11 15.5 33.5t8.5 48.5t3.5 50.5t0.5 39.5q0 33 -1.5 66t-8 59t-19 42t-34.5 16q-24 0 -37.5 -18.5t-20 -44
t-7.5 -52.5t-1 -44z" />
    <glyph glyph-name="uni1EB2" unicode="&#x1eb2;" horiz-adv-x="325" 
d="M113 893q2 13 15 28.5t39 15.5t41 -17.5t14 -46.5q0 -18 -5 -29t-11.5 -17t-13.5 -8.5t-12 -4.5v-11h-33v45h2l5 -1q13 0 22 6t9 20t-5 20t-12 6q-8 0 -14.5 -4.5t-8.5 -17.5zM162 698q-22 0 -36 7.5t-22.5 20.5t-11.5 29t-3 34h41q1 -53 33 -53q30 0 31 53h41
q0 -17 -3 -33.5t-11 -29t-22 -20.5t-37 -8zM133 667h58l133 -667h-66l-25 137h-141l-25 -137h-66zM223 191l-44 235q-8 39 -12.5 78t-6.5 79q-7 -100 -24 -197t-34 -195h121z" />
    <glyph glyph-name="uni1EB3" unicode="&#x1eb3;" horiz-adv-x="327" 
d="M120 675q2 13 15 28.5t39 15.5t41 -17.5t14 -46.5q0 -18 -5 -29t-11.5 -17t-13.5 -8.5t-12 -4.5v-11h-33v45h2l5 -1q13 0 22 6t9 20t-5 20t-12 6q-8 0 -14.5 -4.5t-8.5 -17.5zM137 572q1 -53 33 -53q30 0 31 53h41q0 -17 -3 -33.5t-11 -29t-22 -20.5t-37 -8
q-22 0 -36 7.5t-22.5 20.5t-11.5 29t-3 34h41zM39 215q0 34 2 75.5t12.5 78t33 61t62.5 24.5q24 0 40 -9t31 -28v30h57v-447h-57v36q-15 -20 -32.5 -31.5t-43.5 -11.5q-38 0 -59.5 23.5t-31.5 58t-12 72.5t-2 68zM163 409q-24 0 -37.5 -18.5t-20 -44t-7.5 -52.5t-1 -44
q0 -28 0.5 -54.5t2.5 -53.5q1 -15 3.5 -32.5t9 -33.5t18.5 -26.5t31 -10.5q22 0 36 15q10 11 15.5 33.5t8.5 48.5t3.5 50.5t0.5 39.5q0 33 -1.5 66t-8 59t-19 42t-34.5 16z" />
    <glyph glyph-name="uni1EB4" unicode="&#x1eb4;" horiz-adv-x="325" 
d="M78 825q2 8 7 17.5t12.5 18t16.5 14t18 5.5q17 0 27 -5t17 -10.5t13 -10.5t15 -5q10 0 15.5 10.5t8.5 19.5l28 -20q-1 -9 -6 -18.5t-12.5 -17.5t-17 -13t-19.5 -5q-14 0 -23.5 5t-17 10.5t-13.5 10.5t-12 5q-8 0 -15 -9t-14 -21zM130 789q1 -53 33 -53q30 0 31 53h41
q0 -17 -3 -33.5t-11 -29t-22 -20.5t-37 -8q-22 0 -36 7.5t-22.5 20.5t-11.5 29t-3 34h41zM133 667h58l133 -667h-66l-25 137h-141l-25 -137h-66zM160 583q-7 -100 -24 -197t-34 -195h121l-44 235q-8 39 -12.5 78t-6.5 79z" />
    <glyph glyph-name="uni1EB5" unicode="&#x1eb5;" horiz-adv-x="327" 
d="M85 608q2 8 7 17.5t12.5 18t16.5 14t18 5.5q17 0 27 -5t17 -10.5t13 -10.5t15 -5q10 0 15.5 10.5t8.5 19.5l28 -20q-1 -9 -6 -18.5t-12.5 -17.5t-17 -13t-19.5 -5q-14 0 -23.5 5t-17 10.5t-13.5 10.5t-12 5q-8 0 -15 -9t-14 -21zM169 481q-22 0 -36 7.5t-22.5 20.5
t-11.5 29t-3 34h41q1 -53 33 -53q30 0 31 53h41q0 -17 -3 -33.5t-11 -29t-22 -20.5t-37 -8zM144 -7q-38 0 -59.5 23.5t-31.5 58t-12 72.5t-2 68q0 34 2 75.5t12.5 78t33 61t62.5 24.5q24 0 40 -9t31 -28v30h57v-447h-57v36q-15 -20 -32.5 -31.5t-43.5 -11.5zM97 250
q0 -28 0.5 -54.5t2.5 -53.5q1 -15 3.5 -32.5t9 -33.5t18.5 -26.5t31 -10.5q22 0 36 15q10 11 15.5 33.5t8.5 48.5t3.5 50.5t0.5 39.5q0 33 -1.5 66t-8 59t-19 42t-34.5 16q-24 0 -37.5 -18.5t-20 -44t-7.5 -52.5t-1 -44z" />
    <glyph glyph-name="uni1EB6" unicode="&#x1eb6;" horiz-adv-x="325" 
d="M162 698q-22 0 -36 7.5t-22.5 20.5t-11.5 29t-3 34h41q1 -53 33 -53q30 0 31 53h41q0 -17 -3 -33.5t-11 -29t-22 -20.5t-37 -8zM133 667h58l133 -667h-66l-25 137h-141l-25 -137h-66zM223 191l-44 235q-8 39 -12.5 78t-6.5 79q-7 -100 -24 -197t-34 -195h121zM161 -125
q-16 0 -27 11t-11 26q0 17 10.5 28t27.5 11q16 0 26.5 -11.5t10.5 -27.5q0 -15 -10.5 -26t-26.5 -11z" />
    <glyph glyph-name="uni1EB7" unicode="&#x1eb7;" horiz-adv-x="327" 
d="M169 481q-22 0 -36 7.5t-22.5 20.5t-11.5 29t-3 34h41q1 -53 33 -53q30 0 31 53h41q0 -17 -3 -33.5t-11 -29t-22 -20.5t-37 -8zM144 -7q-38 0 -59.5 23.5t-31.5 58t-12 72.5t-2 68q0 34 2 75.5t12.5 78t33 61t62.5 24.5q24 0 40 -9t31 -28v30h57v-447h-57v36
q-15 -20 -32.5 -31.5t-43.5 -11.5zM97 250q0 -28 0.5 -54.5t2.5 -53.5q1 -15 3.5 -32.5t9 -33.5t18.5 -26.5t31 -10.5q22 0 36 15q10 11 15.5 33.5t8.5 48.5t3.5 50.5t0.5 39.5q0 33 -1.5 66t-8 59t-19 42t-34.5 16q-24 0 -37.5 -18.5t-20 -44t-7.5 -52.5t-1 -44zM123 -88
q0 17 10.5 28t27.5 11q16 0 26.5 -11.5t10.5 -27.5q0 -15 -10.5 -26t-26.5 -11t-27 11t-11 26z" />
    <glyph glyph-name="uni1EB8" unicode="&#x1eb8;" horiz-adv-x="301" 
d="M263 667v-57h-146v-235h142v-57h-142v-261h146v-57h-208v667h208zM118 -88q0 17 10.5 28t27.5 11q16 0 26.5 -11.5t10.5 -27.5q0 -15 -10.5 -26t-26.5 -11t-27 11t-11 26z" />
    <glyph glyph-name="uni1EB9" unicode="&#x1eb9;" horiz-adv-x="313" 
d="M33 222q0 30 4.5 70t18 76t38 61t65.5 25t64.5 -23.5t36.5 -57t16.5 -72t3.5 -68.5l-1 -14v-7h-189v-10q0 -17 2 -43.5t9.5 -51.5t21.5 -43t38 -18q19 0 30 11t17 27.5t8.5 35t2.5 32.5h57q-1 -27 -6.5 -55t-18 -51.5t-34 -38t-54.5 -14.5q-43 0 -69 23.5t-39.5 58.5
t-17.5 75t-4 72zM224 260q-1 15 -3 39t-8.5 47t-19 39.5t-33.5 16.5q-22 0 -35 -16.5t-20.5 -39t-10 -47t-3.5 -39.5h133zM154 -125q-16 0 -27 11t-11 26q0 17 10.5 28t27.5 11q16 0 26.5 -11.5t10.5 -27.5q0 -15 -10.5 -26t-26.5 -11z" />
    <glyph glyph-name="uni1EBA" unicode="&#x1eba;" horiz-adv-x="301" 
d="M115 792q2 13 15 28.5t39 15.5t41 -17.5t14 -46.5q0 -18 -5 -29t-11.5 -17t-13.5 -8.5t-12 -4.5v-11h-33v45h2l5 -1q13 0 22 6t9 20t-5 20t-12 6q-8 0 -14.5 -4.5t-8.5 -17.5zM263 667v-57h-146v-235h142v-57h-142v-261h146v-57h-208v667h208z" />
    <glyph glyph-name="uni1EBB" unicode="&#x1ebb;" horiz-adv-x="313" 
d="M109 572q2 13 15 28.5t39 15.5t41 -17.5t14 -46.5q0 -18 -5 -29t-11.5 -17t-13.5 -8.5t-12 -4.5v-11h-33v45h2l5 -1q13 0 22 6t9 20t-5 20t-12 6q-8 0 -14.5 -4.5t-8.5 -17.5zM33 222q0 30 4.5 70t18 76t38 61t65.5 25t64.5 -23.5t36.5 -57t16.5 -72t3.5 -68.5l-1 -14v-7
h-189v-10q0 -17 2 -43.5t9.5 -51.5t21.5 -43t38 -18q19 0 30 11t17 27.5t8.5 35t2.5 32.5h57q-1 -27 -6.5 -55t-18 -51.5t-34 -38t-54.5 -14.5q-43 0 -69 23.5t-39.5 58.5t-17.5 75t-4 72zM224 260q-1 15 -3 39t-8.5 47t-19 39.5t-33.5 16.5q-22 0 -35 -16.5t-20.5 -39
t-10 -47t-3.5 -39.5h133z" />
    <glyph glyph-name="uni1EBC" unicode="&#x1ebc;" horiz-adv-x="301" 
d="M76 731q2 8 7 17.5t12.5 18t16.5 14t18 5.5q17 0 27 -5t17 -10.5t13 -10.5t15 -5q10 0 15.5 10.5t8.5 19.5l28 -20q-1 -9 -6 -18.5t-12.5 -17.5t-17 -13t-19.5 -5q-14 0 -23.5 5t-17 10.5t-13.5 10.5t-12 5q-8 0 -15 -9t-14 -21zM263 667v-57h-146v-235h142v-57h-142
v-261h146v-57h-208v667h208z" />
    <glyph glyph-name="uni1EBD" unicode="&#x1ebd;" horiz-adv-x="313" 
d="M78 511q2 8 7 17.5t12.5 18t16.5 14t18 5.5q17 0 27 -5t17 -10.5t13 -10.5t15 -5q10 0 15.5 10.5t8.5 19.5l28 -20q-1 -9 -6 -18.5t-12.5 -17.5t-17 -13t-19.5 -5q-14 0 -23.5 5t-17 10.5t-13.5 10.5t-12 5q-8 0 -15 -9t-14 -21zM33 222q0 30 4.5 70t18 76t38 61t65.5 25
t64.5 -23.5t36.5 -57t16.5 -72t3.5 -68.5l-1 -14v-7h-189v-10q0 -17 2 -43.5t9.5 -51.5t21.5 -43t38 -18q19 0 30 11t17 27.5t8.5 35t2.5 32.5h57q-1 -27 -6.5 -55t-18 -51.5t-34 -38t-54.5 -14.5q-43 0 -69 23.5t-39.5 58.5t-17.5 75t-4 72zM160 402q-22 0 -35 -16.5
t-20.5 -39t-10 -47t-3.5 -39.5h133q-1 15 -3 39t-8.5 47t-19 39.5t-33.5 16.5z" />
    <glyph glyph-name="uni1EBE" unicode="&#x1ebe;" horiz-adv-x="301" 
d="M201 809l85 96l35 -34l-93 -88zM158 823l87 -95l-34 -27l-53 58l-53 -58l-32 27zM263 667v-57h-146v-235h142v-57h-142v-261h146v-57h-208v667h208z" />
    <glyph glyph-name="uni1EBF" unicode="&#x1ebf;" horiz-adv-x="313" 
d="M206 589l85 96l35 -34l-93 -88zM163 603l87 -95l-34 -27l-53 58l-53 -58l-32 27zM163 -7q-43 0 -69 23.5t-39.5 58.5t-17.5 75t-4 72q0 30 4.5 70t18 76t38 61t65.5 25t64.5 -23.5t36.5 -57t16.5 -72t3.5 -68.5l-1 -14v-7h-189v-10q0 -17 2 -43.5t9.5 -51.5t21.5 -43
t38 -18q19 0 30 11t17 27.5t8.5 35t2.5 32.5h57q-1 -27 -6.5 -55t-18 -51.5t-34 -38t-54.5 -14.5zM224 260q-1 15 -3 39t-8.5 47t-19 39.5t-33.5 16.5q-22 0 -35 -16.5t-20.5 -39t-10 -47t-3.5 -39.5h133z" />
    <glyph glyph-name="uni1EC0" unicode="&#x1ec0;" horiz-adv-x="301" 
d="M142 871l35 34l85 -96l-27 -26zM158 823l87 -95l-34 -27l-53 58l-53 -58l-32 27zM263 667v-57h-146v-235h142v-57h-142v-261h146v-57h-208v667h208z" />
    <glyph glyph-name="uni1EC1" unicode="&#x1ec1;" horiz-adv-x="313" 
d="M147 651l35 34l85 -96l-27 -26zM78 508l85 95l87 -95l-34 -27l-53 58l-53 -58zM33 222q0 30 4.5 70t18 76t38 61t65.5 25t64.5 -23.5t36.5 -57t16.5 -72t3.5 -68.5l-1 -14v-7h-189v-10q0 -17 2 -43.5t9.5 -51.5t21.5 -43t38 -18q19 0 30 11t17 27.5t8.5 35t2.5 32.5h57
q-1 -27 -6.5 -55t-18 -51.5t-34 -38t-54.5 -14.5q-43 0 -69 23.5t-39.5 58.5t-17.5 75t-4 72zM224 260q-1 15 -3 39t-8.5 47t-19 39.5t-33.5 16.5q-22 0 -35 -16.5t-20.5 -39t-10 -47t-3.5 -39.5h133z" />
    <glyph glyph-name="uni1EC2" unicode="&#x1ec2;" horiz-adv-x="301" 
d="M183 873q2 13 15 28.5t39 15.5t41 -17.5t14 -46.5q0 -18 -5 -29t-11.5 -17t-13.5 -8.5t-12 -4.5v-11h-33v45h2l5 -1q13 0 22 6t9 20t-5 20t-12 6q-8 0 -14.5 -4.5t-8.5 -17.5zM73 728l85 95l87 -95l-34 -27l-53 58l-53 -58zM55 0v667h208v-57h-146v-235h142v-57h-142
v-261h146v-57h-208z" />
    <glyph glyph-name="uni1EC3" unicode="&#x1ec3;" horiz-adv-x="313" 
d="M188 653q2 13 15 28.5t39 15.5t41 -17.5t14 -46.5q0 -18 -5 -29t-11.5 -17t-13.5 -8.5t-12 -4.5v-11h-33v45h2l5 -1q13 0 22 6t9 20t-5 20t-12 6q-8 0 -14.5 -4.5t-8.5 -17.5zM163 603l87 -95l-34 -27l-53 58l-53 -58l-32 27zM33 222q0 30 4.5 70t18 76t38 61t65.5 25
t64.5 -23.5t36.5 -57t16.5 -72t3.5 -68.5l-1 -14v-7h-189v-10q0 -17 2 -43.5t9.5 -51.5t21.5 -43t38 -18q19 0 30 11t17 27.5t8.5 35t2.5 32.5h57q-1 -27 -6.5 -55t-18 -51.5t-34 -38t-54.5 -14.5q-43 0 -69 23.5t-39.5 58.5t-17.5 75t-4 72zM224 260q-1 15 -3 39t-8.5 47
t-19 39.5t-33.5 16.5q-22 0 -35 -16.5t-20.5 -39t-10 -47t-3.5 -39.5h133z" />
    <glyph glyph-name="uni1EC4" unicode="&#x1ec4;" horiz-adv-x="301" 
d="M71 852q2 8 7 17.5t12.5 18t16.5 14t18 5.5q17 0 27 -5t17 -10.5t13 -10.5t15 -5q10 0 15.5 10.5t8.5 19.5l28 -20q-1 -9 -6 -18.5t-12.5 -17.5t-17 -13t-19.5 -5q-14 0 -23.5 5t-17 10.5t-13.5 10.5t-12 5q-8 0 -15 -9t-14 -21zM73 728l85 95l87 -95l-34 -27l-53 58
l-53 -58zM55 0v667h208v-57h-146v-235h142v-57h-142v-261h146v-57h-208z" />
    <glyph glyph-name="uni1EC5" unicode="&#x1ec5;" horiz-adv-x="313" 
d="M76 632q2 8 7 17.5t12.5 18t16.5 14t18 5.5q17 0 27 -5t17 -10.5t13 -10.5t15 -5q10 0 15.5 10.5t8.5 19.5l28 -20q-1 -9 -6 -18.5t-12.5 -17.5t-17 -13t-19.5 -5q-14 0 -23.5 5t-17 10.5t-13.5 10.5t-12 5q-8 0 -15 -9t-14 -21zM163 603l87 -95l-34 -27l-53 58l-53 -58
l-32 27zM33 222q0 30 4.5 70t18 76t38 61t65.5 25t64.5 -23.5t36.5 -57t16.5 -72t3.5 -68.5l-1 -14v-7h-189v-10q0 -17 2 -43.5t9.5 -51.5t21.5 -43t38 -18q19 0 30 11t17 27.5t8.5 35t2.5 32.5h57q-1 -27 -6.5 -55t-18 -51.5t-34 -38t-54.5 -14.5q-43 0 -69 23.5
t-39.5 58.5t-17.5 75t-4 72zM224 260q-1 15 -3 39t-8.5 47t-19 39.5t-33.5 16.5q-22 0 -35 -16.5t-20.5 -39t-10 -47t-3.5 -39.5h133z" />
    <glyph glyph-name="uni1EC6" unicode="&#x1ec6;" horiz-adv-x="301" 
d="M158 823l87 -95l-34 -27l-53 58l-53 -58l-32 27zM55 667h208v-57h-146v-235h142v-57h-142v-261h146v-57h-208v667zM118 -88q0 17 10.5 28t27.5 11q16 0 26.5 -11.5t10.5 -27.5q0 -15 -10.5 -26t-26.5 -11t-27 11t-11 26z" />
    <glyph glyph-name="uni1EC7" unicode="&#x1ec7;" horiz-adv-x="313" 
d="M78 508l85 95l87 -95l-34 -27l-53 58l-53 -58zM163 -7q-43 0 -69 23.5t-39.5 58.5t-17.5 75t-4 72q0 30 4.5 70t18 76t38 61t65.5 25t64.5 -23.5t36.5 -57t16.5 -72t3.5 -68.5l-1 -14v-7h-189v-10q0 -17 2 -43.5t9.5 -51.5t21.5 -43t38 -18q19 0 30 11t17 27.5t8.5 35
t2.5 32.5h57q-1 -27 -6.5 -55t-18 -51.5t-34 -38t-54.5 -14.5zM224 260q-1 15 -3 39t-8.5 47t-19 39.5t-33.5 16.5q-22 0 -35 -16.5t-20.5 -39t-10 -47t-3.5 -39.5h133zM154 -125q-16 0 -27 11t-11 26q0 17 10.5 28t27.5 11q16 0 26.5 -11.5t10.5 -27.5q0 -15 -10.5 -26
t-26.5 -11z" />
    <glyph glyph-name="uni1EC8" unicode="&#x1ec8;" horiz-adv-x="171" 
d="M37 792q2 13 15 28.5t39 15.5t41 -17.5t14 -46.5q0 -18 -5 -29t-11.5 -17t-13.5 -8.5t-12 -4.5v-11h-33v45h2l5 -1q13 0 22 6t9 20t-5 20t-12 6q-8 0 -14.5 -4.5t-8.5 -17.5zM117 667v-667h-62v667h62z" />
    <glyph glyph-name="uni1EC9" unicode="&#x1ec9;" horiz-adv-x="155" 
d="M27 572q2 13 15 28.5t39 15.5t41 -17.5t14 -46.5q0 -18 -5 -29t-11.5 -17t-13.5 -8.5t-12 -4.5v-11h-33v45h2l5 -1q13 0 22 6t9 20t-5 20t-12 6q-8 0 -14.5 -4.5t-8.5 -17.5zM106 447v-447h-57v447h57z" />
    <glyph glyph-name="uni1ECA" unicode="&#x1eca;" horiz-adv-x="171" 
d="M117 667v-667h-62v667h62zM49 -88q0 17 10.5 28t27.5 11q16 0 26.5 -11.5t10.5 -27.5q0 -15 -10.5 -26t-26.5 -11t-27 11t-11 26z" />
    <glyph glyph-name="uni1ECB" unicode="&#x1ecb;" horiz-adv-x="155" 
d="M40 540q0 17 10.5 28t27.5 11q16 0 26.5 -11.5t10.5 -27.5q0 -15 -10.5 -26t-26.5 -11t-27 11t-11 26zM106 447v-447h-57v447h57zM78 -125q-16 0 -27 11t-11 26q0 17 10.5 28t27.5 11q16 0 26.5 -11.5t10.5 -27.5q0 -15 -10.5 -26t-26.5 -11z" />
    <glyph glyph-name="uni1ECC" unicode="&#x1ecc;" horiz-adv-x="404" 
d="M203 -9q-39 0 -66.5 17.5t-45.5 46.5t-29 65.5t-16 74.5t-6.5 74t-1.5 64t1.5 64t7 74t16 75t28.5 65.5t45.5 46.5t65.5 18q39 0 66.5 -17.5t46 -46t28.5 -64.5t15.5 -74t6.5 -74t1 -64t-1 -64.5t-6 -75t-15 -75t-28 -65.5t-45.5 -47t-67.5 -18zM203 616q-26 0 -43.5 -16
t-29 -41.5t-17.5 -57t-8.5 -63t-3 -59t-0.5 -45.5q0 -17 0.5 -45t3 -59.5t8.5 -63.5t17.5 -57.5t29 -41.5t43.5 -16q28 0 45.5 16t27.5 40t14.5 51t6.5 48q6 75 6 152q0 17 -0.5 42.5t-3.5 54.5t-9 57.5t-17 51.5t-28 37.5t-42 14.5zM203 -125q-16 0 -27 11t-11 26
q0 17 10.5 28t27.5 11q16 0 26.5 -11.5t10.5 -27.5q0 -15 -10.5 -26t-26.5 -11z" />
    <glyph glyph-name="uni1ECD" unicode="&#x1ecd;" horiz-adv-x="323" 
d="M164 -7q-43 0 -69 24t-39.5 59t-18 75t-4.5 73t4.5 73t18 75t39.5 58.5t69 23.5q44 0 68.5 -24.5t37.5 -60t16 -76t3 -72.5t-3.5 -71.5t-16 -74.5t-37.5 -58.5t-68 -23.5zM163 402q-26 0 -40.5 -22t-21 -52t-8 -60.5t-1.5 -48.5t1.5 -47t8.5 -57t21.5 -48.5t39.5 -20.5
t38.5 21.5t20 50.5t8 59t1.5 47t-1.5 47t-8 59t-20 50.5t-38.5 21.5zM127 -88q0 17 10.5 28t27.5 11q16 0 26.5 -11.5t10.5 -27.5q0 -15 -10.5 -26t-26.5 -11t-27 11t-11 26z" />
    <glyph glyph-name="uni1ECE" unicode="&#x1ece;" horiz-adv-x="404" 
d="M152 792q2 13 15 28.5t39 15.5t41 -17.5t14 -46.5q0 -18 -5 -29t-11.5 -17t-13.5 -8.5t-12 -4.5v-11h-33v45h2l5 -1q13 0 22 6t9 20t-5 20t-12 6q-8 0 -14.5 -4.5t-8.5 -17.5zM38 333q0 28 1.5 64t7 74t16 75t28.5 65.5t45.5 46.5t65.5 18q39 0 66.5 -17.5t46 -46
t28.5 -64.5t15.5 -74t6.5 -74t1 -64t-1 -64.5t-6 -75t-15 -75t-28 -65.5t-45.5 -47t-67.5 -18q-39 0 -66.5 17.5t-45.5 46.5t-29 65.5t-16 74.5t-6.5 74t-1.5 64zM203 616q-26 0 -43.5 -16t-29 -41.5t-17.5 -57t-8.5 -63t-3 -59t-0.5 -45.5q0 -17 0.5 -45t3 -59.5t8.5 -63.5
t17.5 -57.5t29 -41.5t43.5 -16q28 0 45.5 16t27.5 40t14.5 51t6.5 48q6 75 6 152q0 17 -0.5 42.5t-3.5 54.5t-9 57.5t-17 51.5t-28 37.5t-42 14.5z" />
    <glyph glyph-name="uni1ECF" unicode="&#x1ecf;" horiz-adv-x="323" 
d="M114 572q2 13 15 28.5t39 15.5t41 -17.5t14 -46.5q0 -18 -5 -29t-11.5 -17t-13.5 -8.5t-12 -4.5v-11h-33v45h2l5 -1q13 0 22 6t9 20t-5 20t-12 6q-8 0 -14.5 -4.5t-8.5 -17.5zM33 224q0 33 4.5 73t18 75t39.5 58.5t69 23.5q44 0 68.5 -24.5t37.5 -60t16 -76t3 -72.5
t-3.5 -71.5t-16 -74.5t-37.5 -58.5t-68 -23.5t-69 24t-39.5 59t-18 75t-4.5 73zM92 219q0 -18 1.5 -47t8.5 -57t21.5 -48.5t39.5 -20.5t38.5 21.5t20 50.5t8 59t1.5 47t-1.5 47t-8 59t-20 50.5t-38.5 21.5q-26 0 -40.5 -22t-21 -52t-8 -60.5t-1.5 -48.5z" />
    <glyph glyph-name="uni1ED0" unicode="&#x1ed0;" horiz-adv-x="404" 
d="M244 809l85 96l35 -34l-93 -88zM116 728l85 95l87 -95l-34 -27l-53 58l-53 -58zM203 -9q-39 0 -66.5 17.5t-45.5 46.5t-29 65.5t-16 74.5t-6.5 74t-1.5 64t1.5 64t7 74t16 75t28.5 65.5t45.5 46.5t65.5 18q39 0 66.5 -17.5t46 -46t28.5 -64.5t15.5 -74t6.5 -74t1 -64
t-1 -64.5t-6 -75t-15 -75t-28 -65.5t-45.5 -47t-67.5 -18zM203 616q-26 0 -43.5 -16t-29 -41.5t-17.5 -57t-8.5 -63t-3 -59t-0.5 -45.5q0 -17 0.5 -45t3 -59.5t8.5 -63.5t17.5 -57.5t29 -41.5t43.5 -16q28 0 45.5 16t27.5 40t14.5 51t6.5 48q6 75 6 152q0 17 -0.5 42.5
t-3.5 54.5t-9 57.5t-17 51.5t-28 37.5t-42 14.5z" />
    <glyph glyph-name="uni1ED1" unicode="&#x1ed1;" horiz-adv-x="323" 
d="M205 589l85 96l35 -34l-93 -88zM77 508l85 95l87 -95l-34 -27l-53 58l-53 -58zM164 -7q-43 0 -69 24t-39.5 59t-18 75t-4.5 73t4.5 73t18 75t39.5 58.5t69 23.5q44 0 68.5 -24.5t37.5 -60t16 -76t3 -72.5t-3.5 -71.5t-16 -74.5t-37.5 -58.5t-68 -23.5zM92 219
q0 -18 1.5 -47t8.5 -57t21.5 -48.5t39.5 -20.5t38.5 21.5t20 50.5t8 59t1.5 47t-1.5 47t-8 59t-20 50.5t-38.5 21.5q-26 0 -40.5 -22t-21 -52t-8 -60.5t-1.5 -48.5z" />
    <glyph glyph-name="uni1ED2" unicode="&#x1ed2;" horiz-adv-x="404" 
d="M185 871l35 34l85 -96l-27 -26zM201 823l87 -95l-34 -27l-53 58l-53 -58l-32 27zM38 333q0 28 1.5 64t7 74t16 75t28.5 65.5t45.5 46.5t65.5 18q39 0 66.5 -17.5t46 -46t28.5 -64.5t15.5 -74t6.5 -74t1 -64t-1 -64.5t-6 -75t-15 -75t-28 -65.5t-45.5 -47t-67.5 -18
q-39 0 -66.5 17.5t-45.5 46.5t-29 65.5t-16 74.5t-6.5 74t-1.5 64zM203 616q-26 0 -43.5 -16t-29 -41.5t-17.5 -57t-8.5 -63t-3 -59t-0.5 -45.5q0 -17 0.5 -45t3 -59.5t8.5 -63.5t17.5 -57.5t29 -41.5t43.5 -16q28 0 45.5 16t27.5 40t14.5 51t6.5 48q6 75 6 152
q0 17 -0.5 42.5t-3.5 54.5t-9 57.5t-17 51.5t-28 37.5t-42 14.5z" />
    <glyph glyph-name="uni1ED3" unicode="&#x1ed3;" horiz-adv-x="323" 
d="M181 685l85 -96l-27 -26l-93 88zM162 603l87 -95l-34 -27l-53 58l-53 -58l-32 27zM33 224q0 33 4.5 73t18 75t39.5 58.5t69 23.5q44 0 68.5 -24.5t37.5 -60t16 -76t3 -72.5t-3.5 -71.5t-16 -74.5t-37.5 -58.5t-68 -23.5t-69 24t-39.5 59t-18 75t-4.5 73zM92 219
q0 -18 1.5 -47t8.5 -57t21.5 -48.5t39.5 -20.5t38.5 21.5t20 50.5t8 59t1.5 47t-1.5 47t-8 59t-20 50.5t-38.5 21.5q-26 0 -40.5 -22t-21 -52t-8 -60.5t-1.5 -48.5z" />
    <glyph glyph-name="uni1ED4" unicode="&#x1ed4;" horiz-adv-x="404" 
d="M226 873q2 13 15 28.5t39 15.5t41 -17.5t14 -46.5q0 -18 -5 -29t-11.5 -17t-13.5 -8.5t-12 -4.5v-11h-33v45h2l5 -1q13 0 22 6t9 20t-5 20t-12 6q-8 0 -14.5 -4.5t-8.5 -17.5zM201 823l87 -95l-34 -27l-53 58l-53 -58l-32 27zM38 333q0 28 1.5 64t7 74t16 75t28.5 65.5
t45.5 46.5t65.5 18q39 0 66.5 -17.5t46 -46t28.5 -64.5t15.5 -74t6.5 -74t1 -64t-1 -64.5t-6 -75t-15 -75t-28 -65.5t-45.5 -47t-67.5 -18q-39 0 -66.5 17.5t-45.5 46.5t-29 65.5t-16 74.5t-6.5 74t-1.5 64zM203 616q-26 0 -43.5 -16t-29 -41.5t-17.5 -57t-8.5 -63t-3 -59
t-0.5 -45.5q0 -17 0.5 -45t3 -59.5t8.5 -63.5t17.5 -57.5t29 -41.5t43.5 -16q28 0 45.5 16t27.5 40t14.5 51t6.5 48q6 75 6 152q0 17 -0.5 42.5t-3.5 54.5t-9 57.5t-17 51.5t-28 37.5t-42 14.5z" />
    <glyph glyph-name="uni1ED5" unicode="&#x1ed5;" horiz-adv-x="323" 
d="M187 653q2 13 15 28.5t39 15.5t41 -17.5t14 -46.5q0 -18 -5 -29t-11.5 -17t-13.5 -8.5t-12 -4.5v-11h-33v45h2l5 -1q13 0 22 6t9 20t-5 20t-12 6q-8 0 -14.5 -4.5t-8.5 -17.5zM162 603l87 -95l-34 -27l-53 58l-53 -58l-32 27zM164 -7q-43 0 -69 24t-39.5 59t-18 75
t-4.5 73t4.5 73t18 75t39.5 58.5t69 23.5q44 0 68.5 -24.5t37.5 -60t16 -76t3 -72.5t-3.5 -71.5t-16 -74.5t-37.5 -58.5t-68 -23.5zM163 402q-26 0 -40.5 -22t-21 -52t-8 -60.5t-1.5 -48.5t1.5 -47t8.5 -57t21.5 -48.5t39.5 -20.5t38.5 21.5t20 50.5t8 59t1.5 47t-1.5 47
t-8 59t-20 50.5t-38.5 21.5z" />
    <glyph glyph-name="uni1ED6" unicode="&#x1ed6;" horiz-adv-x="404" 
d="M114 852q2 8 7 17.5t12.5 18t16.5 14t18 5.5q17 0 27 -5t17 -10.5t13 -10.5t15 -5q10 0 15.5 10.5t8.5 19.5l28 -20q-1 -9 -6 -18.5t-12.5 -17.5t-17 -13t-19.5 -5q-14 0 -23.5 5t-17 10.5t-13.5 10.5t-12 5q-8 0 -15 -9t-14 -21zM201 823l87 -95l-34 -27l-53 58l-53 -58
l-32 27zM38 333q0 28 1.5 64t7 74t16 75t28.5 65.5t45.5 46.5t65.5 18q39 0 66.5 -17.5t46 -46t28.5 -64.5t15.5 -74t6.5 -74t1 -64t-1 -64.5t-6 -75t-15 -75t-28 -65.5t-45.5 -47t-67.5 -18q-39 0 -66.5 17.5t-45.5 46.5t-29 65.5t-16 74.5t-6.5 74t-1.5 64zM203 616
q-26 0 -43.5 -16t-29 -41.5t-17.5 -57t-8.5 -63t-3 -59t-0.5 -45.5q0 -17 0.5 -45t3 -59.5t8.5 -63.5t17.5 -57.5t29 -41.5t43.5 -16q28 0 45.5 16t27.5 40t14.5 51t6.5 48q6 75 6 152q0 17 -0.5 42.5t-3.5 54.5t-9 57.5t-17 51.5t-28 37.5t-42 14.5z" />
    <glyph glyph-name="uni1ED7" unicode="&#x1ed7;" horiz-adv-x="323" 
d="M75 632q2 8 7 17.5t12.5 18t16.5 14t18 5.5q17 0 27 -5t17 -10.5t13 -10.5t15 -5q10 0 15.5 10.5t8.5 19.5l28 -20q-1 -9 -6 -18.5t-12.5 -17.5t-17 -13t-19.5 -5q-14 0 -23.5 5t-17 10.5t-13.5 10.5t-12 5q-8 0 -15 -9t-14 -21zM162 603l87 -95l-34 -27l-53 58l-53 -58
l-32 27zM164 -7q-43 0 -69 24t-39.5 59t-18 75t-4.5 73t4.5 73t18 75t39.5 58.5t69 23.5q44 0 68.5 -24.5t37.5 -60t16 -76t3 -72.5t-3.5 -71.5t-16 -74.5t-37.5 -58.5t-68 -23.5zM92 219q0 -18 1.5 -47t8.5 -57t21.5 -48.5t39.5 -20.5t38.5 21.5t20 50.5t8 59t1.5 47
t-1.5 47t-8 59t-20 50.5t-38.5 21.5q-26 0 -40.5 -22t-21 -52t-8 -60.5t-1.5 -48.5z" />
    <glyph glyph-name="uni1ED8" unicode="&#x1ed8;" horiz-adv-x="404" 
d="M116 728l85 95l87 -95l-34 -27l-53 58l-53 -58zM38 333q0 28 1.5 64t7 74t16 75t28.5 65.5t45.5 46.5t65.5 18q39 0 66.5 -17.5t46 -46t28.5 -64.5t15.5 -74t6.5 -74t1 -64t-1 -64.5t-6 -75t-15 -75t-28 -65.5t-45.5 -47t-67.5 -18q-39 0 -66.5 17.5t-45.5 46.5t-29 65.5
t-16 74.5t-6.5 74t-1.5 64zM203 616q-26 0 -43.5 -16t-29 -41.5t-17.5 -57t-8.5 -63t-3 -59t-0.5 -45.5q0 -17 0.5 -45t3 -59.5t8.5 -63.5t17.5 -57.5t29 -41.5t43.5 -16q28 0 45.5 16t27.5 40t14.5 51t6.5 48q6 75 6 152q0 17 -0.5 42.5t-3.5 54.5t-9 57.5t-17 51.5
t-28 37.5t-42 14.5zM165 -88q0 17 10.5 28t27.5 11q16 0 26.5 -11.5t10.5 -27.5q0 -15 -10.5 -26t-26.5 -11t-27 11t-11 26z" />
    <glyph glyph-name="uni1ED9" unicode="&#x1ed9;" horiz-adv-x="323" 
d="M162 603l87 -95l-34 -27l-53 58l-53 -58l-32 27zM164 -7q-43 0 -69 24t-39.5 59t-18 75t-4.5 73t4.5 73t18 75t39.5 58.5t69 23.5q44 0 68.5 -24.5t37.5 -60t16 -76t3 -72.5t-3.5 -71.5t-16 -74.5t-37.5 -58.5t-68 -23.5zM163 402q-26 0 -40.5 -22t-21 -52t-8 -60.5
t-1.5 -48.5t1.5 -47t8.5 -57t21.5 -48.5t39.5 -20.5t38.5 21.5t20 50.5t8 59t1.5 47t-1.5 47t-8 59t-20 50.5t-38.5 21.5zM165 -125q-16 0 -27 11t-11 26q0 17 10.5 28t27.5 11q16 0 26.5 -11.5t10.5 -27.5q0 -15 -10.5 -26t-26.5 -11z" />
    <glyph glyph-name="uni1EDA" unicode="&#x1eda;" horiz-adv-x="404" 
d="M167 727l85 96l35 -34l-93 -88zM38 333q0 28 1.5 64t7 74t16 75t28.5 65.5t45.5 46.5t65.5 18q22 0 37.5 -4.5t22.5 -4.5q17 0 22.5 11t5.5 42h52q0 -32 -9.5 -55t-32.5 -33q23 -27 36.5 -65t20 -79.5t8 -81.5t1.5 -70q0 -28 -1 -64.5t-6 -75t-15 -75t-28 -65.5
t-45.5 -47t-67.5 -18q-39 0 -66.5 17.5t-45.5 46.5t-29 65.5t-16 74.5t-6.5 74t-1.5 64zM203 616q-26 0 -43.5 -16t-29 -41.5t-17.5 -57t-8.5 -63t-3 -59t-0.5 -45.5q0 -17 0.5 -45t3 -59.5t8.5 -63.5t17.5 -57.5t29 -41.5t43.5 -16q28 0 45.5 16t27.5 40t14.5 51t6.5 48
q6 75 6 152q0 17 -0.5 42.5t-3.5 54.5t-9 57.5t-17 51.5t-28 37.5t-42 14.5z" />
    <glyph glyph-name="uni1EDB" unicode="&#x1edb;" horiz-adv-x="323" 
d="M129 507l85 96l35 -34l-93 -88zM33 224q0 33 4.5 73t18 75t39.5 58.5t69 23.5q19 0 30.5 -3.5t18.5 -3.5q17 0 22.5 11t5.5 42h52q0 -33 -10 -56.5t-35 -32.5q14 -19 22 -43t12.5 -49.5t5.5 -51t1 -46.5q0 -32 -3.5 -71.5t-16 -74.5t-37.5 -58.5t-68 -23.5t-69 24
t-39.5 59t-18 75t-4.5 73zM163 402q-26 0 -40.5 -22t-21 -52t-8 -60.5t-1.5 -48.5t1.5 -47t8.5 -57t21.5 -48.5t39.5 -20.5t38.5 21.5t20 50.5t8 59t1.5 47t-1.5 47t-8 59t-20 50.5t-38.5 21.5z" />
    <glyph glyph-name="uni1EDC" unicode="&#x1edc;" horiz-adv-x="404" 
d="M118 789l35 34l85 -96l-27 -26zM38 333q0 28 1.5 64t7 74t16 75t28.5 65.5t45.5 46.5t65.5 18q22 0 37.5 -4.5t22.5 -4.5q17 0 22.5 11t5.5 42h52q0 -32 -9.5 -55t-32.5 -33q23 -27 36.5 -65t20 -79.5t8 -81.5t1.5 -70q0 -28 -1 -64.5t-6 -75t-15 -75t-28 -65.5
t-45.5 -47t-67.5 -18q-39 0 -66.5 17.5t-45.5 46.5t-29 65.5t-16 74.5t-6.5 74t-1.5 64zM203 616q-26 0 -43.5 -16t-29 -41.5t-17.5 -57t-8.5 -63t-3 -59t-0.5 -45.5q0 -17 0.5 -45t3 -59.5t8.5 -63.5t17.5 -57.5t29 -41.5t43.5 -16q28 0 45.5 16t27.5 40t14.5 51t6.5 48
q6 75 6 152q0 17 -0.5 42.5t-3.5 54.5t-9 57.5t-17 51.5t-28 37.5t-42 14.5z" />
    <glyph glyph-name="uni1EDD" unicode="&#x1edd;" horiz-adv-x="323" 
d="M117 603l85 -96l-27 -26l-93 88zM164 -7q-43 0 -69 24t-39.5 59t-18 75t-4.5 73t4.5 73t18 75t39.5 58.5t69 23.5q19 0 30.5 -3.5t18.5 -3.5q17 0 22.5 11t5.5 42h52q0 -33 -10 -56.5t-35 -32.5q14 -19 22 -43t12.5 -49.5t5.5 -51t1 -46.5q0 -32 -3.5 -71.5t-16 -74.5
t-37.5 -58.5t-68 -23.5zM163 402q-26 0 -40.5 -22t-21 -52t-8 -60.5t-1.5 -48.5t1.5 -47t8.5 -57t21.5 -48.5t39.5 -20.5t38.5 21.5t20 50.5t8 59t1.5 47t-1.5 47t-8 59t-20 50.5t-38.5 21.5z" />
    <glyph glyph-name="uni1EDE" unicode="&#x1ede;" horiz-adv-x="404" 
d="M152 792q2 13 15 28.5t39 15.5t41 -17.5t14 -46.5q0 -18 -5 -29t-11.5 -17t-13.5 -8.5t-12 -4.5v-11h-33v45h2l5 -1q13 0 22 6t9 20t-5 20t-12 6q-8 0 -14.5 -4.5t-8.5 -17.5zM38 333q0 28 1.5 64t7 74t16 75t28.5 65.5t45.5 46.5t65.5 18q22 0 37.5 -4.5t22.5 -4.5
q17 0 22.5 11t5.5 42h52q0 -32 -9.5 -55t-32.5 -33q23 -27 36.5 -65t20 -79.5t8 -81.5t1.5 -70q0 -28 -1 -64.5t-6 -75t-15 -75t-28 -65.5t-45.5 -47t-67.5 -18q-39 0 -66.5 17.5t-45.5 46.5t-29 65.5t-16 74.5t-6.5 74t-1.5 64zM203 616q-26 0 -43.5 -16t-29 -41.5
t-17.5 -57t-8.5 -63t-3 -59t-0.5 -45.5q0 -17 0.5 -45t3 -59.5t8.5 -63.5t17.5 -57.5t29 -41.5t43.5 -16q28 0 45.5 16t27.5 40t14.5 51t6.5 48q6 75 6 152q0 17 -0.5 42.5t-3.5 54.5t-9 57.5t-17 51.5t-28 37.5t-42 14.5z" />
    <glyph glyph-name="uni1EDF" unicode="&#x1edf;" horiz-adv-x="323" 
d="M114 572q2 13 15 28.5t39 15.5t41 -17.5t14 -46.5q0 -18 -5 -29t-11.5 -17t-13.5 -8.5t-12 -4.5v-11h-33v45h2l5 -1q13 0 22 6t9 20t-5 20t-12 6q-8 0 -14.5 -4.5t-8.5 -17.5zM33 224q0 33 4.5 73t18 75t39.5 58.5t69 23.5q19 0 30.5 -3.5t18.5 -3.5q17 0 22.5 11t5.5 42
h52q0 -33 -10 -56.5t-35 -32.5q14 -19 22 -43t12.5 -49.5t5.5 -51t1 -46.5q0 -32 -3.5 -71.5t-16 -74.5t-37.5 -58.5t-68 -23.5t-69 24t-39.5 59t-18 75t-4.5 73zM163 402q-26 0 -40.5 -22t-21 -52t-8 -60.5t-1.5 -48.5t1.5 -47t8.5 -57t21.5 -48.5t39.5 -20.5t38.5 21.5
t20 50.5t8 59t1.5 47t-1.5 47t-8 59t-20 50.5t-38.5 21.5z" />
    <glyph glyph-name="uni1EE0" unicode="&#x1ee0;" horiz-adv-x="404" 
d="M114 731q2 8 7 17.5t12.5 18t16.5 14t18 5.5q17 0 27 -5t17 -10.5t13 -10.5t15 -5q10 0 15.5 10.5t8.5 19.5l28 -20q-1 -9 -6 -18.5t-12.5 -17.5t-17 -13t-19.5 -5q-14 0 -23.5 5t-17 10.5t-13.5 10.5t-12 5q-8 0 -15 -9t-14 -21zM203 -9q-39 0 -66.5 17.5t-45.5 46.5
t-29 65.5t-16 74.5t-6.5 74t-1.5 64t1.5 64t7 74t16 75t28.5 65.5t45.5 46.5t65.5 18q22 0 37.5 -4.5t22.5 -4.5q17 0 22.5 11t5.5 42h52q0 -32 -9.5 -55t-32.5 -33q23 -27 36.5 -65t20 -79.5t8 -81.5t1.5 -70q0 -28 -1 -64.5t-6 -75t-15 -75t-28 -65.5t-45.5 -47t-67.5 -18
zM203 616q-26 0 -43.5 -16t-29 -41.5t-17.5 -57t-8.5 -63t-3 -59t-0.5 -45.5q0 -17 0.5 -45t3 -59.5t8.5 -63.5t17.5 -57.5t29 -41.5t43.5 -16q28 0 45.5 16t27.5 40t14.5 51t6.5 48q6 75 6 152q0 17 -0.5 42.5t-3.5 54.5t-9 57.5t-17 51.5t-28 37.5t-42 14.5z" />
    <glyph glyph-name="uni1EE1" unicode="&#x1ee1;" horiz-adv-x="323" 
d="M73 511q2 8 7 17.5t12.5 18t16.5 14t18 5.5q17 0 27 -5t17 -10.5t13 -10.5t15 -5q10 0 15.5 10.5t8.5 19.5l28 -20q-1 -9 -6 -18.5t-12.5 -17.5t-17 -13t-19.5 -5q-14 0 -23.5 5t-17 10.5t-13.5 10.5t-12 5q-8 0 -15 -9t-14 -21zM164 -7q-43 0 -69 24t-39.5 59t-18 75
t-4.5 73t4.5 73t18 75t39.5 58.5t69 23.5q19 0 30.5 -3.5t18.5 -3.5q17 0 22.5 11t5.5 42h52q0 -33 -10 -56.5t-35 -32.5q14 -19 22 -43t12.5 -49.5t5.5 -51t1 -46.5q0 -32 -3.5 -71.5t-16 -74.5t-37.5 -58.5t-68 -23.5zM163 402q-26 0 -40.5 -22t-21 -52t-8 -60.5
t-1.5 -48.5t1.5 -47t8.5 -57t21.5 -48.5t39.5 -20.5t38.5 21.5t20 50.5t8 59t1.5 47t-1.5 47t-8 59t-20 50.5t-38.5 21.5z" />
    </font>
</defs>
</svg>
